M48
;DRILL file {KiCad 4.0.5} date Monday, February 26, 2018 'PMt' 04:13:12 PM
;FORMAT={-:-/ absolute / inch / decimal}
FMAT,2
INCH,TZ
T1C0.012
T2C0.016
T3C0.201
%
G90
G05
M72
T1
X4.9606Y-4.2913
X5.Y-3.622
X5.Y-3.7008
X5.Y-3.7795
X5.Y-3.8583
X5.Y-3.937
X5.Y-4.3701
X5.Y-4.4488
X5.Y-4.5276
X5.Y-4.6063
X5.Y-4.685
X5.0394Y-4.2913
X5.0787Y-3.5433
X5.0787Y-3.622
X5.0787Y-3.7008
X5.0787Y-3.7795
X5.0787Y-3.8583
X5.0787Y-3.937
X5.0787Y-4.3701
X5.0787Y-4.4488
X5.0787Y-4.5276
X5.0787Y-4.6063
X5.0787Y-4.685
X5.0787Y-4.7638
X5.1575Y-3.4646
X5.1575Y-3.5433
X5.1575Y-3.622
X5.1575Y-3.7008
X5.1575Y-3.7795
X5.1575Y-3.8583
X5.1575Y-3.937
X5.1575Y-4.2913
X5.1575Y-4.3701
X5.1575Y-4.4488
X5.1575Y-4.5276
X5.1575Y-4.6063
X5.1575Y-4.685
X5.1575Y-4.7638
X5.1575Y-4.8425
X5.2362Y-3.4646
X5.2362Y-4.7638
X5.2362Y-4.8425
X5.2756Y-4.1732
X5.315Y-3.4646
X5.315Y-4.7638
X5.315Y-4.8425
X5.3388Y-3.7295
X5.35Y-4.6788
X5.3543Y-4.2126
X5.3937Y-3.4646
X5.3937Y-4.7638
X5.3937Y-4.8425
X5.4724Y-3.4646
X5.4724Y-4.7638
X5.4724Y-4.8425
X5.5512Y-3.4646
X5.5512Y-4.2913
X5.5512Y-4.7638
X5.5512Y-4.8425
X5.6Y-4.3882
X5.6281Y-4.5638
X5.6299Y-3.4646
X5.6299Y-4.252
X5.6299Y-4.7638
X5.6299Y-4.8425
X5.7087Y-3.4646
X5.7087Y-3.5433
X5.7087Y-3.622
X5.7087Y-4.7638
X5.7087Y-4.8425
X5.7874Y-3.7008
X5.7874Y-4.8425
X5.8268Y-3.9764
X5.8268Y-4.0551
X5.8268Y-4.1732
X5.8268Y-4.252
X5.8268Y-4.3307
X5.8661Y-3.7795
X5.8661Y-4.8425
X5.9055Y-3.9764
X5.9055Y-4.0551
X5.9055Y-4.1732
X5.9055Y-4.252
X5.9055Y-4.3307
X5.9449Y-3.7795
X5.9449Y-4.8425
X5.9843Y-3.9764
X5.9843Y-4.0551
X5.9843Y-4.1732
X5.9843Y-4.252
X5.9843Y-4.3307
X6.0236Y-3.7008
X6.063Y-3.9764
X6.063Y-4.0551
X6.063Y-4.1732
X6.063Y-4.252
X6.063Y-4.3307
X6.063Y-4.8031
X6.1024Y-3.4646
X6.1024Y-3.5433
X6.1024Y-3.622
X6.1417Y-4.7244
X6.1417Y-4.8031
X6.1811Y-3.4646
X6.1811Y-3.5433
X6.2205Y-4.1732
X6.2205Y-4.8031
X6.2598Y-3.4646
X6.2992Y-4.1732
X6.2992Y-4.8031
X6.3386Y-3.4646
X6.378Y-4.1732
X6.378Y-4.8031
X6.4173Y-3.4646
X6.4567Y-4.1732
X6.4567Y-4.8031
X6.4961Y-3.4646
X6.5354Y-4.1732
X6.5354Y-4.8031
X6.5471Y-4.6251
X6.55Y-4.5378
X6.5748Y-3.4646
X6.6142Y-4.8031
X6.6535Y-3.4646
X6.6929Y-4.8031
X6.7323Y-3.4646
X6.7323Y-3.5433
X6.7323Y-3.622
X6.7323Y-3.7008
X6.7323Y-3.7795
X6.7323Y-3.8583
X6.7323Y-3.937
X6.7717Y-4.3307
X6.7717Y-4.4094
X6.7717Y-4.4882
X6.7717Y-4.5669
X6.7717Y-4.6457
X6.7717Y-4.7244
X6.7717Y-4.8031
X6.811Y-3.4646
X6.811Y-3.5433
X6.811Y-3.622
X6.811Y-3.7008
X6.811Y-3.7795
X6.811Y-3.8583
X6.811Y-3.937
X6.8504Y-4.3307
X6.8504Y-4.4094
X6.8504Y-4.4882
X6.8504Y-4.5669
X6.8504Y-4.6457
X6.8504Y-4.7244
X6.8898Y-3.622
X6.8898Y-3.7008
X6.8898Y-3.7795
X6.8898Y-3.8583
X6.8898Y-3.937
X6.9291Y-4.0157
X6.9291Y-4.0945
X6.9291Y-4.1732
X6.9291Y-4.252
T2
X5.7138Y-3.9205
X5.7138Y-3.9677
X5.7142Y-4.015
X5.7142Y-4.0622
X5.7148Y-4.2157
X5.7148Y-4.2629
X5.7152Y-4.3102
X5.7152Y-4.3574
X5.7156Y-4.4047
X5.7335Y-3.9441
X5.7335Y-3.9913
X5.7339Y-4.0386
X5.7339Y-4.0858
X5.7345Y-4.2393
X5.7345Y-4.2866
X5.7349Y-4.3338
X5.7349Y-4.3811
X5.7598Y-3.8874
X5.7598Y-4.415
X5.7835Y-3.9067
X5.7835Y-4.3953
X5.8071Y-3.887
X5.8071Y-4.415
X5.8307Y-3.9067
X5.8307Y-4.3953
X5.8543Y-3.887
X5.8543Y-4.4146
X5.878Y-3.9063
X5.878Y-4.3949
X5.9016Y-3.8866
X5.9016Y-4.4146
X5.9252Y-3.9063
X5.9252Y-4.3949
X5.9488Y-3.8866
X5.9488Y-4.4146
X5.9724Y-3.9063
X5.9724Y-4.3949
X5.9961Y-3.8866
X5.9961Y-4.4146
X6.0197Y-3.9063
X6.0197Y-4.3949
X6.0433Y-3.8866
X6.0433Y-4.4142
X6.0669Y-3.9059
X6.0669Y-4.3945
X6.0906Y-3.8862
X6.0906Y-4.4142
X6.1142Y-3.9059
X6.1142Y-4.3945
X6.1378Y-3.8862
X6.1378Y-4.4138
X6.163Y-4.2394
X6.163Y-4.2866
X6.1634Y-4.3339
X6.1634Y-4.3811
X6.1638Y-3.9441
X6.1638Y-3.9913
X6.1642Y-4.0386
X6.1642Y-4.0858
X6.1823Y-4.2157
X6.1827Y-4.263
X6.1827Y-4.3102
X6.1831Y-3.9205
X6.1831Y-4.3575
X6.1831Y-4.4047
X6.1835Y-3.9677
X6.1835Y-4.015
X6.1839Y-4.0622
T3
X5.1181Y-4.1339
X5.9055Y-3.5827
X5.9055Y-4.685
X6.7717Y-4.1339
T0
M30
