G04 #@! TF.FileFunction,Paste,Top*
%FSLAX46Y46*%
G04 Gerber Fmt 4.6, Leading zero omitted, Abs format (unit mm)*
G04 Created by KiCad (PCBNEW 4.0.5) date Monday, February 26, 2018 'PMt' 04:09:36 PM*
%MOMM*%
%LPD*%
G01*
G04 APERTURE LIST*
%ADD10C,0.100000*%
%ADD11R,2.200000X0.560000*%
G04 APERTURE END LIST*
D10*
D11*
X137840000Y-101080000D03*
X133940000Y-101080000D03*
X137840000Y-99810000D03*
X133940000Y-99810000D03*
X137840000Y-98540000D03*
X133940000Y-98540000D03*
X137840000Y-97270000D03*
X133940000Y-97270000D03*
X137840000Y-96000000D03*
X133940000Y-96000000D03*
X137840000Y-94730000D03*
X133940000Y-94730000D03*
X137840000Y-93460000D03*
X133940000Y-93460000D03*
X137840000Y-92190000D03*
X133940000Y-92190000D03*
X137840000Y-90920000D03*
X133940000Y-90920000D03*
X164420000Y-90920000D03*
X168320000Y-90920000D03*
X164420000Y-92190000D03*
X168320000Y-92190000D03*
X164420000Y-93460000D03*
X168320000Y-93460000D03*
X164420000Y-94730000D03*
X168320000Y-94730000D03*
X164420000Y-96000000D03*
X168320000Y-96000000D03*
X164420000Y-97270000D03*
X168320000Y-97270000D03*
X164420000Y-98540000D03*
X168320000Y-98540000D03*
X164420000Y-99810000D03*
X168320000Y-99810000D03*
X164420000Y-101080000D03*
X168320000Y-101080000D03*
X164420000Y-108920000D03*
X168320000Y-108920000D03*
X164420000Y-110190000D03*
X168320000Y-110190000D03*
X164420000Y-111460000D03*
X168320000Y-111460000D03*
X164420000Y-112730000D03*
X168320000Y-112730000D03*
X164420000Y-114000000D03*
X168320000Y-114000000D03*
X164420000Y-115270000D03*
X168320000Y-115270000D03*
X164420000Y-116540000D03*
X168320000Y-116540000D03*
X164420000Y-117810000D03*
X168320000Y-117810000D03*
X164420000Y-119080000D03*
X168320000Y-119080000D03*
X137840000Y-119080000D03*
X133940000Y-119080000D03*
X137840000Y-117810000D03*
X133940000Y-117810000D03*
X137840000Y-116540000D03*
X133940000Y-116540000D03*
X137840000Y-115270000D03*
X133940000Y-115270000D03*
X137840000Y-114000000D03*
X133940000Y-114000000D03*
X137840000Y-112730000D03*
X133940000Y-112730000D03*
X137840000Y-111460000D03*
X133940000Y-111460000D03*
X137840000Y-110190000D03*
X133940000Y-110190000D03*
X137840000Y-108920000D03*
X133940000Y-108920000D03*
M02*
