G04 #@! TF.FileFunction,Copper,L1,Top,Signal*
%FSLAX46Y46*%
G04 Gerber Fmt 4.6, Leading zero omitted, Abs format (unit mm)*
G04 Created by KiCad (PCBNEW 4.0.5) date Monday, February 26, 2018 'PMt' 04:09:36 PM*
%MOMM*%
%LPD*%
G01*
G04 APERTURE LIST*
%ADD10C,0.100000*%
%ADD11R,2.400000X0.760000*%
%ADD12C,0.606000*%
%ADD13C,6.500000*%
%ADD14C,0.600000*%
%ADD15C,0.160000*%
%ADD16C,0.254000*%
G04 APERTURE END LIST*
D10*
D11*
X137840000Y-101080000D03*
X133940000Y-101080000D03*
X137840000Y-99810000D03*
X133940000Y-99810000D03*
X137840000Y-98540000D03*
X133940000Y-98540000D03*
X137840000Y-97270000D03*
X133940000Y-97270000D03*
X137840000Y-96000000D03*
X133940000Y-96000000D03*
X137840000Y-94730000D03*
X133940000Y-94730000D03*
X137840000Y-93460000D03*
X133940000Y-93460000D03*
X137840000Y-92190000D03*
X133940000Y-92190000D03*
X137840000Y-90920000D03*
X133940000Y-90920000D03*
X164420000Y-90920000D03*
X168320000Y-90920000D03*
X164420000Y-92190000D03*
X168320000Y-92190000D03*
X164420000Y-93460000D03*
X168320000Y-93460000D03*
X164420000Y-94730000D03*
X168320000Y-94730000D03*
X164420000Y-96000000D03*
X168320000Y-96000000D03*
X164420000Y-97270000D03*
X168320000Y-97270000D03*
X164420000Y-98540000D03*
X168320000Y-98540000D03*
X164420000Y-99810000D03*
X168320000Y-99810000D03*
X164420000Y-101080000D03*
X168320000Y-101080000D03*
D12*
X145640000Y-103780000D03*
X145140000Y-103180000D03*
X145640000Y-102580000D03*
X145140000Y-101980000D03*
X145630000Y-101380000D03*
X145130000Y-100780000D03*
X145630000Y-100180000D03*
X145130000Y-99580000D03*
X157050000Y-111880000D03*
X156550000Y-111280000D03*
X157050000Y-110680000D03*
X156550000Y-110080000D03*
X157040000Y-109480000D03*
X156540000Y-108880000D03*
X157040000Y-108280000D03*
X156540000Y-107680000D03*
X157030000Y-107080000D03*
X145176001Y-111878727D03*
X145666001Y-111278727D03*
X145166001Y-110678727D03*
X145666001Y-110078727D03*
X145166001Y-109478727D03*
X145656001Y-108878727D03*
X145156001Y-108278727D03*
X145656001Y-107678727D03*
X145156001Y-107078727D03*
X146300000Y-112140000D03*
X146900000Y-111640000D03*
X147500000Y-112140000D03*
X148100000Y-111640000D03*
X148700000Y-112130000D03*
X149300000Y-111630000D03*
X149900000Y-112130000D03*
X150500000Y-111630000D03*
X155900000Y-112110000D03*
X155300000Y-111620000D03*
X154700000Y-112120000D03*
X154100000Y-111620000D03*
X153500000Y-112120000D03*
X152900000Y-111630000D03*
X152300000Y-112130000D03*
X151700000Y-111630000D03*
X151100000Y-112130000D03*
X155900000Y-98710000D03*
X155300000Y-99210000D03*
X154700000Y-98710000D03*
X154100000Y-99210000D03*
X153500000Y-98720000D03*
X152900000Y-99220000D03*
X152300000Y-98720000D03*
X151700000Y-99220000D03*
X151100000Y-98720000D03*
X150500000Y-99220000D03*
X149900000Y-98720000D03*
X149300000Y-99220000D03*
X148700000Y-98730000D03*
X148100000Y-99230000D03*
X147500000Y-98730000D03*
X146900000Y-99230000D03*
X146300000Y-98740000D03*
X157050000Y-99580000D03*
X156560000Y-100180000D03*
X157060000Y-100780000D03*
X156560000Y-101380000D03*
X157060000Y-101980000D03*
X156570000Y-102580000D03*
X157070000Y-103180000D03*
X156570000Y-103780000D03*
D11*
X164420000Y-108920000D03*
X168320000Y-108920000D03*
X164420000Y-110190000D03*
X168320000Y-110190000D03*
X164420000Y-111460000D03*
X168320000Y-111460000D03*
X164420000Y-112730000D03*
X168320000Y-112730000D03*
X164420000Y-114000000D03*
X168320000Y-114000000D03*
X164420000Y-115270000D03*
X168320000Y-115270000D03*
X164420000Y-116540000D03*
X168320000Y-116540000D03*
X164420000Y-117810000D03*
X168320000Y-117810000D03*
X164420000Y-119080000D03*
X168320000Y-119080000D03*
X137840000Y-119080000D03*
X133940000Y-119080000D03*
X137840000Y-117810000D03*
X133940000Y-117810000D03*
X137840000Y-116540000D03*
X133940000Y-116540000D03*
X137840000Y-115270000D03*
X133940000Y-115270000D03*
X137840000Y-114000000D03*
X133940000Y-114000000D03*
X137840000Y-112730000D03*
X133940000Y-112730000D03*
X137840000Y-111460000D03*
X133940000Y-111460000D03*
X137840000Y-110190000D03*
X133940000Y-110190000D03*
X137840000Y-108920000D03*
X133940000Y-108920000D03*
D13*
X150000000Y-91000000D03*
X150000000Y-119000000D03*
X172000000Y-105000000D03*
X130000000Y-105000000D03*
D14*
X134000000Y-106000000D03*
X136000000Y-107000000D03*
X141000000Y-109000000D03*
X143000000Y-108000000D03*
X126000000Y-109000000D03*
X128000000Y-109000000D03*
X131000000Y-109000000D03*
X131000000Y-111000000D03*
X129000000Y-111000000D03*
X127000000Y-111000000D03*
X127000000Y-113000000D03*
X129000000Y-113000000D03*
X131000000Y-113000000D03*
X131000000Y-115000000D03*
X129000000Y-115000000D03*
X127000000Y-115000000D03*
X127000000Y-117000000D03*
X129000000Y-117000000D03*
X131000000Y-117000000D03*
X131000000Y-119000000D03*
X129000000Y-119000000D03*
X127000000Y-119000000D03*
X129000000Y-121000000D03*
X131000000Y-123000000D03*
X131000000Y-121000000D03*
X133000000Y-121000000D03*
X133000000Y-123000000D03*
X135000000Y-123000000D03*
X135000000Y-121000000D03*
X137000000Y-121000000D03*
X137000000Y-123000000D03*
X139000000Y-123000000D03*
X139000000Y-121000000D03*
X141000000Y-121000000D03*
X141000000Y-123000000D03*
X143000000Y-123000000D03*
X143000000Y-121000000D03*
X145000000Y-121000000D03*
X145000000Y-123000000D03*
X147000000Y-123000000D03*
X149000000Y-123000000D03*
X151000000Y-123000000D03*
X156000000Y-120000000D03*
X154000000Y-122000000D03*
X156000000Y-122000000D03*
X158000000Y-122000000D03*
X160000000Y-122000000D03*
X162000000Y-122000000D03*
X164000000Y-122000000D03*
X166000000Y-122000000D03*
X168000000Y-122000000D03*
X170000000Y-122000000D03*
X172000000Y-122000000D03*
X174000000Y-120000000D03*
X172000000Y-120000000D03*
X172000000Y-118000000D03*
X174000000Y-118000000D03*
X174000000Y-116000000D03*
X172000000Y-116000000D03*
X172000000Y-114000000D03*
X174000000Y-114000000D03*
X174000000Y-112000000D03*
X172000000Y-112000000D03*
X172000000Y-110000000D03*
X174000000Y-110000000D03*
X176000000Y-108000000D03*
X176000000Y-106000000D03*
X176000000Y-104000000D03*
X176000000Y-102000000D03*
X175000000Y-100000000D03*
X173000000Y-100000000D03*
X171000000Y-100000000D03*
X171000000Y-98000000D03*
X173000000Y-98000000D03*
X175000000Y-98000000D03*
X175000000Y-96000000D03*
X173000000Y-96000000D03*
X171000000Y-96000000D03*
X171000000Y-94000000D03*
X173000000Y-94000000D03*
X175000000Y-94000000D03*
X175000000Y-92000000D03*
X173000000Y-92000000D03*
X171000000Y-92000000D03*
X171000000Y-90000000D03*
X173000000Y-90000000D03*
X173000000Y-88000000D03*
X171000000Y-88000000D03*
X169000000Y-88000000D03*
X167000000Y-88000000D03*
X165000000Y-88000000D03*
X163000000Y-88000000D03*
X161000000Y-88000000D03*
X159000000Y-88000000D03*
X157000000Y-90000000D03*
X157000000Y-88000000D03*
X155000000Y-88000000D03*
X155000000Y-90000000D03*
X155000000Y-92000000D03*
X153000000Y-94000000D03*
X151000000Y-96000000D03*
X149000000Y-96000000D03*
X147000000Y-94000000D03*
X145000000Y-92000000D03*
X145000000Y-90000000D03*
X145000000Y-88000000D03*
X143000000Y-88000000D03*
X141000000Y-88000000D03*
X139000000Y-88000000D03*
X137000000Y-88000000D03*
X135000000Y-88000000D03*
X133000000Y-88000000D03*
X131000000Y-88000000D03*
X129000000Y-90000000D03*
X131000000Y-90000000D03*
X131000000Y-92000000D03*
X129000000Y-92000000D03*
X127000000Y-92000000D03*
X127000000Y-94000000D03*
X129000000Y-94000000D03*
X131000000Y-94000000D03*
X131000000Y-96000000D03*
X129000000Y-96000000D03*
X127000000Y-96000000D03*
X127000000Y-98000000D03*
X127000000Y-100000000D03*
X129000000Y-100000000D03*
X129000000Y-98000000D03*
X131000000Y-98000000D03*
X131000000Y-100000000D03*
X135605600Y-94730000D03*
X166370000Y-115260700D03*
X166296500Y-117478800D03*
X135890000Y-118841500D03*
X142953100Y-115919700D03*
X142239400Y-111460000D03*
D15*
X136000000Y-107000000D02*
X135000000Y-106000000D01*
X135000000Y-106000000D02*
X134000000Y-106000000D01*
X143000000Y-108000000D02*
X142000000Y-109000000D01*
X142000000Y-109000000D02*
X141000000Y-109000000D01*
X131000000Y-109000000D02*
X128000000Y-109000000D01*
X129000000Y-111000000D02*
X131000000Y-111000000D01*
X127000000Y-113000000D02*
X127000000Y-111000000D01*
X131000000Y-113000000D02*
X129000000Y-113000000D01*
X129000000Y-115000000D02*
X131000000Y-115000000D01*
X127000000Y-117000000D02*
X127000000Y-115000000D01*
X131000000Y-117000000D02*
X129000000Y-117000000D01*
X129000000Y-119000000D02*
X131000000Y-119000000D01*
X129000000Y-121000000D02*
X127000000Y-119000000D01*
X131000000Y-121000000D02*
X131000000Y-123000000D01*
X133000000Y-123000000D02*
X133000000Y-121000000D01*
X135000000Y-121000000D02*
X135000000Y-123000000D01*
X137000000Y-123000000D02*
X137000000Y-121000000D01*
X139000000Y-121000000D02*
X139000000Y-123000000D01*
X141000000Y-123000000D02*
X141000000Y-121000000D01*
X143000000Y-121000000D02*
X143000000Y-123000000D01*
X145000000Y-123000000D02*
X145000000Y-121000000D01*
X149000000Y-123000000D02*
X147000000Y-123000000D01*
X156000000Y-120000000D02*
X153000000Y-123000000D01*
X153000000Y-123000000D02*
X151000000Y-123000000D01*
X156000000Y-122000000D02*
X154000000Y-122000000D01*
X160000000Y-122000000D02*
X158000000Y-122000000D01*
X164000000Y-122000000D02*
X162000000Y-122000000D01*
X168000000Y-122000000D02*
X166000000Y-122000000D01*
X172000000Y-122000000D02*
X170000000Y-122000000D01*
X172000000Y-120000000D02*
X174000000Y-120000000D01*
X174000000Y-118000000D02*
X172000000Y-118000000D01*
X172000000Y-116000000D02*
X174000000Y-116000000D01*
X174000000Y-114000000D02*
X172000000Y-114000000D01*
X172000000Y-112000000D02*
X174000000Y-112000000D01*
X174000000Y-110000000D02*
X172000000Y-110000000D01*
X176000000Y-106000000D02*
X176000000Y-108000000D01*
X176000000Y-102000000D02*
X176000000Y-104000000D01*
X173000000Y-100000000D02*
X175000000Y-100000000D01*
X171000000Y-98000000D02*
X171000000Y-100000000D01*
X175000000Y-98000000D02*
X173000000Y-98000000D01*
X173000000Y-96000000D02*
X175000000Y-96000000D01*
X171000000Y-94000000D02*
X171000000Y-96000000D01*
X175000000Y-94000000D02*
X173000000Y-94000000D01*
X173000000Y-92000000D02*
X175000000Y-92000000D01*
X171000000Y-90000000D02*
X171000000Y-92000000D01*
X173000000Y-88000000D02*
X173000000Y-90000000D01*
X169000000Y-88000000D02*
X171000000Y-88000000D01*
X165000000Y-88000000D02*
X167000000Y-88000000D01*
X161000000Y-88000000D02*
X163000000Y-88000000D01*
X157000000Y-90000000D02*
X159000000Y-88000000D01*
X155000000Y-88000000D02*
X157000000Y-88000000D01*
X155000000Y-92000000D02*
X155000000Y-90000000D01*
X151000000Y-96000000D02*
X153000000Y-94000000D01*
X147000000Y-94000000D02*
X149000000Y-96000000D01*
X145000000Y-90000000D02*
X145000000Y-92000000D01*
X143000000Y-88000000D02*
X145000000Y-88000000D01*
X139000000Y-88000000D02*
X141000000Y-88000000D01*
X135000000Y-88000000D02*
X137000000Y-88000000D01*
X131000000Y-88000000D02*
X133000000Y-88000000D01*
X131000000Y-90000000D02*
X129000000Y-90000000D01*
X129000000Y-92000000D02*
X131000000Y-92000000D01*
X127000000Y-94000000D02*
X127000000Y-92000000D01*
X131000000Y-94000000D02*
X129000000Y-94000000D01*
X129000000Y-96000000D02*
X131000000Y-96000000D01*
X127000000Y-98000000D02*
X127000000Y-96000000D01*
X129000000Y-100000000D02*
X127000000Y-100000000D01*
X131000000Y-98000000D02*
X129000000Y-98000000D01*
X133940000Y-99810000D02*
X131190000Y-99810000D01*
X131190000Y-99810000D02*
X131000000Y-100000000D01*
X133940000Y-99810000D02*
X132499700Y-99810000D01*
X138098100Y-107678700D02*
X145656000Y-107678700D01*
X132179400Y-101760000D02*
X138098100Y-107678700D01*
X132179400Y-100130300D02*
X132179400Y-101760000D01*
X132499700Y-99810000D02*
X132179400Y-100130300D01*
X142526100Y-104325800D02*
X139280300Y-101080000D01*
X156024200Y-104325800D02*
X142526100Y-104325800D01*
X156570000Y-103780000D02*
X156024200Y-104325800D01*
X137840000Y-101080000D02*
X139280300Y-101080000D01*
X133940000Y-101080000D02*
X135380300Y-101080000D01*
X139279500Y-104979200D02*
X135380300Y-101080000D01*
X154929200Y-104979200D02*
X139279500Y-104979200D01*
X157030000Y-107080000D02*
X154929200Y-104979200D01*
X137951000Y-107078700D02*
X145156000Y-107078700D01*
X132499700Y-101627400D02*
X137951000Y-107078700D01*
X132499700Y-100592800D02*
X132499700Y-101627400D01*
X132662200Y-100430300D02*
X132499700Y-100592800D01*
X135779400Y-100430300D02*
X132662200Y-100430300D01*
X136399700Y-99810000D02*
X135779400Y-100430300D01*
X137840000Y-99810000D02*
X136399700Y-99810000D01*
X139349400Y-98540000D02*
X137840000Y-98540000D01*
X144589400Y-103780000D02*
X139349400Y-98540000D01*
X145640000Y-103780000D02*
X144589400Y-103780000D01*
X136000600Y-97919700D02*
X135380300Y-98540000D01*
X139674000Y-97919700D02*
X136000600Y-97919700D01*
X144934300Y-103180000D02*
X139674000Y-97919700D01*
X145140000Y-103180000D02*
X144934300Y-103180000D01*
X133940000Y-98540000D02*
X135380300Y-98540000D01*
X139477400Y-97270000D02*
X137840000Y-97270000D01*
X144787400Y-102580000D02*
X139477400Y-97270000D01*
X145640000Y-102580000D02*
X144787400Y-102580000D01*
X136000600Y-96649700D02*
X135380300Y-97270000D01*
X139476900Y-96649700D02*
X136000600Y-96649700D01*
X144807200Y-101980000D02*
X139476900Y-96649700D01*
X145140000Y-101980000D02*
X144807200Y-101980000D01*
X133940000Y-97270000D02*
X135380300Y-97270000D01*
X144660300Y-101380000D02*
X139280300Y-96000000D01*
X145630000Y-101380000D02*
X144660300Y-101380000D01*
X137840000Y-96000000D02*
X139280300Y-96000000D01*
X133940000Y-96000000D02*
X135380300Y-96000000D01*
X144994500Y-100780000D02*
X145130000Y-100780000D01*
X139594200Y-95379700D02*
X144994500Y-100780000D01*
X136000600Y-95379700D02*
X139594200Y-95379700D01*
X135380300Y-96000000D02*
X136000600Y-95379700D01*
X139484600Y-94730000D02*
X137840000Y-94730000D01*
X144934600Y-100180000D02*
X139484600Y-94730000D01*
X145630000Y-100180000D02*
X144934600Y-100180000D01*
X133940000Y-94730000D02*
X135380300Y-94730000D01*
X135380300Y-94730000D02*
X135605600Y-94730000D01*
X141020000Y-93460000D02*
X146300000Y-98740000D01*
X137840000Y-93460000D02*
X141020000Y-93460000D01*
X136000600Y-94080300D02*
X135380300Y-93460000D01*
X140683900Y-94080300D02*
X136000600Y-94080300D01*
X145891800Y-99288200D02*
X140683900Y-94080300D01*
X146841800Y-99288200D02*
X145891800Y-99288200D01*
X146900000Y-99230000D02*
X146841800Y-99288200D01*
X133940000Y-93460000D02*
X135380300Y-93460000D01*
X140960000Y-92190000D02*
X147500000Y-98730000D01*
X137840000Y-92190000D02*
X140960000Y-92190000D01*
X136000600Y-91569700D02*
X135380300Y-92190000D01*
X141113500Y-91569700D02*
X136000600Y-91569700D01*
X148100000Y-98556200D02*
X141113500Y-91569700D01*
X148100000Y-99230000D02*
X148100000Y-98556200D01*
X133940000Y-92190000D02*
X135380300Y-92190000D01*
X140917000Y-90920000D02*
X137840000Y-90920000D01*
X148700000Y-98703000D02*
X140917000Y-90920000D01*
X148700000Y-98730000D02*
X148700000Y-98703000D01*
X136000600Y-90299700D02*
X135380300Y-90920000D01*
X141055900Y-90299700D02*
X136000600Y-90299700D01*
X149300000Y-98543800D02*
X141055900Y-90299700D01*
X149300000Y-99220000D02*
X149300000Y-98543800D01*
X133940000Y-90920000D02*
X135380300Y-90920000D01*
X157600500Y-90920000D02*
X164420000Y-90920000D01*
X149900000Y-98620500D02*
X157600500Y-90920000D01*
X149900000Y-98720000D02*
X149900000Y-98620500D01*
X150500000Y-98550800D02*
X150500000Y-99220000D01*
X157510500Y-91540300D02*
X150500000Y-98550800D01*
X166259400Y-91540300D02*
X157510500Y-91540300D01*
X166879700Y-90920000D02*
X166259400Y-91540300D01*
X168320000Y-90920000D02*
X166879700Y-90920000D01*
X157551000Y-92190000D02*
X164420000Y-92190000D01*
X151100000Y-98641000D02*
X157551000Y-92190000D01*
X151100000Y-98720000D02*
X151100000Y-98641000D01*
X151700000Y-98550800D02*
X151700000Y-99220000D01*
X157440500Y-92810300D02*
X151700000Y-98550800D01*
X166259400Y-92810300D02*
X157440500Y-92810300D01*
X166879700Y-92190000D02*
X166259400Y-92810300D01*
X168320000Y-92190000D02*
X166879700Y-92190000D01*
X157481000Y-93460000D02*
X164420000Y-93460000D01*
X152300000Y-98641000D02*
X157481000Y-93460000D01*
X152300000Y-98720000D02*
X152300000Y-98641000D01*
X152900000Y-98550800D02*
X152900000Y-99220000D01*
X157370500Y-94080300D02*
X152900000Y-98550800D01*
X166259400Y-94080300D02*
X157370500Y-94080300D01*
X166879700Y-93460000D02*
X166259400Y-94080300D01*
X168320000Y-93460000D02*
X166879700Y-93460000D01*
X157411000Y-94730000D02*
X164420000Y-94730000D01*
X153500000Y-98641000D02*
X157411000Y-94730000D01*
X153500000Y-98720000D02*
X153500000Y-98641000D01*
X168320000Y-94730000D02*
X166879700Y-94730000D01*
X154100000Y-98504900D02*
X154100000Y-99210000D01*
X157254600Y-95350300D02*
X154100000Y-98504900D01*
X166259400Y-95350300D02*
X157254600Y-95350300D01*
X166879700Y-94730000D02*
X166259400Y-95350300D01*
X157323200Y-96000000D02*
X164420000Y-96000000D01*
X154700000Y-98623200D02*
X157323200Y-96000000D01*
X154700000Y-98710000D02*
X154700000Y-98623200D01*
X155300000Y-98540800D02*
X155300000Y-99210000D01*
X157220500Y-96620300D02*
X155300000Y-98540800D01*
X166259400Y-96620300D02*
X157220500Y-96620300D01*
X166879700Y-96000000D02*
X166259400Y-96620300D01*
X168320000Y-96000000D02*
X166879700Y-96000000D01*
X157340000Y-97270000D02*
X164420000Y-97270000D01*
X155900000Y-98710000D02*
X157340000Y-97270000D01*
X168320000Y-97270000D02*
X166879700Y-97270000D01*
X166259400Y-97890300D02*
X166879700Y-97270000D01*
X158739700Y-97890300D02*
X166259400Y-97890300D01*
X157050000Y-99580000D02*
X158739700Y-97890300D01*
X158995800Y-98540000D02*
X164420000Y-98540000D01*
X157355800Y-100180000D02*
X158995800Y-98540000D01*
X156560000Y-100180000D02*
X157355800Y-100180000D01*
X166259400Y-99160300D02*
X166879700Y-98540000D01*
X158940100Y-99160300D02*
X166259400Y-99160300D01*
X157320400Y-100780000D02*
X158940100Y-99160300D01*
X157060000Y-100780000D02*
X157320400Y-100780000D01*
X168320000Y-98540000D02*
X166879700Y-98540000D01*
X159270400Y-99810000D02*
X164420000Y-99810000D01*
X157700400Y-101380000D02*
X159270400Y-99810000D01*
X156560000Y-101380000D02*
X157700400Y-101380000D01*
X168320000Y-99810000D02*
X166879700Y-99810000D01*
X158466800Y-101980000D02*
X157060000Y-101980000D01*
X160016500Y-100430300D02*
X158466800Y-101980000D01*
X166259400Y-100430300D02*
X160016500Y-100430300D01*
X166879700Y-99810000D02*
X166259400Y-100430300D01*
X161479700Y-102580000D02*
X162979700Y-101080000D01*
X156570000Y-102580000D02*
X161479700Y-102580000D01*
X164420000Y-101080000D02*
X162979700Y-101080000D01*
X164779700Y-103180000D02*
X166879700Y-101080000D01*
X157070000Y-103180000D02*
X164779700Y-103180000D01*
X168320000Y-101080000D02*
X166879700Y-101080000D01*
X161739700Y-107680000D02*
X162979700Y-108920000D01*
X156540000Y-107680000D02*
X161739700Y-107680000D01*
X164420000Y-108920000D02*
X162979700Y-108920000D01*
X168320000Y-108920000D02*
X166879700Y-108920000D01*
X157227800Y-108280000D02*
X157040000Y-108280000D01*
X158488100Y-109540300D02*
X157227800Y-108280000D01*
X166259400Y-109540300D02*
X158488100Y-109540300D01*
X166879700Y-108920000D02*
X166259400Y-109540300D01*
X157235400Y-108880000D02*
X156540000Y-108880000D01*
X158545400Y-110190000D02*
X157235400Y-108880000D01*
X164420000Y-110190000D02*
X158545400Y-110190000D01*
X166259400Y-110810300D02*
X166879700Y-110190000D01*
X158564400Y-110810300D02*
X166259400Y-110810300D01*
X157234100Y-109480000D02*
X158564400Y-110810300D01*
X157040000Y-109480000D02*
X157234100Y-109480000D01*
X168320000Y-110190000D02*
X166879700Y-110190000D01*
X157232800Y-110080000D02*
X156550000Y-110080000D01*
X158612800Y-111460000D02*
X157232800Y-110080000D01*
X164420000Y-111460000D02*
X158612800Y-111460000D01*
X168320000Y-111460000D02*
X166879700Y-111460000D01*
X157239100Y-110680000D02*
X157050000Y-110680000D01*
X158639400Y-112080300D02*
X157239100Y-110680000D01*
X166259400Y-112080300D02*
X158639400Y-112080300D01*
X166879700Y-111460000D02*
X166259400Y-112080300D01*
X158836000Y-112730000D02*
X164420000Y-112730000D01*
X157386000Y-111280000D02*
X158836000Y-112730000D01*
X156550000Y-111280000D02*
X157386000Y-111280000D01*
X166259400Y-113350300D02*
X166879700Y-112730000D01*
X158520300Y-113350300D02*
X166259400Y-113350300D01*
X157050000Y-111880000D02*
X158520300Y-113350300D01*
X168320000Y-112730000D02*
X166879700Y-112730000D01*
X164420000Y-114000000D02*
X162979700Y-114000000D01*
X157790000Y-114000000D02*
X155900000Y-112110000D01*
X162979700Y-114000000D02*
X157790000Y-114000000D01*
X168320000Y-114000000D02*
X166879700Y-114000000D01*
X155300000Y-112305000D02*
X155300000Y-111620000D01*
X157615400Y-114620400D02*
X155300000Y-112305000D01*
X166259300Y-114620400D02*
X157615400Y-114620400D01*
X166879700Y-114000000D02*
X166259300Y-114620400D01*
X154700000Y-112203900D02*
X154700000Y-112120000D01*
X157766100Y-115270000D02*
X154700000Y-112203900D01*
X164420000Y-115270000D02*
X157766100Y-115270000D01*
X166870400Y-115260700D02*
X166879700Y-115270000D01*
X166370000Y-115260700D02*
X166870400Y-115260700D01*
X168320000Y-115270000D02*
X166879700Y-115270000D01*
X157920000Y-116540000D02*
X164420000Y-116540000D01*
X153500000Y-112120000D02*
X157920000Y-116540000D01*
X168320000Y-116540000D02*
X166879700Y-116540000D01*
X152900000Y-112343000D02*
X152900000Y-111630000D01*
X157717300Y-117160300D02*
X152900000Y-112343000D01*
X165850500Y-117160300D02*
X157717300Y-117160300D01*
X166470800Y-116540000D02*
X165850500Y-117160300D01*
X166879700Y-116540000D02*
X166470800Y-116540000D01*
X157909100Y-117810000D02*
X164420000Y-117810000D01*
X152300000Y-112200900D02*
X157909100Y-117810000D01*
X152300000Y-112130000D02*
X152300000Y-112200900D01*
X168320000Y-117810000D02*
X166879700Y-117810000D01*
X166548500Y-117478800D02*
X166296500Y-117478800D01*
X166879700Y-117810000D02*
X166548500Y-117478800D01*
X158050000Y-119080000D02*
X164420000Y-119080000D01*
X151100000Y-112130000D02*
X158050000Y-119080000D01*
X166259400Y-119700300D02*
X166879700Y-119080000D01*
X157846200Y-119700300D02*
X166259400Y-119700300D01*
X150500000Y-112354100D02*
X157846200Y-119700300D01*
X150500000Y-111630000D02*
X150500000Y-112354100D01*
X168320000Y-119080000D02*
X166879700Y-119080000D01*
X142950000Y-119080000D02*
X137840000Y-119080000D01*
X149900000Y-112130000D02*
X142950000Y-119080000D01*
X135618800Y-118841500D02*
X135380300Y-119080000D01*
X135890000Y-118841500D02*
X135618800Y-118841500D01*
X133940000Y-119080000D02*
X135380300Y-119080000D01*
X143089800Y-117810000D02*
X137840000Y-117810000D01*
X148700000Y-112199800D02*
X143089800Y-117810000D01*
X148700000Y-112130000D02*
X148700000Y-112199800D01*
X133940000Y-117810000D02*
X135380300Y-117810000D01*
X136000600Y-117189700D02*
X135380300Y-117810000D01*
X143257000Y-117189700D02*
X136000600Y-117189700D01*
X148100000Y-112346700D02*
X143257000Y-117189700D01*
X148100000Y-111640000D02*
X148100000Y-112346700D01*
X143100000Y-116540000D02*
X137840000Y-116540000D01*
X147500000Y-112140000D02*
X143100000Y-116540000D01*
X133940000Y-116540000D02*
X135380300Y-116540000D01*
X136000600Y-115919700D02*
X142953100Y-115919700D01*
X135380300Y-116540000D02*
X136000600Y-115919700D01*
X143170000Y-115270000D02*
X137840000Y-115270000D01*
X146300000Y-112140000D02*
X143170000Y-115270000D01*
X136000600Y-114649700D02*
X135380300Y-115270000D01*
X142405000Y-114649700D02*
X136000600Y-114649700D01*
X145176000Y-111878700D02*
X142405000Y-114649700D01*
X133940000Y-115270000D02*
X135380300Y-115270000D01*
X144905600Y-111278700D02*
X145666000Y-111278700D01*
X142184300Y-114000000D02*
X144905600Y-111278700D01*
X137840000Y-114000000D02*
X142184300Y-114000000D01*
X136000600Y-113379700D02*
X135380300Y-114000000D01*
X142210700Y-113379700D02*
X136000600Y-113379700D01*
X144911700Y-110678700D02*
X142210700Y-113379700D01*
X145166000Y-110678700D02*
X144911700Y-110678700D01*
X133940000Y-114000000D02*
X135380300Y-114000000D01*
X142266500Y-112730000D02*
X137840000Y-112730000D01*
X144917800Y-110078700D02*
X142266500Y-112730000D01*
X145666000Y-110078700D02*
X144917800Y-110078700D01*
X133940000Y-112730000D02*
X135380300Y-112730000D01*
X136000600Y-112109700D02*
X135380300Y-112730000D01*
X142354000Y-112109700D02*
X136000600Y-112109700D01*
X144985000Y-109478700D02*
X142354000Y-112109700D01*
X145166000Y-109478700D02*
X144985000Y-109478700D01*
X137840000Y-111460000D02*
X139280300Y-111460000D01*
X142239400Y-111460000D02*
X139280300Y-111460000D01*
X136000600Y-110839700D02*
X135380300Y-111460000D01*
X142595000Y-110839700D02*
X136000600Y-110839700D01*
X145156000Y-108278700D02*
X142595000Y-110839700D01*
X133940000Y-111460000D02*
X135380300Y-111460000D01*
D16*
G36*
X176398000Y-90249356D02*
X176398000Y-119750644D01*
X172750644Y-123398000D01*
X129249356Y-123398000D01*
X125602000Y-119750644D01*
X125602000Y-105747996D01*
X126222346Y-105747996D01*
X126796148Y-107136704D01*
X127857708Y-108200118D01*
X129245412Y-108776343D01*
X130747996Y-108777654D01*
X132136704Y-108203852D01*
X133200118Y-107142292D01*
X133776343Y-105754588D01*
X133777654Y-104252004D01*
X133433881Y-103420009D01*
X137521786Y-107507914D01*
X137718711Y-107639495D01*
X137951000Y-107685700D01*
X144575241Y-107685700D01*
X144452771Y-107807956D01*
X144326145Y-108112905D01*
X144326025Y-108250247D01*
X142343572Y-110232700D01*
X139577324Y-110232700D01*
X139577324Y-109810000D01*
X139540577Y-109614706D01*
X139502854Y-109556082D01*
X139534990Y-109509049D01*
X139577324Y-109300000D01*
X139577324Y-108540000D01*
X139540577Y-108344706D01*
X139425158Y-108165340D01*
X139249049Y-108045010D01*
X139040000Y-108002676D01*
X136640000Y-108002676D01*
X136444706Y-108039423D01*
X136265340Y-108154842D01*
X136145010Y-108330951D01*
X136102676Y-108540000D01*
X136102676Y-109300000D01*
X136139423Y-109495294D01*
X136177146Y-109553918D01*
X136145010Y-109600951D01*
X136102676Y-109810000D01*
X136102676Y-110232700D01*
X136000600Y-110232700D01*
X135768311Y-110278905D01*
X135677324Y-110339701D01*
X135677324Y-109810000D01*
X135640577Y-109614706D01*
X135602854Y-109556082D01*
X135634990Y-109509049D01*
X135677324Y-109300000D01*
X135677324Y-108540000D01*
X135640577Y-108344706D01*
X135525158Y-108165340D01*
X135349049Y-108045010D01*
X135140000Y-108002676D01*
X132740000Y-108002676D01*
X132544706Y-108039423D01*
X132365340Y-108154842D01*
X132245010Y-108330951D01*
X132202676Y-108540000D01*
X132202676Y-109300000D01*
X132239423Y-109495294D01*
X132277146Y-109553918D01*
X132245010Y-109600951D01*
X132202676Y-109810000D01*
X132202676Y-110570000D01*
X132239423Y-110765294D01*
X132277146Y-110823918D01*
X132245010Y-110870951D01*
X132202676Y-111080000D01*
X132202676Y-111840000D01*
X132239423Y-112035294D01*
X132277146Y-112093918D01*
X132245010Y-112140951D01*
X132202676Y-112350000D01*
X132202676Y-113110000D01*
X132239423Y-113305294D01*
X132277146Y-113363918D01*
X132245010Y-113410951D01*
X132202676Y-113620000D01*
X132202676Y-114380000D01*
X132239423Y-114575294D01*
X132277146Y-114633918D01*
X132245010Y-114680951D01*
X132202676Y-114890000D01*
X132202676Y-115650000D01*
X132239423Y-115845294D01*
X132277146Y-115903918D01*
X132245010Y-115950951D01*
X132202676Y-116160000D01*
X132202676Y-116920000D01*
X132239423Y-117115294D01*
X132277146Y-117173918D01*
X132245010Y-117220951D01*
X132202676Y-117430000D01*
X132202676Y-118190000D01*
X132239423Y-118385294D01*
X132277146Y-118443918D01*
X132245010Y-118490951D01*
X132202676Y-118700000D01*
X132202676Y-119460000D01*
X132239423Y-119655294D01*
X132354842Y-119834660D01*
X132530951Y-119954990D01*
X132740000Y-119997324D01*
X135140000Y-119997324D01*
X135335294Y-119960577D01*
X135514660Y-119845158D01*
X135634990Y-119669049D01*
X135642084Y-119634019D01*
X135724778Y-119668356D01*
X136053779Y-119668643D01*
X136135575Y-119634845D01*
X136139423Y-119655294D01*
X136254842Y-119834660D01*
X136430951Y-119954990D01*
X136640000Y-119997324D01*
X139040000Y-119997324D01*
X139235294Y-119960577D01*
X139414660Y-119845158D01*
X139481048Y-119747996D01*
X146222346Y-119747996D01*
X146796148Y-121136704D01*
X147857708Y-122200118D01*
X149245412Y-122776343D01*
X150747996Y-122777654D01*
X152136704Y-122203852D01*
X153200118Y-121142292D01*
X153776343Y-119754588D01*
X153777654Y-118252004D01*
X153203852Y-116863296D01*
X152142292Y-115799882D01*
X150754588Y-115223657D01*
X149252004Y-115222346D01*
X147863296Y-115796148D01*
X146799882Y-116857708D01*
X146223657Y-118245412D01*
X146222346Y-119747996D01*
X139481048Y-119747996D01*
X139522725Y-119687000D01*
X142950000Y-119687000D01*
X143182289Y-119640795D01*
X143379214Y-119509214D01*
X149928403Y-112960025D01*
X150064373Y-112960144D01*
X150194039Y-112906567D01*
X157416986Y-120129514D01*
X157613911Y-120261095D01*
X157846200Y-120307300D01*
X166259400Y-120307300D01*
X166491689Y-120261095D01*
X166688614Y-120129514D01*
X166882546Y-119935582D01*
X166910951Y-119954990D01*
X167120000Y-119997324D01*
X169520000Y-119997324D01*
X169715294Y-119960577D01*
X169894660Y-119845158D01*
X170014990Y-119669049D01*
X170057324Y-119460000D01*
X170057324Y-118700000D01*
X170020577Y-118504706D01*
X169982854Y-118446082D01*
X170014990Y-118399049D01*
X170057324Y-118190000D01*
X170057324Y-117430000D01*
X170020577Y-117234706D01*
X169982854Y-117176082D01*
X170014990Y-117129049D01*
X170057324Y-116920000D01*
X170057324Y-116160000D01*
X170020577Y-115964706D01*
X169982854Y-115906082D01*
X170014990Y-115859049D01*
X170057324Y-115650000D01*
X170057324Y-114890000D01*
X170020577Y-114694706D01*
X169982854Y-114636082D01*
X170014990Y-114589049D01*
X170057324Y-114380000D01*
X170057324Y-113620000D01*
X170020577Y-113424706D01*
X169982854Y-113366082D01*
X170014990Y-113319049D01*
X170057324Y-113110000D01*
X170057324Y-112350000D01*
X170020577Y-112154706D01*
X169982854Y-112096082D01*
X170014990Y-112049049D01*
X170057324Y-111840000D01*
X170057324Y-111080000D01*
X170020577Y-110884706D01*
X169982854Y-110826082D01*
X170014990Y-110779049D01*
X170057324Y-110570000D01*
X170057324Y-109810000D01*
X170020577Y-109614706D01*
X169982854Y-109556082D01*
X170014990Y-109509049D01*
X170057324Y-109300000D01*
X170057324Y-108540000D01*
X170020577Y-108344706D01*
X169952998Y-108239686D01*
X171245412Y-108776343D01*
X172747996Y-108777654D01*
X174136704Y-108203852D01*
X175200118Y-107142292D01*
X175776343Y-105754588D01*
X175777654Y-104252004D01*
X175203852Y-102863296D01*
X174142292Y-101799882D01*
X172754588Y-101223657D01*
X171252004Y-101222346D01*
X169953658Y-101758811D01*
X170014990Y-101669049D01*
X170057324Y-101460000D01*
X170057324Y-100700000D01*
X170020577Y-100504706D01*
X169982854Y-100446082D01*
X170014990Y-100399049D01*
X170057324Y-100190000D01*
X170057324Y-99430000D01*
X170020577Y-99234706D01*
X169982854Y-99176082D01*
X170014990Y-99129049D01*
X170057324Y-98920000D01*
X170057324Y-98160000D01*
X170020577Y-97964706D01*
X169982854Y-97906082D01*
X170014990Y-97859049D01*
X170057324Y-97650000D01*
X170057324Y-96890000D01*
X170020577Y-96694706D01*
X169982854Y-96636082D01*
X170014990Y-96589049D01*
X170057324Y-96380000D01*
X170057324Y-95620000D01*
X170020577Y-95424706D01*
X169982854Y-95366082D01*
X170014990Y-95319049D01*
X170057324Y-95110000D01*
X170057324Y-94350000D01*
X170020577Y-94154706D01*
X169982854Y-94096082D01*
X170014990Y-94049049D01*
X170057324Y-93840000D01*
X170057324Y-93080000D01*
X170020577Y-92884706D01*
X169982854Y-92826082D01*
X170014990Y-92779049D01*
X170057324Y-92570000D01*
X170057324Y-91810000D01*
X170020577Y-91614706D01*
X169982854Y-91556082D01*
X170014990Y-91509049D01*
X170057324Y-91300000D01*
X170057324Y-90540000D01*
X170020577Y-90344706D01*
X169905158Y-90165340D01*
X169729049Y-90045010D01*
X169520000Y-90002676D01*
X167120000Y-90002676D01*
X166924706Y-90039423D01*
X166745340Y-90154842D01*
X166625010Y-90330951D01*
X166614888Y-90380936D01*
X166450486Y-90490786D01*
X166157324Y-90783948D01*
X166157324Y-90540000D01*
X166120577Y-90344706D01*
X166005158Y-90165340D01*
X165829049Y-90045010D01*
X165620000Y-90002676D01*
X163220000Y-90002676D01*
X163024706Y-90039423D01*
X162845340Y-90154842D01*
X162737275Y-90313000D01*
X157600505Y-90313000D01*
X157600500Y-90312999D01*
X157406751Y-90351539D01*
X157368211Y-90359205D01*
X157171286Y-90490786D01*
X157171284Y-90490789D01*
X149772184Y-97889888D01*
X149735627Y-97889856D01*
X149572066Y-97957438D01*
X143362624Y-91747996D01*
X146222346Y-91747996D01*
X146796148Y-93136704D01*
X147857708Y-94200118D01*
X149245412Y-94776343D01*
X150747996Y-94777654D01*
X152136704Y-94203852D01*
X153200118Y-93142292D01*
X153776343Y-91754588D01*
X153777654Y-90252004D01*
X153203852Y-88863296D01*
X152142292Y-87799882D01*
X150754588Y-87223657D01*
X149252004Y-87222346D01*
X147863296Y-87796148D01*
X146799882Y-88857708D01*
X146223657Y-90245412D01*
X146222346Y-91747996D01*
X143362624Y-91747996D01*
X141485114Y-89870486D01*
X141288189Y-89738905D01*
X141055900Y-89692700D01*
X136000600Y-89692700D01*
X135768311Y-89738905D01*
X135571386Y-89870486D01*
X135377454Y-90064418D01*
X135349049Y-90045010D01*
X135140000Y-90002676D01*
X132740000Y-90002676D01*
X132544706Y-90039423D01*
X132365340Y-90154842D01*
X132245010Y-90330951D01*
X132202676Y-90540000D01*
X132202676Y-91300000D01*
X132239423Y-91495294D01*
X132277146Y-91553918D01*
X132245010Y-91600951D01*
X132202676Y-91810000D01*
X132202676Y-92570000D01*
X132239423Y-92765294D01*
X132277146Y-92823918D01*
X132245010Y-92870951D01*
X132202676Y-93080000D01*
X132202676Y-93840000D01*
X132239423Y-94035294D01*
X132277146Y-94093918D01*
X132245010Y-94140951D01*
X132202676Y-94350000D01*
X132202676Y-95110000D01*
X132239423Y-95305294D01*
X132277146Y-95363918D01*
X132245010Y-95410951D01*
X132202676Y-95620000D01*
X132202676Y-96380000D01*
X132239423Y-96575294D01*
X132277146Y-96633918D01*
X132245010Y-96680951D01*
X132202676Y-96890000D01*
X132202676Y-97650000D01*
X132239423Y-97845294D01*
X132277146Y-97903918D01*
X132245010Y-97950951D01*
X132202676Y-98160000D01*
X132202676Y-98920000D01*
X132226320Y-99045655D01*
X132201673Y-99070302D01*
X132105000Y-99303691D01*
X132105000Y-99524250D01*
X132263750Y-99683000D01*
X133813000Y-99683000D01*
X133813000Y-99663000D01*
X134067000Y-99663000D01*
X134067000Y-99683000D01*
X134087000Y-99683000D01*
X134087000Y-99823300D01*
X132662200Y-99823300D01*
X132429911Y-99869505D01*
X132328898Y-99937000D01*
X132263750Y-99937000D01*
X132105000Y-100095750D01*
X132105000Y-100129072D01*
X132070486Y-100163586D01*
X131938905Y-100360511D01*
X131892700Y-100592800D01*
X131892700Y-101627400D01*
X131907626Y-101702440D01*
X130754588Y-101223657D01*
X129252004Y-101222346D01*
X127863296Y-101796148D01*
X126799882Y-102857708D01*
X126223657Y-104245412D01*
X126222346Y-105747996D01*
X125602000Y-105747996D01*
X125602000Y-90249356D01*
X129249356Y-86602000D01*
X172750644Y-86602000D01*
X176398000Y-90249356D01*
X176398000Y-90249356D01*
G37*
X176398000Y-90249356D02*
X176398000Y-119750644D01*
X172750644Y-123398000D01*
X129249356Y-123398000D01*
X125602000Y-119750644D01*
X125602000Y-105747996D01*
X126222346Y-105747996D01*
X126796148Y-107136704D01*
X127857708Y-108200118D01*
X129245412Y-108776343D01*
X130747996Y-108777654D01*
X132136704Y-108203852D01*
X133200118Y-107142292D01*
X133776343Y-105754588D01*
X133777654Y-104252004D01*
X133433881Y-103420009D01*
X137521786Y-107507914D01*
X137718711Y-107639495D01*
X137951000Y-107685700D01*
X144575241Y-107685700D01*
X144452771Y-107807956D01*
X144326145Y-108112905D01*
X144326025Y-108250247D01*
X142343572Y-110232700D01*
X139577324Y-110232700D01*
X139577324Y-109810000D01*
X139540577Y-109614706D01*
X139502854Y-109556082D01*
X139534990Y-109509049D01*
X139577324Y-109300000D01*
X139577324Y-108540000D01*
X139540577Y-108344706D01*
X139425158Y-108165340D01*
X139249049Y-108045010D01*
X139040000Y-108002676D01*
X136640000Y-108002676D01*
X136444706Y-108039423D01*
X136265340Y-108154842D01*
X136145010Y-108330951D01*
X136102676Y-108540000D01*
X136102676Y-109300000D01*
X136139423Y-109495294D01*
X136177146Y-109553918D01*
X136145010Y-109600951D01*
X136102676Y-109810000D01*
X136102676Y-110232700D01*
X136000600Y-110232700D01*
X135768311Y-110278905D01*
X135677324Y-110339701D01*
X135677324Y-109810000D01*
X135640577Y-109614706D01*
X135602854Y-109556082D01*
X135634990Y-109509049D01*
X135677324Y-109300000D01*
X135677324Y-108540000D01*
X135640577Y-108344706D01*
X135525158Y-108165340D01*
X135349049Y-108045010D01*
X135140000Y-108002676D01*
X132740000Y-108002676D01*
X132544706Y-108039423D01*
X132365340Y-108154842D01*
X132245010Y-108330951D01*
X132202676Y-108540000D01*
X132202676Y-109300000D01*
X132239423Y-109495294D01*
X132277146Y-109553918D01*
X132245010Y-109600951D01*
X132202676Y-109810000D01*
X132202676Y-110570000D01*
X132239423Y-110765294D01*
X132277146Y-110823918D01*
X132245010Y-110870951D01*
X132202676Y-111080000D01*
X132202676Y-111840000D01*
X132239423Y-112035294D01*
X132277146Y-112093918D01*
X132245010Y-112140951D01*
X132202676Y-112350000D01*
X132202676Y-113110000D01*
X132239423Y-113305294D01*
X132277146Y-113363918D01*
X132245010Y-113410951D01*
X132202676Y-113620000D01*
X132202676Y-114380000D01*
X132239423Y-114575294D01*
X132277146Y-114633918D01*
X132245010Y-114680951D01*
X132202676Y-114890000D01*
X132202676Y-115650000D01*
X132239423Y-115845294D01*
X132277146Y-115903918D01*
X132245010Y-115950951D01*
X132202676Y-116160000D01*
X132202676Y-116920000D01*
X132239423Y-117115294D01*
X132277146Y-117173918D01*
X132245010Y-117220951D01*
X132202676Y-117430000D01*
X132202676Y-118190000D01*
X132239423Y-118385294D01*
X132277146Y-118443918D01*
X132245010Y-118490951D01*
X132202676Y-118700000D01*
X132202676Y-119460000D01*
X132239423Y-119655294D01*
X132354842Y-119834660D01*
X132530951Y-119954990D01*
X132740000Y-119997324D01*
X135140000Y-119997324D01*
X135335294Y-119960577D01*
X135514660Y-119845158D01*
X135634990Y-119669049D01*
X135642084Y-119634019D01*
X135724778Y-119668356D01*
X136053779Y-119668643D01*
X136135575Y-119634845D01*
X136139423Y-119655294D01*
X136254842Y-119834660D01*
X136430951Y-119954990D01*
X136640000Y-119997324D01*
X139040000Y-119997324D01*
X139235294Y-119960577D01*
X139414660Y-119845158D01*
X139481048Y-119747996D01*
X146222346Y-119747996D01*
X146796148Y-121136704D01*
X147857708Y-122200118D01*
X149245412Y-122776343D01*
X150747996Y-122777654D01*
X152136704Y-122203852D01*
X153200118Y-121142292D01*
X153776343Y-119754588D01*
X153777654Y-118252004D01*
X153203852Y-116863296D01*
X152142292Y-115799882D01*
X150754588Y-115223657D01*
X149252004Y-115222346D01*
X147863296Y-115796148D01*
X146799882Y-116857708D01*
X146223657Y-118245412D01*
X146222346Y-119747996D01*
X139481048Y-119747996D01*
X139522725Y-119687000D01*
X142950000Y-119687000D01*
X143182289Y-119640795D01*
X143379214Y-119509214D01*
X149928403Y-112960025D01*
X150064373Y-112960144D01*
X150194039Y-112906567D01*
X157416986Y-120129514D01*
X157613911Y-120261095D01*
X157846200Y-120307300D01*
X166259400Y-120307300D01*
X166491689Y-120261095D01*
X166688614Y-120129514D01*
X166882546Y-119935582D01*
X166910951Y-119954990D01*
X167120000Y-119997324D01*
X169520000Y-119997324D01*
X169715294Y-119960577D01*
X169894660Y-119845158D01*
X170014990Y-119669049D01*
X170057324Y-119460000D01*
X170057324Y-118700000D01*
X170020577Y-118504706D01*
X169982854Y-118446082D01*
X170014990Y-118399049D01*
X170057324Y-118190000D01*
X170057324Y-117430000D01*
X170020577Y-117234706D01*
X169982854Y-117176082D01*
X170014990Y-117129049D01*
X170057324Y-116920000D01*
X170057324Y-116160000D01*
X170020577Y-115964706D01*
X169982854Y-115906082D01*
X170014990Y-115859049D01*
X170057324Y-115650000D01*
X170057324Y-114890000D01*
X170020577Y-114694706D01*
X169982854Y-114636082D01*
X170014990Y-114589049D01*
X170057324Y-114380000D01*
X170057324Y-113620000D01*
X170020577Y-113424706D01*
X169982854Y-113366082D01*
X170014990Y-113319049D01*
X170057324Y-113110000D01*
X170057324Y-112350000D01*
X170020577Y-112154706D01*
X169982854Y-112096082D01*
X170014990Y-112049049D01*
X170057324Y-111840000D01*
X170057324Y-111080000D01*
X170020577Y-110884706D01*
X169982854Y-110826082D01*
X170014990Y-110779049D01*
X170057324Y-110570000D01*
X170057324Y-109810000D01*
X170020577Y-109614706D01*
X169982854Y-109556082D01*
X170014990Y-109509049D01*
X170057324Y-109300000D01*
X170057324Y-108540000D01*
X170020577Y-108344706D01*
X169952998Y-108239686D01*
X171245412Y-108776343D01*
X172747996Y-108777654D01*
X174136704Y-108203852D01*
X175200118Y-107142292D01*
X175776343Y-105754588D01*
X175777654Y-104252004D01*
X175203852Y-102863296D01*
X174142292Y-101799882D01*
X172754588Y-101223657D01*
X171252004Y-101222346D01*
X169953658Y-101758811D01*
X170014990Y-101669049D01*
X170057324Y-101460000D01*
X170057324Y-100700000D01*
X170020577Y-100504706D01*
X169982854Y-100446082D01*
X170014990Y-100399049D01*
X170057324Y-100190000D01*
X170057324Y-99430000D01*
X170020577Y-99234706D01*
X169982854Y-99176082D01*
X170014990Y-99129049D01*
X170057324Y-98920000D01*
X170057324Y-98160000D01*
X170020577Y-97964706D01*
X169982854Y-97906082D01*
X170014990Y-97859049D01*
X170057324Y-97650000D01*
X170057324Y-96890000D01*
X170020577Y-96694706D01*
X169982854Y-96636082D01*
X170014990Y-96589049D01*
X170057324Y-96380000D01*
X170057324Y-95620000D01*
X170020577Y-95424706D01*
X169982854Y-95366082D01*
X170014990Y-95319049D01*
X170057324Y-95110000D01*
X170057324Y-94350000D01*
X170020577Y-94154706D01*
X169982854Y-94096082D01*
X170014990Y-94049049D01*
X170057324Y-93840000D01*
X170057324Y-93080000D01*
X170020577Y-92884706D01*
X169982854Y-92826082D01*
X170014990Y-92779049D01*
X170057324Y-92570000D01*
X170057324Y-91810000D01*
X170020577Y-91614706D01*
X169982854Y-91556082D01*
X170014990Y-91509049D01*
X170057324Y-91300000D01*
X170057324Y-90540000D01*
X170020577Y-90344706D01*
X169905158Y-90165340D01*
X169729049Y-90045010D01*
X169520000Y-90002676D01*
X167120000Y-90002676D01*
X166924706Y-90039423D01*
X166745340Y-90154842D01*
X166625010Y-90330951D01*
X166614888Y-90380936D01*
X166450486Y-90490786D01*
X166157324Y-90783948D01*
X166157324Y-90540000D01*
X166120577Y-90344706D01*
X166005158Y-90165340D01*
X165829049Y-90045010D01*
X165620000Y-90002676D01*
X163220000Y-90002676D01*
X163024706Y-90039423D01*
X162845340Y-90154842D01*
X162737275Y-90313000D01*
X157600505Y-90313000D01*
X157600500Y-90312999D01*
X157406751Y-90351539D01*
X157368211Y-90359205D01*
X157171286Y-90490786D01*
X157171284Y-90490789D01*
X149772184Y-97889888D01*
X149735627Y-97889856D01*
X149572066Y-97957438D01*
X143362624Y-91747996D01*
X146222346Y-91747996D01*
X146796148Y-93136704D01*
X147857708Y-94200118D01*
X149245412Y-94776343D01*
X150747996Y-94777654D01*
X152136704Y-94203852D01*
X153200118Y-93142292D01*
X153776343Y-91754588D01*
X153777654Y-90252004D01*
X153203852Y-88863296D01*
X152142292Y-87799882D01*
X150754588Y-87223657D01*
X149252004Y-87222346D01*
X147863296Y-87796148D01*
X146799882Y-88857708D01*
X146223657Y-90245412D01*
X146222346Y-91747996D01*
X143362624Y-91747996D01*
X141485114Y-89870486D01*
X141288189Y-89738905D01*
X141055900Y-89692700D01*
X136000600Y-89692700D01*
X135768311Y-89738905D01*
X135571386Y-89870486D01*
X135377454Y-90064418D01*
X135349049Y-90045010D01*
X135140000Y-90002676D01*
X132740000Y-90002676D01*
X132544706Y-90039423D01*
X132365340Y-90154842D01*
X132245010Y-90330951D01*
X132202676Y-90540000D01*
X132202676Y-91300000D01*
X132239423Y-91495294D01*
X132277146Y-91553918D01*
X132245010Y-91600951D01*
X132202676Y-91810000D01*
X132202676Y-92570000D01*
X132239423Y-92765294D01*
X132277146Y-92823918D01*
X132245010Y-92870951D01*
X132202676Y-93080000D01*
X132202676Y-93840000D01*
X132239423Y-94035294D01*
X132277146Y-94093918D01*
X132245010Y-94140951D01*
X132202676Y-94350000D01*
X132202676Y-95110000D01*
X132239423Y-95305294D01*
X132277146Y-95363918D01*
X132245010Y-95410951D01*
X132202676Y-95620000D01*
X132202676Y-96380000D01*
X132239423Y-96575294D01*
X132277146Y-96633918D01*
X132245010Y-96680951D01*
X132202676Y-96890000D01*
X132202676Y-97650000D01*
X132239423Y-97845294D01*
X132277146Y-97903918D01*
X132245010Y-97950951D01*
X132202676Y-98160000D01*
X132202676Y-98920000D01*
X132226320Y-99045655D01*
X132201673Y-99070302D01*
X132105000Y-99303691D01*
X132105000Y-99524250D01*
X132263750Y-99683000D01*
X133813000Y-99683000D01*
X133813000Y-99663000D01*
X134067000Y-99663000D01*
X134067000Y-99683000D01*
X134087000Y-99683000D01*
X134087000Y-99823300D01*
X132662200Y-99823300D01*
X132429911Y-99869505D01*
X132328898Y-99937000D01*
X132263750Y-99937000D01*
X132105000Y-100095750D01*
X132105000Y-100129072D01*
X132070486Y-100163586D01*
X131938905Y-100360511D01*
X131892700Y-100592800D01*
X131892700Y-101627400D01*
X131907626Y-101702440D01*
X130754588Y-101223657D01*
X129252004Y-101222346D01*
X127863296Y-101796148D01*
X126799882Y-102857708D01*
X126223657Y-104245412D01*
X126222346Y-105747996D01*
X125602000Y-105747996D01*
X125602000Y-90249356D01*
X129249356Y-86602000D01*
X172750644Y-86602000D01*
X176398000Y-90249356D01*
M02*
