G04 #@! TF.GenerationSoftware,KiCad,Pcbnew,(5.0.0-3-g5ebb6b6)*
G04 #@! TF.CreationDate,2019-10-28T13:28:08-04:00*
G04 #@! TF.ProjectId,Selection Interface,53656C656374696F6E20496E74657266,rev?*
G04 #@! TF.SameCoordinates,Original*
G04 #@! TF.FileFunction,Legend,Top*
G04 #@! TF.FilePolarity,Positive*
%FSLAX46Y46*%
G04 Gerber Fmt 4.6, Leading zero omitted, Abs format (unit mm)*
G04 Created by KiCad (PCBNEW (5.0.0-3-g5ebb6b6)) date Monday, October 28, 2019 at 01:28:08 PM*
%MOMM*%
%LPD*%
G01*
G04 APERTURE LIST*
%ADD10C,0.200000*%
%ADD11C,0.150000*%
%ADD12C,0.160000*%
%ADD13C,0.300000*%
%ADD14C,0.120000*%
G04 APERTURE END LIST*
D10*
X165735000Y-112395000D02*
X166370000Y-111760000D01*
X161925000Y-112395000D02*
X165735000Y-112395000D01*
X161290000Y-111760000D02*
X161925000Y-112395000D01*
X165735000Y-89535000D02*
X166370000Y-90170000D01*
X161925000Y-89535000D02*
X165735000Y-89535000D01*
X161290000Y-90170000D02*
X161925000Y-89535000D01*
D11*
X237809523Y-135357142D02*
X237761904Y-135404761D01*
X237619047Y-135452380D01*
X237523809Y-135452380D01*
X237380952Y-135404761D01*
X237285714Y-135309523D01*
X237238095Y-135214285D01*
X237190476Y-135023809D01*
X237190476Y-134880952D01*
X237238095Y-134690476D01*
X237285714Y-134595238D01*
X237380952Y-134500000D01*
X237523809Y-134452380D01*
X237619047Y-134452380D01*
X237761904Y-134500000D01*
X237809523Y-134547619D01*
X238238095Y-135452380D02*
X238238095Y-134452380D01*
X238619047Y-134452380D01*
X238714285Y-134500000D01*
X238761904Y-134547619D01*
X238809523Y-134642857D01*
X238809523Y-134785714D01*
X238761904Y-134880952D01*
X238714285Y-134928571D01*
X238619047Y-134976190D01*
X238238095Y-134976190D01*
X239238095Y-134452380D02*
X239238095Y-135261904D01*
X239285714Y-135357142D01*
X239333333Y-135404761D01*
X239428571Y-135452380D01*
X239619047Y-135452380D01*
X239714285Y-135404761D01*
X239761904Y-135357142D01*
X239809523Y-135261904D01*
X239809523Y-134452380D01*
X240809523Y-135452380D02*
X240238095Y-135452380D01*
X240523809Y-135452380D02*
X240523809Y-134452380D01*
X240428571Y-134595238D01*
X240333333Y-134690476D01*
X240238095Y-134738095D01*
D10*
X252603000Y-97536000D02*
X252603000Y-104267000D01*
X250952000Y-104267000D02*
X252603000Y-104267000D01*
X250952000Y-97536000D02*
X252603000Y-97536000D01*
X239903000Y-97536000D02*
X239903000Y-107061000D01*
X239903000Y-97536000D02*
X241554000Y-97536000D01*
D12*
X251792857Y-103264761D02*
X251831904Y-103303809D01*
X251870952Y-103420952D01*
X251870952Y-103499047D01*
X251831904Y-103616190D01*
X251753809Y-103694285D01*
X251675714Y-103733333D01*
X251519523Y-103772380D01*
X251402380Y-103772380D01*
X251246190Y-103733333D01*
X251168095Y-103694285D01*
X251090000Y-103616190D01*
X251050952Y-103499047D01*
X251050952Y-103420952D01*
X251090000Y-103303809D01*
X251129047Y-103264761D01*
X251870952Y-102913333D02*
X251050952Y-102913333D01*
X251050952Y-102600952D01*
X251090000Y-102522857D01*
X251129047Y-102483809D01*
X251207142Y-102444761D01*
X251324285Y-102444761D01*
X251402380Y-102483809D01*
X251441428Y-102522857D01*
X251480476Y-102600952D01*
X251480476Y-102913333D01*
X251050952Y-102093333D02*
X251714761Y-102093333D01*
X251792857Y-102054285D01*
X251831904Y-102015238D01*
X251870952Y-101937142D01*
X251870952Y-101780952D01*
X251831904Y-101702857D01*
X251792857Y-101663809D01*
X251714761Y-101624761D01*
X251050952Y-101624761D01*
X251090000Y-100180000D02*
X251050952Y-100258095D01*
X251050952Y-100375238D01*
X251090000Y-100492380D01*
X251168095Y-100570476D01*
X251246190Y-100609523D01*
X251402380Y-100648571D01*
X251519523Y-100648571D01*
X251675714Y-100609523D01*
X251753809Y-100570476D01*
X251831904Y-100492380D01*
X251870952Y-100375238D01*
X251870952Y-100297142D01*
X251831904Y-100180000D01*
X251792857Y-100140952D01*
X251519523Y-100140952D01*
X251519523Y-100297142D01*
X251870952Y-99438095D02*
X251441428Y-99438095D01*
X251363333Y-99477142D01*
X251324285Y-99555238D01*
X251324285Y-99711428D01*
X251363333Y-99789523D01*
X251831904Y-99438095D02*
X251870952Y-99516190D01*
X251870952Y-99711428D01*
X251831904Y-99789523D01*
X251753809Y-99828571D01*
X251675714Y-99828571D01*
X251597619Y-99789523D01*
X251558571Y-99711428D01*
X251558571Y-99516190D01*
X251519523Y-99438095D01*
X251324285Y-99164761D02*
X251324285Y-98852380D01*
X251050952Y-99047619D02*
X251753809Y-99047619D01*
X251831904Y-99008571D01*
X251870952Y-98930476D01*
X251870952Y-98852380D01*
X251831904Y-98266666D02*
X251870952Y-98344761D01*
X251870952Y-98500952D01*
X251831904Y-98579047D01*
X251753809Y-98618095D01*
X251441428Y-98618095D01*
X251363333Y-98579047D01*
X251324285Y-98500952D01*
X251324285Y-98344761D01*
X251363333Y-98266666D01*
X251441428Y-98227619D01*
X251519523Y-98227619D01*
X251597619Y-98618095D01*
D10*
X240284000Y-107061000D02*
X239903000Y-107061000D01*
X245872000Y-107061000D02*
X240284000Y-107061000D01*
X245872000Y-107061000D02*
X245872000Y-105791000D01*
X239395000Y-99060000D02*
X239395000Y-97155000D01*
X169545000Y-83820000D02*
X171450000Y-81915000D01*
X169545000Y-88265000D02*
X169545000Y-83820000D01*
X239395000Y-98933000D02*
X239395000Y-110490000D01*
D12*
X239913238Y-95570000D02*
X239835142Y-95530952D01*
X239718000Y-95530952D01*
X239600857Y-95570000D01*
X239522761Y-95648095D01*
X239483714Y-95726190D01*
X239444666Y-95882380D01*
X239444666Y-95999523D01*
X239483714Y-96155714D01*
X239522761Y-96233809D01*
X239600857Y-96311904D01*
X239718000Y-96350952D01*
X239796095Y-96350952D01*
X239913238Y-96311904D01*
X239952285Y-96272857D01*
X239952285Y-95999523D01*
X239796095Y-95999523D01*
X240303714Y-96350952D02*
X240303714Y-95530952D01*
X240772285Y-96350952D01*
X240772285Y-95530952D01*
X241162761Y-96350952D02*
X241162761Y-95530952D01*
X241358000Y-95530952D01*
X241475142Y-95570000D01*
X241553238Y-95648095D01*
X241592285Y-95726190D01*
X241631333Y-95882380D01*
X241631333Y-95999523D01*
X241592285Y-96155714D01*
X241553238Y-96233809D01*
X241475142Y-96311904D01*
X241358000Y-96350952D01*
X241162761Y-96350952D01*
X241711714Y-106598904D02*
X241828857Y-106637952D01*
X242024095Y-106637952D01*
X242102190Y-106598904D01*
X242141238Y-106559857D01*
X242180285Y-106481761D01*
X242180285Y-106403666D01*
X242141238Y-106325571D01*
X242102190Y-106286523D01*
X242024095Y-106247476D01*
X241867904Y-106208428D01*
X241789809Y-106169380D01*
X241750761Y-106130333D01*
X241711714Y-106052238D01*
X241711714Y-105974142D01*
X241750761Y-105896047D01*
X241789809Y-105857000D01*
X241867904Y-105817952D01*
X242063142Y-105817952D01*
X242180285Y-105857000D01*
X242648857Y-106637952D02*
X242570761Y-106598904D01*
X242531714Y-106559857D01*
X242492666Y-106481761D01*
X242492666Y-106247476D01*
X242531714Y-106169380D01*
X242570761Y-106130333D01*
X242648857Y-106091285D01*
X242766000Y-106091285D01*
X242844095Y-106130333D01*
X242883142Y-106169380D01*
X242922190Y-106247476D01*
X242922190Y-106481761D01*
X242883142Y-106559857D01*
X242844095Y-106598904D01*
X242766000Y-106637952D01*
X242648857Y-106637952D01*
X243625047Y-106598904D02*
X243546952Y-106637952D01*
X243390761Y-106637952D01*
X243312666Y-106598904D01*
X243273619Y-106559857D01*
X243234571Y-106481761D01*
X243234571Y-106247476D01*
X243273619Y-106169380D01*
X243312666Y-106130333D01*
X243390761Y-106091285D01*
X243546952Y-106091285D01*
X243625047Y-106130333D01*
X243976476Y-106637952D02*
X243976476Y-105817952D01*
X244054571Y-106325571D02*
X244288857Y-106637952D01*
X244288857Y-106091285D02*
X243976476Y-106403666D01*
X244952666Y-106598904D02*
X244874571Y-106637952D01*
X244718380Y-106637952D01*
X244640285Y-106598904D01*
X244601238Y-106520809D01*
X244601238Y-106208428D01*
X244640285Y-106130333D01*
X244718380Y-106091285D01*
X244874571Y-106091285D01*
X244952666Y-106130333D01*
X244991714Y-106208428D01*
X244991714Y-106286523D01*
X244601238Y-106364619D01*
X245226000Y-106091285D02*
X245538380Y-106091285D01*
X245343142Y-105817952D02*
X245343142Y-106520809D01*
X245382190Y-106598904D01*
X245460285Y-106637952D01*
X245538380Y-106637952D01*
X240274714Y-103836904D02*
X240391857Y-103875952D01*
X240587095Y-103875952D01*
X240665190Y-103836904D01*
X240704238Y-103797857D01*
X240743285Y-103719761D01*
X240743285Y-103641666D01*
X240704238Y-103563571D01*
X240665190Y-103524523D01*
X240587095Y-103485476D01*
X240430904Y-103446428D01*
X240352809Y-103407380D01*
X240313761Y-103368333D01*
X240274714Y-103290238D01*
X240274714Y-103212142D01*
X240313761Y-103134047D01*
X240352809Y-103095000D01*
X240430904Y-103055952D01*
X240626142Y-103055952D01*
X240743285Y-103095000D01*
X241524238Y-103095000D02*
X241446142Y-103055952D01*
X241329000Y-103055952D01*
X241211857Y-103095000D01*
X241133761Y-103173095D01*
X241094714Y-103251190D01*
X241055666Y-103407380D01*
X241055666Y-103524523D01*
X241094714Y-103680714D01*
X241133761Y-103758809D01*
X241211857Y-103836904D01*
X241329000Y-103875952D01*
X241407095Y-103875952D01*
X241524238Y-103836904D01*
X241563285Y-103797857D01*
X241563285Y-103524523D01*
X241407095Y-103524523D01*
X240762809Y-101335952D02*
X240372333Y-101335952D01*
X240372333Y-100515952D01*
X241465666Y-100555000D02*
X241387571Y-100515952D01*
X241270428Y-100515952D01*
X241153285Y-100555000D01*
X241075190Y-100633095D01*
X241036142Y-100711190D01*
X240997095Y-100867380D01*
X240997095Y-100984523D01*
X241036142Y-101140714D01*
X241075190Y-101218809D01*
X241153285Y-101296904D01*
X241270428Y-101335952D01*
X241348523Y-101335952D01*
X241465666Y-101296904D01*
X241504714Y-101257857D01*
X241504714Y-100984523D01*
X241348523Y-100984523D01*
X240567571Y-98366428D02*
X240684714Y-98405476D01*
X240723761Y-98444523D01*
X240762809Y-98522619D01*
X240762809Y-98639761D01*
X240723761Y-98717857D01*
X240684714Y-98756904D01*
X240606619Y-98795952D01*
X240294238Y-98795952D01*
X240294238Y-97975952D01*
X240567571Y-97975952D01*
X240645666Y-98015000D01*
X240684714Y-98054047D01*
X240723761Y-98132142D01*
X240723761Y-98210238D01*
X240684714Y-98288333D01*
X240645666Y-98327380D01*
X240567571Y-98366428D01*
X240294238Y-98366428D01*
X241543761Y-98015000D02*
X241465666Y-97975952D01*
X241348523Y-97975952D01*
X241231380Y-98015000D01*
X241153285Y-98093095D01*
X241114238Y-98171190D01*
X241075190Y-98327380D01*
X241075190Y-98444523D01*
X241114238Y-98600714D01*
X241153285Y-98678809D01*
X241231380Y-98756904D01*
X241348523Y-98795952D01*
X241426619Y-98795952D01*
X241543761Y-98756904D01*
X241582809Y-98717857D01*
X241582809Y-98444523D01*
X241426619Y-98444523D01*
D10*
X167640000Y-91440000D02*
X166370000Y-90170000D01*
X167640000Y-92075000D02*
X167640000Y-91440000D01*
X160020000Y-91440000D02*
X161290000Y-90170000D01*
X160020000Y-92075000D02*
X160020000Y-91440000D01*
X160020000Y-110490000D02*
X160020000Y-92075000D01*
X167640000Y-110490000D02*
X167640000Y-92075000D01*
X166370000Y-111760000D02*
X167640000Y-110490000D01*
X160020000Y-110490000D02*
X161290000Y-111760000D01*
X237490000Y-89535000D02*
X238760000Y-90805000D01*
X237490000Y-112395000D02*
X239395000Y-110490000D01*
X233680000Y-112395000D02*
X237490000Y-112395000D01*
X231775000Y-93980000D02*
X231775000Y-110490000D01*
X231775000Y-110490000D02*
X233680000Y-112395000D01*
X233680000Y-89535000D02*
X237490000Y-89535000D01*
X231775000Y-91440000D02*
X233680000Y-89535000D01*
X231775000Y-93980000D02*
X231775000Y-91440000D01*
X180975000Y-127635000D02*
X186055000Y-127635000D01*
X220345000Y-128270000D02*
X215265000Y-128270000D01*
X179705000Y-71755000D02*
X177800000Y-73660000D01*
X168910000Y-111125000D02*
X168910000Y-112395000D01*
X179070000Y-100965000D02*
X168910000Y-111125000D01*
X179070000Y-99060000D02*
X179070000Y-100965000D01*
X169545000Y-89535000D02*
X179070000Y-99060000D01*
X169545000Y-88265000D02*
X169545000Y-89535000D01*
X213360000Y-71755000D02*
X211455000Y-73660000D01*
X219075000Y-71755000D02*
X213360000Y-71755000D01*
X220980000Y-73660000D02*
X219075000Y-71755000D01*
X186055000Y-71755000D02*
X187960000Y-73660000D01*
X179705000Y-71755000D02*
X186055000Y-71755000D01*
X179070000Y-125730000D02*
X180975000Y-127635000D01*
X222885000Y-125730000D02*
X220345000Y-128270000D01*
X231140000Y-110490000D02*
X231140000Y-113030000D01*
X221615000Y-100965000D02*
X231140000Y-110490000D01*
X221615000Y-97790000D02*
X221615000Y-100965000D01*
X231140000Y-88265000D02*
X221615000Y-97790000D01*
X231140000Y-81915000D02*
X231140000Y-88265000D01*
X228600000Y-79375000D02*
X231140000Y-81915000D01*
D11*
X163948952Y-131418761D02*
X164091809Y-131466380D01*
X164329904Y-131466380D01*
X164425142Y-131418761D01*
X164472761Y-131371142D01*
X164520380Y-131275904D01*
X164520380Y-131180666D01*
X164472761Y-131085428D01*
X164425142Y-131037809D01*
X164329904Y-130990190D01*
X164139428Y-130942571D01*
X164044190Y-130894952D01*
X163996571Y-130847333D01*
X163948952Y-130752095D01*
X163948952Y-130656857D01*
X163996571Y-130561619D01*
X164044190Y-130514000D01*
X164139428Y-130466380D01*
X164377523Y-130466380D01*
X164520380Y-130514000D01*
X164853714Y-130466380D02*
X165091809Y-131466380D01*
X165282285Y-130752095D01*
X165472761Y-131466380D01*
X165710857Y-130466380D01*
X166091809Y-131466380D02*
X166091809Y-130466380D01*
X166329904Y-130466380D01*
X166472761Y-130514000D01*
X166568000Y-130609238D01*
X166615619Y-130704476D01*
X166663238Y-130894952D01*
X166663238Y-131037809D01*
X166615619Y-131228285D01*
X166568000Y-131323523D01*
X166472761Y-131418761D01*
X166329904Y-131466380D01*
X166091809Y-131466380D01*
X167091809Y-131466380D02*
X167091809Y-130466380D01*
X167758476Y-130466380D02*
X167948952Y-130466380D01*
X168044190Y-130514000D01*
X168139428Y-130609238D01*
X168187047Y-130799714D01*
X168187047Y-131133047D01*
X168139428Y-131323523D01*
X168044190Y-131418761D01*
X167948952Y-131466380D01*
X167758476Y-131466380D01*
X167663238Y-131418761D01*
X167568000Y-131323523D01*
X167520380Y-131133047D01*
X167520380Y-130799714D01*
X167568000Y-130609238D01*
X167663238Y-130514000D01*
X167758476Y-130466380D01*
X156623095Y-131418761D02*
X156765952Y-131466380D01*
X157004047Y-131466380D01*
X157099285Y-131418761D01*
X157146904Y-131371142D01*
X157194523Y-131275904D01*
X157194523Y-131180666D01*
X157146904Y-131085428D01*
X157099285Y-131037809D01*
X157004047Y-130990190D01*
X156813571Y-130942571D01*
X156718333Y-130894952D01*
X156670714Y-130847333D01*
X156623095Y-130752095D01*
X156623095Y-130656857D01*
X156670714Y-130561619D01*
X156718333Y-130514000D01*
X156813571Y-130466380D01*
X157051666Y-130466380D01*
X157194523Y-130514000D01*
X157527857Y-130466380D02*
X157765952Y-131466380D01*
X157956428Y-130752095D01*
X158146904Y-131466380D01*
X158385000Y-130466380D01*
X158765952Y-131466380D02*
X158765952Y-130466380D01*
X159004047Y-130466380D01*
X159146904Y-130514000D01*
X159242142Y-130609238D01*
X159289761Y-130704476D01*
X159337380Y-130894952D01*
X159337380Y-131037809D01*
X159289761Y-131228285D01*
X159242142Y-131323523D01*
X159146904Y-131418761D01*
X159004047Y-131466380D01*
X158765952Y-131466380D01*
X160337380Y-131371142D02*
X160289761Y-131418761D01*
X160146904Y-131466380D01*
X160051666Y-131466380D01*
X159908809Y-131418761D01*
X159813571Y-131323523D01*
X159765952Y-131228285D01*
X159718333Y-131037809D01*
X159718333Y-130894952D01*
X159765952Y-130704476D01*
X159813571Y-130609238D01*
X159908809Y-130514000D01*
X160051666Y-130466380D01*
X160146904Y-130466380D01*
X160289761Y-130514000D01*
X160337380Y-130561619D01*
X161242142Y-131466380D02*
X160765952Y-131466380D01*
X160765952Y-130466380D01*
X161575476Y-131466380D02*
X161575476Y-130466380D01*
X162146904Y-131466380D02*
X161718333Y-130894952D01*
X162146904Y-130466380D02*
X161575476Y-131037809D01*
X155019523Y-144121142D02*
X154971904Y-144168761D01*
X154829047Y-144216380D01*
X154733809Y-144216380D01*
X154590952Y-144168761D01*
X154495714Y-144073523D01*
X154448095Y-143978285D01*
X154400476Y-143787809D01*
X154400476Y-143644952D01*
X154448095Y-143454476D01*
X154495714Y-143359238D01*
X154590952Y-143264000D01*
X154733809Y-143216380D01*
X154829047Y-143216380D01*
X154971904Y-143264000D01*
X155019523Y-143311619D01*
X155448095Y-144216380D02*
X155448095Y-143216380D01*
X155829047Y-143216380D01*
X155924285Y-143264000D01*
X155971904Y-143311619D01*
X156019523Y-143406857D01*
X156019523Y-143549714D01*
X155971904Y-143644952D01*
X155924285Y-143692571D01*
X155829047Y-143740190D01*
X155448095Y-143740190D01*
X156448095Y-143216380D02*
X156448095Y-144025904D01*
X156495714Y-144121142D01*
X156543333Y-144168761D01*
X156638571Y-144216380D01*
X156829047Y-144216380D01*
X156924285Y-144168761D01*
X156971904Y-144121142D01*
X157019523Y-144025904D01*
X157019523Y-143216380D01*
X158019523Y-144216380D02*
X157448095Y-144216380D01*
X157733809Y-144216380D02*
X157733809Y-143216380D01*
X157638571Y-143359238D01*
X157543333Y-143454476D01*
X157448095Y-143502095D01*
X154400476Y-141676380D02*
X154400476Y-140676380D01*
X154733809Y-141390666D01*
X155067142Y-140676380D01*
X155067142Y-141676380D01*
X155543333Y-140676380D02*
X155543333Y-141485904D01*
X155590952Y-141581142D01*
X155638571Y-141628761D01*
X155733809Y-141676380D01*
X155924285Y-141676380D01*
X156019523Y-141628761D01*
X156067142Y-141581142D01*
X156114761Y-141485904D01*
X156114761Y-140676380D01*
X156495714Y-140676380D02*
X157162380Y-141676380D01*
X157162380Y-140676380D02*
X156495714Y-141676380D01*
X157971904Y-141009714D02*
X157971904Y-141676380D01*
X157733809Y-140628761D02*
X157495714Y-141343047D01*
X158114761Y-141343047D01*
X154400476Y-139136380D02*
X154400476Y-138136380D01*
X154733809Y-138850666D01*
X155067142Y-138136380D01*
X155067142Y-139136380D01*
X155543333Y-138136380D02*
X155543333Y-138945904D01*
X155590952Y-139041142D01*
X155638571Y-139088761D01*
X155733809Y-139136380D01*
X155924285Y-139136380D01*
X156019523Y-139088761D01*
X156067142Y-139041142D01*
X156114761Y-138945904D01*
X156114761Y-138136380D01*
X156495714Y-138136380D02*
X157162380Y-139136380D01*
X157162380Y-138136380D02*
X156495714Y-139136380D01*
X157448095Y-138136380D02*
X158067142Y-138136380D01*
X157733809Y-138517333D01*
X157876666Y-138517333D01*
X157971904Y-138564952D01*
X158019523Y-138612571D01*
X158067142Y-138707809D01*
X158067142Y-138945904D01*
X158019523Y-139041142D01*
X157971904Y-139088761D01*
X157876666Y-139136380D01*
X157590952Y-139136380D01*
X157495714Y-139088761D01*
X157448095Y-139041142D01*
X154400476Y-136596380D02*
X154400476Y-135596380D01*
X154733809Y-136310666D01*
X155067142Y-135596380D01*
X155067142Y-136596380D01*
X155543333Y-135596380D02*
X155543333Y-136405904D01*
X155590952Y-136501142D01*
X155638571Y-136548761D01*
X155733809Y-136596380D01*
X155924285Y-136596380D01*
X156019523Y-136548761D01*
X156067142Y-136501142D01*
X156114761Y-136405904D01*
X156114761Y-135596380D01*
X156495714Y-135596380D02*
X157162380Y-136596380D01*
X157162380Y-135596380D02*
X156495714Y-136596380D01*
X157495714Y-135691619D02*
X157543333Y-135644000D01*
X157638571Y-135596380D01*
X157876666Y-135596380D01*
X157971904Y-135644000D01*
X158019523Y-135691619D01*
X158067142Y-135786857D01*
X158067142Y-135882095D01*
X158019523Y-136024952D01*
X157448095Y-136596380D01*
X158067142Y-136596380D01*
X154400476Y-134056380D02*
X154400476Y-133056380D01*
X154733809Y-133770666D01*
X155067142Y-133056380D01*
X155067142Y-134056380D01*
X155543333Y-133056380D02*
X155543333Y-133865904D01*
X155590952Y-133961142D01*
X155638571Y-134008761D01*
X155733809Y-134056380D01*
X155924285Y-134056380D01*
X156019523Y-134008761D01*
X156067142Y-133961142D01*
X156114761Y-133865904D01*
X156114761Y-133056380D01*
X156495714Y-133056380D02*
X157162380Y-134056380D01*
X157162380Y-133056380D02*
X156495714Y-134056380D01*
X158067142Y-134056380D02*
X157495714Y-134056380D01*
X157781428Y-134056380D02*
X157781428Y-133056380D01*
X157686190Y-133199238D01*
X157590952Y-133294476D01*
X157495714Y-133342095D01*
D12*
X259450952Y-102515238D02*
X258630952Y-102515238D01*
X258630952Y-102320000D01*
X258670000Y-102202857D01*
X258748095Y-102124761D01*
X258826190Y-102085714D01*
X258982380Y-102046666D01*
X259099523Y-102046666D01*
X259255714Y-102085714D01*
X259333809Y-102124761D01*
X259411904Y-102202857D01*
X259450952Y-102320000D01*
X259450952Y-102515238D01*
X259450952Y-101695238D02*
X258630952Y-101695238D01*
X258630952Y-101500000D01*
X258670000Y-101382857D01*
X258748095Y-101304761D01*
X258826190Y-101265714D01*
X258982380Y-101226666D01*
X259099523Y-101226666D01*
X259255714Y-101265714D01*
X259333809Y-101304761D01*
X259411904Y-101382857D01*
X259450952Y-101500000D01*
X259450952Y-101695238D01*
X258709047Y-100914285D02*
X258670000Y-100875238D01*
X258630952Y-100797142D01*
X258630952Y-100601904D01*
X258670000Y-100523809D01*
X258709047Y-100484761D01*
X258787142Y-100445714D01*
X258865238Y-100445714D01*
X258982380Y-100484761D01*
X259450952Y-100953333D01*
X259450952Y-100445714D01*
X259450952Y-97015238D02*
X258630952Y-97015238D01*
X258630952Y-96820000D01*
X258670000Y-96702857D01*
X258748095Y-96624761D01*
X258826190Y-96585714D01*
X258982380Y-96546666D01*
X259099523Y-96546666D01*
X259255714Y-96585714D01*
X259333809Y-96624761D01*
X259411904Y-96702857D01*
X259450952Y-96820000D01*
X259450952Y-97015238D01*
X259450952Y-96195238D02*
X258630952Y-96195238D01*
X258630952Y-96000000D01*
X258670000Y-95882857D01*
X258748095Y-95804761D01*
X258826190Y-95765714D01*
X258982380Y-95726666D01*
X259099523Y-95726666D01*
X259255714Y-95765714D01*
X259333809Y-95804761D01*
X259411904Y-95882857D01*
X259450952Y-96000000D01*
X259450952Y-96195238D01*
X259450952Y-94945714D02*
X259450952Y-95414285D01*
X259450952Y-95180000D02*
X258630952Y-95180000D01*
X258748095Y-95258095D01*
X258826190Y-95336190D01*
X258865238Y-95414285D01*
D13*
X191279285Y-131397142D02*
X191493571Y-131468571D01*
X191850714Y-131468571D01*
X191993571Y-131397142D01*
X192065000Y-131325714D01*
X192136428Y-131182857D01*
X192136428Y-131040000D01*
X192065000Y-130897142D01*
X191993571Y-130825714D01*
X191850714Y-130754285D01*
X191565000Y-130682857D01*
X191422142Y-130611428D01*
X191350714Y-130540000D01*
X191279285Y-130397142D01*
X191279285Y-130254285D01*
X191350714Y-130111428D01*
X191422142Y-130040000D01*
X191565000Y-129968571D01*
X191922142Y-129968571D01*
X192136428Y-130040000D01*
X192565000Y-130468571D02*
X193136428Y-130468571D01*
X192779285Y-129968571D02*
X192779285Y-131254285D01*
X192850714Y-131397142D01*
X192993571Y-131468571D01*
X193136428Y-131468571D01*
X194207857Y-131397142D02*
X194065000Y-131468571D01*
X193779285Y-131468571D01*
X193636428Y-131397142D01*
X193565000Y-131254285D01*
X193565000Y-130682857D01*
X193636428Y-130540000D01*
X193779285Y-130468571D01*
X194065000Y-130468571D01*
X194207857Y-130540000D01*
X194279285Y-130682857D01*
X194279285Y-130825714D01*
X193565000Y-130968571D01*
X194779285Y-130468571D02*
X195136428Y-131468571D01*
X195493571Y-130468571D01*
X196636428Y-131397142D02*
X196493571Y-131468571D01*
X196207857Y-131468571D01*
X196065000Y-131397142D01*
X195993571Y-131254285D01*
X195993571Y-130682857D01*
X196065000Y-130540000D01*
X196207857Y-130468571D01*
X196493571Y-130468571D01*
X196636428Y-130540000D01*
X196707857Y-130682857D01*
X196707857Y-130825714D01*
X195993571Y-130968571D01*
X197350714Y-130468571D02*
X197350714Y-131468571D01*
X197350714Y-130611428D02*
X197422142Y-130540000D01*
X197565000Y-130468571D01*
X197779285Y-130468571D01*
X197922142Y-130540000D01*
X197993571Y-130682857D01*
X197993571Y-131468571D01*
X199850714Y-131468571D02*
X199850714Y-129968571D01*
X200707857Y-131468571D01*
X200707857Y-129968571D01*
X201636428Y-131468571D02*
X201493571Y-131397142D01*
X201422142Y-131325714D01*
X201350714Y-131182857D01*
X201350714Y-130754285D01*
X201422142Y-130611428D01*
X201493571Y-130540000D01*
X201636428Y-130468571D01*
X201850714Y-130468571D01*
X201993571Y-130540000D01*
X202065000Y-130611428D01*
X202136428Y-130754285D01*
X202136428Y-131182857D01*
X202065000Y-131325714D01*
X201993571Y-131397142D01*
X201850714Y-131468571D01*
X201636428Y-131468571D01*
X202636428Y-130468571D02*
X202993571Y-131468571D01*
X203350714Y-130468571D02*
X202993571Y-131468571D01*
X202850714Y-131825714D01*
X202779285Y-131897142D01*
X202636428Y-131968571D01*
X204565000Y-131397142D02*
X204422142Y-131468571D01*
X204136428Y-131468571D01*
X203993571Y-131397142D01*
X203922142Y-131325714D01*
X203850714Y-131182857D01*
X203850714Y-130754285D01*
X203922142Y-130611428D01*
X203993571Y-130540000D01*
X204136428Y-130468571D01*
X204422142Y-130468571D01*
X204565000Y-130540000D01*
X205779285Y-131397142D02*
X205636428Y-131468571D01*
X205350714Y-131468571D01*
X205207857Y-131397142D01*
X205136428Y-131254285D01*
X205136428Y-130682857D01*
X205207857Y-130540000D01*
X205350714Y-130468571D01*
X205636428Y-130468571D01*
X205779285Y-130540000D01*
X205850714Y-130682857D01*
X205850714Y-130825714D01*
X205136428Y-130968571D01*
X208850714Y-131468571D02*
X208779285Y-131468571D01*
X208636428Y-131397142D01*
X208422142Y-131182857D01*
X208065000Y-130754285D01*
X207922142Y-130540000D01*
X207850714Y-130325714D01*
X207850714Y-130182857D01*
X207922142Y-130040000D01*
X208065000Y-129968571D01*
X208136428Y-129968571D01*
X208279285Y-130040000D01*
X208350714Y-130182857D01*
X208350714Y-130254285D01*
X208279285Y-130397142D01*
X208207857Y-130468571D01*
X207779285Y-130754285D01*
X207707857Y-130825714D01*
X207636428Y-130968571D01*
X207636428Y-131182857D01*
X207707857Y-131325714D01*
X207779285Y-131397142D01*
X207922142Y-131468571D01*
X208136428Y-131468571D01*
X208279285Y-131397142D01*
X208350714Y-131325714D01*
X208565000Y-131040000D01*
X208636428Y-130825714D01*
X208636428Y-130682857D01*
X211065000Y-129968571D02*
X211065000Y-131040000D01*
X210993571Y-131254285D01*
X210850714Y-131397142D01*
X210636428Y-131468571D01*
X210493571Y-131468571D01*
X212493571Y-131468571D02*
X211779285Y-131468571D01*
X211779285Y-129968571D01*
X212993571Y-131468571D02*
X212993571Y-129968571D01*
X213350714Y-129968571D01*
X213565000Y-130040000D01*
X213707857Y-130182857D01*
X213779285Y-130325714D01*
X213850714Y-130611428D01*
X213850714Y-130825714D01*
X213779285Y-131111428D01*
X213707857Y-131254285D01*
X213565000Y-131397142D01*
X213350714Y-131468571D01*
X212993571Y-131468571D01*
X192672142Y-133875714D02*
X192600714Y-133947142D01*
X192386428Y-134018571D01*
X192243571Y-134018571D01*
X192029285Y-133947142D01*
X191886428Y-133804285D01*
X191815000Y-133661428D01*
X191743571Y-133375714D01*
X191743571Y-133161428D01*
X191815000Y-132875714D01*
X191886428Y-132732857D01*
X192029285Y-132590000D01*
X192243571Y-132518571D01*
X192386428Y-132518571D01*
X192600714Y-132590000D01*
X192672142Y-132661428D01*
X193315000Y-134018571D02*
X193315000Y-132518571D01*
X194172142Y-134018571D01*
X194172142Y-132518571D01*
X194672142Y-132518571D02*
X195529285Y-132518571D01*
X195100714Y-134018571D02*
X195100714Y-132518571D01*
X196529285Y-133232857D02*
X196029285Y-133232857D01*
X196029285Y-134018571D02*
X196029285Y-132518571D01*
X196743571Y-132518571D01*
X197315000Y-133232857D02*
X197815000Y-133232857D01*
X198029285Y-134018571D02*
X197315000Y-134018571D01*
X197315000Y-132518571D01*
X198029285Y-132518571D01*
X198457857Y-132518571D02*
X199315000Y-132518571D01*
X198886428Y-134018571D02*
X198886428Y-132518571D01*
X201457857Y-133232857D02*
X201672142Y-133304285D01*
X201743571Y-133375714D01*
X201815000Y-133518571D01*
X201815000Y-133732857D01*
X201743571Y-133875714D01*
X201672142Y-133947142D01*
X201529285Y-134018571D01*
X200957857Y-134018571D01*
X200957857Y-132518571D01*
X201457857Y-132518571D01*
X201600714Y-132590000D01*
X201672142Y-132661428D01*
X201743571Y-132804285D01*
X201743571Y-132947142D01*
X201672142Y-133090000D01*
X201600714Y-133161428D01*
X201457857Y-133232857D01*
X200957857Y-133232857D01*
X202672142Y-134018571D02*
X202529285Y-133947142D01*
X202457857Y-133875714D01*
X202386428Y-133732857D01*
X202386428Y-133304285D01*
X202457857Y-133161428D01*
X202529285Y-133090000D01*
X202672142Y-133018571D01*
X202886428Y-133018571D01*
X203029285Y-133090000D01*
X203100714Y-133161428D01*
X203172142Y-133304285D01*
X203172142Y-133732857D01*
X203100714Y-133875714D01*
X203029285Y-133947142D01*
X202886428Y-134018571D01*
X202672142Y-134018571D01*
X204457857Y-134018571D02*
X204457857Y-133232857D01*
X204386428Y-133090000D01*
X204243571Y-133018571D01*
X203957857Y-133018571D01*
X203815000Y-133090000D01*
X204457857Y-133947142D02*
X204315000Y-134018571D01*
X203957857Y-134018571D01*
X203815000Y-133947142D01*
X203743571Y-133804285D01*
X203743571Y-133661428D01*
X203815000Y-133518571D01*
X203957857Y-133447142D01*
X204315000Y-133447142D01*
X204457857Y-133375714D01*
X205172142Y-134018571D02*
X205172142Y-133018571D01*
X205172142Y-133304285D02*
X205243571Y-133161428D01*
X205315000Y-133090000D01*
X205457857Y-133018571D01*
X205600714Y-133018571D01*
X206743571Y-134018571D02*
X206743571Y-132518571D01*
X206743571Y-133947142D02*
X206600714Y-134018571D01*
X206315000Y-134018571D01*
X206172142Y-133947142D01*
X206100714Y-133875714D01*
X206029285Y-133732857D01*
X206029285Y-133304285D01*
X206100714Y-133161428D01*
X206172142Y-133090000D01*
X206315000Y-133018571D01*
X206600714Y-133018571D01*
X206743571Y-133090000D01*
X208529285Y-132661428D02*
X208600714Y-132590000D01*
X208743571Y-132518571D01*
X209100714Y-132518571D01*
X209243571Y-132590000D01*
X209315000Y-132661428D01*
X209386428Y-132804285D01*
X209386428Y-132947142D01*
X209315000Y-133161428D01*
X208457857Y-134018571D01*
X209386428Y-134018571D01*
X209672142Y-134161428D02*
X210815000Y-134161428D01*
X211957857Y-134018571D02*
X211100714Y-134018571D01*
X211529285Y-134018571D02*
X211529285Y-132518571D01*
X211386428Y-132732857D01*
X211243571Y-132875714D01*
X211100714Y-132947142D01*
X212815000Y-133161428D02*
X212672142Y-133090000D01*
X212600714Y-133018571D01*
X212529285Y-132875714D01*
X212529285Y-132804285D01*
X212600714Y-132661428D01*
X212672142Y-132590000D01*
X212815000Y-132518571D01*
X213100714Y-132518571D01*
X213243571Y-132590000D01*
X213315000Y-132661428D01*
X213386428Y-132804285D01*
X213386428Y-132875714D01*
X213315000Y-133018571D01*
X213243571Y-133090000D01*
X213100714Y-133161428D01*
X212815000Y-133161428D01*
X212672142Y-133232857D01*
X212600714Y-133304285D01*
X212529285Y-133447142D01*
X212529285Y-133732857D01*
X212600714Y-133875714D01*
X212672142Y-133947142D01*
X212815000Y-134018571D01*
X213100714Y-134018571D01*
X213243571Y-133947142D01*
X213315000Y-133875714D01*
X213386428Y-133732857D01*
X213386428Y-133447142D01*
X213315000Y-133304285D01*
X213243571Y-133232857D01*
X213100714Y-133161428D01*
X192100714Y-136140000D02*
X192815000Y-136140000D01*
X191957857Y-136568571D02*
X192457857Y-135068571D01*
X192957857Y-136568571D01*
X194100714Y-136568571D02*
X194100714Y-135782857D01*
X194029285Y-135640000D01*
X193886428Y-135568571D01*
X193600714Y-135568571D01*
X193457857Y-135640000D01*
X194100714Y-136497142D02*
X193957857Y-136568571D01*
X193600714Y-136568571D01*
X193457857Y-136497142D01*
X193386428Y-136354285D01*
X193386428Y-136211428D01*
X193457857Y-136068571D01*
X193600714Y-135997142D01*
X193957857Y-135997142D01*
X194100714Y-135925714D01*
X194815000Y-136568571D02*
X194815000Y-135568571D01*
X194815000Y-135854285D02*
X194886428Y-135711428D01*
X194957857Y-135640000D01*
X195100714Y-135568571D01*
X195243571Y-135568571D01*
X195957857Y-136568571D02*
X195815000Y-136497142D01*
X195743571Y-136425714D01*
X195672142Y-136282857D01*
X195672142Y-135854285D01*
X195743571Y-135711428D01*
X195815000Y-135640000D01*
X195957857Y-135568571D01*
X196172142Y-135568571D01*
X196315000Y-135640000D01*
X196386428Y-135711428D01*
X196457857Y-135854285D01*
X196457857Y-136282857D01*
X196386428Y-136425714D01*
X196315000Y-136497142D01*
X196172142Y-136568571D01*
X195957857Y-136568571D01*
X197100714Y-135568571D02*
X197100714Y-136568571D01*
X197100714Y-135711428D02*
X197172142Y-135640000D01*
X197315000Y-135568571D01*
X197529285Y-135568571D01*
X197672142Y-135640000D01*
X197743571Y-135782857D01*
X197743571Y-136568571D01*
X200100714Y-135782857D02*
X199600714Y-135782857D01*
X199600714Y-136568571D02*
X199600714Y-135068571D01*
X200315000Y-135068571D01*
X200886428Y-136568571D02*
X200886428Y-135568571D01*
X200886428Y-135854285D02*
X200957857Y-135711428D01*
X201029285Y-135640000D01*
X201172142Y-135568571D01*
X201315000Y-135568571D01*
X202457857Y-136568571D02*
X202457857Y-135782857D01*
X202386428Y-135640000D01*
X202243571Y-135568571D01*
X201957857Y-135568571D01*
X201815000Y-135640000D01*
X202457857Y-136497142D02*
X202315000Y-136568571D01*
X201957857Y-136568571D01*
X201815000Y-136497142D01*
X201743571Y-136354285D01*
X201743571Y-136211428D01*
X201815000Y-136068571D01*
X201957857Y-135997142D01*
X202315000Y-135997142D01*
X202457857Y-135925714D01*
X203172142Y-135568571D02*
X203172142Y-136568571D01*
X203172142Y-135711428D02*
X203243571Y-135640000D01*
X203386428Y-135568571D01*
X203600714Y-135568571D01*
X203743571Y-135640000D01*
X203815000Y-135782857D01*
X203815000Y-136568571D01*
X204529285Y-136568571D02*
X204529285Y-135068571D01*
X204672142Y-135997142D02*
X205100714Y-136568571D01*
X205100714Y-135568571D02*
X204529285Y-136140000D01*
X205957857Y-136568571D02*
X205815000Y-136497142D01*
X205743571Y-136354285D01*
X205743571Y-135068571D01*
X206529285Y-136568571D02*
X206529285Y-135568571D01*
X206529285Y-135068571D02*
X206457857Y-135140000D01*
X206529285Y-135211428D01*
X206600714Y-135140000D01*
X206529285Y-135068571D01*
X206529285Y-135211428D01*
X207243571Y-135568571D02*
X207243571Y-136568571D01*
X207243571Y-135711428D02*
X207315000Y-135640000D01*
X207457857Y-135568571D01*
X207672142Y-135568571D01*
X207815000Y-135640000D01*
X207886428Y-135782857D01*
X207886428Y-136568571D01*
X210457857Y-136568571D02*
X209743571Y-136568571D01*
X209743571Y-135068571D01*
X211600714Y-136568571D02*
X211600714Y-135782857D01*
X211529285Y-135640000D01*
X211386428Y-135568571D01*
X211100714Y-135568571D01*
X210957857Y-135640000D01*
X211600714Y-136497142D02*
X211457857Y-136568571D01*
X211100714Y-136568571D01*
X210957857Y-136497142D01*
X210886428Y-136354285D01*
X210886428Y-136211428D01*
X210957857Y-136068571D01*
X211100714Y-135997142D01*
X211457857Y-135997142D01*
X211600714Y-135925714D01*
X212315000Y-136568571D02*
X212315000Y-135068571D01*
X212315000Y-135640000D02*
X212457857Y-135568571D01*
X212743571Y-135568571D01*
X212886428Y-135640000D01*
X212957857Y-135711428D01*
X213029285Y-135854285D01*
X213029285Y-136282857D01*
X212957857Y-136425714D01*
X212886428Y-136497142D01*
X212743571Y-136568571D01*
X212457857Y-136568571D01*
X212315000Y-136497142D01*
X194207857Y-139118571D02*
X194207857Y-137618571D01*
X194565000Y-137618571D01*
X194779285Y-137690000D01*
X194922142Y-137832857D01*
X194993571Y-137975714D01*
X195065000Y-138261428D01*
X195065000Y-138475714D01*
X194993571Y-138761428D01*
X194922142Y-138904285D01*
X194779285Y-139047142D01*
X194565000Y-139118571D01*
X194207857Y-139118571D01*
X196350714Y-138118571D02*
X196350714Y-139118571D01*
X195707857Y-138118571D02*
X195707857Y-138904285D01*
X195779285Y-139047142D01*
X195922142Y-139118571D01*
X196136428Y-139118571D01*
X196279285Y-139047142D01*
X196350714Y-138975714D01*
X197065000Y-139118571D02*
X197065000Y-137618571D01*
X197207857Y-138547142D02*
X197636428Y-139118571D01*
X197636428Y-138118571D02*
X197065000Y-138690000D01*
X198850714Y-139047142D02*
X198707857Y-139118571D01*
X198422142Y-139118571D01*
X198279285Y-139047142D01*
X198207857Y-138904285D01*
X198207857Y-138332857D01*
X198279285Y-138190000D01*
X198422142Y-138118571D01*
X198707857Y-138118571D01*
X198850714Y-138190000D01*
X198922142Y-138332857D01*
X198922142Y-138475714D01*
X198207857Y-138618571D01*
X200707857Y-137618571D02*
X200707857Y-138832857D01*
X200779285Y-138975714D01*
X200850714Y-139047142D01*
X200993571Y-139118571D01*
X201279285Y-139118571D01*
X201422142Y-139047142D01*
X201493571Y-138975714D01*
X201565000Y-138832857D01*
X201565000Y-137618571D01*
X202279285Y-138118571D02*
X202279285Y-139118571D01*
X202279285Y-138261428D02*
X202350714Y-138190000D01*
X202493571Y-138118571D01*
X202707857Y-138118571D01*
X202850714Y-138190000D01*
X202922142Y-138332857D01*
X202922142Y-139118571D01*
X203636428Y-139118571D02*
X203636428Y-138118571D01*
X203636428Y-137618571D02*
X203565000Y-137690000D01*
X203636428Y-137761428D01*
X203707857Y-137690000D01*
X203636428Y-137618571D01*
X203636428Y-137761428D01*
X204207857Y-138118571D02*
X204565000Y-139118571D01*
X204922142Y-138118571D01*
X206065000Y-139047142D02*
X205922142Y-139118571D01*
X205636428Y-139118571D01*
X205493571Y-139047142D01*
X205422142Y-138904285D01*
X205422142Y-138332857D01*
X205493571Y-138190000D01*
X205636428Y-138118571D01*
X205922142Y-138118571D01*
X206065000Y-138190000D01*
X206136428Y-138332857D01*
X206136428Y-138475714D01*
X205422142Y-138618571D01*
X206779285Y-139118571D02*
X206779285Y-138118571D01*
X206779285Y-138404285D02*
X206850714Y-138261428D01*
X206922142Y-138190000D01*
X207065000Y-138118571D01*
X207207857Y-138118571D01*
X207636428Y-139047142D02*
X207779285Y-139118571D01*
X208065000Y-139118571D01*
X208207857Y-139047142D01*
X208279285Y-138904285D01*
X208279285Y-138832857D01*
X208207857Y-138690000D01*
X208065000Y-138618571D01*
X207850714Y-138618571D01*
X207707857Y-138547142D01*
X207636428Y-138404285D01*
X207636428Y-138332857D01*
X207707857Y-138190000D01*
X207850714Y-138118571D01*
X208065000Y-138118571D01*
X208207857Y-138190000D01*
X208922142Y-139118571D02*
X208922142Y-138118571D01*
X208922142Y-137618571D02*
X208850714Y-137690000D01*
X208922142Y-137761428D01*
X208993571Y-137690000D01*
X208922142Y-137618571D01*
X208922142Y-137761428D01*
X209422142Y-138118571D02*
X209993571Y-138118571D01*
X209636428Y-137618571D02*
X209636428Y-138904285D01*
X209707857Y-139047142D01*
X209850714Y-139118571D01*
X209993571Y-139118571D01*
X210350714Y-138118571D02*
X210707857Y-139118571D01*
X211065000Y-138118571D02*
X210707857Y-139118571D01*
X210565000Y-139475714D01*
X210493571Y-139547142D01*
X210350714Y-139618571D01*
X188957857Y-141597142D02*
X189100714Y-141668571D01*
X189386428Y-141668571D01*
X189529285Y-141597142D01*
X189600714Y-141454285D01*
X189600714Y-141382857D01*
X189529285Y-141240000D01*
X189386428Y-141168571D01*
X189172142Y-141168571D01*
X189029285Y-141097142D01*
X188957857Y-140954285D01*
X188957857Y-140882857D01*
X189029285Y-140740000D01*
X189172142Y-140668571D01*
X189386428Y-140668571D01*
X189529285Y-140740000D01*
X190029285Y-140668571D02*
X190600714Y-140668571D01*
X190243571Y-140168571D02*
X190243571Y-141454285D01*
X190315000Y-141597142D01*
X190457857Y-141668571D01*
X190600714Y-141668571D01*
X191672142Y-141597142D02*
X191529285Y-141668571D01*
X191243571Y-141668571D01*
X191100714Y-141597142D01*
X191029285Y-141454285D01*
X191029285Y-140882857D01*
X191100714Y-140740000D01*
X191243571Y-140668571D01*
X191529285Y-140668571D01*
X191672142Y-140740000D01*
X191743571Y-140882857D01*
X191743571Y-141025714D01*
X191029285Y-141168571D01*
X192243571Y-140668571D02*
X192600714Y-141668571D01*
X192957857Y-140668571D01*
X194100714Y-141597142D02*
X193957857Y-141668571D01*
X193672142Y-141668571D01*
X193529285Y-141597142D01*
X193457857Y-141454285D01*
X193457857Y-140882857D01*
X193529285Y-140740000D01*
X193672142Y-140668571D01*
X193957857Y-140668571D01*
X194100714Y-140740000D01*
X194172142Y-140882857D01*
X194172142Y-141025714D01*
X193457857Y-141168571D01*
X194815000Y-140668571D02*
X194815000Y-141668571D01*
X194815000Y-140811428D02*
X194886428Y-140740000D01*
X195029285Y-140668571D01*
X195243571Y-140668571D01*
X195386428Y-140740000D01*
X195457857Y-140882857D01*
X195457857Y-141668571D01*
X196172142Y-141525714D02*
X196243571Y-141597142D01*
X196172142Y-141668571D01*
X196100714Y-141597142D01*
X196172142Y-141525714D01*
X196172142Y-141668571D01*
X196886428Y-140668571D02*
X196886428Y-141668571D01*
X196886428Y-140811428D02*
X196957857Y-140740000D01*
X197100714Y-140668571D01*
X197315000Y-140668571D01*
X197457857Y-140740000D01*
X197529285Y-140882857D01*
X197529285Y-141668571D01*
X198457857Y-141668571D02*
X198315000Y-141597142D01*
X198243571Y-141525714D01*
X198172142Y-141382857D01*
X198172142Y-140954285D01*
X198243571Y-140811428D01*
X198315000Y-140740000D01*
X198457857Y-140668571D01*
X198672142Y-140668571D01*
X198815000Y-140740000D01*
X198886428Y-140811428D01*
X198957857Y-140954285D01*
X198957857Y-141382857D01*
X198886428Y-141525714D01*
X198815000Y-141597142D01*
X198672142Y-141668571D01*
X198457857Y-141668571D01*
X199457857Y-140668571D02*
X199815000Y-141668571D01*
X200172142Y-140668571D02*
X199815000Y-141668571D01*
X199672142Y-142025714D01*
X199600714Y-142097142D01*
X199457857Y-142168571D01*
X201386428Y-141597142D02*
X201243571Y-141668571D01*
X200957857Y-141668571D01*
X200815000Y-141597142D01*
X200743571Y-141525714D01*
X200672142Y-141382857D01*
X200672142Y-140954285D01*
X200743571Y-140811428D01*
X200815000Y-140740000D01*
X200957857Y-140668571D01*
X201243571Y-140668571D01*
X201386428Y-140740000D01*
X202600714Y-141597142D02*
X202457857Y-141668571D01*
X202172142Y-141668571D01*
X202029285Y-141597142D01*
X201957857Y-141454285D01*
X201957857Y-140882857D01*
X202029285Y-140740000D01*
X202172142Y-140668571D01*
X202457857Y-140668571D01*
X202600714Y-140740000D01*
X202672142Y-140882857D01*
X202672142Y-141025714D01*
X201957857Y-141168571D01*
X204243571Y-140954285D02*
X204172142Y-140882857D01*
X204029285Y-140811428D01*
X203886428Y-140811428D01*
X203743571Y-140882857D01*
X203672142Y-140954285D01*
X203600714Y-141097142D01*
X203600714Y-141240000D01*
X203672142Y-141382857D01*
X203743571Y-141454285D01*
X203886428Y-141525714D01*
X204029285Y-141525714D01*
X204172142Y-141454285D01*
X204243571Y-141382857D01*
X204243571Y-140811428D02*
X204243571Y-141382857D01*
X204315000Y-141454285D01*
X204386428Y-141454285D01*
X204529285Y-141382857D01*
X204600714Y-141240000D01*
X204600714Y-140882857D01*
X204457857Y-140668571D01*
X204243571Y-140525714D01*
X203957857Y-140454285D01*
X203672142Y-140525714D01*
X203457857Y-140668571D01*
X203315000Y-140882857D01*
X203243571Y-141168571D01*
X203315000Y-141454285D01*
X203457857Y-141668571D01*
X203672142Y-141811428D01*
X203957857Y-141882857D01*
X204243571Y-141811428D01*
X204457857Y-141668571D01*
X205886428Y-140668571D02*
X205886428Y-141882857D01*
X205815000Y-142025714D01*
X205743571Y-142097142D01*
X205600714Y-142168571D01*
X205386428Y-142168571D01*
X205243571Y-142097142D01*
X205886428Y-141597142D02*
X205743571Y-141668571D01*
X205457857Y-141668571D01*
X205315000Y-141597142D01*
X205243571Y-141525714D01*
X205172142Y-141382857D01*
X205172142Y-140954285D01*
X205243571Y-140811428D01*
X205315000Y-140740000D01*
X205457857Y-140668571D01*
X205743571Y-140668571D01*
X205886428Y-140740000D01*
X206600714Y-141668571D02*
X206600714Y-140668571D01*
X206600714Y-140811428D02*
X206672142Y-140740000D01*
X206815000Y-140668571D01*
X207029285Y-140668571D01*
X207172142Y-140740000D01*
X207243571Y-140882857D01*
X207243571Y-141668571D01*
X207243571Y-140882857D02*
X207315000Y-140740000D01*
X207457857Y-140668571D01*
X207672142Y-140668571D01*
X207815000Y-140740000D01*
X207886428Y-140882857D01*
X207886428Y-141668571D01*
X209243571Y-141668571D02*
X209243571Y-140882857D01*
X209172142Y-140740000D01*
X209029285Y-140668571D01*
X208743571Y-140668571D01*
X208600714Y-140740000D01*
X209243571Y-141597142D02*
X209100714Y-141668571D01*
X208743571Y-141668571D01*
X208600714Y-141597142D01*
X208529285Y-141454285D01*
X208529285Y-141311428D01*
X208600714Y-141168571D01*
X208743571Y-141097142D01*
X209100714Y-141097142D01*
X209243571Y-141025714D01*
X209957857Y-141668571D02*
X209957857Y-140668571D01*
X209957857Y-140168571D02*
X209886428Y-140240000D01*
X209957857Y-140311428D01*
X210029285Y-140240000D01*
X209957857Y-140168571D01*
X209957857Y-140311428D01*
X210886428Y-141668571D02*
X210743571Y-141597142D01*
X210672142Y-141454285D01*
X210672142Y-140168571D01*
X211457857Y-141525714D02*
X211529285Y-141597142D01*
X211457857Y-141668571D01*
X211386428Y-141597142D01*
X211457857Y-141525714D01*
X211457857Y-141668571D01*
X212815000Y-141597142D02*
X212672142Y-141668571D01*
X212386428Y-141668571D01*
X212243571Y-141597142D01*
X212172142Y-141525714D01*
X212100714Y-141382857D01*
X212100714Y-140954285D01*
X212172142Y-140811428D01*
X212243571Y-140740000D01*
X212386428Y-140668571D01*
X212672142Y-140668571D01*
X212815000Y-140740000D01*
X213672142Y-141668571D02*
X213529285Y-141597142D01*
X213457857Y-141525714D01*
X213386428Y-141382857D01*
X213386428Y-140954285D01*
X213457857Y-140811428D01*
X213529285Y-140740000D01*
X213672142Y-140668571D01*
X213886428Y-140668571D01*
X214029285Y-140740000D01*
X214100714Y-140811428D01*
X214172142Y-140954285D01*
X214172142Y-141382857D01*
X214100714Y-141525714D01*
X214029285Y-141597142D01*
X213886428Y-141668571D01*
X213672142Y-141668571D01*
X214815000Y-141668571D02*
X214815000Y-140668571D01*
X214815000Y-140811428D02*
X214886428Y-140740000D01*
X215029285Y-140668571D01*
X215243571Y-140668571D01*
X215386428Y-140740000D01*
X215457857Y-140882857D01*
X215457857Y-141668571D01*
X215457857Y-140882857D02*
X215529285Y-140740000D01*
X215672142Y-140668571D01*
X215886428Y-140668571D01*
X216029285Y-140740000D01*
X216100714Y-140882857D01*
X216100714Y-141668571D01*
D12*
X259411904Y-86015238D02*
X259450952Y-85898095D01*
X259450952Y-85702857D01*
X259411904Y-85624761D01*
X259372857Y-85585714D01*
X259294761Y-85546666D01*
X259216666Y-85546666D01*
X259138571Y-85585714D01*
X259099523Y-85624761D01*
X259060476Y-85702857D01*
X259021428Y-85859047D01*
X258982380Y-85937142D01*
X258943333Y-85976190D01*
X258865238Y-86015238D01*
X258787142Y-86015238D01*
X258709047Y-85976190D01*
X258670000Y-85937142D01*
X258630952Y-85859047D01*
X258630952Y-85663809D01*
X258670000Y-85546666D01*
X259411904Y-85234285D02*
X259450952Y-85117142D01*
X259450952Y-84921904D01*
X259411904Y-84843809D01*
X259372857Y-84804761D01*
X259294761Y-84765714D01*
X259216666Y-84765714D01*
X259138571Y-84804761D01*
X259099523Y-84843809D01*
X259060476Y-84921904D01*
X259021428Y-85078095D01*
X258982380Y-85156190D01*
X258943333Y-85195238D01*
X258865238Y-85234285D01*
X258787142Y-85234285D01*
X258709047Y-85195238D01*
X258670000Y-85156190D01*
X258630952Y-85078095D01*
X258630952Y-84882857D01*
X258670000Y-84765714D01*
X259450952Y-83984761D02*
X259450952Y-84453333D01*
X259450952Y-84219047D02*
X258630952Y-84219047D01*
X258748095Y-84297142D01*
X258826190Y-84375238D01*
X258865238Y-84453333D01*
X259411904Y-91515238D02*
X259450952Y-91398095D01*
X259450952Y-91202857D01*
X259411904Y-91124761D01*
X259372857Y-91085714D01*
X259294761Y-91046666D01*
X259216666Y-91046666D01*
X259138571Y-91085714D01*
X259099523Y-91124761D01*
X259060476Y-91202857D01*
X259021428Y-91359047D01*
X258982380Y-91437142D01*
X258943333Y-91476190D01*
X258865238Y-91515238D01*
X258787142Y-91515238D01*
X258709047Y-91476190D01*
X258670000Y-91437142D01*
X258630952Y-91359047D01*
X258630952Y-91163809D01*
X258670000Y-91046666D01*
X259411904Y-90734285D02*
X259450952Y-90617142D01*
X259450952Y-90421904D01*
X259411904Y-90343809D01*
X259372857Y-90304761D01*
X259294761Y-90265714D01*
X259216666Y-90265714D01*
X259138571Y-90304761D01*
X259099523Y-90343809D01*
X259060476Y-90421904D01*
X259021428Y-90578095D01*
X258982380Y-90656190D01*
X258943333Y-90695238D01*
X258865238Y-90734285D01*
X258787142Y-90734285D01*
X258709047Y-90695238D01*
X258670000Y-90656190D01*
X258630952Y-90578095D01*
X258630952Y-90382857D01*
X258670000Y-90265714D01*
X258709047Y-89953333D02*
X258670000Y-89914285D01*
X258630952Y-89836190D01*
X258630952Y-89640952D01*
X258670000Y-89562857D01*
X258709047Y-89523809D01*
X258787142Y-89484761D01*
X258865238Y-89484761D01*
X258982380Y-89523809D01*
X259450952Y-89992380D01*
X259450952Y-89484761D01*
X259021428Y-107978714D02*
X259060476Y-107861571D01*
X259099523Y-107822523D01*
X259177619Y-107783476D01*
X259294761Y-107783476D01*
X259372857Y-107822523D01*
X259411904Y-107861571D01*
X259450952Y-107939666D01*
X259450952Y-108252047D01*
X258630952Y-108252047D01*
X258630952Y-107978714D01*
X258670000Y-107900619D01*
X258709047Y-107861571D01*
X258787142Y-107822523D01*
X258865238Y-107822523D01*
X258943333Y-107861571D01*
X258982380Y-107900619D01*
X259021428Y-107978714D01*
X259021428Y-108252047D01*
X259450952Y-107080619D02*
X259021428Y-107080619D01*
X258943333Y-107119666D01*
X258904285Y-107197761D01*
X258904285Y-107353952D01*
X258943333Y-107432047D01*
X259411904Y-107080619D02*
X259450952Y-107158714D01*
X259450952Y-107353952D01*
X259411904Y-107432047D01*
X259333809Y-107471095D01*
X259255714Y-107471095D01*
X259177619Y-107432047D01*
X259138571Y-107353952D01*
X259138571Y-107158714D01*
X259099523Y-107080619D01*
X259411904Y-106338714D02*
X259450952Y-106416809D01*
X259450952Y-106573000D01*
X259411904Y-106651095D01*
X259372857Y-106690142D01*
X259294761Y-106729190D01*
X259060476Y-106729190D01*
X258982380Y-106690142D01*
X258943333Y-106651095D01*
X258904285Y-106573000D01*
X258904285Y-106416809D01*
X258943333Y-106338714D01*
X259450952Y-105987285D02*
X258630952Y-105987285D01*
X259138571Y-105909190D02*
X259450952Y-105674904D01*
X258904285Y-105674904D02*
X259216666Y-105987285D01*
X259450952Y-113322571D02*
X259450952Y-113713047D01*
X258630952Y-113713047D01*
X259450952Y-112932095D02*
X259411904Y-113010190D01*
X259372857Y-113049238D01*
X259294761Y-113088285D01*
X259060476Y-113088285D01*
X258982380Y-113049238D01*
X258943333Y-113010190D01*
X258904285Y-112932095D01*
X258904285Y-112814952D01*
X258943333Y-112736857D01*
X258982380Y-112697809D01*
X259060476Y-112658761D01*
X259294761Y-112658761D01*
X259372857Y-112697809D01*
X259411904Y-112736857D01*
X259450952Y-112814952D01*
X259450952Y-112932095D01*
X259411904Y-111955904D02*
X259450952Y-112034000D01*
X259450952Y-112190190D01*
X259411904Y-112268285D01*
X259372857Y-112307333D01*
X259294761Y-112346380D01*
X259060476Y-112346380D01*
X258982380Y-112307333D01*
X258943333Y-112268285D01*
X258904285Y-112190190D01*
X258904285Y-112034000D01*
X258943333Y-111955904D01*
X258670000Y-111174952D02*
X258630952Y-111253047D01*
X258630952Y-111370190D01*
X258670000Y-111487333D01*
X258748095Y-111565428D01*
X258826190Y-111604476D01*
X258982380Y-111643523D01*
X259099523Y-111643523D01*
X259255714Y-111604476D01*
X259333809Y-111565428D01*
X259411904Y-111487333D01*
X259450952Y-111370190D01*
X259450952Y-111292095D01*
X259411904Y-111174952D01*
X259372857Y-111135904D01*
X259099523Y-111135904D01*
X259099523Y-111292095D01*
X259411904Y-119135000D02*
X259450952Y-119017857D01*
X259450952Y-118822619D01*
X259411904Y-118744523D01*
X259372857Y-118705476D01*
X259294761Y-118666428D01*
X259216666Y-118666428D01*
X259138571Y-118705476D01*
X259099523Y-118744523D01*
X259060476Y-118822619D01*
X259021428Y-118978809D01*
X258982380Y-119056904D01*
X258943333Y-119095952D01*
X258865238Y-119135000D01*
X258787142Y-119135000D01*
X258709047Y-119095952D01*
X258670000Y-119056904D01*
X258630952Y-118978809D01*
X258630952Y-118783571D01*
X258670000Y-118666428D01*
X259450952Y-118197857D02*
X259411904Y-118275952D01*
X259372857Y-118315000D01*
X259294761Y-118354047D01*
X259060476Y-118354047D01*
X258982380Y-118315000D01*
X258943333Y-118275952D01*
X258904285Y-118197857D01*
X258904285Y-118080714D01*
X258943333Y-118002619D01*
X258982380Y-117963571D01*
X259060476Y-117924523D01*
X259294761Y-117924523D01*
X259372857Y-117963571D01*
X259411904Y-118002619D01*
X259450952Y-118080714D01*
X259450952Y-118197857D01*
X259450952Y-117455952D02*
X259411904Y-117534047D01*
X259333809Y-117573095D01*
X258630952Y-117573095D01*
X258670000Y-116714047D02*
X258630952Y-116792142D01*
X258630952Y-116909285D01*
X258670000Y-117026428D01*
X258748095Y-117104523D01*
X258826190Y-117143571D01*
X258982380Y-117182619D01*
X259099523Y-117182619D01*
X259255714Y-117143571D01*
X259333809Y-117104523D01*
X259411904Y-117026428D01*
X259450952Y-116909285D01*
X259450952Y-116831190D01*
X259411904Y-116714047D01*
X259372857Y-116675000D01*
X259099523Y-116675000D01*
X259099523Y-116831190D01*
X176266666Y-88370952D02*
X176266666Y-87550952D01*
X176461904Y-87550952D01*
X176579047Y-87590000D01*
X176657142Y-87668095D01*
X176696190Y-87746190D01*
X176735238Y-87902380D01*
X176735238Y-88019523D01*
X176696190Y-88175714D01*
X176657142Y-88253809D01*
X176579047Y-88331904D01*
X176461904Y-88370952D01*
X176266666Y-88370952D01*
X177086666Y-88370952D02*
X177086666Y-87550952D01*
X177281904Y-87550952D01*
X177399047Y-87590000D01*
X177477142Y-87668095D01*
X177516190Y-87746190D01*
X177555238Y-87902380D01*
X177555238Y-88019523D01*
X177516190Y-88175714D01*
X177477142Y-88253809D01*
X177399047Y-88331904D01*
X177281904Y-88370952D01*
X177086666Y-88370952D01*
X178336190Y-88370952D02*
X177867619Y-88370952D01*
X178101904Y-88370952D02*
X178101904Y-87550952D01*
X178023809Y-87668095D01*
X177945714Y-87746190D01*
X177867619Y-87785238D01*
X179351428Y-88370952D02*
X179312380Y-88370952D01*
X179234285Y-88331904D01*
X179117142Y-88214761D01*
X178921904Y-87980476D01*
X178843809Y-87863333D01*
X178804761Y-87746190D01*
X178804761Y-87668095D01*
X178843809Y-87590000D01*
X178921904Y-87550952D01*
X178960952Y-87550952D01*
X179039047Y-87590000D01*
X179078095Y-87668095D01*
X179078095Y-87707142D01*
X179039047Y-87785238D01*
X179000000Y-87824285D01*
X178765714Y-87980476D01*
X178726666Y-88019523D01*
X178687619Y-88097619D01*
X178687619Y-88214761D01*
X178726666Y-88292857D01*
X178765714Y-88331904D01*
X178843809Y-88370952D01*
X178960952Y-88370952D01*
X179039047Y-88331904D01*
X179078095Y-88292857D01*
X179195238Y-88136666D01*
X179234285Y-88019523D01*
X179234285Y-87941428D01*
X179702857Y-88370952D02*
X179702857Y-87550952D01*
X179898095Y-87550952D01*
X180015238Y-87590000D01*
X180093333Y-87668095D01*
X180132380Y-87746190D01*
X180171428Y-87902380D01*
X180171428Y-88019523D01*
X180132380Y-88175714D01*
X180093333Y-88253809D01*
X180015238Y-88331904D01*
X179898095Y-88370952D01*
X179702857Y-88370952D01*
X180522857Y-88370952D02*
X180522857Y-87550952D01*
X180718095Y-87550952D01*
X180835238Y-87590000D01*
X180913333Y-87668095D01*
X180952380Y-87746190D01*
X180991428Y-87902380D01*
X180991428Y-88019523D01*
X180952380Y-88175714D01*
X180913333Y-88253809D01*
X180835238Y-88331904D01*
X180718095Y-88370952D01*
X180522857Y-88370952D01*
X181303809Y-87629047D02*
X181342857Y-87590000D01*
X181420952Y-87550952D01*
X181616190Y-87550952D01*
X181694285Y-87590000D01*
X181733333Y-87629047D01*
X181772380Y-87707142D01*
X181772380Y-87785238D01*
X181733333Y-87902380D01*
X181264761Y-88370952D01*
X181772380Y-88370952D01*
X176266666Y-124270952D02*
X176266666Y-123450952D01*
X176461904Y-123450952D01*
X176579047Y-123490000D01*
X176657142Y-123568095D01*
X176696190Y-123646190D01*
X176735238Y-123802380D01*
X176735238Y-123919523D01*
X176696190Y-124075714D01*
X176657142Y-124153809D01*
X176579047Y-124231904D01*
X176461904Y-124270952D01*
X176266666Y-124270952D01*
X177086666Y-124270952D02*
X177086666Y-123450952D01*
X177281904Y-123450952D01*
X177399047Y-123490000D01*
X177477142Y-123568095D01*
X177516190Y-123646190D01*
X177555238Y-123802380D01*
X177555238Y-123919523D01*
X177516190Y-124075714D01*
X177477142Y-124153809D01*
X177399047Y-124231904D01*
X177281904Y-124270952D01*
X177086666Y-124270952D01*
X178336190Y-124270952D02*
X177867619Y-124270952D01*
X178101904Y-124270952D02*
X178101904Y-123450952D01*
X178023809Y-123568095D01*
X177945714Y-123646190D01*
X177867619Y-123685238D01*
X179351428Y-124270952D02*
X179312380Y-124270952D01*
X179234285Y-124231904D01*
X179117142Y-124114761D01*
X178921904Y-123880476D01*
X178843809Y-123763333D01*
X178804761Y-123646190D01*
X178804761Y-123568095D01*
X178843809Y-123490000D01*
X178921904Y-123450952D01*
X178960952Y-123450952D01*
X179039047Y-123490000D01*
X179078095Y-123568095D01*
X179078095Y-123607142D01*
X179039047Y-123685238D01*
X179000000Y-123724285D01*
X178765714Y-123880476D01*
X178726666Y-123919523D01*
X178687619Y-123997619D01*
X178687619Y-124114761D01*
X178726666Y-124192857D01*
X178765714Y-124231904D01*
X178843809Y-124270952D01*
X178960952Y-124270952D01*
X179039047Y-124231904D01*
X179078095Y-124192857D01*
X179195238Y-124036666D01*
X179234285Y-123919523D01*
X179234285Y-123841428D01*
X179702857Y-124270952D02*
X179702857Y-123450952D01*
X179898095Y-123450952D01*
X180015238Y-123490000D01*
X180093333Y-123568095D01*
X180132380Y-123646190D01*
X180171428Y-123802380D01*
X180171428Y-123919523D01*
X180132380Y-124075714D01*
X180093333Y-124153809D01*
X180015238Y-124231904D01*
X179898095Y-124270952D01*
X179702857Y-124270952D01*
X180522857Y-124270952D02*
X180522857Y-123450952D01*
X180718095Y-123450952D01*
X180835238Y-123490000D01*
X180913333Y-123568095D01*
X180952380Y-123646190D01*
X180991428Y-123802380D01*
X180991428Y-123919523D01*
X180952380Y-124075714D01*
X180913333Y-124153809D01*
X180835238Y-124231904D01*
X180718095Y-124270952D01*
X180522857Y-124270952D01*
X181303809Y-123529047D02*
X181342857Y-123490000D01*
X181420952Y-123450952D01*
X181616190Y-123450952D01*
X181694285Y-123490000D01*
X181733333Y-123529047D01*
X181772380Y-123607142D01*
X181772380Y-123685238D01*
X181733333Y-123802380D01*
X181264761Y-124270952D01*
X181772380Y-124270952D01*
X218285714Y-124331904D02*
X218402857Y-124370952D01*
X218598095Y-124370952D01*
X218676190Y-124331904D01*
X218715238Y-124292857D01*
X218754285Y-124214761D01*
X218754285Y-124136666D01*
X218715238Y-124058571D01*
X218676190Y-124019523D01*
X218598095Y-123980476D01*
X218441904Y-123941428D01*
X218363809Y-123902380D01*
X218324761Y-123863333D01*
X218285714Y-123785238D01*
X218285714Y-123707142D01*
X218324761Y-123629047D01*
X218363809Y-123590000D01*
X218441904Y-123550952D01*
X218637142Y-123550952D01*
X218754285Y-123590000D01*
X219066666Y-124331904D02*
X219183809Y-124370952D01*
X219379047Y-124370952D01*
X219457142Y-124331904D01*
X219496190Y-124292857D01*
X219535238Y-124214761D01*
X219535238Y-124136666D01*
X219496190Y-124058571D01*
X219457142Y-124019523D01*
X219379047Y-123980476D01*
X219222857Y-123941428D01*
X219144761Y-123902380D01*
X219105714Y-123863333D01*
X219066666Y-123785238D01*
X219066666Y-123707142D01*
X219105714Y-123629047D01*
X219144761Y-123590000D01*
X219222857Y-123550952D01*
X219418095Y-123550952D01*
X219535238Y-123590000D01*
X220316190Y-124370952D02*
X219847619Y-124370952D01*
X220081904Y-124370952D02*
X220081904Y-123550952D01*
X220003809Y-123668095D01*
X219925714Y-123746190D01*
X219847619Y-123785238D01*
X221331428Y-124370952D02*
X221292380Y-124370952D01*
X221214285Y-124331904D01*
X221097142Y-124214761D01*
X220901904Y-123980476D01*
X220823809Y-123863333D01*
X220784761Y-123746190D01*
X220784761Y-123668095D01*
X220823809Y-123590000D01*
X220901904Y-123550952D01*
X220940952Y-123550952D01*
X221019047Y-123590000D01*
X221058095Y-123668095D01*
X221058095Y-123707142D01*
X221019047Y-123785238D01*
X220980000Y-123824285D01*
X220745714Y-123980476D01*
X220706666Y-124019523D01*
X220667619Y-124097619D01*
X220667619Y-124214761D01*
X220706666Y-124292857D01*
X220745714Y-124331904D01*
X220823809Y-124370952D01*
X220940952Y-124370952D01*
X221019047Y-124331904D01*
X221058095Y-124292857D01*
X221175238Y-124136666D01*
X221214285Y-124019523D01*
X221214285Y-123941428D01*
X221643809Y-124331904D02*
X221760952Y-124370952D01*
X221956190Y-124370952D01*
X222034285Y-124331904D01*
X222073333Y-124292857D01*
X222112380Y-124214761D01*
X222112380Y-124136666D01*
X222073333Y-124058571D01*
X222034285Y-124019523D01*
X221956190Y-123980476D01*
X221800000Y-123941428D01*
X221721904Y-123902380D01*
X221682857Y-123863333D01*
X221643809Y-123785238D01*
X221643809Y-123707142D01*
X221682857Y-123629047D01*
X221721904Y-123590000D01*
X221800000Y-123550952D01*
X221995238Y-123550952D01*
X222112380Y-123590000D01*
X222424761Y-124331904D02*
X222541904Y-124370952D01*
X222737142Y-124370952D01*
X222815238Y-124331904D01*
X222854285Y-124292857D01*
X222893333Y-124214761D01*
X222893333Y-124136666D01*
X222854285Y-124058571D01*
X222815238Y-124019523D01*
X222737142Y-123980476D01*
X222580952Y-123941428D01*
X222502857Y-123902380D01*
X222463809Y-123863333D01*
X222424761Y-123785238D01*
X222424761Y-123707142D01*
X222463809Y-123629047D01*
X222502857Y-123590000D01*
X222580952Y-123550952D01*
X222776190Y-123550952D01*
X222893333Y-123590000D01*
X223205714Y-123629047D02*
X223244761Y-123590000D01*
X223322857Y-123550952D01*
X223518095Y-123550952D01*
X223596190Y-123590000D01*
X223635238Y-123629047D01*
X223674285Y-123707142D01*
X223674285Y-123785238D01*
X223635238Y-123902380D01*
X223166666Y-124370952D01*
X223674285Y-124370952D01*
X218205714Y-87831904D02*
X218322857Y-87870952D01*
X218518095Y-87870952D01*
X218596190Y-87831904D01*
X218635238Y-87792857D01*
X218674285Y-87714761D01*
X218674285Y-87636666D01*
X218635238Y-87558571D01*
X218596190Y-87519523D01*
X218518095Y-87480476D01*
X218361904Y-87441428D01*
X218283809Y-87402380D01*
X218244761Y-87363333D01*
X218205714Y-87285238D01*
X218205714Y-87207142D01*
X218244761Y-87129047D01*
X218283809Y-87090000D01*
X218361904Y-87050952D01*
X218557142Y-87050952D01*
X218674285Y-87090000D01*
X218986666Y-87831904D02*
X219103809Y-87870952D01*
X219299047Y-87870952D01*
X219377142Y-87831904D01*
X219416190Y-87792857D01*
X219455238Y-87714761D01*
X219455238Y-87636666D01*
X219416190Y-87558571D01*
X219377142Y-87519523D01*
X219299047Y-87480476D01*
X219142857Y-87441428D01*
X219064761Y-87402380D01*
X219025714Y-87363333D01*
X218986666Y-87285238D01*
X218986666Y-87207142D01*
X219025714Y-87129047D01*
X219064761Y-87090000D01*
X219142857Y-87050952D01*
X219338095Y-87050952D01*
X219455238Y-87090000D01*
X220236190Y-87870952D02*
X219767619Y-87870952D01*
X220001904Y-87870952D02*
X220001904Y-87050952D01*
X219923809Y-87168095D01*
X219845714Y-87246190D01*
X219767619Y-87285238D01*
X221251428Y-87870952D02*
X221212380Y-87870952D01*
X221134285Y-87831904D01*
X221017142Y-87714761D01*
X220821904Y-87480476D01*
X220743809Y-87363333D01*
X220704761Y-87246190D01*
X220704761Y-87168095D01*
X220743809Y-87090000D01*
X220821904Y-87050952D01*
X220860952Y-87050952D01*
X220939047Y-87090000D01*
X220978095Y-87168095D01*
X220978095Y-87207142D01*
X220939047Y-87285238D01*
X220900000Y-87324285D01*
X220665714Y-87480476D01*
X220626666Y-87519523D01*
X220587619Y-87597619D01*
X220587619Y-87714761D01*
X220626666Y-87792857D01*
X220665714Y-87831904D01*
X220743809Y-87870952D01*
X220860952Y-87870952D01*
X220939047Y-87831904D01*
X220978095Y-87792857D01*
X221095238Y-87636666D01*
X221134285Y-87519523D01*
X221134285Y-87441428D01*
X221563809Y-87831904D02*
X221680952Y-87870952D01*
X221876190Y-87870952D01*
X221954285Y-87831904D01*
X221993333Y-87792857D01*
X222032380Y-87714761D01*
X222032380Y-87636666D01*
X221993333Y-87558571D01*
X221954285Y-87519523D01*
X221876190Y-87480476D01*
X221720000Y-87441428D01*
X221641904Y-87402380D01*
X221602857Y-87363333D01*
X221563809Y-87285238D01*
X221563809Y-87207142D01*
X221602857Y-87129047D01*
X221641904Y-87090000D01*
X221720000Y-87050952D01*
X221915238Y-87050952D01*
X222032380Y-87090000D01*
X222344761Y-87831904D02*
X222461904Y-87870952D01*
X222657142Y-87870952D01*
X222735238Y-87831904D01*
X222774285Y-87792857D01*
X222813333Y-87714761D01*
X222813333Y-87636666D01*
X222774285Y-87558571D01*
X222735238Y-87519523D01*
X222657142Y-87480476D01*
X222500952Y-87441428D01*
X222422857Y-87402380D01*
X222383809Y-87363333D01*
X222344761Y-87285238D01*
X222344761Y-87207142D01*
X222383809Y-87129047D01*
X222422857Y-87090000D01*
X222500952Y-87050952D01*
X222696190Y-87050952D01*
X222813333Y-87090000D01*
X223125714Y-87129047D02*
X223164761Y-87090000D01*
X223242857Y-87050952D01*
X223438095Y-87050952D01*
X223516190Y-87090000D01*
X223555238Y-87129047D01*
X223594285Y-87207142D01*
X223594285Y-87285238D01*
X223555238Y-87402380D01*
X223086666Y-87870952D01*
X223594285Y-87870952D01*
X250894000Y-80983952D02*
X250894000Y-80163952D01*
X251440666Y-80163952D02*
X251596857Y-80163952D01*
X251674952Y-80203000D01*
X251753047Y-80281095D01*
X251792095Y-80437285D01*
X251792095Y-80710619D01*
X251753047Y-80866809D01*
X251674952Y-80944904D01*
X251596857Y-80983952D01*
X251440666Y-80983952D01*
X251362571Y-80944904D01*
X251284476Y-80866809D01*
X251245428Y-80710619D01*
X251245428Y-80437285D01*
X251284476Y-80281095D01*
X251362571Y-80203000D01*
X251440666Y-80163952D01*
X252494952Y-80437285D02*
X252494952Y-80983952D01*
X252299714Y-80124904D02*
X252104476Y-80710619D01*
X252612095Y-80710619D01*
X250894000Y-83575952D02*
X250894000Y-82755952D01*
X251440666Y-82755952D02*
X251596857Y-82755952D01*
X251674952Y-82795000D01*
X251753047Y-82873095D01*
X251792095Y-83029285D01*
X251792095Y-83302619D01*
X251753047Y-83458809D01*
X251674952Y-83536904D01*
X251596857Y-83575952D01*
X251440666Y-83575952D01*
X251362571Y-83536904D01*
X251284476Y-83458809D01*
X251245428Y-83302619D01*
X251245428Y-83029285D01*
X251284476Y-82873095D01*
X251362571Y-82795000D01*
X251440666Y-82755952D01*
X252065428Y-82755952D02*
X252573047Y-82755952D01*
X252299714Y-83068333D01*
X252416857Y-83068333D01*
X252494952Y-83107380D01*
X252534000Y-83146428D01*
X252573047Y-83224523D01*
X252573047Y-83419761D01*
X252534000Y-83497857D01*
X252494952Y-83536904D01*
X252416857Y-83575952D01*
X252182571Y-83575952D01*
X252104476Y-83536904D01*
X252065428Y-83497857D01*
X250894000Y-86175952D02*
X250894000Y-85355952D01*
X251440666Y-85355952D02*
X251596857Y-85355952D01*
X251674952Y-85395000D01*
X251753047Y-85473095D01*
X251792095Y-85629285D01*
X251792095Y-85902619D01*
X251753047Y-86058809D01*
X251674952Y-86136904D01*
X251596857Y-86175952D01*
X251440666Y-86175952D01*
X251362571Y-86136904D01*
X251284476Y-86058809D01*
X251245428Y-85902619D01*
X251245428Y-85629285D01*
X251284476Y-85473095D01*
X251362571Y-85395000D01*
X251440666Y-85355952D01*
X252104476Y-85434047D02*
X252143523Y-85395000D01*
X252221619Y-85355952D01*
X252416857Y-85355952D01*
X252494952Y-85395000D01*
X252534000Y-85434047D01*
X252573047Y-85512142D01*
X252573047Y-85590238D01*
X252534000Y-85707380D01*
X252065428Y-86175952D01*
X252573047Y-86175952D01*
X250894000Y-88675952D02*
X250894000Y-87855952D01*
X251440666Y-87855952D02*
X251596857Y-87855952D01*
X251674952Y-87895000D01*
X251753047Y-87973095D01*
X251792095Y-88129285D01*
X251792095Y-88402619D01*
X251753047Y-88558809D01*
X251674952Y-88636904D01*
X251596857Y-88675952D01*
X251440666Y-88675952D01*
X251362571Y-88636904D01*
X251284476Y-88558809D01*
X251245428Y-88402619D01*
X251245428Y-88129285D01*
X251284476Y-87973095D01*
X251362571Y-87895000D01*
X251440666Y-87855952D01*
X252573047Y-88675952D02*
X252104476Y-88675952D01*
X252338761Y-88675952D02*
X252338761Y-87855952D01*
X252260666Y-87973095D01*
X252182571Y-88051190D01*
X252104476Y-88090238D01*
X239522761Y-91175952D02*
X239522761Y-90355952D01*
X239718000Y-90355952D01*
X239835142Y-90395000D01*
X239913238Y-90473095D01*
X239952285Y-90551190D01*
X239991333Y-90707380D01*
X239991333Y-90824523D01*
X239952285Y-90980714D01*
X239913238Y-91058809D01*
X239835142Y-91136904D01*
X239718000Y-91175952D01*
X239522761Y-91175952D01*
X240342761Y-91175952D02*
X240342761Y-90355952D01*
X240538000Y-90355952D01*
X240655142Y-90395000D01*
X240733238Y-90473095D01*
X240772285Y-90551190D01*
X240811333Y-90707380D01*
X240811333Y-90824523D01*
X240772285Y-90980714D01*
X240733238Y-91058809D01*
X240655142Y-91136904D01*
X240538000Y-91175952D01*
X240342761Y-91175952D01*
X241592285Y-91175952D02*
X241123714Y-91175952D01*
X241358000Y-91175952D02*
X241358000Y-90355952D01*
X241279904Y-90473095D01*
X241201809Y-90551190D01*
X241123714Y-90590238D01*
X239522761Y-93715952D02*
X239522761Y-92895952D01*
X239718000Y-92895952D01*
X239835142Y-92935000D01*
X239913238Y-93013095D01*
X239952285Y-93091190D01*
X239991333Y-93247380D01*
X239991333Y-93364523D01*
X239952285Y-93520714D01*
X239913238Y-93598809D01*
X239835142Y-93676904D01*
X239718000Y-93715952D01*
X239522761Y-93715952D01*
X240342761Y-93715952D02*
X240342761Y-92895952D01*
X240538000Y-92895952D01*
X240655142Y-92935000D01*
X240733238Y-93013095D01*
X240772285Y-93091190D01*
X240811333Y-93247380D01*
X240811333Y-93364523D01*
X240772285Y-93520714D01*
X240733238Y-93598809D01*
X240655142Y-93676904D01*
X240538000Y-93715952D01*
X240342761Y-93715952D01*
X241123714Y-92974047D02*
X241162761Y-92935000D01*
X241240857Y-92895952D01*
X241436095Y-92895952D01*
X241514190Y-92935000D01*
X241553238Y-92974047D01*
X241592285Y-93052142D01*
X241592285Y-93130238D01*
X241553238Y-93247380D01*
X241084666Y-93715952D01*
X241592285Y-93715952D01*
X250952761Y-91236904D02*
X251069904Y-91275952D01*
X251265142Y-91275952D01*
X251343238Y-91236904D01*
X251382285Y-91197857D01*
X251421333Y-91119761D01*
X251421333Y-91041666D01*
X251382285Y-90963571D01*
X251343238Y-90924523D01*
X251265142Y-90885476D01*
X251108952Y-90846428D01*
X251030857Y-90807380D01*
X250991809Y-90768333D01*
X250952761Y-90690238D01*
X250952761Y-90612142D01*
X250991809Y-90534047D01*
X251030857Y-90495000D01*
X251108952Y-90455952D01*
X251304190Y-90455952D01*
X251421333Y-90495000D01*
X251733714Y-91236904D02*
X251850857Y-91275952D01*
X252046095Y-91275952D01*
X252124190Y-91236904D01*
X252163238Y-91197857D01*
X252202285Y-91119761D01*
X252202285Y-91041666D01*
X252163238Y-90963571D01*
X252124190Y-90924523D01*
X252046095Y-90885476D01*
X251889904Y-90846428D01*
X251811809Y-90807380D01*
X251772761Y-90768333D01*
X251733714Y-90690238D01*
X251733714Y-90612142D01*
X251772761Y-90534047D01*
X251811809Y-90495000D01*
X251889904Y-90455952D01*
X252085142Y-90455952D01*
X252202285Y-90495000D01*
X252983238Y-91275952D02*
X252514666Y-91275952D01*
X252748952Y-91275952D02*
X252748952Y-90455952D01*
X252670857Y-90573095D01*
X252592761Y-90651190D01*
X252514666Y-90690238D01*
X250952761Y-93771904D02*
X251069904Y-93810952D01*
X251265142Y-93810952D01*
X251343238Y-93771904D01*
X251382285Y-93732857D01*
X251421333Y-93654761D01*
X251421333Y-93576666D01*
X251382285Y-93498571D01*
X251343238Y-93459523D01*
X251265142Y-93420476D01*
X251108952Y-93381428D01*
X251030857Y-93342380D01*
X250991809Y-93303333D01*
X250952761Y-93225238D01*
X250952761Y-93147142D01*
X250991809Y-93069047D01*
X251030857Y-93030000D01*
X251108952Y-92990952D01*
X251304190Y-92990952D01*
X251421333Y-93030000D01*
X251733714Y-93771904D02*
X251850857Y-93810952D01*
X252046095Y-93810952D01*
X252124190Y-93771904D01*
X252163238Y-93732857D01*
X252202285Y-93654761D01*
X252202285Y-93576666D01*
X252163238Y-93498571D01*
X252124190Y-93459523D01*
X252046095Y-93420476D01*
X251889904Y-93381428D01*
X251811809Y-93342380D01*
X251772761Y-93303333D01*
X251733714Y-93225238D01*
X251733714Y-93147142D01*
X251772761Y-93069047D01*
X251811809Y-93030000D01*
X251889904Y-92990952D01*
X252085142Y-92990952D01*
X252202285Y-93030000D01*
X252514666Y-93069047D02*
X252553714Y-93030000D01*
X252631809Y-92990952D01*
X252827047Y-92990952D01*
X252905142Y-93030000D01*
X252944190Y-93069047D01*
X252983238Y-93147142D01*
X252983238Y-93225238D01*
X252944190Y-93342380D01*
X252475619Y-93810952D01*
X252983238Y-93810952D01*
X251343238Y-95570000D02*
X251265142Y-95530952D01*
X251148000Y-95530952D01*
X251030857Y-95570000D01*
X250952761Y-95648095D01*
X250913714Y-95726190D01*
X250874666Y-95882380D01*
X250874666Y-95999523D01*
X250913714Y-96155714D01*
X250952761Y-96233809D01*
X251030857Y-96311904D01*
X251148000Y-96350952D01*
X251226095Y-96350952D01*
X251343238Y-96311904D01*
X251382285Y-96272857D01*
X251382285Y-95999523D01*
X251226095Y-95999523D01*
X251733714Y-96350952D02*
X251733714Y-95530952D01*
X252202285Y-96350952D01*
X252202285Y-95530952D01*
X252592761Y-96350952D02*
X252592761Y-95530952D01*
X252788000Y-95530952D01*
X252905142Y-95570000D01*
X252983238Y-95648095D01*
X253022285Y-95726190D01*
X253061333Y-95882380D01*
X253061333Y-95999523D01*
X253022285Y-96155714D01*
X252983238Y-96233809D01*
X252905142Y-96311904D01*
X252788000Y-96350952D01*
X252592761Y-96350952D01*
D10*
X241200000Y-89405000D02*
X241900000Y-89405000D01*
X241200000Y-79505000D02*
X241200000Y-89405000D01*
X242000000Y-79505000D02*
X241200000Y-79505000D01*
D12*
X176223428Y-145944761D02*
X176262476Y-145827619D01*
X176301523Y-145788571D01*
X176379619Y-145749523D01*
X176496761Y-145749523D01*
X176574857Y-145788571D01*
X176613904Y-145827619D01*
X176652952Y-145905714D01*
X176652952Y-146218095D01*
X175832952Y-146218095D01*
X175832952Y-145944761D01*
X175872000Y-145866666D01*
X175911047Y-145827619D01*
X175989142Y-145788571D01*
X176067238Y-145788571D01*
X176145333Y-145827619D01*
X176184380Y-145866666D01*
X176223428Y-145944761D01*
X176223428Y-146218095D01*
X175832952Y-145515238D02*
X175832952Y-145046666D01*
X176652952Y-145280952D02*
X175832952Y-145280952D01*
X176652952Y-144304761D02*
X176262476Y-144578095D01*
X176652952Y-144773333D02*
X175832952Y-144773333D01*
X175832952Y-144460952D01*
X175872000Y-144382857D01*
X175911047Y-144343809D01*
X175989142Y-144304761D01*
X176106285Y-144304761D01*
X176184380Y-144343809D01*
X176223428Y-144382857D01*
X176262476Y-144460952D01*
X176262476Y-144773333D01*
X175832952Y-144031428D02*
X176652952Y-143484761D01*
X175832952Y-143484761D02*
X176652952Y-144031428D01*
X176652952Y-142742857D02*
X176652952Y-143211428D01*
X176652952Y-142977142D02*
X175832952Y-142977142D01*
X175950095Y-143055238D01*
X176028190Y-143133333D01*
X176067238Y-143211428D01*
X178757428Y-145847142D02*
X178796476Y-145730000D01*
X178835523Y-145690952D01*
X178913619Y-145651904D01*
X179030761Y-145651904D01*
X179108857Y-145690952D01*
X179147904Y-145730000D01*
X179186952Y-145808095D01*
X179186952Y-146120476D01*
X178366952Y-146120476D01*
X178366952Y-145847142D01*
X178406000Y-145769047D01*
X178445047Y-145730000D01*
X178523142Y-145690952D01*
X178601238Y-145690952D01*
X178679333Y-145730000D01*
X178718380Y-145769047D01*
X178757428Y-145847142D01*
X178757428Y-146120476D01*
X178366952Y-145417619D02*
X178366952Y-144949047D01*
X179186952Y-145183333D02*
X178366952Y-145183333D01*
X178366952Y-144792857D02*
X178366952Y-144324285D01*
X179186952Y-144558571D02*
X178366952Y-144558571D01*
X178366952Y-144129047D02*
X179186952Y-143582380D01*
X178366952Y-143582380D02*
X179186952Y-144129047D01*
X179186952Y-142840476D02*
X179186952Y-143309047D01*
X179186952Y-143074761D02*
X178366952Y-143074761D01*
X178484095Y-143152857D01*
X178562190Y-143230952D01*
X178601238Y-143309047D01*
X180972000Y-144624761D02*
X180932952Y-144702857D01*
X180932952Y-144820000D01*
X180972000Y-144937142D01*
X181050095Y-145015238D01*
X181128190Y-145054285D01*
X181284380Y-145093333D01*
X181401523Y-145093333D01*
X181557714Y-145054285D01*
X181635809Y-145015238D01*
X181713904Y-144937142D01*
X181752952Y-144820000D01*
X181752952Y-144741904D01*
X181713904Y-144624761D01*
X181674857Y-144585714D01*
X181401523Y-144585714D01*
X181401523Y-144741904D01*
X181752952Y-144234285D02*
X180932952Y-144234285D01*
X181752952Y-143765714D01*
X180932952Y-143765714D01*
X181752952Y-143375238D02*
X180932952Y-143375238D01*
X180932952Y-143180000D01*
X180972000Y-143062857D01*
X181050095Y-142984761D01*
X181128190Y-142945714D01*
X181284380Y-142906666D01*
X181401523Y-142906666D01*
X181557714Y-142945714D01*
X181635809Y-142984761D01*
X181713904Y-143062857D01*
X181752952Y-143180000D01*
X181752952Y-143375238D01*
X183432952Y-145763333D02*
X184252952Y-145490000D01*
X183432952Y-145216666D01*
X184252952Y-144943333D02*
X183432952Y-144943333D01*
X183432952Y-144748095D01*
X183472000Y-144630952D01*
X183550095Y-144552857D01*
X183628190Y-144513809D01*
X183784380Y-144474761D01*
X183901523Y-144474761D01*
X184057714Y-144513809D01*
X184135809Y-144552857D01*
X184213904Y-144630952D01*
X184252952Y-144748095D01*
X184252952Y-144943333D01*
X184252952Y-144123333D02*
X183432952Y-144123333D01*
X183432952Y-143928095D01*
X183472000Y-143810952D01*
X183550095Y-143732857D01*
X183628190Y-143693809D01*
X183784380Y-143654761D01*
X183901523Y-143654761D01*
X184057714Y-143693809D01*
X184135809Y-143732857D01*
X184213904Y-143810952D01*
X184252952Y-143928095D01*
X184252952Y-144123333D01*
X184252952Y-143303333D02*
X183432952Y-143303333D01*
X183432952Y-143108095D01*
X183472000Y-142990952D01*
X183550095Y-142912857D01*
X183628190Y-142873809D01*
X183784380Y-142834761D01*
X183901523Y-142834761D01*
X184057714Y-142873809D01*
X184135809Y-142912857D01*
X184213904Y-142990952D01*
X184252952Y-143108095D01*
X184252952Y-143303333D01*
X167788238Y-122632904D02*
X167905380Y-122671952D01*
X168100619Y-122671952D01*
X168178714Y-122632904D01*
X168217761Y-122593857D01*
X168256809Y-122515761D01*
X168256809Y-122437666D01*
X168217761Y-122359571D01*
X168178714Y-122320523D01*
X168100619Y-122281476D01*
X167944428Y-122242428D01*
X167866333Y-122203380D01*
X167827285Y-122164333D01*
X167788238Y-122086238D01*
X167788238Y-122008142D01*
X167827285Y-121930047D01*
X167866333Y-121891000D01*
X167944428Y-121851952D01*
X168139666Y-121851952D01*
X168256809Y-121891000D01*
X168530142Y-121851952D02*
X168725380Y-122671952D01*
X168881571Y-122086238D01*
X169037761Y-122671952D01*
X169233000Y-121851952D01*
X169545380Y-122671952D02*
X169545380Y-121851952D01*
X169740619Y-121851952D01*
X169857761Y-121891000D01*
X169935857Y-121969095D01*
X169974904Y-122047190D01*
X170013952Y-122203380D01*
X170013952Y-122320523D01*
X169974904Y-122476714D01*
X169935857Y-122554809D01*
X169857761Y-122632904D01*
X169740619Y-122671952D01*
X169545380Y-122671952D01*
X170833952Y-122593857D02*
X170794904Y-122632904D01*
X170677761Y-122671952D01*
X170599666Y-122671952D01*
X170482523Y-122632904D01*
X170404428Y-122554809D01*
X170365380Y-122476714D01*
X170326333Y-122320523D01*
X170326333Y-122203380D01*
X170365380Y-122047190D01*
X170404428Y-121969095D01*
X170482523Y-121891000D01*
X170599666Y-121851952D01*
X170677761Y-121851952D01*
X170794904Y-121891000D01*
X170833952Y-121930047D01*
X171575857Y-122671952D02*
X171185380Y-122671952D01*
X171185380Y-121851952D01*
X171849190Y-122671952D02*
X171849190Y-121851952D01*
X172317761Y-122671952D02*
X171966333Y-122203380D01*
X172317761Y-121851952D02*
X171849190Y-122320523D01*
X167807380Y-125231904D02*
X167924523Y-125270952D01*
X168119761Y-125270952D01*
X168197857Y-125231904D01*
X168236904Y-125192857D01*
X168275952Y-125114761D01*
X168275952Y-125036666D01*
X168236904Y-124958571D01*
X168197857Y-124919523D01*
X168119761Y-124880476D01*
X167963571Y-124841428D01*
X167885476Y-124802380D01*
X167846428Y-124763333D01*
X167807380Y-124685238D01*
X167807380Y-124607142D01*
X167846428Y-124529047D01*
X167885476Y-124490000D01*
X167963571Y-124450952D01*
X168158809Y-124450952D01*
X168275952Y-124490000D01*
X168549285Y-124450952D02*
X168744523Y-125270952D01*
X168900714Y-124685238D01*
X169056904Y-125270952D01*
X169252142Y-124450952D01*
X169564523Y-125270952D02*
X169564523Y-124450952D01*
X169759761Y-124450952D01*
X169876904Y-124490000D01*
X169955000Y-124568095D01*
X169994047Y-124646190D01*
X170033095Y-124802380D01*
X170033095Y-124919523D01*
X169994047Y-125075714D01*
X169955000Y-125153809D01*
X169876904Y-125231904D01*
X169759761Y-125270952D01*
X169564523Y-125270952D01*
X170384523Y-125270952D02*
X170384523Y-124450952D01*
X170931190Y-124450952D02*
X171087380Y-124450952D01*
X171165476Y-124490000D01*
X171243571Y-124568095D01*
X171282619Y-124724285D01*
X171282619Y-124997619D01*
X171243571Y-125153809D01*
X171165476Y-125231904D01*
X171087380Y-125270952D01*
X170931190Y-125270952D01*
X170853095Y-125231904D01*
X170775000Y-125153809D01*
X170735952Y-124997619D01*
X170735952Y-124724285D01*
X170775000Y-124568095D01*
X170853095Y-124490000D01*
X170931190Y-124450952D01*
X167855238Y-119450952D02*
X168401904Y-120270952D01*
X168401904Y-119450952D02*
X167855238Y-120270952D01*
X169182857Y-120270952D02*
X168909523Y-119880476D01*
X168714285Y-120270952D02*
X168714285Y-119450952D01*
X169026666Y-119450952D01*
X169104761Y-119490000D01*
X169143809Y-119529047D01*
X169182857Y-119607142D01*
X169182857Y-119724285D01*
X169143809Y-119802380D01*
X169104761Y-119841428D01*
X169026666Y-119880476D01*
X168714285Y-119880476D01*
X169534285Y-119841428D02*
X169807619Y-119841428D01*
X169924761Y-120270952D02*
X169534285Y-120270952D01*
X169534285Y-119450952D01*
X169924761Y-119450952D01*
X170237142Y-120231904D02*
X170354285Y-120270952D01*
X170549523Y-120270952D01*
X170627619Y-120231904D01*
X170666666Y-120192857D01*
X170705714Y-120114761D01*
X170705714Y-120036666D01*
X170666666Y-119958571D01*
X170627619Y-119919523D01*
X170549523Y-119880476D01*
X170393333Y-119841428D01*
X170315238Y-119802380D01*
X170276190Y-119763333D01*
X170237142Y-119685238D01*
X170237142Y-119607142D01*
X170276190Y-119529047D01*
X170315238Y-119490000D01*
X170393333Y-119450952D01*
X170588571Y-119450952D01*
X170705714Y-119490000D01*
X168375238Y-116890000D02*
X168297142Y-116850952D01*
X168180000Y-116850952D01*
X168062857Y-116890000D01*
X167984761Y-116968095D01*
X167945714Y-117046190D01*
X167906666Y-117202380D01*
X167906666Y-117319523D01*
X167945714Y-117475714D01*
X167984761Y-117553809D01*
X168062857Y-117631904D01*
X168180000Y-117670952D01*
X168258095Y-117670952D01*
X168375238Y-117631904D01*
X168414285Y-117592857D01*
X168414285Y-117319523D01*
X168258095Y-117319523D01*
X168765714Y-117670952D02*
X168765714Y-116850952D01*
X169234285Y-117670952D01*
X169234285Y-116850952D01*
X169624761Y-117670952D02*
X169624761Y-116850952D01*
X169820000Y-116850952D01*
X169937142Y-116890000D01*
X170015238Y-116968095D01*
X170054285Y-117046190D01*
X170093333Y-117202380D01*
X170093333Y-117319523D01*
X170054285Y-117475714D01*
X170015238Y-117553809D01*
X169937142Y-117631904D01*
X169820000Y-117670952D01*
X169624761Y-117670952D01*
X167996666Y-114350952D02*
X168270000Y-115170952D01*
X168543333Y-114350952D01*
X168816666Y-115170952D02*
X168816666Y-114350952D01*
X169011904Y-114350952D01*
X169129047Y-114390000D01*
X169207142Y-114468095D01*
X169246190Y-114546190D01*
X169285238Y-114702380D01*
X169285238Y-114819523D01*
X169246190Y-114975714D01*
X169207142Y-115053809D01*
X169129047Y-115131904D01*
X169011904Y-115170952D01*
X168816666Y-115170952D01*
X169636666Y-115170952D02*
X169636666Y-114350952D01*
X169831904Y-114350952D01*
X169949047Y-114390000D01*
X170027142Y-114468095D01*
X170066190Y-114546190D01*
X170105238Y-114702380D01*
X170105238Y-114819523D01*
X170066190Y-114975714D01*
X170027142Y-115053809D01*
X169949047Y-115131904D01*
X169831904Y-115170952D01*
X169636666Y-115170952D01*
X170456666Y-115170952D02*
X170456666Y-114350952D01*
X170651904Y-114350952D01*
X170769047Y-114390000D01*
X170847142Y-114468095D01*
X170886190Y-114546190D01*
X170925238Y-114702380D01*
X170925238Y-114819523D01*
X170886190Y-114975714D01*
X170847142Y-115053809D01*
X170769047Y-115131904D01*
X170651904Y-115170952D01*
X170456666Y-115170952D01*
X155196666Y-114250952D02*
X155470000Y-115070952D01*
X155743333Y-114250952D01*
X156016666Y-115070952D02*
X156016666Y-114250952D01*
X156211904Y-114250952D01*
X156329047Y-114290000D01*
X156407142Y-114368095D01*
X156446190Y-114446190D01*
X156485238Y-114602380D01*
X156485238Y-114719523D01*
X156446190Y-114875714D01*
X156407142Y-114953809D01*
X156329047Y-115031904D01*
X156211904Y-115070952D01*
X156016666Y-115070952D01*
X156836666Y-115070952D02*
X156836666Y-114250952D01*
X157031904Y-114250952D01*
X157149047Y-114290000D01*
X157227142Y-114368095D01*
X157266190Y-114446190D01*
X157305238Y-114602380D01*
X157305238Y-114719523D01*
X157266190Y-114875714D01*
X157227142Y-114953809D01*
X157149047Y-115031904D01*
X157031904Y-115070952D01*
X156836666Y-115070952D01*
X157656666Y-115070952D02*
X157656666Y-114250952D01*
X157851904Y-114250952D01*
X157969047Y-114290000D01*
X158047142Y-114368095D01*
X158086190Y-114446190D01*
X158125238Y-114602380D01*
X158125238Y-114719523D01*
X158086190Y-114875714D01*
X158047142Y-114953809D01*
X157969047Y-115031904D01*
X157851904Y-115070952D01*
X157656666Y-115070952D01*
X156375238Y-116890000D02*
X156297142Y-116850952D01*
X156180000Y-116850952D01*
X156062857Y-116890000D01*
X155984761Y-116968095D01*
X155945714Y-117046190D01*
X155906666Y-117202380D01*
X155906666Y-117319523D01*
X155945714Y-117475714D01*
X155984761Y-117553809D01*
X156062857Y-117631904D01*
X156180000Y-117670952D01*
X156258095Y-117670952D01*
X156375238Y-117631904D01*
X156414285Y-117592857D01*
X156414285Y-117319523D01*
X156258095Y-117319523D01*
X156765714Y-117670952D02*
X156765714Y-116850952D01*
X157234285Y-117670952D01*
X157234285Y-116850952D01*
X157624761Y-117670952D02*
X157624761Y-116850952D01*
X157820000Y-116850952D01*
X157937142Y-116890000D01*
X158015238Y-116968095D01*
X158054285Y-117046190D01*
X158093333Y-117202380D01*
X158093333Y-117319523D01*
X158054285Y-117475714D01*
X158015238Y-117553809D01*
X157937142Y-117631904D01*
X157820000Y-117670952D01*
X157624761Y-117670952D01*
X155155238Y-119450952D02*
X155701904Y-120270952D01*
X155701904Y-119450952D02*
X155155238Y-120270952D01*
X156482857Y-120270952D02*
X156209523Y-119880476D01*
X156014285Y-120270952D02*
X156014285Y-119450952D01*
X156326666Y-119450952D01*
X156404761Y-119490000D01*
X156443809Y-119529047D01*
X156482857Y-119607142D01*
X156482857Y-119724285D01*
X156443809Y-119802380D01*
X156404761Y-119841428D01*
X156326666Y-119880476D01*
X156014285Y-119880476D01*
X156834285Y-119841428D02*
X157107619Y-119841428D01*
X157224761Y-120270952D02*
X156834285Y-120270952D01*
X156834285Y-119450952D01*
X157224761Y-119450952D01*
X157537142Y-120231904D02*
X157654285Y-120270952D01*
X157849523Y-120270952D01*
X157927619Y-120231904D01*
X157966666Y-120192857D01*
X158005714Y-120114761D01*
X158005714Y-120036666D01*
X157966666Y-119958571D01*
X157927619Y-119919523D01*
X157849523Y-119880476D01*
X157693333Y-119841428D01*
X157615238Y-119802380D01*
X157576190Y-119763333D01*
X157537142Y-119685238D01*
X157537142Y-119607142D01*
X157576190Y-119529047D01*
X157615238Y-119490000D01*
X157693333Y-119450952D01*
X157888571Y-119450952D01*
X158005714Y-119490000D01*
X154472380Y-125131904D02*
X154589523Y-125170952D01*
X154784761Y-125170952D01*
X154862857Y-125131904D01*
X154901904Y-125092857D01*
X154940952Y-125014761D01*
X154940952Y-124936666D01*
X154901904Y-124858571D01*
X154862857Y-124819523D01*
X154784761Y-124780476D01*
X154628571Y-124741428D01*
X154550476Y-124702380D01*
X154511428Y-124663333D01*
X154472380Y-124585238D01*
X154472380Y-124507142D01*
X154511428Y-124429047D01*
X154550476Y-124390000D01*
X154628571Y-124350952D01*
X154823809Y-124350952D01*
X154940952Y-124390000D01*
X155214285Y-124350952D02*
X155409523Y-125170952D01*
X155565714Y-124585238D01*
X155721904Y-125170952D01*
X155917142Y-124350952D01*
X156229523Y-125170952D02*
X156229523Y-124350952D01*
X156424761Y-124350952D01*
X156541904Y-124390000D01*
X156620000Y-124468095D01*
X156659047Y-124546190D01*
X156698095Y-124702380D01*
X156698095Y-124819523D01*
X156659047Y-124975714D01*
X156620000Y-125053809D01*
X156541904Y-125131904D01*
X156424761Y-125170952D01*
X156229523Y-125170952D01*
X157049523Y-125170952D02*
X157049523Y-124350952D01*
X157596190Y-124350952D02*
X157752380Y-124350952D01*
X157830476Y-124390000D01*
X157908571Y-124468095D01*
X157947619Y-124624285D01*
X157947619Y-124897619D01*
X157908571Y-125053809D01*
X157830476Y-125131904D01*
X157752380Y-125170952D01*
X157596190Y-125170952D01*
X157518095Y-125131904D01*
X157440000Y-125053809D01*
X157400952Y-124897619D01*
X157400952Y-124624285D01*
X157440000Y-124468095D01*
X157518095Y-124390000D01*
X157596190Y-124350952D01*
X153437238Y-122631904D02*
X153554380Y-122670952D01*
X153749619Y-122670952D01*
X153827714Y-122631904D01*
X153866761Y-122592857D01*
X153905809Y-122514761D01*
X153905809Y-122436666D01*
X153866761Y-122358571D01*
X153827714Y-122319523D01*
X153749619Y-122280476D01*
X153593428Y-122241428D01*
X153515333Y-122202380D01*
X153476285Y-122163333D01*
X153437238Y-122085238D01*
X153437238Y-122007142D01*
X153476285Y-121929047D01*
X153515333Y-121890000D01*
X153593428Y-121850952D01*
X153788666Y-121850952D01*
X153905809Y-121890000D01*
X154179142Y-121850952D02*
X154374380Y-122670952D01*
X154530571Y-122085238D01*
X154686761Y-122670952D01*
X154882000Y-121850952D01*
X155194380Y-122670952D02*
X155194380Y-121850952D01*
X155389619Y-121850952D01*
X155506761Y-121890000D01*
X155584857Y-121968095D01*
X155623904Y-122046190D01*
X155662952Y-122202380D01*
X155662952Y-122319523D01*
X155623904Y-122475714D01*
X155584857Y-122553809D01*
X155506761Y-122631904D01*
X155389619Y-122670952D01*
X155194380Y-122670952D01*
X156482952Y-122592857D02*
X156443904Y-122631904D01*
X156326761Y-122670952D01*
X156248666Y-122670952D01*
X156131523Y-122631904D01*
X156053428Y-122553809D01*
X156014380Y-122475714D01*
X155975333Y-122319523D01*
X155975333Y-122202380D01*
X156014380Y-122046190D01*
X156053428Y-121968095D01*
X156131523Y-121890000D01*
X156248666Y-121850952D01*
X156326761Y-121850952D01*
X156443904Y-121890000D01*
X156482952Y-121929047D01*
X157224857Y-122670952D02*
X156834380Y-122670952D01*
X156834380Y-121850952D01*
X157498190Y-122670952D02*
X157498190Y-121850952D01*
X157966761Y-122670952D02*
X157615333Y-122202380D01*
X157966761Y-121850952D02*
X157498190Y-122319523D01*
D14*
G04 #@! TO.C,C5*
X229990000Y-125337221D02*
X229990000Y-125662779D01*
X231010000Y-125337221D02*
X231010000Y-125662779D01*
G04 #@! TO.C,C6*
X248010000Y-125337221D02*
X248010000Y-125662779D01*
X246990000Y-125337221D02*
X246990000Y-125662779D01*
G04 #@! TO.C,C8*
X231010000Y-144662779D02*
X231010000Y-144337221D01*
X229990000Y-144662779D02*
X229990000Y-144337221D01*
G04 #@! TO.C,C9*
X253087221Y-133990000D02*
X253412779Y-133990000D01*
X253087221Y-135010000D02*
X253412779Y-135010000D01*
G04 #@! TO.C,C10*
X256337221Y-135010000D02*
X256662779Y-135010000D01*
X256337221Y-133990000D02*
X256662779Y-133990000D01*
G04 #@! TO.C,C11*
X253087221Y-131510000D02*
X253412779Y-131510000D01*
X253087221Y-130490000D02*
X253412779Y-130490000D01*
G04 #@! TO.C,C12*
X256337221Y-130490000D02*
X256662779Y-130490000D01*
X256337221Y-131510000D02*
X256662779Y-131510000D01*
G04 #@! TO.C,C13*
X253087221Y-126990000D02*
X253412779Y-126990000D01*
X253087221Y-128010000D02*
X253412779Y-128010000D01*
G04 #@! TO.C,C14*
X256337221Y-128010000D02*
X256662779Y-128010000D01*
X256337221Y-126990000D02*
X256662779Y-126990000D01*
G04 #@! TO.C,C15*
X247490000Y-147337221D02*
X247490000Y-147662779D01*
X248510000Y-147337221D02*
X248510000Y-147662779D01*
G04 #@! TO.C,C16*
X210532221Y-76325000D02*
X210857779Y-76325000D01*
X210532221Y-77345000D02*
X210857779Y-77345000D01*
G04 #@! TO.C,C17*
X207167221Y-76325000D02*
X207492779Y-76325000D01*
X207167221Y-77345000D02*
X207492779Y-77345000D01*
G04 #@! TO.C,C18*
X203672221Y-77345000D02*
X203997779Y-77345000D01*
X203672221Y-76325000D02*
X203997779Y-76325000D01*
G04 #@! TO.C,C19*
X202762221Y-119505000D02*
X203087779Y-119505000D01*
X202762221Y-120525000D02*
X203087779Y-120525000D01*
G04 #@! TO.C,C20*
X206262221Y-120525000D02*
X206587779Y-120525000D01*
X206262221Y-119505000D02*
X206587779Y-119505000D01*
G04 #@! TO.C,C21*
X209762221Y-119505000D02*
X210087779Y-119505000D01*
X209762221Y-120525000D02*
X210087779Y-120525000D01*
G04 #@! TO.C,C22*
X245510000Y-147337221D02*
X245510000Y-147662779D01*
X244490000Y-147337221D02*
X244490000Y-147662779D01*
G04 #@! TO.C,C23*
X210532221Y-80520000D02*
X210857779Y-80520000D01*
X210532221Y-79500000D02*
X210857779Y-79500000D01*
G04 #@! TO.C,C24*
X207167221Y-80520000D02*
X207492779Y-80520000D01*
X207167221Y-79500000D02*
X207492779Y-79500000D01*
G04 #@! TO.C,C25*
X203667221Y-79500000D02*
X203992779Y-79500000D01*
X203667221Y-80520000D02*
X203992779Y-80520000D01*
G04 #@! TO.C,C26*
X202762221Y-123700000D02*
X203087779Y-123700000D01*
X202762221Y-122680000D02*
X203087779Y-122680000D01*
G04 #@! TO.C,C27*
X206262221Y-122680000D02*
X206587779Y-122680000D01*
X206262221Y-123700000D02*
X206587779Y-123700000D01*
G04 #@! TO.C,C28*
X209762221Y-123700000D02*
X210087779Y-123700000D01*
X209762221Y-122680000D02*
X210087779Y-122680000D01*
G04 #@! TO.C,C29*
X241490000Y-147337221D02*
X241490000Y-147662779D01*
X242510000Y-147337221D02*
X242510000Y-147662779D01*
G04 #@! TO.C,C30*
X210532221Y-82675000D02*
X210857779Y-82675000D01*
X210532221Y-83695000D02*
X210857779Y-83695000D01*
G04 #@! TO.C,C31*
X207167221Y-82675000D02*
X207492779Y-82675000D01*
X207167221Y-83695000D02*
X207492779Y-83695000D01*
G04 #@! TO.C,C32*
X203667221Y-82675000D02*
X203992779Y-82675000D01*
X203667221Y-83695000D02*
X203992779Y-83695000D01*
G04 #@! TO.C,C33*
X202762221Y-125855000D02*
X203087779Y-125855000D01*
X202762221Y-126875000D02*
X203087779Y-126875000D01*
G04 #@! TO.C,C34*
X206262221Y-126875000D02*
X206587779Y-126875000D01*
X206262221Y-125855000D02*
X206587779Y-125855000D01*
G04 #@! TO.C,C35*
X209762221Y-125855000D02*
X210087779Y-125855000D01*
X209762221Y-126875000D02*
X210087779Y-126875000D01*
G04 #@! TO.C,C36*
X244452000Y-123161779D02*
X244452000Y-122836221D01*
X245472000Y-123161779D02*
X245472000Y-122836221D01*
G04 #@! TO.C,C37*
X241972000Y-119661779D02*
X241972000Y-119336221D01*
X240952000Y-119661779D02*
X240952000Y-119336221D01*
G04 #@! TO.C,C38*
X241972000Y-123161779D02*
X241972000Y-122836221D01*
X240952000Y-123161779D02*
X240952000Y-122836221D01*
G04 #@! TO.C,C39*
X237452000Y-119661779D02*
X237452000Y-119336221D01*
X238472000Y-119661779D02*
X238472000Y-119336221D01*
G04 #@! TO.C,C40*
X237452000Y-123161779D02*
X237452000Y-122836221D01*
X238472000Y-123161779D02*
X238472000Y-122836221D01*
G04 #@! TO.C,C41*
X234972000Y-119661779D02*
X234972000Y-119336221D01*
X233952000Y-119661779D02*
X233952000Y-119336221D01*
G04 #@! TO.C,C42*
X188337221Y-126875000D02*
X188662779Y-126875000D01*
X188337221Y-125855000D02*
X188662779Y-125855000D01*
G04 #@! TO.C,C43*
X195337221Y-125855000D02*
X195662779Y-125855000D01*
X195337221Y-126875000D02*
X195662779Y-126875000D01*
G04 #@! TO.C,C44*
X191837221Y-126875000D02*
X192162779Y-126875000D01*
X191837221Y-125855000D02*
X192162779Y-125855000D01*
G04 #@! TO.C,C45*
X188337221Y-122680000D02*
X188662779Y-122680000D01*
X188337221Y-123700000D02*
X188662779Y-123700000D01*
G04 #@! TO.C,C46*
X195337221Y-123700000D02*
X195662779Y-123700000D01*
X195337221Y-122680000D02*
X195662779Y-122680000D01*
G04 #@! TO.C,C47*
X191837221Y-122680000D02*
X192162779Y-122680000D01*
X191837221Y-123700000D02*
X192162779Y-123700000D01*
G04 #@! TO.C,C48*
X192337221Y-83695000D02*
X192662779Y-83695000D01*
X192337221Y-82675000D02*
X192662779Y-82675000D01*
G04 #@! TO.C,C49*
X195837221Y-83695000D02*
X196162779Y-83695000D01*
X195837221Y-82675000D02*
X196162779Y-82675000D01*
G04 #@! TO.C,C50*
X188837221Y-83695000D02*
X189162779Y-83695000D01*
X188837221Y-82675000D02*
X189162779Y-82675000D01*
G04 #@! TO.C,C51*
X188337221Y-120525000D02*
X188662779Y-120525000D01*
X188337221Y-119505000D02*
X188662779Y-119505000D01*
G04 #@! TO.C,C52*
X195337221Y-119505000D02*
X195662779Y-119505000D01*
X195337221Y-120525000D02*
X195662779Y-120525000D01*
G04 #@! TO.C,C53*
X191837221Y-120510000D02*
X192162779Y-120510000D01*
X191837221Y-119490000D02*
X192162779Y-119490000D01*
G04 #@! TO.C,C54*
X192337221Y-80520000D02*
X192662779Y-80520000D01*
X192337221Y-79500000D02*
X192662779Y-79500000D01*
G04 #@! TO.C,C55*
X195837221Y-79500000D02*
X196162779Y-79500000D01*
X195837221Y-80520000D02*
X196162779Y-80520000D01*
G04 #@! TO.C,C56*
X188837221Y-79500000D02*
X189162779Y-79500000D01*
X188837221Y-80520000D02*
X189162779Y-80520000D01*
G04 #@! TO.C,C57*
X192337221Y-76325000D02*
X192662779Y-76325000D01*
X192337221Y-77345000D02*
X192662779Y-77345000D01*
G04 #@! TO.C,C58*
X195837221Y-77345000D02*
X196162779Y-77345000D01*
X195837221Y-76325000D02*
X196162779Y-76325000D01*
G04 #@! TO.C,C59*
X188837221Y-77345000D02*
X189162779Y-77345000D01*
X188837221Y-76325000D02*
X189162779Y-76325000D01*
G04 #@! TO.C,FB1*
X252162779Y-145735000D02*
X251837221Y-145735000D01*
X252162779Y-146755000D02*
X251837221Y-146755000D01*
G04 #@! TO.C,FB2*
X207492779Y-73150000D02*
X207167221Y-73150000D01*
X207492779Y-74170000D02*
X207167221Y-74170000D01*
G04 #@! TO.C,FB3*
X206212221Y-117350000D02*
X206537779Y-117350000D01*
X206212221Y-116330000D02*
X206537779Y-116330000D01*
G04 #@! TO.C,FB4*
X233990000Y-123162779D02*
X233990000Y-122837221D01*
X235010000Y-123162779D02*
X235010000Y-122837221D01*
G04 #@! TO.C,FB5*
X191837221Y-116330000D02*
X192162779Y-116330000D01*
X191837221Y-117350000D02*
X192162779Y-117350000D01*
G04 #@! TO.C,FB6*
X192337221Y-73150000D02*
X192662779Y-73150000D01*
X192337221Y-74170000D02*
X192662779Y-74170000D01*
G04 #@! TO.C,R1*
X175732221Y-99185000D02*
X176057779Y-99185000D01*
X175732221Y-100205000D02*
X176057779Y-100205000D01*
G04 #@! TO.C,R2*
X171922221Y-100205000D02*
X172247779Y-100205000D01*
X171922221Y-99185000D02*
X172247779Y-99185000D01*
G04 #@! TO.C,R3*
X251837221Y-141735000D02*
X252162779Y-141735000D01*
X251837221Y-142755000D02*
X252162779Y-142755000D01*
G04 #@! TO.C,R4*
X251837221Y-144755000D02*
X252162779Y-144755000D01*
X251837221Y-143735000D02*
X252162779Y-143735000D01*
G04 #@! TO.C,R5*
X227010000Y-132450279D02*
X227010000Y-132124721D01*
X225990000Y-132450279D02*
X225990000Y-132124721D01*
G04 #@! TO.C,R6*
X224010000Y-132450279D02*
X224010000Y-132124721D01*
X222990000Y-132450279D02*
X222990000Y-132124721D01*
G04 #@! TO.C,R7*
X221010000Y-132049721D02*
X221010000Y-132375279D01*
X219990000Y-132049721D02*
X219990000Y-132375279D01*
G04 #@! TO.C,R8*
X235037221Y-146010000D02*
X235362779Y-146010000D01*
X235037221Y-144990000D02*
X235362779Y-144990000D01*
G04 #@! TO.C,R15*
X171722000Y-142592779D02*
X171722000Y-142267221D01*
X172742000Y-142592779D02*
X172742000Y-142267221D01*
G04 #@! TO.C,R16*
X172742000Y-138592779D02*
X172742000Y-138267221D01*
X171722000Y-138592779D02*
X171722000Y-138267221D01*
G04 #@! TO.C,CPU1*
X231890000Y-141410000D02*
X231890000Y-142110000D01*
X231890000Y-142110000D02*
X232590000Y-142110000D01*
X231890000Y-128590000D02*
X231890000Y-127890000D01*
X231890000Y-127890000D02*
X232590000Y-127890000D01*
X246110000Y-128590000D02*
X246110000Y-127890000D01*
X246110000Y-127890000D02*
X245410000Y-127890000D01*
X246110000Y-141410000D02*
X246110000Y-142110000D01*
X246110000Y-142110000D02*
X245410000Y-142110000D01*
X232590000Y-142110000D02*
X232590000Y-143400000D01*
D11*
G04 #@! TO.C,USB1*
X259925000Y-148695000D02*
X259925000Y-148945000D01*
X259925000Y-138845000D02*
X259925000Y-138595000D01*
X259925000Y-148145000D02*
X259925000Y-148395000D01*
X259925000Y-139395000D02*
X259925000Y-139145000D01*
X254725000Y-147745000D02*
X254725000Y-139745000D01*
X259875000Y-147745000D02*
X259475000Y-147745000D01*
X259875000Y-139745000D02*
X259475000Y-139745000D01*
X259925000Y-147745000D02*
X259925000Y-139745000D01*
G04 #@! TO.C,SOCKET1*
X186525000Y-88430000D02*
G75*
G03X186525000Y-88430000I-500000J0D01*
G01*
X184525000Y-115430000D02*
X189525000Y-115430000D01*
X184525000Y-115430000D02*
X184525000Y-110430000D01*
X215525000Y-115430000D02*
X210525000Y-115430000D01*
X215525000Y-115430000D02*
X215525000Y-110430000D01*
X215525000Y-84430000D02*
X210525000Y-84430000D01*
X215525000Y-84430000D02*
X215525000Y-89430000D01*
X184525000Y-84430000D02*
X184525000Y-89430000D01*
X184525000Y-84430000D02*
X190025000Y-84430000D01*
G04 #@! TO.C,MUX1*
X217375000Y-77875000D02*
X217375000Y-78300000D01*
X224625000Y-77875000D02*
X224625000Y-78400000D01*
X224625000Y-85125000D02*
X224625000Y-84600000D01*
X217375000Y-85125000D02*
X217375000Y-84600000D01*
X217375000Y-77875000D02*
X217900000Y-77875000D01*
X217375000Y-85125000D02*
X217900000Y-85125000D01*
X224625000Y-85125000D02*
X224100000Y-85125000D01*
X224625000Y-77875000D02*
X224100000Y-77875000D01*
X217375000Y-78300000D02*
X216000000Y-78300000D01*
G04 #@! TO.C,MUX2*
X175375000Y-85625000D02*
X175800000Y-85625000D01*
X175375000Y-78375000D02*
X175900000Y-78375000D01*
X182625000Y-78375000D02*
X182100000Y-78375000D01*
X182625000Y-85625000D02*
X182100000Y-85625000D01*
X175375000Y-85625000D02*
X175375000Y-85100000D01*
X182625000Y-85625000D02*
X182625000Y-85100000D01*
X182625000Y-78375000D02*
X182625000Y-78900000D01*
X175375000Y-78375000D02*
X175375000Y-78900000D01*
X175800000Y-85625000D02*
X175800000Y-87000000D01*
G04 #@! TO.C,MUX3*
X224625000Y-114375000D02*
X224200000Y-114375000D01*
X224625000Y-121625000D02*
X224100000Y-121625000D01*
X217375000Y-121625000D02*
X217900000Y-121625000D01*
X217375000Y-114375000D02*
X217900000Y-114375000D01*
X224625000Y-114375000D02*
X224625000Y-114900000D01*
X217375000Y-114375000D02*
X217375000Y-114900000D01*
X217375000Y-121625000D02*
X217375000Y-121100000D01*
X224625000Y-121625000D02*
X224625000Y-121100000D01*
X224200000Y-114375000D02*
X224200000Y-113000000D01*
G04 #@! TO.C,MUX4*
X182625000Y-121625000D02*
X182625000Y-121200000D01*
X175375000Y-121625000D02*
X175375000Y-121100000D01*
X175375000Y-114375000D02*
X175375000Y-114900000D01*
X182625000Y-114375000D02*
X182625000Y-114900000D01*
X182625000Y-121625000D02*
X182100000Y-121625000D01*
X182625000Y-114375000D02*
X182100000Y-114375000D01*
X175375000Y-114375000D02*
X175900000Y-114375000D01*
X175375000Y-121625000D02*
X175900000Y-121625000D01*
X182625000Y-121200000D02*
X184000000Y-121200000D01*
D14*
G04 #@! TO.C,PROG1*
X165600000Y-126160000D02*
X160400000Y-126160000D01*
X165600000Y-113340000D02*
X160400000Y-113340000D01*
X167040000Y-125590000D02*
X165600000Y-125590000D01*
X165600000Y-126160000D02*
X165600000Y-125590000D01*
X160400000Y-126160000D02*
X160400000Y-125590000D01*
X165600000Y-113910000D02*
X165600000Y-113340000D01*
X160400000Y-113910000D02*
X160400000Y-113340000D01*
X165600000Y-124070000D02*
X165600000Y-123050000D01*
X160400000Y-124070000D02*
X160400000Y-123050000D01*
X165600000Y-121530000D02*
X165600000Y-120510000D01*
X160400000Y-121530000D02*
X160400000Y-120510000D01*
X165600000Y-118990000D02*
X165600000Y-117970000D01*
X160400000Y-118990000D02*
X160400000Y-117970000D01*
X165600000Y-116450000D02*
X165600000Y-115430000D01*
X160400000Y-116450000D02*
X160400000Y-115430000D01*
G04 #@! TO.C,OUT1*
X248830000Y-104760000D02*
X243630000Y-104760000D01*
X248830000Y-79240000D02*
X243630000Y-79240000D01*
X250270000Y-104190000D02*
X248830000Y-104190000D01*
X248830000Y-104760000D02*
X248830000Y-104190000D01*
X243630000Y-104760000D02*
X243630000Y-104190000D01*
X248830000Y-79810000D02*
X248830000Y-79240000D01*
X243630000Y-79810000D02*
X243630000Y-79240000D01*
X248830000Y-102670000D02*
X248830000Y-101650000D01*
X243630000Y-102670000D02*
X243630000Y-101650000D01*
X248830000Y-100130000D02*
X248830000Y-99110000D01*
X243630000Y-100130000D02*
X243630000Y-99110000D01*
X248830000Y-97590000D02*
X248830000Y-96570000D01*
X243630000Y-97590000D02*
X243630000Y-96570000D01*
X248830000Y-95050000D02*
X248830000Y-94030000D01*
X243630000Y-95050000D02*
X243630000Y-94030000D01*
X248830000Y-92510000D02*
X248830000Y-91490000D01*
X243630000Y-92510000D02*
X243630000Y-91490000D01*
X248830000Y-89970000D02*
X248830000Y-88950000D01*
X243630000Y-89970000D02*
X243630000Y-88950000D01*
X248830000Y-87430000D02*
X248830000Y-86410000D01*
X243630000Y-87430000D02*
X243630000Y-86410000D01*
X248830000Y-84890000D02*
X248830000Y-83870000D01*
X243630000Y-84890000D02*
X243630000Y-83870000D01*
X248830000Y-82350000D02*
X248830000Y-81330000D01*
X243630000Y-82350000D02*
X243630000Y-81330000D01*
G04 #@! TO.C,B1*
X182162000Y-135310000D02*
X183182000Y-135310000D01*
X182162000Y-140510000D02*
X183182000Y-140510000D01*
X179622000Y-135310000D02*
X180642000Y-135310000D01*
X179622000Y-140510000D02*
X180642000Y-140510000D01*
X177082000Y-135310000D02*
X178102000Y-135310000D01*
X177082000Y-140510000D02*
X178102000Y-140510000D01*
X184702000Y-135310000D02*
X185272000Y-135310000D01*
X184702000Y-140510000D02*
X185272000Y-140510000D01*
X174992000Y-135310000D02*
X175562000Y-135310000D01*
X174992000Y-140510000D02*
X175562000Y-140510000D01*
X175562000Y-141950000D02*
X175562000Y-140510000D01*
X185272000Y-140510000D02*
X185272000Y-135310000D01*
X174992000Y-140510000D02*
X174992000Y-135310000D01*
G04 #@! TO.C,PROG2*
X160400000Y-132270000D02*
X165600000Y-132270000D01*
X160400000Y-145090000D02*
X165600000Y-145090000D01*
X158960000Y-132840000D02*
X160400000Y-132840000D01*
X160400000Y-132270000D02*
X160400000Y-132840000D01*
X165600000Y-132270000D02*
X165600000Y-132840000D01*
X160400000Y-144520000D02*
X160400000Y-145090000D01*
X165600000Y-144520000D02*
X165600000Y-145090000D01*
X160400000Y-134360000D02*
X160400000Y-135380000D01*
X165600000Y-134360000D02*
X165600000Y-135380000D01*
X160400000Y-136900000D02*
X160400000Y-137920000D01*
X165600000Y-136900000D02*
X165600000Y-137920000D01*
X160400000Y-139440000D02*
X160400000Y-140460000D01*
X165600000Y-139440000D02*
X165600000Y-140460000D01*
X160400000Y-141980000D02*
X160400000Y-143000000D01*
X165600000Y-141980000D02*
X165600000Y-143000000D01*
G04 #@! TO.C,AMP1*
X225110000Y-137400000D02*
X225110000Y-135600000D01*
X221890000Y-135600000D02*
X221890000Y-138050000D01*
G04 #@! TO.C,C60*
X227010000Y-136337221D02*
X227010000Y-136662779D01*
X225990000Y-136337221D02*
X225990000Y-136662779D01*
G04 #@! TO.C,C5*
D11*
X232287142Y-125666666D02*
X232334761Y-125714285D01*
X232382380Y-125857142D01*
X232382380Y-125952380D01*
X232334761Y-126095238D01*
X232239523Y-126190476D01*
X232144285Y-126238095D01*
X231953809Y-126285714D01*
X231810952Y-126285714D01*
X231620476Y-126238095D01*
X231525238Y-126190476D01*
X231430000Y-126095238D01*
X231382380Y-125952380D01*
X231382380Y-125857142D01*
X231430000Y-125714285D01*
X231477619Y-125666666D01*
X231382380Y-124761904D02*
X231382380Y-125238095D01*
X231858571Y-125285714D01*
X231810952Y-125238095D01*
X231763333Y-125142857D01*
X231763333Y-124904761D01*
X231810952Y-124809523D01*
X231858571Y-124761904D01*
X231953809Y-124714285D01*
X232191904Y-124714285D01*
X232287142Y-124761904D01*
X232334761Y-124809523D01*
X232382380Y-124904761D01*
X232382380Y-125142857D01*
X232334761Y-125238095D01*
X232287142Y-125285714D01*
G04 #@! TO.C,C6*
X249287142Y-125666666D02*
X249334761Y-125714285D01*
X249382380Y-125857142D01*
X249382380Y-125952380D01*
X249334761Y-126095238D01*
X249239523Y-126190476D01*
X249144285Y-126238095D01*
X248953809Y-126285714D01*
X248810952Y-126285714D01*
X248620476Y-126238095D01*
X248525238Y-126190476D01*
X248430000Y-126095238D01*
X248382380Y-125952380D01*
X248382380Y-125857142D01*
X248430000Y-125714285D01*
X248477619Y-125666666D01*
X248382380Y-124809523D02*
X248382380Y-125000000D01*
X248430000Y-125095238D01*
X248477619Y-125142857D01*
X248620476Y-125238095D01*
X248810952Y-125285714D01*
X249191904Y-125285714D01*
X249287142Y-125238095D01*
X249334761Y-125190476D01*
X249382380Y-125095238D01*
X249382380Y-124904761D01*
X249334761Y-124809523D01*
X249287142Y-124761904D01*
X249191904Y-124714285D01*
X248953809Y-124714285D01*
X248858571Y-124761904D01*
X248810952Y-124809523D01*
X248763333Y-124904761D01*
X248763333Y-125095238D01*
X248810952Y-125190476D01*
X248858571Y-125238095D01*
X248953809Y-125285714D01*
G04 #@! TO.C,C8*
X229427142Y-144666666D02*
X229474761Y-144714285D01*
X229522380Y-144857142D01*
X229522380Y-144952380D01*
X229474761Y-145095238D01*
X229379523Y-145190476D01*
X229284285Y-145238095D01*
X229093809Y-145285714D01*
X228950952Y-145285714D01*
X228760476Y-145238095D01*
X228665238Y-145190476D01*
X228570000Y-145095238D01*
X228522380Y-144952380D01*
X228522380Y-144857142D01*
X228570000Y-144714285D01*
X228617619Y-144666666D01*
X228950952Y-144095238D02*
X228903333Y-144190476D01*
X228855714Y-144238095D01*
X228760476Y-144285714D01*
X228712857Y-144285714D01*
X228617619Y-144238095D01*
X228570000Y-144190476D01*
X228522380Y-144095238D01*
X228522380Y-143904761D01*
X228570000Y-143809523D01*
X228617619Y-143761904D01*
X228712857Y-143714285D01*
X228760476Y-143714285D01*
X228855714Y-143761904D01*
X228903333Y-143809523D01*
X228950952Y-143904761D01*
X228950952Y-144095238D01*
X228998571Y-144190476D01*
X229046190Y-144238095D01*
X229141428Y-144285714D01*
X229331904Y-144285714D01*
X229427142Y-144238095D01*
X229474761Y-144190476D01*
X229522380Y-144095238D01*
X229522380Y-143904761D01*
X229474761Y-143809523D01*
X229427142Y-143761904D01*
X229331904Y-143714285D01*
X229141428Y-143714285D01*
X229046190Y-143761904D01*
X228998571Y-143809523D01*
X228950952Y-143904761D01*
G04 #@! TO.C,C9*
X253083333Y-133427142D02*
X253035714Y-133474761D01*
X252892857Y-133522380D01*
X252797619Y-133522380D01*
X252654761Y-133474761D01*
X252559523Y-133379523D01*
X252511904Y-133284285D01*
X252464285Y-133093809D01*
X252464285Y-132950952D01*
X252511904Y-132760476D01*
X252559523Y-132665238D01*
X252654761Y-132570000D01*
X252797619Y-132522380D01*
X252892857Y-132522380D01*
X253035714Y-132570000D01*
X253083333Y-132617619D01*
X253559523Y-133522380D02*
X253750000Y-133522380D01*
X253845238Y-133474761D01*
X253892857Y-133427142D01*
X253988095Y-133284285D01*
X254035714Y-133093809D01*
X254035714Y-132712857D01*
X253988095Y-132617619D01*
X253940476Y-132570000D01*
X253845238Y-132522380D01*
X253654761Y-132522380D01*
X253559523Y-132570000D01*
X253511904Y-132617619D01*
X253464285Y-132712857D01*
X253464285Y-132950952D01*
X253511904Y-133046190D01*
X253559523Y-133093809D01*
X253654761Y-133141428D01*
X253845238Y-133141428D01*
X253940476Y-133093809D01*
X253988095Y-133046190D01*
X254035714Y-132950952D01*
G04 #@! TO.C,C10*
X255857142Y-133427142D02*
X255809523Y-133474761D01*
X255666666Y-133522380D01*
X255571428Y-133522380D01*
X255428571Y-133474761D01*
X255333333Y-133379523D01*
X255285714Y-133284285D01*
X255238095Y-133093809D01*
X255238095Y-132950952D01*
X255285714Y-132760476D01*
X255333333Y-132665238D01*
X255428571Y-132570000D01*
X255571428Y-132522380D01*
X255666666Y-132522380D01*
X255809523Y-132570000D01*
X255857142Y-132617619D01*
X256809523Y-133522380D02*
X256238095Y-133522380D01*
X256523809Y-133522380D02*
X256523809Y-132522380D01*
X256428571Y-132665238D01*
X256333333Y-132760476D01*
X256238095Y-132808095D01*
X257428571Y-132522380D02*
X257523809Y-132522380D01*
X257619047Y-132570000D01*
X257666666Y-132617619D01*
X257714285Y-132712857D01*
X257761904Y-132903333D01*
X257761904Y-133141428D01*
X257714285Y-133331904D01*
X257666666Y-133427142D01*
X257619047Y-133474761D01*
X257523809Y-133522380D01*
X257428571Y-133522380D01*
X257333333Y-133474761D01*
X257285714Y-133427142D01*
X257238095Y-133331904D01*
X257190476Y-133141428D01*
X257190476Y-132903333D01*
X257238095Y-132712857D01*
X257285714Y-132617619D01*
X257333333Y-132570000D01*
X257428571Y-132522380D01*
G04 #@! TO.C,C11*
X252607142Y-129927142D02*
X252559523Y-129974761D01*
X252416666Y-130022380D01*
X252321428Y-130022380D01*
X252178571Y-129974761D01*
X252083333Y-129879523D01*
X252035714Y-129784285D01*
X251988095Y-129593809D01*
X251988095Y-129450952D01*
X252035714Y-129260476D01*
X252083333Y-129165238D01*
X252178571Y-129070000D01*
X252321428Y-129022380D01*
X252416666Y-129022380D01*
X252559523Y-129070000D01*
X252607142Y-129117619D01*
X253559523Y-130022380D02*
X252988095Y-130022380D01*
X253273809Y-130022380D02*
X253273809Y-129022380D01*
X253178571Y-129165238D01*
X253083333Y-129260476D01*
X252988095Y-129308095D01*
X254511904Y-130022380D02*
X253940476Y-130022380D01*
X254226190Y-130022380D02*
X254226190Y-129022380D01*
X254130952Y-129165238D01*
X254035714Y-129260476D01*
X253940476Y-129308095D01*
G04 #@! TO.C,C12*
X255857142Y-129927142D02*
X255809523Y-129974761D01*
X255666666Y-130022380D01*
X255571428Y-130022380D01*
X255428571Y-129974761D01*
X255333333Y-129879523D01*
X255285714Y-129784285D01*
X255238095Y-129593809D01*
X255238095Y-129450952D01*
X255285714Y-129260476D01*
X255333333Y-129165238D01*
X255428571Y-129070000D01*
X255571428Y-129022380D01*
X255666666Y-129022380D01*
X255809523Y-129070000D01*
X255857142Y-129117619D01*
X256809523Y-130022380D02*
X256238095Y-130022380D01*
X256523809Y-130022380D02*
X256523809Y-129022380D01*
X256428571Y-129165238D01*
X256333333Y-129260476D01*
X256238095Y-129308095D01*
X257190476Y-129117619D02*
X257238095Y-129070000D01*
X257333333Y-129022380D01*
X257571428Y-129022380D01*
X257666666Y-129070000D01*
X257714285Y-129117619D01*
X257761904Y-129212857D01*
X257761904Y-129308095D01*
X257714285Y-129450952D01*
X257142857Y-130022380D01*
X257761904Y-130022380D01*
G04 #@! TO.C,C13*
X252607142Y-126427142D02*
X252559523Y-126474761D01*
X252416666Y-126522380D01*
X252321428Y-126522380D01*
X252178571Y-126474761D01*
X252083333Y-126379523D01*
X252035714Y-126284285D01*
X251988095Y-126093809D01*
X251988095Y-125950952D01*
X252035714Y-125760476D01*
X252083333Y-125665238D01*
X252178571Y-125570000D01*
X252321428Y-125522380D01*
X252416666Y-125522380D01*
X252559523Y-125570000D01*
X252607142Y-125617619D01*
X253559523Y-126522380D02*
X252988095Y-126522380D01*
X253273809Y-126522380D02*
X253273809Y-125522380D01*
X253178571Y-125665238D01*
X253083333Y-125760476D01*
X252988095Y-125808095D01*
X253892857Y-125522380D02*
X254511904Y-125522380D01*
X254178571Y-125903333D01*
X254321428Y-125903333D01*
X254416666Y-125950952D01*
X254464285Y-125998571D01*
X254511904Y-126093809D01*
X254511904Y-126331904D01*
X254464285Y-126427142D01*
X254416666Y-126474761D01*
X254321428Y-126522380D01*
X254035714Y-126522380D01*
X253940476Y-126474761D01*
X253892857Y-126427142D01*
G04 #@! TO.C,C14*
X255857142Y-126427142D02*
X255809523Y-126474761D01*
X255666666Y-126522380D01*
X255571428Y-126522380D01*
X255428571Y-126474761D01*
X255333333Y-126379523D01*
X255285714Y-126284285D01*
X255238095Y-126093809D01*
X255238095Y-125950952D01*
X255285714Y-125760476D01*
X255333333Y-125665238D01*
X255428571Y-125570000D01*
X255571428Y-125522380D01*
X255666666Y-125522380D01*
X255809523Y-125570000D01*
X255857142Y-125617619D01*
X256809523Y-126522380D02*
X256238095Y-126522380D01*
X256523809Y-126522380D02*
X256523809Y-125522380D01*
X256428571Y-125665238D01*
X256333333Y-125760476D01*
X256238095Y-125808095D01*
X257666666Y-125855714D02*
X257666666Y-126522380D01*
X257428571Y-125474761D02*
X257190476Y-126189047D01*
X257809523Y-126189047D01*
G04 #@! TO.C,C15*
X246927142Y-148142857D02*
X246974761Y-148190476D01*
X247022380Y-148333333D01*
X247022380Y-148428571D01*
X246974761Y-148571428D01*
X246879523Y-148666666D01*
X246784285Y-148714285D01*
X246593809Y-148761904D01*
X246450952Y-148761904D01*
X246260476Y-148714285D01*
X246165238Y-148666666D01*
X246070000Y-148571428D01*
X246022380Y-148428571D01*
X246022380Y-148333333D01*
X246070000Y-148190476D01*
X246117619Y-148142857D01*
X247022380Y-147190476D02*
X247022380Y-147761904D01*
X247022380Y-147476190D02*
X246022380Y-147476190D01*
X246165238Y-147571428D01*
X246260476Y-147666666D01*
X246308095Y-147761904D01*
X246022380Y-146285714D02*
X246022380Y-146761904D01*
X246498571Y-146809523D01*
X246450952Y-146761904D01*
X246403333Y-146666666D01*
X246403333Y-146428571D01*
X246450952Y-146333333D01*
X246498571Y-146285714D01*
X246593809Y-146238095D01*
X246831904Y-146238095D01*
X246927142Y-146285714D01*
X246974761Y-146333333D01*
X247022380Y-146428571D01*
X247022380Y-146666666D01*
X246974761Y-146761904D01*
X246927142Y-146809523D01*
G04 #@! TO.C,C16*
X210052142Y-75762142D02*
X210004523Y-75809761D01*
X209861666Y-75857380D01*
X209766428Y-75857380D01*
X209623571Y-75809761D01*
X209528333Y-75714523D01*
X209480714Y-75619285D01*
X209433095Y-75428809D01*
X209433095Y-75285952D01*
X209480714Y-75095476D01*
X209528333Y-75000238D01*
X209623571Y-74905000D01*
X209766428Y-74857380D01*
X209861666Y-74857380D01*
X210004523Y-74905000D01*
X210052142Y-74952619D01*
X211004523Y-75857380D02*
X210433095Y-75857380D01*
X210718809Y-75857380D02*
X210718809Y-74857380D01*
X210623571Y-75000238D01*
X210528333Y-75095476D01*
X210433095Y-75143095D01*
X211861666Y-74857380D02*
X211671190Y-74857380D01*
X211575952Y-74905000D01*
X211528333Y-74952619D01*
X211433095Y-75095476D01*
X211385476Y-75285952D01*
X211385476Y-75666904D01*
X211433095Y-75762142D01*
X211480714Y-75809761D01*
X211575952Y-75857380D01*
X211766428Y-75857380D01*
X211861666Y-75809761D01*
X211909285Y-75762142D01*
X211956904Y-75666904D01*
X211956904Y-75428809D01*
X211909285Y-75333571D01*
X211861666Y-75285952D01*
X211766428Y-75238333D01*
X211575952Y-75238333D01*
X211480714Y-75285952D01*
X211433095Y-75333571D01*
X211385476Y-75428809D01*
G04 #@! TO.C,C17*
X206687142Y-75762142D02*
X206639523Y-75809761D01*
X206496666Y-75857380D01*
X206401428Y-75857380D01*
X206258571Y-75809761D01*
X206163333Y-75714523D01*
X206115714Y-75619285D01*
X206068095Y-75428809D01*
X206068095Y-75285952D01*
X206115714Y-75095476D01*
X206163333Y-75000238D01*
X206258571Y-74905000D01*
X206401428Y-74857380D01*
X206496666Y-74857380D01*
X206639523Y-74905000D01*
X206687142Y-74952619D01*
X207639523Y-75857380D02*
X207068095Y-75857380D01*
X207353809Y-75857380D02*
X207353809Y-74857380D01*
X207258571Y-75000238D01*
X207163333Y-75095476D01*
X207068095Y-75143095D01*
X207972857Y-74857380D02*
X208639523Y-74857380D01*
X208210952Y-75857380D01*
G04 #@! TO.C,C18*
X203192142Y-75762142D02*
X203144523Y-75809761D01*
X203001666Y-75857380D01*
X202906428Y-75857380D01*
X202763571Y-75809761D01*
X202668333Y-75714523D01*
X202620714Y-75619285D01*
X202573095Y-75428809D01*
X202573095Y-75285952D01*
X202620714Y-75095476D01*
X202668333Y-75000238D01*
X202763571Y-74905000D01*
X202906428Y-74857380D01*
X203001666Y-74857380D01*
X203144523Y-74905000D01*
X203192142Y-74952619D01*
X204144523Y-75857380D02*
X203573095Y-75857380D01*
X203858809Y-75857380D02*
X203858809Y-74857380D01*
X203763571Y-75000238D01*
X203668333Y-75095476D01*
X203573095Y-75143095D01*
X204715952Y-75285952D02*
X204620714Y-75238333D01*
X204573095Y-75190714D01*
X204525476Y-75095476D01*
X204525476Y-75047857D01*
X204573095Y-74952619D01*
X204620714Y-74905000D01*
X204715952Y-74857380D01*
X204906428Y-74857380D01*
X205001666Y-74905000D01*
X205049285Y-74952619D01*
X205096904Y-75047857D01*
X205096904Y-75095476D01*
X205049285Y-75190714D01*
X205001666Y-75238333D01*
X204906428Y-75285952D01*
X204715952Y-75285952D01*
X204620714Y-75333571D01*
X204573095Y-75381190D01*
X204525476Y-75476428D01*
X204525476Y-75666904D01*
X204573095Y-75762142D01*
X204620714Y-75809761D01*
X204715952Y-75857380D01*
X204906428Y-75857380D01*
X205001666Y-75809761D01*
X205049285Y-75762142D01*
X205096904Y-75666904D01*
X205096904Y-75476428D01*
X205049285Y-75381190D01*
X205001666Y-75333571D01*
X204906428Y-75285952D01*
G04 #@! TO.C,C19*
X202282142Y-118942142D02*
X202234523Y-118989761D01*
X202091666Y-119037380D01*
X201996428Y-119037380D01*
X201853571Y-118989761D01*
X201758333Y-118894523D01*
X201710714Y-118799285D01*
X201663095Y-118608809D01*
X201663095Y-118465952D01*
X201710714Y-118275476D01*
X201758333Y-118180238D01*
X201853571Y-118085000D01*
X201996428Y-118037380D01*
X202091666Y-118037380D01*
X202234523Y-118085000D01*
X202282142Y-118132619D01*
X203234523Y-119037380D02*
X202663095Y-119037380D01*
X202948809Y-119037380D02*
X202948809Y-118037380D01*
X202853571Y-118180238D01*
X202758333Y-118275476D01*
X202663095Y-118323095D01*
X203710714Y-119037380D02*
X203901190Y-119037380D01*
X203996428Y-118989761D01*
X204044047Y-118942142D01*
X204139285Y-118799285D01*
X204186904Y-118608809D01*
X204186904Y-118227857D01*
X204139285Y-118132619D01*
X204091666Y-118085000D01*
X203996428Y-118037380D01*
X203805952Y-118037380D01*
X203710714Y-118085000D01*
X203663095Y-118132619D01*
X203615476Y-118227857D01*
X203615476Y-118465952D01*
X203663095Y-118561190D01*
X203710714Y-118608809D01*
X203805952Y-118656428D01*
X203996428Y-118656428D01*
X204091666Y-118608809D01*
X204139285Y-118561190D01*
X204186904Y-118465952D01*
G04 #@! TO.C,C20*
X205782142Y-118942142D02*
X205734523Y-118989761D01*
X205591666Y-119037380D01*
X205496428Y-119037380D01*
X205353571Y-118989761D01*
X205258333Y-118894523D01*
X205210714Y-118799285D01*
X205163095Y-118608809D01*
X205163095Y-118465952D01*
X205210714Y-118275476D01*
X205258333Y-118180238D01*
X205353571Y-118085000D01*
X205496428Y-118037380D01*
X205591666Y-118037380D01*
X205734523Y-118085000D01*
X205782142Y-118132619D01*
X206163095Y-118132619D02*
X206210714Y-118085000D01*
X206305952Y-118037380D01*
X206544047Y-118037380D01*
X206639285Y-118085000D01*
X206686904Y-118132619D01*
X206734523Y-118227857D01*
X206734523Y-118323095D01*
X206686904Y-118465952D01*
X206115476Y-119037380D01*
X206734523Y-119037380D01*
X207353571Y-118037380D02*
X207448809Y-118037380D01*
X207544047Y-118085000D01*
X207591666Y-118132619D01*
X207639285Y-118227857D01*
X207686904Y-118418333D01*
X207686904Y-118656428D01*
X207639285Y-118846904D01*
X207591666Y-118942142D01*
X207544047Y-118989761D01*
X207448809Y-119037380D01*
X207353571Y-119037380D01*
X207258333Y-118989761D01*
X207210714Y-118942142D01*
X207163095Y-118846904D01*
X207115476Y-118656428D01*
X207115476Y-118418333D01*
X207163095Y-118227857D01*
X207210714Y-118132619D01*
X207258333Y-118085000D01*
X207353571Y-118037380D01*
G04 #@! TO.C,C21*
X209282142Y-118942142D02*
X209234523Y-118989761D01*
X209091666Y-119037380D01*
X208996428Y-119037380D01*
X208853571Y-118989761D01*
X208758333Y-118894523D01*
X208710714Y-118799285D01*
X208663095Y-118608809D01*
X208663095Y-118465952D01*
X208710714Y-118275476D01*
X208758333Y-118180238D01*
X208853571Y-118085000D01*
X208996428Y-118037380D01*
X209091666Y-118037380D01*
X209234523Y-118085000D01*
X209282142Y-118132619D01*
X209663095Y-118132619D02*
X209710714Y-118085000D01*
X209805952Y-118037380D01*
X210044047Y-118037380D01*
X210139285Y-118085000D01*
X210186904Y-118132619D01*
X210234523Y-118227857D01*
X210234523Y-118323095D01*
X210186904Y-118465952D01*
X209615476Y-119037380D01*
X210234523Y-119037380D01*
X211186904Y-119037380D02*
X210615476Y-119037380D01*
X210901190Y-119037380D02*
X210901190Y-118037380D01*
X210805952Y-118180238D01*
X210710714Y-118275476D01*
X210615476Y-118323095D01*
G04 #@! TO.C,C22*
X243927142Y-148142857D02*
X243974761Y-148190476D01*
X244022380Y-148333333D01*
X244022380Y-148428571D01*
X243974761Y-148571428D01*
X243879523Y-148666666D01*
X243784285Y-148714285D01*
X243593809Y-148761904D01*
X243450952Y-148761904D01*
X243260476Y-148714285D01*
X243165238Y-148666666D01*
X243070000Y-148571428D01*
X243022380Y-148428571D01*
X243022380Y-148333333D01*
X243070000Y-148190476D01*
X243117619Y-148142857D01*
X243117619Y-147761904D02*
X243070000Y-147714285D01*
X243022380Y-147619047D01*
X243022380Y-147380952D01*
X243070000Y-147285714D01*
X243117619Y-147238095D01*
X243212857Y-147190476D01*
X243308095Y-147190476D01*
X243450952Y-147238095D01*
X244022380Y-147809523D01*
X244022380Y-147190476D01*
X243117619Y-146809523D02*
X243070000Y-146761904D01*
X243022380Y-146666666D01*
X243022380Y-146428571D01*
X243070000Y-146333333D01*
X243117619Y-146285714D01*
X243212857Y-146238095D01*
X243308095Y-146238095D01*
X243450952Y-146285714D01*
X244022380Y-146857142D01*
X244022380Y-146238095D01*
G04 #@! TO.C,C23*
X210052142Y-78937142D02*
X210004523Y-78984761D01*
X209861666Y-79032380D01*
X209766428Y-79032380D01*
X209623571Y-78984761D01*
X209528333Y-78889523D01*
X209480714Y-78794285D01*
X209433095Y-78603809D01*
X209433095Y-78460952D01*
X209480714Y-78270476D01*
X209528333Y-78175238D01*
X209623571Y-78080000D01*
X209766428Y-78032380D01*
X209861666Y-78032380D01*
X210004523Y-78080000D01*
X210052142Y-78127619D01*
X210433095Y-78127619D02*
X210480714Y-78080000D01*
X210575952Y-78032380D01*
X210814047Y-78032380D01*
X210909285Y-78080000D01*
X210956904Y-78127619D01*
X211004523Y-78222857D01*
X211004523Y-78318095D01*
X210956904Y-78460952D01*
X210385476Y-79032380D01*
X211004523Y-79032380D01*
X211337857Y-78032380D02*
X211956904Y-78032380D01*
X211623571Y-78413333D01*
X211766428Y-78413333D01*
X211861666Y-78460952D01*
X211909285Y-78508571D01*
X211956904Y-78603809D01*
X211956904Y-78841904D01*
X211909285Y-78937142D01*
X211861666Y-78984761D01*
X211766428Y-79032380D01*
X211480714Y-79032380D01*
X211385476Y-78984761D01*
X211337857Y-78937142D01*
G04 #@! TO.C,C24*
X206687142Y-78937142D02*
X206639523Y-78984761D01*
X206496666Y-79032380D01*
X206401428Y-79032380D01*
X206258571Y-78984761D01*
X206163333Y-78889523D01*
X206115714Y-78794285D01*
X206068095Y-78603809D01*
X206068095Y-78460952D01*
X206115714Y-78270476D01*
X206163333Y-78175238D01*
X206258571Y-78080000D01*
X206401428Y-78032380D01*
X206496666Y-78032380D01*
X206639523Y-78080000D01*
X206687142Y-78127619D01*
X207068095Y-78127619D02*
X207115714Y-78080000D01*
X207210952Y-78032380D01*
X207449047Y-78032380D01*
X207544285Y-78080000D01*
X207591904Y-78127619D01*
X207639523Y-78222857D01*
X207639523Y-78318095D01*
X207591904Y-78460952D01*
X207020476Y-79032380D01*
X207639523Y-79032380D01*
X208496666Y-78365714D02*
X208496666Y-79032380D01*
X208258571Y-77984761D02*
X208020476Y-78699047D01*
X208639523Y-78699047D01*
G04 #@! TO.C,C25*
X203187142Y-78937142D02*
X203139523Y-78984761D01*
X202996666Y-79032380D01*
X202901428Y-79032380D01*
X202758571Y-78984761D01*
X202663333Y-78889523D01*
X202615714Y-78794285D01*
X202568095Y-78603809D01*
X202568095Y-78460952D01*
X202615714Y-78270476D01*
X202663333Y-78175238D01*
X202758571Y-78080000D01*
X202901428Y-78032380D01*
X202996666Y-78032380D01*
X203139523Y-78080000D01*
X203187142Y-78127619D01*
X203568095Y-78127619D02*
X203615714Y-78080000D01*
X203710952Y-78032380D01*
X203949047Y-78032380D01*
X204044285Y-78080000D01*
X204091904Y-78127619D01*
X204139523Y-78222857D01*
X204139523Y-78318095D01*
X204091904Y-78460952D01*
X203520476Y-79032380D01*
X204139523Y-79032380D01*
X205044285Y-78032380D02*
X204568095Y-78032380D01*
X204520476Y-78508571D01*
X204568095Y-78460952D01*
X204663333Y-78413333D01*
X204901428Y-78413333D01*
X204996666Y-78460952D01*
X205044285Y-78508571D01*
X205091904Y-78603809D01*
X205091904Y-78841904D01*
X205044285Y-78937142D01*
X204996666Y-78984761D01*
X204901428Y-79032380D01*
X204663333Y-79032380D01*
X204568095Y-78984761D01*
X204520476Y-78937142D01*
G04 #@! TO.C,C26*
X202282142Y-122117142D02*
X202234523Y-122164761D01*
X202091666Y-122212380D01*
X201996428Y-122212380D01*
X201853571Y-122164761D01*
X201758333Y-122069523D01*
X201710714Y-121974285D01*
X201663095Y-121783809D01*
X201663095Y-121640952D01*
X201710714Y-121450476D01*
X201758333Y-121355238D01*
X201853571Y-121260000D01*
X201996428Y-121212380D01*
X202091666Y-121212380D01*
X202234523Y-121260000D01*
X202282142Y-121307619D01*
X202663095Y-121307619D02*
X202710714Y-121260000D01*
X202805952Y-121212380D01*
X203044047Y-121212380D01*
X203139285Y-121260000D01*
X203186904Y-121307619D01*
X203234523Y-121402857D01*
X203234523Y-121498095D01*
X203186904Y-121640952D01*
X202615476Y-122212380D01*
X203234523Y-122212380D01*
X204091666Y-121212380D02*
X203901190Y-121212380D01*
X203805952Y-121260000D01*
X203758333Y-121307619D01*
X203663095Y-121450476D01*
X203615476Y-121640952D01*
X203615476Y-122021904D01*
X203663095Y-122117142D01*
X203710714Y-122164761D01*
X203805952Y-122212380D01*
X203996428Y-122212380D01*
X204091666Y-122164761D01*
X204139285Y-122117142D01*
X204186904Y-122021904D01*
X204186904Y-121783809D01*
X204139285Y-121688571D01*
X204091666Y-121640952D01*
X203996428Y-121593333D01*
X203805952Y-121593333D01*
X203710714Y-121640952D01*
X203663095Y-121688571D01*
X203615476Y-121783809D01*
G04 #@! TO.C,C27*
X205782142Y-122117142D02*
X205734523Y-122164761D01*
X205591666Y-122212380D01*
X205496428Y-122212380D01*
X205353571Y-122164761D01*
X205258333Y-122069523D01*
X205210714Y-121974285D01*
X205163095Y-121783809D01*
X205163095Y-121640952D01*
X205210714Y-121450476D01*
X205258333Y-121355238D01*
X205353571Y-121260000D01*
X205496428Y-121212380D01*
X205591666Y-121212380D01*
X205734523Y-121260000D01*
X205782142Y-121307619D01*
X206163095Y-121307619D02*
X206210714Y-121260000D01*
X206305952Y-121212380D01*
X206544047Y-121212380D01*
X206639285Y-121260000D01*
X206686904Y-121307619D01*
X206734523Y-121402857D01*
X206734523Y-121498095D01*
X206686904Y-121640952D01*
X206115476Y-122212380D01*
X206734523Y-122212380D01*
X207067857Y-121212380D02*
X207734523Y-121212380D01*
X207305952Y-122212380D01*
G04 #@! TO.C,C28*
X209282142Y-122117142D02*
X209234523Y-122164761D01*
X209091666Y-122212380D01*
X208996428Y-122212380D01*
X208853571Y-122164761D01*
X208758333Y-122069523D01*
X208710714Y-121974285D01*
X208663095Y-121783809D01*
X208663095Y-121640952D01*
X208710714Y-121450476D01*
X208758333Y-121355238D01*
X208853571Y-121260000D01*
X208996428Y-121212380D01*
X209091666Y-121212380D01*
X209234523Y-121260000D01*
X209282142Y-121307619D01*
X209663095Y-121307619D02*
X209710714Y-121260000D01*
X209805952Y-121212380D01*
X210044047Y-121212380D01*
X210139285Y-121260000D01*
X210186904Y-121307619D01*
X210234523Y-121402857D01*
X210234523Y-121498095D01*
X210186904Y-121640952D01*
X209615476Y-122212380D01*
X210234523Y-122212380D01*
X210805952Y-121640952D02*
X210710714Y-121593333D01*
X210663095Y-121545714D01*
X210615476Y-121450476D01*
X210615476Y-121402857D01*
X210663095Y-121307619D01*
X210710714Y-121260000D01*
X210805952Y-121212380D01*
X210996428Y-121212380D01*
X211091666Y-121260000D01*
X211139285Y-121307619D01*
X211186904Y-121402857D01*
X211186904Y-121450476D01*
X211139285Y-121545714D01*
X211091666Y-121593333D01*
X210996428Y-121640952D01*
X210805952Y-121640952D01*
X210710714Y-121688571D01*
X210663095Y-121736190D01*
X210615476Y-121831428D01*
X210615476Y-122021904D01*
X210663095Y-122117142D01*
X210710714Y-122164761D01*
X210805952Y-122212380D01*
X210996428Y-122212380D01*
X211091666Y-122164761D01*
X211139285Y-122117142D01*
X211186904Y-122021904D01*
X211186904Y-121831428D01*
X211139285Y-121736190D01*
X211091666Y-121688571D01*
X210996428Y-121640952D01*
G04 #@! TO.C,C29*
X240927142Y-148142857D02*
X240974761Y-148190476D01*
X241022380Y-148333333D01*
X241022380Y-148428571D01*
X240974761Y-148571428D01*
X240879523Y-148666666D01*
X240784285Y-148714285D01*
X240593809Y-148761904D01*
X240450952Y-148761904D01*
X240260476Y-148714285D01*
X240165238Y-148666666D01*
X240070000Y-148571428D01*
X240022380Y-148428571D01*
X240022380Y-148333333D01*
X240070000Y-148190476D01*
X240117619Y-148142857D01*
X240117619Y-147761904D02*
X240070000Y-147714285D01*
X240022380Y-147619047D01*
X240022380Y-147380952D01*
X240070000Y-147285714D01*
X240117619Y-147238095D01*
X240212857Y-147190476D01*
X240308095Y-147190476D01*
X240450952Y-147238095D01*
X241022380Y-147809523D01*
X241022380Y-147190476D01*
X241022380Y-146714285D02*
X241022380Y-146523809D01*
X240974761Y-146428571D01*
X240927142Y-146380952D01*
X240784285Y-146285714D01*
X240593809Y-146238095D01*
X240212857Y-146238095D01*
X240117619Y-146285714D01*
X240070000Y-146333333D01*
X240022380Y-146428571D01*
X240022380Y-146619047D01*
X240070000Y-146714285D01*
X240117619Y-146761904D01*
X240212857Y-146809523D01*
X240450952Y-146809523D01*
X240546190Y-146761904D01*
X240593809Y-146714285D01*
X240641428Y-146619047D01*
X240641428Y-146428571D01*
X240593809Y-146333333D01*
X240546190Y-146285714D01*
X240450952Y-146238095D01*
G04 #@! TO.C,C30*
X209288142Y-82164142D02*
X209240523Y-82211761D01*
X209097666Y-82259380D01*
X209002428Y-82259380D01*
X208859571Y-82211761D01*
X208764333Y-82116523D01*
X208716714Y-82021285D01*
X208669095Y-81830809D01*
X208669095Y-81687952D01*
X208716714Y-81497476D01*
X208764333Y-81402238D01*
X208859571Y-81307000D01*
X209002428Y-81259380D01*
X209097666Y-81259380D01*
X209240523Y-81307000D01*
X209288142Y-81354619D01*
X209621476Y-81259380D02*
X210240523Y-81259380D01*
X209907190Y-81640333D01*
X210050047Y-81640333D01*
X210145285Y-81687952D01*
X210192904Y-81735571D01*
X210240523Y-81830809D01*
X210240523Y-82068904D01*
X210192904Y-82164142D01*
X210145285Y-82211761D01*
X210050047Y-82259380D01*
X209764333Y-82259380D01*
X209669095Y-82211761D01*
X209621476Y-82164142D01*
X210859571Y-81259380D02*
X210954809Y-81259380D01*
X211050047Y-81307000D01*
X211097666Y-81354619D01*
X211145285Y-81449857D01*
X211192904Y-81640333D01*
X211192904Y-81878428D01*
X211145285Y-82068904D01*
X211097666Y-82164142D01*
X211050047Y-82211761D01*
X210954809Y-82259380D01*
X210859571Y-82259380D01*
X210764333Y-82211761D01*
X210716714Y-82164142D01*
X210669095Y-82068904D01*
X210621476Y-81878428D01*
X210621476Y-81640333D01*
X210669095Y-81449857D01*
X210716714Y-81354619D01*
X210764333Y-81307000D01*
X210859571Y-81259380D01*
G04 #@! TO.C,C31*
X206687142Y-82112142D02*
X206639523Y-82159761D01*
X206496666Y-82207380D01*
X206401428Y-82207380D01*
X206258571Y-82159761D01*
X206163333Y-82064523D01*
X206115714Y-81969285D01*
X206068095Y-81778809D01*
X206068095Y-81635952D01*
X206115714Y-81445476D01*
X206163333Y-81350238D01*
X206258571Y-81255000D01*
X206401428Y-81207380D01*
X206496666Y-81207380D01*
X206639523Y-81255000D01*
X206687142Y-81302619D01*
X207020476Y-81207380D02*
X207639523Y-81207380D01*
X207306190Y-81588333D01*
X207449047Y-81588333D01*
X207544285Y-81635952D01*
X207591904Y-81683571D01*
X207639523Y-81778809D01*
X207639523Y-82016904D01*
X207591904Y-82112142D01*
X207544285Y-82159761D01*
X207449047Y-82207380D01*
X207163333Y-82207380D01*
X207068095Y-82159761D01*
X207020476Y-82112142D01*
X208591904Y-82207380D02*
X208020476Y-82207380D01*
X208306190Y-82207380D02*
X208306190Y-81207380D01*
X208210952Y-81350238D01*
X208115714Y-81445476D01*
X208020476Y-81493095D01*
G04 #@! TO.C,C32*
X203187142Y-82112142D02*
X203139523Y-82159761D01*
X202996666Y-82207380D01*
X202901428Y-82207380D01*
X202758571Y-82159761D01*
X202663333Y-82064523D01*
X202615714Y-81969285D01*
X202568095Y-81778809D01*
X202568095Y-81635952D01*
X202615714Y-81445476D01*
X202663333Y-81350238D01*
X202758571Y-81255000D01*
X202901428Y-81207380D01*
X202996666Y-81207380D01*
X203139523Y-81255000D01*
X203187142Y-81302619D01*
X203520476Y-81207380D02*
X204139523Y-81207380D01*
X203806190Y-81588333D01*
X203949047Y-81588333D01*
X204044285Y-81635952D01*
X204091904Y-81683571D01*
X204139523Y-81778809D01*
X204139523Y-82016904D01*
X204091904Y-82112142D01*
X204044285Y-82159761D01*
X203949047Y-82207380D01*
X203663333Y-82207380D01*
X203568095Y-82159761D01*
X203520476Y-82112142D01*
X204520476Y-81302619D02*
X204568095Y-81255000D01*
X204663333Y-81207380D01*
X204901428Y-81207380D01*
X204996666Y-81255000D01*
X205044285Y-81302619D01*
X205091904Y-81397857D01*
X205091904Y-81493095D01*
X205044285Y-81635952D01*
X204472857Y-82207380D01*
X205091904Y-82207380D01*
G04 #@! TO.C,C33*
X202282142Y-125292142D02*
X202234523Y-125339761D01*
X202091666Y-125387380D01*
X201996428Y-125387380D01*
X201853571Y-125339761D01*
X201758333Y-125244523D01*
X201710714Y-125149285D01*
X201663095Y-124958809D01*
X201663095Y-124815952D01*
X201710714Y-124625476D01*
X201758333Y-124530238D01*
X201853571Y-124435000D01*
X201996428Y-124387380D01*
X202091666Y-124387380D01*
X202234523Y-124435000D01*
X202282142Y-124482619D01*
X202615476Y-124387380D02*
X203234523Y-124387380D01*
X202901190Y-124768333D01*
X203044047Y-124768333D01*
X203139285Y-124815952D01*
X203186904Y-124863571D01*
X203234523Y-124958809D01*
X203234523Y-125196904D01*
X203186904Y-125292142D01*
X203139285Y-125339761D01*
X203044047Y-125387380D01*
X202758333Y-125387380D01*
X202663095Y-125339761D01*
X202615476Y-125292142D01*
X203567857Y-124387380D02*
X204186904Y-124387380D01*
X203853571Y-124768333D01*
X203996428Y-124768333D01*
X204091666Y-124815952D01*
X204139285Y-124863571D01*
X204186904Y-124958809D01*
X204186904Y-125196904D01*
X204139285Y-125292142D01*
X204091666Y-125339761D01*
X203996428Y-125387380D01*
X203710714Y-125387380D01*
X203615476Y-125339761D01*
X203567857Y-125292142D01*
G04 #@! TO.C,C34*
X205782142Y-125292142D02*
X205734523Y-125339761D01*
X205591666Y-125387380D01*
X205496428Y-125387380D01*
X205353571Y-125339761D01*
X205258333Y-125244523D01*
X205210714Y-125149285D01*
X205163095Y-124958809D01*
X205163095Y-124815952D01*
X205210714Y-124625476D01*
X205258333Y-124530238D01*
X205353571Y-124435000D01*
X205496428Y-124387380D01*
X205591666Y-124387380D01*
X205734523Y-124435000D01*
X205782142Y-124482619D01*
X206115476Y-124387380D02*
X206734523Y-124387380D01*
X206401190Y-124768333D01*
X206544047Y-124768333D01*
X206639285Y-124815952D01*
X206686904Y-124863571D01*
X206734523Y-124958809D01*
X206734523Y-125196904D01*
X206686904Y-125292142D01*
X206639285Y-125339761D01*
X206544047Y-125387380D01*
X206258333Y-125387380D01*
X206163095Y-125339761D01*
X206115476Y-125292142D01*
X207591666Y-124720714D02*
X207591666Y-125387380D01*
X207353571Y-124339761D02*
X207115476Y-125054047D01*
X207734523Y-125054047D01*
G04 #@! TO.C,C35*
X209282142Y-125292142D02*
X209234523Y-125339761D01*
X209091666Y-125387380D01*
X208996428Y-125387380D01*
X208853571Y-125339761D01*
X208758333Y-125244523D01*
X208710714Y-125149285D01*
X208663095Y-124958809D01*
X208663095Y-124815952D01*
X208710714Y-124625476D01*
X208758333Y-124530238D01*
X208853571Y-124435000D01*
X208996428Y-124387380D01*
X209091666Y-124387380D01*
X209234523Y-124435000D01*
X209282142Y-124482619D01*
X209615476Y-124387380D02*
X210234523Y-124387380D01*
X209901190Y-124768333D01*
X210044047Y-124768333D01*
X210139285Y-124815952D01*
X210186904Y-124863571D01*
X210234523Y-124958809D01*
X210234523Y-125196904D01*
X210186904Y-125292142D01*
X210139285Y-125339761D01*
X210044047Y-125387380D01*
X209758333Y-125387380D01*
X209663095Y-125339761D01*
X209615476Y-125292142D01*
X211139285Y-124387380D02*
X210663095Y-124387380D01*
X210615476Y-124863571D01*
X210663095Y-124815952D01*
X210758333Y-124768333D01*
X210996428Y-124768333D01*
X211091666Y-124815952D01*
X211139285Y-124863571D01*
X211186904Y-124958809D01*
X211186904Y-125196904D01*
X211139285Y-125292142D01*
X211091666Y-125339761D01*
X210996428Y-125387380D01*
X210758333Y-125387380D01*
X210663095Y-125339761D01*
X210615476Y-125292142D01*
G04 #@! TO.C,C36*
X243889142Y-123641857D02*
X243936761Y-123689476D01*
X243984380Y-123832333D01*
X243984380Y-123927571D01*
X243936761Y-124070428D01*
X243841523Y-124165666D01*
X243746285Y-124213285D01*
X243555809Y-124260904D01*
X243412952Y-124260904D01*
X243222476Y-124213285D01*
X243127238Y-124165666D01*
X243032000Y-124070428D01*
X242984380Y-123927571D01*
X242984380Y-123832333D01*
X243032000Y-123689476D01*
X243079619Y-123641857D01*
X242984380Y-123308523D02*
X242984380Y-122689476D01*
X243365333Y-123022809D01*
X243365333Y-122879952D01*
X243412952Y-122784714D01*
X243460571Y-122737095D01*
X243555809Y-122689476D01*
X243793904Y-122689476D01*
X243889142Y-122737095D01*
X243936761Y-122784714D01*
X243984380Y-122879952D01*
X243984380Y-123165666D01*
X243936761Y-123260904D01*
X243889142Y-123308523D01*
X242984380Y-121832333D02*
X242984380Y-122022809D01*
X243032000Y-122118047D01*
X243079619Y-122165666D01*
X243222476Y-122260904D01*
X243412952Y-122308523D01*
X243793904Y-122308523D01*
X243889142Y-122260904D01*
X243936761Y-122213285D01*
X243984380Y-122118047D01*
X243984380Y-121927571D01*
X243936761Y-121832333D01*
X243889142Y-121784714D01*
X243793904Y-121737095D01*
X243555809Y-121737095D01*
X243460571Y-121784714D01*
X243412952Y-121832333D01*
X243365333Y-121927571D01*
X243365333Y-122118047D01*
X243412952Y-122213285D01*
X243460571Y-122260904D01*
X243555809Y-122308523D01*
G04 #@! TO.C,C37*
X240389142Y-120141857D02*
X240436761Y-120189476D01*
X240484380Y-120332333D01*
X240484380Y-120427571D01*
X240436761Y-120570428D01*
X240341523Y-120665666D01*
X240246285Y-120713285D01*
X240055809Y-120760904D01*
X239912952Y-120760904D01*
X239722476Y-120713285D01*
X239627238Y-120665666D01*
X239532000Y-120570428D01*
X239484380Y-120427571D01*
X239484380Y-120332333D01*
X239532000Y-120189476D01*
X239579619Y-120141857D01*
X239484380Y-119808523D02*
X239484380Y-119189476D01*
X239865333Y-119522809D01*
X239865333Y-119379952D01*
X239912952Y-119284714D01*
X239960571Y-119237095D01*
X240055809Y-119189476D01*
X240293904Y-119189476D01*
X240389142Y-119237095D01*
X240436761Y-119284714D01*
X240484380Y-119379952D01*
X240484380Y-119665666D01*
X240436761Y-119760904D01*
X240389142Y-119808523D01*
X239484380Y-118856142D02*
X239484380Y-118189476D01*
X240484380Y-118618047D01*
G04 #@! TO.C,C38*
X240389142Y-123641857D02*
X240436761Y-123689476D01*
X240484380Y-123832333D01*
X240484380Y-123927571D01*
X240436761Y-124070428D01*
X240341523Y-124165666D01*
X240246285Y-124213285D01*
X240055809Y-124260904D01*
X239912952Y-124260904D01*
X239722476Y-124213285D01*
X239627238Y-124165666D01*
X239532000Y-124070428D01*
X239484380Y-123927571D01*
X239484380Y-123832333D01*
X239532000Y-123689476D01*
X239579619Y-123641857D01*
X239484380Y-123308523D02*
X239484380Y-122689476D01*
X239865333Y-123022809D01*
X239865333Y-122879952D01*
X239912952Y-122784714D01*
X239960571Y-122737095D01*
X240055809Y-122689476D01*
X240293904Y-122689476D01*
X240389142Y-122737095D01*
X240436761Y-122784714D01*
X240484380Y-122879952D01*
X240484380Y-123165666D01*
X240436761Y-123260904D01*
X240389142Y-123308523D01*
X239912952Y-122118047D02*
X239865333Y-122213285D01*
X239817714Y-122260904D01*
X239722476Y-122308523D01*
X239674857Y-122308523D01*
X239579619Y-122260904D01*
X239532000Y-122213285D01*
X239484380Y-122118047D01*
X239484380Y-121927571D01*
X239532000Y-121832333D01*
X239579619Y-121784714D01*
X239674857Y-121737095D01*
X239722476Y-121737095D01*
X239817714Y-121784714D01*
X239865333Y-121832333D01*
X239912952Y-121927571D01*
X239912952Y-122118047D01*
X239960571Y-122213285D01*
X240008190Y-122260904D01*
X240103428Y-122308523D01*
X240293904Y-122308523D01*
X240389142Y-122260904D01*
X240436761Y-122213285D01*
X240484380Y-122118047D01*
X240484380Y-121927571D01*
X240436761Y-121832333D01*
X240389142Y-121784714D01*
X240293904Y-121737095D01*
X240103428Y-121737095D01*
X240008190Y-121784714D01*
X239960571Y-121832333D01*
X239912952Y-121927571D01*
G04 #@! TO.C,C39*
X236889142Y-120141857D02*
X236936761Y-120189476D01*
X236984380Y-120332333D01*
X236984380Y-120427571D01*
X236936761Y-120570428D01*
X236841523Y-120665666D01*
X236746285Y-120713285D01*
X236555809Y-120760904D01*
X236412952Y-120760904D01*
X236222476Y-120713285D01*
X236127238Y-120665666D01*
X236032000Y-120570428D01*
X235984380Y-120427571D01*
X235984380Y-120332333D01*
X236032000Y-120189476D01*
X236079619Y-120141857D01*
X235984380Y-119808523D02*
X235984380Y-119189476D01*
X236365333Y-119522809D01*
X236365333Y-119379952D01*
X236412952Y-119284714D01*
X236460571Y-119237095D01*
X236555809Y-119189476D01*
X236793904Y-119189476D01*
X236889142Y-119237095D01*
X236936761Y-119284714D01*
X236984380Y-119379952D01*
X236984380Y-119665666D01*
X236936761Y-119760904D01*
X236889142Y-119808523D01*
X236984380Y-118713285D02*
X236984380Y-118522809D01*
X236936761Y-118427571D01*
X236889142Y-118379952D01*
X236746285Y-118284714D01*
X236555809Y-118237095D01*
X236174857Y-118237095D01*
X236079619Y-118284714D01*
X236032000Y-118332333D01*
X235984380Y-118427571D01*
X235984380Y-118618047D01*
X236032000Y-118713285D01*
X236079619Y-118760904D01*
X236174857Y-118808523D01*
X236412952Y-118808523D01*
X236508190Y-118760904D01*
X236555809Y-118713285D01*
X236603428Y-118618047D01*
X236603428Y-118427571D01*
X236555809Y-118332333D01*
X236508190Y-118284714D01*
X236412952Y-118237095D01*
G04 #@! TO.C,C40*
X236889142Y-123641857D02*
X236936761Y-123689476D01*
X236984380Y-123832333D01*
X236984380Y-123927571D01*
X236936761Y-124070428D01*
X236841523Y-124165666D01*
X236746285Y-124213285D01*
X236555809Y-124260904D01*
X236412952Y-124260904D01*
X236222476Y-124213285D01*
X236127238Y-124165666D01*
X236032000Y-124070428D01*
X235984380Y-123927571D01*
X235984380Y-123832333D01*
X236032000Y-123689476D01*
X236079619Y-123641857D01*
X236317714Y-122784714D02*
X236984380Y-122784714D01*
X235936761Y-123022809D02*
X236651047Y-123260904D01*
X236651047Y-122641857D01*
X235984380Y-122070428D02*
X235984380Y-121975190D01*
X236032000Y-121879952D01*
X236079619Y-121832333D01*
X236174857Y-121784714D01*
X236365333Y-121737095D01*
X236603428Y-121737095D01*
X236793904Y-121784714D01*
X236889142Y-121832333D01*
X236936761Y-121879952D01*
X236984380Y-121975190D01*
X236984380Y-122070428D01*
X236936761Y-122165666D01*
X236889142Y-122213285D01*
X236793904Y-122260904D01*
X236603428Y-122308523D01*
X236365333Y-122308523D01*
X236174857Y-122260904D01*
X236079619Y-122213285D01*
X236032000Y-122165666D01*
X235984380Y-122070428D01*
G04 #@! TO.C,C41*
X233389142Y-120141857D02*
X233436761Y-120189476D01*
X233484380Y-120332333D01*
X233484380Y-120427571D01*
X233436761Y-120570428D01*
X233341523Y-120665666D01*
X233246285Y-120713285D01*
X233055809Y-120760904D01*
X232912952Y-120760904D01*
X232722476Y-120713285D01*
X232627238Y-120665666D01*
X232532000Y-120570428D01*
X232484380Y-120427571D01*
X232484380Y-120332333D01*
X232532000Y-120189476D01*
X232579619Y-120141857D01*
X232817714Y-119284714D02*
X233484380Y-119284714D01*
X232436761Y-119522809D02*
X233151047Y-119760904D01*
X233151047Y-119141857D01*
X233484380Y-118237095D02*
X233484380Y-118808523D01*
X233484380Y-118522809D02*
X232484380Y-118522809D01*
X232627238Y-118618047D01*
X232722476Y-118713285D01*
X232770095Y-118808523D01*
G04 #@! TO.C,C42*
X187857142Y-125292142D02*
X187809523Y-125339761D01*
X187666666Y-125387380D01*
X187571428Y-125387380D01*
X187428571Y-125339761D01*
X187333333Y-125244523D01*
X187285714Y-125149285D01*
X187238095Y-124958809D01*
X187238095Y-124815952D01*
X187285714Y-124625476D01*
X187333333Y-124530238D01*
X187428571Y-124435000D01*
X187571428Y-124387380D01*
X187666666Y-124387380D01*
X187809523Y-124435000D01*
X187857142Y-124482619D01*
X188714285Y-124720714D02*
X188714285Y-125387380D01*
X188476190Y-124339761D02*
X188238095Y-125054047D01*
X188857142Y-125054047D01*
X189190476Y-124482619D02*
X189238095Y-124435000D01*
X189333333Y-124387380D01*
X189571428Y-124387380D01*
X189666666Y-124435000D01*
X189714285Y-124482619D01*
X189761904Y-124577857D01*
X189761904Y-124673095D01*
X189714285Y-124815952D01*
X189142857Y-125387380D01*
X189761904Y-125387380D01*
G04 #@! TO.C,C43*
X194857142Y-125292142D02*
X194809523Y-125339761D01*
X194666666Y-125387380D01*
X194571428Y-125387380D01*
X194428571Y-125339761D01*
X194333333Y-125244523D01*
X194285714Y-125149285D01*
X194238095Y-124958809D01*
X194238095Y-124815952D01*
X194285714Y-124625476D01*
X194333333Y-124530238D01*
X194428571Y-124435000D01*
X194571428Y-124387380D01*
X194666666Y-124387380D01*
X194809523Y-124435000D01*
X194857142Y-124482619D01*
X195714285Y-124720714D02*
X195714285Y-125387380D01*
X195476190Y-124339761D02*
X195238095Y-125054047D01*
X195857142Y-125054047D01*
X196142857Y-124387380D02*
X196761904Y-124387380D01*
X196428571Y-124768333D01*
X196571428Y-124768333D01*
X196666666Y-124815952D01*
X196714285Y-124863571D01*
X196761904Y-124958809D01*
X196761904Y-125196904D01*
X196714285Y-125292142D01*
X196666666Y-125339761D01*
X196571428Y-125387380D01*
X196285714Y-125387380D01*
X196190476Y-125339761D01*
X196142857Y-125292142D01*
G04 #@! TO.C,C44*
X191357142Y-125292142D02*
X191309523Y-125339761D01*
X191166666Y-125387380D01*
X191071428Y-125387380D01*
X190928571Y-125339761D01*
X190833333Y-125244523D01*
X190785714Y-125149285D01*
X190738095Y-124958809D01*
X190738095Y-124815952D01*
X190785714Y-124625476D01*
X190833333Y-124530238D01*
X190928571Y-124435000D01*
X191071428Y-124387380D01*
X191166666Y-124387380D01*
X191309523Y-124435000D01*
X191357142Y-124482619D01*
X192214285Y-124720714D02*
X192214285Y-125387380D01*
X191976190Y-124339761D02*
X191738095Y-125054047D01*
X192357142Y-125054047D01*
X193166666Y-124720714D02*
X193166666Y-125387380D01*
X192928571Y-124339761D02*
X192690476Y-125054047D01*
X193309523Y-125054047D01*
G04 #@! TO.C,C45*
X187857142Y-122117142D02*
X187809523Y-122164761D01*
X187666666Y-122212380D01*
X187571428Y-122212380D01*
X187428571Y-122164761D01*
X187333333Y-122069523D01*
X187285714Y-121974285D01*
X187238095Y-121783809D01*
X187238095Y-121640952D01*
X187285714Y-121450476D01*
X187333333Y-121355238D01*
X187428571Y-121260000D01*
X187571428Y-121212380D01*
X187666666Y-121212380D01*
X187809523Y-121260000D01*
X187857142Y-121307619D01*
X188714285Y-121545714D02*
X188714285Y-122212380D01*
X188476190Y-121164761D02*
X188238095Y-121879047D01*
X188857142Y-121879047D01*
X189714285Y-121212380D02*
X189238095Y-121212380D01*
X189190476Y-121688571D01*
X189238095Y-121640952D01*
X189333333Y-121593333D01*
X189571428Y-121593333D01*
X189666666Y-121640952D01*
X189714285Y-121688571D01*
X189761904Y-121783809D01*
X189761904Y-122021904D01*
X189714285Y-122117142D01*
X189666666Y-122164761D01*
X189571428Y-122212380D01*
X189333333Y-122212380D01*
X189238095Y-122164761D01*
X189190476Y-122117142D01*
G04 #@! TO.C,C46*
X194857142Y-122117142D02*
X194809523Y-122164761D01*
X194666666Y-122212380D01*
X194571428Y-122212380D01*
X194428571Y-122164761D01*
X194333333Y-122069523D01*
X194285714Y-121974285D01*
X194238095Y-121783809D01*
X194238095Y-121640952D01*
X194285714Y-121450476D01*
X194333333Y-121355238D01*
X194428571Y-121260000D01*
X194571428Y-121212380D01*
X194666666Y-121212380D01*
X194809523Y-121260000D01*
X194857142Y-121307619D01*
X195714285Y-121545714D02*
X195714285Y-122212380D01*
X195476190Y-121164761D02*
X195238095Y-121879047D01*
X195857142Y-121879047D01*
X196666666Y-121212380D02*
X196476190Y-121212380D01*
X196380952Y-121260000D01*
X196333333Y-121307619D01*
X196238095Y-121450476D01*
X196190476Y-121640952D01*
X196190476Y-122021904D01*
X196238095Y-122117142D01*
X196285714Y-122164761D01*
X196380952Y-122212380D01*
X196571428Y-122212380D01*
X196666666Y-122164761D01*
X196714285Y-122117142D01*
X196761904Y-122021904D01*
X196761904Y-121783809D01*
X196714285Y-121688571D01*
X196666666Y-121640952D01*
X196571428Y-121593333D01*
X196380952Y-121593333D01*
X196285714Y-121640952D01*
X196238095Y-121688571D01*
X196190476Y-121783809D01*
G04 #@! TO.C,C47*
X191357142Y-122117142D02*
X191309523Y-122164761D01*
X191166666Y-122212380D01*
X191071428Y-122212380D01*
X190928571Y-122164761D01*
X190833333Y-122069523D01*
X190785714Y-121974285D01*
X190738095Y-121783809D01*
X190738095Y-121640952D01*
X190785714Y-121450476D01*
X190833333Y-121355238D01*
X190928571Y-121260000D01*
X191071428Y-121212380D01*
X191166666Y-121212380D01*
X191309523Y-121260000D01*
X191357142Y-121307619D01*
X192214285Y-121545714D02*
X192214285Y-122212380D01*
X191976190Y-121164761D02*
X191738095Y-121879047D01*
X192357142Y-121879047D01*
X192642857Y-121212380D02*
X193309523Y-121212380D01*
X192880952Y-122212380D01*
G04 #@! TO.C,C48*
X191857142Y-82112142D02*
X191809523Y-82159761D01*
X191666666Y-82207380D01*
X191571428Y-82207380D01*
X191428571Y-82159761D01*
X191333333Y-82064523D01*
X191285714Y-81969285D01*
X191238095Y-81778809D01*
X191238095Y-81635952D01*
X191285714Y-81445476D01*
X191333333Y-81350238D01*
X191428571Y-81255000D01*
X191571428Y-81207380D01*
X191666666Y-81207380D01*
X191809523Y-81255000D01*
X191857142Y-81302619D01*
X192714285Y-81540714D02*
X192714285Y-82207380D01*
X192476190Y-81159761D02*
X192238095Y-81874047D01*
X192857142Y-81874047D01*
X193380952Y-81635952D02*
X193285714Y-81588333D01*
X193238095Y-81540714D01*
X193190476Y-81445476D01*
X193190476Y-81397857D01*
X193238095Y-81302619D01*
X193285714Y-81255000D01*
X193380952Y-81207380D01*
X193571428Y-81207380D01*
X193666666Y-81255000D01*
X193714285Y-81302619D01*
X193761904Y-81397857D01*
X193761904Y-81445476D01*
X193714285Y-81540714D01*
X193666666Y-81588333D01*
X193571428Y-81635952D01*
X193380952Y-81635952D01*
X193285714Y-81683571D01*
X193238095Y-81731190D01*
X193190476Y-81826428D01*
X193190476Y-82016904D01*
X193238095Y-82112142D01*
X193285714Y-82159761D01*
X193380952Y-82207380D01*
X193571428Y-82207380D01*
X193666666Y-82159761D01*
X193714285Y-82112142D01*
X193761904Y-82016904D01*
X193761904Y-81826428D01*
X193714285Y-81731190D01*
X193666666Y-81683571D01*
X193571428Y-81635952D01*
G04 #@! TO.C,C49*
X195357142Y-82112142D02*
X195309523Y-82159761D01*
X195166666Y-82207380D01*
X195071428Y-82207380D01*
X194928571Y-82159761D01*
X194833333Y-82064523D01*
X194785714Y-81969285D01*
X194738095Y-81778809D01*
X194738095Y-81635952D01*
X194785714Y-81445476D01*
X194833333Y-81350238D01*
X194928571Y-81255000D01*
X195071428Y-81207380D01*
X195166666Y-81207380D01*
X195309523Y-81255000D01*
X195357142Y-81302619D01*
X196214285Y-81540714D02*
X196214285Y-82207380D01*
X195976190Y-81159761D02*
X195738095Y-81874047D01*
X196357142Y-81874047D01*
X196785714Y-82207380D02*
X196976190Y-82207380D01*
X197071428Y-82159761D01*
X197119047Y-82112142D01*
X197214285Y-81969285D01*
X197261904Y-81778809D01*
X197261904Y-81397857D01*
X197214285Y-81302619D01*
X197166666Y-81255000D01*
X197071428Y-81207380D01*
X196880952Y-81207380D01*
X196785714Y-81255000D01*
X196738095Y-81302619D01*
X196690476Y-81397857D01*
X196690476Y-81635952D01*
X196738095Y-81731190D01*
X196785714Y-81778809D01*
X196880952Y-81826428D01*
X197071428Y-81826428D01*
X197166666Y-81778809D01*
X197214285Y-81731190D01*
X197261904Y-81635952D01*
G04 #@! TO.C,C50*
X188357142Y-82112142D02*
X188309523Y-82159761D01*
X188166666Y-82207380D01*
X188071428Y-82207380D01*
X187928571Y-82159761D01*
X187833333Y-82064523D01*
X187785714Y-81969285D01*
X187738095Y-81778809D01*
X187738095Y-81635952D01*
X187785714Y-81445476D01*
X187833333Y-81350238D01*
X187928571Y-81255000D01*
X188071428Y-81207380D01*
X188166666Y-81207380D01*
X188309523Y-81255000D01*
X188357142Y-81302619D01*
X189261904Y-81207380D02*
X188785714Y-81207380D01*
X188738095Y-81683571D01*
X188785714Y-81635952D01*
X188880952Y-81588333D01*
X189119047Y-81588333D01*
X189214285Y-81635952D01*
X189261904Y-81683571D01*
X189309523Y-81778809D01*
X189309523Y-82016904D01*
X189261904Y-82112142D01*
X189214285Y-82159761D01*
X189119047Y-82207380D01*
X188880952Y-82207380D01*
X188785714Y-82159761D01*
X188738095Y-82112142D01*
X189928571Y-81207380D02*
X190023809Y-81207380D01*
X190119047Y-81255000D01*
X190166666Y-81302619D01*
X190214285Y-81397857D01*
X190261904Y-81588333D01*
X190261904Y-81826428D01*
X190214285Y-82016904D01*
X190166666Y-82112142D01*
X190119047Y-82159761D01*
X190023809Y-82207380D01*
X189928571Y-82207380D01*
X189833333Y-82159761D01*
X189785714Y-82112142D01*
X189738095Y-82016904D01*
X189690476Y-81826428D01*
X189690476Y-81588333D01*
X189738095Y-81397857D01*
X189785714Y-81302619D01*
X189833333Y-81255000D01*
X189928571Y-81207380D01*
G04 #@! TO.C,C51*
X187857142Y-118942142D02*
X187809523Y-118989761D01*
X187666666Y-119037380D01*
X187571428Y-119037380D01*
X187428571Y-118989761D01*
X187333333Y-118894523D01*
X187285714Y-118799285D01*
X187238095Y-118608809D01*
X187238095Y-118465952D01*
X187285714Y-118275476D01*
X187333333Y-118180238D01*
X187428571Y-118085000D01*
X187571428Y-118037380D01*
X187666666Y-118037380D01*
X187809523Y-118085000D01*
X187857142Y-118132619D01*
X188761904Y-118037380D02*
X188285714Y-118037380D01*
X188238095Y-118513571D01*
X188285714Y-118465952D01*
X188380952Y-118418333D01*
X188619047Y-118418333D01*
X188714285Y-118465952D01*
X188761904Y-118513571D01*
X188809523Y-118608809D01*
X188809523Y-118846904D01*
X188761904Y-118942142D01*
X188714285Y-118989761D01*
X188619047Y-119037380D01*
X188380952Y-119037380D01*
X188285714Y-118989761D01*
X188238095Y-118942142D01*
X189761904Y-119037380D02*
X189190476Y-119037380D01*
X189476190Y-119037380D02*
X189476190Y-118037380D01*
X189380952Y-118180238D01*
X189285714Y-118275476D01*
X189190476Y-118323095D01*
G04 #@! TO.C,C52*
X194857142Y-118942142D02*
X194809523Y-118989761D01*
X194666666Y-119037380D01*
X194571428Y-119037380D01*
X194428571Y-118989761D01*
X194333333Y-118894523D01*
X194285714Y-118799285D01*
X194238095Y-118608809D01*
X194238095Y-118465952D01*
X194285714Y-118275476D01*
X194333333Y-118180238D01*
X194428571Y-118085000D01*
X194571428Y-118037380D01*
X194666666Y-118037380D01*
X194809523Y-118085000D01*
X194857142Y-118132619D01*
X195761904Y-118037380D02*
X195285714Y-118037380D01*
X195238095Y-118513571D01*
X195285714Y-118465952D01*
X195380952Y-118418333D01*
X195619047Y-118418333D01*
X195714285Y-118465952D01*
X195761904Y-118513571D01*
X195809523Y-118608809D01*
X195809523Y-118846904D01*
X195761904Y-118942142D01*
X195714285Y-118989761D01*
X195619047Y-119037380D01*
X195380952Y-119037380D01*
X195285714Y-118989761D01*
X195238095Y-118942142D01*
X196190476Y-118132619D02*
X196238095Y-118085000D01*
X196333333Y-118037380D01*
X196571428Y-118037380D01*
X196666666Y-118085000D01*
X196714285Y-118132619D01*
X196761904Y-118227857D01*
X196761904Y-118323095D01*
X196714285Y-118465952D01*
X196142857Y-119037380D01*
X196761904Y-119037380D01*
G04 #@! TO.C,C53*
X191357142Y-118927142D02*
X191309523Y-118974761D01*
X191166666Y-119022380D01*
X191071428Y-119022380D01*
X190928571Y-118974761D01*
X190833333Y-118879523D01*
X190785714Y-118784285D01*
X190738095Y-118593809D01*
X190738095Y-118450952D01*
X190785714Y-118260476D01*
X190833333Y-118165238D01*
X190928571Y-118070000D01*
X191071428Y-118022380D01*
X191166666Y-118022380D01*
X191309523Y-118070000D01*
X191357142Y-118117619D01*
X192261904Y-118022380D02*
X191785714Y-118022380D01*
X191738095Y-118498571D01*
X191785714Y-118450952D01*
X191880952Y-118403333D01*
X192119047Y-118403333D01*
X192214285Y-118450952D01*
X192261904Y-118498571D01*
X192309523Y-118593809D01*
X192309523Y-118831904D01*
X192261904Y-118927142D01*
X192214285Y-118974761D01*
X192119047Y-119022380D01*
X191880952Y-119022380D01*
X191785714Y-118974761D01*
X191738095Y-118927142D01*
X192642857Y-118022380D02*
X193261904Y-118022380D01*
X192928571Y-118403333D01*
X193071428Y-118403333D01*
X193166666Y-118450952D01*
X193214285Y-118498571D01*
X193261904Y-118593809D01*
X193261904Y-118831904D01*
X193214285Y-118927142D01*
X193166666Y-118974761D01*
X193071428Y-119022380D01*
X192785714Y-119022380D01*
X192690476Y-118974761D01*
X192642857Y-118927142D01*
G04 #@! TO.C,C54*
X191857142Y-78937142D02*
X191809523Y-78984761D01*
X191666666Y-79032380D01*
X191571428Y-79032380D01*
X191428571Y-78984761D01*
X191333333Y-78889523D01*
X191285714Y-78794285D01*
X191238095Y-78603809D01*
X191238095Y-78460952D01*
X191285714Y-78270476D01*
X191333333Y-78175238D01*
X191428571Y-78080000D01*
X191571428Y-78032380D01*
X191666666Y-78032380D01*
X191809523Y-78080000D01*
X191857142Y-78127619D01*
X192761904Y-78032380D02*
X192285714Y-78032380D01*
X192238095Y-78508571D01*
X192285714Y-78460952D01*
X192380952Y-78413333D01*
X192619047Y-78413333D01*
X192714285Y-78460952D01*
X192761904Y-78508571D01*
X192809523Y-78603809D01*
X192809523Y-78841904D01*
X192761904Y-78937142D01*
X192714285Y-78984761D01*
X192619047Y-79032380D01*
X192380952Y-79032380D01*
X192285714Y-78984761D01*
X192238095Y-78937142D01*
X193666666Y-78365714D02*
X193666666Y-79032380D01*
X193428571Y-77984761D02*
X193190476Y-78699047D01*
X193809523Y-78699047D01*
G04 #@! TO.C,C55*
X195357142Y-78937142D02*
X195309523Y-78984761D01*
X195166666Y-79032380D01*
X195071428Y-79032380D01*
X194928571Y-78984761D01*
X194833333Y-78889523D01*
X194785714Y-78794285D01*
X194738095Y-78603809D01*
X194738095Y-78460952D01*
X194785714Y-78270476D01*
X194833333Y-78175238D01*
X194928571Y-78080000D01*
X195071428Y-78032380D01*
X195166666Y-78032380D01*
X195309523Y-78080000D01*
X195357142Y-78127619D01*
X196261904Y-78032380D02*
X195785714Y-78032380D01*
X195738095Y-78508571D01*
X195785714Y-78460952D01*
X195880952Y-78413333D01*
X196119047Y-78413333D01*
X196214285Y-78460952D01*
X196261904Y-78508571D01*
X196309523Y-78603809D01*
X196309523Y-78841904D01*
X196261904Y-78937142D01*
X196214285Y-78984761D01*
X196119047Y-79032380D01*
X195880952Y-79032380D01*
X195785714Y-78984761D01*
X195738095Y-78937142D01*
X197214285Y-78032380D02*
X196738095Y-78032380D01*
X196690476Y-78508571D01*
X196738095Y-78460952D01*
X196833333Y-78413333D01*
X197071428Y-78413333D01*
X197166666Y-78460952D01*
X197214285Y-78508571D01*
X197261904Y-78603809D01*
X197261904Y-78841904D01*
X197214285Y-78937142D01*
X197166666Y-78984761D01*
X197071428Y-79032380D01*
X196833333Y-79032380D01*
X196738095Y-78984761D01*
X196690476Y-78937142D01*
G04 #@! TO.C,C56*
X188357142Y-78937142D02*
X188309523Y-78984761D01*
X188166666Y-79032380D01*
X188071428Y-79032380D01*
X187928571Y-78984761D01*
X187833333Y-78889523D01*
X187785714Y-78794285D01*
X187738095Y-78603809D01*
X187738095Y-78460952D01*
X187785714Y-78270476D01*
X187833333Y-78175238D01*
X187928571Y-78080000D01*
X188071428Y-78032380D01*
X188166666Y-78032380D01*
X188309523Y-78080000D01*
X188357142Y-78127619D01*
X189261904Y-78032380D02*
X188785714Y-78032380D01*
X188738095Y-78508571D01*
X188785714Y-78460952D01*
X188880952Y-78413333D01*
X189119047Y-78413333D01*
X189214285Y-78460952D01*
X189261904Y-78508571D01*
X189309523Y-78603809D01*
X189309523Y-78841904D01*
X189261904Y-78937142D01*
X189214285Y-78984761D01*
X189119047Y-79032380D01*
X188880952Y-79032380D01*
X188785714Y-78984761D01*
X188738095Y-78937142D01*
X190166666Y-78032380D02*
X189976190Y-78032380D01*
X189880952Y-78080000D01*
X189833333Y-78127619D01*
X189738095Y-78270476D01*
X189690476Y-78460952D01*
X189690476Y-78841904D01*
X189738095Y-78937142D01*
X189785714Y-78984761D01*
X189880952Y-79032380D01*
X190071428Y-79032380D01*
X190166666Y-78984761D01*
X190214285Y-78937142D01*
X190261904Y-78841904D01*
X190261904Y-78603809D01*
X190214285Y-78508571D01*
X190166666Y-78460952D01*
X190071428Y-78413333D01*
X189880952Y-78413333D01*
X189785714Y-78460952D01*
X189738095Y-78508571D01*
X189690476Y-78603809D01*
G04 #@! TO.C,C57*
X191857142Y-75762142D02*
X191809523Y-75809761D01*
X191666666Y-75857380D01*
X191571428Y-75857380D01*
X191428571Y-75809761D01*
X191333333Y-75714523D01*
X191285714Y-75619285D01*
X191238095Y-75428809D01*
X191238095Y-75285952D01*
X191285714Y-75095476D01*
X191333333Y-75000238D01*
X191428571Y-74905000D01*
X191571428Y-74857380D01*
X191666666Y-74857380D01*
X191809523Y-74905000D01*
X191857142Y-74952619D01*
X192761904Y-74857380D02*
X192285714Y-74857380D01*
X192238095Y-75333571D01*
X192285714Y-75285952D01*
X192380952Y-75238333D01*
X192619047Y-75238333D01*
X192714285Y-75285952D01*
X192761904Y-75333571D01*
X192809523Y-75428809D01*
X192809523Y-75666904D01*
X192761904Y-75762142D01*
X192714285Y-75809761D01*
X192619047Y-75857380D01*
X192380952Y-75857380D01*
X192285714Y-75809761D01*
X192238095Y-75762142D01*
X193142857Y-74857380D02*
X193809523Y-74857380D01*
X193380952Y-75857380D01*
G04 #@! TO.C,C58*
X195357142Y-75762142D02*
X195309523Y-75809761D01*
X195166666Y-75857380D01*
X195071428Y-75857380D01*
X194928571Y-75809761D01*
X194833333Y-75714523D01*
X194785714Y-75619285D01*
X194738095Y-75428809D01*
X194738095Y-75285952D01*
X194785714Y-75095476D01*
X194833333Y-75000238D01*
X194928571Y-74905000D01*
X195071428Y-74857380D01*
X195166666Y-74857380D01*
X195309523Y-74905000D01*
X195357142Y-74952619D01*
X196261904Y-74857380D02*
X195785714Y-74857380D01*
X195738095Y-75333571D01*
X195785714Y-75285952D01*
X195880952Y-75238333D01*
X196119047Y-75238333D01*
X196214285Y-75285952D01*
X196261904Y-75333571D01*
X196309523Y-75428809D01*
X196309523Y-75666904D01*
X196261904Y-75762142D01*
X196214285Y-75809761D01*
X196119047Y-75857380D01*
X195880952Y-75857380D01*
X195785714Y-75809761D01*
X195738095Y-75762142D01*
X196880952Y-75285952D02*
X196785714Y-75238333D01*
X196738095Y-75190714D01*
X196690476Y-75095476D01*
X196690476Y-75047857D01*
X196738095Y-74952619D01*
X196785714Y-74905000D01*
X196880952Y-74857380D01*
X197071428Y-74857380D01*
X197166666Y-74905000D01*
X197214285Y-74952619D01*
X197261904Y-75047857D01*
X197261904Y-75095476D01*
X197214285Y-75190714D01*
X197166666Y-75238333D01*
X197071428Y-75285952D01*
X196880952Y-75285952D01*
X196785714Y-75333571D01*
X196738095Y-75381190D01*
X196690476Y-75476428D01*
X196690476Y-75666904D01*
X196738095Y-75762142D01*
X196785714Y-75809761D01*
X196880952Y-75857380D01*
X197071428Y-75857380D01*
X197166666Y-75809761D01*
X197214285Y-75762142D01*
X197261904Y-75666904D01*
X197261904Y-75476428D01*
X197214285Y-75381190D01*
X197166666Y-75333571D01*
X197071428Y-75285952D01*
G04 #@! TO.C,C59*
X188357142Y-75762142D02*
X188309523Y-75809761D01*
X188166666Y-75857380D01*
X188071428Y-75857380D01*
X187928571Y-75809761D01*
X187833333Y-75714523D01*
X187785714Y-75619285D01*
X187738095Y-75428809D01*
X187738095Y-75285952D01*
X187785714Y-75095476D01*
X187833333Y-75000238D01*
X187928571Y-74905000D01*
X188071428Y-74857380D01*
X188166666Y-74857380D01*
X188309523Y-74905000D01*
X188357142Y-74952619D01*
X189261904Y-74857380D02*
X188785714Y-74857380D01*
X188738095Y-75333571D01*
X188785714Y-75285952D01*
X188880952Y-75238333D01*
X189119047Y-75238333D01*
X189214285Y-75285952D01*
X189261904Y-75333571D01*
X189309523Y-75428809D01*
X189309523Y-75666904D01*
X189261904Y-75762142D01*
X189214285Y-75809761D01*
X189119047Y-75857380D01*
X188880952Y-75857380D01*
X188785714Y-75809761D01*
X188738095Y-75762142D01*
X189785714Y-75857380D02*
X189976190Y-75857380D01*
X190071428Y-75809761D01*
X190119047Y-75762142D01*
X190214285Y-75619285D01*
X190261904Y-75428809D01*
X190261904Y-75047857D01*
X190214285Y-74952619D01*
X190166666Y-74905000D01*
X190071428Y-74857380D01*
X189880952Y-74857380D01*
X189785714Y-74905000D01*
X189738095Y-74952619D01*
X189690476Y-75047857D01*
X189690476Y-75285952D01*
X189738095Y-75381190D01*
X189785714Y-75428809D01*
X189880952Y-75476428D01*
X190071428Y-75476428D01*
X190166666Y-75428809D01*
X190214285Y-75381190D01*
X190261904Y-75285952D01*
G04 #@! TO.C,FB1*
X251166666Y-147603571D02*
X250833333Y-147603571D01*
X250833333Y-148127380D02*
X250833333Y-147127380D01*
X251309523Y-147127380D01*
X252023809Y-147603571D02*
X252166666Y-147651190D01*
X252214285Y-147698809D01*
X252261904Y-147794047D01*
X252261904Y-147936904D01*
X252214285Y-148032142D01*
X252166666Y-148079761D01*
X252071428Y-148127380D01*
X251690476Y-148127380D01*
X251690476Y-147127380D01*
X252023809Y-147127380D01*
X252119047Y-147175000D01*
X252166666Y-147222619D01*
X252214285Y-147317857D01*
X252214285Y-147413095D01*
X252166666Y-147508333D01*
X252119047Y-147555952D01*
X252023809Y-147603571D01*
X251690476Y-147603571D01*
X253214285Y-148127380D02*
X252642857Y-148127380D01*
X252928571Y-148127380D02*
X252928571Y-147127380D01*
X252833333Y-147270238D01*
X252738095Y-147365476D01*
X252642857Y-147413095D01*
G04 #@! TO.C,FB2*
X206496666Y-72158571D02*
X206163333Y-72158571D01*
X206163333Y-72682380D02*
X206163333Y-71682380D01*
X206639523Y-71682380D01*
X207353809Y-72158571D02*
X207496666Y-72206190D01*
X207544285Y-72253809D01*
X207591904Y-72349047D01*
X207591904Y-72491904D01*
X207544285Y-72587142D01*
X207496666Y-72634761D01*
X207401428Y-72682380D01*
X207020476Y-72682380D01*
X207020476Y-71682380D01*
X207353809Y-71682380D01*
X207449047Y-71730000D01*
X207496666Y-71777619D01*
X207544285Y-71872857D01*
X207544285Y-71968095D01*
X207496666Y-72063333D01*
X207449047Y-72110952D01*
X207353809Y-72158571D01*
X207020476Y-72158571D01*
X207972857Y-71777619D02*
X208020476Y-71730000D01*
X208115714Y-71682380D01*
X208353809Y-71682380D01*
X208449047Y-71730000D01*
X208496666Y-71777619D01*
X208544285Y-71872857D01*
X208544285Y-71968095D01*
X208496666Y-72110952D01*
X207925238Y-72682380D01*
X208544285Y-72682380D01*
G04 #@! TO.C,FB3*
X208716666Y-116768571D02*
X208383333Y-116768571D01*
X208383333Y-117292380D02*
X208383333Y-116292380D01*
X208859523Y-116292380D01*
X209573809Y-116768571D02*
X209716666Y-116816190D01*
X209764285Y-116863809D01*
X209811904Y-116959047D01*
X209811904Y-117101904D01*
X209764285Y-117197142D01*
X209716666Y-117244761D01*
X209621428Y-117292380D01*
X209240476Y-117292380D01*
X209240476Y-116292380D01*
X209573809Y-116292380D01*
X209669047Y-116340000D01*
X209716666Y-116387619D01*
X209764285Y-116482857D01*
X209764285Y-116578095D01*
X209716666Y-116673333D01*
X209669047Y-116720952D01*
X209573809Y-116768571D01*
X209240476Y-116768571D01*
X210145238Y-116292380D02*
X210764285Y-116292380D01*
X210430952Y-116673333D01*
X210573809Y-116673333D01*
X210669047Y-116720952D01*
X210716666Y-116768571D01*
X210764285Y-116863809D01*
X210764285Y-117101904D01*
X210716666Y-117197142D01*
X210669047Y-117244761D01*
X210573809Y-117292380D01*
X210288095Y-117292380D01*
X210192857Y-117244761D01*
X210145238Y-117197142D01*
G04 #@! TO.C,FB4*
X232998571Y-123833333D02*
X232998571Y-124166666D01*
X233522380Y-124166666D02*
X232522380Y-124166666D01*
X232522380Y-123690476D01*
X232998571Y-122976190D02*
X233046190Y-122833333D01*
X233093809Y-122785714D01*
X233189047Y-122738095D01*
X233331904Y-122738095D01*
X233427142Y-122785714D01*
X233474761Y-122833333D01*
X233522380Y-122928571D01*
X233522380Y-123309523D01*
X232522380Y-123309523D01*
X232522380Y-122976190D01*
X232570000Y-122880952D01*
X232617619Y-122833333D01*
X232712857Y-122785714D01*
X232808095Y-122785714D01*
X232903333Y-122833333D01*
X232950952Y-122880952D01*
X232998571Y-122976190D01*
X232998571Y-123309523D01*
X232855714Y-121880952D02*
X233522380Y-121880952D01*
X232474761Y-122119047D02*
X233189047Y-122357142D01*
X233189047Y-121738095D01*
G04 #@! TO.C,FB5*
X194111666Y-116768571D02*
X193778333Y-116768571D01*
X193778333Y-117292380D02*
X193778333Y-116292380D01*
X194254523Y-116292380D01*
X194968809Y-116768571D02*
X195111666Y-116816190D01*
X195159285Y-116863809D01*
X195206904Y-116959047D01*
X195206904Y-117101904D01*
X195159285Y-117197142D01*
X195111666Y-117244761D01*
X195016428Y-117292380D01*
X194635476Y-117292380D01*
X194635476Y-116292380D01*
X194968809Y-116292380D01*
X195064047Y-116340000D01*
X195111666Y-116387619D01*
X195159285Y-116482857D01*
X195159285Y-116578095D01*
X195111666Y-116673333D01*
X195064047Y-116720952D01*
X194968809Y-116768571D01*
X194635476Y-116768571D01*
X196111666Y-116292380D02*
X195635476Y-116292380D01*
X195587857Y-116768571D01*
X195635476Y-116720952D01*
X195730714Y-116673333D01*
X195968809Y-116673333D01*
X196064047Y-116720952D01*
X196111666Y-116768571D01*
X196159285Y-116863809D01*
X196159285Y-117101904D01*
X196111666Y-117197142D01*
X196064047Y-117244761D01*
X195968809Y-117292380D01*
X195730714Y-117292380D01*
X195635476Y-117244761D01*
X195587857Y-117197142D01*
G04 #@! TO.C,FB6*
X191666666Y-72158571D02*
X191333333Y-72158571D01*
X191333333Y-72682380D02*
X191333333Y-71682380D01*
X191809523Y-71682380D01*
X192523809Y-72158571D02*
X192666666Y-72206190D01*
X192714285Y-72253809D01*
X192761904Y-72349047D01*
X192761904Y-72491904D01*
X192714285Y-72587142D01*
X192666666Y-72634761D01*
X192571428Y-72682380D01*
X192190476Y-72682380D01*
X192190476Y-71682380D01*
X192523809Y-71682380D01*
X192619047Y-71730000D01*
X192666666Y-71777619D01*
X192714285Y-71872857D01*
X192714285Y-71968095D01*
X192666666Y-72063333D01*
X192619047Y-72110952D01*
X192523809Y-72158571D01*
X192190476Y-72158571D01*
X193619047Y-71682380D02*
X193428571Y-71682380D01*
X193333333Y-71730000D01*
X193285714Y-71777619D01*
X193190476Y-71920476D01*
X193142857Y-72110952D01*
X193142857Y-72491904D01*
X193190476Y-72587142D01*
X193238095Y-72634761D01*
X193333333Y-72682380D01*
X193523809Y-72682380D01*
X193619047Y-72634761D01*
X193666666Y-72587142D01*
X193714285Y-72491904D01*
X193714285Y-72253809D01*
X193666666Y-72158571D01*
X193619047Y-72110952D01*
X193523809Y-72063333D01*
X193333333Y-72063333D01*
X193238095Y-72110952D01*
X193190476Y-72158571D01*
X193142857Y-72253809D01*
G04 #@! TO.C,R1*
X175728333Y-98717380D02*
X175395000Y-98241190D01*
X175156904Y-98717380D02*
X175156904Y-97717380D01*
X175537857Y-97717380D01*
X175633095Y-97765000D01*
X175680714Y-97812619D01*
X175728333Y-97907857D01*
X175728333Y-98050714D01*
X175680714Y-98145952D01*
X175633095Y-98193571D01*
X175537857Y-98241190D01*
X175156904Y-98241190D01*
X176680714Y-98717380D02*
X176109285Y-98717380D01*
X176395000Y-98717380D02*
X176395000Y-97717380D01*
X176299761Y-97860238D01*
X176204523Y-97955476D01*
X176109285Y-98003095D01*
G04 #@! TO.C,R2*
X171918333Y-98717380D02*
X171585000Y-98241190D01*
X171346904Y-98717380D02*
X171346904Y-97717380D01*
X171727857Y-97717380D01*
X171823095Y-97765000D01*
X171870714Y-97812619D01*
X171918333Y-97907857D01*
X171918333Y-98050714D01*
X171870714Y-98145952D01*
X171823095Y-98193571D01*
X171727857Y-98241190D01*
X171346904Y-98241190D01*
X172299285Y-97812619D02*
X172346904Y-97765000D01*
X172442142Y-97717380D01*
X172680238Y-97717380D01*
X172775476Y-97765000D01*
X172823095Y-97812619D01*
X172870714Y-97907857D01*
X172870714Y-98003095D01*
X172823095Y-98145952D01*
X172251666Y-98717380D01*
X172870714Y-98717380D01*
G04 #@! TO.C,R3*
X251833333Y-141267380D02*
X251500000Y-140791190D01*
X251261904Y-141267380D02*
X251261904Y-140267380D01*
X251642857Y-140267380D01*
X251738095Y-140315000D01*
X251785714Y-140362619D01*
X251833333Y-140457857D01*
X251833333Y-140600714D01*
X251785714Y-140695952D01*
X251738095Y-140743571D01*
X251642857Y-140791190D01*
X251261904Y-140791190D01*
X252166666Y-140267380D02*
X252785714Y-140267380D01*
X252452380Y-140648333D01*
X252595238Y-140648333D01*
X252690476Y-140695952D01*
X252738095Y-140743571D01*
X252785714Y-140838809D01*
X252785714Y-141076904D01*
X252738095Y-141172142D01*
X252690476Y-141219761D01*
X252595238Y-141267380D01*
X252309523Y-141267380D01*
X252214285Y-141219761D01*
X252166666Y-141172142D01*
G04 #@! TO.C,R4*
X254579380Y-144343666D02*
X254103190Y-144677000D01*
X254579380Y-144915095D02*
X253579380Y-144915095D01*
X253579380Y-144534142D01*
X253627000Y-144438904D01*
X253674619Y-144391285D01*
X253769857Y-144343666D01*
X253912714Y-144343666D01*
X254007952Y-144391285D01*
X254055571Y-144438904D01*
X254103190Y-144534142D01*
X254103190Y-144915095D01*
X253912714Y-143486523D02*
X254579380Y-143486523D01*
X253531761Y-143724619D02*
X254246047Y-143962714D01*
X254246047Y-143343666D01*
G04 #@! TO.C,R5*
X225522380Y-132454166D02*
X225046190Y-132787500D01*
X225522380Y-133025595D02*
X224522380Y-133025595D01*
X224522380Y-132644642D01*
X224570000Y-132549404D01*
X224617619Y-132501785D01*
X224712857Y-132454166D01*
X224855714Y-132454166D01*
X224950952Y-132501785D01*
X224998571Y-132549404D01*
X225046190Y-132644642D01*
X225046190Y-133025595D01*
X224522380Y-131549404D02*
X224522380Y-132025595D01*
X224998571Y-132073214D01*
X224950952Y-132025595D01*
X224903333Y-131930357D01*
X224903333Y-131692261D01*
X224950952Y-131597023D01*
X224998571Y-131549404D01*
X225093809Y-131501785D01*
X225331904Y-131501785D01*
X225427142Y-131549404D01*
X225474761Y-131597023D01*
X225522380Y-131692261D01*
X225522380Y-131930357D01*
X225474761Y-132025595D01*
X225427142Y-132073214D01*
G04 #@! TO.C,R6*
X222522380Y-132454166D02*
X222046190Y-132787500D01*
X222522380Y-133025595D02*
X221522380Y-133025595D01*
X221522380Y-132644642D01*
X221570000Y-132549404D01*
X221617619Y-132501785D01*
X221712857Y-132454166D01*
X221855714Y-132454166D01*
X221950952Y-132501785D01*
X221998571Y-132549404D01*
X222046190Y-132644642D01*
X222046190Y-133025595D01*
X221522380Y-131597023D02*
X221522380Y-131787500D01*
X221570000Y-131882738D01*
X221617619Y-131930357D01*
X221760476Y-132025595D01*
X221950952Y-132073214D01*
X222331904Y-132073214D01*
X222427142Y-132025595D01*
X222474761Y-131977976D01*
X222522380Y-131882738D01*
X222522380Y-131692261D01*
X222474761Y-131597023D01*
X222427142Y-131549404D01*
X222331904Y-131501785D01*
X222093809Y-131501785D01*
X221998571Y-131549404D01*
X221950952Y-131597023D01*
X221903333Y-131692261D01*
X221903333Y-131882738D01*
X221950952Y-131977976D01*
X221998571Y-132025595D01*
X222093809Y-132073214D01*
G04 #@! TO.C,R7*
X219522380Y-132379166D02*
X219046190Y-132712500D01*
X219522380Y-132950595D02*
X218522380Y-132950595D01*
X218522380Y-132569642D01*
X218570000Y-132474404D01*
X218617619Y-132426785D01*
X218712857Y-132379166D01*
X218855714Y-132379166D01*
X218950952Y-132426785D01*
X218998571Y-132474404D01*
X219046190Y-132569642D01*
X219046190Y-132950595D01*
X218522380Y-132045833D02*
X218522380Y-131379166D01*
X219522380Y-131807738D01*
G04 #@! TO.C,R8*
X235033333Y-147382380D02*
X234700000Y-146906190D01*
X234461904Y-147382380D02*
X234461904Y-146382380D01*
X234842857Y-146382380D01*
X234938095Y-146430000D01*
X234985714Y-146477619D01*
X235033333Y-146572857D01*
X235033333Y-146715714D01*
X234985714Y-146810952D01*
X234938095Y-146858571D01*
X234842857Y-146906190D01*
X234461904Y-146906190D01*
X235604761Y-146810952D02*
X235509523Y-146763333D01*
X235461904Y-146715714D01*
X235414285Y-146620476D01*
X235414285Y-146572857D01*
X235461904Y-146477619D01*
X235509523Y-146430000D01*
X235604761Y-146382380D01*
X235795238Y-146382380D01*
X235890476Y-146430000D01*
X235938095Y-146477619D01*
X235985714Y-146572857D01*
X235985714Y-146620476D01*
X235938095Y-146715714D01*
X235890476Y-146763333D01*
X235795238Y-146810952D01*
X235604761Y-146810952D01*
X235509523Y-146858571D01*
X235461904Y-146906190D01*
X235414285Y-147001428D01*
X235414285Y-147191904D01*
X235461904Y-147287142D01*
X235509523Y-147334761D01*
X235604761Y-147382380D01*
X235795238Y-147382380D01*
X235890476Y-147334761D01*
X235938095Y-147287142D01*
X235985714Y-147191904D01*
X235985714Y-147001428D01*
X235938095Y-146906190D01*
X235890476Y-146858571D01*
X235795238Y-146810952D01*
G04 #@! TO.C,R15*
X174114380Y-143072857D02*
X173638190Y-143406190D01*
X174114380Y-143644285D02*
X173114380Y-143644285D01*
X173114380Y-143263333D01*
X173162000Y-143168095D01*
X173209619Y-143120476D01*
X173304857Y-143072857D01*
X173447714Y-143072857D01*
X173542952Y-143120476D01*
X173590571Y-143168095D01*
X173638190Y-143263333D01*
X173638190Y-143644285D01*
X174114380Y-142120476D02*
X174114380Y-142691904D01*
X174114380Y-142406190D02*
X173114380Y-142406190D01*
X173257238Y-142501428D01*
X173352476Y-142596666D01*
X173400095Y-142691904D01*
X173114380Y-141215714D02*
X173114380Y-141691904D01*
X173590571Y-141739523D01*
X173542952Y-141691904D01*
X173495333Y-141596666D01*
X173495333Y-141358571D01*
X173542952Y-141263333D01*
X173590571Y-141215714D01*
X173685809Y-141168095D01*
X173923904Y-141168095D01*
X174019142Y-141215714D01*
X174066761Y-141263333D01*
X174114380Y-141358571D01*
X174114380Y-141596666D01*
X174066761Y-141691904D01*
X174019142Y-141739523D01*
G04 #@! TO.C,R16*
X174114380Y-139072857D02*
X173638190Y-139406190D01*
X174114380Y-139644285D02*
X173114380Y-139644285D01*
X173114380Y-139263333D01*
X173162000Y-139168095D01*
X173209619Y-139120476D01*
X173304857Y-139072857D01*
X173447714Y-139072857D01*
X173542952Y-139120476D01*
X173590571Y-139168095D01*
X173638190Y-139263333D01*
X173638190Y-139644285D01*
X174114380Y-138120476D02*
X174114380Y-138691904D01*
X174114380Y-138406190D02*
X173114380Y-138406190D01*
X173257238Y-138501428D01*
X173352476Y-138596666D01*
X173400095Y-138691904D01*
X173114380Y-137263333D02*
X173114380Y-137453809D01*
X173162000Y-137549047D01*
X173209619Y-137596666D01*
X173352476Y-137691904D01*
X173542952Y-137739523D01*
X173923904Y-137739523D01*
X174019142Y-137691904D01*
X174066761Y-137644285D01*
X174114380Y-137549047D01*
X174114380Y-137358571D01*
X174066761Y-137263333D01*
X174019142Y-137215714D01*
X173923904Y-137168095D01*
X173685809Y-137168095D01*
X173590571Y-137215714D01*
X173542952Y-137263333D01*
X173495333Y-137358571D01*
X173495333Y-137549047D01*
X173542952Y-137644285D01*
X173590571Y-137691904D01*
X173685809Y-137739523D01*
G04 #@! TO.C,CPU1*
X237809523Y-125857142D02*
X237761904Y-125904761D01*
X237619047Y-125952380D01*
X237523809Y-125952380D01*
X237380952Y-125904761D01*
X237285714Y-125809523D01*
X237238095Y-125714285D01*
X237190476Y-125523809D01*
X237190476Y-125380952D01*
X237238095Y-125190476D01*
X237285714Y-125095238D01*
X237380952Y-125000000D01*
X237523809Y-124952380D01*
X237619047Y-124952380D01*
X237761904Y-125000000D01*
X237809523Y-125047619D01*
X238238095Y-125952380D02*
X238238095Y-124952380D01*
X238619047Y-124952380D01*
X238714285Y-125000000D01*
X238761904Y-125047619D01*
X238809523Y-125142857D01*
X238809523Y-125285714D01*
X238761904Y-125380952D01*
X238714285Y-125428571D01*
X238619047Y-125476190D01*
X238238095Y-125476190D01*
X239238095Y-124952380D02*
X239238095Y-125761904D01*
X239285714Y-125857142D01*
X239333333Y-125904761D01*
X239428571Y-125952380D01*
X239619047Y-125952380D01*
X239714285Y-125904761D01*
X239761904Y-125857142D01*
X239809523Y-125761904D01*
X239809523Y-124952380D01*
X240809523Y-125952380D02*
X240238095Y-125952380D01*
X240523809Y-125952380D02*
X240523809Y-124952380D01*
X240428571Y-125095238D01*
X240333333Y-125190476D01*
X240238095Y-125238095D01*
G04 #@! TO.C,USB1*
X255436904Y-137152380D02*
X255436904Y-137961904D01*
X255484523Y-138057142D01*
X255532142Y-138104761D01*
X255627380Y-138152380D01*
X255817857Y-138152380D01*
X255913095Y-138104761D01*
X255960714Y-138057142D01*
X256008333Y-137961904D01*
X256008333Y-137152380D01*
X256436904Y-138104761D02*
X256579761Y-138152380D01*
X256817857Y-138152380D01*
X256913095Y-138104761D01*
X256960714Y-138057142D01*
X257008333Y-137961904D01*
X257008333Y-137866666D01*
X256960714Y-137771428D01*
X256913095Y-137723809D01*
X256817857Y-137676190D01*
X256627380Y-137628571D01*
X256532142Y-137580952D01*
X256484523Y-137533333D01*
X256436904Y-137438095D01*
X256436904Y-137342857D01*
X256484523Y-137247619D01*
X256532142Y-137200000D01*
X256627380Y-137152380D01*
X256865476Y-137152380D01*
X257008333Y-137200000D01*
X257770238Y-137628571D02*
X257913095Y-137676190D01*
X257960714Y-137723809D01*
X258008333Y-137819047D01*
X258008333Y-137961904D01*
X257960714Y-138057142D01*
X257913095Y-138104761D01*
X257817857Y-138152380D01*
X257436904Y-138152380D01*
X257436904Y-137152380D01*
X257770238Y-137152380D01*
X257865476Y-137200000D01*
X257913095Y-137247619D01*
X257960714Y-137342857D01*
X257960714Y-137438095D01*
X257913095Y-137533333D01*
X257865476Y-137580952D01*
X257770238Y-137628571D01*
X257436904Y-137628571D01*
X258960714Y-138152380D02*
X258389285Y-138152380D01*
X258675000Y-138152380D02*
X258675000Y-137152380D01*
X258579761Y-137295238D01*
X258484523Y-137390476D01*
X258389285Y-137438095D01*
G04 #@! TO.C,SOCKET1*
X196905952Y-100334761D02*
X197048809Y-100382380D01*
X197286904Y-100382380D01*
X197382142Y-100334761D01*
X197429761Y-100287142D01*
X197477380Y-100191904D01*
X197477380Y-100096666D01*
X197429761Y-100001428D01*
X197382142Y-99953809D01*
X197286904Y-99906190D01*
X197096428Y-99858571D01*
X197001190Y-99810952D01*
X196953571Y-99763333D01*
X196905952Y-99668095D01*
X196905952Y-99572857D01*
X196953571Y-99477619D01*
X197001190Y-99430000D01*
X197096428Y-99382380D01*
X197334523Y-99382380D01*
X197477380Y-99430000D01*
X198096428Y-99382380D02*
X198286904Y-99382380D01*
X198382142Y-99430000D01*
X198477380Y-99525238D01*
X198525000Y-99715714D01*
X198525000Y-100049047D01*
X198477380Y-100239523D01*
X198382142Y-100334761D01*
X198286904Y-100382380D01*
X198096428Y-100382380D01*
X198001190Y-100334761D01*
X197905952Y-100239523D01*
X197858333Y-100049047D01*
X197858333Y-99715714D01*
X197905952Y-99525238D01*
X198001190Y-99430000D01*
X198096428Y-99382380D01*
X199525000Y-100287142D02*
X199477380Y-100334761D01*
X199334523Y-100382380D01*
X199239285Y-100382380D01*
X199096428Y-100334761D01*
X199001190Y-100239523D01*
X198953571Y-100144285D01*
X198905952Y-99953809D01*
X198905952Y-99810952D01*
X198953571Y-99620476D01*
X199001190Y-99525238D01*
X199096428Y-99430000D01*
X199239285Y-99382380D01*
X199334523Y-99382380D01*
X199477380Y-99430000D01*
X199525000Y-99477619D01*
X199953571Y-100382380D02*
X199953571Y-99382380D01*
X200525000Y-100382380D02*
X200096428Y-99810952D01*
X200525000Y-99382380D02*
X199953571Y-99953809D01*
X200953571Y-99858571D02*
X201286904Y-99858571D01*
X201429761Y-100382380D02*
X200953571Y-100382380D01*
X200953571Y-99382380D01*
X201429761Y-99382380D01*
X201715476Y-99382380D02*
X202286904Y-99382380D01*
X202001190Y-100382380D02*
X202001190Y-99382380D01*
X203144047Y-100382380D02*
X202572619Y-100382380D01*
X202858333Y-100382380D02*
X202858333Y-99382380D01*
X202763095Y-99525238D01*
X202667857Y-99620476D01*
X202572619Y-99668095D01*
G04 #@! TO.C,MUX1*
X219190476Y-75952380D02*
X219190476Y-74952380D01*
X219523809Y-75666666D01*
X219857142Y-74952380D01*
X219857142Y-75952380D01*
X220333333Y-74952380D02*
X220333333Y-75761904D01*
X220380952Y-75857142D01*
X220428571Y-75904761D01*
X220523809Y-75952380D01*
X220714285Y-75952380D01*
X220809523Y-75904761D01*
X220857142Y-75857142D01*
X220904761Y-75761904D01*
X220904761Y-74952380D01*
X221285714Y-74952380D02*
X221952380Y-75952380D01*
X221952380Y-74952380D02*
X221285714Y-75952380D01*
X222857142Y-75952380D02*
X222285714Y-75952380D01*
X222571428Y-75952380D02*
X222571428Y-74952380D01*
X222476190Y-75095238D01*
X222380952Y-75190476D01*
X222285714Y-75238095D01*
G04 #@! TO.C,MUX2*
X177190476Y-76452380D02*
X177190476Y-75452380D01*
X177523809Y-76166666D01*
X177857142Y-75452380D01*
X177857142Y-76452380D01*
X178333333Y-75452380D02*
X178333333Y-76261904D01*
X178380952Y-76357142D01*
X178428571Y-76404761D01*
X178523809Y-76452380D01*
X178714285Y-76452380D01*
X178809523Y-76404761D01*
X178857142Y-76357142D01*
X178904761Y-76261904D01*
X178904761Y-75452380D01*
X179285714Y-75452380D02*
X179952380Y-76452380D01*
X179952380Y-75452380D02*
X179285714Y-76452380D01*
X180285714Y-75547619D02*
X180333333Y-75500000D01*
X180428571Y-75452380D01*
X180666666Y-75452380D01*
X180761904Y-75500000D01*
X180809523Y-75547619D01*
X180857142Y-75642857D01*
X180857142Y-75738095D01*
X180809523Y-75880952D01*
X180238095Y-76452380D01*
X180857142Y-76452380D01*
G04 #@! TO.C,MUX3*
X219190476Y-112452380D02*
X219190476Y-111452380D01*
X219523809Y-112166666D01*
X219857142Y-111452380D01*
X219857142Y-112452380D01*
X220333333Y-111452380D02*
X220333333Y-112261904D01*
X220380952Y-112357142D01*
X220428571Y-112404761D01*
X220523809Y-112452380D01*
X220714285Y-112452380D01*
X220809523Y-112404761D01*
X220857142Y-112357142D01*
X220904761Y-112261904D01*
X220904761Y-111452380D01*
X221285714Y-111452380D02*
X221952380Y-112452380D01*
X221952380Y-111452380D02*
X221285714Y-112452380D01*
X222238095Y-111452380D02*
X222857142Y-111452380D01*
X222523809Y-111833333D01*
X222666666Y-111833333D01*
X222761904Y-111880952D01*
X222809523Y-111928571D01*
X222857142Y-112023809D01*
X222857142Y-112261904D01*
X222809523Y-112357142D01*
X222761904Y-112404761D01*
X222666666Y-112452380D01*
X222380952Y-112452380D01*
X222285714Y-112404761D01*
X222238095Y-112357142D01*
G04 #@! TO.C,MUX4*
X177190476Y-112452380D02*
X177190476Y-111452380D01*
X177523809Y-112166666D01*
X177857142Y-111452380D01*
X177857142Y-112452380D01*
X178333333Y-111452380D02*
X178333333Y-112261904D01*
X178380952Y-112357142D01*
X178428571Y-112404761D01*
X178523809Y-112452380D01*
X178714285Y-112452380D01*
X178809523Y-112404761D01*
X178857142Y-112357142D01*
X178904761Y-112261904D01*
X178904761Y-111452380D01*
X179285714Y-111452380D02*
X179952380Y-112452380D01*
X179952380Y-111452380D02*
X179285714Y-112452380D01*
X180761904Y-111785714D02*
X180761904Y-112452380D01*
X180523809Y-111404761D02*
X180285714Y-112119047D01*
X180904761Y-112119047D01*
G04 #@! TO.C,PROG1*
X163452380Y-122011904D02*
X162452380Y-122011904D01*
X162452380Y-121630952D01*
X162500000Y-121535714D01*
X162547619Y-121488095D01*
X162642857Y-121440476D01*
X162785714Y-121440476D01*
X162880952Y-121488095D01*
X162928571Y-121535714D01*
X162976190Y-121630952D01*
X162976190Y-122011904D01*
X163452380Y-120440476D02*
X162976190Y-120773809D01*
X163452380Y-121011904D02*
X162452380Y-121011904D01*
X162452380Y-120630952D01*
X162500000Y-120535714D01*
X162547619Y-120488095D01*
X162642857Y-120440476D01*
X162785714Y-120440476D01*
X162880952Y-120488095D01*
X162928571Y-120535714D01*
X162976190Y-120630952D01*
X162976190Y-121011904D01*
X162452380Y-119821428D02*
X162452380Y-119630952D01*
X162500000Y-119535714D01*
X162595238Y-119440476D01*
X162785714Y-119392857D01*
X163119047Y-119392857D01*
X163309523Y-119440476D01*
X163404761Y-119535714D01*
X163452380Y-119630952D01*
X163452380Y-119821428D01*
X163404761Y-119916666D01*
X163309523Y-120011904D01*
X163119047Y-120059523D01*
X162785714Y-120059523D01*
X162595238Y-120011904D01*
X162500000Y-119916666D01*
X162452380Y-119821428D01*
X162500000Y-118440476D02*
X162452380Y-118535714D01*
X162452380Y-118678571D01*
X162500000Y-118821428D01*
X162595238Y-118916666D01*
X162690476Y-118964285D01*
X162880952Y-119011904D01*
X163023809Y-119011904D01*
X163214285Y-118964285D01*
X163309523Y-118916666D01*
X163404761Y-118821428D01*
X163452380Y-118678571D01*
X163452380Y-118583333D01*
X163404761Y-118440476D01*
X163357142Y-118392857D01*
X163023809Y-118392857D01*
X163023809Y-118583333D01*
X163452380Y-117440476D02*
X163452380Y-118011904D01*
X163452380Y-117726190D02*
X162452380Y-117726190D01*
X162595238Y-117821428D01*
X162690476Y-117916666D01*
X162738095Y-118011904D01*
G04 #@! TO.C,OUT1*
X245682380Y-93476190D02*
X245682380Y-93285714D01*
X245730000Y-93190476D01*
X245825238Y-93095238D01*
X246015714Y-93047619D01*
X246349047Y-93047619D01*
X246539523Y-93095238D01*
X246634761Y-93190476D01*
X246682380Y-93285714D01*
X246682380Y-93476190D01*
X246634761Y-93571428D01*
X246539523Y-93666666D01*
X246349047Y-93714285D01*
X246015714Y-93714285D01*
X245825238Y-93666666D01*
X245730000Y-93571428D01*
X245682380Y-93476190D01*
X245682380Y-92619047D02*
X246491904Y-92619047D01*
X246587142Y-92571428D01*
X246634761Y-92523809D01*
X246682380Y-92428571D01*
X246682380Y-92238095D01*
X246634761Y-92142857D01*
X246587142Y-92095238D01*
X246491904Y-92047619D01*
X245682380Y-92047619D01*
X245682380Y-91714285D02*
X245682380Y-91142857D01*
X246682380Y-91428571D02*
X245682380Y-91428571D01*
X246682380Y-90285714D02*
X246682380Y-90857142D01*
X246682380Y-90571428D02*
X245682380Y-90571428D01*
X245825238Y-90666666D01*
X245920476Y-90761904D01*
X245968095Y-90857142D01*
G04 #@! TO.C,B1*
X179727238Y-137838571D02*
X179870095Y-137886190D01*
X179917714Y-137933809D01*
X179965333Y-138029047D01*
X179965333Y-138171904D01*
X179917714Y-138267142D01*
X179870095Y-138314761D01*
X179774857Y-138362380D01*
X179393904Y-138362380D01*
X179393904Y-137362380D01*
X179727238Y-137362380D01*
X179822476Y-137410000D01*
X179870095Y-137457619D01*
X179917714Y-137552857D01*
X179917714Y-137648095D01*
X179870095Y-137743333D01*
X179822476Y-137790952D01*
X179727238Y-137838571D01*
X179393904Y-137838571D01*
X180917714Y-138362380D02*
X180346285Y-138362380D01*
X180632000Y-138362380D02*
X180632000Y-137362380D01*
X180536761Y-137505238D01*
X180441523Y-137600476D01*
X180346285Y-137648095D01*
G04 #@! TO.C,PROG2*
X163452380Y-140941904D02*
X162452380Y-140941904D01*
X162452380Y-140560952D01*
X162500000Y-140465714D01*
X162547619Y-140418095D01*
X162642857Y-140370476D01*
X162785714Y-140370476D01*
X162880952Y-140418095D01*
X162928571Y-140465714D01*
X162976190Y-140560952D01*
X162976190Y-140941904D01*
X163452380Y-139370476D02*
X162976190Y-139703809D01*
X163452380Y-139941904D02*
X162452380Y-139941904D01*
X162452380Y-139560952D01*
X162500000Y-139465714D01*
X162547619Y-139418095D01*
X162642857Y-139370476D01*
X162785714Y-139370476D01*
X162880952Y-139418095D01*
X162928571Y-139465714D01*
X162976190Y-139560952D01*
X162976190Y-139941904D01*
X162452380Y-138751428D02*
X162452380Y-138560952D01*
X162500000Y-138465714D01*
X162595238Y-138370476D01*
X162785714Y-138322857D01*
X163119047Y-138322857D01*
X163309523Y-138370476D01*
X163404761Y-138465714D01*
X163452380Y-138560952D01*
X163452380Y-138751428D01*
X163404761Y-138846666D01*
X163309523Y-138941904D01*
X163119047Y-138989523D01*
X162785714Y-138989523D01*
X162595238Y-138941904D01*
X162500000Y-138846666D01*
X162452380Y-138751428D01*
X162500000Y-137370476D02*
X162452380Y-137465714D01*
X162452380Y-137608571D01*
X162500000Y-137751428D01*
X162595238Y-137846666D01*
X162690476Y-137894285D01*
X162880952Y-137941904D01*
X163023809Y-137941904D01*
X163214285Y-137894285D01*
X163309523Y-137846666D01*
X163404761Y-137751428D01*
X163452380Y-137608571D01*
X163452380Y-137513333D01*
X163404761Y-137370476D01*
X163357142Y-137322857D01*
X163023809Y-137322857D01*
X163023809Y-137513333D01*
X162547619Y-136941904D02*
X162500000Y-136894285D01*
X162452380Y-136799047D01*
X162452380Y-136560952D01*
X162500000Y-136465714D01*
X162547619Y-136418095D01*
X162642857Y-136370476D01*
X162738095Y-136370476D01*
X162880952Y-136418095D01*
X163452380Y-136989523D01*
X163452380Y-136370476D01*
G04 #@! TO.C,AMP1*
X220766666Y-138285714D02*
X220766666Y-137809523D01*
X221052380Y-138380952D02*
X220052380Y-138047619D01*
X221052380Y-137714285D01*
X221052380Y-137380952D02*
X220052380Y-137380952D01*
X220766666Y-137047619D01*
X220052380Y-136714285D01*
X221052380Y-136714285D01*
X221052380Y-136238095D02*
X220052380Y-136238095D01*
X220052380Y-135857142D01*
X220100000Y-135761904D01*
X220147619Y-135714285D01*
X220242857Y-135666666D01*
X220385714Y-135666666D01*
X220480952Y-135714285D01*
X220528571Y-135761904D01*
X220576190Y-135857142D01*
X220576190Y-136238095D01*
X221052380Y-134714285D02*
X221052380Y-135285714D01*
X221052380Y-135000000D02*
X220052380Y-135000000D01*
X220195238Y-135095238D01*
X220290476Y-135190476D01*
X220338095Y-135285714D01*
G04 #@! TO.C,C60*
X228287142Y-137142857D02*
X228334761Y-137190476D01*
X228382380Y-137333333D01*
X228382380Y-137428571D01*
X228334761Y-137571428D01*
X228239523Y-137666666D01*
X228144285Y-137714285D01*
X227953809Y-137761904D01*
X227810952Y-137761904D01*
X227620476Y-137714285D01*
X227525238Y-137666666D01*
X227430000Y-137571428D01*
X227382380Y-137428571D01*
X227382380Y-137333333D01*
X227430000Y-137190476D01*
X227477619Y-137142857D01*
X227382380Y-136285714D02*
X227382380Y-136476190D01*
X227430000Y-136571428D01*
X227477619Y-136619047D01*
X227620476Y-136714285D01*
X227810952Y-136761904D01*
X228191904Y-136761904D01*
X228287142Y-136714285D01*
X228334761Y-136666666D01*
X228382380Y-136571428D01*
X228382380Y-136380952D01*
X228334761Y-136285714D01*
X228287142Y-136238095D01*
X228191904Y-136190476D01*
X227953809Y-136190476D01*
X227858571Y-136238095D01*
X227810952Y-136285714D01*
X227763333Y-136380952D01*
X227763333Y-136571428D01*
X227810952Y-136666666D01*
X227858571Y-136714285D01*
X227953809Y-136761904D01*
X227382380Y-135571428D02*
X227382380Y-135476190D01*
X227430000Y-135380952D01*
X227477619Y-135333333D01*
X227572857Y-135285714D01*
X227763333Y-135238095D01*
X228001428Y-135238095D01*
X228191904Y-135285714D01*
X228287142Y-135333333D01*
X228334761Y-135380952D01*
X228382380Y-135476190D01*
X228382380Y-135571428D01*
X228334761Y-135666666D01*
X228287142Y-135714285D01*
X228191904Y-135761904D01*
X228001428Y-135809523D01*
X227763333Y-135809523D01*
X227572857Y-135761904D01*
X227477619Y-135714285D01*
X227430000Y-135666666D01*
X227382380Y-135571428D01*
G04 #@! TD*
M02*
