G04 #@! TF.GenerationSoftware,KiCad,Pcbnew,(5.0.0-3-g5ebb6b6)*
G04 #@! TF.CreationDate,2019-10-28T13:28:08-04:00*
G04 #@! TF.ProjectId,Selection Interface,53656C656374696F6E20496E74657266,rev?*
G04 #@! TF.SameCoordinates,Original*
G04 #@! TF.FileFunction,Legend,Bot*
G04 #@! TF.FilePolarity,Positive*
%FSLAX46Y46*%
G04 Gerber Fmt 4.6, Leading zero omitted, Abs format (unit mm)*
G04 Created by KiCad (PCBNEW (5.0.0-3-g5ebb6b6)) date Monday, October 28, 2019 at 01:28:08 PM*
%MOMM*%
%LPD*%
G01*
G04 APERTURE LIST*
%ADD10C,0.200000*%
G04 APERTURE END LIST*
D10*
X172085000Y-140335000D02*
X173355000Y-140335000D01*
X168910000Y-143510000D02*
X172085000Y-140335000D01*
X168910000Y-146050000D02*
X172085000Y-142875000D01*
X165735000Y-146050000D02*
X168910000Y-146050000D01*
X240665000Y-145415000D02*
X239395000Y-146685000D01*
X241300000Y-145415000D02*
X240030000Y-146685000D01*
X241300000Y-143510000D02*
X241300000Y-145415000D01*
X240665000Y-144145000D02*
X240665000Y-142875000D01*
X240665000Y-144780000D02*
X240665000Y-144145000D01*
X239395000Y-146050000D02*
X240665000Y-144780000D01*
X234315000Y-146685000D02*
X238125000Y-146685000D01*
X233045000Y-147320000D02*
X236855000Y-147320000D01*
X231775000Y-147955000D02*
X235585000Y-147955000D01*
X230505000Y-148590000D02*
X234315000Y-148590000D01*
X225425000Y-146050000D02*
X226060000Y-146685000D01*
X224155000Y-145415000D02*
X226695000Y-147955000D01*
X224155000Y-144780000D02*
X225425000Y-146050000D01*
X222885000Y-144780000D02*
X224155000Y-144780000D01*
X224790000Y-144145000D02*
X225425000Y-144780000D01*
X221615000Y-144145000D02*
X224790000Y-144145000D01*
X222885000Y-143510000D02*
X224155000Y-143510000D01*
X220345000Y-143510000D02*
X222885000Y-143510000D01*
X212725000Y-141605000D02*
X213995000Y-141605000D01*
X211455000Y-143510000D02*
X212090000Y-143510000D01*
X212090000Y-142875000D02*
X212725000Y-142875000D01*
X212090000Y-142240000D02*
X213360000Y-142240000D01*
X210820000Y-140970000D02*
X212090000Y-142240000D01*
X208915000Y-140970000D02*
X210820000Y-140970000D01*
X210820000Y-141605000D02*
X212090000Y-142875000D01*
X207645000Y-141605000D02*
X210820000Y-141605000D01*
X210185000Y-142240000D02*
X211455000Y-143510000D01*
X206375000Y-142240000D02*
X210185000Y-142240000D01*
X198120000Y-142240000D02*
X201930000Y-142240000D01*
X196850000Y-141605000D02*
X200660000Y-141605000D01*
X195580000Y-140970000D02*
X199390000Y-140970000D01*
X194310000Y-140335000D02*
X198120000Y-140335000D01*
X182880000Y-142240000D02*
X186690000Y-142240000D01*
X184150000Y-141605000D02*
X187960000Y-141605000D01*
X185420000Y-140970000D02*
X189230000Y-140970000D01*
X186690000Y-140335000D02*
X190500000Y-140335000D01*
X159385000Y-126492000D02*
X161544000Y-128651000D01*
X159385000Y-126365000D02*
X159385000Y-126492000D01*
X163068000Y-131318000D02*
X163068000Y-132080000D01*
X162560000Y-130810000D02*
X163068000Y-131318000D01*
X156845000Y-133731000D02*
X157480000Y-134366000D01*
X156845000Y-133350000D02*
X156845000Y-133731000D01*
X156845000Y-123190000D02*
X156845000Y-133350000D01*
X158115000Y-123825000D02*
X158115000Y-129540000D01*
X160655000Y-128905000D02*
X162560000Y-130810000D01*
X158750000Y-127000000D02*
X160655000Y-128905000D01*
X158750000Y-124460000D02*
X158750000Y-127000000D01*
X159385000Y-125095000D02*
X159385000Y-126365000D01*
X159385000Y-120650000D02*
X159385000Y-116205000D01*
X158750000Y-114935000D02*
X158750000Y-119380000D01*
X158115000Y-113665000D02*
X158115000Y-118110000D01*
X156845000Y-112395000D02*
X156845000Y-116205000D01*
X156845000Y-90170000D02*
X156845000Y-99695000D01*
X160020000Y-86995000D02*
X156845000Y-90170000D01*
X161290000Y-86995000D02*
X160020000Y-86995000D01*
X158115000Y-90170000D02*
X158115000Y-98425000D01*
X160020000Y-88265000D02*
X158115000Y-90170000D01*
X162560000Y-88265000D02*
X160020000Y-88265000D01*
X159385000Y-90805000D02*
X159385000Y-97155000D01*
X161290000Y-88900000D02*
X159385000Y-90805000D01*
X163830000Y-88900000D02*
X161290000Y-88900000D01*
X244221000Y-124714000D02*
X244983000Y-123952000D01*
X242697000Y-124968000D02*
X243459000Y-124206000D01*
X243078000Y-123190000D02*
X243586000Y-122682000D01*
X248920000Y-128905000D02*
X245110000Y-132715000D01*
X245110000Y-131445000D02*
X248285000Y-128270000D01*
X247650000Y-127635000D02*
X245110000Y-130175000D01*
X247015000Y-127000000D02*
X245110000Y-128905000D01*
X245745000Y-124460000D02*
X246380000Y-123825000D01*
X245745000Y-126111000D02*
X245745000Y-124460000D01*
X241427000Y-124841000D02*
X243078000Y-123190000D01*
X240538000Y-124841000D02*
X241427000Y-124841000D01*
X243205000Y-125730000D02*
X244221000Y-124714000D01*
X243205000Y-128016000D02*
X243205000Y-125730000D01*
X240411000Y-127254000D02*
X242697000Y-124968000D01*
X251206000Y-108966000D02*
X251206000Y-139954000D01*
X249809000Y-113284000D02*
X249809000Y-128016000D01*
X249047000Y-110490000D02*
X249047000Y-127508000D01*
X247523000Y-109347000D02*
X247523000Y-126365000D01*
X246761000Y-108966000D02*
X246761000Y-123444000D01*
X245999000Y-108458000D02*
X245999000Y-122936000D01*
X245237000Y-107950000D02*
X245237000Y-122301000D01*
X248285000Y-109855000D02*
X248285000Y-127000000D01*
X244475000Y-107315000D02*
X244475000Y-121920000D01*
X243205000Y-102870000D02*
X243205000Y-114935000D01*
X242570000Y-100965000D02*
X242570000Y-113665000D01*
X241935000Y-92710000D02*
X241935000Y-109220000D01*
X161000000Y-133000000D02*
X165000000Y-133000000D01*
X161000000Y-144000000D02*
X161000000Y-133000000D01*
X165000000Y-144000000D02*
X161000000Y-144000000D01*
X165000000Y-133000000D02*
X165000000Y-144000000D01*
X161000000Y-125000000D02*
X161000000Y-114000000D01*
X165000000Y-125000000D02*
X161000000Y-125000000D01*
X165000000Y-114000000D02*
X165000000Y-125000000D01*
X161000000Y-114000000D02*
X165000000Y-114000000D01*
X175965000Y-140000000D02*
X175965000Y-136000000D01*
X184965000Y-140000000D02*
X175965000Y-140000000D01*
X184965000Y-136000000D02*
X184965000Y-140000000D01*
X175965000Y-136000000D02*
X184965000Y-136000000D01*
X210000000Y-110000000D02*
X210000000Y-90000000D01*
X190000000Y-110000000D02*
X210000000Y-110000000D01*
X190000000Y-90000000D02*
X190000000Y-110000000D01*
X213000000Y-87000000D02*
X187000000Y-87000000D01*
X213000000Y-113000000D02*
X213000000Y-87000000D01*
X187000000Y-113000000D02*
X213000000Y-113000000D01*
X187000000Y-87000000D02*
X187000000Y-113000000D01*
X255000000Y-139245000D02*
X257000000Y-139245000D01*
X255000000Y-141245000D02*
X255000000Y-139245000D01*
X253000000Y-141245000D02*
X255000000Y-141245000D01*
X253000000Y-146245000D02*
X253000000Y-141245000D01*
X255000000Y-146245000D02*
X253000000Y-146245000D01*
X255000000Y-148245000D02*
X255000000Y-146245000D01*
X257000000Y-148245000D02*
X255000000Y-148245000D01*
X257000000Y-139245000D02*
X257000000Y-148245000D01*
X254000000Y-96000000D02*
X257000000Y-94500000D01*
X257000000Y-97500000D02*
X254000000Y-96000000D01*
X254000000Y-101500000D02*
X257000000Y-100000000D01*
X257000000Y-103000000D02*
X254000000Y-101500000D01*
X254000000Y-107000000D02*
X257000000Y-105500000D01*
X257000000Y-108500000D02*
X254000000Y-107000000D01*
X254000000Y-112500000D02*
X257000000Y-111000000D01*
X257000000Y-114000000D02*
X254000000Y-112500000D01*
X254000000Y-118000000D02*
X257000000Y-116500000D01*
X254000000Y-118000000D02*
X257000000Y-119500000D01*
X257000000Y-116500000D02*
X257000000Y-119500000D01*
X257000000Y-111000000D02*
X257000000Y-114000000D01*
X257000000Y-105500000D02*
X257000000Y-108500000D01*
X257000000Y-100000000D02*
X257000000Y-103000000D01*
X257000000Y-94500000D02*
X257000000Y-97500000D01*
X254000000Y-90500000D02*
X257000000Y-89000000D01*
X257000000Y-92000000D02*
X254000000Y-90500000D01*
X257000000Y-89000000D02*
X257000000Y-92000000D01*
X254000000Y-85000000D02*
X257000000Y-83500000D01*
X257000000Y-86500000D02*
X254000000Y-85000000D01*
X257000000Y-83500000D02*
X257000000Y-86500000D01*
X244475000Y-103600000D02*
X244475000Y-80105000D01*
X247650000Y-103600000D02*
X244475000Y-103600000D01*
X247650000Y-80105000D02*
X247650000Y-103600000D01*
X244475000Y-80105000D02*
X247650000Y-80105000D01*
X231140000Y-81915000D02*
X231140000Y-88265000D01*
X233130000Y-140535000D02*
X233130000Y-129105000D01*
X244560000Y-140535000D02*
X233130000Y-140535000D01*
X244560000Y-129105000D02*
X244560000Y-140535000D01*
X233130000Y-129105000D02*
X244560000Y-129105000D01*
X180975000Y-127635000D02*
X179070000Y-125730000D01*
X194945000Y-127635000D02*
X180975000Y-127635000D01*
X200660000Y-121920000D02*
X194945000Y-127635000D01*
X201295000Y-121920000D02*
X200660000Y-121920000D01*
X206375000Y-121920000D02*
X201295000Y-121920000D01*
X212725000Y-128270000D02*
X206375000Y-121920000D01*
X220345000Y-128270000D02*
X212725000Y-128270000D01*
X222885000Y-125730000D02*
X220345000Y-128270000D01*
X231140000Y-115570000D02*
X228600000Y-118110000D01*
X231140000Y-110490000D02*
X231140000Y-115570000D01*
X230505000Y-109855000D02*
X231140000Y-110490000D01*
X231140000Y-110490000D02*
X230505000Y-109855000D01*
X221615000Y-100965000D02*
X230505000Y-109855000D01*
X221615000Y-97790000D02*
X221615000Y-100965000D01*
X231140000Y-88265000D02*
X221615000Y-97790000D01*
X228600000Y-79375000D02*
X231140000Y-81915000D01*
X219075000Y-71755000D02*
X220980000Y-73660000D01*
X213360000Y-71755000D02*
X219075000Y-71755000D01*
X207010000Y-78105000D02*
X213360000Y-71755000D01*
X192405000Y-78105000D02*
X207010000Y-78105000D01*
X186055000Y-71755000D02*
X192405000Y-78105000D01*
X179705000Y-71755000D02*
X186055000Y-71755000D01*
X177165000Y-74295000D02*
X179705000Y-71755000D01*
X169545000Y-83820000D02*
X171450000Y-81915000D01*
X168910000Y-117475000D02*
X171450000Y-120015000D01*
X168910000Y-111125000D02*
X168910000Y-117475000D01*
X179070000Y-100965000D02*
X168910000Y-111125000D01*
X179070000Y-99060000D02*
X179070000Y-100965000D01*
X169545000Y-89535000D02*
X179070000Y-99060000D01*
X169545000Y-83820000D02*
X169545000Y-89535000D01*
X176530000Y-115570000D02*
X181610000Y-115570000D01*
X176530000Y-120650000D02*
X176530000Y-115570000D01*
X181610000Y-120650000D02*
X176530000Y-120650000D01*
X181610000Y-115570000D02*
X181610000Y-120650000D01*
X218440000Y-115570000D02*
X223520000Y-115570000D01*
X218440000Y-120650000D02*
X218440000Y-115570000D01*
X223520000Y-120650000D02*
X218440000Y-120650000D01*
X223520000Y-115570000D02*
X223520000Y-120650000D01*
X218440000Y-84455000D02*
X220345000Y-84455000D01*
X218440000Y-83185000D02*
X218440000Y-84455000D01*
X218440000Y-79375000D02*
X218440000Y-83185000D01*
X223520000Y-84455000D02*
X220345000Y-84455000D01*
X223520000Y-79375000D02*
X223520000Y-84455000D01*
X218440000Y-79375000D02*
X223520000Y-79375000D01*
X181610000Y-79375000D02*
X176530000Y-79375000D01*
X181610000Y-84455000D02*
X181610000Y-79375000D01*
X176530000Y-84455000D02*
X181610000Y-84455000D01*
X176530000Y-79375000D02*
X176530000Y-84455000D01*
M02*
