G04 #@! TF.FileFunction,Copper,L3,Inr,Signal*
%FSLAX46Y46*%
G04 Gerber Fmt 4.6, Leading zero omitted, Abs format (unit mm)*
G04 Created by KiCad (PCBNEW 4.0.5) date Monday, February 26, 2018 'PMt' 12:55:55 PM*
%MOMM*%
%LPD*%
G01*
G04 APERTURE LIST*
%ADD10C,0.100000*%
%ADD11C,6.500000*%
%ADD12C,0.600000*%
%ADD13C,0.254000*%
G04 APERTURE END LIST*
D10*
D11*
X163830000Y-108585000D03*
X163830000Y-100965000D03*
X163830000Y-93345000D03*
X235585000Y-109220000D03*
X235585000Y-101600000D03*
X235585000Y-93980000D03*
D12*
X157480000Y-160020000D03*
X160020000Y-160020000D03*
X162560000Y-160020000D03*
X165100000Y-160020000D03*
X167640000Y-160020000D03*
X170180000Y-160020000D03*
X172720000Y-160020000D03*
X175260000Y-160020000D03*
X177800000Y-160020000D03*
X180340000Y-160020000D03*
X182880000Y-160020000D03*
X185420000Y-160020000D03*
X187960000Y-160020000D03*
X190500000Y-160020000D03*
X193040000Y-160020000D03*
X195580000Y-160020000D03*
X198120000Y-160020000D03*
X200660000Y-160020000D03*
X203200000Y-160020000D03*
X205740000Y-160020000D03*
X208280000Y-160020000D03*
X210820000Y-160020000D03*
X213360000Y-160020000D03*
X215900000Y-160020000D03*
X218440000Y-160020000D03*
X220980000Y-160020000D03*
X223520000Y-160020000D03*
X226060000Y-160020000D03*
X228600000Y-160020000D03*
X231140000Y-160020000D03*
X233680000Y-160020000D03*
X236220000Y-160020000D03*
X238760000Y-160020000D03*
X241300000Y-160020000D03*
X243840000Y-160020000D03*
X246380000Y-160020000D03*
X157480000Y-121920000D03*
X157480000Y-119380000D03*
X157480000Y-116840000D03*
X160020000Y-116840000D03*
X157480000Y-91440000D03*
X157480000Y-93980000D03*
X157480000Y-96520000D03*
X157480000Y-99060000D03*
X157480000Y-101600000D03*
X157480000Y-104140000D03*
X157480000Y-106680000D03*
X157480000Y-109220000D03*
X157480000Y-111760000D03*
X157480000Y-114300000D03*
X160020000Y-114300000D03*
X162560000Y-114300000D03*
X165100000Y-114300000D03*
X167640000Y-111760000D03*
X170180000Y-109220000D03*
X170180000Y-106680000D03*
X170180000Y-104140000D03*
X170180000Y-101600000D03*
X170180000Y-99060000D03*
X170180000Y-96520000D03*
X170180000Y-93980000D03*
X170180000Y-91440000D03*
X172720000Y-88900000D03*
X170180000Y-88900000D03*
X167640000Y-88900000D03*
X165100000Y-88900000D03*
X162560000Y-88900000D03*
X160020000Y-88900000D03*
X157480000Y-88900000D03*
X157480000Y-86360000D03*
X160020000Y-86360000D03*
X162560000Y-86360000D03*
X165100000Y-86360000D03*
X167640000Y-86360000D03*
X170180000Y-86360000D03*
X172720000Y-86360000D03*
X175260000Y-86360000D03*
X180340000Y-81280000D03*
X177800000Y-81280000D03*
X177800000Y-83820000D03*
X175260000Y-83820000D03*
X175260000Y-81280000D03*
X172720000Y-81280000D03*
X172720000Y-83820000D03*
X170180000Y-83820000D03*
X170180000Y-81280000D03*
X167640000Y-81280000D03*
X167640000Y-83820000D03*
X165100000Y-83820000D03*
X165100000Y-81280000D03*
X162560000Y-81280000D03*
X162560000Y-83820000D03*
X160020000Y-83820000D03*
X157480000Y-83820000D03*
X157480000Y-81280000D03*
X160020000Y-81280000D03*
X160020000Y-78740000D03*
X160020000Y-76200000D03*
X157480000Y-76200000D03*
X157480000Y-78740000D03*
X162560000Y-78740000D03*
X162560000Y-76200000D03*
X165100000Y-76200000D03*
X165100000Y-78740000D03*
X167640000Y-78740000D03*
X167640000Y-76200000D03*
X170180000Y-76200000D03*
X170180000Y-78740000D03*
X172720000Y-78740000D03*
X172720000Y-76200000D03*
X175260000Y-76200000D03*
X175260000Y-78740000D03*
X177800000Y-78740000D03*
X177800000Y-76200000D03*
X180340000Y-76200000D03*
X180340000Y-78740000D03*
X182880000Y-78740000D03*
X182880000Y-76200000D03*
X185420000Y-76200000D03*
X185420000Y-78740000D03*
X187960000Y-78740000D03*
X187960000Y-76200000D03*
X190500000Y-76200000D03*
X190500000Y-78740000D03*
X193040000Y-78740000D03*
X193040000Y-76200000D03*
X195580000Y-76200000D03*
X195580000Y-78740000D03*
X198120000Y-78740000D03*
X198120000Y-76200000D03*
X200660000Y-76200000D03*
X203200000Y-76200000D03*
X205740000Y-76200000D03*
X205740000Y-78740000D03*
X203200000Y-78740000D03*
X200660000Y-78740000D03*
X200660000Y-81280000D03*
X203200000Y-81280000D03*
X223520000Y-83820000D03*
X226060000Y-83820000D03*
X226060000Y-86360000D03*
X228600000Y-86360000D03*
X241300000Y-119380000D03*
X241300000Y-116840000D03*
X238760000Y-116840000D03*
X236220000Y-116840000D03*
X233680000Y-114300000D03*
X236220000Y-114300000D03*
X238760000Y-114300000D03*
X241300000Y-114300000D03*
X231140000Y-86360000D03*
X233680000Y-86360000D03*
X236220000Y-86360000D03*
X238760000Y-86360000D03*
X241300000Y-86360000D03*
X241300000Y-88900000D03*
X241300000Y-91440000D03*
X243840000Y-93980000D03*
X243840000Y-96520000D03*
X243840000Y-99060000D03*
X243840000Y-101600000D03*
X243840000Y-104140000D03*
X243840000Y-106680000D03*
X243840000Y-109220000D03*
X243840000Y-111760000D03*
X243840000Y-114300000D03*
X243840000Y-116840000D03*
X243840000Y-119380000D03*
X246380000Y-121920000D03*
X246380000Y-119380000D03*
X246380000Y-116840000D03*
X246380000Y-114300000D03*
X246380000Y-111760000D03*
X246380000Y-109220000D03*
X246380000Y-106680000D03*
X246380000Y-104140000D03*
X246380000Y-101600000D03*
X246380000Y-99060000D03*
X246380000Y-96520000D03*
X248920000Y-96520000D03*
X248920000Y-99060000D03*
X248920000Y-101600000D03*
X248920000Y-104140000D03*
X248920000Y-106680000D03*
X248920000Y-109220000D03*
X248920000Y-111760000D03*
X248920000Y-114300000D03*
X248920000Y-116840000D03*
X248920000Y-119380000D03*
X248920000Y-121920000D03*
X200660000Y-101600000D03*
X200660000Y-99060000D03*
X198120000Y-99060000D03*
X198120000Y-101600000D03*
X198120000Y-104140000D03*
X200660000Y-104140000D03*
X203200000Y-104140000D03*
X203200000Y-101600000D03*
X203200000Y-99060000D03*
X203200000Y-96520000D03*
X200660000Y-96520000D03*
X198120000Y-96520000D03*
X195580000Y-96520000D03*
X195580000Y-99060000D03*
X195580000Y-101600000D03*
X195580000Y-104140000D03*
X195580000Y-106680000D03*
X198120000Y-106680000D03*
X200660000Y-106680000D03*
X203200000Y-106680000D03*
X205740000Y-106680000D03*
X205740000Y-104140000D03*
X205740000Y-101600000D03*
X205740000Y-99060000D03*
X205740000Y-96520000D03*
X205740000Y-93980000D03*
X203200000Y-93980000D03*
X200660000Y-93980000D03*
X198120000Y-93980000D03*
X195580000Y-93980000D03*
X193040000Y-93980000D03*
X193040000Y-96520000D03*
X193040000Y-99060000D03*
X193040000Y-101600000D03*
X193040000Y-104140000D03*
X193040000Y-106680000D03*
X193040000Y-109220000D03*
X195580000Y-109220000D03*
X198120000Y-109220000D03*
X200660000Y-109220000D03*
X203200000Y-109220000D03*
X205740000Y-109220000D03*
X208280000Y-109220000D03*
X208280000Y-106680000D03*
X208280000Y-104140000D03*
X208280000Y-101600000D03*
X208280000Y-99060000D03*
X208280000Y-96520000D03*
X208280000Y-93980000D03*
X208280000Y-91440000D03*
X205740000Y-91440000D03*
X203200000Y-91440000D03*
X200660000Y-91440000D03*
X198120000Y-91440000D03*
X195580000Y-91440000D03*
X193040000Y-91440000D03*
X248666000Y-159004000D03*
X248666000Y-153416000D03*
X248666000Y-150114000D03*
X248666000Y-144526000D03*
X248666000Y-141224000D03*
X248666000Y-135636000D03*
X248666000Y-132334000D03*
X248666000Y-126746000D03*
X190500000Y-85145379D03*
X238760000Y-123825000D03*
X238760000Y-124460000D03*
X238760000Y-132715000D03*
X238760000Y-133350000D03*
X238760000Y-141605000D03*
X238760000Y-142240000D03*
X238760000Y-150495000D03*
X238760000Y-151130000D03*
X190500000Y-86360000D03*
X242570000Y-124460000D03*
X242570000Y-123825000D03*
X242570000Y-132715000D03*
X242570000Y-133350000D03*
X242570000Y-141605000D03*
X242570000Y-142240000D03*
X242570000Y-150495000D03*
X242570000Y-151130000D03*
X201930000Y-115570000D03*
X201930000Y-114300000D03*
X241300000Y-124460000D03*
X241300000Y-123825000D03*
X241300000Y-132715000D03*
X241300000Y-133350000D03*
X241300000Y-141605000D03*
X241300000Y-142240000D03*
X241300000Y-150495000D03*
X241300000Y-151130000D03*
X200660000Y-115570000D03*
X200660000Y-114300000D03*
X240030000Y-123825000D03*
X240030000Y-124460000D03*
X240030000Y-132715000D03*
X240030000Y-133350000D03*
X240030000Y-141605000D03*
X240030000Y-142240000D03*
X240030000Y-150495000D03*
X240030000Y-151130000D03*
X190500000Y-115570000D03*
X190500000Y-114300000D03*
X237490000Y-123825000D03*
X237490000Y-124460000D03*
X237490000Y-132715000D03*
X237490000Y-133350000D03*
X237490000Y-141605000D03*
X237490000Y-142240000D03*
X237490000Y-150495000D03*
X237490000Y-151130000D03*
X201930000Y-85090000D03*
X201930000Y-86360000D03*
X236220000Y-123825000D03*
X236220000Y-124460000D03*
X236220000Y-132715000D03*
X236220000Y-133350000D03*
X236220000Y-141605000D03*
X236220000Y-142240000D03*
X236220000Y-150495000D03*
X236220000Y-151130000D03*
X203200000Y-85090000D03*
X203200000Y-86360000D03*
X234950000Y-123825000D03*
X234950000Y-124460000D03*
X234950000Y-132715000D03*
X234950000Y-133350000D03*
X234950000Y-141605000D03*
X234950000Y-142240000D03*
X234950000Y-150495000D03*
X234950000Y-151130000D03*
X204470000Y-85090000D03*
X204470000Y-86360000D03*
X233680000Y-123825000D03*
X233680000Y-124460000D03*
X233680000Y-132715000D03*
X233680000Y-133350000D03*
X233680000Y-141605000D03*
X233680000Y-142240000D03*
X233680000Y-150495000D03*
X233680000Y-151130000D03*
X205740000Y-85090000D03*
X205740000Y-86360000D03*
X232410000Y-123825000D03*
X232410000Y-124460000D03*
X232410000Y-132715000D03*
X232410000Y-133350000D03*
X232410000Y-141605000D03*
X232410000Y-142240000D03*
X232410000Y-150495000D03*
X232410000Y-151130000D03*
X207010000Y-85090000D03*
X207010000Y-86360000D03*
X231140000Y-123825000D03*
X231140000Y-124460000D03*
X231140000Y-132715000D03*
X231140000Y-133350000D03*
X231140000Y-141605000D03*
X231140000Y-142240000D03*
X231140000Y-150495000D03*
X231140000Y-151130000D03*
X208280000Y-85090000D03*
X208280000Y-86360000D03*
X229870000Y-123825000D03*
X229870000Y-124460000D03*
X229870000Y-132715000D03*
X229870000Y-133350000D03*
X229870000Y-141605000D03*
X229870000Y-142240000D03*
X229870000Y-150495000D03*
X229870000Y-151130000D03*
X209550000Y-85090000D03*
X209550000Y-86360000D03*
X210820000Y-85136010D03*
X228600000Y-123825000D03*
X228600000Y-124460000D03*
X228600000Y-132715000D03*
X228600000Y-133350000D03*
X228600000Y-141605000D03*
X228600000Y-142240000D03*
X228600000Y-150495000D03*
X228600000Y-151130000D03*
X210820000Y-86360000D03*
X227330000Y-123825000D03*
X227330000Y-124460000D03*
X227330000Y-132715000D03*
X227330000Y-133350000D03*
X227330000Y-141605000D03*
X227330000Y-142240000D03*
X227330000Y-150495000D03*
X227330000Y-151130000D03*
X215900000Y-90170000D03*
X214630000Y-90170000D03*
X226060000Y-123825000D03*
X226060000Y-124460000D03*
X226060000Y-132715000D03*
X226060000Y-133350000D03*
X226060000Y-141605000D03*
X226060000Y-142240000D03*
X226060000Y-150495000D03*
X226060000Y-151130000D03*
X215900000Y-91440000D03*
X214630000Y-91440000D03*
X224790000Y-123825000D03*
X224790000Y-124460000D03*
X224790000Y-132715000D03*
X224790000Y-133350000D03*
X224790000Y-141605000D03*
X224790000Y-142240000D03*
X224790000Y-150495000D03*
X224790000Y-151130000D03*
X215900000Y-92710000D03*
X214630000Y-92710000D03*
X223520000Y-123825000D03*
X223520000Y-124460000D03*
X223520000Y-132715000D03*
X223520000Y-133350000D03*
X223520000Y-141605000D03*
X223520000Y-142240000D03*
X223520000Y-150495000D03*
X223520000Y-151130000D03*
X215900000Y-93980000D03*
X214630000Y-93980000D03*
X222250000Y-123825000D03*
X222250000Y-124460000D03*
X222250000Y-132715000D03*
X222250000Y-133350000D03*
X222250000Y-141605000D03*
X222250000Y-142240000D03*
X222250000Y-150495000D03*
X222250000Y-151130000D03*
X215900000Y-95250000D03*
X214630000Y-95250000D03*
X220980000Y-123825000D03*
X220980000Y-124460000D03*
X220980000Y-132715000D03*
X220980000Y-133350000D03*
X220980000Y-141605000D03*
X220980000Y-142240000D03*
X220980000Y-150495000D03*
X220980000Y-151130000D03*
X215900000Y-96520000D03*
X214630000Y-96520000D03*
X219710000Y-123825000D03*
X219710000Y-124460000D03*
X219710000Y-132715000D03*
X219710000Y-133350000D03*
X219710000Y-141605000D03*
X219710000Y-142240000D03*
X219710000Y-150495000D03*
X219710000Y-151130000D03*
X215900000Y-97790000D03*
X214630000Y-97790000D03*
X218440000Y-123825000D03*
X218440000Y-124460000D03*
X218440000Y-132715000D03*
X218440000Y-133350000D03*
X218440000Y-141605000D03*
X218440000Y-142240000D03*
X218440000Y-150495000D03*
X218440000Y-151130000D03*
X215900000Y-99060000D03*
X214630000Y-99060000D03*
X217170000Y-123825000D03*
X217170000Y-124460000D03*
X217170000Y-132715000D03*
X217170000Y-133350000D03*
X217170000Y-141605000D03*
X217170000Y-142240000D03*
X217170000Y-150495000D03*
X217170000Y-151130000D03*
X215900000Y-100330000D03*
X214630000Y-100330000D03*
X215900000Y-123825000D03*
X215900000Y-124460000D03*
X215900000Y-132715000D03*
X215900000Y-133350000D03*
X215900000Y-141605000D03*
X215900000Y-142240000D03*
X215900000Y-150495000D03*
X215900000Y-151130000D03*
X215900000Y-101600000D03*
X214630000Y-101600000D03*
X214630000Y-123825000D03*
X214630000Y-124460000D03*
X214630000Y-132715000D03*
X214630000Y-133350000D03*
X214630000Y-141605000D03*
X214630000Y-142240000D03*
X214630000Y-150495000D03*
X214630000Y-151130000D03*
X215900000Y-102870000D03*
X214630000Y-102870000D03*
X213360000Y-123825000D03*
X213360000Y-124460000D03*
X213360000Y-132715000D03*
X213360000Y-133350000D03*
X213360000Y-141605000D03*
X213360000Y-142240000D03*
X213360000Y-150495000D03*
X213360000Y-151130000D03*
X215900000Y-104140000D03*
X214630000Y-104140000D03*
X212090000Y-123825000D03*
X212090000Y-124460000D03*
X212090000Y-132715000D03*
X212090000Y-133350000D03*
X212090000Y-141605000D03*
X212090000Y-142240000D03*
X212090000Y-150495000D03*
X212090000Y-151130000D03*
X215900000Y-105410000D03*
X214630000Y-105410000D03*
X210820000Y-123825000D03*
X210820000Y-124460000D03*
X210820000Y-132715000D03*
X210820000Y-133350000D03*
X210820000Y-141605000D03*
X210820000Y-142240000D03*
X210820000Y-150495000D03*
X210820000Y-151130000D03*
X215900000Y-106680000D03*
X214630000Y-106680000D03*
X209550000Y-123825000D03*
X209550000Y-124460000D03*
X209550000Y-132715000D03*
X209550000Y-133350000D03*
X209550000Y-141605000D03*
X209550000Y-142240000D03*
X209550000Y-150495000D03*
X209550000Y-151130000D03*
X215900000Y-107950000D03*
X214630000Y-107950000D03*
X208280000Y-123825000D03*
X208280000Y-124460000D03*
X208280000Y-132715000D03*
X208280000Y-133350000D03*
X208280000Y-141605000D03*
X208280000Y-142240000D03*
X208280000Y-150495000D03*
X208280000Y-151130000D03*
X215900000Y-109220000D03*
X214630000Y-109220000D03*
X215880263Y-110490000D03*
X207010000Y-123825000D03*
X207010000Y-124460000D03*
X207010000Y-132715000D03*
X207010000Y-133350000D03*
X207010000Y-141605000D03*
X207010000Y-142240000D03*
X207010000Y-150495000D03*
X207010000Y-151130000D03*
X214630000Y-110490000D03*
X205740000Y-123825000D03*
X205740000Y-124460000D03*
X205740000Y-132715000D03*
X205740000Y-133350000D03*
X205740000Y-141605000D03*
X205740000Y-142240000D03*
X205740000Y-150495000D03*
X205740000Y-151130000D03*
X210820000Y-115570000D03*
X210820000Y-114300000D03*
X204470000Y-123825000D03*
X204470000Y-124460000D03*
X204470000Y-132715000D03*
X204470000Y-133350000D03*
X204470000Y-141605000D03*
X204470000Y-142240000D03*
X204470000Y-150495000D03*
X204470000Y-151130000D03*
X209550000Y-115570000D03*
X209550000Y-114300000D03*
X203200000Y-123825000D03*
X203200000Y-124460000D03*
X203200000Y-132715000D03*
X203200000Y-133350000D03*
X203200000Y-141605000D03*
X203200000Y-142240000D03*
X203200000Y-150495000D03*
X203200000Y-151130000D03*
X208280000Y-115570000D03*
X208280000Y-114300000D03*
X201930000Y-123825000D03*
X201930000Y-124460000D03*
X201930000Y-132715000D03*
X201930000Y-133350000D03*
X201930000Y-141605000D03*
X201930000Y-142240000D03*
X201930000Y-150495000D03*
X201930000Y-151130000D03*
X207010000Y-115570000D03*
X207010000Y-114300000D03*
X200660000Y-123825000D03*
X200660000Y-124460000D03*
X200660000Y-132715000D03*
X200660000Y-133350000D03*
X200660000Y-141605000D03*
X200660000Y-142240000D03*
X200660000Y-150495000D03*
X200660000Y-151130000D03*
X205740000Y-115570000D03*
X205740000Y-114300000D03*
X199390000Y-123825000D03*
X199390000Y-124460000D03*
X199390000Y-132715000D03*
X199390000Y-133350000D03*
X199390000Y-141605000D03*
X199390000Y-142240000D03*
X199390000Y-150495000D03*
X199390000Y-151130000D03*
X204470000Y-115570000D03*
X204470000Y-114300000D03*
X198120000Y-123825000D03*
X198120000Y-124460000D03*
X198120000Y-132715000D03*
X198120000Y-133350000D03*
X198120000Y-141605000D03*
X198120000Y-142240000D03*
X198120000Y-150495000D03*
X198120000Y-151130000D03*
X203200000Y-115570000D03*
X203200000Y-114300000D03*
X196850000Y-123825000D03*
X196850000Y-124460000D03*
X196850000Y-132715000D03*
X196850000Y-133350000D03*
X196850000Y-141605000D03*
X196850000Y-142240000D03*
X196850000Y-150495000D03*
X196850000Y-151130000D03*
X199390000Y-115570000D03*
X199390000Y-114300000D03*
X195580000Y-123825000D03*
X195580000Y-124460000D03*
X195580000Y-132715000D03*
X195580000Y-133350000D03*
X195580000Y-141605000D03*
X195580000Y-142240000D03*
X195580000Y-150495000D03*
X195580000Y-151130000D03*
X198120000Y-115570000D03*
X198120000Y-114300000D03*
X194310000Y-123825000D03*
X194310000Y-124460000D03*
X194310000Y-132715000D03*
X194310000Y-133350000D03*
X194310000Y-141605000D03*
X194310000Y-142240000D03*
X194310000Y-150495000D03*
X194310000Y-151130000D03*
X196850000Y-115570000D03*
X196850000Y-114300000D03*
X193040000Y-123825000D03*
X193040000Y-124460000D03*
X193040000Y-132715000D03*
X193040000Y-133350000D03*
X193040000Y-141605000D03*
X193040000Y-142240000D03*
X193040000Y-150495000D03*
X193040000Y-151130000D03*
X195580000Y-115570000D03*
X195580000Y-114300000D03*
X191770000Y-123825000D03*
X191770000Y-124460000D03*
X191770000Y-132715000D03*
X191770000Y-133350000D03*
X191770000Y-141605000D03*
X191770000Y-142240000D03*
X191770000Y-150495000D03*
X191770000Y-151130000D03*
X194310000Y-115570000D03*
X194310000Y-114300000D03*
X190500000Y-123825000D03*
X190500000Y-124460000D03*
X190500000Y-132715000D03*
X190500000Y-133350000D03*
X190500000Y-141605000D03*
X190500000Y-142240000D03*
X190500000Y-150495000D03*
X190500000Y-151130000D03*
X193040000Y-115570000D03*
X193040000Y-114300000D03*
X189230000Y-123825000D03*
X189230000Y-124460000D03*
X189230000Y-132715000D03*
X189230000Y-133350000D03*
X189230000Y-141605000D03*
X189230000Y-142240000D03*
X189230000Y-150495000D03*
X189230000Y-151130000D03*
X191770000Y-115570000D03*
X191770000Y-114300000D03*
X185619404Y-110490000D03*
X187960000Y-123825000D03*
X187960000Y-124460000D03*
X187960000Y-132715000D03*
X187960000Y-133350000D03*
X187960000Y-141605000D03*
X187960000Y-142240000D03*
X187960000Y-150495000D03*
X187960000Y-151130000D03*
X186690000Y-110490000D03*
X186690000Y-123825000D03*
X186690000Y-124460000D03*
X186690000Y-132715000D03*
X186690000Y-133350000D03*
X186690000Y-141605000D03*
X186690000Y-142240000D03*
X186690000Y-150495000D03*
X186690000Y-151130000D03*
X185420000Y-109220000D03*
X186690000Y-109220000D03*
X185420000Y-123825000D03*
X185420000Y-124460000D03*
X185420000Y-132715000D03*
X185420000Y-133350000D03*
X185420000Y-141605000D03*
X185420000Y-142240000D03*
X185420000Y-150495000D03*
X185420000Y-151130000D03*
X185420000Y-107950000D03*
X186690000Y-107950000D03*
X184150000Y-123825000D03*
X184150000Y-124460000D03*
X184150000Y-132715000D03*
X184150000Y-133350000D03*
X184150000Y-141605000D03*
X184150000Y-142240000D03*
X184150000Y-150495000D03*
X184150000Y-151130000D03*
X185420000Y-106680000D03*
X186690000Y-106680000D03*
X182880000Y-123825000D03*
X182880000Y-124460000D03*
X182880000Y-132715000D03*
X182880000Y-133350000D03*
X182880000Y-141605000D03*
X182880000Y-142240000D03*
X182880000Y-150495000D03*
X182880000Y-151130000D03*
X185420000Y-105410000D03*
X186690000Y-105410000D03*
X181610000Y-123825000D03*
X181610000Y-124460000D03*
X181610000Y-132715000D03*
X181610000Y-133350000D03*
X181610000Y-141605000D03*
X181610000Y-142240000D03*
X181610000Y-150495000D03*
X181610000Y-151130000D03*
X185420000Y-104140000D03*
X186690000Y-104140000D03*
X180340000Y-123825000D03*
X180340000Y-124460000D03*
X180340000Y-132715000D03*
X180340000Y-133350000D03*
X180340000Y-141605000D03*
X180340000Y-142240000D03*
X180340000Y-150495000D03*
X180340000Y-151130000D03*
X185420000Y-102870000D03*
X186690000Y-102870000D03*
X179070000Y-123825000D03*
X179070000Y-124460000D03*
X179070000Y-132715000D03*
X179070000Y-133350000D03*
X179070000Y-141605000D03*
X179070000Y-142240000D03*
X179070000Y-150495000D03*
X179070000Y-151130000D03*
X185420000Y-101600000D03*
X186690000Y-101600000D03*
X177800000Y-123825000D03*
X177800000Y-124460000D03*
X177800000Y-132715000D03*
X177800000Y-133350000D03*
X177800000Y-141605000D03*
X177800000Y-142240000D03*
X177800000Y-150495000D03*
X177800000Y-151130000D03*
X185420000Y-100330000D03*
X186690000Y-100330000D03*
X176530000Y-123825000D03*
X176530000Y-124460000D03*
X176530000Y-132715000D03*
X176530000Y-133350000D03*
X176530000Y-141605000D03*
X176530000Y-142240000D03*
X176530000Y-150495000D03*
X176530000Y-151130000D03*
X185420000Y-99060000D03*
X186690000Y-99060000D03*
X175260000Y-123825000D03*
X175260000Y-124460000D03*
X175260000Y-132715000D03*
X175260000Y-133350000D03*
X175260000Y-141605000D03*
X175260000Y-142240000D03*
X175260000Y-150495000D03*
X175260000Y-151130000D03*
X185420000Y-97790000D03*
X186690000Y-97790000D03*
X173990000Y-123825000D03*
X173990000Y-124460000D03*
X173990000Y-132715000D03*
X173990000Y-133350000D03*
X173990000Y-141605000D03*
X173990000Y-142240000D03*
X173990000Y-150495000D03*
X173990000Y-151130000D03*
X185420000Y-96520000D03*
X186690000Y-96520000D03*
X172720000Y-123825000D03*
X172720000Y-124460000D03*
X172720000Y-132715000D03*
X172720000Y-133350000D03*
X172720000Y-141605000D03*
X172720000Y-142240000D03*
X172720000Y-150495000D03*
X172720000Y-151130000D03*
X185420000Y-95250000D03*
X186690000Y-95250000D03*
X171450000Y-123825000D03*
X171450000Y-124460000D03*
X171450000Y-132715000D03*
X171450000Y-133350000D03*
X171450000Y-141605000D03*
X171450000Y-142240000D03*
X171450000Y-150495000D03*
X171450000Y-151130000D03*
X185420000Y-93980000D03*
X186690000Y-93980000D03*
X170180000Y-123825000D03*
X170180000Y-124460000D03*
X170180000Y-132715000D03*
X170180000Y-133350000D03*
X170180000Y-141605000D03*
X170180000Y-142240000D03*
X170180000Y-150495000D03*
X170180000Y-151130000D03*
X185420000Y-92710000D03*
X186690000Y-92710000D03*
X168910000Y-123825000D03*
X168910000Y-124460000D03*
X168910000Y-132715000D03*
X168910000Y-133350000D03*
X168910000Y-141605000D03*
X168910000Y-142240000D03*
X168910000Y-150495000D03*
X168910000Y-151130000D03*
X185420000Y-91440000D03*
X186690000Y-91440000D03*
X167640000Y-123825000D03*
X167640000Y-124460000D03*
X167640000Y-132715000D03*
X167640000Y-133350000D03*
X167640000Y-141605000D03*
X167640000Y-142240000D03*
X167640000Y-150495000D03*
X167640000Y-151130000D03*
X185420000Y-90170000D03*
X186690000Y-90170000D03*
X166370000Y-123825000D03*
X166370000Y-124460000D03*
X166370000Y-132715000D03*
X166370000Y-133350000D03*
X166370000Y-141605000D03*
X166370000Y-142240000D03*
X166370000Y-150495000D03*
X166370000Y-151130000D03*
X191770000Y-85090000D03*
X191770000Y-86360000D03*
X165100000Y-123825000D03*
X165100000Y-124460000D03*
X165100000Y-132715000D03*
X165100000Y-133350000D03*
X165100000Y-141605000D03*
X165100000Y-142240000D03*
X165100000Y-150495000D03*
X165100000Y-151130000D03*
X193040000Y-85090000D03*
X193040000Y-86360000D03*
X163830000Y-123825000D03*
X163830000Y-124460000D03*
X163830000Y-132715000D03*
X163830000Y-133350000D03*
X163830000Y-141605000D03*
X163830000Y-142240000D03*
X163830000Y-150495000D03*
X163830000Y-151130000D03*
X194310000Y-85090000D03*
X194310000Y-86360000D03*
X162560000Y-123825000D03*
X162560000Y-124460000D03*
X162560000Y-132715000D03*
X162560000Y-133350000D03*
X162560000Y-141605000D03*
X162560000Y-142240000D03*
X162560000Y-150495000D03*
X162560000Y-151130000D03*
X195580000Y-85090000D03*
X195580000Y-86360000D03*
X161290000Y-123825000D03*
X161290000Y-124460000D03*
X161290000Y-132715000D03*
X161290000Y-133350000D03*
X161290000Y-141605000D03*
X161290000Y-142240000D03*
X161290000Y-150495000D03*
X161290000Y-151130000D03*
X196850000Y-85090000D03*
X196850000Y-86360000D03*
X160020000Y-123825000D03*
X160020000Y-124460000D03*
X160020000Y-132715000D03*
X160020000Y-133350000D03*
X160020000Y-141605000D03*
X160020000Y-142240000D03*
X160020000Y-150495000D03*
X160020000Y-151130000D03*
X198120000Y-85090000D03*
X198120000Y-86360000D03*
X158750000Y-123825000D03*
X158750000Y-124460000D03*
X158750000Y-132715000D03*
X158750000Y-133350000D03*
X158750000Y-141605000D03*
X158750000Y-142240000D03*
X158750000Y-150495000D03*
X158750000Y-151130000D03*
X199390000Y-85090000D03*
X199390000Y-86360000D03*
X157480000Y-123825000D03*
X157480000Y-124460000D03*
X157480000Y-132715000D03*
X157480000Y-133350000D03*
X157480000Y-141605000D03*
X157480000Y-142240000D03*
X157480000Y-150495000D03*
X157480000Y-151130000D03*
X200660000Y-85090000D03*
X200660000Y-86360000D03*
D13*
X190500000Y-86360000D02*
X190500000Y-85145379D01*
X238760000Y-151130000D02*
X238760000Y-123825000D01*
X201930000Y-115570000D02*
X204470000Y-118110000D01*
X204470000Y-118110000D02*
X236855000Y-118110000D01*
X236855000Y-118110000D02*
X242570000Y-123825000D01*
X242570000Y-151130000D02*
X242570000Y-123825000D01*
X201930000Y-114300000D02*
X201930000Y-115570000D01*
X202565000Y-118745000D02*
X236220000Y-118745000D01*
X236220000Y-118745000D02*
X241300000Y-123825000D01*
X200660000Y-116840000D02*
X202565000Y-118745000D01*
X200660000Y-115570000D02*
X200660000Y-116840000D01*
X241300000Y-151130000D02*
X241300000Y-123825000D01*
X200660000Y-114300000D02*
X200660000Y-115570000D01*
X190500000Y-115570000D02*
X194310000Y-119380000D01*
X235585000Y-119380000D02*
X240030000Y-123825000D01*
X194310000Y-119380000D02*
X235585000Y-119380000D01*
X240030000Y-151130000D02*
X240030000Y-123825000D01*
X190500000Y-114300000D02*
X190500000Y-115570000D01*
X237490000Y-151130000D02*
X237490000Y-123825000D01*
X201930000Y-86360000D02*
X201930000Y-85090000D01*
X236220000Y-151130000D02*
X236220000Y-123825000D01*
X203200000Y-86360000D02*
X203200000Y-85090000D01*
X234950000Y-151130000D02*
X234950000Y-123825000D01*
X204470000Y-86360000D02*
X204470000Y-85090000D01*
X233680000Y-151130000D02*
X233680000Y-123825000D01*
X205740000Y-86360000D02*
X205740000Y-85090000D01*
X232410000Y-151130000D02*
X232410000Y-123825000D01*
X207010000Y-86360000D02*
X207010000Y-85090000D01*
X231140000Y-151130000D02*
X231140000Y-123825000D01*
X208280000Y-86360000D02*
X208280000Y-85090000D01*
X229870000Y-151130000D02*
X229870000Y-123825000D01*
X209550000Y-86360000D02*
X209550000Y-85090000D01*
X210820000Y-86360000D02*
X210820000Y-85136010D01*
X228600000Y-151130000D02*
X228600000Y-123825000D01*
X227330000Y-151130000D02*
X227330000Y-123825000D01*
X214630000Y-90170000D02*
X215900000Y-90170000D01*
X226060000Y-151130000D02*
X226060000Y-123825000D01*
X214630000Y-91440000D02*
X215900000Y-91440000D01*
X224790000Y-151130000D02*
X224790000Y-123825000D01*
X214630000Y-92710000D02*
X215900000Y-92710000D01*
X223520000Y-151130000D02*
X223520000Y-123825000D01*
X214630000Y-93980000D02*
X215900000Y-93980000D01*
X222250000Y-151130000D02*
X222250000Y-123825000D01*
X214630000Y-95250000D02*
X215900000Y-95250000D01*
X220980000Y-151130000D02*
X220980000Y-123825000D01*
X214630000Y-96520000D02*
X215900000Y-96520000D01*
X219710000Y-151130000D02*
X219710000Y-123825000D01*
X214630000Y-97790000D02*
X215900000Y-97790000D01*
X218440000Y-151130000D02*
X218440000Y-123825000D01*
X214630000Y-99060000D02*
X215900000Y-99060000D01*
X217170000Y-151130000D02*
X217170000Y-123825000D01*
X214630000Y-100330000D02*
X215900000Y-100330000D01*
X215900000Y-151130000D02*
X215900000Y-123825000D01*
X214630000Y-101600000D02*
X215900000Y-101600000D01*
X214630000Y-151130000D02*
X214630000Y-123825000D01*
X214630000Y-102870000D02*
X215900000Y-102870000D01*
X213360000Y-151130000D02*
X213360000Y-123825000D01*
X214630000Y-104140000D02*
X215900000Y-104140000D01*
X212090000Y-151130000D02*
X212090000Y-123825000D01*
X214630000Y-105410000D02*
X215900000Y-105410000D01*
X210820000Y-151130000D02*
X210820000Y-123825000D01*
X214630000Y-106680000D02*
X215900000Y-106680000D01*
X209550000Y-151130000D02*
X209550000Y-123825000D01*
X214630000Y-107950000D02*
X215900000Y-107950000D01*
X208280000Y-151130000D02*
X208280000Y-123825000D01*
X214630000Y-109220000D02*
X215900000Y-109220000D01*
X214630000Y-110490000D02*
X215880263Y-110490000D01*
X207010000Y-151130000D02*
X207010000Y-123825000D01*
X205740000Y-151130000D02*
X205740000Y-123825000D01*
X210820000Y-114300000D02*
X210820000Y-115570000D01*
X204470000Y-151130000D02*
X204470000Y-123825000D01*
X209550000Y-114300000D02*
X209550000Y-115570000D01*
X203200000Y-151130000D02*
X203200000Y-123825000D01*
X208280000Y-114300000D02*
X208280000Y-115570000D01*
X201930000Y-151130000D02*
X201930000Y-123825000D01*
X207010000Y-114300000D02*
X207010000Y-115570000D01*
X200660000Y-151130000D02*
X200660000Y-123825000D01*
X205740000Y-114300000D02*
X205740000Y-115570000D01*
X199390000Y-151130000D02*
X199390000Y-123825000D01*
X204470000Y-114300000D02*
X204470000Y-115570000D01*
X198120000Y-151130000D02*
X198120000Y-123825000D01*
X203200000Y-114300000D02*
X203200000Y-115570000D01*
X196850000Y-151130000D02*
X196850000Y-123825000D01*
X199390000Y-114300000D02*
X199390000Y-115570000D01*
X195580000Y-151130000D02*
X195580000Y-123825000D01*
X198120000Y-114300000D02*
X198120000Y-115570000D01*
X194310000Y-151130000D02*
X194310000Y-123825000D01*
X196850000Y-114300000D02*
X196850000Y-115570000D01*
X193040000Y-151130000D02*
X193040000Y-123825000D01*
X195580000Y-114300000D02*
X195580000Y-115570000D01*
X191770000Y-151130000D02*
X191770000Y-123825000D01*
X194310000Y-114300000D02*
X194310000Y-115570000D01*
X190500000Y-151130000D02*
X190500000Y-123825000D01*
X193040000Y-114300000D02*
X193040000Y-115570000D01*
X189230000Y-151130000D02*
X189230000Y-123825000D01*
X191770000Y-114300000D02*
X191770000Y-115570000D01*
X186690000Y-110490000D02*
X185619404Y-110490000D01*
X187960000Y-151130000D02*
X187960000Y-123825000D01*
X186690000Y-151130000D02*
X186690000Y-123825000D01*
X186690000Y-109220000D02*
X185420000Y-109220000D01*
X185420000Y-151130000D02*
X185420000Y-123825000D01*
X186690000Y-107950000D02*
X185420000Y-107950000D01*
X184150000Y-151130000D02*
X184150000Y-123825000D01*
X186690000Y-106680000D02*
X185420000Y-106680000D01*
X182880000Y-151130000D02*
X182880000Y-123825000D01*
X186690000Y-105410000D02*
X185420000Y-105410000D01*
X181610000Y-151130000D02*
X181610000Y-123825000D01*
X186690000Y-104140000D02*
X185420000Y-104140000D01*
X180340000Y-151130000D02*
X180340000Y-123825000D01*
X186690000Y-102870000D02*
X185420000Y-102870000D01*
X179070000Y-151130000D02*
X179070000Y-123825000D01*
X186690000Y-101600000D02*
X185420000Y-101600000D01*
X177800000Y-151130000D02*
X177800000Y-123825000D01*
X186690000Y-100330000D02*
X185420000Y-100330000D01*
X176530000Y-151130000D02*
X176530000Y-123825000D01*
X186690000Y-99060000D02*
X185420000Y-99060000D01*
X175260000Y-151130000D02*
X175260000Y-123825000D01*
X186690000Y-97790000D02*
X185420000Y-97790000D01*
X173990000Y-151130000D02*
X173990000Y-123825000D01*
X186690000Y-96520000D02*
X185420000Y-96520000D01*
X172720000Y-151130000D02*
X172720000Y-123825000D01*
X186690000Y-95250000D02*
X185420000Y-95250000D01*
X171450000Y-151130000D02*
X171450000Y-123825000D01*
X186690000Y-93980000D02*
X185420000Y-93980000D01*
X170180000Y-151130000D02*
X170180000Y-123825000D01*
X186690000Y-92710000D02*
X185420000Y-92710000D01*
X168910000Y-151130000D02*
X168910000Y-123825000D01*
X186690000Y-91440000D02*
X185420000Y-91440000D01*
X167640000Y-151130000D02*
X167640000Y-123825000D01*
X186690000Y-90170000D02*
X185420000Y-90170000D01*
X166370000Y-151130000D02*
X166370000Y-123825000D01*
X191770000Y-86360000D02*
X191770000Y-85090000D01*
X165100000Y-151130000D02*
X165100000Y-123825000D01*
X193040000Y-86360000D02*
X193040000Y-85090000D01*
X163830000Y-151130000D02*
X163830000Y-123825000D01*
X194310000Y-86360000D02*
X194310000Y-85090000D01*
X162560000Y-151130000D02*
X162560000Y-123825000D01*
X195580000Y-86360000D02*
X195580000Y-85090000D01*
X161290000Y-151130000D02*
X161290000Y-123825000D01*
X196850000Y-86360000D02*
X196850000Y-85090000D01*
X160020000Y-151130000D02*
X160020000Y-123825000D01*
X198120000Y-86360000D02*
X198120000Y-85090000D01*
X158750000Y-151130000D02*
X158750000Y-123825000D01*
X199390000Y-86360000D02*
X199390000Y-85090000D01*
X157480000Y-151130000D02*
X157480000Y-123825000D01*
X200660000Y-86360000D02*
X200660000Y-85090000D01*
G36*
X251290000Y-77294092D02*
X251290000Y-158705908D01*
X247705908Y-162290000D01*
X159236667Y-162290000D01*
X155710000Y-159645000D01*
X155710000Y-124010167D01*
X156544838Y-124010167D01*
X156599476Y-124142400D01*
X156545162Y-124273201D01*
X156544838Y-124645167D01*
X156686883Y-124988943D01*
X156718000Y-125020114D01*
X156718000Y-132154534D01*
X156687808Y-132184673D01*
X156545162Y-132528201D01*
X156544838Y-132900167D01*
X156599476Y-133032400D01*
X156545162Y-133163201D01*
X156544838Y-133535167D01*
X156686883Y-133878943D01*
X156718000Y-133910114D01*
X156718000Y-141044534D01*
X156687808Y-141074673D01*
X156545162Y-141418201D01*
X156544838Y-141790167D01*
X156599476Y-141922400D01*
X156545162Y-142053201D01*
X156544838Y-142425167D01*
X156686883Y-142768943D01*
X156718000Y-142800114D01*
X156718000Y-149934534D01*
X156687808Y-149964673D01*
X156545162Y-150308201D01*
X156544838Y-150680167D01*
X156599476Y-150812400D01*
X156545162Y-150943201D01*
X156544838Y-151315167D01*
X156686883Y-151658943D01*
X156949673Y-151922192D01*
X157293201Y-152064838D01*
X157665167Y-152065162D01*
X158008943Y-151923117D01*
X158114954Y-151817290D01*
X158219673Y-151922192D01*
X158563201Y-152064838D01*
X158935167Y-152065162D01*
X159278943Y-151923117D01*
X159384954Y-151817290D01*
X159489673Y-151922192D01*
X159833201Y-152064838D01*
X160205167Y-152065162D01*
X160548943Y-151923117D01*
X160654954Y-151817290D01*
X160759673Y-151922192D01*
X161103201Y-152064838D01*
X161475167Y-152065162D01*
X161818943Y-151923117D01*
X161924954Y-151817290D01*
X162029673Y-151922192D01*
X162373201Y-152064838D01*
X162745167Y-152065162D01*
X163088943Y-151923117D01*
X163194954Y-151817290D01*
X163299673Y-151922192D01*
X163643201Y-152064838D01*
X164015167Y-152065162D01*
X164358943Y-151923117D01*
X164464954Y-151817290D01*
X164569673Y-151922192D01*
X164913201Y-152064838D01*
X165285167Y-152065162D01*
X165628943Y-151923117D01*
X165734954Y-151817290D01*
X165839673Y-151922192D01*
X166183201Y-152064838D01*
X166555167Y-152065162D01*
X166898943Y-151923117D01*
X167004954Y-151817290D01*
X167109673Y-151922192D01*
X167453201Y-152064838D01*
X167825167Y-152065162D01*
X168168943Y-151923117D01*
X168274954Y-151817290D01*
X168379673Y-151922192D01*
X168723201Y-152064838D01*
X169095167Y-152065162D01*
X169438943Y-151923117D01*
X169544954Y-151817290D01*
X169649673Y-151922192D01*
X169993201Y-152064838D01*
X170365167Y-152065162D01*
X170708943Y-151923117D01*
X170814954Y-151817290D01*
X170919673Y-151922192D01*
X171263201Y-152064838D01*
X171635167Y-152065162D01*
X171978943Y-151923117D01*
X172084954Y-151817290D01*
X172189673Y-151922192D01*
X172533201Y-152064838D01*
X172905167Y-152065162D01*
X173248943Y-151923117D01*
X173354954Y-151817290D01*
X173459673Y-151922192D01*
X173803201Y-152064838D01*
X174175167Y-152065162D01*
X174518943Y-151923117D01*
X174624954Y-151817290D01*
X174729673Y-151922192D01*
X175073201Y-152064838D01*
X175445167Y-152065162D01*
X175788943Y-151923117D01*
X175894954Y-151817290D01*
X175999673Y-151922192D01*
X176343201Y-152064838D01*
X176715167Y-152065162D01*
X177058943Y-151923117D01*
X177164954Y-151817290D01*
X177269673Y-151922192D01*
X177613201Y-152064838D01*
X177985167Y-152065162D01*
X178328943Y-151923117D01*
X178434954Y-151817290D01*
X178539673Y-151922192D01*
X178883201Y-152064838D01*
X179255167Y-152065162D01*
X179598943Y-151923117D01*
X179704954Y-151817290D01*
X179809673Y-151922192D01*
X180153201Y-152064838D01*
X180525167Y-152065162D01*
X180868943Y-151923117D01*
X180974954Y-151817290D01*
X181079673Y-151922192D01*
X181423201Y-152064838D01*
X181795167Y-152065162D01*
X182138943Y-151923117D01*
X182244954Y-151817290D01*
X182349673Y-151922192D01*
X182693201Y-152064838D01*
X183065167Y-152065162D01*
X183408943Y-151923117D01*
X183514954Y-151817290D01*
X183619673Y-151922192D01*
X183963201Y-152064838D01*
X184335167Y-152065162D01*
X184678943Y-151923117D01*
X184784954Y-151817290D01*
X184889673Y-151922192D01*
X185233201Y-152064838D01*
X185605167Y-152065162D01*
X185948943Y-151923117D01*
X186054954Y-151817290D01*
X186159673Y-151922192D01*
X186503201Y-152064838D01*
X186875167Y-152065162D01*
X187218943Y-151923117D01*
X187324954Y-151817290D01*
X187429673Y-151922192D01*
X187773201Y-152064838D01*
X188145167Y-152065162D01*
X188488943Y-151923117D01*
X188594954Y-151817290D01*
X188699673Y-151922192D01*
X189043201Y-152064838D01*
X189415167Y-152065162D01*
X189758943Y-151923117D01*
X189864954Y-151817290D01*
X189969673Y-151922192D01*
X190313201Y-152064838D01*
X190685167Y-152065162D01*
X191028943Y-151923117D01*
X191134954Y-151817290D01*
X191239673Y-151922192D01*
X191583201Y-152064838D01*
X191955167Y-152065162D01*
X192298943Y-151923117D01*
X192404954Y-151817290D01*
X192509673Y-151922192D01*
X192853201Y-152064838D01*
X193225167Y-152065162D01*
X193568943Y-151923117D01*
X193674954Y-151817290D01*
X193779673Y-151922192D01*
X194123201Y-152064838D01*
X194495167Y-152065162D01*
X194838943Y-151923117D01*
X194944954Y-151817290D01*
X195049673Y-151922192D01*
X195393201Y-152064838D01*
X195765167Y-152065162D01*
X196108943Y-151923117D01*
X196214954Y-151817290D01*
X196319673Y-151922192D01*
X196663201Y-152064838D01*
X197035167Y-152065162D01*
X197378943Y-151923117D01*
X197484954Y-151817290D01*
X197589673Y-151922192D01*
X197933201Y-152064838D01*
X198305167Y-152065162D01*
X198648943Y-151923117D01*
X198754954Y-151817290D01*
X198859673Y-151922192D01*
X199203201Y-152064838D01*
X199575167Y-152065162D01*
X199918943Y-151923117D01*
X200024954Y-151817290D01*
X200129673Y-151922192D01*
X200473201Y-152064838D01*
X200845167Y-152065162D01*
X201188943Y-151923117D01*
X201294954Y-151817290D01*
X201399673Y-151922192D01*
X201743201Y-152064838D01*
X202115167Y-152065162D01*
X202458943Y-151923117D01*
X202564954Y-151817290D01*
X202669673Y-151922192D01*
X203013201Y-152064838D01*
X203385167Y-152065162D01*
X203728943Y-151923117D01*
X203834954Y-151817290D01*
X203939673Y-151922192D01*
X204283201Y-152064838D01*
X204655167Y-152065162D01*
X204998943Y-151923117D01*
X205104954Y-151817290D01*
X205209673Y-151922192D01*
X205553201Y-152064838D01*
X205925167Y-152065162D01*
X206268943Y-151923117D01*
X206374954Y-151817290D01*
X206479673Y-151922192D01*
X206823201Y-152064838D01*
X207195167Y-152065162D01*
X207538943Y-151923117D01*
X207644954Y-151817290D01*
X207749673Y-151922192D01*
X208093201Y-152064838D01*
X208465167Y-152065162D01*
X208808943Y-151923117D01*
X208914954Y-151817290D01*
X209019673Y-151922192D01*
X209363201Y-152064838D01*
X209735167Y-152065162D01*
X210078943Y-151923117D01*
X210184954Y-151817290D01*
X210289673Y-151922192D01*
X210633201Y-152064838D01*
X211005167Y-152065162D01*
X211348943Y-151923117D01*
X211454954Y-151817290D01*
X211559673Y-151922192D01*
X211903201Y-152064838D01*
X212275167Y-152065162D01*
X212618943Y-151923117D01*
X212724954Y-151817290D01*
X212829673Y-151922192D01*
X213173201Y-152064838D01*
X213545167Y-152065162D01*
X213888943Y-151923117D01*
X213994954Y-151817290D01*
X214099673Y-151922192D01*
X214443201Y-152064838D01*
X214815167Y-152065162D01*
X215158943Y-151923117D01*
X215264954Y-151817290D01*
X215369673Y-151922192D01*
X215713201Y-152064838D01*
X216085167Y-152065162D01*
X216428943Y-151923117D01*
X216534954Y-151817290D01*
X216639673Y-151922192D01*
X216983201Y-152064838D01*
X217355167Y-152065162D01*
X217698943Y-151923117D01*
X217804954Y-151817290D01*
X217909673Y-151922192D01*
X218253201Y-152064838D01*
X218625167Y-152065162D01*
X218968943Y-151923117D01*
X219074954Y-151817290D01*
X219179673Y-151922192D01*
X219523201Y-152064838D01*
X219895167Y-152065162D01*
X220238943Y-151923117D01*
X220344954Y-151817290D01*
X220449673Y-151922192D01*
X220793201Y-152064838D01*
X221165167Y-152065162D01*
X221508943Y-151923117D01*
X221614954Y-151817290D01*
X221719673Y-151922192D01*
X222063201Y-152064838D01*
X222435167Y-152065162D01*
X222778943Y-151923117D01*
X222884954Y-151817290D01*
X222989673Y-151922192D01*
X223333201Y-152064838D01*
X223705167Y-152065162D01*
X224048943Y-151923117D01*
X224154954Y-151817290D01*
X224259673Y-151922192D01*
X224603201Y-152064838D01*
X224975167Y-152065162D01*
X225318943Y-151923117D01*
X225424954Y-151817290D01*
X225529673Y-151922192D01*
X225873201Y-152064838D01*
X226245167Y-152065162D01*
X226588943Y-151923117D01*
X226694954Y-151817290D01*
X226799673Y-151922192D01*
X227143201Y-152064838D01*
X227515167Y-152065162D01*
X227858943Y-151923117D01*
X227964954Y-151817290D01*
X228069673Y-151922192D01*
X228413201Y-152064838D01*
X228785167Y-152065162D01*
X229128943Y-151923117D01*
X229234954Y-151817290D01*
X229339673Y-151922192D01*
X229683201Y-152064838D01*
X230055167Y-152065162D01*
X230398943Y-151923117D01*
X230504954Y-151817290D01*
X230609673Y-151922192D01*
X230953201Y-152064838D01*
X231325167Y-152065162D01*
X231668943Y-151923117D01*
X231774954Y-151817290D01*
X231879673Y-151922192D01*
X232223201Y-152064838D01*
X232595167Y-152065162D01*
X232938943Y-151923117D01*
X233044954Y-151817290D01*
X233149673Y-151922192D01*
X233493201Y-152064838D01*
X233865167Y-152065162D01*
X234208943Y-151923117D01*
X234314954Y-151817290D01*
X234419673Y-151922192D01*
X234763201Y-152064838D01*
X235135167Y-152065162D01*
X235478943Y-151923117D01*
X235584954Y-151817290D01*
X235689673Y-151922192D01*
X236033201Y-152064838D01*
X236405167Y-152065162D01*
X236748943Y-151923117D01*
X236854954Y-151817290D01*
X236959673Y-151922192D01*
X237303201Y-152064838D01*
X237675167Y-152065162D01*
X238018943Y-151923117D01*
X238282192Y-151660327D01*
X238424838Y-151316799D01*
X238425162Y-150944833D01*
X238370524Y-150812600D01*
X238424838Y-150681799D01*
X238425162Y-150309833D01*
X238283117Y-149966057D01*
X238252000Y-149934886D01*
X238252000Y-142800466D01*
X238282192Y-142770327D01*
X238424838Y-142426799D01*
X238425162Y-142054833D01*
X238370524Y-141922600D01*
X238424838Y-141791799D01*
X238425162Y-141419833D01*
X238283117Y-141076057D01*
X238252000Y-141044886D01*
X238252000Y-133910466D01*
X238282192Y-133880327D01*
X238424838Y-133536799D01*
X238425162Y-133164833D01*
X238370524Y-133032600D01*
X238424838Y-132901799D01*
X238425162Y-132529833D01*
X238283117Y-132186057D01*
X238252000Y-132154886D01*
X238252000Y-125020466D01*
X238282192Y-124990327D01*
X238424838Y-124646799D01*
X238425162Y-124274833D01*
X238370524Y-124142600D01*
X238424838Y-124011799D01*
X238425162Y-123639833D01*
X238283117Y-123296057D01*
X238020327Y-123032808D01*
X237676799Y-122890162D01*
X237304833Y-122889838D01*
X236961057Y-123031883D01*
X236855046Y-123137710D01*
X236750327Y-123032808D01*
X236406799Y-122890162D01*
X236034833Y-122889838D01*
X235691057Y-123031883D01*
X235585046Y-123137710D01*
X235480327Y-123032808D01*
X235136799Y-122890162D01*
X234764833Y-122889838D01*
X234421057Y-123031883D01*
X234315046Y-123137710D01*
X234210327Y-123032808D01*
X233866799Y-122890162D01*
X233494833Y-122889838D01*
X233151057Y-123031883D01*
X233045046Y-123137710D01*
X232940327Y-123032808D01*
X232596799Y-122890162D01*
X232224833Y-122889838D01*
X231881057Y-123031883D01*
X231775046Y-123137710D01*
X231670327Y-123032808D01*
X231326799Y-122890162D01*
X230954833Y-122889838D01*
X230611057Y-123031883D01*
X230505046Y-123137710D01*
X230400327Y-123032808D01*
X230056799Y-122890162D01*
X229684833Y-122889838D01*
X229341057Y-123031883D01*
X229235046Y-123137710D01*
X229130327Y-123032808D01*
X228786799Y-122890162D01*
X228414833Y-122889838D01*
X228071057Y-123031883D01*
X227965046Y-123137710D01*
X227860327Y-123032808D01*
X227516799Y-122890162D01*
X227144833Y-122889838D01*
X226801057Y-123031883D01*
X226695046Y-123137710D01*
X226590327Y-123032808D01*
X226246799Y-122890162D01*
X225874833Y-122889838D01*
X225531057Y-123031883D01*
X225425046Y-123137710D01*
X225320327Y-123032808D01*
X224976799Y-122890162D01*
X224604833Y-122889838D01*
X224261057Y-123031883D01*
X224155046Y-123137710D01*
X224050327Y-123032808D01*
X223706799Y-122890162D01*
X223334833Y-122889838D01*
X222991057Y-123031883D01*
X222885046Y-123137710D01*
X222780327Y-123032808D01*
X222436799Y-122890162D01*
X222064833Y-122889838D01*
X221721057Y-123031883D01*
X221615046Y-123137710D01*
X221510327Y-123032808D01*
X221166799Y-122890162D01*
X220794833Y-122889838D01*
X220451057Y-123031883D01*
X220345046Y-123137710D01*
X220240327Y-123032808D01*
X219896799Y-122890162D01*
X219524833Y-122889838D01*
X219181057Y-123031883D01*
X219075046Y-123137710D01*
X218970327Y-123032808D01*
X218626799Y-122890162D01*
X218254833Y-122889838D01*
X217911057Y-123031883D01*
X217805046Y-123137710D01*
X217700327Y-123032808D01*
X217356799Y-122890162D01*
X216984833Y-122889838D01*
X216641057Y-123031883D01*
X216535046Y-123137710D01*
X216430327Y-123032808D01*
X216086799Y-122890162D01*
X215714833Y-122889838D01*
X215371057Y-123031883D01*
X215265046Y-123137710D01*
X215160327Y-123032808D01*
X214816799Y-122890162D01*
X214444833Y-122889838D01*
X214101057Y-123031883D01*
X213995046Y-123137710D01*
X213890327Y-123032808D01*
X213546799Y-122890162D01*
X213174833Y-122889838D01*
X212831057Y-123031883D01*
X212725046Y-123137710D01*
X212620327Y-123032808D01*
X212276799Y-122890162D01*
X211904833Y-122889838D01*
X211561057Y-123031883D01*
X211455046Y-123137710D01*
X211350327Y-123032808D01*
X211006799Y-122890162D01*
X210634833Y-122889838D01*
X210291057Y-123031883D01*
X210185046Y-123137710D01*
X210080327Y-123032808D01*
X209736799Y-122890162D01*
X209364833Y-122889838D01*
X209021057Y-123031883D01*
X208915046Y-123137710D01*
X208810327Y-123032808D01*
X208466799Y-122890162D01*
X208094833Y-122889838D01*
X207751057Y-123031883D01*
X207645046Y-123137710D01*
X207540327Y-123032808D01*
X207196799Y-122890162D01*
X206824833Y-122889838D01*
X206481057Y-123031883D01*
X206375046Y-123137710D01*
X206270327Y-123032808D01*
X205926799Y-122890162D01*
X205554833Y-122889838D01*
X205211057Y-123031883D01*
X205105046Y-123137710D01*
X205000327Y-123032808D01*
X204656799Y-122890162D01*
X204284833Y-122889838D01*
X203941057Y-123031883D01*
X203835046Y-123137710D01*
X203730327Y-123032808D01*
X203386799Y-122890162D01*
X203014833Y-122889838D01*
X202671057Y-123031883D01*
X202565046Y-123137710D01*
X202460327Y-123032808D01*
X202116799Y-122890162D01*
X201744833Y-122889838D01*
X201401057Y-123031883D01*
X201295046Y-123137710D01*
X201190327Y-123032808D01*
X200846799Y-122890162D01*
X200474833Y-122889838D01*
X200131057Y-123031883D01*
X200025046Y-123137710D01*
X199920327Y-123032808D01*
X199576799Y-122890162D01*
X199204833Y-122889838D01*
X198861057Y-123031883D01*
X198755046Y-123137710D01*
X198650327Y-123032808D01*
X198306799Y-122890162D01*
X197934833Y-122889838D01*
X197591057Y-123031883D01*
X197485046Y-123137710D01*
X197380327Y-123032808D01*
X197036799Y-122890162D01*
X196664833Y-122889838D01*
X196321057Y-123031883D01*
X196215046Y-123137710D01*
X196110327Y-123032808D01*
X195766799Y-122890162D01*
X195394833Y-122889838D01*
X195051057Y-123031883D01*
X194945046Y-123137710D01*
X194840327Y-123032808D01*
X194496799Y-122890162D01*
X194124833Y-122889838D01*
X193781057Y-123031883D01*
X193675046Y-123137710D01*
X193570327Y-123032808D01*
X193226799Y-122890162D01*
X192854833Y-122889838D01*
X192511057Y-123031883D01*
X192405046Y-123137710D01*
X192300327Y-123032808D01*
X191956799Y-122890162D01*
X191584833Y-122889838D01*
X191241057Y-123031883D01*
X191135046Y-123137710D01*
X191030327Y-123032808D01*
X190686799Y-122890162D01*
X190314833Y-122889838D01*
X189971057Y-123031883D01*
X189865046Y-123137710D01*
X189760327Y-123032808D01*
X189416799Y-122890162D01*
X189044833Y-122889838D01*
X188701057Y-123031883D01*
X188595046Y-123137710D01*
X188490327Y-123032808D01*
X188146799Y-122890162D01*
X187774833Y-122889838D01*
X187431057Y-123031883D01*
X187325046Y-123137710D01*
X187220327Y-123032808D01*
X186876799Y-122890162D01*
X186504833Y-122889838D01*
X186161057Y-123031883D01*
X186055046Y-123137710D01*
X185950327Y-123032808D01*
X185606799Y-122890162D01*
X185234833Y-122889838D01*
X184891057Y-123031883D01*
X184785046Y-123137710D01*
X184680327Y-123032808D01*
X184336799Y-122890162D01*
X183964833Y-122889838D01*
X183621057Y-123031883D01*
X183515046Y-123137710D01*
X183410327Y-123032808D01*
X183066799Y-122890162D01*
X182694833Y-122889838D01*
X182351057Y-123031883D01*
X182245046Y-123137710D01*
X182140327Y-123032808D01*
X181796799Y-122890162D01*
X181424833Y-122889838D01*
X181081057Y-123031883D01*
X180975046Y-123137710D01*
X180870327Y-123032808D01*
X180526799Y-122890162D01*
X180154833Y-122889838D01*
X179811057Y-123031883D01*
X179705046Y-123137710D01*
X179600327Y-123032808D01*
X179256799Y-122890162D01*
X178884833Y-122889838D01*
X178541057Y-123031883D01*
X178435046Y-123137710D01*
X178330327Y-123032808D01*
X177986799Y-122890162D01*
X177614833Y-122889838D01*
X177271057Y-123031883D01*
X177165046Y-123137710D01*
X177060327Y-123032808D01*
X176716799Y-122890162D01*
X176344833Y-122889838D01*
X176001057Y-123031883D01*
X175895046Y-123137710D01*
X175790327Y-123032808D01*
X175446799Y-122890162D01*
X175074833Y-122889838D01*
X174731057Y-123031883D01*
X174625046Y-123137710D01*
X174520327Y-123032808D01*
X174176799Y-122890162D01*
X173804833Y-122889838D01*
X173461057Y-123031883D01*
X173355046Y-123137710D01*
X173250327Y-123032808D01*
X172906799Y-122890162D01*
X172534833Y-122889838D01*
X172191057Y-123031883D01*
X172085046Y-123137710D01*
X171980327Y-123032808D01*
X171636799Y-122890162D01*
X171264833Y-122889838D01*
X170921057Y-123031883D01*
X170815046Y-123137710D01*
X170710327Y-123032808D01*
X170366799Y-122890162D01*
X169994833Y-122889838D01*
X169651057Y-123031883D01*
X169545046Y-123137710D01*
X169440327Y-123032808D01*
X169096799Y-122890162D01*
X168724833Y-122889838D01*
X168381057Y-123031883D01*
X168275046Y-123137710D01*
X168170327Y-123032808D01*
X167826799Y-122890162D01*
X167454833Y-122889838D01*
X167111057Y-123031883D01*
X167005046Y-123137710D01*
X166900327Y-123032808D01*
X166556799Y-122890162D01*
X166184833Y-122889838D01*
X165841057Y-123031883D01*
X165735046Y-123137710D01*
X165630327Y-123032808D01*
X165286799Y-122890162D01*
X164914833Y-122889838D01*
X164571057Y-123031883D01*
X164465046Y-123137710D01*
X164360327Y-123032808D01*
X164016799Y-122890162D01*
X163644833Y-122889838D01*
X163301057Y-123031883D01*
X163195046Y-123137710D01*
X163090327Y-123032808D01*
X162746799Y-122890162D01*
X162374833Y-122889838D01*
X162031057Y-123031883D01*
X161925046Y-123137710D01*
X161820327Y-123032808D01*
X161476799Y-122890162D01*
X161104833Y-122889838D01*
X160761057Y-123031883D01*
X160655046Y-123137710D01*
X160550327Y-123032808D01*
X160206799Y-122890162D01*
X159834833Y-122889838D01*
X159491057Y-123031883D01*
X159385046Y-123137710D01*
X159280327Y-123032808D01*
X158936799Y-122890162D01*
X158564833Y-122889838D01*
X158221057Y-123031883D01*
X158115046Y-123137710D01*
X158010327Y-123032808D01*
X157666799Y-122890162D01*
X157294833Y-122889838D01*
X156951057Y-123031883D01*
X156687808Y-123294673D01*
X156545162Y-123638201D01*
X156544838Y-124010167D01*
X155710000Y-124010167D01*
X155710000Y-114485167D01*
X189564838Y-114485167D01*
X189706883Y-114828943D01*
X189738000Y-114860114D01*
X189738000Y-115009534D01*
X189707808Y-115039673D01*
X189565162Y-115383201D01*
X189564838Y-115755167D01*
X189706883Y-116098943D01*
X189969673Y-116362192D01*
X190313201Y-116504838D01*
X190357246Y-116504876D01*
X193771185Y-119918816D01*
X193919377Y-120017834D01*
X194018395Y-120083996D01*
X194310000Y-120142000D01*
X235269370Y-120142000D01*
X239094875Y-123967506D01*
X239094838Y-124010167D01*
X239149476Y-124142400D01*
X239095162Y-124273201D01*
X239094838Y-124645167D01*
X239236883Y-124988943D01*
X239268000Y-125020114D01*
X239268000Y-132154534D01*
X239237808Y-132184673D01*
X239095162Y-132528201D01*
X239094838Y-132900167D01*
X239149476Y-133032400D01*
X239095162Y-133163201D01*
X239094838Y-133535167D01*
X239236883Y-133878943D01*
X239268000Y-133910114D01*
X239268000Y-141044534D01*
X239237808Y-141074673D01*
X239095162Y-141418201D01*
X239094838Y-141790167D01*
X239149476Y-141922400D01*
X239095162Y-142053201D01*
X239094838Y-142425167D01*
X239236883Y-142768943D01*
X239268000Y-142800114D01*
X239268000Y-149934534D01*
X239237808Y-149964673D01*
X239095162Y-150308201D01*
X239094838Y-150680167D01*
X239149476Y-150812400D01*
X239095162Y-150943201D01*
X239094838Y-151315167D01*
X239236883Y-151658943D01*
X239499673Y-151922192D01*
X239843201Y-152064838D01*
X240215167Y-152065162D01*
X240558943Y-151923117D01*
X240664954Y-151817290D01*
X240769673Y-151922192D01*
X241113201Y-152064838D01*
X241485167Y-152065162D01*
X241828943Y-151923117D01*
X241934954Y-151817290D01*
X242039673Y-151922192D01*
X242383201Y-152064838D01*
X242755167Y-152065162D01*
X243098943Y-151923117D01*
X243362192Y-151660327D01*
X243504838Y-151316799D01*
X243505162Y-150944833D01*
X243450524Y-150812600D01*
X243504838Y-150681799D01*
X243505162Y-150309833D01*
X243363117Y-149966057D01*
X243332000Y-149934886D01*
X243332000Y-142800466D01*
X243362192Y-142770327D01*
X243504838Y-142426799D01*
X243505162Y-142054833D01*
X243450524Y-141922600D01*
X243504838Y-141791799D01*
X243505162Y-141419833D01*
X243363117Y-141076057D01*
X243332000Y-141044886D01*
X243332000Y-133910466D01*
X243362192Y-133880327D01*
X243504838Y-133536799D01*
X243505162Y-133164833D01*
X243450524Y-133032600D01*
X243504838Y-132901799D01*
X243505162Y-132529833D01*
X243363117Y-132186057D01*
X243332000Y-132154886D01*
X243332000Y-125020466D01*
X243362192Y-124990327D01*
X243504838Y-124646799D01*
X243505162Y-124274833D01*
X243450524Y-124142600D01*
X243504838Y-124011799D01*
X243505162Y-123639833D01*
X243363117Y-123296057D01*
X243100327Y-123032808D01*
X242756799Y-122890162D01*
X242712755Y-122890124D01*
X237393815Y-117571185D01*
X237353124Y-117543996D01*
X237146605Y-117406004D01*
X236855000Y-117348000D01*
X204785631Y-117348000D01*
X203764877Y-116327246D01*
X203834954Y-116257290D01*
X203939673Y-116362192D01*
X204283201Y-116504838D01*
X204655167Y-116505162D01*
X204998943Y-116363117D01*
X205104954Y-116257290D01*
X205209673Y-116362192D01*
X205553201Y-116504838D01*
X205925167Y-116505162D01*
X206268943Y-116363117D01*
X206374954Y-116257290D01*
X206479673Y-116362192D01*
X206823201Y-116504838D01*
X207195167Y-116505162D01*
X207538943Y-116363117D01*
X207644954Y-116257290D01*
X207749673Y-116362192D01*
X208093201Y-116504838D01*
X208465167Y-116505162D01*
X208808943Y-116363117D01*
X208914954Y-116257290D01*
X209019673Y-116362192D01*
X209363201Y-116504838D01*
X209735167Y-116505162D01*
X210078943Y-116363117D01*
X210184954Y-116257290D01*
X210289673Y-116362192D01*
X210633201Y-116504838D01*
X211005167Y-116505162D01*
X211348943Y-116363117D01*
X211612192Y-116100327D01*
X211754838Y-115756799D01*
X211755162Y-115384833D01*
X211613117Y-115041057D01*
X211582000Y-115009886D01*
X211582000Y-114860466D01*
X211612192Y-114830327D01*
X211754838Y-114486799D01*
X211755162Y-114114833D01*
X211613117Y-113771057D01*
X211350327Y-113507808D01*
X211006799Y-113365162D01*
X210634833Y-113364838D01*
X210291057Y-113506883D01*
X210185046Y-113612710D01*
X210080327Y-113507808D01*
X209736799Y-113365162D01*
X209364833Y-113364838D01*
X209021057Y-113506883D01*
X208915046Y-113612710D01*
X208810327Y-113507808D01*
X208466799Y-113365162D01*
X208094833Y-113364838D01*
X207751057Y-113506883D01*
X207645046Y-113612710D01*
X207540327Y-113507808D01*
X207196799Y-113365162D01*
X206824833Y-113364838D01*
X206481057Y-113506883D01*
X206375046Y-113612710D01*
X206270327Y-113507808D01*
X205926799Y-113365162D01*
X205554833Y-113364838D01*
X205211057Y-113506883D01*
X205105046Y-113612710D01*
X205000327Y-113507808D01*
X204656799Y-113365162D01*
X204284833Y-113364838D01*
X203941057Y-113506883D01*
X203835046Y-113612710D01*
X203730327Y-113507808D01*
X203386799Y-113365162D01*
X203014833Y-113364838D01*
X202671057Y-113506883D01*
X202565046Y-113612710D01*
X202460327Y-113507808D01*
X202116799Y-113365162D01*
X201744833Y-113364838D01*
X201401057Y-113506883D01*
X201295046Y-113612710D01*
X201190327Y-113507808D01*
X200846799Y-113365162D01*
X200474833Y-113364838D01*
X200131057Y-113506883D01*
X200025046Y-113612710D01*
X199920327Y-113507808D01*
X199576799Y-113365162D01*
X199204833Y-113364838D01*
X198861057Y-113506883D01*
X198755046Y-113612710D01*
X198650327Y-113507808D01*
X198306799Y-113365162D01*
X197934833Y-113364838D01*
X197591057Y-113506883D01*
X197485046Y-113612710D01*
X197380327Y-113507808D01*
X197036799Y-113365162D01*
X196664833Y-113364838D01*
X196321057Y-113506883D01*
X196215046Y-113612710D01*
X196110327Y-113507808D01*
X195766799Y-113365162D01*
X195394833Y-113364838D01*
X195051057Y-113506883D01*
X194945046Y-113612710D01*
X194840327Y-113507808D01*
X194496799Y-113365162D01*
X194124833Y-113364838D01*
X193781057Y-113506883D01*
X193675046Y-113612710D01*
X193570327Y-113507808D01*
X193226799Y-113365162D01*
X192854833Y-113364838D01*
X192511057Y-113506883D01*
X192405046Y-113612710D01*
X192300327Y-113507808D01*
X191956799Y-113365162D01*
X191584833Y-113364838D01*
X191241057Y-113506883D01*
X191135046Y-113612710D01*
X191030327Y-113507808D01*
X190686799Y-113365162D01*
X190314833Y-113364838D01*
X189971057Y-113506883D01*
X189707808Y-113769673D01*
X189565162Y-114113201D01*
X189564838Y-114485167D01*
X155710000Y-114485167D01*
X155710000Y-94114384D01*
X159944327Y-94114384D01*
X160534537Y-95542801D01*
X161626451Y-96636623D01*
X162876155Y-97155545D01*
X161632199Y-97669537D01*
X160538377Y-98761451D01*
X159945676Y-100188835D01*
X159944327Y-101734384D01*
X160534537Y-103162801D01*
X161626451Y-104256623D01*
X162876155Y-104775545D01*
X161632199Y-105289537D01*
X160538377Y-106381451D01*
X159945676Y-107808835D01*
X159944327Y-109354384D01*
X160534537Y-110782801D01*
X161626451Y-111876623D01*
X163053835Y-112469324D01*
X164599384Y-112470673D01*
X166027801Y-111880463D01*
X167121623Y-110788549D01*
X167714324Y-109361165D01*
X167715673Y-107815616D01*
X167125463Y-106387199D01*
X166033549Y-105293377D01*
X164783845Y-104774455D01*
X166027801Y-104260463D01*
X167121623Y-103168549D01*
X167714324Y-101741165D01*
X167715673Y-100195616D01*
X167125463Y-98767199D01*
X166033549Y-97673377D01*
X164783845Y-97154455D01*
X166027801Y-96640463D01*
X167121623Y-95548549D01*
X167714324Y-94121165D01*
X167715673Y-92575616D01*
X167125463Y-91147199D01*
X166334813Y-90355167D01*
X184484838Y-90355167D01*
X184626883Y-90698943D01*
X184732710Y-90804954D01*
X184627808Y-90909673D01*
X184485162Y-91253201D01*
X184484838Y-91625167D01*
X184626883Y-91968943D01*
X184732710Y-92074954D01*
X184627808Y-92179673D01*
X184485162Y-92523201D01*
X184484838Y-92895167D01*
X184626883Y-93238943D01*
X184732710Y-93344954D01*
X184627808Y-93449673D01*
X184485162Y-93793201D01*
X184484838Y-94165167D01*
X184626883Y-94508943D01*
X184732710Y-94614954D01*
X184627808Y-94719673D01*
X184485162Y-95063201D01*
X184484838Y-95435167D01*
X184626883Y-95778943D01*
X184732710Y-95884954D01*
X184627808Y-95989673D01*
X184485162Y-96333201D01*
X184484838Y-96705167D01*
X184626883Y-97048943D01*
X184732710Y-97154954D01*
X184627808Y-97259673D01*
X184485162Y-97603201D01*
X184484838Y-97975167D01*
X184626883Y-98318943D01*
X184732710Y-98424954D01*
X184627808Y-98529673D01*
X184485162Y-98873201D01*
X184484838Y-99245167D01*
X184626883Y-99588943D01*
X184732710Y-99694954D01*
X184627808Y-99799673D01*
X184485162Y-100143201D01*
X184484838Y-100515167D01*
X184626883Y-100858943D01*
X184732710Y-100964954D01*
X184627808Y-101069673D01*
X184485162Y-101413201D01*
X184484838Y-101785167D01*
X184626883Y-102128943D01*
X184732710Y-102234954D01*
X184627808Y-102339673D01*
X184485162Y-102683201D01*
X184484838Y-103055167D01*
X184626883Y-103398943D01*
X184732710Y-103504954D01*
X184627808Y-103609673D01*
X184485162Y-103953201D01*
X184484838Y-104325167D01*
X184626883Y-104668943D01*
X184732710Y-104774954D01*
X184627808Y-104879673D01*
X184485162Y-105223201D01*
X184484838Y-105595167D01*
X184626883Y-105938943D01*
X184732710Y-106044954D01*
X184627808Y-106149673D01*
X184485162Y-106493201D01*
X184484838Y-106865167D01*
X184626883Y-107208943D01*
X184732710Y-107314954D01*
X184627808Y-107419673D01*
X184485162Y-107763201D01*
X184484838Y-108135167D01*
X184626883Y-108478943D01*
X184732710Y-108584954D01*
X184627808Y-108689673D01*
X184485162Y-109033201D01*
X184484838Y-109405167D01*
X184626883Y-109748943D01*
X184832238Y-109954656D01*
X184827212Y-109959673D01*
X184684566Y-110303201D01*
X184684242Y-110675167D01*
X184826287Y-111018943D01*
X185089077Y-111282192D01*
X185432605Y-111424838D01*
X185804571Y-111425162D01*
X186148347Y-111283117D01*
X186154482Y-111276992D01*
X186159673Y-111282192D01*
X186503201Y-111424838D01*
X186875167Y-111425162D01*
X187218943Y-111283117D01*
X187482192Y-111020327D01*
X187624838Y-110676799D01*
X187625162Y-110304833D01*
X187483117Y-109961057D01*
X187377290Y-109855046D01*
X187482192Y-109750327D01*
X187624838Y-109406799D01*
X187625162Y-109034833D01*
X187483117Y-108691057D01*
X187377290Y-108585046D01*
X187482192Y-108480327D01*
X187624838Y-108136799D01*
X187625162Y-107764833D01*
X187483117Y-107421057D01*
X187377290Y-107315046D01*
X187482192Y-107210327D01*
X187624838Y-106866799D01*
X187625162Y-106494833D01*
X187483117Y-106151057D01*
X187377290Y-106045046D01*
X187482192Y-105940327D01*
X187624838Y-105596799D01*
X187625162Y-105224833D01*
X187483117Y-104881057D01*
X187377290Y-104775046D01*
X187482192Y-104670327D01*
X187624838Y-104326799D01*
X187625162Y-103954833D01*
X187483117Y-103611057D01*
X187377290Y-103505046D01*
X187482192Y-103400327D01*
X187624838Y-103056799D01*
X187625162Y-102684833D01*
X187483117Y-102341057D01*
X187377290Y-102235046D01*
X187482192Y-102130327D01*
X187624838Y-101786799D01*
X187625162Y-101414833D01*
X187483117Y-101071057D01*
X187377290Y-100965046D01*
X187482192Y-100860327D01*
X187624838Y-100516799D01*
X187625162Y-100144833D01*
X187483117Y-99801057D01*
X187377290Y-99695046D01*
X187482192Y-99590327D01*
X187624838Y-99246799D01*
X187625162Y-98874833D01*
X187483117Y-98531057D01*
X187377290Y-98425046D01*
X187482192Y-98320327D01*
X187624838Y-97976799D01*
X187625162Y-97604833D01*
X187483117Y-97261057D01*
X187377290Y-97155046D01*
X187482192Y-97050327D01*
X187624838Y-96706799D01*
X187625162Y-96334833D01*
X187483117Y-95991057D01*
X187377290Y-95885046D01*
X187482192Y-95780327D01*
X187624838Y-95436799D01*
X187625162Y-95064833D01*
X187483117Y-94721057D01*
X187377290Y-94615046D01*
X187482192Y-94510327D01*
X187624838Y-94166799D01*
X187625162Y-93794833D01*
X187483117Y-93451057D01*
X187377290Y-93345046D01*
X187482192Y-93240327D01*
X187624838Y-92896799D01*
X187625162Y-92524833D01*
X187483117Y-92181057D01*
X187377290Y-92075046D01*
X187482192Y-91970327D01*
X187624838Y-91626799D01*
X187625162Y-91254833D01*
X187483117Y-90911057D01*
X187377290Y-90805046D01*
X187482192Y-90700327D01*
X187624838Y-90356799D01*
X187624839Y-90355167D01*
X213694838Y-90355167D01*
X213836883Y-90698943D01*
X213942710Y-90804954D01*
X213837808Y-90909673D01*
X213695162Y-91253201D01*
X213694838Y-91625167D01*
X213836883Y-91968943D01*
X213942710Y-92074954D01*
X213837808Y-92179673D01*
X213695162Y-92523201D01*
X213694838Y-92895167D01*
X213836883Y-93238943D01*
X213942710Y-93344954D01*
X213837808Y-93449673D01*
X213695162Y-93793201D01*
X213694838Y-94165167D01*
X213836883Y-94508943D01*
X213942710Y-94614954D01*
X213837808Y-94719673D01*
X213695162Y-95063201D01*
X213694838Y-95435167D01*
X213836883Y-95778943D01*
X213942710Y-95884954D01*
X213837808Y-95989673D01*
X213695162Y-96333201D01*
X213694838Y-96705167D01*
X213836883Y-97048943D01*
X213942710Y-97154954D01*
X213837808Y-97259673D01*
X213695162Y-97603201D01*
X213694838Y-97975167D01*
X213836883Y-98318943D01*
X213942710Y-98424954D01*
X213837808Y-98529673D01*
X213695162Y-98873201D01*
X213694838Y-99245167D01*
X213836883Y-99588943D01*
X213942710Y-99694954D01*
X213837808Y-99799673D01*
X213695162Y-100143201D01*
X213694838Y-100515167D01*
X213836883Y-100858943D01*
X213942710Y-100964954D01*
X213837808Y-101069673D01*
X213695162Y-101413201D01*
X213694838Y-101785167D01*
X213836883Y-102128943D01*
X213942710Y-102234954D01*
X213837808Y-102339673D01*
X213695162Y-102683201D01*
X213694838Y-103055167D01*
X213836883Y-103398943D01*
X213942710Y-103504954D01*
X213837808Y-103609673D01*
X213695162Y-103953201D01*
X213694838Y-104325167D01*
X213836883Y-104668943D01*
X213942710Y-104774954D01*
X213837808Y-104879673D01*
X213695162Y-105223201D01*
X213694838Y-105595167D01*
X213836883Y-105938943D01*
X213942710Y-106044954D01*
X213837808Y-106149673D01*
X213695162Y-106493201D01*
X213694838Y-106865167D01*
X213836883Y-107208943D01*
X213942710Y-107314954D01*
X213837808Y-107419673D01*
X213695162Y-107763201D01*
X213694838Y-108135167D01*
X213836883Y-108478943D01*
X213942710Y-108584954D01*
X213837808Y-108689673D01*
X213695162Y-109033201D01*
X213694838Y-109405167D01*
X213836883Y-109748943D01*
X213942710Y-109854954D01*
X213837808Y-109959673D01*
X213695162Y-110303201D01*
X213694838Y-110675167D01*
X213836883Y-111018943D01*
X214099673Y-111282192D01*
X214443201Y-111424838D01*
X214815167Y-111425162D01*
X215158943Y-111283117D01*
X215190114Y-111252000D01*
X215319797Y-111252000D01*
X215349936Y-111282192D01*
X215693464Y-111424838D01*
X216065430Y-111425162D01*
X216409206Y-111283117D01*
X216672455Y-111020327D01*
X216815101Y-110676799D01*
X216815425Y-110304833D01*
X216673380Y-109961057D01*
X216577405Y-109864914D01*
X216692192Y-109750327D01*
X216834838Y-109406799D01*
X216835162Y-109034833D01*
X216693117Y-108691057D01*
X216587290Y-108585046D01*
X216692192Y-108480327D01*
X216834838Y-108136799D01*
X216835162Y-107764833D01*
X216693117Y-107421057D01*
X216587290Y-107315046D01*
X216692192Y-107210327D01*
X216834838Y-106866799D01*
X216835162Y-106494833D01*
X216693117Y-106151057D01*
X216587290Y-106045046D01*
X216692192Y-105940327D01*
X216834838Y-105596799D01*
X216835162Y-105224833D01*
X216693117Y-104881057D01*
X216587290Y-104775046D01*
X216692192Y-104670327D01*
X216834838Y-104326799D01*
X216835162Y-103954833D01*
X216693117Y-103611057D01*
X216587290Y-103505046D01*
X216692192Y-103400327D01*
X216834838Y-103056799D01*
X216835162Y-102684833D01*
X216693117Y-102341057D01*
X216587290Y-102235046D01*
X216692192Y-102130327D01*
X216834838Y-101786799D01*
X216835162Y-101414833D01*
X216693117Y-101071057D01*
X216587290Y-100965046D01*
X216692192Y-100860327D01*
X216834838Y-100516799D01*
X216835162Y-100144833D01*
X216693117Y-99801057D01*
X216587290Y-99695046D01*
X216692192Y-99590327D01*
X216834838Y-99246799D01*
X216835162Y-98874833D01*
X216693117Y-98531057D01*
X216587290Y-98425046D01*
X216692192Y-98320327D01*
X216834838Y-97976799D01*
X216835162Y-97604833D01*
X216693117Y-97261057D01*
X216587290Y-97155046D01*
X216692192Y-97050327D01*
X216834838Y-96706799D01*
X216835162Y-96334833D01*
X216693117Y-95991057D01*
X216587290Y-95885046D01*
X216692192Y-95780327D01*
X216834838Y-95436799D01*
X216835162Y-95064833D01*
X216704822Y-94749384D01*
X231699327Y-94749384D01*
X232289537Y-96177801D01*
X233381451Y-97271623D01*
X234631155Y-97790545D01*
X233387199Y-98304537D01*
X232293377Y-99396451D01*
X231700676Y-100823835D01*
X231699327Y-102369384D01*
X232289537Y-103797801D01*
X233381451Y-104891623D01*
X234631155Y-105410545D01*
X233387199Y-105924537D01*
X232293377Y-107016451D01*
X231700676Y-108443835D01*
X231699327Y-109989384D01*
X232289537Y-111417801D01*
X233381451Y-112511623D01*
X234808835Y-113104324D01*
X236354384Y-113105673D01*
X237782801Y-112515463D01*
X238876623Y-111423549D01*
X239469324Y-109996165D01*
X239470673Y-108450616D01*
X238880463Y-107022199D01*
X237788549Y-105928377D01*
X236538845Y-105409455D01*
X237782801Y-104895463D01*
X238876623Y-103803549D01*
X239469324Y-102376165D01*
X239470673Y-100830616D01*
X238880463Y-99402199D01*
X237788549Y-98308377D01*
X236538845Y-97789455D01*
X237782801Y-97275463D01*
X238876623Y-96183549D01*
X239469324Y-94756165D01*
X239470673Y-93210616D01*
X238880463Y-91782199D01*
X237788549Y-90688377D01*
X236361165Y-90095676D01*
X234815616Y-90094327D01*
X233387199Y-90684537D01*
X232293377Y-91776451D01*
X231700676Y-93203835D01*
X231699327Y-94749384D01*
X216704822Y-94749384D01*
X216693117Y-94721057D01*
X216587290Y-94615046D01*
X216692192Y-94510327D01*
X216834838Y-94166799D01*
X216835162Y-93794833D01*
X216693117Y-93451057D01*
X216587290Y-93345046D01*
X216692192Y-93240327D01*
X216834838Y-92896799D01*
X216835162Y-92524833D01*
X216693117Y-92181057D01*
X216587290Y-92075046D01*
X216692192Y-91970327D01*
X216834838Y-91626799D01*
X216835162Y-91254833D01*
X216693117Y-90911057D01*
X216587290Y-90805046D01*
X216692192Y-90700327D01*
X216834838Y-90356799D01*
X216835162Y-89984833D01*
X216693117Y-89641057D01*
X216430327Y-89377808D01*
X216086799Y-89235162D01*
X215714833Y-89234838D01*
X215371057Y-89376883D01*
X215339886Y-89408000D01*
X215190466Y-89408000D01*
X215160327Y-89377808D01*
X214816799Y-89235162D01*
X214444833Y-89234838D01*
X214101057Y-89376883D01*
X213837808Y-89639673D01*
X213695162Y-89983201D01*
X213694838Y-90355167D01*
X187624839Y-90355167D01*
X187625162Y-89984833D01*
X187483117Y-89641057D01*
X187220327Y-89377808D01*
X186876799Y-89235162D01*
X186504833Y-89234838D01*
X186161057Y-89376883D01*
X186129886Y-89408000D01*
X185980466Y-89408000D01*
X185950327Y-89377808D01*
X185606799Y-89235162D01*
X185234833Y-89234838D01*
X184891057Y-89376883D01*
X184627808Y-89639673D01*
X184485162Y-89983201D01*
X184484838Y-90355167D01*
X166334813Y-90355167D01*
X166033549Y-90053377D01*
X164606165Y-89460676D01*
X163060616Y-89459327D01*
X161632199Y-90049537D01*
X160538377Y-91141451D01*
X159945676Y-92568835D01*
X159944327Y-94114384D01*
X155710000Y-94114384D01*
X155710000Y-85275167D01*
X190834838Y-85275167D01*
X190976883Y-85618943D01*
X191008000Y-85650114D01*
X191008000Y-85799534D01*
X190977808Y-85829673D01*
X190835162Y-86173201D01*
X190834838Y-86545167D01*
X190976883Y-86888943D01*
X191239673Y-87152192D01*
X191583201Y-87294838D01*
X191955167Y-87295162D01*
X192298943Y-87153117D01*
X192404954Y-87047290D01*
X192509673Y-87152192D01*
X192853201Y-87294838D01*
X193225167Y-87295162D01*
X193568943Y-87153117D01*
X193674954Y-87047290D01*
X193779673Y-87152192D01*
X194123201Y-87294838D01*
X194495167Y-87295162D01*
X194838943Y-87153117D01*
X194944954Y-87047290D01*
X195049673Y-87152192D01*
X195393201Y-87294838D01*
X195765167Y-87295162D01*
X196108943Y-87153117D01*
X196214954Y-87047290D01*
X196319673Y-87152192D01*
X196663201Y-87294838D01*
X197035167Y-87295162D01*
X197378943Y-87153117D01*
X197484954Y-87047290D01*
X197589673Y-87152192D01*
X197933201Y-87294838D01*
X198305167Y-87295162D01*
X198648943Y-87153117D01*
X198754954Y-87047290D01*
X198859673Y-87152192D01*
X199203201Y-87294838D01*
X199575167Y-87295162D01*
X199918943Y-87153117D01*
X200024954Y-87047290D01*
X200129673Y-87152192D01*
X200473201Y-87294838D01*
X200845167Y-87295162D01*
X201188943Y-87153117D01*
X201294954Y-87047290D01*
X201399673Y-87152192D01*
X201743201Y-87294838D01*
X202115167Y-87295162D01*
X202458943Y-87153117D01*
X202564954Y-87047290D01*
X202669673Y-87152192D01*
X203013201Y-87294838D01*
X203385167Y-87295162D01*
X203728943Y-87153117D01*
X203834954Y-87047290D01*
X203939673Y-87152192D01*
X204283201Y-87294838D01*
X204655167Y-87295162D01*
X204998943Y-87153117D01*
X205104954Y-87047290D01*
X205209673Y-87152192D01*
X205553201Y-87294838D01*
X205925167Y-87295162D01*
X206268943Y-87153117D01*
X206374954Y-87047290D01*
X206479673Y-87152192D01*
X206823201Y-87294838D01*
X207195167Y-87295162D01*
X207538943Y-87153117D01*
X207644954Y-87047290D01*
X207749673Y-87152192D01*
X208093201Y-87294838D01*
X208465167Y-87295162D01*
X208808943Y-87153117D01*
X208914954Y-87047290D01*
X209019673Y-87152192D01*
X209363201Y-87294838D01*
X209735167Y-87295162D01*
X210078943Y-87153117D01*
X210184954Y-87047290D01*
X210289673Y-87152192D01*
X210633201Y-87294838D01*
X211005167Y-87295162D01*
X211348943Y-87153117D01*
X211612192Y-86890327D01*
X211754838Y-86546799D01*
X211755162Y-86174833D01*
X211613117Y-85831057D01*
X211582000Y-85799886D01*
X211582000Y-85696476D01*
X211612192Y-85666337D01*
X211754838Y-85322809D01*
X211755162Y-84950843D01*
X211613117Y-84607067D01*
X211350327Y-84343818D01*
X211006799Y-84201172D01*
X210634833Y-84200848D01*
X210291057Y-84342893D01*
X210208051Y-84425755D01*
X210080327Y-84297808D01*
X209736799Y-84155162D01*
X209364833Y-84154838D01*
X209021057Y-84296883D01*
X208915046Y-84402710D01*
X208810327Y-84297808D01*
X208466799Y-84155162D01*
X208094833Y-84154838D01*
X207751057Y-84296883D01*
X207645046Y-84402710D01*
X207540327Y-84297808D01*
X207196799Y-84155162D01*
X206824833Y-84154838D01*
X206481057Y-84296883D01*
X206375046Y-84402710D01*
X206270327Y-84297808D01*
X205926799Y-84155162D01*
X205554833Y-84154838D01*
X205211057Y-84296883D01*
X205105046Y-84402710D01*
X205000327Y-84297808D01*
X204656799Y-84155162D01*
X204284833Y-84154838D01*
X203941057Y-84296883D01*
X203835046Y-84402710D01*
X203730327Y-84297808D01*
X203386799Y-84155162D01*
X203014833Y-84154838D01*
X202671057Y-84296883D01*
X202565046Y-84402710D01*
X202460327Y-84297808D01*
X202116799Y-84155162D01*
X201744833Y-84154838D01*
X201401057Y-84296883D01*
X201295046Y-84402710D01*
X201190327Y-84297808D01*
X200846799Y-84155162D01*
X200474833Y-84154838D01*
X200131057Y-84296883D01*
X200025046Y-84402710D01*
X199920327Y-84297808D01*
X199576799Y-84155162D01*
X199204833Y-84154838D01*
X198861057Y-84296883D01*
X198755046Y-84402710D01*
X198650327Y-84297808D01*
X198306799Y-84155162D01*
X197934833Y-84154838D01*
X197591057Y-84296883D01*
X197485046Y-84402710D01*
X197380327Y-84297808D01*
X197036799Y-84155162D01*
X196664833Y-84154838D01*
X196321057Y-84296883D01*
X196215046Y-84402710D01*
X196110327Y-84297808D01*
X195766799Y-84155162D01*
X195394833Y-84154838D01*
X195051057Y-84296883D01*
X194945046Y-84402710D01*
X194840327Y-84297808D01*
X194496799Y-84155162D01*
X194124833Y-84154838D01*
X193781057Y-84296883D01*
X193675046Y-84402710D01*
X193570327Y-84297808D01*
X193226799Y-84155162D01*
X192854833Y-84154838D01*
X192511057Y-84296883D01*
X192405046Y-84402710D01*
X192300327Y-84297808D01*
X191956799Y-84155162D01*
X191584833Y-84154838D01*
X191241057Y-84296883D01*
X190977808Y-84559673D01*
X190835162Y-84903201D01*
X190834838Y-85275167D01*
X155710000Y-85275167D01*
X155710000Y-77294092D01*
X159294092Y-73710000D01*
X247705908Y-73710000D01*
X251290000Y-77294092D01*
X251290000Y-77294092D01*
G37*
X251290000Y-77294092D02*
X251290000Y-158705908D01*
X247705908Y-162290000D01*
X159236667Y-162290000D01*
X155710000Y-159645000D01*
X155710000Y-124010167D01*
X156544838Y-124010167D01*
X156599476Y-124142400D01*
X156545162Y-124273201D01*
X156544838Y-124645167D01*
X156686883Y-124988943D01*
X156718000Y-125020114D01*
X156718000Y-132154534D01*
X156687808Y-132184673D01*
X156545162Y-132528201D01*
X156544838Y-132900167D01*
X156599476Y-133032400D01*
X156545162Y-133163201D01*
X156544838Y-133535167D01*
X156686883Y-133878943D01*
X156718000Y-133910114D01*
X156718000Y-141044534D01*
X156687808Y-141074673D01*
X156545162Y-141418201D01*
X156544838Y-141790167D01*
X156599476Y-141922400D01*
X156545162Y-142053201D01*
X156544838Y-142425167D01*
X156686883Y-142768943D01*
X156718000Y-142800114D01*
X156718000Y-149934534D01*
X156687808Y-149964673D01*
X156545162Y-150308201D01*
X156544838Y-150680167D01*
X156599476Y-150812400D01*
X156545162Y-150943201D01*
X156544838Y-151315167D01*
X156686883Y-151658943D01*
X156949673Y-151922192D01*
X157293201Y-152064838D01*
X157665167Y-152065162D01*
X158008943Y-151923117D01*
X158114954Y-151817290D01*
X158219673Y-151922192D01*
X158563201Y-152064838D01*
X158935167Y-152065162D01*
X159278943Y-151923117D01*
X159384954Y-151817290D01*
X159489673Y-151922192D01*
X159833201Y-152064838D01*
X160205167Y-152065162D01*
X160548943Y-151923117D01*
X160654954Y-151817290D01*
X160759673Y-151922192D01*
X161103201Y-152064838D01*
X161475167Y-152065162D01*
X161818943Y-151923117D01*
X161924954Y-151817290D01*
X162029673Y-151922192D01*
X162373201Y-152064838D01*
X162745167Y-152065162D01*
X163088943Y-151923117D01*
X163194954Y-151817290D01*
X163299673Y-151922192D01*
X163643201Y-152064838D01*
X164015167Y-152065162D01*
X164358943Y-151923117D01*
X164464954Y-151817290D01*
X164569673Y-151922192D01*
X164913201Y-152064838D01*
X165285167Y-152065162D01*
X165628943Y-151923117D01*
X165734954Y-151817290D01*
X165839673Y-151922192D01*
X166183201Y-152064838D01*
X166555167Y-152065162D01*
X166898943Y-151923117D01*
X167004954Y-151817290D01*
X167109673Y-151922192D01*
X167453201Y-152064838D01*
X167825167Y-152065162D01*
X168168943Y-151923117D01*
X168274954Y-151817290D01*
X168379673Y-151922192D01*
X168723201Y-152064838D01*
X169095167Y-152065162D01*
X169438943Y-151923117D01*
X169544954Y-151817290D01*
X169649673Y-151922192D01*
X169993201Y-152064838D01*
X170365167Y-152065162D01*
X170708943Y-151923117D01*
X170814954Y-151817290D01*
X170919673Y-151922192D01*
X171263201Y-152064838D01*
X171635167Y-152065162D01*
X171978943Y-151923117D01*
X172084954Y-151817290D01*
X172189673Y-151922192D01*
X172533201Y-152064838D01*
X172905167Y-152065162D01*
X173248943Y-151923117D01*
X173354954Y-151817290D01*
X173459673Y-151922192D01*
X173803201Y-152064838D01*
X174175167Y-152065162D01*
X174518943Y-151923117D01*
X174624954Y-151817290D01*
X174729673Y-151922192D01*
X175073201Y-152064838D01*
X175445167Y-152065162D01*
X175788943Y-151923117D01*
X175894954Y-151817290D01*
X175999673Y-151922192D01*
X176343201Y-152064838D01*
X176715167Y-152065162D01*
X177058943Y-151923117D01*
X177164954Y-151817290D01*
X177269673Y-151922192D01*
X177613201Y-152064838D01*
X177985167Y-152065162D01*
X178328943Y-151923117D01*
X178434954Y-151817290D01*
X178539673Y-151922192D01*
X178883201Y-152064838D01*
X179255167Y-152065162D01*
X179598943Y-151923117D01*
X179704954Y-151817290D01*
X179809673Y-151922192D01*
X180153201Y-152064838D01*
X180525167Y-152065162D01*
X180868943Y-151923117D01*
X180974954Y-151817290D01*
X181079673Y-151922192D01*
X181423201Y-152064838D01*
X181795167Y-152065162D01*
X182138943Y-151923117D01*
X182244954Y-151817290D01*
X182349673Y-151922192D01*
X182693201Y-152064838D01*
X183065167Y-152065162D01*
X183408943Y-151923117D01*
X183514954Y-151817290D01*
X183619673Y-151922192D01*
X183963201Y-152064838D01*
X184335167Y-152065162D01*
X184678943Y-151923117D01*
X184784954Y-151817290D01*
X184889673Y-151922192D01*
X185233201Y-152064838D01*
X185605167Y-152065162D01*
X185948943Y-151923117D01*
X186054954Y-151817290D01*
X186159673Y-151922192D01*
X186503201Y-152064838D01*
X186875167Y-152065162D01*
X187218943Y-151923117D01*
X187324954Y-151817290D01*
X187429673Y-151922192D01*
X187773201Y-152064838D01*
X188145167Y-152065162D01*
X188488943Y-151923117D01*
X188594954Y-151817290D01*
X188699673Y-151922192D01*
X189043201Y-152064838D01*
X189415167Y-152065162D01*
X189758943Y-151923117D01*
X189864954Y-151817290D01*
X189969673Y-151922192D01*
X190313201Y-152064838D01*
X190685167Y-152065162D01*
X191028943Y-151923117D01*
X191134954Y-151817290D01*
X191239673Y-151922192D01*
X191583201Y-152064838D01*
X191955167Y-152065162D01*
X192298943Y-151923117D01*
X192404954Y-151817290D01*
X192509673Y-151922192D01*
X192853201Y-152064838D01*
X193225167Y-152065162D01*
X193568943Y-151923117D01*
X193674954Y-151817290D01*
X193779673Y-151922192D01*
X194123201Y-152064838D01*
X194495167Y-152065162D01*
X194838943Y-151923117D01*
X194944954Y-151817290D01*
X195049673Y-151922192D01*
X195393201Y-152064838D01*
X195765167Y-152065162D01*
X196108943Y-151923117D01*
X196214954Y-151817290D01*
X196319673Y-151922192D01*
X196663201Y-152064838D01*
X197035167Y-152065162D01*
X197378943Y-151923117D01*
X197484954Y-151817290D01*
X197589673Y-151922192D01*
X197933201Y-152064838D01*
X198305167Y-152065162D01*
X198648943Y-151923117D01*
X198754954Y-151817290D01*
X198859673Y-151922192D01*
X199203201Y-152064838D01*
X199575167Y-152065162D01*
X199918943Y-151923117D01*
X200024954Y-151817290D01*
X200129673Y-151922192D01*
X200473201Y-152064838D01*
X200845167Y-152065162D01*
X201188943Y-151923117D01*
X201294954Y-151817290D01*
X201399673Y-151922192D01*
X201743201Y-152064838D01*
X202115167Y-152065162D01*
X202458943Y-151923117D01*
X202564954Y-151817290D01*
X202669673Y-151922192D01*
X203013201Y-152064838D01*
X203385167Y-152065162D01*
X203728943Y-151923117D01*
X203834954Y-151817290D01*
X203939673Y-151922192D01*
X204283201Y-152064838D01*
X204655167Y-152065162D01*
X204998943Y-151923117D01*
X205104954Y-151817290D01*
X205209673Y-151922192D01*
X205553201Y-152064838D01*
X205925167Y-152065162D01*
X206268943Y-151923117D01*
X206374954Y-151817290D01*
X206479673Y-151922192D01*
X206823201Y-152064838D01*
X207195167Y-152065162D01*
X207538943Y-151923117D01*
X207644954Y-151817290D01*
X207749673Y-151922192D01*
X208093201Y-152064838D01*
X208465167Y-152065162D01*
X208808943Y-151923117D01*
X208914954Y-151817290D01*
X209019673Y-151922192D01*
X209363201Y-152064838D01*
X209735167Y-152065162D01*
X210078943Y-151923117D01*
X210184954Y-151817290D01*
X210289673Y-151922192D01*
X210633201Y-152064838D01*
X211005167Y-152065162D01*
X211348943Y-151923117D01*
X211454954Y-151817290D01*
X211559673Y-151922192D01*
X211903201Y-152064838D01*
X212275167Y-152065162D01*
X212618943Y-151923117D01*
X212724954Y-151817290D01*
X212829673Y-151922192D01*
X213173201Y-152064838D01*
X213545167Y-152065162D01*
X213888943Y-151923117D01*
X213994954Y-151817290D01*
X214099673Y-151922192D01*
X214443201Y-152064838D01*
X214815167Y-152065162D01*
X215158943Y-151923117D01*
X215264954Y-151817290D01*
X215369673Y-151922192D01*
X215713201Y-152064838D01*
X216085167Y-152065162D01*
X216428943Y-151923117D01*
X216534954Y-151817290D01*
X216639673Y-151922192D01*
X216983201Y-152064838D01*
X217355167Y-152065162D01*
X217698943Y-151923117D01*
X217804954Y-151817290D01*
X217909673Y-151922192D01*
X218253201Y-152064838D01*
X218625167Y-152065162D01*
X218968943Y-151923117D01*
X219074954Y-151817290D01*
X219179673Y-151922192D01*
X219523201Y-152064838D01*
X219895167Y-152065162D01*
X220238943Y-151923117D01*
X220344954Y-151817290D01*
X220449673Y-151922192D01*
X220793201Y-152064838D01*
X221165167Y-152065162D01*
X221508943Y-151923117D01*
X221614954Y-151817290D01*
X221719673Y-151922192D01*
X222063201Y-152064838D01*
X222435167Y-152065162D01*
X222778943Y-151923117D01*
X222884954Y-151817290D01*
X222989673Y-151922192D01*
X223333201Y-152064838D01*
X223705167Y-152065162D01*
X224048943Y-151923117D01*
X224154954Y-151817290D01*
X224259673Y-151922192D01*
X224603201Y-152064838D01*
X224975167Y-152065162D01*
X225318943Y-151923117D01*
X225424954Y-151817290D01*
X225529673Y-151922192D01*
X225873201Y-152064838D01*
X226245167Y-152065162D01*
X226588943Y-151923117D01*
X226694954Y-151817290D01*
X226799673Y-151922192D01*
X227143201Y-152064838D01*
X227515167Y-152065162D01*
X227858943Y-151923117D01*
X227964954Y-151817290D01*
X228069673Y-151922192D01*
X228413201Y-152064838D01*
X228785167Y-152065162D01*
X229128943Y-151923117D01*
X229234954Y-151817290D01*
X229339673Y-151922192D01*
X229683201Y-152064838D01*
X230055167Y-152065162D01*
X230398943Y-151923117D01*
X230504954Y-151817290D01*
X230609673Y-151922192D01*
X230953201Y-152064838D01*
X231325167Y-152065162D01*
X231668943Y-151923117D01*
X231774954Y-151817290D01*
X231879673Y-151922192D01*
X232223201Y-152064838D01*
X232595167Y-152065162D01*
X232938943Y-151923117D01*
X233044954Y-151817290D01*
X233149673Y-151922192D01*
X233493201Y-152064838D01*
X233865167Y-152065162D01*
X234208943Y-151923117D01*
X234314954Y-151817290D01*
X234419673Y-151922192D01*
X234763201Y-152064838D01*
X235135167Y-152065162D01*
X235478943Y-151923117D01*
X235584954Y-151817290D01*
X235689673Y-151922192D01*
X236033201Y-152064838D01*
X236405167Y-152065162D01*
X236748943Y-151923117D01*
X236854954Y-151817290D01*
X236959673Y-151922192D01*
X237303201Y-152064838D01*
X237675167Y-152065162D01*
X238018943Y-151923117D01*
X238282192Y-151660327D01*
X238424838Y-151316799D01*
X238425162Y-150944833D01*
X238370524Y-150812600D01*
X238424838Y-150681799D01*
X238425162Y-150309833D01*
X238283117Y-149966057D01*
X238252000Y-149934886D01*
X238252000Y-142800466D01*
X238282192Y-142770327D01*
X238424838Y-142426799D01*
X238425162Y-142054833D01*
X238370524Y-141922600D01*
X238424838Y-141791799D01*
X238425162Y-141419833D01*
X238283117Y-141076057D01*
X238252000Y-141044886D01*
X238252000Y-133910466D01*
X238282192Y-133880327D01*
X238424838Y-133536799D01*
X238425162Y-133164833D01*
X238370524Y-133032600D01*
X238424838Y-132901799D01*
X238425162Y-132529833D01*
X238283117Y-132186057D01*
X238252000Y-132154886D01*
X238252000Y-125020466D01*
X238282192Y-124990327D01*
X238424838Y-124646799D01*
X238425162Y-124274833D01*
X238370524Y-124142600D01*
X238424838Y-124011799D01*
X238425162Y-123639833D01*
X238283117Y-123296057D01*
X238020327Y-123032808D01*
X237676799Y-122890162D01*
X237304833Y-122889838D01*
X236961057Y-123031883D01*
X236855046Y-123137710D01*
X236750327Y-123032808D01*
X236406799Y-122890162D01*
X236034833Y-122889838D01*
X235691057Y-123031883D01*
X235585046Y-123137710D01*
X235480327Y-123032808D01*
X235136799Y-122890162D01*
X234764833Y-122889838D01*
X234421057Y-123031883D01*
X234315046Y-123137710D01*
X234210327Y-123032808D01*
X233866799Y-122890162D01*
X233494833Y-122889838D01*
X233151057Y-123031883D01*
X233045046Y-123137710D01*
X232940327Y-123032808D01*
X232596799Y-122890162D01*
X232224833Y-122889838D01*
X231881057Y-123031883D01*
X231775046Y-123137710D01*
X231670327Y-123032808D01*
X231326799Y-122890162D01*
X230954833Y-122889838D01*
X230611057Y-123031883D01*
X230505046Y-123137710D01*
X230400327Y-123032808D01*
X230056799Y-122890162D01*
X229684833Y-122889838D01*
X229341057Y-123031883D01*
X229235046Y-123137710D01*
X229130327Y-123032808D01*
X228786799Y-122890162D01*
X228414833Y-122889838D01*
X228071057Y-123031883D01*
X227965046Y-123137710D01*
X227860327Y-123032808D01*
X227516799Y-122890162D01*
X227144833Y-122889838D01*
X226801057Y-123031883D01*
X226695046Y-123137710D01*
X226590327Y-123032808D01*
X226246799Y-122890162D01*
X225874833Y-122889838D01*
X225531057Y-123031883D01*
X225425046Y-123137710D01*
X225320327Y-123032808D01*
X224976799Y-122890162D01*
X224604833Y-122889838D01*
X224261057Y-123031883D01*
X224155046Y-123137710D01*
X224050327Y-123032808D01*
X223706799Y-122890162D01*
X223334833Y-122889838D01*
X222991057Y-123031883D01*
X222885046Y-123137710D01*
X222780327Y-123032808D01*
X222436799Y-122890162D01*
X222064833Y-122889838D01*
X221721057Y-123031883D01*
X221615046Y-123137710D01*
X221510327Y-123032808D01*
X221166799Y-122890162D01*
X220794833Y-122889838D01*
X220451057Y-123031883D01*
X220345046Y-123137710D01*
X220240327Y-123032808D01*
X219896799Y-122890162D01*
X219524833Y-122889838D01*
X219181057Y-123031883D01*
X219075046Y-123137710D01*
X218970327Y-123032808D01*
X218626799Y-122890162D01*
X218254833Y-122889838D01*
X217911057Y-123031883D01*
X217805046Y-123137710D01*
X217700327Y-123032808D01*
X217356799Y-122890162D01*
X216984833Y-122889838D01*
X216641057Y-123031883D01*
X216535046Y-123137710D01*
X216430327Y-123032808D01*
X216086799Y-122890162D01*
X215714833Y-122889838D01*
X215371057Y-123031883D01*
X215265046Y-123137710D01*
X215160327Y-123032808D01*
X214816799Y-122890162D01*
X214444833Y-122889838D01*
X214101057Y-123031883D01*
X213995046Y-123137710D01*
X213890327Y-123032808D01*
X213546799Y-122890162D01*
X213174833Y-122889838D01*
X212831057Y-123031883D01*
X212725046Y-123137710D01*
X212620327Y-123032808D01*
X212276799Y-122890162D01*
X211904833Y-122889838D01*
X211561057Y-123031883D01*
X211455046Y-123137710D01*
X211350327Y-123032808D01*
X211006799Y-122890162D01*
X210634833Y-122889838D01*
X210291057Y-123031883D01*
X210185046Y-123137710D01*
X210080327Y-123032808D01*
X209736799Y-122890162D01*
X209364833Y-122889838D01*
X209021057Y-123031883D01*
X208915046Y-123137710D01*
X208810327Y-123032808D01*
X208466799Y-122890162D01*
X208094833Y-122889838D01*
X207751057Y-123031883D01*
X207645046Y-123137710D01*
X207540327Y-123032808D01*
X207196799Y-122890162D01*
X206824833Y-122889838D01*
X206481057Y-123031883D01*
X206375046Y-123137710D01*
X206270327Y-123032808D01*
X205926799Y-122890162D01*
X205554833Y-122889838D01*
X205211057Y-123031883D01*
X205105046Y-123137710D01*
X205000327Y-123032808D01*
X204656799Y-122890162D01*
X204284833Y-122889838D01*
X203941057Y-123031883D01*
X203835046Y-123137710D01*
X203730327Y-123032808D01*
X203386799Y-122890162D01*
X203014833Y-122889838D01*
X202671057Y-123031883D01*
X202565046Y-123137710D01*
X202460327Y-123032808D01*
X202116799Y-122890162D01*
X201744833Y-122889838D01*
X201401057Y-123031883D01*
X201295046Y-123137710D01*
X201190327Y-123032808D01*
X200846799Y-122890162D01*
X200474833Y-122889838D01*
X200131057Y-123031883D01*
X200025046Y-123137710D01*
X199920327Y-123032808D01*
X199576799Y-122890162D01*
X199204833Y-122889838D01*
X198861057Y-123031883D01*
X198755046Y-123137710D01*
X198650327Y-123032808D01*
X198306799Y-122890162D01*
X197934833Y-122889838D01*
X197591057Y-123031883D01*
X197485046Y-123137710D01*
X197380327Y-123032808D01*
X197036799Y-122890162D01*
X196664833Y-122889838D01*
X196321057Y-123031883D01*
X196215046Y-123137710D01*
X196110327Y-123032808D01*
X195766799Y-122890162D01*
X195394833Y-122889838D01*
X195051057Y-123031883D01*
X194945046Y-123137710D01*
X194840327Y-123032808D01*
X194496799Y-122890162D01*
X194124833Y-122889838D01*
X193781057Y-123031883D01*
X193675046Y-123137710D01*
X193570327Y-123032808D01*
X193226799Y-122890162D01*
X192854833Y-122889838D01*
X192511057Y-123031883D01*
X192405046Y-123137710D01*
X192300327Y-123032808D01*
X191956799Y-122890162D01*
X191584833Y-122889838D01*
X191241057Y-123031883D01*
X191135046Y-123137710D01*
X191030327Y-123032808D01*
X190686799Y-122890162D01*
X190314833Y-122889838D01*
X189971057Y-123031883D01*
X189865046Y-123137710D01*
X189760327Y-123032808D01*
X189416799Y-122890162D01*
X189044833Y-122889838D01*
X188701057Y-123031883D01*
X188595046Y-123137710D01*
X188490327Y-123032808D01*
X188146799Y-122890162D01*
X187774833Y-122889838D01*
X187431057Y-123031883D01*
X187325046Y-123137710D01*
X187220327Y-123032808D01*
X186876799Y-122890162D01*
X186504833Y-122889838D01*
X186161057Y-123031883D01*
X186055046Y-123137710D01*
X185950327Y-123032808D01*
X185606799Y-122890162D01*
X185234833Y-122889838D01*
X184891057Y-123031883D01*
X184785046Y-123137710D01*
X184680327Y-123032808D01*
X184336799Y-122890162D01*
X183964833Y-122889838D01*
X183621057Y-123031883D01*
X183515046Y-123137710D01*
X183410327Y-123032808D01*
X183066799Y-122890162D01*
X182694833Y-122889838D01*
X182351057Y-123031883D01*
X182245046Y-123137710D01*
X182140327Y-123032808D01*
X181796799Y-122890162D01*
X181424833Y-122889838D01*
X181081057Y-123031883D01*
X180975046Y-123137710D01*
X180870327Y-123032808D01*
X180526799Y-122890162D01*
X180154833Y-122889838D01*
X179811057Y-123031883D01*
X179705046Y-123137710D01*
X179600327Y-123032808D01*
X179256799Y-122890162D01*
X178884833Y-122889838D01*
X178541057Y-123031883D01*
X178435046Y-123137710D01*
X178330327Y-123032808D01*
X177986799Y-122890162D01*
X177614833Y-122889838D01*
X177271057Y-123031883D01*
X177165046Y-123137710D01*
X177060327Y-123032808D01*
X176716799Y-122890162D01*
X176344833Y-122889838D01*
X176001057Y-123031883D01*
X175895046Y-123137710D01*
X175790327Y-123032808D01*
X175446799Y-122890162D01*
X175074833Y-122889838D01*
X174731057Y-123031883D01*
X174625046Y-123137710D01*
X174520327Y-123032808D01*
X174176799Y-122890162D01*
X173804833Y-122889838D01*
X173461057Y-123031883D01*
X173355046Y-123137710D01*
X173250327Y-123032808D01*
X172906799Y-122890162D01*
X172534833Y-122889838D01*
X172191057Y-123031883D01*
X172085046Y-123137710D01*
X171980327Y-123032808D01*
X171636799Y-122890162D01*
X171264833Y-122889838D01*
X170921057Y-123031883D01*
X170815046Y-123137710D01*
X170710327Y-123032808D01*
X170366799Y-122890162D01*
X169994833Y-122889838D01*
X169651057Y-123031883D01*
X169545046Y-123137710D01*
X169440327Y-123032808D01*
X169096799Y-122890162D01*
X168724833Y-122889838D01*
X168381057Y-123031883D01*
X168275046Y-123137710D01*
X168170327Y-123032808D01*
X167826799Y-122890162D01*
X167454833Y-122889838D01*
X167111057Y-123031883D01*
X167005046Y-123137710D01*
X166900327Y-123032808D01*
X166556799Y-122890162D01*
X166184833Y-122889838D01*
X165841057Y-123031883D01*
X165735046Y-123137710D01*
X165630327Y-123032808D01*
X165286799Y-122890162D01*
X164914833Y-122889838D01*
X164571057Y-123031883D01*
X164465046Y-123137710D01*
X164360327Y-123032808D01*
X164016799Y-122890162D01*
X163644833Y-122889838D01*
X163301057Y-123031883D01*
X163195046Y-123137710D01*
X163090327Y-123032808D01*
X162746799Y-122890162D01*
X162374833Y-122889838D01*
X162031057Y-123031883D01*
X161925046Y-123137710D01*
X161820327Y-123032808D01*
X161476799Y-122890162D01*
X161104833Y-122889838D01*
X160761057Y-123031883D01*
X160655046Y-123137710D01*
X160550327Y-123032808D01*
X160206799Y-122890162D01*
X159834833Y-122889838D01*
X159491057Y-123031883D01*
X159385046Y-123137710D01*
X159280327Y-123032808D01*
X158936799Y-122890162D01*
X158564833Y-122889838D01*
X158221057Y-123031883D01*
X158115046Y-123137710D01*
X158010327Y-123032808D01*
X157666799Y-122890162D01*
X157294833Y-122889838D01*
X156951057Y-123031883D01*
X156687808Y-123294673D01*
X156545162Y-123638201D01*
X156544838Y-124010167D01*
X155710000Y-124010167D01*
X155710000Y-114485167D01*
X189564838Y-114485167D01*
X189706883Y-114828943D01*
X189738000Y-114860114D01*
X189738000Y-115009534D01*
X189707808Y-115039673D01*
X189565162Y-115383201D01*
X189564838Y-115755167D01*
X189706883Y-116098943D01*
X189969673Y-116362192D01*
X190313201Y-116504838D01*
X190357246Y-116504876D01*
X193771185Y-119918816D01*
X193919377Y-120017834D01*
X194018395Y-120083996D01*
X194310000Y-120142000D01*
X235269370Y-120142000D01*
X239094875Y-123967506D01*
X239094838Y-124010167D01*
X239149476Y-124142400D01*
X239095162Y-124273201D01*
X239094838Y-124645167D01*
X239236883Y-124988943D01*
X239268000Y-125020114D01*
X239268000Y-132154534D01*
X239237808Y-132184673D01*
X239095162Y-132528201D01*
X239094838Y-132900167D01*
X239149476Y-133032400D01*
X239095162Y-133163201D01*
X239094838Y-133535167D01*
X239236883Y-133878943D01*
X239268000Y-133910114D01*
X239268000Y-141044534D01*
X239237808Y-141074673D01*
X239095162Y-141418201D01*
X239094838Y-141790167D01*
X239149476Y-141922400D01*
X239095162Y-142053201D01*
X239094838Y-142425167D01*
X239236883Y-142768943D01*
X239268000Y-142800114D01*
X239268000Y-149934534D01*
X239237808Y-149964673D01*
X239095162Y-150308201D01*
X239094838Y-150680167D01*
X239149476Y-150812400D01*
X239095162Y-150943201D01*
X239094838Y-151315167D01*
X239236883Y-151658943D01*
X239499673Y-151922192D01*
X239843201Y-152064838D01*
X240215167Y-152065162D01*
X240558943Y-151923117D01*
X240664954Y-151817290D01*
X240769673Y-151922192D01*
X241113201Y-152064838D01*
X241485167Y-152065162D01*
X241828943Y-151923117D01*
X241934954Y-151817290D01*
X242039673Y-151922192D01*
X242383201Y-152064838D01*
X242755167Y-152065162D01*
X243098943Y-151923117D01*
X243362192Y-151660327D01*
X243504838Y-151316799D01*
X243505162Y-150944833D01*
X243450524Y-150812600D01*
X243504838Y-150681799D01*
X243505162Y-150309833D01*
X243363117Y-149966057D01*
X243332000Y-149934886D01*
X243332000Y-142800466D01*
X243362192Y-142770327D01*
X243504838Y-142426799D01*
X243505162Y-142054833D01*
X243450524Y-141922600D01*
X243504838Y-141791799D01*
X243505162Y-141419833D01*
X243363117Y-141076057D01*
X243332000Y-141044886D01*
X243332000Y-133910466D01*
X243362192Y-133880327D01*
X243504838Y-133536799D01*
X243505162Y-133164833D01*
X243450524Y-133032600D01*
X243504838Y-132901799D01*
X243505162Y-132529833D01*
X243363117Y-132186057D01*
X243332000Y-132154886D01*
X243332000Y-125020466D01*
X243362192Y-124990327D01*
X243504838Y-124646799D01*
X243505162Y-124274833D01*
X243450524Y-124142600D01*
X243504838Y-124011799D01*
X243505162Y-123639833D01*
X243363117Y-123296057D01*
X243100327Y-123032808D01*
X242756799Y-122890162D01*
X242712755Y-122890124D01*
X237393815Y-117571185D01*
X237353124Y-117543996D01*
X237146605Y-117406004D01*
X236855000Y-117348000D01*
X204785631Y-117348000D01*
X203764877Y-116327246D01*
X203834954Y-116257290D01*
X203939673Y-116362192D01*
X204283201Y-116504838D01*
X204655167Y-116505162D01*
X204998943Y-116363117D01*
X205104954Y-116257290D01*
X205209673Y-116362192D01*
X205553201Y-116504838D01*
X205925167Y-116505162D01*
X206268943Y-116363117D01*
X206374954Y-116257290D01*
X206479673Y-116362192D01*
X206823201Y-116504838D01*
X207195167Y-116505162D01*
X207538943Y-116363117D01*
X207644954Y-116257290D01*
X207749673Y-116362192D01*
X208093201Y-116504838D01*
X208465167Y-116505162D01*
X208808943Y-116363117D01*
X208914954Y-116257290D01*
X209019673Y-116362192D01*
X209363201Y-116504838D01*
X209735167Y-116505162D01*
X210078943Y-116363117D01*
X210184954Y-116257290D01*
X210289673Y-116362192D01*
X210633201Y-116504838D01*
X211005167Y-116505162D01*
X211348943Y-116363117D01*
X211612192Y-116100327D01*
X211754838Y-115756799D01*
X211755162Y-115384833D01*
X211613117Y-115041057D01*
X211582000Y-115009886D01*
X211582000Y-114860466D01*
X211612192Y-114830327D01*
X211754838Y-114486799D01*
X211755162Y-114114833D01*
X211613117Y-113771057D01*
X211350327Y-113507808D01*
X211006799Y-113365162D01*
X210634833Y-113364838D01*
X210291057Y-113506883D01*
X210185046Y-113612710D01*
X210080327Y-113507808D01*
X209736799Y-113365162D01*
X209364833Y-113364838D01*
X209021057Y-113506883D01*
X208915046Y-113612710D01*
X208810327Y-113507808D01*
X208466799Y-113365162D01*
X208094833Y-113364838D01*
X207751057Y-113506883D01*
X207645046Y-113612710D01*
X207540327Y-113507808D01*
X207196799Y-113365162D01*
X206824833Y-113364838D01*
X206481057Y-113506883D01*
X206375046Y-113612710D01*
X206270327Y-113507808D01*
X205926799Y-113365162D01*
X205554833Y-113364838D01*
X205211057Y-113506883D01*
X205105046Y-113612710D01*
X205000327Y-113507808D01*
X204656799Y-113365162D01*
X204284833Y-113364838D01*
X203941057Y-113506883D01*
X203835046Y-113612710D01*
X203730327Y-113507808D01*
X203386799Y-113365162D01*
X203014833Y-113364838D01*
X202671057Y-113506883D01*
X202565046Y-113612710D01*
X202460327Y-113507808D01*
X202116799Y-113365162D01*
X201744833Y-113364838D01*
X201401057Y-113506883D01*
X201295046Y-113612710D01*
X201190327Y-113507808D01*
X200846799Y-113365162D01*
X200474833Y-113364838D01*
X200131057Y-113506883D01*
X200025046Y-113612710D01*
X199920327Y-113507808D01*
X199576799Y-113365162D01*
X199204833Y-113364838D01*
X198861057Y-113506883D01*
X198755046Y-113612710D01*
X198650327Y-113507808D01*
X198306799Y-113365162D01*
X197934833Y-113364838D01*
X197591057Y-113506883D01*
X197485046Y-113612710D01*
X197380327Y-113507808D01*
X197036799Y-113365162D01*
X196664833Y-113364838D01*
X196321057Y-113506883D01*
X196215046Y-113612710D01*
X196110327Y-113507808D01*
X195766799Y-113365162D01*
X195394833Y-113364838D01*
X195051057Y-113506883D01*
X194945046Y-113612710D01*
X194840327Y-113507808D01*
X194496799Y-113365162D01*
X194124833Y-113364838D01*
X193781057Y-113506883D01*
X193675046Y-113612710D01*
X193570327Y-113507808D01*
X193226799Y-113365162D01*
X192854833Y-113364838D01*
X192511057Y-113506883D01*
X192405046Y-113612710D01*
X192300327Y-113507808D01*
X191956799Y-113365162D01*
X191584833Y-113364838D01*
X191241057Y-113506883D01*
X191135046Y-113612710D01*
X191030327Y-113507808D01*
X190686799Y-113365162D01*
X190314833Y-113364838D01*
X189971057Y-113506883D01*
X189707808Y-113769673D01*
X189565162Y-114113201D01*
X189564838Y-114485167D01*
X155710000Y-114485167D01*
X155710000Y-94114384D01*
X159944327Y-94114384D01*
X160534537Y-95542801D01*
X161626451Y-96636623D01*
X162876155Y-97155545D01*
X161632199Y-97669537D01*
X160538377Y-98761451D01*
X159945676Y-100188835D01*
X159944327Y-101734384D01*
X160534537Y-103162801D01*
X161626451Y-104256623D01*
X162876155Y-104775545D01*
X161632199Y-105289537D01*
X160538377Y-106381451D01*
X159945676Y-107808835D01*
X159944327Y-109354384D01*
X160534537Y-110782801D01*
X161626451Y-111876623D01*
X163053835Y-112469324D01*
X164599384Y-112470673D01*
X166027801Y-111880463D01*
X167121623Y-110788549D01*
X167714324Y-109361165D01*
X167715673Y-107815616D01*
X167125463Y-106387199D01*
X166033549Y-105293377D01*
X164783845Y-104774455D01*
X166027801Y-104260463D01*
X167121623Y-103168549D01*
X167714324Y-101741165D01*
X167715673Y-100195616D01*
X167125463Y-98767199D01*
X166033549Y-97673377D01*
X164783845Y-97154455D01*
X166027801Y-96640463D01*
X167121623Y-95548549D01*
X167714324Y-94121165D01*
X167715673Y-92575616D01*
X167125463Y-91147199D01*
X166334813Y-90355167D01*
X184484838Y-90355167D01*
X184626883Y-90698943D01*
X184732710Y-90804954D01*
X184627808Y-90909673D01*
X184485162Y-91253201D01*
X184484838Y-91625167D01*
X184626883Y-91968943D01*
X184732710Y-92074954D01*
X184627808Y-92179673D01*
X184485162Y-92523201D01*
X184484838Y-92895167D01*
X184626883Y-93238943D01*
X184732710Y-93344954D01*
X184627808Y-93449673D01*
X184485162Y-93793201D01*
X184484838Y-94165167D01*
X184626883Y-94508943D01*
X184732710Y-94614954D01*
X184627808Y-94719673D01*
X184485162Y-95063201D01*
X184484838Y-95435167D01*
X184626883Y-95778943D01*
X184732710Y-95884954D01*
X184627808Y-95989673D01*
X184485162Y-96333201D01*
X184484838Y-96705167D01*
X184626883Y-97048943D01*
X184732710Y-97154954D01*
X184627808Y-97259673D01*
X184485162Y-97603201D01*
X184484838Y-97975167D01*
X184626883Y-98318943D01*
X184732710Y-98424954D01*
X184627808Y-98529673D01*
X184485162Y-98873201D01*
X184484838Y-99245167D01*
X184626883Y-99588943D01*
X184732710Y-99694954D01*
X184627808Y-99799673D01*
X184485162Y-100143201D01*
X184484838Y-100515167D01*
X184626883Y-100858943D01*
X184732710Y-100964954D01*
X184627808Y-101069673D01*
X184485162Y-101413201D01*
X184484838Y-101785167D01*
X184626883Y-102128943D01*
X184732710Y-102234954D01*
X184627808Y-102339673D01*
X184485162Y-102683201D01*
X184484838Y-103055167D01*
X184626883Y-103398943D01*
X184732710Y-103504954D01*
X184627808Y-103609673D01*
X184485162Y-103953201D01*
X184484838Y-104325167D01*
X184626883Y-104668943D01*
X184732710Y-104774954D01*
X184627808Y-104879673D01*
X184485162Y-105223201D01*
X184484838Y-105595167D01*
X184626883Y-105938943D01*
X184732710Y-106044954D01*
X184627808Y-106149673D01*
X184485162Y-106493201D01*
X184484838Y-106865167D01*
X184626883Y-107208943D01*
X184732710Y-107314954D01*
X184627808Y-107419673D01*
X184485162Y-107763201D01*
X184484838Y-108135167D01*
X184626883Y-108478943D01*
X184732710Y-108584954D01*
X184627808Y-108689673D01*
X184485162Y-109033201D01*
X184484838Y-109405167D01*
X184626883Y-109748943D01*
X184832238Y-109954656D01*
X184827212Y-109959673D01*
X184684566Y-110303201D01*
X184684242Y-110675167D01*
X184826287Y-111018943D01*
X185089077Y-111282192D01*
X185432605Y-111424838D01*
X185804571Y-111425162D01*
X186148347Y-111283117D01*
X186154482Y-111276992D01*
X186159673Y-111282192D01*
X186503201Y-111424838D01*
X186875167Y-111425162D01*
X187218943Y-111283117D01*
X187482192Y-111020327D01*
X187624838Y-110676799D01*
X187625162Y-110304833D01*
X187483117Y-109961057D01*
X187377290Y-109855046D01*
X187482192Y-109750327D01*
X187624838Y-109406799D01*
X187625162Y-109034833D01*
X187483117Y-108691057D01*
X187377290Y-108585046D01*
X187482192Y-108480327D01*
X187624838Y-108136799D01*
X187625162Y-107764833D01*
X187483117Y-107421057D01*
X187377290Y-107315046D01*
X187482192Y-107210327D01*
X187624838Y-106866799D01*
X187625162Y-106494833D01*
X187483117Y-106151057D01*
X187377290Y-106045046D01*
X187482192Y-105940327D01*
X187624838Y-105596799D01*
X187625162Y-105224833D01*
X187483117Y-104881057D01*
X187377290Y-104775046D01*
X187482192Y-104670327D01*
X187624838Y-104326799D01*
X187625162Y-103954833D01*
X187483117Y-103611057D01*
X187377290Y-103505046D01*
X187482192Y-103400327D01*
X187624838Y-103056799D01*
X187625162Y-102684833D01*
X187483117Y-102341057D01*
X187377290Y-102235046D01*
X187482192Y-102130327D01*
X187624838Y-101786799D01*
X187625162Y-101414833D01*
X187483117Y-101071057D01*
X187377290Y-100965046D01*
X187482192Y-100860327D01*
X187624838Y-100516799D01*
X187625162Y-100144833D01*
X187483117Y-99801057D01*
X187377290Y-99695046D01*
X187482192Y-99590327D01*
X187624838Y-99246799D01*
X187625162Y-98874833D01*
X187483117Y-98531057D01*
X187377290Y-98425046D01*
X187482192Y-98320327D01*
X187624838Y-97976799D01*
X187625162Y-97604833D01*
X187483117Y-97261057D01*
X187377290Y-97155046D01*
X187482192Y-97050327D01*
X187624838Y-96706799D01*
X187625162Y-96334833D01*
X187483117Y-95991057D01*
X187377290Y-95885046D01*
X187482192Y-95780327D01*
X187624838Y-95436799D01*
X187625162Y-95064833D01*
X187483117Y-94721057D01*
X187377290Y-94615046D01*
X187482192Y-94510327D01*
X187624838Y-94166799D01*
X187625162Y-93794833D01*
X187483117Y-93451057D01*
X187377290Y-93345046D01*
X187482192Y-93240327D01*
X187624838Y-92896799D01*
X187625162Y-92524833D01*
X187483117Y-92181057D01*
X187377290Y-92075046D01*
X187482192Y-91970327D01*
X187624838Y-91626799D01*
X187625162Y-91254833D01*
X187483117Y-90911057D01*
X187377290Y-90805046D01*
X187482192Y-90700327D01*
X187624838Y-90356799D01*
X187624839Y-90355167D01*
X213694838Y-90355167D01*
X213836883Y-90698943D01*
X213942710Y-90804954D01*
X213837808Y-90909673D01*
X213695162Y-91253201D01*
X213694838Y-91625167D01*
X213836883Y-91968943D01*
X213942710Y-92074954D01*
X213837808Y-92179673D01*
X213695162Y-92523201D01*
X213694838Y-92895167D01*
X213836883Y-93238943D01*
X213942710Y-93344954D01*
X213837808Y-93449673D01*
X213695162Y-93793201D01*
X213694838Y-94165167D01*
X213836883Y-94508943D01*
X213942710Y-94614954D01*
X213837808Y-94719673D01*
X213695162Y-95063201D01*
X213694838Y-95435167D01*
X213836883Y-95778943D01*
X213942710Y-95884954D01*
X213837808Y-95989673D01*
X213695162Y-96333201D01*
X213694838Y-96705167D01*
X213836883Y-97048943D01*
X213942710Y-97154954D01*
X213837808Y-97259673D01*
X213695162Y-97603201D01*
X213694838Y-97975167D01*
X213836883Y-98318943D01*
X213942710Y-98424954D01*
X213837808Y-98529673D01*
X213695162Y-98873201D01*
X213694838Y-99245167D01*
X213836883Y-99588943D01*
X213942710Y-99694954D01*
X213837808Y-99799673D01*
X213695162Y-100143201D01*
X213694838Y-100515167D01*
X213836883Y-100858943D01*
X213942710Y-100964954D01*
X213837808Y-101069673D01*
X213695162Y-101413201D01*
X213694838Y-101785167D01*
X213836883Y-102128943D01*
X213942710Y-102234954D01*
X213837808Y-102339673D01*
X213695162Y-102683201D01*
X213694838Y-103055167D01*
X213836883Y-103398943D01*
X213942710Y-103504954D01*
X213837808Y-103609673D01*
X213695162Y-103953201D01*
X213694838Y-104325167D01*
X213836883Y-104668943D01*
X213942710Y-104774954D01*
X213837808Y-104879673D01*
X213695162Y-105223201D01*
X213694838Y-105595167D01*
X213836883Y-105938943D01*
X213942710Y-106044954D01*
X213837808Y-106149673D01*
X213695162Y-106493201D01*
X213694838Y-106865167D01*
X213836883Y-107208943D01*
X213942710Y-107314954D01*
X213837808Y-107419673D01*
X213695162Y-107763201D01*
X213694838Y-108135167D01*
X213836883Y-108478943D01*
X213942710Y-108584954D01*
X213837808Y-108689673D01*
X213695162Y-109033201D01*
X213694838Y-109405167D01*
X213836883Y-109748943D01*
X213942710Y-109854954D01*
X213837808Y-109959673D01*
X213695162Y-110303201D01*
X213694838Y-110675167D01*
X213836883Y-111018943D01*
X214099673Y-111282192D01*
X214443201Y-111424838D01*
X214815167Y-111425162D01*
X215158943Y-111283117D01*
X215190114Y-111252000D01*
X215319797Y-111252000D01*
X215349936Y-111282192D01*
X215693464Y-111424838D01*
X216065430Y-111425162D01*
X216409206Y-111283117D01*
X216672455Y-111020327D01*
X216815101Y-110676799D01*
X216815425Y-110304833D01*
X216673380Y-109961057D01*
X216577405Y-109864914D01*
X216692192Y-109750327D01*
X216834838Y-109406799D01*
X216835162Y-109034833D01*
X216693117Y-108691057D01*
X216587290Y-108585046D01*
X216692192Y-108480327D01*
X216834838Y-108136799D01*
X216835162Y-107764833D01*
X216693117Y-107421057D01*
X216587290Y-107315046D01*
X216692192Y-107210327D01*
X216834838Y-106866799D01*
X216835162Y-106494833D01*
X216693117Y-106151057D01*
X216587290Y-106045046D01*
X216692192Y-105940327D01*
X216834838Y-105596799D01*
X216835162Y-105224833D01*
X216693117Y-104881057D01*
X216587290Y-104775046D01*
X216692192Y-104670327D01*
X216834838Y-104326799D01*
X216835162Y-103954833D01*
X216693117Y-103611057D01*
X216587290Y-103505046D01*
X216692192Y-103400327D01*
X216834838Y-103056799D01*
X216835162Y-102684833D01*
X216693117Y-102341057D01*
X216587290Y-102235046D01*
X216692192Y-102130327D01*
X216834838Y-101786799D01*
X216835162Y-101414833D01*
X216693117Y-101071057D01*
X216587290Y-100965046D01*
X216692192Y-100860327D01*
X216834838Y-100516799D01*
X216835162Y-100144833D01*
X216693117Y-99801057D01*
X216587290Y-99695046D01*
X216692192Y-99590327D01*
X216834838Y-99246799D01*
X216835162Y-98874833D01*
X216693117Y-98531057D01*
X216587290Y-98425046D01*
X216692192Y-98320327D01*
X216834838Y-97976799D01*
X216835162Y-97604833D01*
X216693117Y-97261057D01*
X216587290Y-97155046D01*
X216692192Y-97050327D01*
X216834838Y-96706799D01*
X216835162Y-96334833D01*
X216693117Y-95991057D01*
X216587290Y-95885046D01*
X216692192Y-95780327D01*
X216834838Y-95436799D01*
X216835162Y-95064833D01*
X216704822Y-94749384D01*
X231699327Y-94749384D01*
X232289537Y-96177801D01*
X233381451Y-97271623D01*
X234631155Y-97790545D01*
X233387199Y-98304537D01*
X232293377Y-99396451D01*
X231700676Y-100823835D01*
X231699327Y-102369384D01*
X232289537Y-103797801D01*
X233381451Y-104891623D01*
X234631155Y-105410545D01*
X233387199Y-105924537D01*
X232293377Y-107016451D01*
X231700676Y-108443835D01*
X231699327Y-109989384D01*
X232289537Y-111417801D01*
X233381451Y-112511623D01*
X234808835Y-113104324D01*
X236354384Y-113105673D01*
X237782801Y-112515463D01*
X238876623Y-111423549D01*
X239469324Y-109996165D01*
X239470673Y-108450616D01*
X238880463Y-107022199D01*
X237788549Y-105928377D01*
X236538845Y-105409455D01*
X237782801Y-104895463D01*
X238876623Y-103803549D01*
X239469324Y-102376165D01*
X239470673Y-100830616D01*
X238880463Y-99402199D01*
X237788549Y-98308377D01*
X236538845Y-97789455D01*
X237782801Y-97275463D01*
X238876623Y-96183549D01*
X239469324Y-94756165D01*
X239470673Y-93210616D01*
X238880463Y-91782199D01*
X237788549Y-90688377D01*
X236361165Y-90095676D01*
X234815616Y-90094327D01*
X233387199Y-90684537D01*
X232293377Y-91776451D01*
X231700676Y-93203835D01*
X231699327Y-94749384D01*
X216704822Y-94749384D01*
X216693117Y-94721057D01*
X216587290Y-94615046D01*
X216692192Y-94510327D01*
X216834838Y-94166799D01*
X216835162Y-93794833D01*
X216693117Y-93451057D01*
X216587290Y-93345046D01*
X216692192Y-93240327D01*
X216834838Y-92896799D01*
X216835162Y-92524833D01*
X216693117Y-92181057D01*
X216587290Y-92075046D01*
X216692192Y-91970327D01*
X216834838Y-91626799D01*
X216835162Y-91254833D01*
X216693117Y-90911057D01*
X216587290Y-90805046D01*
X216692192Y-90700327D01*
X216834838Y-90356799D01*
X216835162Y-89984833D01*
X216693117Y-89641057D01*
X216430327Y-89377808D01*
X216086799Y-89235162D01*
X215714833Y-89234838D01*
X215371057Y-89376883D01*
X215339886Y-89408000D01*
X215190466Y-89408000D01*
X215160327Y-89377808D01*
X214816799Y-89235162D01*
X214444833Y-89234838D01*
X214101057Y-89376883D01*
X213837808Y-89639673D01*
X213695162Y-89983201D01*
X213694838Y-90355167D01*
X187624839Y-90355167D01*
X187625162Y-89984833D01*
X187483117Y-89641057D01*
X187220327Y-89377808D01*
X186876799Y-89235162D01*
X186504833Y-89234838D01*
X186161057Y-89376883D01*
X186129886Y-89408000D01*
X185980466Y-89408000D01*
X185950327Y-89377808D01*
X185606799Y-89235162D01*
X185234833Y-89234838D01*
X184891057Y-89376883D01*
X184627808Y-89639673D01*
X184485162Y-89983201D01*
X184484838Y-90355167D01*
X166334813Y-90355167D01*
X166033549Y-90053377D01*
X164606165Y-89460676D01*
X163060616Y-89459327D01*
X161632199Y-90049537D01*
X160538377Y-91141451D01*
X159945676Y-92568835D01*
X159944327Y-94114384D01*
X155710000Y-94114384D01*
X155710000Y-85275167D01*
X190834838Y-85275167D01*
X190976883Y-85618943D01*
X191008000Y-85650114D01*
X191008000Y-85799534D01*
X190977808Y-85829673D01*
X190835162Y-86173201D01*
X190834838Y-86545167D01*
X190976883Y-86888943D01*
X191239673Y-87152192D01*
X191583201Y-87294838D01*
X191955167Y-87295162D01*
X192298943Y-87153117D01*
X192404954Y-87047290D01*
X192509673Y-87152192D01*
X192853201Y-87294838D01*
X193225167Y-87295162D01*
X193568943Y-87153117D01*
X193674954Y-87047290D01*
X193779673Y-87152192D01*
X194123201Y-87294838D01*
X194495167Y-87295162D01*
X194838943Y-87153117D01*
X194944954Y-87047290D01*
X195049673Y-87152192D01*
X195393201Y-87294838D01*
X195765167Y-87295162D01*
X196108943Y-87153117D01*
X196214954Y-87047290D01*
X196319673Y-87152192D01*
X196663201Y-87294838D01*
X197035167Y-87295162D01*
X197378943Y-87153117D01*
X197484954Y-87047290D01*
X197589673Y-87152192D01*
X197933201Y-87294838D01*
X198305167Y-87295162D01*
X198648943Y-87153117D01*
X198754954Y-87047290D01*
X198859673Y-87152192D01*
X199203201Y-87294838D01*
X199575167Y-87295162D01*
X199918943Y-87153117D01*
X200024954Y-87047290D01*
X200129673Y-87152192D01*
X200473201Y-87294838D01*
X200845167Y-87295162D01*
X201188943Y-87153117D01*
X201294954Y-87047290D01*
X201399673Y-87152192D01*
X201743201Y-87294838D01*
X202115167Y-87295162D01*
X202458943Y-87153117D01*
X202564954Y-87047290D01*
X202669673Y-87152192D01*
X203013201Y-87294838D01*
X203385167Y-87295162D01*
X203728943Y-87153117D01*
X203834954Y-87047290D01*
X203939673Y-87152192D01*
X204283201Y-87294838D01*
X204655167Y-87295162D01*
X204998943Y-87153117D01*
X205104954Y-87047290D01*
X205209673Y-87152192D01*
X205553201Y-87294838D01*
X205925167Y-87295162D01*
X206268943Y-87153117D01*
X206374954Y-87047290D01*
X206479673Y-87152192D01*
X206823201Y-87294838D01*
X207195167Y-87295162D01*
X207538943Y-87153117D01*
X207644954Y-87047290D01*
X207749673Y-87152192D01*
X208093201Y-87294838D01*
X208465167Y-87295162D01*
X208808943Y-87153117D01*
X208914954Y-87047290D01*
X209019673Y-87152192D01*
X209363201Y-87294838D01*
X209735167Y-87295162D01*
X210078943Y-87153117D01*
X210184954Y-87047290D01*
X210289673Y-87152192D01*
X210633201Y-87294838D01*
X211005167Y-87295162D01*
X211348943Y-87153117D01*
X211612192Y-86890327D01*
X211754838Y-86546799D01*
X211755162Y-86174833D01*
X211613117Y-85831057D01*
X211582000Y-85799886D01*
X211582000Y-85696476D01*
X211612192Y-85666337D01*
X211754838Y-85322809D01*
X211755162Y-84950843D01*
X211613117Y-84607067D01*
X211350327Y-84343818D01*
X211006799Y-84201172D01*
X210634833Y-84200848D01*
X210291057Y-84342893D01*
X210208051Y-84425755D01*
X210080327Y-84297808D01*
X209736799Y-84155162D01*
X209364833Y-84154838D01*
X209021057Y-84296883D01*
X208915046Y-84402710D01*
X208810327Y-84297808D01*
X208466799Y-84155162D01*
X208094833Y-84154838D01*
X207751057Y-84296883D01*
X207645046Y-84402710D01*
X207540327Y-84297808D01*
X207196799Y-84155162D01*
X206824833Y-84154838D01*
X206481057Y-84296883D01*
X206375046Y-84402710D01*
X206270327Y-84297808D01*
X205926799Y-84155162D01*
X205554833Y-84154838D01*
X205211057Y-84296883D01*
X205105046Y-84402710D01*
X205000327Y-84297808D01*
X204656799Y-84155162D01*
X204284833Y-84154838D01*
X203941057Y-84296883D01*
X203835046Y-84402710D01*
X203730327Y-84297808D01*
X203386799Y-84155162D01*
X203014833Y-84154838D01*
X202671057Y-84296883D01*
X202565046Y-84402710D01*
X202460327Y-84297808D01*
X202116799Y-84155162D01*
X201744833Y-84154838D01*
X201401057Y-84296883D01*
X201295046Y-84402710D01*
X201190327Y-84297808D01*
X200846799Y-84155162D01*
X200474833Y-84154838D01*
X200131057Y-84296883D01*
X200025046Y-84402710D01*
X199920327Y-84297808D01*
X199576799Y-84155162D01*
X199204833Y-84154838D01*
X198861057Y-84296883D01*
X198755046Y-84402710D01*
X198650327Y-84297808D01*
X198306799Y-84155162D01*
X197934833Y-84154838D01*
X197591057Y-84296883D01*
X197485046Y-84402710D01*
X197380327Y-84297808D01*
X197036799Y-84155162D01*
X196664833Y-84154838D01*
X196321057Y-84296883D01*
X196215046Y-84402710D01*
X196110327Y-84297808D01*
X195766799Y-84155162D01*
X195394833Y-84154838D01*
X195051057Y-84296883D01*
X194945046Y-84402710D01*
X194840327Y-84297808D01*
X194496799Y-84155162D01*
X194124833Y-84154838D01*
X193781057Y-84296883D01*
X193675046Y-84402710D01*
X193570327Y-84297808D01*
X193226799Y-84155162D01*
X192854833Y-84154838D01*
X192511057Y-84296883D01*
X192405046Y-84402710D01*
X192300327Y-84297808D01*
X191956799Y-84155162D01*
X191584833Y-84154838D01*
X191241057Y-84296883D01*
X190977808Y-84559673D01*
X190835162Y-84903201D01*
X190834838Y-85275167D01*
X155710000Y-85275167D01*
X155710000Y-77294092D01*
X159294092Y-73710000D01*
X247705908Y-73710000D01*
X251290000Y-77294092D01*
M02*
