G04 #@! TF.FileFunction,Legend,Top*
%FSLAX46Y46*%
G04 Gerber Fmt 4.6, Leading zero omitted, Abs format (unit mm)*
G04 Created by KiCad (PCBNEW 4.0.5) date Monday, February 26, 2018 'PMt' 12:55:55 PM*
%MOMM*%
%LPD*%
G01*
G04 APERTURE LIST*
%ADD10C,0.100000*%
%ADD11C,0.200000*%
%ADD12C,0.250000*%
%ADD13C,0.300000*%
%ADD14C,0.150000*%
G04 APERTURE END LIST*
D10*
D11*
X218440000Y-100330000D02*
X219075000Y-101600000D01*
X238260000Y-161950476D02*
X238212381Y-162026667D01*
X238212381Y-162140952D01*
X238260000Y-162255238D01*
X238355238Y-162331429D01*
X238450476Y-162369524D01*
X238640952Y-162407619D01*
X238783810Y-162407619D01*
X238974286Y-162369524D01*
X239069524Y-162331429D01*
X239164762Y-162255238D01*
X239212381Y-162140952D01*
X239212381Y-162064762D01*
X239164762Y-161950476D01*
X239117143Y-161912381D01*
X238783810Y-161912381D01*
X238783810Y-162064762D01*
X239212381Y-161569524D02*
X238545714Y-161569524D01*
X238736190Y-161569524D02*
X238640952Y-161531429D01*
X238593333Y-161493333D01*
X238545714Y-161417143D01*
X238545714Y-161340952D01*
X239212381Y-160960000D02*
X239164762Y-161036191D01*
X239117143Y-161074286D01*
X239021905Y-161112381D01*
X238736190Y-161112381D01*
X238640952Y-161074286D01*
X238593333Y-161036191D01*
X238545714Y-160960000D01*
X238545714Y-160845714D01*
X238593333Y-160769524D01*
X238640952Y-160731429D01*
X238736190Y-160693333D01*
X239021905Y-160693333D01*
X239117143Y-160731429D01*
X239164762Y-160769524D01*
X239212381Y-160845714D01*
X239212381Y-160960000D01*
X238545714Y-160007619D02*
X239212381Y-160007619D01*
X238545714Y-160350476D02*
X239069524Y-160350476D01*
X239164762Y-160312381D01*
X239212381Y-160236190D01*
X239212381Y-160121904D01*
X239164762Y-160045714D01*
X239117143Y-160007619D01*
X238545714Y-159626666D02*
X239212381Y-159626666D01*
X238640952Y-159626666D02*
X238593333Y-159588571D01*
X238545714Y-159512380D01*
X238545714Y-159398094D01*
X238593333Y-159321904D01*
X238688571Y-159283809D01*
X239212381Y-159283809D01*
X239212381Y-158559999D02*
X238212381Y-158559999D01*
X239164762Y-158559999D02*
X239212381Y-158636189D01*
X239212381Y-158788570D01*
X239164762Y-158864761D01*
X239117143Y-158902856D01*
X239021905Y-158940951D01*
X238736190Y-158940951D01*
X238640952Y-158902856D01*
X238593333Y-158864761D01*
X238545714Y-158788570D01*
X238545714Y-158636189D01*
X238593333Y-158559999D01*
X239958571Y-162102857D02*
X240006190Y-161988571D01*
X240053810Y-161950476D01*
X240149048Y-161912381D01*
X240291905Y-161912381D01*
X240387143Y-161950476D01*
X240434762Y-161988571D01*
X240482381Y-162064762D01*
X240482381Y-162369524D01*
X239482381Y-162369524D01*
X239482381Y-162102857D01*
X239530000Y-162026667D01*
X239577619Y-161988571D01*
X239672857Y-161950476D01*
X239768095Y-161950476D01*
X239863333Y-161988571D01*
X239910952Y-162026667D01*
X239958571Y-162102857D01*
X239958571Y-162369524D01*
X240482381Y-161226667D02*
X239958571Y-161226667D01*
X239863333Y-161264762D01*
X239815714Y-161340952D01*
X239815714Y-161493333D01*
X239863333Y-161569524D01*
X240434762Y-161226667D02*
X240482381Y-161302857D01*
X240482381Y-161493333D01*
X240434762Y-161569524D01*
X240339524Y-161607619D01*
X240244286Y-161607619D01*
X240149048Y-161569524D01*
X240101429Y-161493333D01*
X240101429Y-161302857D01*
X240053810Y-161226667D01*
X240434762Y-160502857D02*
X240482381Y-160579047D01*
X240482381Y-160731428D01*
X240434762Y-160807619D01*
X240387143Y-160845714D01*
X240291905Y-160883809D01*
X240006190Y-160883809D01*
X239910952Y-160845714D01*
X239863333Y-160807619D01*
X239815714Y-160731428D01*
X239815714Y-160579047D01*
X239863333Y-160502857D01*
X240482381Y-160160000D02*
X239482381Y-160160000D01*
X240101429Y-160083809D02*
X240482381Y-159855238D01*
X239815714Y-159855238D02*
X240196667Y-160160000D01*
X239530000Y-158483809D02*
X239482381Y-158560000D01*
X239482381Y-158674285D01*
X239530000Y-158788571D01*
X239625238Y-158864762D01*
X239720476Y-158902857D01*
X239910952Y-158940952D01*
X240053810Y-158940952D01*
X240244286Y-158902857D01*
X240339524Y-158864762D01*
X240434762Y-158788571D01*
X240482381Y-158674285D01*
X240482381Y-158598095D01*
X240434762Y-158483809D01*
X240387143Y-158445714D01*
X240053810Y-158445714D01*
X240053810Y-158598095D01*
X241704762Y-162407619D02*
X241752381Y-162293333D01*
X241752381Y-162102857D01*
X241704762Y-162026667D01*
X241657143Y-161988571D01*
X241561905Y-161950476D01*
X241466667Y-161950476D01*
X241371429Y-161988571D01*
X241323810Y-162026667D01*
X241276190Y-162102857D01*
X241228571Y-162255238D01*
X241180952Y-162331429D01*
X241133333Y-162369524D01*
X241038095Y-162407619D01*
X240942857Y-162407619D01*
X240847619Y-162369524D01*
X240800000Y-162331429D01*
X240752381Y-162255238D01*
X240752381Y-162064762D01*
X240800000Y-161950476D01*
X241752381Y-161493333D02*
X241704762Y-161569524D01*
X241657143Y-161607619D01*
X241561905Y-161645714D01*
X241276190Y-161645714D01*
X241180952Y-161607619D01*
X241133333Y-161569524D01*
X241085714Y-161493333D01*
X241085714Y-161379047D01*
X241133333Y-161302857D01*
X241180952Y-161264762D01*
X241276190Y-161226666D01*
X241561905Y-161226666D01*
X241657143Y-161264762D01*
X241704762Y-161302857D01*
X241752381Y-161379047D01*
X241752381Y-161493333D01*
X241752381Y-160769523D02*
X241704762Y-160845714D01*
X241609524Y-160883809D01*
X240752381Y-160883809D01*
X240800000Y-159436189D02*
X240752381Y-159512380D01*
X240752381Y-159626665D01*
X240800000Y-159740951D01*
X240895238Y-159817142D01*
X240990476Y-159855237D01*
X241180952Y-159893332D01*
X241323810Y-159893332D01*
X241514286Y-159855237D01*
X241609524Y-159817142D01*
X241704762Y-159740951D01*
X241752381Y-159626665D01*
X241752381Y-159550475D01*
X241704762Y-159436189D01*
X241657143Y-159398094D01*
X241323810Y-159398094D01*
X241323810Y-159550475D01*
X243022381Y-161988571D02*
X243022381Y-162369524D01*
X242022381Y-162369524D01*
X243022381Y-161607619D02*
X242974762Y-161683810D01*
X242927143Y-161721905D01*
X242831905Y-161760000D01*
X242546190Y-161760000D01*
X242450952Y-161721905D01*
X242403333Y-161683810D01*
X242355714Y-161607619D01*
X242355714Y-161493333D01*
X242403333Y-161417143D01*
X242450952Y-161379048D01*
X242546190Y-161340952D01*
X242831905Y-161340952D01*
X242927143Y-161379048D01*
X242974762Y-161417143D01*
X243022381Y-161493333D01*
X243022381Y-161607619D01*
X242974762Y-160655238D02*
X243022381Y-160731428D01*
X243022381Y-160883809D01*
X242974762Y-160960000D01*
X242927143Y-160998095D01*
X242831905Y-161036190D01*
X242546190Y-161036190D01*
X242450952Y-160998095D01*
X242403333Y-160960000D01*
X242355714Y-160883809D01*
X242355714Y-160731428D01*
X242403333Y-160655238D01*
X242070000Y-159283809D02*
X242022381Y-159360000D01*
X242022381Y-159474285D01*
X242070000Y-159588571D01*
X242165238Y-159664762D01*
X242260476Y-159702857D01*
X242450952Y-159740952D01*
X242593810Y-159740952D01*
X242784286Y-159702857D01*
X242879524Y-159664762D01*
X242974762Y-159588571D01*
X243022381Y-159474285D01*
X243022381Y-159398095D01*
X242974762Y-159283809D01*
X242927143Y-159245714D01*
X242593810Y-159245714D01*
X242593810Y-159398095D01*
X242974762Y-158940952D02*
X243022381Y-158864762D01*
X243022381Y-158712381D01*
X242974762Y-158636190D01*
X242879524Y-158598095D01*
X242831905Y-158598095D01*
X242736667Y-158636190D01*
X242689048Y-158712381D01*
X242689048Y-158826666D01*
X242641429Y-158902857D01*
X242546190Y-158940952D01*
X242498571Y-158940952D01*
X242403333Y-158902857D01*
X242355714Y-158826666D01*
X242355714Y-158712381D01*
X242403333Y-158636190D01*
X158202381Y-159486667D02*
X158202381Y-159639048D01*
X158250000Y-159715238D01*
X158297619Y-159753333D01*
X158440476Y-159829524D01*
X158630952Y-159867619D01*
X159011905Y-159867619D01*
X159107143Y-159829524D01*
X159154762Y-159791429D01*
X159202381Y-159715238D01*
X159202381Y-159562857D01*
X159154762Y-159486667D01*
X159107143Y-159448571D01*
X159011905Y-159410476D01*
X158773810Y-159410476D01*
X158678571Y-159448571D01*
X158630952Y-159486667D01*
X158583333Y-159562857D01*
X158583333Y-159715238D01*
X158630952Y-159791429D01*
X158678571Y-159829524D01*
X158773810Y-159867619D01*
X158202381Y-159143809D02*
X158202381Y-158648571D01*
X158583333Y-158915238D01*
X158583333Y-158800952D01*
X158630952Y-158724762D01*
X158678571Y-158686666D01*
X158773810Y-158648571D01*
X159011905Y-158648571D01*
X159107143Y-158686666D01*
X159154762Y-158724762D01*
X159202381Y-158800952D01*
X159202381Y-159029524D01*
X159154762Y-159105714D01*
X159107143Y-159143809D01*
X156932381Y-159486667D02*
X156932381Y-159639048D01*
X156980000Y-159715238D01*
X157027619Y-159753333D01*
X157170476Y-159829524D01*
X157360952Y-159867619D01*
X157741905Y-159867619D01*
X157837143Y-159829524D01*
X157884762Y-159791429D01*
X157932381Y-159715238D01*
X157932381Y-159562857D01*
X157884762Y-159486667D01*
X157837143Y-159448571D01*
X157741905Y-159410476D01*
X157503810Y-159410476D01*
X157408571Y-159448571D01*
X157360952Y-159486667D01*
X157313333Y-159562857D01*
X157313333Y-159715238D01*
X157360952Y-159791429D01*
X157408571Y-159829524D01*
X157503810Y-159867619D01*
X157265714Y-158724762D02*
X157932381Y-158724762D01*
X156884762Y-158915238D02*
X157599048Y-159105714D01*
X157599048Y-158610476D01*
X159472381Y-159486667D02*
X159472381Y-159639048D01*
X159520000Y-159715238D01*
X159567619Y-159753333D01*
X159710476Y-159829524D01*
X159900952Y-159867619D01*
X160281905Y-159867619D01*
X160377143Y-159829524D01*
X160424762Y-159791429D01*
X160472381Y-159715238D01*
X160472381Y-159562857D01*
X160424762Y-159486667D01*
X160377143Y-159448571D01*
X160281905Y-159410476D01*
X160043810Y-159410476D01*
X159948571Y-159448571D01*
X159900952Y-159486667D01*
X159853333Y-159562857D01*
X159853333Y-159715238D01*
X159900952Y-159791429D01*
X159948571Y-159829524D01*
X160043810Y-159867619D01*
X159567619Y-159105714D02*
X159520000Y-159067619D01*
X159472381Y-158991428D01*
X159472381Y-158800952D01*
X159520000Y-158724762D01*
X159567619Y-158686666D01*
X159662857Y-158648571D01*
X159758095Y-158648571D01*
X159900952Y-158686666D01*
X160472381Y-159143809D01*
X160472381Y-158648571D01*
X169632381Y-159448571D02*
X169632381Y-159829524D01*
X170108571Y-159867619D01*
X170060952Y-159829524D01*
X170013333Y-159753333D01*
X170013333Y-159562857D01*
X170060952Y-159486667D01*
X170108571Y-159448571D01*
X170203810Y-159410476D01*
X170441905Y-159410476D01*
X170537143Y-159448571D01*
X170584762Y-159486667D01*
X170632381Y-159562857D01*
X170632381Y-159753333D01*
X170584762Y-159829524D01*
X170537143Y-159867619D01*
X169965714Y-158724762D02*
X170632381Y-158724762D01*
X169584762Y-158915238D02*
X170299048Y-159105714D01*
X170299048Y-158610476D01*
X172172381Y-159448571D02*
X172172381Y-159829524D01*
X172648571Y-159867619D01*
X172600952Y-159829524D01*
X172553333Y-159753333D01*
X172553333Y-159562857D01*
X172600952Y-159486667D01*
X172648571Y-159448571D01*
X172743810Y-159410476D01*
X172981905Y-159410476D01*
X173077143Y-159448571D01*
X173124762Y-159486667D01*
X173172381Y-159562857D01*
X173172381Y-159753333D01*
X173124762Y-159829524D01*
X173077143Y-159867619D01*
X172267619Y-159105714D02*
X172220000Y-159067619D01*
X172172381Y-158991428D01*
X172172381Y-158800952D01*
X172220000Y-158724762D01*
X172267619Y-158686666D01*
X172362857Y-158648571D01*
X172458095Y-158648571D01*
X172600952Y-158686666D01*
X173172381Y-159143809D01*
X173172381Y-158648571D01*
X168362381Y-159448571D02*
X168362381Y-159829524D01*
X168838571Y-159867619D01*
X168790952Y-159829524D01*
X168743333Y-159753333D01*
X168743333Y-159562857D01*
X168790952Y-159486667D01*
X168838571Y-159448571D01*
X168933810Y-159410476D01*
X169171905Y-159410476D01*
X169267143Y-159448571D01*
X169314762Y-159486667D01*
X169362381Y-159562857D01*
X169362381Y-159753333D01*
X169314762Y-159829524D01*
X169267143Y-159867619D01*
X168362381Y-158686666D02*
X168362381Y-159067619D01*
X168838571Y-159105714D01*
X168790952Y-159067619D01*
X168743333Y-158991428D01*
X168743333Y-158800952D01*
X168790952Y-158724762D01*
X168838571Y-158686666D01*
X168933810Y-158648571D01*
X169171905Y-158648571D01*
X169267143Y-158686666D01*
X169314762Y-158724762D01*
X169362381Y-158800952D01*
X169362381Y-158991428D01*
X169314762Y-159067619D01*
X169267143Y-159105714D01*
X170902381Y-159448571D02*
X170902381Y-159829524D01*
X171378571Y-159867619D01*
X171330952Y-159829524D01*
X171283333Y-159753333D01*
X171283333Y-159562857D01*
X171330952Y-159486667D01*
X171378571Y-159448571D01*
X171473810Y-159410476D01*
X171711905Y-159410476D01*
X171807143Y-159448571D01*
X171854762Y-159486667D01*
X171902381Y-159562857D01*
X171902381Y-159753333D01*
X171854762Y-159829524D01*
X171807143Y-159867619D01*
X170902381Y-159143809D02*
X170902381Y-158648571D01*
X171283333Y-158915238D01*
X171283333Y-158800952D01*
X171330952Y-158724762D01*
X171378571Y-158686666D01*
X171473810Y-158648571D01*
X171711905Y-158648571D01*
X171807143Y-158686666D01*
X171854762Y-158724762D01*
X171902381Y-158800952D01*
X171902381Y-159029524D01*
X171854762Y-159105714D01*
X171807143Y-159143809D01*
X163282381Y-159448571D02*
X163282381Y-159829524D01*
X163758571Y-159867619D01*
X163710952Y-159829524D01*
X163663333Y-159753333D01*
X163663333Y-159562857D01*
X163710952Y-159486667D01*
X163758571Y-159448571D01*
X163853810Y-159410476D01*
X164091905Y-159410476D01*
X164187143Y-159448571D01*
X164234762Y-159486667D01*
X164282381Y-159562857D01*
X164282381Y-159753333D01*
X164234762Y-159829524D01*
X164187143Y-159867619D01*
X164282381Y-159029524D02*
X164282381Y-158877143D01*
X164234762Y-158800952D01*
X164187143Y-158762857D01*
X164044286Y-158686666D01*
X163853810Y-158648571D01*
X163472857Y-158648571D01*
X163377619Y-158686666D01*
X163330000Y-158724762D01*
X163282381Y-158800952D01*
X163282381Y-158953333D01*
X163330000Y-159029524D01*
X163377619Y-159067619D01*
X163472857Y-159105714D01*
X163710952Y-159105714D01*
X163806190Y-159067619D01*
X163853810Y-159029524D01*
X163901429Y-158953333D01*
X163901429Y-158800952D01*
X163853810Y-158724762D01*
X163806190Y-158686666D01*
X163710952Y-158648571D01*
X165822381Y-159448571D02*
X165822381Y-159829524D01*
X166298571Y-159867619D01*
X166250952Y-159829524D01*
X166203333Y-159753333D01*
X166203333Y-159562857D01*
X166250952Y-159486667D01*
X166298571Y-159448571D01*
X166393810Y-159410476D01*
X166631905Y-159410476D01*
X166727143Y-159448571D01*
X166774762Y-159486667D01*
X166822381Y-159562857D01*
X166822381Y-159753333D01*
X166774762Y-159829524D01*
X166727143Y-159867619D01*
X165822381Y-159143809D02*
X165822381Y-158610476D01*
X166822381Y-158953333D01*
X167092381Y-159448571D02*
X167092381Y-159829524D01*
X167568571Y-159867619D01*
X167520952Y-159829524D01*
X167473333Y-159753333D01*
X167473333Y-159562857D01*
X167520952Y-159486667D01*
X167568571Y-159448571D01*
X167663810Y-159410476D01*
X167901905Y-159410476D01*
X167997143Y-159448571D01*
X168044762Y-159486667D01*
X168092381Y-159562857D01*
X168092381Y-159753333D01*
X168044762Y-159829524D01*
X167997143Y-159867619D01*
X167092381Y-158724762D02*
X167092381Y-158877143D01*
X167140000Y-158953333D01*
X167187619Y-158991428D01*
X167330476Y-159067619D01*
X167520952Y-159105714D01*
X167901905Y-159105714D01*
X167997143Y-159067619D01*
X168044762Y-159029524D01*
X168092381Y-158953333D01*
X168092381Y-158800952D01*
X168044762Y-158724762D01*
X167997143Y-158686666D01*
X167901905Y-158648571D01*
X167663810Y-158648571D01*
X167568571Y-158686666D01*
X167520952Y-158724762D01*
X167473333Y-158800952D01*
X167473333Y-158953333D01*
X167520952Y-159029524D01*
X167568571Y-159067619D01*
X167663810Y-159105714D01*
X164552381Y-159448571D02*
X164552381Y-159829524D01*
X165028571Y-159867619D01*
X164980952Y-159829524D01*
X164933333Y-159753333D01*
X164933333Y-159562857D01*
X164980952Y-159486667D01*
X165028571Y-159448571D01*
X165123810Y-159410476D01*
X165361905Y-159410476D01*
X165457143Y-159448571D01*
X165504762Y-159486667D01*
X165552381Y-159562857D01*
X165552381Y-159753333D01*
X165504762Y-159829524D01*
X165457143Y-159867619D01*
X164980952Y-158953333D02*
X164933333Y-159029524D01*
X164885714Y-159067619D01*
X164790476Y-159105714D01*
X164742857Y-159105714D01*
X164647619Y-159067619D01*
X164600000Y-159029524D01*
X164552381Y-158953333D01*
X164552381Y-158800952D01*
X164600000Y-158724762D01*
X164647619Y-158686666D01*
X164742857Y-158648571D01*
X164790476Y-158648571D01*
X164885714Y-158686666D01*
X164933333Y-158724762D01*
X164980952Y-158800952D01*
X164980952Y-158953333D01*
X165028571Y-159029524D01*
X165076190Y-159067619D01*
X165171429Y-159105714D01*
X165361905Y-159105714D01*
X165457143Y-159067619D01*
X165504762Y-159029524D01*
X165552381Y-158953333D01*
X165552381Y-158800952D01*
X165504762Y-158724762D01*
X165457143Y-158686666D01*
X165361905Y-158648571D01*
X165171429Y-158648571D01*
X165076190Y-158686666D01*
X165028571Y-158724762D01*
X164980952Y-158800952D01*
X162012381Y-159486667D02*
X162012381Y-159639048D01*
X162060000Y-159715238D01*
X162107619Y-159753333D01*
X162250476Y-159829524D01*
X162440952Y-159867619D01*
X162821905Y-159867619D01*
X162917143Y-159829524D01*
X162964762Y-159791429D01*
X163012381Y-159715238D01*
X163012381Y-159562857D01*
X162964762Y-159486667D01*
X162917143Y-159448571D01*
X162821905Y-159410476D01*
X162583810Y-159410476D01*
X162488571Y-159448571D01*
X162440952Y-159486667D01*
X162393333Y-159562857D01*
X162393333Y-159715238D01*
X162440952Y-159791429D01*
X162488571Y-159829524D01*
X162583810Y-159867619D01*
X162012381Y-158915238D02*
X162012381Y-158839047D01*
X162060000Y-158762857D01*
X162107619Y-158724762D01*
X162202857Y-158686666D01*
X162393333Y-158648571D01*
X162631429Y-158648571D01*
X162821905Y-158686666D01*
X162917143Y-158724762D01*
X162964762Y-158762857D01*
X163012381Y-158839047D01*
X163012381Y-158915238D01*
X162964762Y-158991428D01*
X162917143Y-159029524D01*
X162821905Y-159067619D01*
X162631429Y-159105714D01*
X162393333Y-159105714D01*
X162202857Y-159067619D01*
X162107619Y-159029524D01*
X162060000Y-158991428D01*
X162012381Y-158915238D01*
X160742381Y-159486667D02*
X160742381Y-159639048D01*
X160790000Y-159715238D01*
X160837619Y-159753333D01*
X160980476Y-159829524D01*
X161170952Y-159867619D01*
X161551905Y-159867619D01*
X161647143Y-159829524D01*
X161694762Y-159791429D01*
X161742381Y-159715238D01*
X161742381Y-159562857D01*
X161694762Y-159486667D01*
X161647143Y-159448571D01*
X161551905Y-159410476D01*
X161313810Y-159410476D01*
X161218571Y-159448571D01*
X161170952Y-159486667D01*
X161123333Y-159562857D01*
X161123333Y-159715238D01*
X161170952Y-159791429D01*
X161218571Y-159829524D01*
X161313810Y-159867619D01*
X161742381Y-158648571D02*
X161742381Y-159105714D01*
X161742381Y-158877143D02*
X160742381Y-158877143D01*
X160885238Y-158953333D01*
X160980476Y-159029524D01*
X161028095Y-159105714D01*
X185205714Y-159486667D02*
X185872381Y-159486667D01*
X184824762Y-159677143D02*
X185539048Y-159867619D01*
X185539048Y-159372381D01*
X184967619Y-159105714D02*
X184920000Y-159067619D01*
X184872381Y-158991428D01*
X184872381Y-158800952D01*
X184920000Y-158724762D01*
X184967619Y-158686666D01*
X185062857Y-158648571D01*
X185158095Y-158648571D01*
X185300952Y-158686666D01*
X185872381Y-159143809D01*
X185872381Y-158648571D01*
X177585714Y-159486667D02*
X178252381Y-159486667D01*
X177204762Y-159677143D02*
X177919048Y-159867619D01*
X177919048Y-159372381D01*
X177680952Y-158953333D02*
X177633333Y-159029524D01*
X177585714Y-159067619D01*
X177490476Y-159105714D01*
X177442857Y-159105714D01*
X177347619Y-159067619D01*
X177300000Y-159029524D01*
X177252381Y-158953333D01*
X177252381Y-158800952D01*
X177300000Y-158724762D01*
X177347619Y-158686666D01*
X177442857Y-158648571D01*
X177490476Y-158648571D01*
X177585714Y-158686666D01*
X177633333Y-158724762D01*
X177680952Y-158800952D01*
X177680952Y-158953333D01*
X177728571Y-159029524D01*
X177776190Y-159067619D01*
X177871429Y-159105714D01*
X178061905Y-159105714D01*
X178157143Y-159067619D01*
X178204762Y-159029524D01*
X178252381Y-158953333D01*
X178252381Y-158800952D01*
X178204762Y-158724762D01*
X178157143Y-158686666D01*
X178061905Y-158648571D01*
X177871429Y-158648571D01*
X177776190Y-158686666D01*
X177728571Y-158724762D01*
X177680952Y-158800952D01*
X176315714Y-159486667D02*
X176982381Y-159486667D01*
X175934762Y-159677143D02*
X176649048Y-159867619D01*
X176649048Y-159372381D01*
X176982381Y-159029524D02*
X176982381Y-158877143D01*
X176934762Y-158800952D01*
X176887143Y-158762857D01*
X176744286Y-158686666D01*
X176553810Y-158648571D01*
X176172857Y-158648571D01*
X176077619Y-158686666D01*
X176030000Y-158724762D01*
X175982381Y-158800952D01*
X175982381Y-158953333D01*
X176030000Y-159029524D01*
X176077619Y-159067619D01*
X176172857Y-159105714D01*
X176410952Y-159105714D01*
X176506190Y-159067619D01*
X176553810Y-159029524D01*
X176601429Y-158953333D01*
X176601429Y-158800952D01*
X176553810Y-158724762D01*
X176506190Y-158686666D01*
X176410952Y-158648571D01*
X173442381Y-159448571D02*
X173442381Y-159829524D01*
X173918571Y-159867619D01*
X173870952Y-159829524D01*
X173823333Y-159753333D01*
X173823333Y-159562857D01*
X173870952Y-159486667D01*
X173918571Y-159448571D01*
X174013810Y-159410476D01*
X174251905Y-159410476D01*
X174347143Y-159448571D01*
X174394762Y-159486667D01*
X174442381Y-159562857D01*
X174442381Y-159753333D01*
X174394762Y-159829524D01*
X174347143Y-159867619D01*
X174442381Y-158648571D02*
X174442381Y-159105714D01*
X174442381Y-158877143D02*
X173442381Y-158877143D01*
X173585238Y-158953333D01*
X173680476Y-159029524D01*
X173728095Y-159105714D01*
X174712381Y-159448571D02*
X174712381Y-159829524D01*
X175188571Y-159867619D01*
X175140952Y-159829524D01*
X175093333Y-159753333D01*
X175093333Y-159562857D01*
X175140952Y-159486667D01*
X175188571Y-159448571D01*
X175283810Y-159410476D01*
X175521905Y-159410476D01*
X175617143Y-159448571D01*
X175664762Y-159486667D01*
X175712381Y-159562857D01*
X175712381Y-159753333D01*
X175664762Y-159829524D01*
X175617143Y-159867619D01*
X174712381Y-158915238D02*
X174712381Y-158839047D01*
X174760000Y-158762857D01*
X174807619Y-158724762D01*
X174902857Y-158686666D01*
X175093333Y-158648571D01*
X175331429Y-158648571D01*
X175521905Y-158686666D01*
X175617143Y-158724762D01*
X175664762Y-158762857D01*
X175712381Y-158839047D01*
X175712381Y-158915238D01*
X175664762Y-158991428D01*
X175617143Y-159029524D01*
X175521905Y-159067619D01*
X175331429Y-159105714D01*
X175093333Y-159105714D01*
X174902857Y-159067619D01*
X174807619Y-159029524D01*
X174760000Y-158991428D01*
X174712381Y-158915238D01*
X178855714Y-159486667D02*
X179522381Y-159486667D01*
X178474762Y-159677143D02*
X179189048Y-159867619D01*
X179189048Y-159372381D01*
X178522381Y-159143809D02*
X178522381Y-158610476D01*
X179522381Y-158953333D01*
X183935714Y-159486667D02*
X184602381Y-159486667D01*
X183554762Y-159677143D02*
X184269048Y-159867619D01*
X184269048Y-159372381D01*
X183602381Y-159143809D02*
X183602381Y-158648571D01*
X183983333Y-158915238D01*
X183983333Y-158800952D01*
X184030952Y-158724762D01*
X184078571Y-158686666D01*
X184173810Y-158648571D01*
X184411905Y-158648571D01*
X184507143Y-158686666D01*
X184554762Y-158724762D01*
X184602381Y-158800952D01*
X184602381Y-159029524D01*
X184554762Y-159105714D01*
X184507143Y-159143809D01*
X180125714Y-159486667D02*
X180792381Y-159486667D01*
X179744762Y-159677143D02*
X180459048Y-159867619D01*
X180459048Y-159372381D01*
X179792381Y-158724762D02*
X179792381Y-158877143D01*
X179840000Y-158953333D01*
X179887619Y-158991428D01*
X180030476Y-159067619D01*
X180220952Y-159105714D01*
X180601905Y-159105714D01*
X180697143Y-159067619D01*
X180744762Y-159029524D01*
X180792381Y-158953333D01*
X180792381Y-158800952D01*
X180744762Y-158724762D01*
X180697143Y-158686666D01*
X180601905Y-158648571D01*
X180363810Y-158648571D01*
X180268571Y-158686666D01*
X180220952Y-158724762D01*
X180173333Y-158800952D01*
X180173333Y-158953333D01*
X180220952Y-159029524D01*
X180268571Y-159067619D01*
X180363810Y-159105714D01*
X182665714Y-159486667D02*
X183332381Y-159486667D01*
X182284762Y-159677143D02*
X182999048Y-159867619D01*
X182999048Y-159372381D01*
X182665714Y-158724762D02*
X183332381Y-158724762D01*
X182284762Y-158915238D02*
X182999048Y-159105714D01*
X182999048Y-158610476D01*
X181395714Y-159486667D02*
X182062381Y-159486667D01*
X181014762Y-159677143D02*
X181729048Y-159867619D01*
X181729048Y-159372381D01*
X181062381Y-158686666D02*
X181062381Y-159067619D01*
X181538571Y-159105714D01*
X181490952Y-159067619D01*
X181443333Y-158991428D01*
X181443333Y-158800952D01*
X181490952Y-158724762D01*
X181538571Y-158686666D01*
X181633810Y-158648571D01*
X181871905Y-158648571D01*
X181967143Y-158686666D01*
X182014762Y-158724762D01*
X182062381Y-158800952D01*
X182062381Y-158991428D01*
X182014762Y-159067619D01*
X181967143Y-159105714D01*
X235767619Y-159867619D02*
X235720000Y-159829524D01*
X235672381Y-159753333D01*
X235672381Y-159562857D01*
X235720000Y-159486667D01*
X235767619Y-159448571D01*
X235862857Y-159410476D01*
X235958095Y-159410476D01*
X236100952Y-159448571D01*
X236672381Y-159905714D01*
X236672381Y-159410476D01*
X237942381Y-159410476D02*
X237942381Y-159867619D01*
X237942381Y-159639048D02*
X236942381Y-159639048D01*
X237085238Y-159715238D01*
X237180476Y-159791429D01*
X237228095Y-159867619D01*
X233465714Y-159486667D02*
X234132381Y-159486667D01*
X233084762Y-159677143D02*
X233799048Y-159867619D01*
X233799048Y-159372381D01*
X234402381Y-159905714D02*
X234402381Y-159410476D01*
X234783333Y-159677143D01*
X234783333Y-159562857D01*
X234830952Y-159486667D01*
X234878571Y-159448571D01*
X234973810Y-159410476D01*
X235211905Y-159410476D01*
X235307143Y-159448571D01*
X235354762Y-159486667D01*
X235402381Y-159562857D01*
X235402381Y-159791429D01*
X235354762Y-159867619D01*
X235307143Y-159905714D01*
X231862381Y-159448571D02*
X231862381Y-159829524D01*
X232338571Y-159867619D01*
X232290952Y-159829524D01*
X232243333Y-159753333D01*
X232243333Y-159562857D01*
X232290952Y-159486667D01*
X232338571Y-159448571D01*
X232433810Y-159410476D01*
X232671905Y-159410476D01*
X232767143Y-159448571D01*
X232814762Y-159486667D01*
X232862381Y-159562857D01*
X232862381Y-159753333D01*
X232814762Y-159829524D01*
X232767143Y-159867619D01*
X230592381Y-159486667D02*
X230592381Y-159639048D01*
X230640000Y-159715238D01*
X230687619Y-159753333D01*
X230830476Y-159829524D01*
X231020952Y-159867619D01*
X231401905Y-159867619D01*
X231497143Y-159829524D01*
X231544762Y-159791429D01*
X231592381Y-159715238D01*
X231592381Y-159562857D01*
X231544762Y-159486667D01*
X231497143Y-159448571D01*
X231401905Y-159410476D01*
X231163810Y-159410476D01*
X231068571Y-159448571D01*
X231020952Y-159486667D01*
X230973333Y-159562857D01*
X230973333Y-159715238D01*
X231020952Y-159791429D01*
X231068571Y-159829524D01*
X231163810Y-159867619D01*
X209097619Y-159867619D02*
X209050000Y-159829524D01*
X209002381Y-159753333D01*
X209002381Y-159562857D01*
X209050000Y-159486667D01*
X209097619Y-159448571D01*
X209192857Y-159410476D01*
X209288095Y-159410476D01*
X209430952Y-159448571D01*
X210002381Y-159905714D01*
X210002381Y-159410476D01*
X209002381Y-159143809D02*
X209002381Y-158648571D01*
X209383333Y-158915238D01*
X209383333Y-158800952D01*
X209430952Y-158724762D01*
X209478571Y-158686666D01*
X209573810Y-158648571D01*
X209811905Y-158648571D01*
X209907143Y-158686666D01*
X209954762Y-158724762D01*
X210002381Y-158800952D01*
X210002381Y-159029524D01*
X209954762Y-159105714D01*
X209907143Y-159143809D01*
X210367619Y-159867619D02*
X210320000Y-159829524D01*
X210272381Y-159753333D01*
X210272381Y-159562857D01*
X210320000Y-159486667D01*
X210367619Y-159448571D01*
X210462857Y-159410476D01*
X210558095Y-159410476D01*
X210700952Y-159448571D01*
X211272381Y-159905714D01*
X211272381Y-159410476D01*
X210367619Y-159105714D02*
X210320000Y-159067619D01*
X210272381Y-158991428D01*
X210272381Y-158800952D01*
X210320000Y-158724762D01*
X210367619Y-158686666D01*
X210462857Y-158648571D01*
X210558095Y-158648571D01*
X210700952Y-158686666D01*
X211272381Y-159143809D01*
X211272381Y-158648571D01*
X217622381Y-159410476D02*
X217622381Y-159867619D01*
X217622381Y-159639048D02*
X216622381Y-159639048D01*
X216765238Y-159715238D01*
X216860476Y-159791429D01*
X216908095Y-159867619D01*
X216622381Y-159143809D02*
X216622381Y-158610476D01*
X217622381Y-158953333D01*
X218892381Y-159410476D02*
X218892381Y-159867619D01*
X218892381Y-159639048D02*
X217892381Y-159639048D01*
X218035238Y-159715238D01*
X218130476Y-159791429D01*
X218178095Y-159867619D01*
X217892381Y-158724762D02*
X217892381Y-158877143D01*
X217940000Y-158953333D01*
X217987619Y-158991428D01*
X218130476Y-159067619D01*
X218320952Y-159105714D01*
X218701905Y-159105714D01*
X218797143Y-159067619D01*
X218844762Y-159029524D01*
X218892381Y-158953333D01*
X218892381Y-158800952D01*
X218844762Y-158724762D01*
X218797143Y-158686666D01*
X218701905Y-158648571D01*
X218463810Y-158648571D01*
X218368571Y-158686666D01*
X218320952Y-158724762D01*
X218273333Y-158800952D01*
X218273333Y-158953333D01*
X218320952Y-159029524D01*
X218368571Y-159067619D01*
X218463810Y-159105714D01*
X220162381Y-159410476D02*
X220162381Y-159867619D01*
X220162381Y-159639048D02*
X219162381Y-159639048D01*
X219305238Y-159715238D01*
X219400476Y-159791429D01*
X219448095Y-159867619D01*
X219162381Y-158686666D02*
X219162381Y-159067619D01*
X219638571Y-159105714D01*
X219590952Y-159067619D01*
X219543333Y-158991428D01*
X219543333Y-158800952D01*
X219590952Y-158724762D01*
X219638571Y-158686666D01*
X219733810Y-158648571D01*
X219971905Y-158648571D01*
X220067143Y-158686666D01*
X220114762Y-158724762D01*
X220162381Y-158800952D01*
X220162381Y-158991428D01*
X220114762Y-159067619D01*
X220067143Y-159105714D01*
X221432381Y-159410476D02*
X221432381Y-159867619D01*
X221432381Y-159639048D02*
X220432381Y-159639048D01*
X220575238Y-159715238D01*
X220670476Y-159791429D01*
X220718095Y-159867619D01*
X220765714Y-158724762D02*
X221432381Y-158724762D01*
X220384762Y-158915238D02*
X221099048Y-159105714D01*
X221099048Y-158610476D01*
X216352381Y-159410476D02*
X216352381Y-159867619D01*
X216352381Y-159639048D02*
X215352381Y-159639048D01*
X215495238Y-159715238D01*
X215590476Y-159791429D01*
X215638095Y-159867619D01*
X215780952Y-158953333D02*
X215733333Y-159029524D01*
X215685714Y-159067619D01*
X215590476Y-159105714D01*
X215542857Y-159105714D01*
X215447619Y-159067619D01*
X215400000Y-159029524D01*
X215352381Y-158953333D01*
X215352381Y-158800952D01*
X215400000Y-158724762D01*
X215447619Y-158686666D01*
X215542857Y-158648571D01*
X215590476Y-158648571D01*
X215685714Y-158686666D01*
X215733333Y-158724762D01*
X215780952Y-158800952D01*
X215780952Y-158953333D01*
X215828571Y-159029524D01*
X215876190Y-159067619D01*
X215971429Y-159105714D01*
X216161905Y-159105714D01*
X216257143Y-159067619D01*
X216304762Y-159029524D01*
X216352381Y-158953333D01*
X216352381Y-158800952D01*
X216304762Y-158724762D01*
X216257143Y-158686666D01*
X216161905Y-158648571D01*
X215971429Y-158648571D01*
X215876190Y-158686666D01*
X215828571Y-158724762D01*
X215780952Y-158800952D01*
X215082381Y-159410476D02*
X215082381Y-159867619D01*
X215082381Y-159639048D02*
X214082381Y-159639048D01*
X214225238Y-159715238D01*
X214320476Y-159791429D01*
X214368095Y-159867619D01*
X215082381Y-159029524D02*
X215082381Y-158877143D01*
X215034762Y-158800952D01*
X214987143Y-158762857D01*
X214844286Y-158686666D01*
X214653810Y-158648571D01*
X214272857Y-158648571D01*
X214177619Y-158686666D01*
X214130000Y-158724762D01*
X214082381Y-158800952D01*
X214082381Y-158953333D01*
X214130000Y-159029524D01*
X214177619Y-159067619D01*
X214272857Y-159105714D01*
X214510952Y-159105714D01*
X214606190Y-159067619D01*
X214653810Y-159029524D01*
X214701429Y-158953333D01*
X214701429Y-158800952D01*
X214653810Y-158724762D01*
X214606190Y-158686666D01*
X214510952Y-158648571D01*
X211637619Y-159867619D02*
X211590000Y-159829524D01*
X211542381Y-159753333D01*
X211542381Y-159562857D01*
X211590000Y-159486667D01*
X211637619Y-159448571D01*
X211732857Y-159410476D01*
X211828095Y-159410476D01*
X211970952Y-159448571D01*
X212542381Y-159905714D01*
X212542381Y-159410476D01*
X212542381Y-158648571D02*
X212542381Y-159105714D01*
X212542381Y-158877143D02*
X211542381Y-158877143D01*
X211685238Y-158953333D01*
X211780476Y-159029524D01*
X211828095Y-159105714D01*
X212907619Y-159867619D02*
X212860000Y-159829524D01*
X212812381Y-159753333D01*
X212812381Y-159562857D01*
X212860000Y-159486667D01*
X212907619Y-159448571D01*
X213002857Y-159410476D01*
X213098095Y-159410476D01*
X213240952Y-159448571D01*
X213812381Y-159905714D01*
X213812381Y-159410476D01*
X212812381Y-158915238D02*
X212812381Y-158839047D01*
X212860000Y-158762857D01*
X212907619Y-158724762D01*
X213002857Y-158686666D01*
X213193333Y-158648571D01*
X213431429Y-158648571D01*
X213621905Y-158686666D01*
X213717143Y-158724762D01*
X213764762Y-158762857D01*
X213812381Y-158839047D01*
X213812381Y-158915238D01*
X213764762Y-158991428D01*
X213717143Y-159029524D01*
X213621905Y-159067619D01*
X213431429Y-159105714D01*
X213193333Y-159105714D01*
X213002857Y-159067619D01*
X212907619Y-159029524D01*
X212860000Y-158991428D01*
X212812381Y-158915238D01*
X222702381Y-159410476D02*
X222702381Y-159867619D01*
X222702381Y-159639048D02*
X221702381Y-159639048D01*
X221845238Y-159715238D01*
X221940476Y-159791429D01*
X221988095Y-159867619D01*
X221702381Y-159143809D02*
X221702381Y-158648571D01*
X222083333Y-158915238D01*
X222083333Y-158800952D01*
X222130952Y-158724762D01*
X222178571Y-158686666D01*
X222273810Y-158648571D01*
X222511905Y-158648571D01*
X222607143Y-158686666D01*
X222654762Y-158724762D01*
X222702381Y-158800952D01*
X222702381Y-159029524D01*
X222654762Y-159105714D01*
X222607143Y-159143809D01*
X223972381Y-159410476D02*
X223972381Y-159867619D01*
X223972381Y-159639048D02*
X222972381Y-159639048D01*
X223115238Y-159715238D01*
X223210476Y-159791429D01*
X223258095Y-159867619D01*
X223067619Y-159105714D02*
X223020000Y-159067619D01*
X222972381Y-158991428D01*
X222972381Y-158800952D01*
X223020000Y-158724762D01*
X223067619Y-158686666D01*
X223162857Y-158648571D01*
X223258095Y-158648571D01*
X223400952Y-158686666D01*
X223972381Y-159143809D01*
X223972381Y-158648571D01*
X225242381Y-159410476D02*
X225242381Y-159867619D01*
X225242381Y-159639048D02*
X224242381Y-159639048D01*
X224385238Y-159715238D01*
X224480476Y-159791429D01*
X224528095Y-159867619D01*
X225242381Y-158648571D02*
X225242381Y-159105714D01*
X225242381Y-158877143D02*
X224242381Y-158877143D01*
X224385238Y-158953333D01*
X224480476Y-159029524D01*
X224528095Y-159105714D01*
X226512381Y-159410476D02*
X226512381Y-159867619D01*
X226512381Y-159639048D02*
X225512381Y-159639048D01*
X225655238Y-159715238D01*
X225750476Y-159791429D01*
X225798095Y-159867619D01*
X225512381Y-158915238D02*
X225512381Y-158839047D01*
X225560000Y-158762857D01*
X225607619Y-158724762D01*
X225702857Y-158686666D01*
X225893333Y-158648571D01*
X226131429Y-158648571D01*
X226321905Y-158686666D01*
X226417143Y-158724762D01*
X226464762Y-158762857D01*
X226512381Y-158839047D01*
X226512381Y-158915238D01*
X226464762Y-158991428D01*
X226417143Y-159029524D01*
X226321905Y-159067619D01*
X226131429Y-159105714D01*
X225893333Y-159105714D01*
X225702857Y-159067619D01*
X225607619Y-159029524D01*
X225560000Y-158991428D01*
X225512381Y-158915238D01*
X229322381Y-159905714D02*
X229322381Y-159372381D01*
X230322381Y-159715238D01*
X227782381Y-159791429D02*
X227782381Y-159639048D01*
X227734762Y-159562857D01*
X227687143Y-159524762D01*
X227544286Y-159448571D01*
X227353810Y-159410476D01*
X226972857Y-159410476D01*
X226877619Y-159448571D01*
X226830000Y-159486667D01*
X226782381Y-159562857D01*
X226782381Y-159715238D01*
X226830000Y-159791429D01*
X226877619Y-159829524D01*
X226972857Y-159867619D01*
X227210952Y-159867619D01*
X227306190Y-159829524D01*
X227353810Y-159791429D01*
X227401429Y-159715238D01*
X227401429Y-159562857D01*
X227353810Y-159486667D01*
X227306190Y-159448571D01*
X227210952Y-159410476D01*
X228480952Y-159715238D02*
X228433333Y-159791429D01*
X228385714Y-159829524D01*
X228290476Y-159867619D01*
X228242857Y-159867619D01*
X228147619Y-159829524D01*
X228100000Y-159791429D01*
X228052381Y-159715238D01*
X228052381Y-159562857D01*
X228100000Y-159486667D01*
X228147619Y-159448571D01*
X228242857Y-159410476D01*
X228290476Y-159410476D01*
X228385714Y-159448571D01*
X228433333Y-159486667D01*
X228480952Y-159562857D01*
X228480952Y-159715238D01*
X228528571Y-159791429D01*
X228576190Y-159829524D01*
X228671429Y-159867619D01*
X228861905Y-159867619D01*
X228957143Y-159829524D01*
X229004762Y-159791429D01*
X229052381Y-159715238D01*
X229052381Y-159562857D01*
X229004762Y-159486667D01*
X228957143Y-159448571D01*
X228861905Y-159410476D01*
X228671429Y-159410476D01*
X228576190Y-159448571D01*
X228528571Y-159486667D01*
X228480952Y-159562857D01*
X187745714Y-159486667D02*
X188412381Y-159486667D01*
X187364762Y-159677143D02*
X188079048Y-159867619D01*
X188079048Y-159372381D01*
X187412381Y-158915238D02*
X187412381Y-158839047D01*
X187460000Y-158762857D01*
X187507619Y-158724762D01*
X187602857Y-158686666D01*
X187793333Y-158648571D01*
X188031429Y-158648571D01*
X188221905Y-158686666D01*
X188317143Y-158724762D01*
X188364762Y-158762857D01*
X188412381Y-158839047D01*
X188412381Y-158915238D01*
X188364762Y-158991428D01*
X188317143Y-159029524D01*
X188221905Y-159067619D01*
X188031429Y-159105714D01*
X187793333Y-159105714D01*
X187602857Y-159067619D01*
X187507619Y-159029524D01*
X187460000Y-158991428D01*
X187412381Y-158915238D01*
X186475714Y-159486667D02*
X187142381Y-159486667D01*
X186094762Y-159677143D02*
X186809048Y-159867619D01*
X186809048Y-159372381D01*
X187142381Y-158648571D02*
X187142381Y-159105714D01*
X187142381Y-158877143D02*
X186142381Y-158877143D01*
X186285238Y-158953333D01*
X186380476Y-159029524D01*
X186428095Y-159105714D01*
X188682381Y-159905714D02*
X188682381Y-159410476D01*
X189063333Y-159677143D01*
X189063333Y-159562857D01*
X189110952Y-159486667D01*
X189158571Y-159448571D01*
X189253810Y-159410476D01*
X189491905Y-159410476D01*
X189587143Y-159448571D01*
X189634762Y-159486667D01*
X189682381Y-159562857D01*
X189682381Y-159791429D01*
X189634762Y-159867619D01*
X189587143Y-159905714D01*
X189682381Y-159029524D02*
X189682381Y-158877143D01*
X189634762Y-158800952D01*
X189587143Y-158762857D01*
X189444286Y-158686666D01*
X189253810Y-158648571D01*
X188872857Y-158648571D01*
X188777619Y-158686666D01*
X188730000Y-158724762D01*
X188682381Y-158800952D01*
X188682381Y-158953333D01*
X188730000Y-159029524D01*
X188777619Y-159067619D01*
X188872857Y-159105714D01*
X189110952Y-159105714D01*
X189206190Y-159067619D01*
X189253810Y-159029524D01*
X189301429Y-158953333D01*
X189301429Y-158800952D01*
X189253810Y-158724762D01*
X189206190Y-158686666D01*
X189110952Y-158648571D01*
X191222381Y-159905714D02*
X191222381Y-159410476D01*
X191603333Y-159677143D01*
X191603333Y-159562857D01*
X191650952Y-159486667D01*
X191698571Y-159448571D01*
X191793810Y-159410476D01*
X192031905Y-159410476D01*
X192127143Y-159448571D01*
X192174762Y-159486667D01*
X192222381Y-159562857D01*
X192222381Y-159791429D01*
X192174762Y-159867619D01*
X192127143Y-159905714D01*
X191222381Y-159143809D02*
X191222381Y-158610476D01*
X192222381Y-158953333D01*
X189952381Y-159905714D02*
X189952381Y-159410476D01*
X190333333Y-159677143D01*
X190333333Y-159562857D01*
X190380952Y-159486667D01*
X190428571Y-159448571D01*
X190523810Y-159410476D01*
X190761905Y-159410476D01*
X190857143Y-159448571D01*
X190904762Y-159486667D01*
X190952381Y-159562857D01*
X190952381Y-159791429D01*
X190904762Y-159867619D01*
X190857143Y-159905714D01*
X190380952Y-158953333D02*
X190333333Y-159029524D01*
X190285714Y-159067619D01*
X190190476Y-159105714D01*
X190142857Y-159105714D01*
X190047619Y-159067619D01*
X190000000Y-159029524D01*
X189952381Y-158953333D01*
X189952381Y-158800952D01*
X190000000Y-158724762D01*
X190047619Y-158686666D01*
X190142857Y-158648571D01*
X190190476Y-158648571D01*
X190285714Y-158686666D01*
X190333333Y-158724762D01*
X190380952Y-158800952D01*
X190380952Y-158953333D01*
X190428571Y-159029524D01*
X190476190Y-159067619D01*
X190571429Y-159105714D01*
X190761905Y-159105714D01*
X190857143Y-159067619D01*
X190904762Y-159029524D01*
X190952381Y-158953333D01*
X190952381Y-158800952D01*
X190904762Y-158724762D01*
X190857143Y-158686666D01*
X190761905Y-158648571D01*
X190571429Y-158648571D01*
X190476190Y-158686666D01*
X190428571Y-158724762D01*
X190380952Y-158800952D01*
X192492381Y-159905714D02*
X192492381Y-159410476D01*
X192873333Y-159677143D01*
X192873333Y-159562857D01*
X192920952Y-159486667D01*
X192968571Y-159448571D01*
X193063810Y-159410476D01*
X193301905Y-159410476D01*
X193397143Y-159448571D01*
X193444762Y-159486667D01*
X193492381Y-159562857D01*
X193492381Y-159791429D01*
X193444762Y-159867619D01*
X193397143Y-159905714D01*
X192492381Y-158724762D02*
X192492381Y-158877143D01*
X192540000Y-158953333D01*
X192587619Y-158991428D01*
X192730476Y-159067619D01*
X192920952Y-159105714D01*
X193301905Y-159105714D01*
X193397143Y-159067619D01*
X193444762Y-159029524D01*
X193492381Y-158953333D01*
X193492381Y-158800952D01*
X193444762Y-158724762D01*
X193397143Y-158686666D01*
X193301905Y-158648571D01*
X193063810Y-158648571D01*
X192968571Y-158686666D01*
X192920952Y-158724762D01*
X192873333Y-158800952D01*
X192873333Y-158953333D01*
X192920952Y-159029524D01*
X192968571Y-159067619D01*
X193063810Y-159105714D01*
X195032381Y-159905714D02*
X195032381Y-159410476D01*
X195413333Y-159677143D01*
X195413333Y-159562857D01*
X195460952Y-159486667D01*
X195508571Y-159448571D01*
X195603810Y-159410476D01*
X195841905Y-159410476D01*
X195937143Y-159448571D01*
X195984762Y-159486667D01*
X196032381Y-159562857D01*
X196032381Y-159791429D01*
X195984762Y-159867619D01*
X195937143Y-159905714D01*
X195365714Y-158724762D02*
X196032381Y-158724762D01*
X194984762Y-158915238D02*
X195699048Y-159105714D01*
X195699048Y-158610476D01*
X193762381Y-159905714D02*
X193762381Y-159410476D01*
X194143333Y-159677143D01*
X194143333Y-159562857D01*
X194190952Y-159486667D01*
X194238571Y-159448571D01*
X194333810Y-159410476D01*
X194571905Y-159410476D01*
X194667143Y-159448571D01*
X194714762Y-159486667D01*
X194762381Y-159562857D01*
X194762381Y-159791429D01*
X194714762Y-159867619D01*
X194667143Y-159905714D01*
X193762381Y-158686666D02*
X193762381Y-159067619D01*
X194238571Y-159105714D01*
X194190952Y-159067619D01*
X194143333Y-158991428D01*
X194143333Y-158800952D01*
X194190952Y-158724762D01*
X194238571Y-158686666D01*
X194333810Y-158648571D01*
X194571905Y-158648571D01*
X194667143Y-158686666D01*
X194714762Y-158724762D01*
X194762381Y-158800952D01*
X194762381Y-158991428D01*
X194714762Y-159067619D01*
X194667143Y-159105714D01*
X201477619Y-159867619D02*
X201430000Y-159829524D01*
X201382381Y-159753333D01*
X201382381Y-159562857D01*
X201430000Y-159486667D01*
X201477619Y-159448571D01*
X201572857Y-159410476D01*
X201668095Y-159410476D01*
X201810952Y-159448571D01*
X202382381Y-159905714D01*
X202382381Y-159410476D01*
X202382381Y-159029524D02*
X202382381Y-158877143D01*
X202334762Y-158800952D01*
X202287143Y-158762857D01*
X202144286Y-158686666D01*
X201953810Y-158648571D01*
X201572857Y-158648571D01*
X201477619Y-158686666D01*
X201430000Y-158724762D01*
X201382381Y-158800952D01*
X201382381Y-158953333D01*
X201430000Y-159029524D01*
X201477619Y-159067619D01*
X201572857Y-159105714D01*
X201810952Y-159105714D01*
X201906190Y-159067619D01*
X201953810Y-159029524D01*
X202001429Y-158953333D01*
X202001429Y-158800952D01*
X201953810Y-158724762D01*
X201906190Y-158686666D01*
X201810952Y-158648571D01*
X202747619Y-159867619D02*
X202700000Y-159829524D01*
X202652381Y-159753333D01*
X202652381Y-159562857D01*
X202700000Y-159486667D01*
X202747619Y-159448571D01*
X202842857Y-159410476D01*
X202938095Y-159410476D01*
X203080952Y-159448571D01*
X203652381Y-159905714D01*
X203652381Y-159410476D01*
X203080952Y-158953333D02*
X203033333Y-159029524D01*
X202985714Y-159067619D01*
X202890476Y-159105714D01*
X202842857Y-159105714D01*
X202747619Y-159067619D01*
X202700000Y-159029524D01*
X202652381Y-158953333D01*
X202652381Y-158800952D01*
X202700000Y-158724762D01*
X202747619Y-158686666D01*
X202842857Y-158648571D01*
X202890476Y-158648571D01*
X202985714Y-158686666D01*
X203033333Y-158724762D01*
X203080952Y-158800952D01*
X203080952Y-158953333D01*
X203128571Y-159029524D01*
X203176190Y-159067619D01*
X203271429Y-159105714D01*
X203461905Y-159105714D01*
X203557143Y-159067619D01*
X203604762Y-159029524D01*
X203652381Y-158953333D01*
X203652381Y-158800952D01*
X203604762Y-158724762D01*
X203557143Y-158686666D01*
X203461905Y-158648571D01*
X203271429Y-158648571D01*
X203176190Y-158686666D01*
X203128571Y-158724762D01*
X203080952Y-158800952D01*
X204017619Y-159867619D02*
X203970000Y-159829524D01*
X203922381Y-159753333D01*
X203922381Y-159562857D01*
X203970000Y-159486667D01*
X204017619Y-159448571D01*
X204112857Y-159410476D01*
X204208095Y-159410476D01*
X204350952Y-159448571D01*
X204922381Y-159905714D01*
X204922381Y-159410476D01*
X203922381Y-159143809D02*
X203922381Y-158610476D01*
X204922381Y-158953333D01*
X205287619Y-159867619D02*
X205240000Y-159829524D01*
X205192381Y-159753333D01*
X205192381Y-159562857D01*
X205240000Y-159486667D01*
X205287619Y-159448571D01*
X205382857Y-159410476D01*
X205478095Y-159410476D01*
X205620952Y-159448571D01*
X206192381Y-159905714D01*
X206192381Y-159410476D01*
X205192381Y-158724762D02*
X205192381Y-158877143D01*
X205240000Y-158953333D01*
X205287619Y-158991428D01*
X205430476Y-159067619D01*
X205620952Y-159105714D01*
X206001905Y-159105714D01*
X206097143Y-159067619D01*
X206144762Y-159029524D01*
X206192381Y-158953333D01*
X206192381Y-158800952D01*
X206144762Y-158724762D01*
X206097143Y-158686666D01*
X206001905Y-158648571D01*
X205763810Y-158648571D01*
X205668571Y-158686666D01*
X205620952Y-158724762D01*
X205573333Y-158800952D01*
X205573333Y-158953333D01*
X205620952Y-159029524D01*
X205668571Y-159067619D01*
X205763810Y-159105714D01*
X206557619Y-159867619D02*
X206510000Y-159829524D01*
X206462381Y-159753333D01*
X206462381Y-159562857D01*
X206510000Y-159486667D01*
X206557619Y-159448571D01*
X206652857Y-159410476D01*
X206748095Y-159410476D01*
X206890952Y-159448571D01*
X207462381Y-159905714D01*
X207462381Y-159410476D01*
X206462381Y-158686666D02*
X206462381Y-159067619D01*
X206938571Y-159105714D01*
X206890952Y-159067619D01*
X206843333Y-158991428D01*
X206843333Y-158800952D01*
X206890952Y-158724762D01*
X206938571Y-158686666D01*
X207033810Y-158648571D01*
X207271905Y-158648571D01*
X207367143Y-158686666D01*
X207414762Y-158724762D01*
X207462381Y-158800952D01*
X207462381Y-158991428D01*
X207414762Y-159067619D01*
X207367143Y-159105714D01*
X207827619Y-159867619D02*
X207780000Y-159829524D01*
X207732381Y-159753333D01*
X207732381Y-159562857D01*
X207780000Y-159486667D01*
X207827619Y-159448571D01*
X207922857Y-159410476D01*
X208018095Y-159410476D01*
X208160952Y-159448571D01*
X208732381Y-159905714D01*
X208732381Y-159410476D01*
X208065714Y-158724762D02*
X208732381Y-158724762D01*
X207684762Y-158915238D02*
X208399048Y-159105714D01*
X208399048Y-158610476D01*
X197572381Y-159905714D02*
X197572381Y-159410476D01*
X197953333Y-159677143D01*
X197953333Y-159562857D01*
X198000952Y-159486667D01*
X198048571Y-159448571D01*
X198143810Y-159410476D01*
X198381905Y-159410476D01*
X198477143Y-159448571D01*
X198524762Y-159486667D01*
X198572381Y-159562857D01*
X198572381Y-159791429D01*
X198524762Y-159867619D01*
X198477143Y-159905714D01*
X197667619Y-159105714D02*
X197620000Y-159067619D01*
X197572381Y-158991428D01*
X197572381Y-158800952D01*
X197620000Y-158724762D01*
X197667619Y-158686666D01*
X197762857Y-158648571D01*
X197858095Y-158648571D01*
X198000952Y-158686666D01*
X198572381Y-159143809D01*
X198572381Y-158648571D01*
X200112381Y-159905714D02*
X200112381Y-159410476D01*
X200493333Y-159677143D01*
X200493333Y-159562857D01*
X200540952Y-159486667D01*
X200588571Y-159448571D01*
X200683810Y-159410476D01*
X200921905Y-159410476D01*
X201017143Y-159448571D01*
X201064762Y-159486667D01*
X201112381Y-159562857D01*
X201112381Y-159791429D01*
X201064762Y-159867619D01*
X201017143Y-159905714D01*
X200112381Y-158915238D02*
X200112381Y-158839047D01*
X200160000Y-158762857D01*
X200207619Y-158724762D01*
X200302857Y-158686666D01*
X200493333Y-158648571D01*
X200731429Y-158648571D01*
X200921905Y-158686666D01*
X201017143Y-158724762D01*
X201064762Y-158762857D01*
X201112381Y-158839047D01*
X201112381Y-158915238D01*
X201064762Y-158991428D01*
X201017143Y-159029524D01*
X200921905Y-159067619D01*
X200731429Y-159105714D01*
X200493333Y-159105714D01*
X200302857Y-159067619D01*
X200207619Y-159029524D01*
X200160000Y-158991428D01*
X200112381Y-158915238D01*
X198842381Y-159905714D02*
X198842381Y-159410476D01*
X199223333Y-159677143D01*
X199223333Y-159562857D01*
X199270952Y-159486667D01*
X199318571Y-159448571D01*
X199413810Y-159410476D01*
X199651905Y-159410476D01*
X199747143Y-159448571D01*
X199794762Y-159486667D01*
X199842381Y-159562857D01*
X199842381Y-159791429D01*
X199794762Y-159867619D01*
X199747143Y-159905714D01*
X199842381Y-158648571D02*
X199842381Y-159105714D01*
X199842381Y-158877143D02*
X198842381Y-158877143D01*
X198985238Y-158953333D01*
X199080476Y-159029524D01*
X199128095Y-159105714D01*
X196302381Y-159905714D02*
X196302381Y-159410476D01*
X196683333Y-159677143D01*
X196683333Y-159562857D01*
X196730952Y-159486667D01*
X196778571Y-159448571D01*
X196873810Y-159410476D01*
X197111905Y-159410476D01*
X197207143Y-159448571D01*
X197254762Y-159486667D01*
X197302381Y-159562857D01*
X197302381Y-159791429D01*
X197254762Y-159867619D01*
X197207143Y-159905714D01*
X196302381Y-159143809D02*
X196302381Y-158648571D01*
X196683333Y-158915238D01*
X196683333Y-158800952D01*
X196730952Y-158724762D01*
X196778571Y-158686666D01*
X196873810Y-158648571D01*
X197111905Y-158648571D01*
X197207143Y-158686666D01*
X197254762Y-158724762D01*
X197302381Y-158800952D01*
X197302381Y-159029524D01*
X197254762Y-159105714D01*
X197207143Y-159143809D01*
X238125000Y-121285000D02*
X238125000Y-120650000D01*
X156845000Y-120650000D02*
X158115000Y-120015000D01*
X161925000Y-120650000D02*
X163195000Y-120015000D01*
X167005000Y-120650000D02*
X168275000Y-120015000D01*
X172085000Y-120650000D02*
X173355000Y-120015000D01*
X177165000Y-120650000D02*
X178435000Y-120015000D01*
X182245000Y-120650000D02*
X183515000Y-120015000D01*
X187325000Y-120650000D02*
X188595000Y-120015000D01*
X192405000Y-120650000D02*
X193675000Y-120015000D01*
X197485000Y-120650000D02*
X198755000Y-120015000D01*
X202565000Y-120650000D02*
X203835000Y-120015000D01*
X207645000Y-120650000D02*
X208915000Y-120015000D01*
X212725000Y-120650000D02*
X213995000Y-120015000D01*
X217805000Y-120650000D02*
X219075000Y-120015000D01*
X222885000Y-120650000D02*
X224155000Y-120015000D01*
X227965000Y-120650000D02*
X229235000Y-120015000D01*
X156845000Y-121285000D02*
X156845000Y-120650000D01*
X161925000Y-121285000D02*
X161925000Y-120650000D01*
X167005000Y-121285000D02*
X167005000Y-120650000D01*
X172085000Y-121285000D02*
X172085000Y-120650000D01*
X177165000Y-121285000D02*
X177165000Y-120650000D01*
X182245000Y-121285000D02*
X182245000Y-120650000D01*
X187325000Y-121285000D02*
X187325000Y-120650000D01*
X192405000Y-121285000D02*
X192405000Y-120650000D01*
X197485000Y-121285000D02*
X197485000Y-120650000D01*
X202565000Y-121285000D02*
X202565000Y-120650000D01*
X207645000Y-121285000D02*
X207645000Y-120650000D01*
X212725000Y-121285000D02*
X212725000Y-120650000D01*
X217805000Y-121285000D02*
X217805000Y-120650000D01*
X222885000Y-121285000D02*
X222885000Y-120650000D01*
X227965000Y-121285000D02*
X227965000Y-120650000D01*
D12*
X160168098Y-118585937D02*
X160168098Y-119271652D01*
X160168098Y-118928794D02*
X158668098Y-118928794D01*
X158882384Y-119043080D01*
X159025241Y-119157366D01*
X159096670Y-119271652D01*
X158668098Y-117557366D02*
X158668098Y-117785937D01*
X158739527Y-117900223D01*
X158810956Y-117957366D01*
X159025241Y-118071652D01*
X159310956Y-118128795D01*
X159882384Y-118128795D01*
X160025241Y-118071652D01*
X160096670Y-118014509D01*
X160168098Y-117900223D01*
X160168098Y-117671652D01*
X160096670Y-117557366D01*
X160025241Y-117500223D01*
X159882384Y-117443080D01*
X159525241Y-117443080D01*
X159382384Y-117500223D01*
X159310956Y-117557366D01*
X159239527Y-117671652D01*
X159239527Y-117900223D01*
X159310956Y-118014509D01*
X159382384Y-118071652D01*
X159525241Y-118128795D01*
X165248098Y-118585937D02*
X165248098Y-119271652D01*
X165248098Y-118928794D02*
X163748098Y-118928794D01*
X163962384Y-119043080D01*
X164105241Y-119157366D01*
X164176670Y-119271652D01*
X163748098Y-117500223D02*
X163748098Y-118071652D01*
X164462384Y-118128795D01*
X164390956Y-118071652D01*
X164319527Y-117957366D01*
X164319527Y-117671652D01*
X164390956Y-117557366D01*
X164462384Y-117500223D01*
X164605241Y-117443080D01*
X164962384Y-117443080D01*
X165105241Y-117500223D01*
X165176670Y-117557366D01*
X165248098Y-117671652D01*
X165248098Y-117957366D01*
X165176670Y-118071652D01*
X165105241Y-118128795D01*
X170328098Y-118585937D02*
X170328098Y-119271652D01*
X170328098Y-118928794D02*
X168828098Y-118928794D01*
X169042384Y-119043080D01*
X169185241Y-119157366D01*
X169256670Y-119271652D01*
X169328098Y-117557366D02*
X170328098Y-117557366D01*
X168756670Y-117843080D02*
X169828098Y-118128795D01*
X169828098Y-117385937D01*
X175408098Y-118585937D02*
X175408098Y-119271652D01*
X175408098Y-118928794D02*
X173908098Y-118928794D01*
X174122384Y-119043080D01*
X174265241Y-119157366D01*
X174336670Y-119271652D01*
X173908098Y-118185937D02*
X173908098Y-117443080D01*
X174479527Y-117843080D01*
X174479527Y-117671652D01*
X174550956Y-117557366D01*
X174622384Y-117500223D01*
X174765241Y-117443080D01*
X175122384Y-117443080D01*
X175265241Y-117500223D01*
X175336670Y-117557366D01*
X175408098Y-117671652D01*
X175408098Y-118014509D01*
X175336670Y-118128795D01*
X175265241Y-118185937D01*
X180488098Y-118585937D02*
X180488098Y-119271652D01*
X180488098Y-118928794D02*
X178988098Y-118928794D01*
X179202384Y-119043080D01*
X179345241Y-119157366D01*
X179416670Y-119271652D01*
X179130956Y-118128795D02*
X179059527Y-118071652D01*
X178988098Y-117957366D01*
X178988098Y-117671652D01*
X179059527Y-117557366D01*
X179130956Y-117500223D01*
X179273813Y-117443080D01*
X179416670Y-117443080D01*
X179630956Y-117500223D01*
X180488098Y-118185937D01*
X180488098Y-117443080D01*
X185568098Y-118585937D02*
X185568098Y-119271652D01*
X185568098Y-118928794D02*
X184068098Y-118928794D01*
X184282384Y-119043080D01*
X184425241Y-119157366D01*
X184496670Y-119271652D01*
X185568098Y-117443080D02*
X185568098Y-118128795D01*
X185568098Y-117785937D02*
X184068098Y-117785937D01*
X184282384Y-117900223D01*
X184425241Y-118014509D01*
X184496670Y-118128795D01*
X190648098Y-118585937D02*
X190648098Y-119271652D01*
X190648098Y-118928794D02*
X189148098Y-118928794D01*
X189362384Y-119043080D01*
X189505241Y-119157366D01*
X189576670Y-119271652D01*
X189148098Y-117843080D02*
X189148098Y-117728795D01*
X189219527Y-117614509D01*
X189290956Y-117557366D01*
X189433813Y-117500223D01*
X189719527Y-117443080D01*
X190076670Y-117443080D01*
X190362384Y-117500223D01*
X190505241Y-117557366D01*
X190576670Y-117614509D01*
X190648098Y-117728795D01*
X190648098Y-117843080D01*
X190576670Y-117957366D01*
X190505241Y-118014509D01*
X190362384Y-118071652D01*
X190076670Y-118128795D01*
X189719527Y-118128795D01*
X189433813Y-118071652D01*
X189290956Y-118014509D01*
X189219527Y-117957366D01*
X189148098Y-117843080D01*
X195728098Y-119157366D02*
X195728098Y-118928794D01*
X195656670Y-118814509D01*
X195585241Y-118757366D01*
X195370956Y-118643080D01*
X195085241Y-118585937D01*
X194513813Y-118585937D01*
X194370956Y-118643080D01*
X194299527Y-118700223D01*
X194228098Y-118814509D01*
X194228098Y-119043080D01*
X194299527Y-119157366D01*
X194370956Y-119214509D01*
X194513813Y-119271652D01*
X194870956Y-119271652D01*
X195013813Y-119214509D01*
X195085241Y-119157366D01*
X195156670Y-119043080D01*
X195156670Y-118814509D01*
X195085241Y-118700223D01*
X195013813Y-118643080D01*
X194870956Y-118585937D01*
X199950956Y-119043080D02*
X199879527Y-119157366D01*
X199808098Y-119214509D01*
X199665241Y-119271652D01*
X199593813Y-119271652D01*
X199450956Y-119214509D01*
X199379527Y-119157366D01*
X199308098Y-119043080D01*
X199308098Y-118814509D01*
X199379527Y-118700223D01*
X199450956Y-118643080D01*
X199593813Y-118585937D01*
X199665241Y-118585937D01*
X199808098Y-118643080D01*
X199879527Y-118700223D01*
X199950956Y-118814509D01*
X199950956Y-119043080D01*
X200022384Y-119157366D01*
X200093813Y-119214509D01*
X200236670Y-119271652D01*
X200522384Y-119271652D01*
X200665241Y-119214509D01*
X200736670Y-119157366D01*
X200808098Y-119043080D01*
X200808098Y-118814509D01*
X200736670Y-118700223D01*
X200665241Y-118643080D01*
X200522384Y-118585937D01*
X200236670Y-118585937D01*
X200093813Y-118643080D01*
X200022384Y-118700223D01*
X199950956Y-118814509D01*
X204388098Y-119328794D02*
X204388098Y-118528794D01*
X205888098Y-119043080D01*
X209468098Y-118700223D02*
X209468098Y-118928794D01*
X209539527Y-119043080D01*
X209610956Y-119100223D01*
X209825241Y-119214509D01*
X210110956Y-119271652D01*
X210682384Y-119271652D01*
X210825241Y-119214509D01*
X210896670Y-119157366D01*
X210968098Y-119043080D01*
X210968098Y-118814509D01*
X210896670Y-118700223D01*
X210825241Y-118643080D01*
X210682384Y-118585937D01*
X210325241Y-118585937D01*
X210182384Y-118643080D01*
X210110956Y-118700223D01*
X210039527Y-118814509D01*
X210039527Y-119043080D01*
X210110956Y-119157366D01*
X210182384Y-119214509D01*
X210325241Y-119271652D01*
X214548098Y-118643080D02*
X214548098Y-119214509D01*
X215262384Y-119271652D01*
X215190956Y-119214509D01*
X215119527Y-119100223D01*
X215119527Y-118814509D01*
X215190956Y-118700223D01*
X215262384Y-118643080D01*
X215405241Y-118585937D01*
X215762384Y-118585937D01*
X215905241Y-118643080D01*
X215976670Y-118700223D01*
X216048098Y-118814509D01*
X216048098Y-119100223D01*
X215976670Y-119214509D01*
X215905241Y-119271652D01*
X220128098Y-118700223D02*
X221128098Y-118700223D01*
X219556670Y-118985937D02*
X220628098Y-119271652D01*
X220628098Y-118528794D01*
X224708098Y-119328794D02*
X224708098Y-118585937D01*
X225279527Y-118985937D01*
X225279527Y-118814509D01*
X225350956Y-118700223D01*
X225422384Y-118643080D01*
X225565241Y-118585937D01*
X225922384Y-118585937D01*
X226065241Y-118643080D01*
X226136670Y-118700223D01*
X226208098Y-118814509D01*
X226208098Y-119157366D01*
X226136670Y-119271652D01*
X226065241Y-119328794D01*
X229930956Y-119271652D02*
X229859527Y-119214509D01*
X229788098Y-119100223D01*
X229788098Y-118814509D01*
X229859527Y-118700223D01*
X229930956Y-118643080D01*
X230073813Y-118585937D01*
X230216670Y-118585937D01*
X230430956Y-118643080D01*
X231288098Y-119328794D01*
X231288098Y-118585937D01*
D11*
X160020000Y-116840000D02*
X158750000Y-116840000D01*
X165100000Y-116840000D02*
X163830000Y-116840000D01*
X170180000Y-116840000D02*
X168910000Y-116840000D01*
X175260000Y-116840000D02*
X173990000Y-116840000D01*
X180340000Y-116840000D02*
X179070000Y-116840000D01*
X185420000Y-116840000D02*
X184150000Y-116840000D01*
X190500000Y-116840000D02*
X189230000Y-116840000D01*
X195580000Y-116840000D02*
X194310000Y-116840000D01*
X200660000Y-116840000D02*
X199390000Y-116840000D01*
X205740000Y-116840000D02*
X204470000Y-116840000D01*
X210820000Y-116840000D02*
X209550000Y-116840000D01*
X215900000Y-116840000D02*
X214630000Y-116840000D01*
X220980000Y-116840000D02*
X219710000Y-116840000D01*
X226060000Y-116840000D02*
X224790000Y-116840000D01*
X231140000Y-116840000D02*
X229870000Y-116840000D01*
X158115000Y-117475000D02*
X158115000Y-120015000D01*
X163195000Y-117475000D02*
X163195000Y-120015000D01*
X168275000Y-117475000D02*
X168275000Y-120015000D01*
X173355000Y-117475000D02*
X173355000Y-120015000D01*
X178435000Y-117475000D02*
X178435000Y-120015000D01*
X183515000Y-117475000D02*
X183515000Y-120015000D01*
X188595000Y-117475000D02*
X188595000Y-120015000D01*
X193675000Y-117475000D02*
X193675000Y-120015000D01*
X198755000Y-117475000D02*
X198755000Y-120015000D01*
X203835000Y-117475000D02*
X203835000Y-120015000D01*
X208915000Y-117475000D02*
X208915000Y-120015000D01*
X213995000Y-117475000D02*
X213995000Y-120015000D01*
X219075000Y-117475000D02*
X219075000Y-120015000D01*
X224155000Y-117475000D02*
X224155000Y-120015000D01*
X229235000Y-117475000D02*
X229235000Y-120015000D01*
X160655000Y-120015000D02*
X160655000Y-117475000D01*
X165735000Y-120015000D02*
X165735000Y-117475000D01*
X170815000Y-120015000D02*
X170815000Y-117475000D01*
X175895000Y-120015000D02*
X175895000Y-117475000D01*
X180975000Y-120015000D02*
X180975000Y-117475000D01*
X186055000Y-120015000D02*
X186055000Y-117475000D01*
X191135000Y-120015000D02*
X191135000Y-117475000D01*
X196215000Y-120015000D02*
X196215000Y-117475000D01*
X201295000Y-120015000D02*
X201295000Y-117475000D01*
X206375000Y-120015000D02*
X206375000Y-117475000D01*
X211455000Y-120015000D02*
X211455000Y-117475000D01*
X216535000Y-120015000D02*
X216535000Y-117475000D01*
X221615000Y-120015000D02*
X221615000Y-117475000D01*
X226695000Y-120015000D02*
X226695000Y-117475000D01*
X231775000Y-120015000D02*
X231775000Y-117475000D01*
X160655000Y-117475000D02*
X160020000Y-116840000D01*
X165735000Y-117475000D02*
X165100000Y-116840000D01*
X170815000Y-117475000D02*
X170180000Y-116840000D01*
X175895000Y-117475000D02*
X175260000Y-116840000D01*
X180975000Y-117475000D02*
X180340000Y-116840000D01*
X186055000Y-117475000D02*
X185420000Y-116840000D01*
X191135000Y-117475000D02*
X190500000Y-116840000D01*
X196215000Y-117475000D02*
X195580000Y-116840000D01*
X201295000Y-117475000D02*
X200660000Y-116840000D01*
X206375000Y-117475000D02*
X205740000Y-116840000D01*
X211455000Y-117475000D02*
X210820000Y-116840000D01*
X216535000Y-117475000D02*
X215900000Y-116840000D01*
X221615000Y-117475000D02*
X220980000Y-116840000D01*
X226695000Y-117475000D02*
X226060000Y-116840000D01*
X231775000Y-117475000D02*
X231140000Y-116840000D01*
X158750000Y-116840000D02*
X158115000Y-117475000D01*
X163830000Y-116840000D02*
X163195000Y-117475000D01*
X168910000Y-116840000D02*
X168275000Y-117475000D01*
X173990000Y-116840000D02*
X173355000Y-117475000D01*
X179070000Y-116840000D02*
X178435000Y-117475000D01*
X184150000Y-116840000D02*
X183515000Y-117475000D01*
X189230000Y-116840000D02*
X188595000Y-117475000D01*
X194310000Y-116840000D02*
X193675000Y-117475000D01*
X199390000Y-116840000D02*
X198755000Y-117475000D01*
X204470000Y-116840000D02*
X203835000Y-117475000D01*
X209550000Y-116840000D02*
X208915000Y-117475000D01*
X214630000Y-116840000D02*
X213995000Y-117475000D01*
X219710000Y-116840000D02*
X219075000Y-117475000D01*
X224790000Y-116840000D02*
X224155000Y-117475000D01*
X229870000Y-116840000D02*
X229235000Y-117475000D01*
X161925000Y-120650000D02*
X160655000Y-120015000D01*
X167005000Y-120650000D02*
X165735000Y-120015000D01*
X172085000Y-120650000D02*
X170815000Y-120015000D01*
X177165000Y-120650000D02*
X175895000Y-120015000D01*
X182245000Y-120650000D02*
X180975000Y-120015000D01*
X187325000Y-120650000D02*
X186055000Y-120015000D01*
X192405000Y-120650000D02*
X191135000Y-120015000D01*
X197485000Y-120650000D02*
X196215000Y-120015000D01*
X202565000Y-120650000D02*
X201295000Y-120015000D01*
X207645000Y-120650000D02*
X206375000Y-120015000D01*
X212725000Y-120650000D02*
X211455000Y-120015000D01*
X217805000Y-120650000D02*
X216535000Y-120015000D01*
X222885000Y-120650000D02*
X221615000Y-120015000D01*
X227965000Y-120650000D02*
X226695000Y-120015000D01*
X233045000Y-120650000D02*
X231775000Y-120015000D01*
X233045000Y-121285000D02*
X233045000Y-120650000D01*
X156932381Y-122656667D02*
X156932381Y-122809048D01*
X156980000Y-122885238D01*
X157027619Y-122923333D01*
X157170476Y-122999524D01*
X157360952Y-123037619D01*
X157741905Y-123037619D01*
X157837143Y-122999524D01*
X157884762Y-122961429D01*
X157932381Y-122885238D01*
X157932381Y-122732857D01*
X157884762Y-122656667D01*
X157837143Y-122618571D01*
X157741905Y-122580476D01*
X157503810Y-122580476D01*
X157408571Y-122618571D01*
X157360952Y-122656667D01*
X157313333Y-122732857D01*
X157313333Y-122885238D01*
X157360952Y-122961429D01*
X157408571Y-122999524D01*
X157503810Y-123037619D01*
X157265714Y-121894762D02*
X157932381Y-121894762D01*
X156884762Y-122085238D02*
X157599048Y-122275714D01*
X157599048Y-121780476D01*
X158202381Y-122656667D02*
X158202381Y-122809048D01*
X158250000Y-122885238D01*
X158297619Y-122923333D01*
X158440476Y-122999524D01*
X158630952Y-123037619D01*
X159011905Y-123037619D01*
X159107143Y-122999524D01*
X159154762Y-122961429D01*
X159202381Y-122885238D01*
X159202381Y-122732857D01*
X159154762Y-122656667D01*
X159107143Y-122618571D01*
X159011905Y-122580476D01*
X158773810Y-122580476D01*
X158678571Y-122618571D01*
X158630952Y-122656667D01*
X158583333Y-122732857D01*
X158583333Y-122885238D01*
X158630952Y-122961429D01*
X158678571Y-122999524D01*
X158773810Y-123037619D01*
X158202381Y-122313809D02*
X158202381Y-121818571D01*
X158583333Y-122085238D01*
X158583333Y-121970952D01*
X158630952Y-121894762D01*
X158678571Y-121856666D01*
X158773810Y-121818571D01*
X159011905Y-121818571D01*
X159107143Y-121856666D01*
X159154762Y-121894762D01*
X159202381Y-121970952D01*
X159202381Y-122199524D01*
X159154762Y-122275714D01*
X159107143Y-122313809D01*
X159472381Y-122656667D02*
X159472381Y-122809048D01*
X159520000Y-122885238D01*
X159567619Y-122923333D01*
X159710476Y-122999524D01*
X159900952Y-123037619D01*
X160281905Y-123037619D01*
X160377143Y-122999524D01*
X160424762Y-122961429D01*
X160472381Y-122885238D01*
X160472381Y-122732857D01*
X160424762Y-122656667D01*
X160377143Y-122618571D01*
X160281905Y-122580476D01*
X160043810Y-122580476D01*
X159948571Y-122618571D01*
X159900952Y-122656667D01*
X159853333Y-122732857D01*
X159853333Y-122885238D01*
X159900952Y-122961429D01*
X159948571Y-122999524D01*
X160043810Y-123037619D01*
X159567619Y-122275714D02*
X159520000Y-122237619D01*
X159472381Y-122161428D01*
X159472381Y-121970952D01*
X159520000Y-121894762D01*
X159567619Y-121856666D01*
X159662857Y-121818571D01*
X159758095Y-121818571D01*
X159900952Y-121856666D01*
X160472381Y-122313809D01*
X160472381Y-121818571D01*
X160742381Y-122656667D02*
X160742381Y-122809048D01*
X160790000Y-122885238D01*
X160837619Y-122923333D01*
X160980476Y-122999524D01*
X161170952Y-123037619D01*
X161551905Y-123037619D01*
X161647143Y-122999524D01*
X161694762Y-122961429D01*
X161742381Y-122885238D01*
X161742381Y-122732857D01*
X161694762Y-122656667D01*
X161647143Y-122618571D01*
X161551905Y-122580476D01*
X161313810Y-122580476D01*
X161218571Y-122618571D01*
X161170952Y-122656667D01*
X161123333Y-122732857D01*
X161123333Y-122885238D01*
X161170952Y-122961429D01*
X161218571Y-122999524D01*
X161313810Y-123037619D01*
X161742381Y-121818571D02*
X161742381Y-122275714D01*
X161742381Y-122047143D02*
X160742381Y-122047143D01*
X160885238Y-122123333D01*
X160980476Y-122199524D01*
X161028095Y-122275714D01*
X162012381Y-122656667D02*
X162012381Y-122809048D01*
X162060000Y-122885238D01*
X162107619Y-122923333D01*
X162250476Y-122999524D01*
X162440952Y-123037619D01*
X162821905Y-123037619D01*
X162917143Y-122999524D01*
X162964762Y-122961429D01*
X163012381Y-122885238D01*
X163012381Y-122732857D01*
X162964762Y-122656667D01*
X162917143Y-122618571D01*
X162821905Y-122580476D01*
X162583810Y-122580476D01*
X162488571Y-122618571D01*
X162440952Y-122656667D01*
X162393333Y-122732857D01*
X162393333Y-122885238D01*
X162440952Y-122961429D01*
X162488571Y-122999524D01*
X162583810Y-123037619D01*
X162012381Y-122085238D02*
X162012381Y-122009047D01*
X162060000Y-121932857D01*
X162107619Y-121894762D01*
X162202857Y-121856666D01*
X162393333Y-121818571D01*
X162631429Y-121818571D01*
X162821905Y-121856666D01*
X162917143Y-121894762D01*
X162964762Y-121932857D01*
X163012381Y-122009047D01*
X163012381Y-122085238D01*
X162964762Y-122161428D01*
X162917143Y-122199524D01*
X162821905Y-122237619D01*
X162631429Y-122275714D01*
X162393333Y-122275714D01*
X162202857Y-122237619D01*
X162107619Y-122199524D01*
X162060000Y-122161428D01*
X162012381Y-122085238D01*
X163282381Y-122618571D02*
X163282381Y-122999524D01*
X163758571Y-123037619D01*
X163710952Y-122999524D01*
X163663333Y-122923333D01*
X163663333Y-122732857D01*
X163710952Y-122656667D01*
X163758571Y-122618571D01*
X163853810Y-122580476D01*
X164091905Y-122580476D01*
X164187143Y-122618571D01*
X164234762Y-122656667D01*
X164282381Y-122732857D01*
X164282381Y-122923333D01*
X164234762Y-122999524D01*
X164187143Y-123037619D01*
X164282381Y-122199524D02*
X164282381Y-122047143D01*
X164234762Y-121970952D01*
X164187143Y-121932857D01*
X164044286Y-121856666D01*
X163853810Y-121818571D01*
X163472857Y-121818571D01*
X163377619Y-121856666D01*
X163330000Y-121894762D01*
X163282381Y-121970952D01*
X163282381Y-122123333D01*
X163330000Y-122199524D01*
X163377619Y-122237619D01*
X163472857Y-122275714D01*
X163710952Y-122275714D01*
X163806190Y-122237619D01*
X163853810Y-122199524D01*
X163901429Y-122123333D01*
X163901429Y-121970952D01*
X163853810Y-121894762D01*
X163806190Y-121856666D01*
X163710952Y-121818571D01*
X164552381Y-122618571D02*
X164552381Y-122999524D01*
X165028571Y-123037619D01*
X164980952Y-122999524D01*
X164933333Y-122923333D01*
X164933333Y-122732857D01*
X164980952Y-122656667D01*
X165028571Y-122618571D01*
X165123810Y-122580476D01*
X165361905Y-122580476D01*
X165457143Y-122618571D01*
X165504762Y-122656667D01*
X165552381Y-122732857D01*
X165552381Y-122923333D01*
X165504762Y-122999524D01*
X165457143Y-123037619D01*
X164980952Y-122123333D02*
X164933333Y-122199524D01*
X164885714Y-122237619D01*
X164790476Y-122275714D01*
X164742857Y-122275714D01*
X164647619Y-122237619D01*
X164600000Y-122199524D01*
X164552381Y-122123333D01*
X164552381Y-121970952D01*
X164600000Y-121894762D01*
X164647619Y-121856666D01*
X164742857Y-121818571D01*
X164790476Y-121818571D01*
X164885714Y-121856666D01*
X164933333Y-121894762D01*
X164980952Y-121970952D01*
X164980952Y-122123333D01*
X165028571Y-122199524D01*
X165076190Y-122237619D01*
X165171429Y-122275714D01*
X165361905Y-122275714D01*
X165457143Y-122237619D01*
X165504762Y-122199524D01*
X165552381Y-122123333D01*
X165552381Y-121970952D01*
X165504762Y-121894762D01*
X165457143Y-121856666D01*
X165361905Y-121818571D01*
X165171429Y-121818571D01*
X165076190Y-121856666D01*
X165028571Y-121894762D01*
X164980952Y-121970952D01*
X165822381Y-122618571D02*
X165822381Y-122999524D01*
X166298571Y-123037619D01*
X166250952Y-122999524D01*
X166203333Y-122923333D01*
X166203333Y-122732857D01*
X166250952Y-122656667D01*
X166298571Y-122618571D01*
X166393810Y-122580476D01*
X166631905Y-122580476D01*
X166727143Y-122618571D01*
X166774762Y-122656667D01*
X166822381Y-122732857D01*
X166822381Y-122923333D01*
X166774762Y-122999524D01*
X166727143Y-123037619D01*
X165822381Y-122313809D02*
X165822381Y-121780476D01*
X166822381Y-122123333D01*
X167092381Y-122618571D02*
X167092381Y-122999524D01*
X167568571Y-123037619D01*
X167520952Y-122999524D01*
X167473333Y-122923333D01*
X167473333Y-122732857D01*
X167520952Y-122656667D01*
X167568571Y-122618571D01*
X167663810Y-122580476D01*
X167901905Y-122580476D01*
X167997143Y-122618571D01*
X168044762Y-122656667D01*
X168092381Y-122732857D01*
X168092381Y-122923333D01*
X168044762Y-122999524D01*
X167997143Y-123037619D01*
X167092381Y-121894762D02*
X167092381Y-122047143D01*
X167140000Y-122123333D01*
X167187619Y-122161428D01*
X167330476Y-122237619D01*
X167520952Y-122275714D01*
X167901905Y-122275714D01*
X167997143Y-122237619D01*
X168044762Y-122199524D01*
X168092381Y-122123333D01*
X168092381Y-121970952D01*
X168044762Y-121894762D01*
X167997143Y-121856666D01*
X167901905Y-121818571D01*
X167663810Y-121818571D01*
X167568571Y-121856666D01*
X167520952Y-121894762D01*
X167473333Y-121970952D01*
X167473333Y-122123333D01*
X167520952Y-122199524D01*
X167568571Y-122237619D01*
X167663810Y-122275714D01*
X168362381Y-122618571D02*
X168362381Y-122999524D01*
X168838571Y-123037619D01*
X168790952Y-122999524D01*
X168743333Y-122923333D01*
X168743333Y-122732857D01*
X168790952Y-122656667D01*
X168838571Y-122618571D01*
X168933810Y-122580476D01*
X169171905Y-122580476D01*
X169267143Y-122618571D01*
X169314762Y-122656667D01*
X169362381Y-122732857D01*
X169362381Y-122923333D01*
X169314762Y-122999524D01*
X169267143Y-123037619D01*
X168362381Y-121856666D02*
X168362381Y-122237619D01*
X168838571Y-122275714D01*
X168790952Y-122237619D01*
X168743333Y-122161428D01*
X168743333Y-121970952D01*
X168790952Y-121894762D01*
X168838571Y-121856666D01*
X168933810Y-121818571D01*
X169171905Y-121818571D01*
X169267143Y-121856666D01*
X169314762Y-121894762D01*
X169362381Y-121970952D01*
X169362381Y-122161428D01*
X169314762Y-122237619D01*
X169267143Y-122275714D01*
X169632381Y-122618571D02*
X169632381Y-122999524D01*
X170108571Y-123037619D01*
X170060952Y-122999524D01*
X170013333Y-122923333D01*
X170013333Y-122732857D01*
X170060952Y-122656667D01*
X170108571Y-122618571D01*
X170203810Y-122580476D01*
X170441905Y-122580476D01*
X170537143Y-122618571D01*
X170584762Y-122656667D01*
X170632381Y-122732857D01*
X170632381Y-122923333D01*
X170584762Y-122999524D01*
X170537143Y-123037619D01*
X169965714Y-121894762D02*
X170632381Y-121894762D01*
X169584762Y-122085238D02*
X170299048Y-122275714D01*
X170299048Y-121780476D01*
X170902381Y-122618571D02*
X170902381Y-122999524D01*
X171378571Y-123037619D01*
X171330952Y-122999524D01*
X171283333Y-122923333D01*
X171283333Y-122732857D01*
X171330952Y-122656667D01*
X171378571Y-122618571D01*
X171473810Y-122580476D01*
X171711905Y-122580476D01*
X171807143Y-122618571D01*
X171854762Y-122656667D01*
X171902381Y-122732857D01*
X171902381Y-122923333D01*
X171854762Y-122999524D01*
X171807143Y-123037619D01*
X170902381Y-122313809D02*
X170902381Y-121818571D01*
X171283333Y-122085238D01*
X171283333Y-121970952D01*
X171330952Y-121894762D01*
X171378571Y-121856666D01*
X171473810Y-121818571D01*
X171711905Y-121818571D01*
X171807143Y-121856666D01*
X171854762Y-121894762D01*
X171902381Y-121970952D01*
X171902381Y-122199524D01*
X171854762Y-122275714D01*
X171807143Y-122313809D01*
X172172381Y-122618571D02*
X172172381Y-122999524D01*
X172648571Y-123037619D01*
X172600952Y-122999524D01*
X172553333Y-122923333D01*
X172553333Y-122732857D01*
X172600952Y-122656667D01*
X172648571Y-122618571D01*
X172743810Y-122580476D01*
X172981905Y-122580476D01*
X173077143Y-122618571D01*
X173124762Y-122656667D01*
X173172381Y-122732857D01*
X173172381Y-122923333D01*
X173124762Y-122999524D01*
X173077143Y-123037619D01*
X172267619Y-122275714D02*
X172220000Y-122237619D01*
X172172381Y-122161428D01*
X172172381Y-121970952D01*
X172220000Y-121894762D01*
X172267619Y-121856666D01*
X172362857Y-121818571D01*
X172458095Y-121818571D01*
X172600952Y-121856666D01*
X173172381Y-122313809D01*
X173172381Y-121818571D01*
X173442381Y-122618571D02*
X173442381Y-122999524D01*
X173918571Y-123037619D01*
X173870952Y-122999524D01*
X173823333Y-122923333D01*
X173823333Y-122732857D01*
X173870952Y-122656667D01*
X173918571Y-122618571D01*
X174013810Y-122580476D01*
X174251905Y-122580476D01*
X174347143Y-122618571D01*
X174394762Y-122656667D01*
X174442381Y-122732857D01*
X174442381Y-122923333D01*
X174394762Y-122999524D01*
X174347143Y-123037619D01*
X174442381Y-121818571D02*
X174442381Y-122275714D01*
X174442381Y-122047143D02*
X173442381Y-122047143D01*
X173585238Y-122123333D01*
X173680476Y-122199524D01*
X173728095Y-122275714D01*
X174712381Y-122618571D02*
X174712381Y-122999524D01*
X175188571Y-123037619D01*
X175140952Y-122999524D01*
X175093333Y-122923333D01*
X175093333Y-122732857D01*
X175140952Y-122656667D01*
X175188571Y-122618571D01*
X175283810Y-122580476D01*
X175521905Y-122580476D01*
X175617143Y-122618571D01*
X175664762Y-122656667D01*
X175712381Y-122732857D01*
X175712381Y-122923333D01*
X175664762Y-122999524D01*
X175617143Y-123037619D01*
X174712381Y-122085238D02*
X174712381Y-122009047D01*
X174760000Y-121932857D01*
X174807619Y-121894762D01*
X174902857Y-121856666D01*
X175093333Y-121818571D01*
X175331429Y-121818571D01*
X175521905Y-121856666D01*
X175617143Y-121894762D01*
X175664762Y-121932857D01*
X175712381Y-122009047D01*
X175712381Y-122085238D01*
X175664762Y-122161428D01*
X175617143Y-122199524D01*
X175521905Y-122237619D01*
X175331429Y-122275714D01*
X175093333Y-122275714D01*
X174902857Y-122237619D01*
X174807619Y-122199524D01*
X174760000Y-122161428D01*
X174712381Y-122085238D01*
X176315714Y-122656667D02*
X176982381Y-122656667D01*
X175934762Y-122847143D02*
X176649048Y-123037619D01*
X176649048Y-122542381D01*
X176982381Y-122199524D02*
X176982381Y-122047143D01*
X176934762Y-121970952D01*
X176887143Y-121932857D01*
X176744286Y-121856666D01*
X176553810Y-121818571D01*
X176172857Y-121818571D01*
X176077619Y-121856666D01*
X176030000Y-121894762D01*
X175982381Y-121970952D01*
X175982381Y-122123333D01*
X176030000Y-122199524D01*
X176077619Y-122237619D01*
X176172857Y-122275714D01*
X176410952Y-122275714D01*
X176506190Y-122237619D01*
X176553810Y-122199524D01*
X176601429Y-122123333D01*
X176601429Y-121970952D01*
X176553810Y-121894762D01*
X176506190Y-121856666D01*
X176410952Y-121818571D01*
X177585714Y-122656667D02*
X178252381Y-122656667D01*
X177204762Y-122847143D02*
X177919048Y-123037619D01*
X177919048Y-122542381D01*
X177680952Y-122123333D02*
X177633333Y-122199524D01*
X177585714Y-122237619D01*
X177490476Y-122275714D01*
X177442857Y-122275714D01*
X177347619Y-122237619D01*
X177300000Y-122199524D01*
X177252381Y-122123333D01*
X177252381Y-121970952D01*
X177300000Y-121894762D01*
X177347619Y-121856666D01*
X177442857Y-121818571D01*
X177490476Y-121818571D01*
X177585714Y-121856666D01*
X177633333Y-121894762D01*
X177680952Y-121970952D01*
X177680952Y-122123333D01*
X177728571Y-122199524D01*
X177776190Y-122237619D01*
X177871429Y-122275714D01*
X178061905Y-122275714D01*
X178157143Y-122237619D01*
X178204762Y-122199524D01*
X178252381Y-122123333D01*
X178252381Y-121970952D01*
X178204762Y-121894762D01*
X178157143Y-121856666D01*
X178061905Y-121818571D01*
X177871429Y-121818571D01*
X177776190Y-121856666D01*
X177728571Y-121894762D01*
X177680952Y-121970952D01*
X178855714Y-122656667D02*
X179522381Y-122656667D01*
X178474762Y-122847143D02*
X179189048Y-123037619D01*
X179189048Y-122542381D01*
X178522381Y-122313809D02*
X178522381Y-121780476D01*
X179522381Y-122123333D01*
X180125714Y-122656667D02*
X180792381Y-122656667D01*
X179744762Y-122847143D02*
X180459048Y-123037619D01*
X180459048Y-122542381D01*
X179792381Y-121894762D02*
X179792381Y-122047143D01*
X179840000Y-122123333D01*
X179887619Y-122161428D01*
X180030476Y-122237619D01*
X180220952Y-122275714D01*
X180601905Y-122275714D01*
X180697143Y-122237619D01*
X180744762Y-122199524D01*
X180792381Y-122123333D01*
X180792381Y-121970952D01*
X180744762Y-121894762D01*
X180697143Y-121856666D01*
X180601905Y-121818571D01*
X180363810Y-121818571D01*
X180268571Y-121856666D01*
X180220952Y-121894762D01*
X180173333Y-121970952D01*
X180173333Y-122123333D01*
X180220952Y-122199524D01*
X180268571Y-122237619D01*
X180363810Y-122275714D01*
X181395714Y-122656667D02*
X182062381Y-122656667D01*
X181014762Y-122847143D02*
X181729048Y-123037619D01*
X181729048Y-122542381D01*
X181062381Y-121856666D02*
X181062381Y-122237619D01*
X181538571Y-122275714D01*
X181490952Y-122237619D01*
X181443333Y-122161428D01*
X181443333Y-121970952D01*
X181490952Y-121894762D01*
X181538571Y-121856666D01*
X181633810Y-121818571D01*
X181871905Y-121818571D01*
X181967143Y-121856666D01*
X182014762Y-121894762D01*
X182062381Y-121970952D01*
X182062381Y-122161428D01*
X182014762Y-122237619D01*
X181967143Y-122275714D01*
X182665714Y-122656667D02*
X183332381Y-122656667D01*
X182284762Y-122847143D02*
X182999048Y-123037619D01*
X182999048Y-122542381D01*
X182665714Y-121894762D02*
X183332381Y-121894762D01*
X182284762Y-122085238D02*
X182999048Y-122275714D01*
X182999048Y-121780476D01*
X183935714Y-122656667D02*
X184602381Y-122656667D01*
X183554762Y-122847143D02*
X184269048Y-123037619D01*
X184269048Y-122542381D01*
X183602381Y-122313809D02*
X183602381Y-121818571D01*
X183983333Y-122085238D01*
X183983333Y-121970952D01*
X184030952Y-121894762D01*
X184078571Y-121856666D01*
X184173810Y-121818571D01*
X184411905Y-121818571D01*
X184507143Y-121856666D01*
X184554762Y-121894762D01*
X184602381Y-121970952D01*
X184602381Y-122199524D01*
X184554762Y-122275714D01*
X184507143Y-122313809D01*
X185205714Y-122656667D02*
X185872381Y-122656667D01*
X184824762Y-122847143D02*
X185539048Y-123037619D01*
X185539048Y-122542381D01*
X184967619Y-122275714D02*
X184920000Y-122237619D01*
X184872381Y-122161428D01*
X184872381Y-121970952D01*
X184920000Y-121894762D01*
X184967619Y-121856666D01*
X185062857Y-121818571D01*
X185158095Y-121818571D01*
X185300952Y-121856666D01*
X185872381Y-122313809D01*
X185872381Y-121818571D01*
X186475714Y-122656667D02*
X187142381Y-122656667D01*
X186094762Y-122847143D02*
X186809048Y-123037619D01*
X186809048Y-122542381D01*
X187142381Y-121818571D02*
X187142381Y-122275714D01*
X187142381Y-122047143D02*
X186142381Y-122047143D01*
X186285238Y-122123333D01*
X186380476Y-122199524D01*
X186428095Y-122275714D01*
X187745714Y-122656667D02*
X188412381Y-122656667D01*
X187364762Y-122847143D02*
X188079048Y-123037619D01*
X188079048Y-122542381D01*
X187412381Y-122085238D02*
X187412381Y-122009047D01*
X187460000Y-121932857D01*
X187507619Y-121894762D01*
X187602857Y-121856666D01*
X187793333Y-121818571D01*
X188031429Y-121818571D01*
X188221905Y-121856666D01*
X188317143Y-121894762D01*
X188364762Y-121932857D01*
X188412381Y-122009047D01*
X188412381Y-122085238D01*
X188364762Y-122161428D01*
X188317143Y-122199524D01*
X188221905Y-122237619D01*
X188031429Y-122275714D01*
X187793333Y-122275714D01*
X187602857Y-122237619D01*
X187507619Y-122199524D01*
X187460000Y-122161428D01*
X187412381Y-122085238D01*
X188682381Y-123075714D02*
X188682381Y-122580476D01*
X189063333Y-122847143D01*
X189063333Y-122732857D01*
X189110952Y-122656667D01*
X189158571Y-122618571D01*
X189253810Y-122580476D01*
X189491905Y-122580476D01*
X189587143Y-122618571D01*
X189634762Y-122656667D01*
X189682381Y-122732857D01*
X189682381Y-122961429D01*
X189634762Y-123037619D01*
X189587143Y-123075714D01*
X189682381Y-122199524D02*
X189682381Y-122047143D01*
X189634762Y-121970952D01*
X189587143Y-121932857D01*
X189444286Y-121856666D01*
X189253810Y-121818571D01*
X188872857Y-121818571D01*
X188777619Y-121856666D01*
X188730000Y-121894762D01*
X188682381Y-121970952D01*
X188682381Y-122123333D01*
X188730000Y-122199524D01*
X188777619Y-122237619D01*
X188872857Y-122275714D01*
X189110952Y-122275714D01*
X189206190Y-122237619D01*
X189253810Y-122199524D01*
X189301429Y-122123333D01*
X189301429Y-121970952D01*
X189253810Y-121894762D01*
X189206190Y-121856666D01*
X189110952Y-121818571D01*
X189952381Y-123075714D02*
X189952381Y-122580476D01*
X190333333Y-122847143D01*
X190333333Y-122732857D01*
X190380952Y-122656667D01*
X190428571Y-122618571D01*
X190523810Y-122580476D01*
X190761905Y-122580476D01*
X190857143Y-122618571D01*
X190904762Y-122656667D01*
X190952381Y-122732857D01*
X190952381Y-122961429D01*
X190904762Y-123037619D01*
X190857143Y-123075714D01*
X190380952Y-122123333D02*
X190333333Y-122199524D01*
X190285714Y-122237619D01*
X190190476Y-122275714D01*
X190142857Y-122275714D01*
X190047619Y-122237619D01*
X190000000Y-122199524D01*
X189952381Y-122123333D01*
X189952381Y-121970952D01*
X190000000Y-121894762D01*
X190047619Y-121856666D01*
X190142857Y-121818571D01*
X190190476Y-121818571D01*
X190285714Y-121856666D01*
X190333333Y-121894762D01*
X190380952Y-121970952D01*
X190380952Y-122123333D01*
X190428571Y-122199524D01*
X190476190Y-122237619D01*
X190571429Y-122275714D01*
X190761905Y-122275714D01*
X190857143Y-122237619D01*
X190904762Y-122199524D01*
X190952381Y-122123333D01*
X190952381Y-121970952D01*
X190904762Y-121894762D01*
X190857143Y-121856666D01*
X190761905Y-121818571D01*
X190571429Y-121818571D01*
X190476190Y-121856666D01*
X190428571Y-121894762D01*
X190380952Y-121970952D01*
X191222381Y-123075714D02*
X191222381Y-122580476D01*
X191603333Y-122847143D01*
X191603333Y-122732857D01*
X191650952Y-122656667D01*
X191698571Y-122618571D01*
X191793810Y-122580476D01*
X192031905Y-122580476D01*
X192127143Y-122618571D01*
X192174762Y-122656667D01*
X192222381Y-122732857D01*
X192222381Y-122961429D01*
X192174762Y-123037619D01*
X192127143Y-123075714D01*
X191222381Y-122313809D02*
X191222381Y-121780476D01*
X192222381Y-122123333D01*
X192492381Y-123075714D02*
X192492381Y-122580476D01*
X192873333Y-122847143D01*
X192873333Y-122732857D01*
X192920952Y-122656667D01*
X192968571Y-122618571D01*
X193063810Y-122580476D01*
X193301905Y-122580476D01*
X193397143Y-122618571D01*
X193444762Y-122656667D01*
X193492381Y-122732857D01*
X193492381Y-122961429D01*
X193444762Y-123037619D01*
X193397143Y-123075714D01*
X192492381Y-121894762D02*
X192492381Y-122047143D01*
X192540000Y-122123333D01*
X192587619Y-122161428D01*
X192730476Y-122237619D01*
X192920952Y-122275714D01*
X193301905Y-122275714D01*
X193397143Y-122237619D01*
X193444762Y-122199524D01*
X193492381Y-122123333D01*
X193492381Y-121970952D01*
X193444762Y-121894762D01*
X193397143Y-121856666D01*
X193301905Y-121818571D01*
X193063810Y-121818571D01*
X192968571Y-121856666D01*
X192920952Y-121894762D01*
X192873333Y-121970952D01*
X192873333Y-122123333D01*
X192920952Y-122199524D01*
X192968571Y-122237619D01*
X193063810Y-122275714D01*
X193762381Y-123075714D02*
X193762381Y-122580476D01*
X194143333Y-122847143D01*
X194143333Y-122732857D01*
X194190952Y-122656667D01*
X194238571Y-122618571D01*
X194333810Y-122580476D01*
X194571905Y-122580476D01*
X194667143Y-122618571D01*
X194714762Y-122656667D01*
X194762381Y-122732857D01*
X194762381Y-122961429D01*
X194714762Y-123037619D01*
X194667143Y-123075714D01*
X193762381Y-121856666D02*
X193762381Y-122237619D01*
X194238571Y-122275714D01*
X194190952Y-122237619D01*
X194143333Y-122161428D01*
X194143333Y-121970952D01*
X194190952Y-121894762D01*
X194238571Y-121856666D01*
X194333810Y-121818571D01*
X194571905Y-121818571D01*
X194667143Y-121856666D01*
X194714762Y-121894762D01*
X194762381Y-121970952D01*
X194762381Y-122161428D01*
X194714762Y-122237619D01*
X194667143Y-122275714D01*
X195032381Y-123075714D02*
X195032381Y-122580476D01*
X195413333Y-122847143D01*
X195413333Y-122732857D01*
X195460952Y-122656667D01*
X195508571Y-122618571D01*
X195603810Y-122580476D01*
X195841905Y-122580476D01*
X195937143Y-122618571D01*
X195984762Y-122656667D01*
X196032381Y-122732857D01*
X196032381Y-122961429D01*
X195984762Y-123037619D01*
X195937143Y-123075714D01*
X195365714Y-121894762D02*
X196032381Y-121894762D01*
X194984762Y-122085238D02*
X195699048Y-122275714D01*
X195699048Y-121780476D01*
X196302381Y-123075714D02*
X196302381Y-122580476D01*
X196683333Y-122847143D01*
X196683333Y-122732857D01*
X196730952Y-122656667D01*
X196778571Y-122618571D01*
X196873810Y-122580476D01*
X197111905Y-122580476D01*
X197207143Y-122618571D01*
X197254762Y-122656667D01*
X197302381Y-122732857D01*
X197302381Y-122961429D01*
X197254762Y-123037619D01*
X197207143Y-123075714D01*
X196302381Y-122313809D02*
X196302381Y-121818571D01*
X196683333Y-122085238D01*
X196683333Y-121970952D01*
X196730952Y-121894762D01*
X196778571Y-121856666D01*
X196873810Y-121818571D01*
X197111905Y-121818571D01*
X197207143Y-121856666D01*
X197254762Y-121894762D01*
X197302381Y-121970952D01*
X197302381Y-122199524D01*
X197254762Y-122275714D01*
X197207143Y-122313809D01*
X197572381Y-123075714D02*
X197572381Y-122580476D01*
X197953333Y-122847143D01*
X197953333Y-122732857D01*
X198000952Y-122656667D01*
X198048571Y-122618571D01*
X198143810Y-122580476D01*
X198381905Y-122580476D01*
X198477143Y-122618571D01*
X198524762Y-122656667D01*
X198572381Y-122732857D01*
X198572381Y-122961429D01*
X198524762Y-123037619D01*
X198477143Y-123075714D01*
X197667619Y-122275714D02*
X197620000Y-122237619D01*
X197572381Y-122161428D01*
X197572381Y-121970952D01*
X197620000Y-121894762D01*
X197667619Y-121856666D01*
X197762857Y-121818571D01*
X197858095Y-121818571D01*
X198000952Y-121856666D01*
X198572381Y-122313809D01*
X198572381Y-121818571D01*
X198842381Y-123075714D02*
X198842381Y-122580476D01*
X199223333Y-122847143D01*
X199223333Y-122732857D01*
X199270952Y-122656667D01*
X199318571Y-122618571D01*
X199413810Y-122580476D01*
X199651905Y-122580476D01*
X199747143Y-122618571D01*
X199794762Y-122656667D01*
X199842381Y-122732857D01*
X199842381Y-122961429D01*
X199794762Y-123037619D01*
X199747143Y-123075714D01*
X199842381Y-121818571D02*
X199842381Y-122275714D01*
X199842381Y-122047143D02*
X198842381Y-122047143D01*
X198985238Y-122123333D01*
X199080476Y-122199524D01*
X199128095Y-122275714D01*
X200112381Y-123075714D02*
X200112381Y-122580476D01*
X200493333Y-122847143D01*
X200493333Y-122732857D01*
X200540952Y-122656667D01*
X200588571Y-122618571D01*
X200683810Y-122580476D01*
X200921905Y-122580476D01*
X201017143Y-122618571D01*
X201064762Y-122656667D01*
X201112381Y-122732857D01*
X201112381Y-122961429D01*
X201064762Y-123037619D01*
X201017143Y-123075714D01*
X200112381Y-122085238D02*
X200112381Y-122009047D01*
X200160000Y-121932857D01*
X200207619Y-121894762D01*
X200302857Y-121856666D01*
X200493333Y-121818571D01*
X200731429Y-121818571D01*
X200921905Y-121856666D01*
X201017143Y-121894762D01*
X201064762Y-121932857D01*
X201112381Y-122009047D01*
X201112381Y-122085238D01*
X201064762Y-122161428D01*
X201017143Y-122199524D01*
X200921905Y-122237619D01*
X200731429Y-122275714D01*
X200493333Y-122275714D01*
X200302857Y-122237619D01*
X200207619Y-122199524D01*
X200160000Y-122161428D01*
X200112381Y-122085238D01*
X201477619Y-123037619D02*
X201430000Y-122999524D01*
X201382381Y-122923333D01*
X201382381Y-122732857D01*
X201430000Y-122656667D01*
X201477619Y-122618571D01*
X201572857Y-122580476D01*
X201668095Y-122580476D01*
X201810952Y-122618571D01*
X202382381Y-123075714D01*
X202382381Y-122580476D01*
X202382381Y-122199524D02*
X202382381Y-122047143D01*
X202334762Y-121970952D01*
X202287143Y-121932857D01*
X202144286Y-121856666D01*
X201953810Y-121818571D01*
X201572857Y-121818571D01*
X201477619Y-121856666D01*
X201430000Y-121894762D01*
X201382381Y-121970952D01*
X201382381Y-122123333D01*
X201430000Y-122199524D01*
X201477619Y-122237619D01*
X201572857Y-122275714D01*
X201810952Y-122275714D01*
X201906190Y-122237619D01*
X201953810Y-122199524D01*
X202001429Y-122123333D01*
X202001429Y-121970952D01*
X201953810Y-121894762D01*
X201906190Y-121856666D01*
X201810952Y-121818571D01*
X202747619Y-123037619D02*
X202700000Y-122999524D01*
X202652381Y-122923333D01*
X202652381Y-122732857D01*
X202700000Y-122656667D01*
X202747619Y-122618571D01*
X202842857Y-122580476D01*
X202938095Y-122580476D01*
X203080952Y-122618571D01*
X203652381Y-123075714D01*
X203652381Y-122580476D01*
X203080952Y-122123333D02*
X203033333Y-122199524D01*
X202985714Y-122237619D01*
X202890476Y-122275714D01*
X202842857Y-122275714D01*
X202747619Y-122237619D01*
X202700000Y-122199524D01*
X202652381Y-122123333D01*
X202652381Y-121970952D01*
X202700000Y-121894762D01*
X202747619Y-121856666D01*
X202842857Y-121818571D01*
X202890476Y-121818571D01*
X202985714Y-121856666D01*
X203033333Y-121894762D01*
X203080952Y-121970952D01*
X203080952Y-122123333D01*
X203128571Y-122199524D01*
X203176190Y-122237619D01*
X203271429Y-122275714D01*
X203461905Y-122275714D01*
X203557143Y-122237619D01*
X203604762Y-122199524D01*
X203652381Y-122123333D01*
X203652381Y-121970952D01*
X203604762Y-121894762D01*
X203557143Y-121856666D01*
X203461905Y-121818571D01*
X203271429Y-121818571D01*
X203176190Y-121856666D01*
X203128571Y-121894762D01*
X203080952Y-121970952D01*
X204017619Y-123037619D02*
X203970000Y-122999524D01*
X203922381Y-122923333D01*
X203922381Y-122732857D01*
X203970000Y-122656667D01*
X204017619Y-122618571D01*
X204112857Y-122580476D01*
X204208095Y-122580476D01*
X204350952Y-122618571D01*
X204922381Y-123075714D01*
X204922381Y-122580476D01*
X203922381Y-122313809D02*
X203922381Y-121780476D01*
X204922381Y-122123333D01*
X205287619Y-123037619D02*
X205240000Y-122999524D01*
X205192381Y-122923333D01*
X205192381Y-122732857D01*
X205240000Y-122656667D01*
X205287619Y-122618571D01*
X205382857Y-122580476D01*
X205478095Y-122580476D01*
X205620952Y-122618571D01*
X206192381Y-123075714D01*
X206192381Y-122580476D01*
X205192381Y-121894762D02*
X205192381Y-122047143D01*
X205240000Y-122123333D01*
X205287619Y-122161428D01*
X205430476Y-122237619D01*
X205620952Y-122275714D01*
X206001905Y-122275714D01*
X206097143Y-122237619D01*
X206144762Y-122199524D01*
X206192381Y-122123333D01*
X206192381Y-121970952D01*
X206144762Y-121894762D01*
X206097143Y-121856666D01*
X206001905Y-121818571D01*
X205763810Y-121818571D01*
X205668571Y-121856666D01*
X205620952Y-121894762D01*
X205573333Y-121970952D01*
X205573333Y-122123333D01*
X205620952Y-122199524D01*
X205668571Y-122237619D01*
X205763810Y-122275714D01*
X206557619Y-123037619D02*
X206510000Y-122999524D01*
X206462381Y-122923333D01*
X206462381Y-122732857D01*
X206510000Y-122656667D01*
X206557619Y-122618571D01*
X206652857Y-122580476D01*
X206748095Y-122580476D01*
X206890952Y-122618571D01*
X207462381Y-123075714D01*
X207462381Y-122580476D01*
X206462381Y-121856666D02*
X206462381Y-122237619D01*
X206938571Y-122275714D01*
X206890952Y-122237619D01*
X206843333Y-122161428D01*
X206843333Y-121970952D01*
X206890952Y-121894762D01*
X206938571Y-121856666D01*
X207033810Y-121818571D01*
X207271905Y-121818571D01*
X207367143Y-121856666D01*
X207414762Y-121894762D01*
X207462381Y-121970952D01*
X207462381Y-122161428D01*
X207414762Y-122237619D01*
X207367143Y-122275714D01*
X207827619Y-123037619D02*
X207780000Y-122999524D01*
X207732381Y-122923333D01*
X207732381Y-122732857D01*
X207780000Y-122656667D01*
X207827619Y-122618571D01*
X207922857Y-122580476D01*
X208018095Y-122580476D01*
X208160952Y-122618571D01*
X208732381Y-123075714D01*
X208732381Y-122580476D01*
X208065714Y-121894762D02*
X208732381Y-121894762D01*
X207684762Y-122085238D02*
X208399048Y-122275714D01*
X208399048Y-121780476D01*
X209097619Y-123037619D02*
X209050000Y-122999524D01*
X209002381Y-122923333D01*
X209002381Y-122732857D01*
X209050000Y-122656667D01*
X209097619Y-122618571D01*
X209192857Y-122580476D01*
X209288095Y-122580476D01*
X209430952Y-122618571D01*
X210002381Y-123075714D01*
X210002381Y-122580476D01*
X209002381Y-122313809D02*
X209002381Y-121818571D01*
X209383333Y-122085238D01*
X209383333Y-121970952D01*
X209430952Y-121894762D01*
X209478571Y-121856666D01*
X209573810Y-121818571D01*
X209811905Y-121818571D01*
X209907143Y-121856666D01*
X209954762Y-121894762D01*
X210002381Y-121970952D01*
X210002381Y-122199524D01*
X209954762Y-122275714D01*
X209907143Y-122313809D01*
X210367619Y-123037619D02*
X210320000Y-122999524D01*
X210272381Y-122923333D01*
X210272381Y-122732857D01*
X210320000Y-122656667D01*
X210367619Y-122618571D01*
X210462857Y-122580476D01*
X210558095Y-122580476D01*
X210700952Y-122618571D01*
X211272381Y-123075714D01*
X211272381Y-122580476D01*
X210367619Y-122275714D02*
X210320000Y-122237619D01*
X210272381Y-122161428D01*
X210272381Y-121970952D01*
X210320000Y-121894762D01*
X210367619Y-121856666D01*
X210462857Y-121818571D01*
X210558095Y-121818571D01*
X210700952Y-121856666D01*
X211272381Y-122313809D01*
X211272381Y-121818571D01*
X211637619Y-123037619D02*
X211590000Y-122999524D01*
X211542381Y-122923333D01*
X211542381Y-122732857D01*
X211590000Y-122656667D01*
X211637619Y-122618571D01*
X211732857Y-122580476D01*
X211828095Y-122580476D01*
X211970952Y-122618571D01*
X212542381Y-123075714D01*
X212542381Y-122580476D01*
X212542381Y-121818571D02*
X212542381Y-122275714D01*
X212542381Y-122047143D02*
X211542381Y-122047143D01*
X211685238Y-122123333D01*
X211780476Y-122199524D01*
X211828095Y-122275714D01*
X212907619Y-123037619D02*
X212860000Y-122999524D01*
X212812381Y-122923333D01*
X212812381Y-122732857D01*
X212860000Y-122656667D01*
X212907619Y-122618571D01*
X213002857Y-122580476D01*
X213098095Y-122580476D01*
X213240952Y-122618571D01*
X213812381Y-123075714D01*
X213812381Y-122580476D01*
X212812381Y-122085238D02*
X212812381Y-122009047D01*
X212860000Y-121932857D01*
X212907619Y-121894762D01*
X213002857Y-121856666D01*
X213193333Y-121818571D01*
X213431429Y-121818571D01*
X213621905Y-121856666D01*
X213717143Y-121894762D01*
X213764762Y-121932857D01*
X213812381Y-122009047D01*
X213812381Y-122085238D01*
X213764762Y-122161428D01*
X213717143Y-122199524D01*
X213621905Y-122237619D01*
X213431429Y-122275714D01*
X213193333Y-122275714D01*
X213002857Y-122237619D01*
X212907619Y-122199524D01*
X212860000Y-122161428D01*
X212812381Y-122085238D01*
X215082381Y-122580476D02*
X215082381Y-123037619D01*
X215082381Y-122809048D02*
X214082381Y-122809048D01*
X214225238Y-122885238D01*
X214320476Y-122961429D01*
X214368095Y-123037619D01*
X215082381Y-122199524D02*
X215082381Y-122047143D01*
X215034762Y-121970952D01*
X214987143Y-121932857D01*
X214844286Y-121856666D01*
X214653810Y-121818571D01*
X214272857Y-121818571D01*
X214177619Y-121856666D01*
X214130000Y-121894762D01*
X214082381Y-121970952D01*
X214082381Y-122123333D01*
X214130000Y-122199524D01*
X214177619Y-122237619D01*
X214272857Y-122275714D01*
X214510952Y-122275714D01*
X214606190Y-122237619D01*
X214653810Y-122199524D01*
X214701429Y-122123333D01*
X214701429Y-121970952D01*
X214653810Y-121894762D01*
X214606190Y-121856666D01*
X214510952Y-121818571D01*
X216352381Y-122580476D02*
X216352381Y-123037619D01*
X216352381Y-122809048D02*
X215352381Y-122809048D01*
X215495238Y-122885238D01*
X215590476Y-122961429D01*
X215638095Y-123037619D01*
X215780952Y-122123333D02*
X215733333Y-122199524D01*
X215685714Y-122237619D01*
X215590476Y-122275714D01*
X215542857Y-122275714D01*
X215447619Y-122237619D01*
X215400000Y-122199524D01*
X215352381Y-122123333D01*
X215352381Y-121970952D01*
X215400000Y-121894762D01*
X215447619Y-121856666D01*
X215542857Y-121818571D01*
X215590476Y-121818571D01*
X215685714Y-121856666D01*
X215733333Y-121894762D01*
X215780952Y-121970952D01*
X215780952Y-122123333D01*
X215828571Y-122199524D01*
X215876190Y-122237619D01*
X215971429Y-122275714D01*
X216161905Y-122275714D01*
X216257143Y-122237619D01*
X216304762Y-122199524D01*
X216352381Y-122123333D01*
X216352381Y-121970952D01*
X216304762Y-121894762D01*
X216257143Y-121856666D01*
X216161905Y-121818571D01*
X215971429Y-121818571D01*
X215876190Y-121856666D01*
X215828571Y-121894762D01*
X215780952Y-121970952D01*
X217622381Y-122580476D02*
X217622381Y-123037619D01*
X217622381Y-122809048D02*
X216622381Y-122809048D01*
X216765238Y-122885238D01*
X216860476Y-122961429D01*
X216908095Y-123037619D01*
X216622381Y-122313809D02*
X216622381Y-121780476D01*
X217622381Y-122123333D01*
X218892381Y-122580476D02*
X218892381Y-123037619D01*
X218892381Y-122809048D02*
X217892381Y-122809048D01*
X218035238Y-122885238D01*
X218130476Y-122961429D01*
X218178095Y-123037619D01*
X217892381Y-121894762D02*
X217892381Y-122047143D01*
X217940000Y-122123333D01*
X217987619Y-122161428D01*
X218130476Y-122237619D01*
X218320952Y-122275714D01*
X218701905Y-122275714D01*
X218797143Y-122237619D01*
X218844762Y-122199524D01*
X218892381Y-122123333D01*
X218892381Y-121970952D01*
X218844762Y-121894762D01*
X218797143Y-121856666D01*
X218701905Y-121818571D01*
X218463810Y-121818571D01*
X218368571Y-121856666D01*
X218320952Y-121894762D01*
X218273333Y-121970952D01*
X218273333Y-122123333D01*
X218320952Y-122199524D01*
X218368571Y-122237619D01*
X218463810Y-122275714D01*
X220162381Y-122580476D02*
X220162381Y-123037619D01*
X220162381Y-122809048D02*
X219162381Y-122809048D01*
X219305238Y-122885238D01*
X219400476Y-122961429D01*
X219448095Y-123037619D01*
X219162381Y-121856666D02*
X219162381Y-122237619D01*
X219638571Y-122275714D01*
X219590952Y-122237619D01*
X219543333Y-122161428D01*
X219543333Y-121970952D01*
X219590952Y-121894762D01*
X219638571Y-121856666D01*
X219733810Y-121818571D01*
X219971905Y-121818571D01*
X220067143Y-121856666D01*
X220114762Y-121894762D01*
X220162381Y-121970952D01*
X220162381Y-122161428D01*
X220114762Y-122237619D01*
X220067143Y-122275714D01*
X221432381Y-122580476D02*
X221432381Y-123037619D01*
X221432381Y-122809048D02*
X220432381Y-122809048D01*
X220575238Y-122885238D01*
X220670476Y-122961429D01*
X220718095Y-123037619D01*
X220765714Y-121894762D02*
X221432381Y-121894762D01*
X220384762Y-122085238D02*
X221099048Y-122275714D01*
X221099048Y-121780476D01*
X222702381Y-122580476D02*
X222702381Y-123037619D01*
X222702381Y-122809048D02*
X221702381Y-122809048D01*
X221845238Y-122885238D01*
X221940476Y-122961429D01*
X221988095Y-123037619D01*
X221702381Y-122313809D02*
X221702381Y-121818571D01*
X222083333Y-122085238D01*
X222083333Y-121970952D01*
X222130952Y-121894762D01*
X222178571Y-121856666D01*
X222273810Y-121818571D01*
X222511905Y-121818571D01*
X222607143Y-121856666D01*
X222654762Y-121894762D01*
X222702381Y-121970952D01*
X222702381Y-122199524D01*
X222654762Y-122275714D01*
X222607143Y-122313809D01*
X223972381Y-122580476D02*
X223972381Y-123037619D01*
X223972381Y-122809048D02*
X222972381Y-122809048D01*
X223115238Y-122885238D01*
X223210476Y-122961429D01*
X223258095Y-123037619D01*
X223067619Y-122275714D02*
X223020000Y-122237619D01*
X222972381Y-122161428D01*
X222972381Y-121970952D01*
X223020000Y-121894762D01*
X223067619Y-121856666D01*
X223162857Y-121818571D01*
X223258095Y-121818571D01*
X223400952Y-121856666D01*
X223972381Y-122313809D01*
X223972381Y-121818571D01*
X225242381Y-122580476D02*
X225242381Y-123037619D01*
X225242381Y-122809048D02*
X224242381Y-122809048D01*
X224385238Y-122885238D01*
X224480476Y-122961429D01*
X224528095Y-123037619D01*
X225242381Y-121818571D02*
X225242381Y-122275714D01*
X225242381Y-122047143D02*
X224242381Y-122047143D01*
X224385238Y-122123333D01*
X224480476Y-122199524D01*
X224528095Y-122275714D01*
X226512381Y-122580476D02*
X226512381Y-123037619D01*
X226512381Y-122809048D02*
X225512381Y-122809048D01*
X225655238Y-122885238D01*
X225750476Y-122961429D01*
X225798095Y-123037619D01*
X225512381Y-122085238D02*
X225512381Y-122009047D01*
X225560000Y-121932857D01*
X225607619Y-121894762D01*
X225702857Y-121856666D01*
X225893333Y-121818571D01*
X226131429Y-121818571D01*
X226321905Y-121856666D01*
X226417143Y-121894762D01*
X226464762Y-121932857D01*
X226512381Y-122009047D01*
X226512381Y-122085238D01*
X226464762Y-122161428D01*
X226417143Y-122199524D01*
X226321905Y-122237619D01*
X226131429Y-122275714D01*
X225893333Y-122275714D01*
X225702857Y-122237619D01*
X225607619Y-122199524D01*
X225560000Y-122161428D01*
X225512381Y-122085238D01*
X227782381Y-122961429D02*
X227782381Y-122809048D01*
X227734762Y-122732857D01*
X227687143Y-122694762D01*
X227544286Y-122618571D01*
X227353810Y-122580476D01*
X226972857Y-122580476D01*
X226877619Y-122618571D01*
X226830000Y-122656667D01*
X226782381Y-122732857D01*
X226782381Y-122885238D01*
X226830000Y-122961429D01*
X226877619Y-122999524D01*
X226972857Y-123037619D01*
X227210952Y-123037619D01*
X227306190Y-122999524D01*
X227353810Y-122961429D01*
X227401429Y-122885238D01*
X227401429Y-122732857D01*
X227353810Y-122656667D01*
X227306190Y-122618571D01*
X227210952Y-122580476D01*
X228480952Y-122885238D02*
X228433333Y-122961429D01*
X228385714Y-122999524D01*
X228290476Y-123037619D01*
X228242857Y-123037619D01*
X228147619Y-122999524D01*
X228100000Y-122961429D01*
X228052381Y-122885238D01*
X228052381Y-122732857D01*
X228100000Y-122656667D01*
X228147619Y-122618571D01*
X228242857Y-122580476D01*
X228290476Y-122580476D01*
X228385714Y-122618571D01*
X228433333Y-122656667D01*
X228480952Y-122732857D01*
X228480952Y-122885238D01*
X228528571Y-122961429D01*
X228576190Y-122999524D01*
X228671429Y-123037619D01*
X228861905Y-123037619D01*
X228957143Y-122999524D01*
X229004762Y-122961429D01*
X229052381Y-122885238D01*
X229052381Y-122732857D01*
X229004762Y-122656667D01*
X228957143Y-122618571D01*
X228861905Y-122580476D01*
X228671429Y-122580476D01*
X228576190Y-122618571D01*
X228528571Y-122656667D01*
X228480952Y-122732857D01*
X229322381Y-123075714D02*
X229322381Y-122542381D01*
X230322381Y-122885238D01*
X230592381Y-122656667D02*
X230592381Y-122809048D01*
X230640000Y-122885238D01*
X230687619Y-122923333D01*
X230830476Y-122999524D01*
X231020952Y-123037619D01*
X231401905Y-123037619D01*
X231497143Y-122999524D01*
X231544762Y-122961429D01*
X231592381Y-122885238D01*
X231592381Y-122732857D01*
X231544762Y-122656667D01*
X231497143Y-122618571D01*
X231401905Y-122580476D01*
X231163810Y-122580476D01*
X231068571Y-122618571D01*
X231020952Y-122656667D01*
X230973333Y-122732857D01*
X230973333Y-122885238D01*
X231020952Y-122961429D01*
X231068571Y-122999524D01*
X231163810Y-123037619D01*
X231862381Y-122618571D02*
X231862381Y-122999524D01*
X232338571Y-123037619D01*
X232290952Y-122999524D01*
X232243333Y-122923333D01*
X232243333Y-122732857D01*
X232290952Y-122656667D01*
X232338571Y-122618571D01*
X232433810Y-122580476D01*
X232671905Y-122580476D01*
X232767143Y-122618571D01*
X232814762Y-122656667D01*
X232862381Y-122732857D01*
X232862381Y-122923333D01*
X232814762Y-122999524D01*
X232767143Y-123037619D01*
X233465714Y-122656667D02*
X234132381Y-122656667D01*
X233084762Y-122847143D02*
X233799048Y-123037619D01*
X233799048Y-122542381D01*
X234402381Y-123075714D02*
X234402381Y-122580476D01*
X234783333Y-122847143D01*
X234783333Y-122732857D01*
X234830952Y-122656667D01*
X234878571Y-122618571D01*
X234973810Y-122580476D01*
X235211905Y-122580476D01*
X235307143Y-122618571D01*
X235354762Y-122656667D01*
X235402381Y-122732857D01*
X235402381Y-122961429D01*
X235354762Y-123037619D01*
X235307143Y-123075714D01*
X235767619Y-123037619D02*
X235720000Y-122999524D01*
X235672381Y-122923333D01*
X235672381Y-122732857D01*
X235720000Y-122656667D01*
X235767619Y-122618571D01*
X235862857Y-122580476D01*
X235958095Y-122580476D01*
X236100952Y-122618571D01*
X236672381Y-123075714D01*
X236672381Y-122580476D01*
X219075000Y-99060000D02*
X218440000Y-100330000D01*
X216535000Y-100330000D02*
X219075000Y-101600000D01*
X216535000Y-100330000D02*
X219075000Y-99060000D01*
D13*
X234785715Y-102178571D02*
X234785715Y-100678571D01*
X235285715Y-101750000D01*
X235785715Y-100678571D01*
X235785715Y-102178571D01*
X236428572Y-100821429D02*
X236500001Y-100750000D01*
X236642858Y-100678571D01*
X237000001Y-100678571D01*
X237142858Y-100750000D01*
X237214287Y-100821429D01*
X237285715Y-100964286D01*
X237285715Y-101107143D01*
X237214287Y-101321429D01*
X236357144Y-102178571D01*
X237285715Y-102178571D01*
X162785715Y-102178571D02*
X162785715Y-100678571D01*
X163285715Y-101750000D01*
X163785715Y-100678571D01*
X163785715Y-102178571D01*
X165285715Y-102178571D02*
X164428572Y-102178571D01*
X164857144Y-102178571D02*
X164857144Y-100678571D01*
X164714287Y-100892857D01*
X164571429Y-101035714D01*
X164428572Y-101107143D01*
D11*
X163685715Y-76151190D02*
X163871429Y-76213095D01*
X164180953Y-76213095D01*
X164304763Y-76151190D01*
X164366667Y-76089286D01*
X164428572Y-75965476D01*
X164428572Y-75841667D01*
X164366667Y-75717857D01*
X164304763Y-75655952D01*
X164180953Y-75594048D01*
X163933334Y-75532143D01*
X163809525Y-75470238D01*
X163747620Y-75408333D01*
X163685715Y-75284524D01*
X163685715Y-75160714D01*
X163747620Y-75036905D01*
X163809525Y-74975000D01*
X163933334Y-74913095D01*
X164242858Y-74913095D01*
X164428572Y-74975000D01*
X164800001Y-75346429D02*
X165295239Y-75346429D01*
X164985715Y-74913095D02*
X164985715Y-76027381D01*
X165047620Y-76151190D01*
X165171429Y-76213095D01*
X165295239Y-76213095D01*
X166223810Y-76151190D02*
X166100000Y-76213095D01*
X165852381Y-76213095D01*
X165728572Y-76151190D01*
X165666667Y-76027381D01*
X165666667Y-75532143D01*
X165728572Y-75408333D01*
X165852381Y-75346429D01*
X166100000Y-75346429D01*
X166223810Y-75408333D01*
X166285715Y-75532143D01*
X166285715Y-75655952D01*
X165666667Y-75779762D01*
X166719048Y-75346429D02*
X167028572Y-76213095D01*
X167338096Y-75346429D01*
X168328572Y-76151190D02*
X168204762Y-76213095D01*
X167957143Y-76213095D01*
X167833334Y-76151190D01*
X167771429Y-76027381D01*
X167771429Y-75532143D01*
X167833334Y-75408333D01*
X167957143Y-75346429D01*
X168204762Y-75346429D01*
X168328572Y-75408333D01*
X168390477Y-75532143D01*
X168390477Y-75655952D01*
X167771429Y-75779762D01*
X168947620Y-75346429D02*
X168947620Y-76213095D01*
X168947620Y-75470238D02*
X169009525Y-75408333D01*
X169133334Y-75346429D01*
X169319048Y-75346429D01*
X169442858Y-75408333D01*
X169504763Y-75532143D01*
X169504763Y-76213095D01*
X171114286Y-76213095D02*
X171114286Y-74913095D01*
X171857143Y-76213095D01*
X171857143Y-74913095D01*
X172661905Y-76213095D02*
X172538096Y-76151190D01*
X172476191Y-76089286D01*
X172414286Y-75965476D01*
X172414286Y-75594048D01*
X172476191Y-75470238D01*
X172538096Y-75408333D01*
X172661905Y-75346429D01*
X172847619Y-75346429D01*
X172971429Y-75408333D01*
X173033334Y-75470238D01*
X173095238Y-75594048D01*
X173095238Y-75965476D01*
X173033334Y-76089286D01*
X172971429Y-76151190D01*
X172847619Y-76213095D01*
X172661905Y-76213095D01*
X173528571Y-75346429D02*
X173838095Y-76213095D01*
X174147619Y-75346429D02*
X173838095Y-76213095D01*
X173714286Y-76522619D01*
X173652381Y-76584524D01*
X173528571Y-76646429D01*
X175200000Y-76151190D02*
X175076190Y-76213095D01*
X174828571Y-76213095D01*
X174704762Y-76151190D01*
X174642857Y-76089286D01*
X174580952Y-75965476D01*
X174580952Y-75594048D01*
X174642857Y-75470238D01*
X174704762Y-75408333D01*
X174828571Y-75346429D01*
X175076190Y-75346429D01*
X175200000Y-75408333D01*
X176252381Y-76151190D02*
X176128571Y-76213095D01*
X175880952Y-76213095D01*
X175757143Y-76151190D01*
X175695238Y-76027381D01*
X175695238Y-75532143D01*
X175757143Y-75408333D01*
X175880952Y-75346429D01*
X176128571Y-75346429D01*
X176252381Y-75408333D01*
X176314286Y-75532143D01*
X176314286Y-75655952D01*
X175695238Y-75779762D01*
X158207144Y-78301190D02*
X158330954Y-78363095D01*
X158578573Y-78363095D01*
X158702382Y-78301190D01*
X158764287Y-78177381D01*
X158764287Y-78115476D01*
X158702382Y-77991667D01*
X158578573Y-77929762D01*
X158392858Y-77929762D01*
X158269049Y-77867857D01*
X158207144Y-77744048D01*
X158207144Y-77682143D01*
X158269049Y-77558333D01*
X158392858Y-77496429D01*
X158578573Y-77496429D01*
X158702382Y-77558333D01*
X159135716Y-77496429D02*
X159630954Y-77496429D01*
X159321430Y-77063095D02*
X159321430Y-78177381D01*
X159383335Y-78301190D01*
X159507144Y-78363095D01*
X159630954Y-78363095D01*
X160559525Y-78301190D02*
X160435715Y-78363095D01*
X160188096Y-78363095D01*
X160064287Y-78301190D01*
X160002382Y-78177381D01*
X160002382Y-77682143D01*
X160064287Y-77558333D01*
X160188096Y-77496429D01*
X160435715Y-77496429D01*
X160559525Y-77558333D01*
X160621430Y-77682143D01*
X160621430Y-77805952D01*
X160002382Y-77929762D01*
X161054763Y-77496429D02*
X161364287Y-78363095D01*
X161673811Y-77496429D01*
X162664287Y-78301190D02*
X162540477Y-78363095D01*
X162292858Y-78363095D01*
X162169049Y-78301190D01*
X162107144Y-78177381D01*
X162107144Y-77682143D01*
X162169049Y-77558333D01*
X162292858Y-77496429D01*
X162540477Y-77496429D01*
X162664287Y-77558333D01*
X162726192Y-77682143D01*
X162726192Y-77805952D01*
X162107144Y-77929762D01*
X163283335Y-77496429D02*
X163283335Y-78363095D01*
X163283335Y-77620238D02*
X163345240Y-77558333D01*
X163469049Y-77496429D01*
X163654763Y-77496429D01*
X163778573Y-77558333D01*
X163840478Y-77682143D01*
X163840478Y-78363095D01*
X164459525Y-78239286D02*
X164521430Y-78301190D01*
X164459525Y-78363095D01*
X164397620Y-78301190D01*
X164459525Y-78239286D01*
X164459525Y-78363095D01*
X165078573Y-77496429D02*
X165078573Y-78363095D01*
X165078573Y-77620238D02*
X165140478Y-77558333D01*
X165264287Y-77496429D01*
X165450001Y-77496429D01*
X165573811Y-77558333D01*
X165635716Y-77682143D01*
X165635716Y-78363095D01*
X166440477Y-78363095D02*
X166316668Y-78301190D01*
X166254763Y-78239286D01*
X166192858Y-78115476D01*
X166192858Y-77744048D01*
X166254763Y-77620238D01*
X166316668Y-77558333D01*
X166440477Y-77496429D01*
X166626191Y-77496429D01*
X166750001Y-77558333D01*
X166811906Y-77620238D01*
X166873810Y-77744048D01*
X166873810Y-78115476D01*
X166811906Y-78239286D01*
X166750001Y-78301190D01*
X166626191Y-78363095D01*
X166440477Y-78363095D01*
X167307143Y-77496429D02*
X167616667Y-78363095D01*
X167926191Y-77496429D02*
X167616667Y-78363095D01*
X167492858Y-78672619D01*
X167430953Y-78734524D01*
X167307143Y-78796429D01*
X168978572Y-78301190D02*
X168854762Y-78363095D01*
X168607143Y-78363095D01*
X168483334Y-78301190D01*
X168421429Y-78239286D01*
X168359524Y-78115476D01*
X168359524Y-77744048D01*
X168421429Y-77620238D01*
X168483334Y-77558333D01*
X168607143Y-77496429D01*
X168854762Y-77496429D01*
X168978572Y-77558333D01*
X170030953Y-78301190D02*
X169907143Y-78363095D01*
X169659524Y-78363095D01*
X169535715Y-78301190D01*
X169473810Y-78177381D01*
X169473810Y-77682143D01*
X169535715Y-77558333D01*
X169659524Y-77496429D01*
X169907143Y-77496429D01*
X170030953Y-77558333D01*
X170092858Y-77682143D01*
X170092858Y-77805952D01*
X169473810Y-77929762D01*
X171454763Y-77744048D02*
X171392858Y-77682143D01*
X171269048Y-77620238D01*
X171145239Y-77620238D01*
X171021429Y-77682143D01*
X170959525Y-77744048D01*
X170897620Y-77867857D01*
X170897620Y-77991667D01*
X170959525Y-78115476D01*
X171021429Y-78177381D01*
X171145239Y-78239286D01*
X171269048Y-78239286D01*
X171392858Y-78177381D01*
X171454763Y-78115476D01*
X171454763Y-77620238D02*
X171454763Y-78115476D01*
X171516667Y-78177381D01*
X171578572Y-78177381D01*
X171702382Y-78115476D01*
X171764287Y-77991667D01*
X171764287Y-77682143D01*
X171640477Y-77496429D01*
X171454763Y-77372619D01*
X171207144Y-77310714D01*
X170959525Y-77372619D01*
X170773810Y-77496429D01*
X170650001Y-77682143D01*
X170588096Y-77929762D01*
X170650001Y-78177381D01*
X170773810Y-78363095D01*
X170959525Y-78486905D01*
X171207144Y-78548810D01*
X171454763Y-78486905D01*
X171640477Y-78363095D01*
X172878573Y-77496429D02*
X172878573Y-78548810D01*
X172816668Y-78672619D01*
X172754763Y-78734524D01*
X172630954Y-78796429D01*
X172445239Y-78796429D01*
X172321430Y-78734524D01*
X172878573Y-78301190D02*
X172754763Y-78363095D01*
X172507144Y-78363095D01*
X172383335Y-78301190D01*
X172321430Y-78239286D01*
X172259525Y-78115476D01*
X172259525Y-77744048D01*
X172321430Y-77620238D01*
X172383335Y-77558333D01*
X172507144Y-77496429D01*
X172754763Y-77496429D01*
X172878573Y-77558333D01*
X173497620Y-78363095D02*
X173497620Y-77496429D01*
X173497620Y-77620238D02*
X173559525Y-77558333D01*
X173683334Y-77496429D01*
X173869048Y-77496429D01*
X173992858Y-77558333D01*
X174054763Y-77682143D01*
X174054763Y-78363095D01*
X174054763Y-77682143D02*
X174116667Y-77558333D01*
X174240477Y-77496429D01*
X174426191Y-77496429D01*
X174550001Y-77558333D01*
X174611906Y-77682143D01*
X174611906Y-78363095D01*
X175788096Y-78363095D02*
X175788096Y-77682143D01*
X175726191Y-77558333D01*
X175602381Y-77496429D01*
X175354762Y-77496429D01*
X175230953Y-77558333D01*
X175788096Y-78301190D02*
X175664286Y-78363095D01*
X175354762Y-78363095D01*
X175230953Y-78301190D01*
X175169048Y-78177381D01*
X175169048Y-78053571D01*
X175230953Y-77929762D01*
X175354762Y-77867857D01*
X175664286Y-77867857D01*
X175788096Y-77805952D01*
X176407143Y-78363095D02*
X176407143Y-77496429D01*
X176407143Y-77063095D02*
X176345238Y-77125000D01*
X176407143Y-77186905D01*
X176469048Y-77125000D01*
X176407143Y-77063095D01*
X176407143Y-77186905D01*
X177211905Y-78363095D02*
X177088096Y-78301190D01*
X177026191Y-78177381D01*
X177026191Y-77063095D01*
X177707143Y-78239286D02*
X177769048Y-78301190D01*
X177707143Y-78363095D01*
X177645238Y-78301190D01*
X177707143Y-78239286D01*
X177707143Y-78363095D01*
X178883334Y-78301190D02*
X178759524Y-78363095D01*
X178511905Y-78363095D01*
X178388096Y-78301190D01*
X178326191Y-78239286D01*
X178264286Y-78115476D01*
X178264286Y-77744048D01*
X178326191Y-77620238D01*
X178388096Y-77558333D01*
X178511905Y-77496429D01*
X178759524Y-77496429D01*
X178883334Y-77558333D01*
X179626191Y-78363095D02*
X179502382Y-78301190D01*
X179440477Y-78239286D01*
X179378572Y-78115476D01*
X179378572Y-77744048D01*
X179440477Y-77620238D01*
X179502382Y-77558333D01*
X179626191Y-77496429D01*
X179811905Y-77496429D01*
X179935715Y-77558333D01*
X179997620Y-77620238D01*
X180059524Y-77744048D01*
X180059524Y-78115476D01*
X179997620Y-78239286D01*
X179935715Y-78301190D01*
X179811905Y-78363095D01*
X179626191Y-78363095D01*
X180616667Y-78363095D02*
X180616667Y-77496429D01*
X180616667Y-77620238D02*
X180678572Y-77558333D01*
X180802381Y-77496429D01*
X180988095Y-77496429D01*
X181111905Y-77558333D01*
X181173810Y-77682143D01*
X181173810Y-78363095D01*
X181173810Y-77682143D02*
X181235714Y-77558333D01*
X181359524Y-77496429D01*
X181545238Y-77496429D01*
X181669048Y-77558333D01*
X181730953Y-77682143D01*
X181730953Y-78363095D01*
X160435715Y-80513095D02*
X160435715Y-79213095D01*
X160745239Y-79213095D01*
X160930953Y-79275000D01*
X161054762Y-79398810D01*
X161116667Y-79522619D01*
X161178572Y-79770238D01*
X161178572Y-79955952D01*
X161116667Y-80203571D01*
X161054762Y-80327381D01*
X160930953Y-80451190D01*
X160745239Y-80513095D01*
X160435715Y-80513095D01*
X162292858Y-79646429D02*
X162292858Y-80513095D01*
X161735715Y-79646429D02*
X161735715Y-80327381D01*
X161797620Y-80451190D01*
X161921429Y-80513095D01*
X162107143Y-80513095D01*
X162230953Y-80451190D01*
X162292858Y-80389286D01*
X162911905Y-80513095D02*
X162911905Y-79213095D01*
X163035714Y-80017857D02*
X163407143Y-80513095D01*
X163407143Y-79646429D02*
X162911905Y-80141667D01*
X164459524Y-80451190D02*
X164335714Y-80513095D01*
X164088095Y-80513095D01*
X163964286Y-80451190D01*
X163902381Y-80327381D01*
X163902381Y-79832143D01*
X163964286Y-79708333D01*
X164088095Y-79646429D01*
X164335714Y-79646429D01*
X164459524Y-79708333D01*
X164521429Y-79832143D01*
X164521429Y-79955952D01*
X163902381Y-80079762D01*
X166069048Y-79213095D02*
X166069048Y-80265476D01*
X166130953Y-80389286D01*
X166192857Y-80451190D01*
X166316667Y-80513095D01*
X166564286Y-80513095D01*
X166688095Y-80451190D01*
X166750000Y-80389286D01*
X166811905Y-80265476D01*
X166811905Y-79213095D01*
X167430953Y-79646429D02*
X167430953Y-80513095D01*
X167430953Y-79770238D02*
X167492858Y-79708333D01*
X167616667Y-79646429D01*
X167802381Y-79646429D01*
X167926191Y-79708333D01*
X167988096Y-79832143D01*
X167988096Y-80513095D01*
X168607143Y-80513095D02*
X168607143Y-79646429D01*
X168607143Y-79213095D02*
X168545238Y-79275000D01*
X168607143Y-79336905D01*
X168669048Y-79275000D01*
X168607143Y-79213095D01*
X168607143Y-79336905D01*
X169102381Y-79646429D02*
X169411905Y-80513095D01*
X169721429Y-79646429D01*
X170711905Y-80451190D02*
X170588095Y-80513095D01*
X170340476Y-80513095D01*
X170216667Y-80451190D01*
X170154762Y-80327381D01*
X170154762Y-79832143D01*
X170216667Y-79708333D01*
X170340476Y-79646429D01*
X170588095Y-79646429D01*
X170711905Y-79708333D01*
X170773810Y-79832143D01*
X170773810Y-79955952D01*
X170154762Y-80079762D01*
X171330953Y-80513095D02*
X171330953Y-79646429D01*
X171330953Y-79894048D02*
X171392858Y-79770238D01*
X171454762Y-79708333D01*
X171578572Y-79646429D01*
X171702381Y-79646429D01*
X172073810Y-80451190D02*
X172197620Y-80513095D01*
X172445239Y-80513095D01*
X172569048Y-80451190D01*
X172630953Y-80327381D01*
X172630953Y-80265476D01*
X172569048Y-80141667D01*
X172445239Y-80079762D01*
X172259524Y-80079762D01*
X172135715Y-80017857D01*
X172073810Y-79894048D01*
X172073810Y-79832143D01*
X172135715Y-79708333D01*
X172259524Y-79646429D01*
X172445239Y-79646429D01*
X172569048Y-79708333D01*
X173188096Y-80513095D02*
X173188096Y-79646429D01*
X173188096Y-79213095D02*
X173126191Y-79275000D01*
X173188096Y-79336905D01*
X173250001Y-79275000D01*
X173188096Y-79213095D01*
X173188096Y-79336905D01*
X173621430Y-79646429D02*
X174116668Y-79646429D01*
X173807144Y-79213095D02*
X173807144Y-80327381D01*
X173869049Y-80451190D01*
X173992858Y-80513095D01*
X174116668Y-80513095D01*
X174426191Y-79646429D02*
X174735715Y-80513095D01*
X175045239Y-79646429D02*
X174735715Y-80513095D01*
X174611906Y-80822619D01*
X174550001Y-80884524D01*
X174426191Y-80946429D01*
X176530953Y-79832143D02*
X176964286Y-79832143D01*
X177150000Y-80513095D02*
X176530953Y-80513095D01*
X176530953Y-79213095D01*
X177150000Y-79213095D01*
X178450000Y-80389286D02*
X178388095Y-80451190D01*
X178202381Y-80513095D01*
X178078571Y-80513095D01*
X177892857Y-80451190D01*
X177769048Y-80327381D01*
X177707143Y-80203571D01*
X177645238Y-79955952D01*
X177645238Y-79770238D01*
X177707143Y-79522619D01*
X177769048Y-79398810D01*
X177892857Y-79275000D01*
X178078571Y-79213095D01*
X178202381Y-79213095D01*
X178388095Y-79275000D01*
X178450000Y-79336905D01*
X179007143Y-79832143D02*
X179440476Y-79832143D01*
X179626190Y-80513095D02*
X179007143Y-80513095D01*
X179007143Y-79213095D01*
X179626190Y-79213095D01*
X158021431Y-82663095D02*
X158021431Y-81363095D01*
X158330955Y-81363095D01*
X158516669Y-81425000D01*
X158640478Y-81548810D01*
X158702383Y-81672619D01*
X158764288Y-81920238D01*
X158764288Y-82105952D01*
X158702383Y-82353571D01*
X158640478Y-82477381D01*
X158516669Y-82601190D01*
X158330955Y-82663095D01*
X158021431Y-82663095D01*
X159321431Y-82663095D02*
X159321431Y-81796429D01*
X159321431Y-82044048D02*
X159383336Y-81920238D01*
X159445240Y-81858333D01*
X159569050Y-81796429D01*
X159692859Y-81796429D01*
X160126193Y-82539286D02*
X160188098Y-82601190D01*
X160126193Y-82663095D01*
X160064288Y-82601190D01*
X160126193Y-82539286D01*
X160126193Y-82663095D01*
X161673812Y-82291667D02*
X162292860Y-82291667D01*
X161550003Y-82663095D02*
X161983336Y-81363095D01*
X162416669Y-82663095D01*
X163407146Y-82663095D02*
X163407146Y-81982143D01*
X163345241Y-81858333D01*
X163221431Y-81796429D01*
X162973812Y-81796429D01*
X162850003Y-81858333D01*
X163407146Y-82601190D02*
X163283336Y-82663095D01*
X162973812Y-82663095D01*
X162850003Y-82601190D01*
X162788098Y-82477381D01*
X162788098Y-82353571D01*
X162850003Y-82229762D01*
X162973812Y-82167857D01*
X163283336Y-82167857D01*
X163407146Y-82105952D01*
X164026193Y-82663095D02*
X164026193Y-81796429D01*
X164026193Y-82044048D02*
X164088098Y-81920238D01*
X164150002Y-81858333D01*
X164273812Y-81796429D01*
X164397621Y-81796429D01*
X165016669Y-82663095D02*
X164892860Y-82601190D01*
X164830955Y-82539286D01*
X164769050Y-82415476D01*
X164769050Y-82044048D01*
X164830955Y-81920238D01*
X164892860Y-81858333D01*
X165016669Y-81796429D01*
X165202383Y-81796429D01*
X165326193Y-81858333D01*
X165388098Y-81920238D01*
X165450002Y-82044048D01*
X165450002Y-82415476D01*
X165388098Y-82539286D01*
X165326193Y-82601190D01*
X165202383Y-82663095D01*
X165016669Y-82663095D01*
X166007145Y-81796429D02*
X166007145Y-82663095D01*
X166007145Y-81920238D02*
X166069050Y-81858333D01*
X166192859Y-81796429D01*
X166378573Y-81796429D01*
X166502383Y-81858333D01*
X166564288Y-81982143D01*
X166564288Y-82663095D01*
X168607144Y-81982143D02*
X168173811Y-81982143D01*
X168173811Y-82663095D02*
X168173811Y-81363095D01*
X168792858Y-81363095D01*
X169288097Y-82663095D02*
X169288097Y-81796429D01*
X169288097Y-82044048D02*
X169350002Y-81920238D01*
X169411906Y-81858333D01*
X169535716Y-81796429D01*
X169659525Y-81796429D01*
X170650002Y-82663095D02*
X170650002Y-81982143D01*
X170588097Y-81858333D01*
X170464287Y-81796429D01*
X170216668Y-81796429D01*
X170092859Y-81858333D01*
X170650002Y-82601190D02*
X170526192Y-82663095D01*
X170216668Y-82663095D01*
X170092859Y-82601190D01*
X170030954Y-82477381D01*
X170030954Y-82353571D01*
X170092859Y-82229762D01*
X170216668Y-82167857D01*
X170526192Y-82167857D01*
X170650002Y-82105952D01*
X171269049Y-81796429D02*
X171269049Y-82663095D01*
X171269049Y-81920238D02*
X171330954Y-81858333D01*
X171454763Y-81796429D01*
X171640477Y-81796429D01*
X171764287Y-81858333D01*
X171826192Y-81982143D01*
X171826192Y-82663095D01*
X172445239Y-82663095D02*
X172445239Y-81363095D01*
X172569048Y-82167857D02*
X172940477Y-82663095D01*
X172940477Y-81796429D02*
X172445239Y-82291667D01*
X173683334Y-82663095D02*
X173559525Y-82601190D01*
X173497620Y-82477381D01*
X173497620Y-81363095D01*
X174178572Y-82663095D02*
X174178572Y-81796429D01*
X174178572Y-81363095D02*
X174116667Y-81425000D01*
X174178572Y-81486905D01*
X174240477Y-81425000D01*
X174178572Y-81363095D01*
X174178572Y-81486905D01*
X174797620Y-81796429D02*
X174797620Y-82663095D01*
X174797620Y-81920238D02*
X174859525Y-81858333D01*
X174983334Y-81796429D01*
X175169048Y-81796429D01*
X175292858Y-81858333D01*
X175354763Y-81982143D01*
X175354763Y-82663095D01*
X177645238Y-81425000D02*
X177521429Y-81363095D01*
X177335714Y-81363095D01*
X177150000Y-81425000D01*
X177026191Y-81548810D01*
X176964286Y-81672619D01*
X176902381Y-81920238D01*
X176902381Y-82105952D01*
X176964286Y-82353571D01*
X177026191Y-82477381D01*
X177150000Y-82601190D01*
X177335714Y-82663095D01*
X177459524Y-82663095D01*
X177645238Y-82601190D01*
X177707143Y-82539286D01*
X177707143Y-82105952D01*
X177459524Y-82105952D01*
X178264286Y-82663095D02*
X178264286Y-81796429D01*
X178264286Y-82044048D02*
X178326191Y-81920238D01*
X178388095Y-81858333D01*
X178511905Y-81796429D01*
X178635714Y-81796429D01*
X179254762Y-82663095D02*
X179130953Y-82601190D01*
X179069048Y-82539286D01*
X179007143Y-82415476D01*
X179007143Y-82044048D01*
X179069048Y-81920238D01*
X179130953Y-81858333D01*
X179254762Y-81796429D01*
X179440476Y-81796429D01*
X179564286Y-81858333D01*
X179626191Y-81920238D01*
X179688095Y-82044048D01*
X179688095Y-82415476D01*
X179626191Y-82539286D01*
X179564286Y-82601190D01*
X179440476Y-82663095D01*
X179254762Y-82663095D01*
X180802381Y-81796429D02*
X180802381Y-82663095D01*
X180245238Y-81796429D02*
X180245238Y-82477381D01*
X180307143Y-82601190D01*
X180430952Y-82663095D01*
X180616666Y-82663095D01*
X180740476Y-82601190D01*
X180802381Y-82539286D01*
X181421428Y-81796429D02*
X181421428Y-83096429D01*
X181421428Y-81858333D02*
X181545237Y-81796429D01*
X181792856Y-81796429D01*
X181916666Y-81858333D01*
X181978571Y-81920238D01*
X182040475Y-82044048D01*
X182040475Y-82415476D01*
X181978571Y-82539286D01*
X181916666Y-82601190D01*
X181792856Y-82663095D01*
X181545237Y-82663095D01*
X181421428Y-82601190D01*
X164428573Y-84813095D02*
X163809526Y-84813095D01*
X163809526Y-83513095D01*
X165419050Y-84813095D02*
X165419050Y-84132143D01*
X165357145Y-84008333D01*
X165233335Y-83946429D01*
X164985716Y-83946429D01*
X164861907Y-84008333D01*
X165419050Y-84751190D02*
X165295240Y-84813095D01*
X164985716Y-84813095D01*
X164861907Y-84751190D01*
X164800002Y-84627381D01*
X164800002Y-84503571D01*
X164861907Y-84379762D01*
X164985716Y-84317857D01*
X165295240Y-84317857D01*
X165419050Y-84255952D01*
X165914287Y-83946429D02*
X166223811Y-84813095D01*
X166533335Y-83946429D02*
X166223811Y-84813095D01*
X166100002Y-85122619D01*
X166038097Y-85184524D01*
X165914287Y-85246429D01*
X167214287Y-84813095D02*
X167090478Y-84751190D01*
X167028573Y-84689286D01*
X166966668Y-84565476D01*
X166966668Y-84194048D01*
X167028573Y-84070238D01*
X167090478Y-84008333D01*
X167214287Y-83946429D01*
X167400001Y-83946429D01*
X167523811Y-84008333D01*
X167585716Y-84070238D01*
X167647620Y-84194048D01*
X167647620Y-84565476D01*
X167585716Y-84689286D01*
X167523811Y-84751190D01*
X167400001Y-84813095D01*
X167214287Y-84813095D01*
X168761906Y-83946429D02*
X168761906Y-84813095D01*
X168204763Y-83946429D02*
X168204763Y-84627381D01*
X168266668Y-84751190D01*
X168390477Y-84813095D01*
X168576191Y-84813095D01*
X168700001Y-84751190D01*
X168761906Y-84689286D01*
X169195239Y-83946429D02*
X169690477Y-83946429D01*
X169380953Y-83513095D02*
X169380953Y-84627381D01*
X169442858Y-84751190D01*
X169566667Y-84813095D01*
X169690477Y-84813095D01*
X171052381Y-83636905D02*
X171114286Y-83575000D01*
X171238095Y-83513095D01*
X171547619Y-83513095D01*
X171671429Y-83575000D01*
X171733333Y-83636905D01*
X171795238Y-83760714D01*
X171795238Y-83884524D01*
X171733333Y-84070238D01*
X170990476Y-84813095D01*
X171795238Y-84813095D01*
X172042857Y-84936905D02*
X173033333Y-84936905D01*
X173900000Y-83513095D02*
X173652381Y-83513095D01*
X173528571Y-83575000D01*
X173466666Y-83636905D01*
X173342857Y-83822619D01*
X173280952Y-84070238D01*
X173280952Y-84565476D01*
X173342857Y-84689286D01*
X173404762Y-84751190D01*
X173528571Y-84813095D01*
X173776190Y-84813095D01*
X173900000Y-84751190D01*
X173961904Y-84689286D01*
X174023809Y-84565476D01*
X174023809Y-84255952D01*
X173961904Y-84132143D01*
X173900000Y-84070238D01*
X173776190Y-84008333D01*
X173528571Y-84008333D01*
X173404762Y-84070238D01*
X173342857Y-84132143D01*
X173280952Y-84255952D01*
X174271428Y-84936905D02*
X175261904Y-84936905D01*
X176128571Y-83946429D02*
X176128571Y-84813095D01*
X175819047Y-83451190D02*
X175509523Y-84379762D01*
X176314285Y-84379762D01*
X159166667Y-86282143D02*
X159600000Y-86282143D01*
X159785714Y-86963095D02*
X159166667Y-86963095D01*
X159166667Y-85663095D01*
X159785714Y-85663095D01*
X160342857Y-86467857D02*
X161333333Y-86467857D01*
X161890476Y-86591667D02*
X162509524Y-86591667D01*
X161766667Y-86963095D02*
X162200000Y-85663095D01*
X162633333Y-86963095D01*
X163500000Y-86282143D02*
X163066667Y-86282143D01*
X163066667Y-86963095D02*
X163066667Y-85663095D01*
X163685714Y-85663095D01*
X164180953Y-86963095D02*
X164180953Y-85663095D01*
X164614286Y-86591667D01*
X165047619Y-85663095D01*
X165047619Y-86963095D01*
X167400000Y-86839286D02*
X167338095Y-86901190D01*
X167152381Y-86963095D01*
X167028571Y-86963095D01*
X166842857Y-86901190D01*
X166719048Y-86777381D01*
X166657143Y-86653571D01*
X166595238Y-86405952D01*
X166595238Y-86220238D01*
X166657143Y-85972619D01*
X166719048Y-85848810D01*
X166842857Y-85725000D01*
X167028571Y-85663095D01*
X167152381Y-85663095D01*
X167338095Y-85725000D01*
X167400000Y-85786905D01*
X167957143Y-86963095D02*
X167957143Y-85663095D01*
X168700000Y-86963095D01*
X168700000Y-85663095D01*
X169133334Y-85663095D02*
X169876191Y-85663095D01*
X169504762Y-86963095D02*
X169504762Y-85663095D01*
X170742857Y-86282143D02*
X170309524Y-86282143D01*
X170309524Y-86963095D02*
X170309524Y-85663095D01*
X170928571Y-85663095D01*
X171423810Y-86282143D02*
X171857143Y-86282143D01*
X172042857Y-86963095D02*
X171423810Y-86963095D01*
X171423810Y-85663095D01*
X172042857Y-85663095D01*
X172414286Y-85663095D02*
X173157143Y-85663095D01*
X172785714Y-86963095D02*
X172785714Y-85663095D01*
X174580952Y-86963095D02*
X174580952Y-85663095D01*
X175076190Y-85663095D01*
X175199999Y-85725000D01*
X175261904Y-85786905D01*
X175323809Y-85910714D01*
X175323809Y-86096429D01*
X175261904Y-86220238D01*
X175199999Y-86282143D01*
X175076190Y-86344048D01*
X174580952Y-86344048D01*
X175880952Y-86963095D02*
X175880952Y-86096429D01*
X175880952Y-86344048D02*
X175942857Y-86220238D01*
X176004761Y-86158333D01*
X176128571Y-86096429D01*
X176252380Y-86096429D01*
X176871428Y-86963095D02*
X176747619Y-86901190D01*
X176685714Y-86839286D01*
X176623809Y-86715476D01*
X176623809Y-86344048D01*
X176685714Y-86220238D01*
X176747619Y-86158333D01*
X176871428Y-86096429D01*
X177057142Y-86096429D01*
X177180952Y-86158333D01*
X177242857Y-86220238D01*
X177304761Y-86344048D01*
X177304761Y-86715476D01*
X177242857Y-86839286D01*
X177180952Y-86901190D01*
X177057142Y-86963095D01*
X176871428Y-86963095D01*
X177861904Y-86096429D02*
X177861904Y-87210714D01*
X177799999Y-87334524D01*
X177676190Y-87396429D01*
X177614285Y-87396429D01*
X177861904Y-85663095D02*
X177799999Y-85725000D01*
X177861904Y-85786905D01*
X177923809Y-85725000D01*
X177861904Y-85663095D01*
X177861904Y-85786905D01*
X178976190Y-86901190D02*
X178852380Y-86963095D01*
X178604761Y-86963095D01*
X178480952Y-86901190D01*
X178419047Y-86777381D01*
X178419047Y-86282143D01*
X178480952Y-86158333D01*
X178604761Y-86096429D01*
X178852380Y-86096429D01*
X178976190Y-86158333D01*
X179038095Y-86282143D01*
X179038095Y-86405952D01*
X178419047Y-86529762D01*
X180152381Y-86901190D02*
X180028571Y-86963095D01*
X179780952Y-86963095D01*
X179657143Y-86901190D01*
X179595238Y-86839286D01*
X179533333Y-86715476D01*
X179533333Y-86344048D01*
X179595238Y-86220238D01*
X179657143Y-86158333D01*
X179780952Y-86096429D01*
X180028571Y-86096429D01*
X180152381Y-86158333D01*
X180523810Y-86096429D02*
X181019048Y-86096429D01*
X180709524Y-85663095D02*
X180709524Y-86777381D01*
X180771429Y-86901190D01*
X180895238Y-86963095D01*
X181019048Y-86963095D01*
X233045000Y-120650000D02*
X234315000Y-120015000D01*
X236855000Y-117475000D02*
X236220000Y-116840000D01*
X236855000Y-120015000D02*
X236855000Y-117475000D01*
D12*
X236368098Y-118585937D02*
X236368098Y-119271652D01*
X236368098Y-118928794D02*
X234868098Y-118928794D01*
X235082384Y-119043080D01*
X235225241Y-119157366D01*
X235296670Y-119271652D01*
D11*
X236220000Y-116840000D02*
X234950000Y-116840000D01*
X234315000Y-117475000D02*
X234315000Y-120015000D01*
X234950000Y-116840000D02*
X234315000Y-117475000D01*
X239958571Y-122732857D02*
X240006190Y-122618571D01*
X240053810Y-122580476D01*
X240149048Y-122542381D01*
X240291905Y-122542381D01*
X240387143Y-122580476D01*
X240434762Y-122618571D01*
X240482381Y-122694762D01*
X240482381Y-122999524D01*
X239482381Y-122999524D01*
X239482381Y-122732857D01*
X239530000Y-122656667D01*
X239577619Y-122618571D01*
X239672857Y-122580476D01*
X239768095Y-122580476D01*
X239863333Y-122618571D01*
X239910952Y-122656667D01*
X239958571Y-122732857D01*
X239958571Y-122999524D01*
X240482381Y-121856667D02*
X239958571Y-121856667D01*
X239863333Y-121894762D01*
X239815714Y-121970952D01*
X239815714Y-122123333D01*
X239863333Y-122199524D01*
X240434762Y-121856667D02*
X240482381Y-121932857D01*
X240482381Y-122123333D01*
X240434762Y-122199524D01*
X240339524Y-122237619D01*
X240244286Y-122237619D01*
X240149048Y-122199524D01*
X240101429Y-122123333D01*
X240101429Y-121932857D01*
X240053810Y-121856667D01*
X240434762Y-121132857D02*
X240482381Y-121209047D01*
X240482381Y-121361428D01*
X240434762Y-121437619D01*
X240387143Y-121475714D01*
X240291905Y-121513809D01*
X240006190Y-121513809D01*
X239910952Y-121475714D01*
X239863333Y-121437619D01*
X239815714Y-121361428D01*
X239815714Y-121209047D01*
X239863333Y-121132857D01*
X240482381Y-120790000D02*
X239482381Y-120790000D01*
X240101429Y-120713809D02*
X240482381Y-120485238D01*
X239815714Y-120485238D02*
X240196667Y-120790000D01*
X239530000Y-119113809D02*
X239482381Y-119190000D01*
X239482381Y-119304285D01*
X239530000Y-119418571D01*
X239625238Y-119494762D01*
X239720476Y-119532857D01*
X239910952Y-119570952D01*
X240053810Y-119570952D01*
X240244286Y-119532857D01*
X240339524Y-119494762D01*
X240434762Y-119418571D01*
X240482381Y-119304285D01*
X240482381Y-119228095D01*
X240434762Y-119113809D01*
X240387143Y-119075714D01*
X240053810Y-119075714D01*
X240053810Y-119228095D01*
X243022381Y-122618571D02*
X243022381Y-122999524D01*
X242022381Y-122999524D01*
X243022381Y-122237619D02*
X242974762Y-122313810D01*
X242927143Y-122351905D01*
X242831905Y-122390000D01*
X242546190Y-122390000D01*
X242450952Y-122351905D01*
X242403333Y-122313810D01*
X242355714Y-122237619D01*
X242355714Y-122123333D01*
X242403333Y-122047143D01*
X242450952Y-122009048D01*
X242546190Y-121970952D01*
X242831905Y-121970952D01*
X242927143Y-122009048D01*
X242974762Y-122047143D01*
X243022381Y-122123333D01*
X243022381Y-122237619D01*
X242974762Y-121285238D02*
X243022381Y-121361428D01*
X243022381Y-121513809D01*
X242974762Y-121590000D01*
X242927143Y-121628095D01*
X242831905Y-121666190D01*
X242546190Y-121666190D01*
X242450952Y-121628095D01*
X242403333Y-121590000D01*
X242355714Y-121513809D01*
X242355714Y-121361428D01*
X242403333Y-121285238D01*
X242070000Y-119913809D02*
X242022381Y-119990000D01*
X242022381Y-120104285D01*
X242070000Y-120218571D01*
X242165238Y-120294762D01*
X242260476Y-120332857D01*
X242450952Y-120370952D01*
X242593810Y-120370952D01*
X242784286Y-120332857D01*
X242879524Y-120294762D01*
X242974762Y-120218571D01*
X243022381Y-120104285D01*
X243022381Y-120028095D01*
X242974762Y-119913809D01*
X242927143Y-119875714D01*
X242593810Y-119875714D01*
X242593810Y-120028095D01*
X242974762Y-119570952D02*
X243022381Y-119494762D01*
X243022381Y-119342381D01*
X242974762Y-119266190D01*
X242879524Y-119228095D01*
X242831905Y-119228095D01*
X242736667Y-119266190D01*
X242689048Y-119342381D01*
X242689048Y-119456666D01*
X242641429Y-119532857D01*
X242546190Y-119570952D01*
X242498571Y-119570952D01*
X242403333Y-119532857D01*
X242355714Y-119456666D01*
X242355714Y-119342381D01*
X242403333Y-119266190D01*
X241704762Y-123037619D02*
X241752381Y-122923333D01*
X241752381Y-122732857D01*
X241704762Y-122656667D01*
X241657143Y-122618571D01*
X241561905Y-122580476D01*
X241466667Y-122580476D01*
X241371429Y-122618571D01*
X241323810Y-122656667D01*
X241276190Y-122732857D01*
X241228571Y-122885238D01*
X241180952Y-122961429D01*
X241133333Y-122999524D01*
X241038095Y-123037619D01*
X240942857Y-123037619D01*
X240847619Y-122999524D01*
X240800000Y-122961429D01*
X240752381Y-122885238D01*
X240752381Y-122694762D01*
X240800000Y-122580476D01*
X241752381Y-122123333D02*
X241704762Y-122199524D01*
X241657143Y-122237619D01*
X241561905Y-122275714D01*
X241276190Y-122275714D01*
X241180952Y-122237619D01*
X241133333Y-122199524D01*
X241085714Y-122123333D01*
X241085714Y-122009047D01*
X241133333Y-121932857D01*
X241180952Y-121894762D01*
X241276190Y-121856666D01*
X241561905Y-121856666D01*
X241657143Y-121894762D01*
X241704762Y-121932857D01*
X241752381Y-122009047D01*
X241752381Y-122123333D01*
X241752381Y-121399523D02*
X241704762Y-121475714D01*
X241609524Y-121513809D01*
X240752381Y-121513809D01*
X240800000Y-120066189D02*
X240752381Y-120142380D01*
X240752381Y-120256665D01*
X240800000Y-120370951D01*
X240895238Y-120447142D01*
X240990476Y-120485237D01*
X241180952Y-120523332D01*
X241323810Y-120523332D01*
X241514286Y-120485237D01*
X241609524Y-120447142D01*
X241704762Y-120370951D01*
X241752381Y-120256665D01*
X241752381Y-120180475D01*
X241704762Y-120066189D01*
X241657143Y-120028094D01*
X241323810Y-120028094D01*
X241323810Y-120180475D01*
X237942381Y-122580476D02*
X237942381Y-123037619D01*
X237942381Y-122809048D02*
X236942381Y-122809048D01*
X237085238Y-122885238D01*
X237180476Y-122961429D01*
X237228095Y-123037619D01*
X238260000Y-122580476D02*
X238212381Y-122656667D01*
X238212381Y-122770952D01*
X238260000Y-122885238D01*
X238355238Y-122961429D01*
X238450476Y-122999524D01*
X238640952Y-123037619D01*
X238783810Y-123037619D01*
X238974286Y-122999524D01*
X239069524Y-122961429D01*
X239164762Y-122885238D01*
X239212381Y-122770952D01*
X239212381Y-122694762D01*
X239164762Y-122580476D01*
X239117143Y-122542381D01*
X238783810Y-122542381D01*
X238783810Y-122694762D01*
X239212381Y-122199524D02*
X238545714Y-122199524D01*
X238736190Y-122199524D02*
X238640952Y-122161429D01*
X238593333Y-122123333D01*
X238545714Y-122047143D01*
X238545714Y-121970952D01*
X239212381Y-121590000D02*
X239164762Y-121666191D01*
X239117143Y-121704286D01*
X239021905Y-121742381D01*
X238736190Y-121742381D01*
X238640952Y-121704286D01*
X238593333Y-121666191D01*
X238545714Y-121590000D01*
X238545714Y-121475714D01*
X238593333Y-121399524D01*
X238640952Y-121361429D01*
X238736190Y-121323333D01*
X239021905Y-121323333D01*
X239117143Y-121361429D01*
X239164762Y-121399524D01*
X239212381Y-121475714D01*
X239212381Y-121590000D01*
X238545714Y-120637619D02*
X239212381Y-120637619D01*
X238545714Y-120980476D02*
X239069524Y-120980476D01*
X239164762Y-120942381D01*
X239212381Y-120866190D01*
X239212381Y-120751904D01*
X239164762Y-120675714D01*
X239117143Y-120637619D01*
X238545714Y-120256666D02*
X239212381Y-120256666D01*
X238640952Y-120256666D02*
X238593333Y-120218571D01*
X238545714Y-120142380D01*
X238545714Y-120028094D01*
X238593333Y-119951904D01*
X238688571Y-119913809D01*
X239212381Y-119913809D01*
X239212381Y-119189999D02*
X238212381Y-119189999D01*
X239164762Y-119189999D02*
X239212381Y-119266189D01*
X239212381Y-119418570D01*
X239164762Y-119494761D01*
X239117143Y-119532856D01*
X239021905Y-119570951D01*
X238736190Y-119570951D01*
X238640952Y-119532856D01*
X238593333Y-119494761D01*
X238545714Y-119418570D01*
X238545714Y-119266189D01*
X238593333Y-119189999D01*
X238125000Y-120650000D02*
X236855000Y-120015000D01*
X239478000Y-111356434D02*
X231728000Y-111356434D01*
X231728000Y-92256434D02*
X239478000Y-92256434D01*
X231728000Y-111356434D02*
X231728000Y-92256434D01*
X239478000Y-92256434D02*
X239478000Y-111356434D01*
X167850000Y-110340434D02*
X160100000Y-110340434D01*
X167850000Y-91240434D02*
X167850000Y-110340434D01*
X160100000Y-91240434D02*
X167850000Y-91240434D01*
X160100000Y-110340434D02*
X160100000Y-91240434D01*
D14*
X212660000Y-86330000D02*
G75*
G03X212660000Y-86330000I-500000J0D01*
G01*
X185160000Y-84830000D02*
X185160000Y-89830000D01*
X185160000Y-84830000D02*
X190160000Y-84830000D01*
X185160000Y-115830000D02*
X185160000Y-110830000D01*
X185160000Y-115830000D02*
X190160000Y-115830000D01*
X216160000Y-115830000D02*
X216160000Y-110830000D01*
X216160000Y-115830000D02*
X211160000Y-115830000D01*
X216160000Y-84830000D02*
X211160000Y-84830000D01*
X216160000Y-84830000D02*
X216160000Y-90330000D01*
X162496667Y-109037381D02*
X162163333Y-108561190D01*
X161925238Y-109037381D02*
X161925238Y-108037381D01*
X162306191Y-108037381D01*
X162401429Y-108085000D01*
X162449048Y-108132619D01*
X162496667Y-108227857D01*
X162496667Y-108370714D01*
X162449048Y-108465952D01*
X162401429Y-108513571D01*
X162306191Y-108561190D01*
X161925238Y-108561190D01*
X162925238Y-108513571D02*
X163258572Y-108513571D01*
X163401429Y-109037381D02*
X162925238Y-109037381D01*
X162925238Y-108037381D01*
X163401429Y-108037381D01*
X164163334Y-108513571D02*
X163830000Y-108513571D01*
X163830000Y-109037381D02*
X163830000Y-108037381D01*
X164306191Y-108037381D01*
X164830000Y-108037381D02*
X164830000Y-108275476D01*
X164591905Y-108180238D02*
X164830000Y-108275476D01*
X165068096Y-108180238D01*
X164687143Y-108465952D02*
X164830000Y-108275476D01*
X164972858Y-108465952D01*
X165591905Y-108037381D02*
X165591905Y-108275476D01*
X165353810Y-108180238D02*
X165591905Y-108275476D01*
X165830001Y-108180238D01*
X165449048Y-108465952D02*
X165591905Y-108275476D01*
X165734763Y-108465952D01*
X162496667Y-101417381D02*
X162163333Y-100941190D01*
X161925238Y-101417381D02*
X161925238Y-100417381D01*
X162306191Y-100417381D01*
X162401429Y-100465000D01*
X162449048Y-100512619D01*
X162496667Y-100607857D01*
X162496667Y-100750714D01*
X162449048Y-100845952D01*
X162401429Y-100893571D01*
X162306191Y-100941190D01*
X161925238Y-100941190D01*
X162925238Y-100893571D02*
X163258572Y-100893571D01*
X163401429Y-101417381D02*
X162925238Y-101417381D01*
X162925238Y-100417381D01*
X163401429Y-100417381D01*
X164163334Y-100893571D02*
X163830000Y-100893571D01*
X163830000Y-101417381D02*
X163830000Y-100417381D01*
X164306191Y-100417381D01*
X164830000Y-100417381D02*
X164830000Y-100655476D01*
X164591905Y-100560238D02*
X164830000Y-100655476D01*
X165068096Y-100560238D01*
X164687143Y-100845952D02*
X164830000Y-100655476D01*
X164972858Y-100845952D01*
X165591905Y-100417381D02*
X165591905Y-100655476D01*
X165353810Y-100560238D02*
X165591905Y-100655476D01*
X165830001Y-100560238D01*
X165449048Y-100845952D02*
X165591905Y-100655476D01*
X165734763Y-100845952D01*
X162496667Y-93797381D02*
X162163333Y-93321190D01*
X161925238Y-93797381D02*
X161925238Y-92797381D01*
X162306191Y-92797381D01*
X162401429Y-92845000D01*
X162449048Y-92892619D01*
X162496667Y-92987857D01*
X162496667Y-93130714D01*
X162449048Y-93225952D01*
X162401429Y-93273571D01*
X162306191Y-93321190D01*
X161925238Y-93321190D01*
X162925238Y-93273571D02*
X163258572Y-93273571D01*
X163401429Y-93797381D02*
X162925238Y-93797381D01*
X162925238Y-92797381D01*
X163401429Y-92797381D01*
X164163334Y-93273571D02*
X163830000Y-93273571D01*
X163830000Y-93797381D02*
X163830000Y-92797381D01*
X164306191Y-92797381D01*
X164830000Y-92797381D02*
X164830000Y-93035476D01*
X164591905Y-92940238D02*
X164830000Y-93035476D01*
X165068096Y-92940238D01*
X164687143Y-93225952D02*
X164830000Y-93035476D01*
X164972858Y-93225952D01*
X165591905Y-92797381D02*
X165591905Y-93035476D01*
X165353810Y-92940238D02*
X165591905Y-93035476D01*
X165830001Y-92940238D01*
X165449048Y-93225952D02*
X165591905Y-93035476D01*
X165734763Y-93225952D01*
X234251667Y-109672381D02*
X233918333Y-109196190D01*
X233680238Y-109672381D02*
X233680238Y-108672381D01*
X234061191Y-108672381D01*
X234156429Y-108720000D01*
X234204048Y-108767619D01*
X234251667Y-108862857D01*
X234251667Y-109005714D01*
X234204048Y-109100952D01*
X234156429Y-109148571D01*
X234061191Y-109196190D01*
X233680238Y-109196190D01*
X234680238Y-109148571D02*
X235013572Y-109148571D01*
X235156429Y-109672381D02*
X234680238Y-109672381D01*
X234680238Y-108672381D01*
X235156429Y-108672381D01*
X235918334Y-109148571D02*
X235585000Y-109148571D01*
X235585000Y-109672381D02*
X235585000Y-108672381D01*
X236061191Y-108672381D01*
X236585000Y-108672381D02*
X236585000Y-108910476D01*
X236346905Y-108815238D02*
X236585000Y-108910476D01*
X236823096Y-108815238D01*
X236442143Y-109100952D02*
X236585000Y-108910476D01*
X236727858Y-109100952D01*
X237346905Y-108672381D02*
X237346905Y-108910476D01*
X237108810Y-108815238D02*
X237346905Y-108910476D01*
X237585001Y-108815238D01*
X237204048Y-109100952D02*
X237346905Y-108910476D01*
X237489763Y-109100952D01*
X234251667Y-102052381D02*
X233918333Y-101576190D01*
X233680238Y-102052381D02*
X233680238Y-101052381D01*
X234061191Y-101052381D01*
X234156429Y-101100000D01*
X234204048Y-101147619D01*
X234251667Y-101242857D01*
X234251667Y-101385714D01*
X234204048Y-101480952D01*
X234156429Y-101528571D01*
X234061191Y-101576190D01*
X233680238Y-101576190D01*
X234680238Y-101528571D02*
X235013572Y-101528571D01*
X235156429Y-102052381D02*
X234680238Y-102052381D01*
X234680238Y-101052381D01*
X235156429Y-101052381D01*
X235918334Y-101528571D02*
X235585000Y-101528571D01*
X235585000Y-102052381D02*
X235585000Y-101052381D01*
X236061191Y-101052381D01*
X236585000Y-101052381D02*
X236585000Y-101290476D01*
X236346905Y-101195238D02*
X236585000Y-101290476D01*
X236823096Y-101195238D01*
X236442143Y-101480952D02*
X236585000Y-101290476D01*
X236727858Y-101480952D01*
X237346905Y-101052381D02*
X237346905Y-101290476D01*
X237108810Y-101195238D02*
X237346905Y-101290476D01*
X237585001Y-101195238D01*
X237204048Y-101480952D02*
X237346905Y-101290476D01*
X237489763Y-101480952D01*
X200112381Y-101091905D02*
X200921905Y-101091905D01*
X201017143Y-101044286D01*
X201064762Y-100996667D01*
X201112381Y-100901429D01*
X201112381Y-100710952D01*
X201064762Y-100615714D01*
X201017143Y-100568095D01*
X200921905Y-100520476D01*
X200112381Y-100520476D01*
X200112381Y-99568095D02*
X200112381Y-100044286D01*
X200588571Y-100091905D01*
X200540952Y-100044286D01*
X200493333Y-99949048D01*
X200493333Y-99710952D01*
X200540952Y-99615714D01*
X200588571Y-99568095D01*
X200683810Y-99520476D01*
X200921905Y-99520476D01*
X201017143Y-99568095D01*
X201064762Y-99615714D01*
X201112381Y-99710952D01*
X201112381Y-99949048D01*
X201064762Y-100044286D01*
X201017143Y-100091905D01*
X223575714Y-74747381D02*
X223575714Y-73747381D01*
X223956667Y-73747381D01*
X224051905Y-73795000D01*
X224099524Y-73842619D01*
X224147143Y-73937857D01*
X224147143Y-74080714D01*
X224099524Y-74175952D01*
X224051905Y-74223571D01*
X223956667Y-74271190D01*
X223575714Y-74271190D01*
X225099524Y-74747381D02*
X224528095Y-74747381D01*
X224813809Y-74747381D02*
X224813809Y-73747381D01*
X224718571Y-73890238D01*
X224623333Y-73985476D01*
X224528095Y-74033095D01*
X225718571Y-73747381D02*
X225813810Y-73747381D01*
X225909048Y-73795000D01*
X225956667Y-73842619D01*
X226004286Y-73937857D01*
X226051905Y-74128333D01*
X226051905Y-74366429D01*
X226004286Y-74556905D01*
X225956667Y-74652143D01*
X225909048Y-74699762D01*
X225813810Y-74747381D01*
X225718571Y-74747381D01*
X225623333Y-74699762D01*
X225575714Y-74652143D01*
X225528095Y-74556905D01*
X225480476Y-74366429D01*
X225480476Y-74128333D01*
X225528095Y-73937857D01*
X225575714Y-73842619D01*
X225623333Y-73795000D01*
X225718571Y-73747381D01*
X236751905Y-74747381D02*
X236751905Y-73747381D01*
X237132858Y-73747381D01*
X237228096Y-73795000D01*
X237275715Y-73842619D01*
X237323334Y-73937857D01*
X237323334Y-74080714D01*
X237275715Y-74175952D01*
X237228096Y-74223571D01*
X237132858Y-74271190D01*
X236751905Y-74271190D01*
X237894762Y-74175952D02*
X237799524Y-74128333D01*
X237751905Y-74080714D01*
X237704286Y-73985476D01*
X237704286Y-73937857D01*
X237751905Y-73842619D01*
X237799524Y-73795000D01*
X237894762Y-73747381D01*
X238085239Y-73747381D01*
X238180477Y-73795000D01*
X238228096Y-73842619D01*
X238275715Y-73937857D01*
X238275715Y-73985476D01*
X238228096Y-74080714D01*
X238180477Y-74128333D01*
X238085239Y-74175952D01*
X237894762Y-74175952D01*
X237799524Y-74223571D01*
X237751905Y-74271190D01*
X237704286Y-74366429D01*
X237704286Y-74556905D01*
X237751905Y-74652143D01*
X237799524Y-74699762D01*
X237894762Y-74747381D01*
X238085239Y-74747381D01*
X238180477Y-74699762D01*
X238228096Y-74652143D01*
X238275715Y-74556905D01*
X238275715Y-74366429D01*
X238228096Y-74271190D01*
X238180477Y-74223571D01*
X238085239Y-74175952D01*
X211351905Y-74747381D02*
X211351905Y-73747381D01*
X211732858Y-73747381D01*
X211828096Y-73795000D01*
X211875715Y-73842619D01*
X211923334Y-73937857D01*
X211923334Y-74080714D01*
X211875715Y-74175952D01*
X211828096Y-74223571D01*
X211732858Y-74271190D01*
X211351905Y-74271190D01*
X212780477Y-73747381D02*
X212590000Y-73747381D01*
X212494762Y-73795000D01*
X212447143Y-73842619D01*
X212351905Y-73985476D01*
X212304286Y-74175952D01*
X212304286Y-74556905D01*
X212351905Y-74652143D01*
X212399524Y-74699762D01*
X212494762Y-74747381D01*
X212685239Y-74747381D01*
X212780477Y-74699762D01*
X212828096Y-74652143D01*
X212875715Y-74556905D01*
X212875715Y-74318810D01*
X212828096Y-74223571D01*
X212780477Y-74175952D01*
X212685239Y-74128333D01*
X212494762Y-74128333D01*
X212399524Y-74175952D01*
X212351905Y-74223571D01*
X212304286Y-74318810D01*
X251404381Y-130278095D02*
X250404381Y-130278095D01*
X250404381Y-129897142D01*
X250452000Y-129801904D01*
X250499619Y-129754285D01*
X250594857Y-129706666D01*
X250737714Y-129706666D01*
X250832952Y-129754285D01*
X250880571Y-129801904D01*
X250928190Y-129897142D01*
X250928190Y-130278095D01*
X251404381Y-128754285D02*
X251404381Y-129325714D01*
X251404381Y-129040000D02*
X250404381Y-129040000D01*
X250547238Y-129135238D01*
X250642476Y-129230476D01*
X250690095Y-129325714D01*
X251404381Y-139168095D02*
X250404381Y-139168095D01*
X250404381Y-138787142D01*
X250452000Y-138691904D01*
X250499619Y-138644285D01*
X250594857Y-138596666D01*
X250737714Y-138596666D01*
X250832952Y-138644285D01*
X250880571Y-138691904D01*
X250928190Y-138787142D01*
X250928190Y-139168095D01*
X250499619Y-138215714D02*
X250452000Y-138168095D01*
X250404381Y-138072857D01*
X250404381Y-137834761D01*
X250452000Y-137739523D01*
X250499619Y-137691904D01*
X250594857Y-137644285D01*
X250690095Y-137644285D01*
X250832952Y-137691904D01*
X251404381Y-138263333D01*
X251404381Y-137644285D01*
X251404381Y-148058095D02*
X250404381Y-148058095D01*
X250404381Y-147677142D01*
X250452000Y-147581904D01*
X250499619Y-147534285D01*
X250594857Y-147486666D01*
X250737714Y-147486666D01*
X250832952Y-147534285D01*
X250880571Y-147581904D01*
X250928190Y-147677142D01*
X250928190Y-148058095D01*
X250404381Y-147153333D02*
X250404381Y-146534285D01*
X250785333Y-146867619D01*
X250785333Y-146724761D01*
X250832952Y-146629523D01*
X250880571Y-146581904D01*
X250975810Y-146534285D01*
X251213905Y-146534285D01*
X251309143Y-146581904D01*
X251356762Y-146629523D01*
X251404381Y-146724761D01*
X251404381Y-147010476D01*
X251356762Y-147105714D01*
X251309143Y-147153333D01*
X251404381Y-156948095D02*
X250404381Y-156948095D01*
X250404381Y-156567142D01*
X250452000Y-156471904D01*
X250499619Y-156424285D01*
X250594857Y-156376666D01*
X250737714Y-156376666D01*
X250832952Y-156424285D01*
X250880571Y-156471904D01*
X250928190Y-156567142D01*
X250928190Y-156948095D01*
X250737714Y-155519523D02*
X251404381Y-155519523D01*
X250356762Y-155757619D02*
X251071048Y-155995714D01*
X251071048Y-155376666D01*
X251404381Y-92178095D02*
X250404381Y-92178095D01*
X250404381Y-91797142D01*
X250452000Y-91701904D01*
X250499619Y-91654285D01*
X250594857Y-91606666D01*
X250737714Y-91606666D01*
X250832952Y-91654285D01*
X250880571Y-91701904D01*
X250928190Y-91797142D01*
X250928190Y-92178095D01*
X250404381Y-90701904D02*
X250404381Y-91178095D01*
X250880571Y-91225714D01*
X250832952Y-91178095D01*
X250785333Y-91082857D01*
X250785333Y-90844761D01*
X250832952Y-90749523D01*
X250880571Y-90701904D01*
X250975810Y-90654285D01*
X251213905Y-90654285D01*
X251309143Y-90701904D01*
X251356762Y-90749523D01*
X251404381Y-90844761D01*
X251404381Y-91082857D01*
X251356762Y-91178095D01*
X251309143Y-91225714D01*
X251404381Y-79478095D02*
X250404381Y-79478095D01*
X250404381Y-79097142D01*
X250452000Y-79001904D01*
X250499619Y-78954285D01*
X250594857Y-78906666D01*
X250737714Y-78906666D01*
X250832952Y-78954285D01*
X250880571Y-79001904D01*
X250928190Y-79097142D01*
X250928190Y-79478095D01*
X250404381Y-78573333D02*
X250404381Y-77906666D01*
X251404381Y-78335238D01*
X251404381Y-85828095D02*
X250404381Y-85828095D01*
X250404381Y-85447142D01*
X250452000Y-85351904D01*
X250499619Y-85304285D01*
X250594857Y-85256666D01*
X250737714Y-85256666D01*
X250832952Y-85304285D01*
X250880571Y-85351904D01*
X250928190Y-85447142D01*
X250928190Y-85828095D01*
X251404381Y-84780476D02*
X251404381Y-84590000D01*
X251356762Y-84494761D01*
X251309143Y-84447142D01*
X251166286Y-84351904D01*
X250975810Y-84304285D01*
X250594857Y-84304285D01*
X250499619Y-84351904D01*
X250452000Y-84399523D01*
X250404381Y-84494761D01*
X250404381Y-84685238D01*
X250452000Y-84780476D01*
X250499619Y-84828095D01*
X250594857Y-84875714D01*
X250832952Y-84875714D01*
X250928190Y-84828095D01*
X250975810Y-84780476D01*
X251023429Y-84685238D01*
X251023429Y-84494761D01*
X250975810Y-84399523D01*
X250928190Y-84351904D01*
X250832952Y-84304285D01*
X243713095Y-127864381D02*
X243713095Y-128673905D01*
X243760714Y-128769143D01*
X243808333Y-128816762D01*
X243903571Y-128864381D01*
X244094048Y-128864381D01*
X244189286Y-128816762D01*
X244236905Y-128769143D01*
X244284524Y-128673905D01*
X244284524Y-127864381D01*
X245284524Y-128864381D02*
X244713095Y-128864381D01*
X244998809Y-128864381D02*
X244998809Y-127864381D01*
X244903571Y-128007238D01*
X244808333Y-128102476D01*
X244713095Y-128150095D01*
X243713095Y-136612381D02*
X243713095Y-137421905D01*
X243760714Y-137517143D01*
X243808333Y-137564762D01*
X243903571Y-137612381D01*
X244094048Y-137612381D01*
X244189286Y-137564762D01*
X244236905Y-137517143D01*
X244284524Y-137421905D01*
X244284524Y-136612381D01*
X244713095Y-136707619D02*
X244760714Y-136660000D01*
X244855952Y-136612381D01*
X245094048Y-136612381D01*
X245189286Y-136660000D01*
X245236905Y-136707619D01*
X245284524Y-136802857D01*
X245284524Y-136898095D01*
X245236905Y-137040952D01*
X244665476Y-137612381D01*
X245284524Y-137612381D01*
X243713095Y-145502381D02*
X243713095Y-146311905D01*
X243760714Y-146407143D01*
X243808333Y-146454762D01*
X243903571Y-146502381D01*
X244094048Y-146502381D01*
X244189286Y-146454762D01*
X244236905Y-146407143D01*
X244284524Y-146311905D01*
X244284524Y-145502381D01*
X244665476Y-145502381D02*
X245284524Y-145502381D01*
X244951190Y-145883333D01*
X245094048Y-145883333D01*
X245189286Y-145930952D01*
X245236905Y-145978571D01*
X245284524Y-146073810D01*
X245284524Y-146311905D01*
X245236905Y-146407143D01*
X245189286Y-146454762D01*
X245094048Y-146502381D01*
X244808333Y-146502381D01*
X244713095Y-146454762D01*
X244665476Y-146407143D01*
X243713095Y-154392381D02*
X243713095Y-155201905D01*
X243760714Y-155297143D01*
X243808333Y-155344762D01*
X243903571Y-155392381D01*
X244094048Y-155392381D01*
X244189286Y-155344762D01*
X244236905Y-155297143D01*
X244284524Y-155201905D01*
X244284524Y-154392381D01*
X245189286Y-154725714D02*
X245189286Y-155392381D01*
X244951190Y-154344762D02*
X244713095Y-155059048D01*
X245332143Y-155059048D01*
X234251667Y-94432381D02*
X233918333Y-93956190D01*
X233680238Y-94432381D02*
X233680238Y-93432381D01*
X234061191Y-93432381D01*
X234156429Y-93480000D01*
X234204048Y-93527619D01*
X234251667Y-93622857D01*
X234251667Y-93765714D01*
X234204048Y-93860952D01*
X234156429Y-93908571D01*
X234061191Y-93956190D01*
X233680238Y-93956190D01*
X234680238Y-93908571D02*
X235013572Y-93908571D01*
X235156429Y-94432381D02*
X234680238Y-94432381D01*
X234680238Y-93432381D01*
X235156429Y-93432381D01*
X235918334Y-93908571D02*
X235585000Y-93908571D01*
X235585000Y-94432381D02*
X235585000Y-93432381D01*
X236061191Y-93432381D01*
X236585000Y-93432381D02*
X236585000Y-93670476D01*
X236346905Y-93575238D02*
X236585000Y-93670476D01*
X236823096Y-93575238D01*
X236442143Y-93860952D02*
X236585000Y-93670476D01*
X236727858Y-93860952D01*
X237346905Y-93432381D02*
X237346905Y-93670476D01*
X237108810Y-93575238D02*
X237346905Y-93670476D01*
X237585001Y-93575238D01*
X237204048Y-93860952D02*
X237346905Y-93670476D01*
X237489763Y-93860952D01*
M02*
