M48
;DRILL file {KiCad 4.0.5} date Monday, February 26, 2018 'PMt' 12:56:01 PM
;FORMAT={-:-/ absolute / inch / decimal}
FMAT,2
INCH,TZ
T1C0.012
T2C0.201
%
G90
G05
M72
T1
X6.2Y-3.
X6.2Y-3.1
X6.2Y-3.2
X6.2Y-3.3
X6.2Y-3.4
X6.2Y-3.5
X6.2Y-3.6
X6.2Y-3.7
X6.2Y-3.8
X6.2Y-3.9
X6.2Y-4.
X6.2Y-4.1
X6.2Y-4.2
X6.2Y-4.3
X6.2Y-4.4
X6.2Y-4.5
X6.2Y-4.6
X6.2Y-4.7
X6.2Y-4.8
X6.2Y-4.875
X6.2Y-4.9
X6.2Y-5.225
X6.2Y-5.25
X6.2Y-5.575
X6.2Y-5.6
X6.2Y-5.925
X6.2Y-5.95
X6.2Y-6.3
X6.25Y-4.875
X6.25Y-4.9
X6.25Y-5.225
X6.25Y-5.25
X6.25Y-5.575
X6.25Y-5.6
X6.25Y-5.925
X6.25Y-5.95
X6.3Y-3.
X6.3Y-3.1
X6.3Y-3.2
X6.3Y-3.3
X6.3Y-3.4
X6.3Y-3.5
X6.3Y-4.5
X6.3Y-4.6
X6.3Y-4.875
X6.3Y-4.9
X6.3Y-5.225
X6.3Y-5.25
X6.3Y-5.575
X6.3Y-5.6
X6.3Y-5.925
X6.3Y-5.95
X6.3Y-6.3
X6.35Y-4.875
X6.35Y-4.9
X6.35Y-5.225
X6.35Y-5.25
X6.35Y-5.575
X6.35Y-5.6
X6.35Y-5.925
X6.35Y-5.95
X6.4Y-3.
X6.4Y-3.1
X6.4Y-3.2
X6.4Y-3.3
X6.4Y-3.4
X6.4Y-3.5
X6.4Y-4.5
X6.4Y-4.875
X6.4Y-4.9
X6.4Y-5.225
X6.4Y-5.25
X6.4Y-5.575
X6.4Y-5.6
X6.4Y-5.925
X6.4Y-5.95
X6.4Y-6.3
X6.45Y-4.875
X6.45Y-4.9
X6.45Y-5.225
X6.45Y-5.25
X6.45Y-5.575
X6.45Y-5.6
X6.45Y-5.925
X6.45Y-5.95
X6.5Y-3.
X6.5Y-3.1
X6.5Y-3.2
X6.5Y-3.3
X6.5Y-3.4
X6.5Y-3.5
X6.5Y-4.5
X6.5Y-4.875
X6.5Y-4.9
X6.5Y-5.225
X6.5Y-5.25
X6.5Y-5.575
X6.5Y-5.6
X6.5Y-5.925
X6.5Y-5.95
X6.5Y-6.3
X6.55Y-4.875
X6.55Y-4.9
X6.55Y-5.225
X6.55Y-5.25
X6.55Y-5.575
X6.55Y-5.6
X6.55Y-5.925
X6.55Y-5.95
X6.6Y-3.
X6.6Y-3.1
X6.6Y-3.2
X6.6Y-3.3
X6.6Y-3.4
X6.6Y-3.5
X6.6Y-4.4
X6.6Y-4.875
X6.6Y-4.9
X6.6Y-5.225
X6.6Y-5.25
X6.6Y-5.575
X6.6Y-5.6
X6.6Y-5.925
X6.6Y-5.95
X6.6Y-6.3
X6.65Y-4.875
X6.65Y-4.9
X6.65Y-5.225
X6.65Y-5.25
X6.65Y-5.575
X6.65Y-5.6
X6.65Y-5.925
X6.65Y-5.95
X6.7Y-3.
X6.7Y-3.1
X6.7Y-3.2
X6.7Y-3.3
X6.7Y-3.4
X6.7Y-3.5
X6.7Y-3.6
X6.7Y-3.7
X6.7Y-3.8
X6.7Y-3.9
X6.7Y-4.
X6.7Y-4.1
X6.7Y-4.2
X6.7Y-4.3
X6.7Y-4.875
X6.7Y-4.9
X6.7Y-5.225
X6.7Y-5.25
X6.7Y-5.575
X6.7Y-5.6
X6.7Y-5.925
X6.7Y-5.95
X6.7Y-6.3
X6.75Y-4.875
X6.75Y-4.9
X6.75Y-5.225
X6.75Y-5.25
X6.75Y-5.575
X6.75Y-5.6
X6.75Y-5.925
X6.75Y-5.95
X6.8Y-3.
X6.8Y-3.1
X6.8Y-3.2
X6.8Y-3.3
X6.8Y-3.4
X6.8Y-3.5
X6.8Y-4.875
X6.8Y-4.9
X6.8Y-5.225
X6.8Y-5.25
X6.8Y-5.575
X6.8Y-5.6
X6.8Y-5.925
X6.8Y-5.95
X6.8Y-6.3
X6.85Y-4.875
X6.85Y-4.9
X6.85Y-5.225
X6.85Y-5.25
X6.85Y-5.575
X6.85Y-5.6
X6.85Y-5.925
X6.85Y-5.95
X6.9Y-3.
X6.9Y-3.1
X6.9Y-3.2
X6.9Y-3.3
X6.9Y-3.4
X6.9Y-4.875
X6.9Y-4.9
X6.9Y-5.225
X6.9Y-5.25
X6.9Y-5.575
X6.9Y-5.6
X6.9Y-5.925
X6.9Y-5.95
X6.9Y-6.3
X6.95Y-4.875
X6.95Y-4.9
X6.95Y-5.225
X6.95Y-5.25
X6.95Y-5.575
X6.95Y-5.6
X6.95Y-5.925
X6.95Y-5.95
X7.Y-3.
X7.Y-3.1
X7.Y-3.2
X7.Y-3.3
X7.Y-4.875
X7.Y-4.9
X7.Y-5.225
X7.Y-5.25
X7.Y-5.575
X7.Y-5.6
X7.Y-5.925
X7.Y-5.95
X7.Y-6.3
X7.05Y-4.875
X7.05Y-4.9
X7.05Y-5.225
X7.05Y-5.25
X7.05Y-5.575
X7.05Y-5.6
X7.05Y-5.925
X7.05Y-5.95
X7.1Y-3.
X7.1Y-3.1
X7.1Y-3.2
X7.1Y-4.875
X7.1Y-4.9
X7.1Y-5.225
X7.1Y-5.25
X7.1Y-5.575
X7.1Y-5.6
X7.1Y-5.925
X7.1Y-5.95
X7.1Y-6.3
X7.15Y-4.875
X7.15Y-4.9
X7.15Y-5.225
X7.15Y-5.25
X7.15Y-5.575
X7.15Y-5.6
X7.15Y-5.925
X7.15Y-5.95
X7.2Y-3.
X7.2Y-3.1
X7.2Y-4.875
X7.2Y-4.9
X7.2Y-5.225
X7.2Y-5.25
X7.2Y-5.575
X7.2Y-5.6
X7.2Y-5.925
X7.2Y-5.95
X7.2Y-6.3
X7.25Y-4.875
X7.25Y-4.9
X7.25Y-5.225
X7.25Y-5.25
X7.25Y-5.575
X7.25Y-5.6
X7.25Y-5.925
X7.25Y-5.95
X7.3Y-3.
X7.3Y-3.1
X7.3Y-3.55
X7.3Y-3.6
X7.3Y-3.65
X7.3Y-3.7
X7.3Y-3.75
X7.3Y-3.8
X7.3Y-3.85
X7.3Y-3.9
X7.3Y-3.95
X7.3Y-4.
X7.3Y-4.05
X7.3Y-4.1
X7.3Y-4.15
X7.3Y-4.2
X7.3Y-4.25
X7.3Y-4.3
X7.3Y-4.875
X7.3Y-4.9
X7.3Y-5.225
X7.3Y-5.25
X7.3Y-5.575
X7.3Y-5.6
X7.3Y-5.925
X7.3Y-5.95
X7.3Y-6.3
X7.3079Y-4.35
X7.35Y-3.55
X7.35Y-3.6
X7.35Y-3.65
X7.35Y-3.7
X7.35Y-3.75
X7.35Y-3.8
X7.35Y-3.85
X7.35Y-3.9
X7.35Y-3.95
X7.35Y-4.
X7.35Y-4.05
X7.35Y-4.1
X7.35Y-4.15
X7.35Y-4.2
X7.35Y-4.25
X7.35Y-4.3
X7.35Y-4.35
X7.35Y-4.875
X7.35Y-4.9
X7.35Y-5.225
X7.35Y-5.25
X7.35Y-5.575
X7.35Y-5.6
X7.35Y-5.925
X7.35Y-5.95
X7.4Y-3.
X7.4Y-3.1
X7.4Y-4.875
X7.4Y-4.9
X7.4Y-5.225
X7.4Y-5.25
X7.4Y-5.575
X7.4Y-5.6
X7.4Y-5.925
X7.4Y-5.95
X7.4Y-6.3
X7.45Y-4.875
X7.45Y-4.9
X7.45Y-5.225
X7.45Y-5.25
X7.45Y-5.575
X7.45Y-5.6
X7.45Y-5.925
X7.45Y-5.95
X7.5Y-3.
X7.5Y-3.1
X7.5Y-3.3522
X7.5Y-3.4
X7.5Y-4.5
X7.5Y-4.55
X7.5Y-4.875
X7.5Y-4.9
X7.5Y-5.225
X7.5Y-5.25
X7.5Y-5.575
X7.5Y-5.6
X7.5Y-5.925
X7.5Y-5.95
X7.5Y-6.3
X7.55Y-3.35
X7.55Y-3.4
X7.55Y-4.5
X7.55Y-4.55
X7.55Y-4.875
X7.55Y-4.9
X7.55Y-5.225
X7.55Y-5.25
X7.55Y-5.575
X7.55Y-5.6
X7.55Y-5.925
X7.55Y-5.95
X7.6Y-3.
X7.6Y-3.1
X7.6Y-3.35
X7.6Y-3.4
X7.6Y-3.6
X7.6Y-3.7
X7.6Y-3.8
X7.6Y-3.9
X7.6Y-4.
X7.6Y-4.1
X7.6Y-4.2
X7.6Y-4.3
X7.6Y-4.5
X7.6Y-4.55
X7.6Y-4.875
X7.6Y-4.9
X7.6Y-5.225
X7.6Y-5.25
X7.6Y-5.575
X7.6Y-5.6
X7.6Y-5.925
X7.6Y-5.95
X7.6Y-6.3
X7.65Y-3.35
X7.65Y-3.4
X7.65Y-4.5
X7.65Y-4.55
X7.65Y-4.875
X7.65Y-4.9
X7.65Y-5.225
X7.65Y-5.25
X7.65Y-5.575
X7.65Y-5.6
X7.65Y-5.925
X7.65Y-5.95
X7.7Y-3.
X7.7Y-3.1
X7.7Y-3.35
X7.7Y-3.4
X7.7Y-3.6
X7.7Y-3.7
X7.7Y-3.8
X7.7Y-3.9
X7.7Y-4.
X7.7Y-4.1
X7.7Y-4.2
X7.7Y-4.3
X7.7Y-4.5
X7.7Y-4.55
X7.7Y-4.875
X7.7Y-4.9
X7.7Y-5.225
X7.7Y-5.25
X7.7Y-5.575
X7.7Y-5.6
X7.7Y-5.925
X7.7Y-5.95
X7.7Y-6.3
X7.75Y-3.35
X7.75Y-3.4
X7.75Y-4.5
X7.75Y-4.55
X7.75Y-4.875
X7.75Y-4.9
X7.75Y-5.225
X7.75Y-5.25
X7.75Y-5.575
X7.75Y-5.6
X7.75Y-5.925
X7.75Y-5.95
X7.8Y-3.
X7.8Y-3.1
X7.8Y-3.35
X7.8Y-3.4
X7.8Y-3.6
X7.8Y-3.7
X7.8Y-3.8
X7.8Y-3.9
X7.8Y-4.
X7.8Y-4.1
X7.8Y-4.2
X7.8Y-4.3
X7.8Y-4.5
X7.8Y-4.55
X7.8Y-4.875
X7.8Y-4.9
X7.8Y-5.225
X7.8Y-5.25
X7.8Y-5.575
X7.8Y-5.6
X7.8Y-5.925
X7.8Y-5.95
X7.8Y-6.3
X7.85Y-3.35
X7.85Y-3.4
X7.85Y-4.5
X7.85Y-4.55
X7.85Y-4.875
X7.85Y-4.9
X7.85Y-5.225
X7.85Y-5.25
X7.85Y-5.575
X7.85Y-5.6
X7.85Y-5.925
X7.85Y-5.95
X7.9Y-3.
X7.9Y-3.1
X7.9Y-3.2
X7.9Y-3.35
X7.9Y-3.4
X7.9Y-3.6
X7.9Y-3.7
X7.9Y-3.8
X7.9Y-3.9
X7.9Y-4.
X7.9Y-4.1
X7.9Y-4.2
X7.9Y-4.3
X7.9Y-4.5
X7.9Y-4.55
X7.9Y-4.875
X7.9Y-4.9
X7.9Y-5.225
X7.9Y-5.25
X7.9Y-5.575
X7.9Y-5.6
X7.9Y-5.925
X7.9Y-5.95
X7.9Y-6.3
X7.95Y-3.35
X7.95Y-3.4
X7.95Y-4.5
X7.95Y-4.55
X7.95Y-4.875
X7.95Y-4.9
X7.95Y-5.225
X7.95Y-5.25
X7.95Y-5.575
X7.95Y-5.6
X7.95Y-5.925
X7.95Y-5.95
X8.Y-3.
X8.Y-3.1
X8.Y-3.2
X8.Y-3.35
X8.Y-3.4
X8.Y-3.6
X8.Y-3.7
X8.Y-3.8
X8.Y-3.9
X8.Y-4.
X8.Y-4.1
X8.Y-4.2
X8.Y-4.3
X8.Y-4.5
X8.Y-4.55
X8.Y-4.875
X8.Y-4.9
X8.Y-5.225
X8.Y-5.25
X8.Y-5.575
X8.Y-5.6
X8.Y-5.925
X8.Y-5.95
X8.Y-6.3
X8.05Y-3.35
X8.05Y-3.4
X8.05Y-4.5
X8.05Y-4.55
X8.05Y-4.875
X8.05Y-4.9
X8.05Y-5.225
X8.05Y-5.25
X8.05Y-5.575
X8.05Y-5.6
X8.05Y-5.925
X8.05Y-5.95
X8.1Y-3.
X8.1Y-3.1
X8.1Y-3.35
X8.1Y-3.4
X8.1Y-3.6
X8.1Y-3.7
X8.1Y-3.8
X8.1Y-3.9
X8.1Y-4.
X8.1Y-4.1
X8.1Y-4.2
X8.1Y-4.3
X8.1Y-4.5
X8.1Y-4.55
X8.1Y-4.875
X8.1Y-4.9
X8.1Y-5.225
X8.1Y-5.25
X8.1Y-5.575
X8.1Y-5.6
X8.1Y-5.925
X8.1Y-5.95
X8.1Y-6.3
X8.15Y-3.35
X8.15Y-3.4
X8.15Y-4.5
X8.15Y-4.55
X8.15Y-4.875
X8.15Y-4.9
X8.15Y-5.225
X8.15Y-5.25
X8.15Y-5.575
X8.15Y-5.6
X8.15Y-5.925
X8.15Y-5.95
X8.2Y-3.35
X8.2Y-3.4
X8.2Y-3.6
X8.2Y-3.7
X8.2Y-3.8
X8.2Y-3.9
X8.2Y-4.
X8.2Y-4.1
X8.2Y-4.2
X8.2Y-4.3
X8.2Y-4.5
X8.2Y-4.55
X8.2Y-4.875
X8.2Y-4.9
X8.2Y-5.225
X8.2Y-5.25
X8.2Y-5.575
X8.2Y-5.6
X8.2Y-5.925
X8.2Y-5.95
X8.2Y-6.3
X8.25Y-3.35
X8.25Y-3.4
X8.25Y-4.5
X8.25Y-4.55
X8.25Y-4.875
X8.25Y-4.9
X8.25Y-5.225
X8.25Y-5.25
X8.25Y-5.575
X8.25Y-5.6
X8.25Y-5.925
X8.25Y-5.95
X8.3Y-3.3518
X8.3Y-3.4
X8.3Y-4.5
X8.3Y-4.55
X8.3Y-4.875
X8.3Y-4.9
X8.3Y-5.225
X8.3Y-5.25
X8.3Y-5.575
X8.3Y-5.6
X8.3Y-5.925
X8.3Y-5.95
X8.3Y-6.3
X8.35Y-4.875
X8.35Y-4.9
X8.35Y-5.225
X8.35Y-5.25
X8.35Y-5.575
X8.35Y-5.6
X8.35Y-5.925
X8.35Y-5.95
X8.4Y-4.875
X8.4Y-4.9
X8.4Y-5.225
X8.4Y-5.25
X8.4Y-5.575
X8.4Y-5.6
X8.4Y-5.925
X8.4Y-5.95
X8.4Y-6.3
X8.45Y-3.55
X8.45Y-3.6
X8.45Y-3.65
X8.45Y-3.7
X8.45Y-3.75
X8.45Y-3.8
X8.45Y-3.85
X8.45Y-3.9
X8.45Y-3.95
X8.45Y-4.
X8.45Y-4.05
X8.45Y-4.1
X8.45Y-4.15
X8.45Y-4.2
X8.45Y-4.25
X8.45Y-4.3
X8.45Y-4.35
X8.45Y-4.875
X8.45Y-4.9
X8.45Y-5.225
X8.45Y-5.25
X8.45Y-5.575
X8.45Y-5.6
X8.45Y-5.925
X8.45Y-5.95
X8.4992Y-4.35
X8.5Y-3.55
X8.5Y-3.6
X8.5Y-3.65
X8.5Y-3.7
X8.5Y-3.75
X8.5Y-3.8
X8.5Y-3.85
X8.5Y-3.9
X8.5Y-3.95
X8.5Y-4.
X8.5Y-4.05
X8.5Y-4.1
X8.5Y-4.15
X8.5Y-4.2
X8.5Y-4.25
X8.5Y-4.3
X8.5Y-4.875
X8.5Y-4.9
X8.5Y-5.225
X8.5Y-5.25
X8.5Y-5.575
X8.5Y-5.6
X8.5Y-5.925
X8.5Y-5.95
X8.5Y-6.3
X8.55Y-4.875
X8.55Y-4.9
X8.55Y-5.225
X8.55Y-5.25
X8.55Y-5.575
X8.55Y-5.6
X8.55Y-5.925
X8.55Y-5.95
X8.6Y-4.875
X8.6Y-4.9
X8.6Y-5.225
X8.6Y-5.25
X8.6Y-5.575
X8.6Y-5.6
X8.6Y-5.925
X8.6Y-5.95
X8.6Y-6.3
X8.65Y-4.875
X8.65Y-4.9
X8.65Y-5.225
X8.65Y-5.25
X8.65Y-5.575
X8.65Y-5.6
X8.65Y-5.925
X8.65Y-5.95
X8.7Y-4.875
X8.7Y-4.9
X8.7Y-5.225
X8.7Y-5.25
X8.7Y-5.575
X8.7Y-5.6
X8.7Y-5.925
X8.7Y-5.95
X8.7Y-6.3
X8.75Y-4.875
X8.75Y-4.9
X8.75Y-5.225
X8.75Y-5.25
X8.75Y-5.575
X8.75Y-5.6
X8.75Y-5.925
X8.75Y-5.95
X8.8Y-3.3
X8.8Y-4.875
X8.8Y-4.9
X8.8Y-5.225
X8.8Y-5.25
X8.8Y-5.575
X8.8Y-5.6
X8.8Y-5.925
X8.8Y-5.95
X8.8Y-6.3
X8.85Y-4.875
X8.85Y-4.9
X8.85Y-5.225
X8.85Y-5.25
X8.85Y-5.575
X8.85Y-5.6
X8.85Y-5.925
X8.85Y-5.95
X8.9Y-3.3
X8.9Y-3.4
X8.9Y-4.875
X8.9Y-4.9
X8.9Y-5.225
X8.9Y-5.25
X8.9Y-5.575
X8.9Y-5.6
X8.9Y-5.925
X8.9Y-5.95
X8.9Y-6.3
X8.95Y-4.875
X8.95Y-4.9
X8.95Y-5.225
X8.95Y-5.25
X8.95Y-5.575
X8.95Y-5.6
X8.95Y-5.925
X8.95Y-5.95
X9.Y-3.4
X9.Y-4.875
X9.Y-4.9
X9.Y-5.225
X9.Y-5.25
X9.Y-5.575
X9.Y-5.6
X9.Y-5.925
X9.Y-5.95
X9.Y-6.3
X9.05Y-4.875
X9.05Y-4.9
X9.05Y-5.225
X9.05Y-5.25
X9.05Y-5.575
X9.05Y-5.6
X9.05Y-5.925
X9.05Y-5.95
X9.1Y-3.4
X9.1Y-4.875
X9.1Y-4.9
X9.1Y-5.225
X9.1Y-5.25
X9.1Y-5.575
X9.1Y-5.6
X9.1Y-5.925
X9.1Y-5.95
X9.1Y-6.3
X9.15Y-4.875
X9.15Y-4.9
X9.15Y-5.225
X9.15Y-5.25
X9.15Y-5.575
X9.15Y-5.6
X9.15Y-5.925
X9.15Y-5.95
X9.2Y-3.4
X9.2Y-4.5
X9.2Y-4.875
X9.2Y-4.9
X9.2Y-5.225
X9.2Y-5.25
X9.2Y-5.575
X9.2Y-5.6
X9.2Y-5.925
X9.2Y-5.95
X9.2Y-6.3
X9.25Y-4.875
X9.25Y-4.9
X9.25Y-5.225
X9.25Y-5.25
X9.25Y-5.575
X9.25Y-5.6
X9.25Y-5.925
X9.25Y-5.95
X9.3Y-3.4
X9.3Y-4.5
X9.3Y-4.6
X9.3Y-4.875
X9.3Y-4.9
X9.3Y-5.225
X9.3Y-5.25
X9.3Y-5.575
X9.3Y-5.6
X9.3Y-5.925
X9.3Y-5.95
X9.3Y-6.3
X9.35Y-4.875
X9.35Y-4.9
X9.35Y-5.225
X9.35Y-5.25
X9.35Y-5.575
X9.35Y-5.6
X9.35Y-5.925
X9.35Y-5.95
X9.4Y-3.4
X9.4Y-4.5
X9.4Y-4.6
X9.4Y-4.875
X9.4Y-4.9
X9.4Y-5.225
X9.4Y-5.25
X9.4Y-5.575
X9.4Y-5.6
X9.4Y-5.925
X9.4Y-5.95
X9.4Y-6.3
X9.45Y-4.875
X9.45Y-4.9
X9.45Y-5.225
X9.45Y-5.25
X9.45Y-5.575
X9.45Y-5.6
X9.45Y-5.925
X9.45Y-5.95
X9.5Y-3.4
X9.5Y-3.5
X9.5Y-3.6
X9.5Y-4.5
X9.5Y-4.6
X9.5Y-4.7
X9.5Y-4.875
X9.5Y-4.9
X9.5Y-5.225
X9.5Y-5.25
X9.5Y-5.575
X9.5Y-5.6
X9.5Y-5.925
X9.5Y-5.95
X9.5Y-6.3
X9.55Y-4.875
X9.55Y-4.9
X9.55Y-5.225
X9.55Y-5.25
X9.55Y-5.575
X9.55Y-5.6
X9.55Y-5.925
X9.55Y-5.95
X9.6Y-3.7
X9.6Y-3.8
X9.6Y-3.9
X9.6Y-4.
X9.6Y-4.1
X9.6Y-4.2
X9.6Y-4.3
X9.6Y-4.4
X9.6Y-4.5
X9.6Y-4.6
X9.6Y-4.7
X9.6Y-6.3
X9.7Y-3.8
X9.7Y-3.9
X9.7Y-4.
X9.7Y-4.1
X9.7Y-4.2
X9.7Y-4.3
X9.7Y-4.4
X9.7Y-4.5
X9.7Y-4.6
X9.7Y-4.7
X9.7Y-4.8
X9.7Y-6.3
X9.79Y-4.99
X9.79Y-5.21
X9.79Y-5.34
X9.79Y-5.56
X9.79Y-5.69
X9.79Y-5.91
X9.79Y-6.04
X9.79Y-6.26
X9.8Y-3.8
X9.8Y-3.9
X9.8Y-4.
X9.8Y-4.1
X9.8Y-4.2
X9.8Y-4.3
X9.8Y-4.4
X9.8Y-4.5
X9.8Y-4.6
X9.8Y-4.7
X9.8Y-4.8
T2
X6.45Y-3.675
X6.45Y-3.975
X6.45Y-4.275
X9.275Y-3.7
X9.275Y-4.
X9.275Y-4.3
T0
M30
