G04 #@! TF.GenerationSoftware,KiCad,Pcbnew,(5.0.0-3-g5ebb6b6)*
G04 #@! TF.CreationDate,2020-03-04T16:44:46-05:00*
G04 #@! TF.ProjectId,Selection Interface,53656C656374696F6E20496E74657266,rev?*
G04 #@! TF.SameCoordinates,Original*
G04 #@! TF.FileFunction,Legend,Top*
G04 #@! TF.FilePolarity,Positive*
%FSLAX46Y46*%
G04 Gerber Fmt 4.6, Leading zero omitted, Abs format (unit mm)*
G04 Created by KiCad (PCBNEW (5.0.0-3-g5ebb6b6)) date Wednesday, March 04, 2020 at 04:44:46 PM*
%MOMM*%
%LPD*%
G01*
G04 APERTURE LIST*
%ADD10C,0.200000*%
%ADD11C,0.150000*%
%ADD12C,0.100000*%
%ADD13C,0.160000*%
%ADD14C,0.300000*%
%ADD15C,0.120000*%
G04 APERTURE END LIST*
D10*
X234426000Y-143526000D02*
X234426000Y-146828000D01*
X237982000Y-143526000D02*
X234426000Y-143526000D01*
X237982000Y-146828000D02*
X234426000Y-146828000D01*
X237982000Y-143526000D02*
X237982000Y-146828000D01*
X237982000Y-144796000D02*
X237982000Y-143526000D01*
D11*
X175775952Y-101544380D02*
X175204523Y-101544380D01*
X175490238Y-101544380D02*
X175490238Y-100544380D01*
X175395000Y-100687238D01*
X175299761Y-100782476D01*
X175204523Y-100830095D01*
X176204523Y-101544380D02*
X176204523Y-100544380D01*
X176299761Y-101163428D02*
X176585476Y-101544380D01*
X176585476Y-100877714D02*
X176204523Y-101258666D01*
X171965952Y-101544380D02*
X171394523Y-101544380D01*
X171680238Y-101544380D02*
X171680238Y-100544380D01*
X171585000Y-100687238D01*
X171489761Y-100782476D01*
X171394523Y-100830095D01*
X172394523Y-101544380D02*
X172394523Y-100544380D01*
X172489761Y-101163428D02*
X172775476Y-101544380D01*
X172775476Y-100877714D02*
X172394523Y-101258666D01*
D10*
X218805000Y-129175000D02*
X230235000Y-129175000D01*
X218805000Y-139335000D02*
X218805000Y-129175000D01*
X222615000Y-139335000D02*
X218805000Y-139335000D01*
X230235000Y-139335000D02*
X222615000Y-139335000D01*
X230235000Y-129175000D02*
X230235000Y-139335000D01*
X212725000Y-128270000D02*
X212090000Y-127635000D01*
X213995000Y-128270000D02*
X212725000Y-128270000D01*
X181610000Y-128270000D02*
X180975000Y-127635000D01*
X187325000Y-128270000D02*
X181610000Y-128270000D01*
X187960000Y-127635000D02*
X187325000Y-128270000D01*
X231140000Y-89535000D02*
X231140000Y-81915000D01*
X221615000Y-99060000D02*
X231140000Y-89535000D01*
X221615000Y-100965000D02*
X221615000Y-99060000D01*
X215265000Y-128270000D02*
X213995000Y-128270000D01*
X186690000Y-72390000D02*
X187325000Y-73025000D01*
X212725000Y-72390000D02*
X212090000Y-73025000D01*
X197485000Y-122555000D02*
X196850000Y-122555000D01*
X202565000Y-122555000D02*
X203200000Y-122555000D01*
X197485000Y-77470000D02*
X196850000Y-77470000D01*
X202565000Y-77470000D02*
X203200000Y-77470000D01*
X199390000Y-122555000D02*
X197485000Y-122555000D01*
X200660000Y-122555000D02*
X202565000Y-122555000D01*
X200025000Y-122555000D02*
X199390000Y-122555000D01*
X200025000Y-122555000D02*
X200660000Y-122555000D01*
X199390000Y-77470000D02*
X197485000Y-77470000D01*
X200660000Y-77470000D02*
X202565000Y-77470000D01*
X200025000Y-77470000D02*
X200660000Y-77470000D01*
X199390000Y-77470000D02*
X200025000Y-77470000D01*
X186055000Y-71755000D02*
X186690000Y-72390000D01*
X213360000Y-71755000D02*
X212725000Y-72390000D01*
D12*
X223700000Y-135500000D02*
G75*
G03X223700000Y-135500000I-150000J0D01*
G01*
D10*
X218853553Y-79000000D02*
G75*
G03X218853553Y-79000000I-353553J0D01*
G01*
X176853553Y-84500000D02*
G75*
G03X176853553Y-84500000I-353553J0D01*
G01*
X181853553Y-120500000D02*
G75*
G03X181853553Y-120500000I-353553J0D01*
G01*
X223853553Y-115500000D02*
G75*
G03X223853553Y-115500000I-353553J0D01*
G01*
X233603553Y-139750000D02*
G75*
G03X233603553Y-139750000I-353553J0D01*
G01*
X165735000Y-112395000D02*
X166370000Y-111760000D01*
X161925000Y-112395000D02*
X165735000Y-112395000D01*
X161290000Y-111760000D02*
X161925000Y-112395000D01*
X165735000Y-89535000D02*
X166370000Y-90170000D01*
X161925000Y-89535000D02*
X165735000Y-89535000D01*
X161290000Y-90170000D02*
X161925000Y-89535000D01*
D11*
X237809523Y-134357142D02*
X237761904Y-134404761D01*
X237619047Y-134452380D01*
X237523809Y-134452380D01*
X237380952Y-134404761D01*
X237285714Y-134309523D01*
X237238095Y-134214285D01*
X237190476Y-134023809D01*
X237190476Y-133880952D01*
X237238095Y-133690476D01*
X237285714Y-133595238D01*
X237380952Y-133500000D01*
X237523809Y-133452380D01*
X237619047Y-133452380D01*
X237761904Y-133500000D01*
X237809523Y-133547619D01*
X238238095Y-134452380D02*
X238238095Y-133452380D01*
X238619047Y-133452380D01*
X238714285Y-133500000D01*
X238761904Y-133547619D01*
X238809523Y-133642857D01*
X238809523Y-133785714D01*
X238761904Y-133880952D01*
X238714285Y-133928571D01*
X238619047Y-133976190D01*
X238238095Y-133976190D01*
X239238095Y-133452380D02*
X239238095Y-134261904D01*
X239285714Y-134357142D01*
X239333333Y-134404761D01*
X239428571Y-134452380D01*
X239619047Y-134452380D01*
X239714285Y-134404761D01*
X239761904Y-134357142D01*
X239809523Y-134261904D01*
X239809523Y-133452380D01*
X240809523Y-134452380D02*
X240238095Y-134452380D01*
X240523809Y-134452380D02*
X240523809Y-133452380D01*
X240428571Y-133595238D01*
X240333333Y-133690476D01*
X240238095Y-133738095D01*
D10*
X252603000Y-97536000D02*
X252603000Y-104267000D01*
X250952000Y-104267000D02*
X252603000Y-104267000D01*
X250952000Y-97536000D02*
X252603000Y-97536000D01*
X239903000Y-97536000D02*
X239903000Y-107061000D01*
X239903000Y-97536000D02*
X241554000Y-97536000D01*
D13*
X251792857Y-103264761D02*
X251831904Y-103303809D01*
X251870952Y-103420952D01*
X251870952Y-103499047D01*
X251831904Y-103616190D01*
X251753809Y-103694285D01*
X251675714Y-103733333D01*
X251519523Y-103772380D01*
X251402380Y-103772380D01*
X251246190Y-103733333D01*
X251168095Y-103694285D01*
X251090000Y-103616190D01*
X251050952Y-103499047D01*
X251050952Y-103420952D01*
X251090000Y-103303809D01*
X251129047Y-103264761D01*
X251870952Y-102913333D02*
X251050952Y-102913333D01*
X251050952Y-102600952D01*
X251090000Y-102522857D01*
X251129047Y-102483809D01*
X251207142Y-102444761D01*
X251324285Y-102444761D01*
X251402380Y-102483809D01*
X251441428Y-102522857D01*
X251480476Y-102600952D01*
X251480476Y-102913333D01*
X251050952Y-102093333D02*
X251714761Y-102093333D01*
X251792857Y-102054285D01*
X251831904Y-102015238D01*
X251870952Y-101937142D01*
X251870952Y-101780952D01*
X251831904Y-101702857D01*
X251792857Y-101663809D01*
X251714761Y-101624761D01*
X251050952Y-101624761D01*
X251090000Y-100180000D02*
X251050952Y-100258095D01*
X251050952Y-100375238D01*
X251090000Y-100492380D01*
X251168095Y-100570476D01*
X251246190Y-100609523D01*
X251402380Y-100648571D01*
X251519523Y-100648571D01*
X251675714Y-100609523D01*
X251753809Y-100570476D01*
X251831904Y-100492380D01*
X251870952Y-100375238D01*
X251870952Y-100297142D01*
X251831904Y-100180000D01*
X251792857Y-100140952D01*
X251519523Y-100140952D01*
X251519523Y-100297142D01*
X251870952Y-99438095D02*
X251441428Y-99438095D01*
X251363333Y-99477142D01*
X251324285Y-99555238D01*
X251324285Y-99711428D01*
X251363333Y-99789523D01*
X251831904Y-99438095D02*
X251870952Y-99516190D01*
X251870952Y-99711428D01*
X251831904Y-99789523D01*
X251753809Y-99828571D01*
X251675714Y-99828571D01*
X251597619Y-99789523D01*
X251558571Y-99711428D01*
X251558571Y-99516190D01*
X251519523Y-99438095D01*
X251324285Y-99164761D02*
X251324285Y-98852380D01*
X251050952Y-99047619D02*
X251753809Y-99047619D01*
X251831904Y-99008571D01*
X251870952Y-98930476D01*
X251870952Y-98852380D01*
X251831904Y-98266666D02*
X251870952Y-98344761D01*
X251870952Y-98500952D01*
X251831904Y-98579047D01*
X251753809Y-98618095D01*
X251441428Y-98618095D01*
X251363333Y-98579047D01*
X251324285Y-98500952D01*
X251324285Y-98344761D01*
X251363333Y-98266666D01*
X251441428Y-98227619D01*
X251519523Y-98227619D01*
X251597619Y-98618095D01*
D10*
X240284000Y-107061000D02*
X239903000Y-107061000D01*
X245872000Y-107061000D02*
X240284000Y-107061000D01*
X245872000Y-107061000D02*
X245872000Y-105791000D01*
X239395000Y-99060000D02*
X239395000Y-97155000D01*
X169545000Y-83820000D02*
X171450000Y-81915000D01*
X169545000Y-88265000D02*
X169545000Y-83820000D01*
X239395000Y-98933000D02*
X239395000Y-110490000D01*
D13*
X239913238Y-95570000D02*
X239835142Y-95530952D01*
X239718000Y-95530952D01*
X239600857Y-95570000D01*
X239522761Y-95648095D01*
X239483714Y-95726190D01*
X239444666Y-95882380D01*
X239444666Y-95999523D01*
X239483714Y-96155714D01*
X239522761Y-96233809D01*
X239600857Y-96311904D01*
X239718000Y-96350952D01*
X239796095Y-96350952D01*
X239913238Y-96311904D01*
X239952285Y-96272857D01*
X239952285Y-95999523D01*
X239796095Y-95999523D01*
X240303714Y-96350952D02*
X240303714Y-95530952D01*
X240772285Y-96350952D01*
X240772285Y-95530952D01*
X241162761Y-96350952D02*
X241162761Y-95530952D01*
X241358000Y-95530952D01*
X241475142Y-95570000D01*
X241553238Y-95648095D01*
X241592285Y-95726190D01*
X241631333Y-95882380D01*
X241631333Y-95999523D01*
X241592285Y-96155714D01*
X241553238Y-96233809D01*
X241475142Y-96311904D01*
X241358000Y-96350952D01*
X241162761Y-96350952D01*
X241711714Y-106598904D02*
X241828857Y-106637952D01*
X242024095Y-106637952D01*
X242102190Y-106598904D01*
X242141238Y-106559857D01*
X242180285Y-106481761D01*
X242180285Y-106403666D01*
X242141238Y-106325571D01*
X242102190Y-106286523D01*
X242024095Y-106247476D01*
X241867904Y-106208428D01*
X241789809Y-106169380D01*
X241750761Y-106130333D01*
X241711714Y-106052238D01*
X241711714Y-105974142D01*
X241750761Y-105896047D01*
X241789809Y-105857000D01*
X241867904Y-105817952D01*
X242063142Y-105817952D01*
X242180285Y-105857000D01*
X242648857Y-106637952D02*
X242570761Y-106598904D01*
X242531714Y-106559857D01*
X242492666Y-106481761D01*
X242492666Y-106247476D01*
X242531714Y-106169380D01*
X242570761Y-106130333D01*
X242648857Y-106091285D01*
X242766000Y-106091285D01*
X242844095Y-106130333D01*
X242883142Y-106169380D01*
X242922190Y-106247476D01*
X242922190Y-106481761D01*
X242883142Y-106559857D01*
X242844095Y-106598904D01*
X242766000Y-106637952D01*
X242648857Y-106637952D01*
X243625047Y-106598904D02*
X243546952Y-106637952D01*
X243390761Y-106637952D01*
X243312666Y-106598904D01*
X243273619Y-106559857D01*
X243234571Y-106481761D01*
X243234571Y-106247476D01*
X243273619Y-106169380D01*
X243312666Y-106130333D01*
X243390761Y-106091285D01*
X243546952Y-106091285D01*
X243625047Y-106130333D01*
X243976476Y-106637952D02*
X243976476Y-105817952D01*
X244054571Y-106325571D02*
X244288857Y-106637952D01*
X244288857Y-106091285D02*
X243976476Y-106403666D01*
X244952666Y-106598904D02*
X244874571Y-106637952D01*
X244718380Y-106637952D01*
X244640285Y-106598904D01*
X244601238Y-106520809D01*
X244601238Y-106208428D01*
X244640285Y-106130333D01*
X244718380Y-106091285D01*
X244874571Y-106091285D01*
X244952666Y-106130333D01*
X244991714Y-106208428D01*
X244991714Y-106286523D01*
X244601238Y-106364619D01*
X245226000Y-106091285D02*
X245538380Y-106091285D01*
X245343142Y-105817952D02*
X245343142Y-106520809D01*
X245382190Y-106598904D01*
X245460285Y-106637952D01*
X245538380Y-106637952D01*
X240274714Y-103836904D02*
X240391857Y-103875952D01*
X240587095Y-103875952D01*
X240665190Y-103836904D01*
X240704238Y-103797857D01*
X240743285Y-103719761D01*
X240743285Y-103641666D01*
X240704238Y-103563571D01*
X240665190Y-103524523D01*
X240587095Y-103485476D01*
X240430904Y-103446428D01*
X240352809Y-103407380D01*
X240313761Y-103368333D01*
X240274714Y-103290238D01*
X240274714Y-103212142D01*
X240313761Y-103134047D01*
X240352809Y-103095000D01*
X240430904Y-103055952D01*
X240626142Y-103055952D01*
X240743285Y-103095000D01*
X241524238Y-103095000D02*
X241446142Y-103055952D01*
X241329000Y-103055952D01*
X241211857Y-103095000D01*
X241133761Y-103173095D01*
X241094714Y-103251190D01*
X241055666Y-103407380D01*
X241055666Y-103524523D01*
X241094714Y-103680714D01*
X241133761Y-103758809D01*
X241211857Y-103836904D01*
X241329000Y-103875952D01*
X241407095Y-103875952D01*
X241524238Y-103836904D01*
X241563285Y-103797857D01*
X241563285Y-103524523D01*
X241407095Y-103524523D01*
X240762809Y-101335952D02*
X240372333Y-101335952D01*
X240372333Y-100515952D01*
X241465666Y-100555000D02*
X241387571Y-100515952D01*
X241270428Y-100515952D01*
X241153285Y-100555000D01*
X241075190Y-100633095D01*
X241036142Y-100711190D01*
X240997095Y-100867380D01*
X240997095Y-100984523D01*
X241036142Y-101140714D01*
X241075190Y-101218809D01*
X241153285Y-101296904D01*
X241270428Y-101335952D01*
X241348523Y-101335952D01*
X241465666Y-101296904D01*
X241504714Y-101257857D01*
X241504714Y-100984523D01*
X241348523Y-100984523D01*
X240567571Y-98366428D02*
X240684714Y-98405476D01*
X240723761Y-98444523D01*
X240762809Y-98522619D01*
X240762809Y-98639761D01*
X240723761Y-98717857D01*
X240684714Y-98756904D01*
X240606619Y-98795952D01*
X240294238Y-98795952D01*
X240294238Y-97975952D01*
X240567571Y-97975952D01*
X240645666Y-98015000D01*
X240684714Y-98054047D01*
X240723761Y-98132142D01*
X240723761Y-98210238D01*
X240684714Y-98288333D01*
X240645666Y-98327380D01*
X240567571Y-98366428D01*
X240294238Y-98366428D01*
X241543761Y-98015000D02*
X241465666Y-97975952D01*
X241348523Y-97975952D01*
X241231380Y-98015000D01*
X241153285Y-98093095D01*
X241114238Y-98171190D01*
X241075190Y-98327380D01*
X241075190Y-98444523D01*
X241114238Y-98600714D01*
X241153285Y-98678809D01*
X241231380Y-98756904D01*
X241348523Y-98795952D01*
X241426619Y-98795952D01*
X241543761Y-98756904D01*
X241582809Y-98717857D01*
X241582809Y-98444523D01*
X241426619Y-98444523D01*
D10*
X167640000Y-91440000D02*
X166370000Y-90170000D01*
X167640000Y-92075000D02*
X167640000Y-91440000D01*
X160020000Y-91440000D02*
X161290000Y-90170000D01*
X160020000Y-92075000D02*
X160020000Y-91440000D01*
X160020000Y-110490000D02*
X160020000Y-92075000D01*
X167640000Y-110490000D02*
X167640000Y-92075000D01*
X166370000Y-111760000D02*
X167640000Y-110490000D01*
X160020000Y-110490000D02*
X161290000Y-111760000D01*
X237490000Y-89535000D02*
X238760000Y-90805000D01*
X237490000Y-112395000D02*
X239395000Y-110490000D01*
X233680000Y-112395000D02*
X237490000Y-112395000D01*
X231775000Y-93980000D02*
X231775000Y-110490000D01*
X231775000Y-110490000D02*
X233680000Y-112395000D01*
X233680000Y-89535000D02*
X237490000Y-89535000D01*
X231775000Y-91440000D02*
X233680000Y-89535000D01*
X231775000Y-93980000D02*
X231775000Y-91440000D01*
X220345000Y-128270000D02*
X215265000Y-128270000D01*
X179705000Y-71755000D02*
X177800000Y-73660000D01*
X168910000Y-111125000D02*
X168910000Y-112395000D01*
X179070000Y-100965000D02*
X168910000Y-111125000D01*
X179070000Y-99060000D02*
X179070000Y-100965000D01*
X169545000Y-89535000D02*
X179070000Y-99060000D01*
X169545000Y-88265000D02*
X169545000Y-89535000D01*
X219075000Y-71755000D02*
X213360000Y-71755000D01*
X220980000Y-73660000D02*
X219075000Y-71755000D01*
X179705000Y-71755000D02*
X186055000Y-71755000D01*
X179070000Y-125730000D02*
X180975000Y-127635000D01*
X222885000Y-125730000D02*
X220345000Y-128270000D01*
X231140000Y-110490000D02*
X231140000Y-113030000D01*
X221615000Y-100965000D02*
X231140000Y-110490000D01*
X228600000Y-79375000D02*
X231140000Y-81915000D01*
D11*
X163948952Y-131418761D02*
X164091809Y-131466380D01*
X164329904Y-131466380D01*
X164425142Y-131418761D01*
X164472761Y-131371142D01*
X164520380Y-131275904D01*
X164520380Y-131180666D01*
X164472761Y-131085428D01*
X164425142Y-131037809D01*
X164329904Y-130990190D01*
X164139428Y-130942571D01*
X164044190Y-130894952D01*
X163996571Y-130847333D01*
X163948952Y-130752095D01*
X163948952Y-130656857D01*
X163996571Y-130561619D01*
X164044190Y-130514000D01*
X164139428Y-130466380D01*
X164377523Y-130466380D01*
X164520380Y-130514000D01*
X164853714Y-130466380D02*
X165091809Y-131466380D01*
X165282285Y-130752095D01*
X165472761Y-131466380D01*
X165710857Y-130466380D01*
X166091809Y-131466380D02*
X166091809Y-130466380D01*
X166329904Y-130466380D01*
X166472761Y-130514000D01*
X166568000Y-130609238D01*
X166615619Y-130704476D01*
X166663238Y-130894952D01*
X166663238Y-131037809D01*
X166615619Y-131228285D01*
X166568000Y-131323523D01*
X166472761Y-131418761D01*
X166329904Y-131466380D01*
X166091809Y-131466380D01*
X167091809Y-131466380D02*
X167091809Y-130466380D01*
X167758476Y-130466380D02*
X167948952Y-130466380D01*
X168044190Y-130514000D01*
X168139428Y-130609238D01*
X168187047Y-130799714D01*
X168187047Y-131133047D01*
X168139428Y-131323523D01*
X168044190Y-131418761D01*
X167948952Y-131466380D01*
X167758476Y-131466380D01*
X167663238Y-131418761D01*
X167568000Y-131323523D01*
X167520380Y-131133047D01*
X167520380Y-130799714D01*
X167568000Y-130609238D01*
X167663238Y-130514000D01*
X167758476Y-130466380D01*
X156623095Y-131418761D02*
X156765952Y-131466380D01*
X157004047Y-131466380D01*
X157099285Y-131418761D01*
X157146904Y-131371142D01*
X157194523Y-131275904D01*
X157194523Y-131180666D01*
X157146904Y-131085428D01*
X157099285Y-131037809D01*
X157004047Y-130990190D01*
X156813571Y-130942571D01*
X156718333Y-130894952D01*
X156670714Y-130847333D01*
X156623095Y-130752095D01*
X156623095Y-130656857D01*
X156670714Y-130561619D01*
X156718333Y-130514000D01*
X156813571Y-130466380D01*
X157051666Y-130466380D01*
X157194523Y-130514000D01*
X157527857Y-130466380D02*
X157765952Y-131466380D01*
X157956428Y-130752095D01*
X158146904Y-131466380D01*
X158385000Y-130466380D01*
X158765952Y-131466380D02*
X158765952Y-130466380D01*
X159004047Y-130466380D01*
X159146904Y-130514000D01*
X159242142Y-130609238D01*
X159289761Y-130704476D01*
X159337380Y-130894952D01*
X159337380Y-131037809D01*
X159289761Y-131228285D01*
X159242142Y-131323523D01*
X159146904Y-131418761D01*
X159004047Y-131466380D01*
X158765952Y-131466380D01*
X160337380Y-131371142D02*
X160289761Y-131418761D01*
X160146904Y-131466380D01*
X160051666Y-131466380D01*
X159908809Y-131418761D01*
X159813571Y-131323523D01*
X159765952Y-131228285D01*
X159718333Y-131037809D01*
X159718333Y-130894952D01*
X159765952Y-130704476D01*
X159813571Y-130609238D01*
X159908809Y-130514000D01*
X160051666Y-130466380D01*
X160146904Y-130466380D01*
X160289761Y-130514000D01*
X160337380Y-130561619D01*
X161242142Y-131466380D02*
X160765952Y-131466380D01*
X160765952Y-130466380D01*
X161575476Y-131466380D02*
X161575476Y-130466380D01*
X162146904Y-131466380D02*
X161718333Y-130894952D01*
X162146904Y-130466380D02*
X161575476Y-131037809D01*
X154962023Y-144107142D02*
X154914404Y-144154761D01*
X154771547Y-144202380D01*
X154676309Y-144202380D01*
X154533452Y-144154761D01*
X154438214Y-144059523D01*
X154390595Y-143964285D01*
X154342976Y-143773809D01*
X154342976Y-143630952D01*
X154390595Y-143440476D01*
X154438214Y-143345238D01*
X154533452Y-143250000D01*
X154676309Y-143202380D01*
X154771547Y-143202380D01*
X154914404Y-143250000D01*
X154962023Y-143297619D01*
X155390595Y-144202380D02*
X155390595Y-143202380D01*
X155771547Y-143202380D01*
X155866785Y-143250000D01*
X155914404Y-143297619D01*
X155962023Y-143392857D01*
X155962023Y-143535714D01*
X155914404Y-143630952D01*
X155866785Y-143678571D01*
X155771547Y-143726190D01*
X155390595Y-143726190D01*
X156390595Y-143202380D02*
X156390595Y-144011904D01*
X156438214Y-144107142D01*
X156485833Y-144154761D01*
X156581071Y-144202380D01*
X156771547Y-144202380D01*
X156866785Y-144154761D01*
X156914404Y-144107142D01*
X156962023Y-144011904D01*
X156962023Y-143202380D01*
X157962023Y-144202380D02*
X157390595Y-144202380D01*
X157676309Y-144202380D02*
X157676309Y-143202380D01*
X157581071Y-143345238D01*
X157485833Y-143440476D01*
X157390595Y-143488095D01*
X154400476Y-141676380D02*
X154400476Y-140676380D01*
X154733809Y-141390666D01*
X155067142Y-140676380D01*
X155067142Y-141676380D01*
X155543333Y-140676380D02*
X155543333Y-141485904D01*
X155590952Y-141581142D01*
X155638571Y-141628761D01*
X155733809Y-141676380D01*
X155924285Y-141676380D01*
X156019523Y-141628761D01*
X156067142Y-141581142D01*
X156114761Y-141485904D01*
X156114761Y-140676380D01*
X156495714Y-140676380D02*
X157162380Y-141676380D01*
X157162380Y-140676380D02*
X156495714Y-141676380D01*
X157971904Y-141009714D02*
X157971904Y-141676380D01*
X157733809Y-140628761D02*
X157495714Y-141343047D01*
X158114761Y-141343047D01*
X154400476Y-139136380D02*
X154400476Y-138136380D01*
X154733809Y-138850666D01*
X155067142Y-138136380D01*
X155067142Y-139136380D01*
X155543333Y-138136380D02*
X155543333Y-138945904D01*
X155590952Y-139041142D01*
X155638571Y-139088761D01*
X155733809Y-139136380D01*
X155924285Y-139136380D01*
X156019523Y-139088761D01*
X156067142Y-139041142D01*
X156114761Y-138945904D01*
X156114761Y-138136380D01*
X156495714Y-138136380D02*
X157162380Y-139136380D01*
X157162380Y-138136380D02*
X156495714Y-139136380D01*
X157448095Y-138136380D02*
X158067142Y-138136380D01*
X157733809Y-138517333D01*
X157876666Y-138517333D01*
X157971904Y-138564952D01*
X158019523Y-138612571D01*
X158067142Y-138707809D01*
X158067142Y-138945904D01*
X158019523Y-139041142D01*
X157971904Y-139088761D01*
X157876666Y-139136380D01*
X157590952Y-139136380D01*
X157495714Y-139088761D01*
X157448095Y-139041142D01*
X154400476Y-136596380D02*
X154400476Y-135596380D01*
X154733809Y-136310666D01*
X155067142Y-135596380D01*
X155067142Y-136596380D01*
X155543333Y-135596380D02*
X155543333Y-136405904D01*
X155590952Y-136501142D01*
X155638571Y-136548761D01*
X155733809Y-136596380D01*
X155924285Y-136596380D01*
X156019523Y-136548761D01*
X156067142Y-136501142D01*
X156114761Y-136405904D01*
X156114761Y-135596380D01*
X156495714Y-135596380D02*
X157162380Y-136596380D01*
X157162380Y-135596380D02*
X156495714Y-136596380D01*
X157495714Y-135691619D02*
X157543333Y-135644000D01*
X157638571Y-135596380D01*
X157876666Y-135596380D01*
X157971904Y-135644000D01*
X158019523Y-135691619D01*
X158067142Y-135786857D01*
X158067142Y-135882095D01*
X158019523Y-136024952D01*
X157448095Y-136596380D01*
X158067142Y-136596380D01*
X154400476Y-134056380D02*
X154400476Y-133056380D01*
X154733809Y-133770666D01*
X155067142Y-133056380D01*
X155067142Y-134056380D01*
X155543333Y-133056380D02*
X155543333Y-133865904D01*
X155590952Y-133961142D01*
X155638571Y-134008761D01*
X155733809Y-134056380D01*
X155924285Y-134056380D01*
X156019523Y-134008761D01*
X156067142Y-133961142D01*
X156114761Y-133865904D01*
X156114761Y-133056380D01*
X156495714Y-133056380D02*
X157162380Y-134056380D01*
X157162380Y-133056380D02*
X156495714Y-134056380D01*
X158067142Y-134056380D02*
X157495714Y-134056380D01*
X157781428Y-134056380D02*
X157781428Y-133056380D01*
X157686190Y-133199238D01*
X157590952Y-133294476D01*
X157495714Y-133342095D01*
D13*
X259450952Y-102515238D02*
X258630952Y-102515238D01*
X258630952Y-102320000D01*
X258670000Y-102202857D01*
X258748095Y-102124761D01*
X258826190Y-102085714D01*
X258982380Y-102046666D01*
X259099523Y-102046666D01*
X259255714Y-102085714D01*
X259333809Y-102124761D01*
X259411904Y-102202857D01*
X259450952Y-102320000D01*
X259450952Y-102515238D01*
X259450952Y-101695238D02*
X258630952Y-101695238D01*
X258630952Y-101500000D01*
X258670000Y-101382857D01*
X258748095Y-101304761D01*
X258826190Y-101265714D01*
X258982380Y-101226666D01*
X259099523Y-101226666D01*
X259255714Y-101265714D01*
X259333809Y-101304761D01*
X259411904Y-101382857D01*
X259450952Y-101500000D01*
X259450952Y-101695238D01*
X258709047Y-100914285D02*
X258670000Y-100875238D01*
X258630952Y-100797142D01*
X258630952Y-100601904D01*
X258670000Y-100523809D01*
X258709047Y-100484761D01*
X258787142Y-100445714D01*
X258865238Y-100445714D01*
X258982380Y-100484761D01*
X259450952Y-100953333D01*
X259450952Y-100445714D01*
X259450952Y-97015238D02*
X258630952Y-97015238D01*
X258630952Y-96820000D01*
X258670000Y-96702857D01*
X258748095Y-96624761D01*
X258826190Y-96585714D01*
X258982380Y-96546666D01*
X259099523Y-96546666D01*
X259255714Y-96585714D01*
X259333809Y-96624761D01*
X259411904Y-96702857D01*
X259450952Y-96820000D01*
X259450952Y-97015238D01*
X259450952Y-96195238D02*
X258630952Y-96195238D01*
X258630952Y-96000000D01*
X258670000Y-95882857D01*
X258748095Y-95804761D01*
X258826190Y-95765714D01*
X258982380Y-95726666D01*
X259099523Y-95726666D01*
X259255714Y-95765714D01*
X259333809Y-95804761D01*
X259411904Y-95882857D01*
X259450952Y-96000000D01*
X259450952Y-96195238D01*
X259450952Y-94945714D02*
X259450952Y-95414285D01*
X259450952Y-95180000D02*
X258630952Y-95180000D01*
X258748095Y-95258095D01*
X258826190Y-95336190D01*
X258865238Y-95414285D01*
D14*
X191279285Y-131397142D02*
X191493571Y-131468571D01*
X191850714Y-131468571D01*
X191993571Y-131397142D01*
X192065000Y-131325714D01*
X192136428Y-131182857D01*
X192136428Y-131040000D01*
X192065000Y-130897142D01*
X191993571Y-130825714D01*
X191850714Y-130754285D01*
X191565000Y-130682857D01*
X191422142Y-130611428D01*
X191350714Y-130540000D01*
X191279285Y-130397142D01*
X191279285Y-130254285D01*
X191350714Y-130111428D01*
X191422142Y-130040000D01*
X191565000Y-129968571D01*
X191922142Y-129968571D01*
X192136428Y-130040000D01*
X192565000Y-130468571D02*
X193136428Y-130468571D01*
X192779285Y-129968571D02*
X192779285Y-131254285D01*
X192850714Y-131397142D01*
X192993571Y-131468571D01*
X193136428Y-131468571D01*
X194207857Y-131397142D02*
X194065000Y-131468571D01*
X193779285Y-131468571D01*
X193636428Y-131397142D01*
X193565000Y-131254285D01*
X193565000Y-130682857D01*
X193636428Y-130540000D01*
X193779285Y-130468571D01*
X194065000Y-130468571D01*
X194207857Y-130540000D01*
X194279285Y-130682857D01*
X194279285Y-130825714D01*
X193565000Y-130968571D01*
X194779285Y-130468571D02*
X195136428Y-131468571D01*
X195493571Y-130468571D01*
X196636428Y-131397142D02*
X196493571Y-131468571D01*
X196207857Y-131468571D01*
X196065000Y-131397142D01*
X195993571Y-131254285D01*
X195993571Y-130682857D01*
X196065000Y-130540000D01*
X196207857Y-130468571D01*
X196493571Y-130468571D01*
X196636428Y-130540000D01*
X196707857Y-130682857D01*
X196707857Y-130825714D01*
X195993571Y-130968571D01*
X197350714Y-130468571D02*
X197350714Y-131468571D01*
X197350714Y-130611428D02*
X197422142Y-130540000D01*
X197565000Y-130468571D01*
X197779285Y-130468571D01*
X197922142Y-130540000D01*
X197993571Y-130682857D01*
X197993571Y-131468571D01*
X199850714Y-131468571D02*
X199850714Y-129968571D01*
X200707857Y-131468571D01*
X200707857Y-129968571D01*
X201636428Y-131468571D02*
X201493571Y-131397142D01*
X201422142Y-131325714D01*
X201350714Y-131182857D01*
X201350714Y-130754285D01*
X201422142Y-130611428D01*
X201493571Y-130540000D01*
X201636428Y-130468571D01*
X201850714Y-130468571D01*
X201993571Y-130540000D01*
X202065000Y-130611428D01*
X202136428Y-130754285D01*
X202136428Y-131182857D01*
X202065000Y-131325714D01*
X201993571Y-131397142D01*
X201850714Y-131468571D01*
X201636428Y-131468571D01*
X202636428Y-130468571D02*
X202993571Y-131468571D01*
X203350714Y-130468571D02*
X202993571Y-131468571D01*
X202850714Y-131825714D01*
X202779285Y-131897142D01*
X202636428Y-131968571D01*
X204565000Y-131397142D02*
X204422142Y-131468571D01*
X204136428Y-131468571D01*
X203993571Y-131397142D01*
X203922142Y-131325714D01*
X203850714Y-131182857D01*
X203850714Y-130754285D01*
X203922142Y-130611428D01*
X203993571Y-130540000D01*
X204136428Y-130468571D01*
X204422142Y-130468571D01*
X204565000Y-130540000D01*
X205779285Y-131397142D02*
X205636428Y-131468571D01*
X205350714Y-131468571D01*
X205207857Y-131397142D01*
X205136428Y-131254285D01*
X205136428Y-130682857D01*
X205207857Y-130540000D01*
X205350714Y-130468571D01*
X205636428Y-130468571D01*
X205779285Y-130540000D01*
X205850714Y-130682857D01*
X205850714Y-130825714D01*
X205136428Y-130968571D01*
X208850714Y-131468571D02*
X208779285Y-131468571D01*
X208636428Y-131397142D01*
X208422142Y-131182857D01*
X208065000Y-130754285D01*
X207922142Y-130540000D01*
X207850714Y-130325714D01*
X207850714Y-130182857D01*
X207922142Y-130040000D01*
X208065000Y-129968571D01*
X208136428Y-129968571D01*
X208279285Y-130040000D01*
X208350714Y-130182857D01*
X208350714Y-130254285D01*
X208279285Y-130397142D01*
X208207857Y-130468571D01*
X207779285Y-130754285D01*
X207707857Y-130825714D01*
X207636428Y-130968571D01*
X207636428Y-131182857D01*
X207707857Y-131325714D01*
X207779285Y-131397142D01*
X207922142Y-131468571D01*
X208136428Y-131468571D01*
X208279285Y-131397142D01*
X208350714Y-131325714D01*
X208565000Y-131040000D01*
X208636428Y-130825714D01*
X208636428Y-130682857D01*
X211065000Y-129968571D02*
X211065000Y-131040000D01*
X210993571Y-131254285D01*
X210850714Y-131397142D01*
X210636428Y-131468571D01*
X210493571Y-131468571D01*
X212493571Y-131468571D02*
X211779285Y-131468571D01*
X211779285Y-129968571D01*
X212993571Y-131468571D02*
X212993571Y-129968571D01*
X213350714Y-129968571D01*
X213565000Y-130040000D01*
X213707857Y-130182857D01*
X213779285Y-130325714D01*
X213850714Y-130611428D01*
X213850714Y-130825714D01*
X213779285Y-131111428D01*
X213707857Y-131254285D01*
X213565000Y-131397142D01*
X213350714Y-131468571D01*
X212993571Y-131468571D01*
X192993571Y-134018571D02*
X192993571Y-132518571D01*
X193565000Y-132518571D01*
X193707857Y-132590000D01*
X193779285Y-132661428D01*
X193850714Y-132804285D01*
X193850714Y-133018571D01*
X193779285Y-133161428D01*
X193707857Y-133232857D01*
X193565000Y-133304285D01*
X192993571Y-133304285D01*
X195350714Y-133875714D02*
X195279285Y-133947142D01*
X195065000Y-134018571D01*
X194922142Y-134018571D01*
X194707857Y-133947142D01*
X194565000Y-133804285D01*
X194493571Y-133661428D01*
X194422142Y-133375714D01*
X194422142Y-133161428D01*
X194493571Y-132875714D01*
X194565000Y-132732857D01*
X194707857Y-132590000D01*
X194922142Y-132518571D01*
X195065000Y-132518571D01*
X195279285Y-132590000D01*
X195350714Y-132661428D01*
X196493571Y-133232857D02*
X196707857Y-133304285D01*
X196779285Y-133375714D01*
X196850714Y-133518571D01*
X196850714Y-133732857D01*
X196779285Y-133875714D01*
X196707857Y-133947142D01*
X196565000Y-134018571D01*
X195993571Y-134018571D01*
X195993571Y-132518571D01*
X196493571Y-132518571D01*
X196636428Y-132590000D01*
X196707857Y-132661428D01*
X196779285Y-132804285D01*
X196779285Y-132947142D01*
X196707857Y-133090000D01*
X196636428Y-133161428D01*
X196493571Y-133232857D01*
X195993571Y-133232857D01*
X199350714Y-134018571D02*
X198636428Y-134018571D01*
X198636428Y-132518571D01*
X200493571Y-134018571D02*
X200493571Y-133232857D01*
X200422142Y-133090000D01*
X200279285Y-133018571D01*
X199993571Y-133018571D01*
X199850714Y-133090000D01*
X200493571Y-133947142D02*
X200350714Y-134018571D01*
X199993571Y-134018571D01*
X199850714Y-133947142D01*
X199779285Y-133804285D01*
X199779285Y-133661428D01*
X199850714Y-133518571D01*
X199993571Y-133447142D01*
X200350714Y-133447142D01*
X200493571Y-133375714D01*
X201065000Y-133018571D02*
X201422142Y-134018571D01*
X201779285Y-133018571D02*
X201422142Y-134018571D01*
X201279285Y-134375714D01*
X201207857Y-134447142D01*
X201065000Y-134518571D01*
X202565000Y-134018571D02*
X202422142Y-133947142D01*
X202350714Y-133875714D01*
X202279285Y-133732857D01*
X202279285Y-133304285D01*
X202350714Y-133161428D01*
X202422142Y-133090000D01*
X202565000Y-133018571D01*
X202779285Y-133018571D01*
X202922142Y-133090000D01*
X202993571Y-133161428D01*
X203065000Y-133304285D01*
X203065000Y-133732857D01*
X202993571Y-133875714D01*
X202922142Y-133947142D01*
X202779285Y-134018571D01*
X202565000Y-134018571D01*
X204350714Y-133018571D02*
X204350714Y-134018571D01*
X203707857Y-133018571D02*
X203707857Y-133804285D01*
X203779285Y-133947142D01*
X203922142Y-134018571D01*
X204136428Y-134018571D01*
X204279285Y-133947142D01*
X204350714Y-133875714D01*
X204850714Y-133018571D02*
X205422142Y-133018571D01*
X205065000Y-132518571D02*
X205065000Y-133804285D01*
X205136428Y-133947142D01*
X205279285Y-134018571D01*
X205422142Y-134018571D01*
X207922142Y-134018571D02*
X207422142Y-133304285D01*
X207065000Y-134018571D02*
X207065000Y-132518571D01*
X207636428Y-132518571D01*
X207779285Y-132590000D01*
X207850714Y-132661428D01*
X207922142Y-132804285D01*
X207922142Y-133018571D01*
X207850714Y-133161428D01*
X207779285Y-133232857D01*
X207636428Y-133304285D01*
X207065000Y-133304285D01*
X208565000Y-133232857D02*
X209065000Y-133232857D01*
X209279285Y-134018571D02*
X208565000Y-134018571D01*
X208565000Y-132518571D01*
X209279285Y-132518571D01*
X209922142Y-134018571D02*
X209922142Y-132518571D01*
X210279285Y-132518571D01*
X210493571Y-132590000D01*
X210636428Y-132732857D01*
X210707857Y-132875714D01*
X210779285Y-133161428D01*
X210779285Y-133375714D01*
X210707857Y-133661428D01*
X210636428Y-133804285D01*
X210493571Y-133947142D01*
X210279285Y-134018571D01*
X209922142Y-134018571D01*
X211279285Y-132518571D02*
X212207857Y-132518571D01*
X211707857Y-133090000D01*
X211922142Y-133090000D01*
X212065000Y-133161428D01*
X212136428Y-133232857D01*
X212207857Y-133375714D01*
X212207857Y-133732857D01*
X212136428Y-133875714D01*
X212065000Y-133947142D01*
X211922142Y-134018571D01*
X211493571Y-134018571D01*
X211350714Y-133947142D01*
X211279285Y-133875714D01*
X192100714Y-136140000D02*
X192815000Y-136140000D01*
X191957857Y-136568571D02*
X192457857Y-135068571D01*
X192957857Y-136568571D01*
X194100714Y-136568571D02*
X194100714Y-135782857D01*
X194029285Y-135640000D01*
X193886428Y-135568571D01*
X193600714Y-135568571D01*
X193457857Y-135640000D01*
X194100714Y-136497142D02*
X193957857Y-136568571D01*
X193600714Y-136568571D01*
X193457857Y-136497142D01*
X193386428Y-136354285D01*
X193386428Y-136211428D01*
X193457857Y-136068571D01*
X193600714Y-135997142D01*
X193957857Y-135997142D01*
X194100714Y-135925714D01*
X194815000Y-136568571D02*
X194815000Y-135568571D01*
X194815000Y-135854285D02*
X194886428Y-135711428D01*
X194957857Y-135640000D01*
X195100714Y-135568571D01*
X195243571Y-135568571D01*
X195957857Y-136568571D02*
X195815000Y-136497142D01*
X195743571Y-136425714D01*
X195672142Y-136282857D01*
X195672142Y-135854285D01*
X195743571Y-135711428D01*
X195815000Y-135640000D01*
X195957857Y-135568571D01*
X196172142Y-135568571D01*
X196315000Y-135640000D01*
X196386428Y-135711428D01*
X196457857Y-135854285D01*
X196457857Y-136282857D01*
X196386428Y-136425714D01*
X196315000Y-136497142D01*
X196172142Y-136568571D01*
X195957857Y-136568571D01*
X197100714Y-135568571D02*
X197100714Y-136568571D01*
X197100714Y-135711428D02*
X197172142Y-135640000D01*
X197315000Y-135568571D01*
X197529285Y-135568571D01*
X197672142Y-135640000D01*
X197743571Y-135782857D01*
X197743571Y-136568571D01*
X200100714Y-135782857D02*
X199600714Y-135782857D01*
X199600714Y-136568571D02*
X199600714Y-135068571D01*
X200315000Y-135068571D01*
X200886428Y-136568571D02*
X200886428Y-135568571D01*
X200886428Y-135854285D02*
X200957857Y-135711428D01*
X201029285Y-135640000D01*
X201172142Y-135568571D01*
X201315000Y-135568571D01*
X202457857Y-136568571D02*
X202457857Y-135782857D01*
X202386428Y-135640000D01*
X202243571Y-135568571D01*
X201957857Y-135568571D01*
X201815000Y-135640000D01*
X202457857Y-136497142D02*
X202315000Y-136568571D01*
X201957857Y-136568571D01*
X201815000Y-136497142D01*
X201743571Y-136354285D01*
X201743571Y-136211428D01*
X201815000Y-136068571D01*
X201957857Y-135997142D01*
X202315000Y-135997142D01*
X202457857Y-135925714D01*
X203172142Y-135568571D02*
X203172142Y-136568571D01*
X203172142Y-135711428D02*
X203243571Y-135640000D01*
X203386428Y-135568571D01*
X203600714Y-135568571D01*
X203743571Y-135640000D01*
X203815000Y-135782857D01*
X203815000Y-136568571D01*
X204529285Y-136568571D02*
X204529285Y-135068571D01*
X204672142Y-135997142D02*
X205100714Y-136568571D01*
X205100714Y-135568571D02*
X204529285Y-136140000D01*
X205957857Y-136568571D02*
X205815000Y-136497142D01*
X205743571Y-136354285D01*
X205743571Y-135068571D01*
X206529285Y-136568571D02*
X206529285Y-135568571D01*
X206529285Y-135068571D02*
X206457857Y-135140000D01*
X206529285Y-135211428D01*
X206600714Y-135140000D01*
X206529285Y-135068571D01*
X206529285Y-135211428D01*
X207243571Y-135568571D02*
X207243571Y-136568571D01*
X207243571Y-135711428D02*
X207315000Y-135640000D01*
X207457857Y-135568571D01*
X207672142Y-135568571D01*
X207815000Y-135640000D01*
X207886428Y-135782857D01*
X207886428Y-136568571D01*
X210457857Y-136568571D02*
X209743571Y-136568571D01*
X209743571Y-135068571D01*
X211600714Y-136568571D02*
X211600714Y-135782857D01*
X211529285Y-135640000D01*
X211386428Y-135568571D01*
X211100714Y-135568571D01*
X210957857Y-135640000D01*
X211600714Y-136497142D02*
X211457857Y-136568571D01*
X211100714Y-136568571D01*
X210957857Y-136497142D01*
X210886428Y-136354285D01*
X210886428Y-136211428D01*
X210957857Y-136068571D01*
X211100714Y-135997142D01*
X211457857Y-135997142D01*
X211600714Y-135925714D01*
X212315000Y-136568571D02*
X212315000Y-135068571D01*
X212315000Y-135640000D02*
X212457857Y-135568571D01*
X212743571Y-135568571D01*
X212886428Y-135640000D01*
X212957857Y-135711428D01*
X213029285Y-135854285D01*
X213029285Y-136282857D01*
X212957857Y-136425714D01*
X212886428Y-136497142D01*
X212743571Y-136568571D01*
X212457857Y-136568571D01*
X212315000Y-136497142D01*
X194207857Y-139118571D02*
X194207857Y-137618571D01*
X194565000Y-137618571D01*
X194779285Y-137690000D01*
X194922142Y-137832857D01*
X194993571Y-137975714D01*
X195065000Y-138261428D01*
X195065000Y-138475714D01*
X194993571Y-138761428D01*
X194922142Y-138904285D01*
X194779285Y-139047142D01*
X194565000Y-139118571D01*
X194207857Y-139118571D01*
X196350714Y-138118571D02*
X196350714Y-139118571D01*
X195707857Y-138118571D02*
X195707857Y-138904285D01*
X195779285Y-139047142D01*
X195922142Y-139118571D01*
X196136428Y-139118571D01*
X196279285Y-139047142D01*
X196350714Y-138975714D01*
X197065000Y-139118571D02*
X197065000Y-137618571D01*
X197207857Y-138547142D02*
X197636428Y-139118571D01*
X197636428Y-138118571D02*
X197065000Y-138690000D01*
X198850714Y-139047142D02*
X198707857Y-139118571D01*
X198422142Y-139118571D01*
X198279285Y-139047142D01*
X198207857Y-138904285D01*
X198207857Y-138332857D01*
X198279285Y-138190000D01*
X198422142Y-138118571D01*
X198707857Y-138118571D01*
X198850714Y-138190000D01*
X198922142Y-138332857D01*
X198922142Y-138475714D01*
X198207857Y-138618571D01*
X200707857Y-137618571D02*
X200707857Y-138832857D01*
X200779285Y-138975714D01*
X200850714Y-139047142D01*
X200993571Y-139118571D01*
X201279285Y-139118571D01*
X201422142Y-139047142D01*
X201493571Y-138975714D01*
X201565000Y-138832857D01*
X201565000Y-137618571D01*
X202279285Y-138118571D02*
X202279285Y-139118571D01*
X202279285Y-138261428D02*
X202350714Y-138190000D01*
X202493571Y-138118571D01*
X202707857Y-138118571D01*
X202850714Y-138190000D01*
X202922142Y-138332857D01*
X202922142Y-139118571D01*
X203636428Y-139118571D02*
X203636428Y-138118571D01*
X203636428Y-137618571D02*
X203565000Y-137690000D01*
X203636428Y-137761428D01*
X203707857Y-137690000D01*
X203636428Y-137618571D01*
X203636428Y-137761428D01*
X204207857Y-138118571D02*
X204565000Y-139118571D01*
X204922142Y-138118571D01*
X206065000Y-139047142D02*
X205922142Y-139118571D01*
X205636428Y-139118571D01*
X205493571Y-139047142D01*
X205422142Y-138904285D01*
X205422142Y-138332857D01*
X205493571Y-138190000D01*
X205636428Y-138118571D01*
X205922142Y-138118571D01*
X206065000Y-138190000D01*
X206136428Y-138332857D01*
X206136428Y-138475714D01*
X205422142Y-138618571D01*
X206779285Y-139118571D02*
X206779285Y-138118571D01*
X206779285Y-138404285D02*
X206850714Y-138261428D01*
X206922142Y-138190000D01*
X207065000Y-138118571D01*
X207207857Y-138118571D01*
X207636428Y-139047142D02*
X207779285Y-139118571D01*
X208065000Y-139118571D01*
X208207857Y-139047142D01*
X208279285Y-138904285D01*
X208279285Y-138832857D01*
X208207857Y-138690000D01*
X208065000Y-138618571D01*
X207850714Y-138618571D01*
X207707857Y-138547142D01*
X207636428Y-138404285D01*
X207636428Y-138332857D01*
X207707857Y-138190000D01*
X207850714Y-138118571D01*
X208065000Y-138118571D01*
X208207857Y-138190000D01*
X208922142Y-139118571D02*
X208922142Y-138118571D01*
X208922142Y-137618571D02*
X208850714Y-137690000D01*
X208922142Y-137761428D01*
X208993571Y-137690000D01*
X208922142Y-137618571D01*
X208922142Y-137761428D01*
X209422142Y-138118571D02*
X209993571Y-138118571D01*
X209636428Y-137618571D02*
X209636428Y-138904285D01*
X209707857Y-139047142D01*
X209850714Y-139118571D01*
X209993571Y-139118571D01*
X210350714Y-138118571D02*
X210707857Y-139118571D01*
X211065000Y-138118571D02*
X210707857Y-139118571D01*
X210565000Y-139475714D01*
X210493571Y-139547142D01*
X210350714Y-139618571D01*
X188957857Y-141597142D02*
X189100714Y-141668571D01*
X189386428Y-141668571D01*
X189529285Y-141597142D01*
X189600714Y-141454285D01*
X189600714Y-141382857D01*
X189529285Y-141240000D01*
X189386428Y-141168571D01*
X189172142Y-141168571D01*
X189029285Y-141097142D01*
X188957857Y-140954285D01*
X188957857Y-140882857D01*
X189029285Y-140740000D01*
X189172142Y-140668571D01*
X189386428Y-140668571D01*
X189529285Y-140740000D01*
X190029285Y-140668571D02*
X190600714Y-140668571D01*
X190243571Y-140168571D02*
X190243571Y-141454285D01*
X190315000Y-141597142D01*
X190457857Y-141668571D01*
X190600714Y-141668571D01*
X191672142Y-141597142D02*
X191529285Y-141668571D01*
X191243571Y-141668571D01*
X191100714Y-141597142D01*
X191029285Y-141454285D01*
X191029285Y-140882857D01*
X191100714Y-140740000D01*
X191243571Y-140668571D01*
X191529285Y-140668571D01*
X191672142Y-140740000D01*
X191743571Y-140882857D01*
X191743571Y-141025714D01*
X191029285Y-141168571D01*
X192243571Y-140668571D02*
X192600714Y-141668571D01*
X192957857Y-140668571D01*
X194100714Y-141597142D02*
X193957857Y-141668571D01*
X193672142Y-141668571D01*
X193529285Y-141597142D01*
X193457857Y-141454285D01*
X193457857Y-140882857D01*
X193529285Y-140740000D01*
X193672142Y-140668571D01*
X193957857Y-140668571D01*
X194100714Y-140740000D01*
X194172142Y-140882857D01*
X194172142Y-141025714D01*
X193457857Y-141168571D01*
X194815000Y-140668571D02*
X194815000Y-141668571D01*
X194815000Y-140811428D02*
X194886428Y-140740000D01*
X195029285Y-140668571D01*
X195243571Y-140668571D01*
X195386428Y-140740000D01*
X195457857Y-140882857D01*
X195457857Y-141668571D01*
X196172142Y-141525714D02*
X196243571Y-141597142D01*
X196172142Y-141668571D01*
X196100714Y-141597142D01*
X196172142Y-141525714D01*
X196172142Y-141668571D01*
X196886428Y-140668571D02*
X196886428Y-141668571D01*
X196886428Y-140811428D02*
X196957857Y-140740000D01*
X197100714Y-140668571D01*
X197315000Y-140668571D01*
X197457857Y-140740000D01*
X197529285Y-140882857D01*
X197529285Y-141668571D01*
X198457857Y-141668571D02*
X198315000Y-141597142D01*
X198243571Y-141525714D01*
X198172142Y-141382857D01*
X198172142Y-140954285D01*
X198243571Y-140811428D01*
X198315000Y-140740000D01*
X198457857Y-140668571D01*
X198672142Y-140668571D01*
X198815000Y-140740000D01*
X198886428Y-140811428D01*
X198957857Y-140954285D01*
X198957857Y-141382857D01*
X198886428Y-141525714D01*
X198815000Y-141597142D01*
X198672142Y-141668571D01*
X198457857Y-141668571D01*
X199457857Y-140668571D02*
X199815000Y-141668571D01*
X200172142Y-140668571D02*
X199815000Y-141668571D01*
X199672142Y-142025714D01*
X199600714Y-142097142D01*
X199457857Y-142168571D01*
X201386428Y-141597142D02*
X201243571Y-141668571D01*
X200957857Y-141668571D01*
X200815000Y-141597142D01*
X200743571Y-141525714D01*
X200672142Y-141382857D01*
X200672142Y-140954285D01*
X200743571Y-140811428D01*
X200815000Y-140740000D01*
X200957857Y-140668571D01*
X201243571Y-140668571D01*
X201386428Y-140740000D01*
X202600714Y-141597142D02*
X202457857Y-141668571D01*
X202172142Y-141668571D01*
X202029285Y-141597142D01*
X201957857Y-141454285D01*
X201957857Y-140882857D01*
X202029285Y-140740000D01*
X202172142Y-140668571D01*
X202457857Y-140668571D01*
X202600714Y-140740000D01*
X202672142Y-140882857D01*
X202672142Y-141025714D01*
X201957857Y-141168571D01*
X204243571Y-140954285D02*
X204172142Y-140882857D01*
X204029285Y-140811428D01*
X203886428Y-140811428D01*
X203743571Y-140882857D01*
X203672142Y-140954285D01*
X203600714Y-141097142D01*
X203600714Y-141240000D01*
X203672142Y-141382857D01*
X203743571Y-141454285D01*
X203886428Y-141525714D01*
X204029285Y-141525714D01*
X204172142Y-141454285D01*
X204243571Y-141382857D01*
X204243571Y-140811428D02*
X204243571Y-141382857D01*
X204315000Y-141454285D01*
X204386428Y-141454285D01*
X204529285Y-141382857D01*
X204600714Y-141240000D01*
X204600714Y-140882857D01*
X204457857Y-140668571D01*
X204243571Y-140525714D01*
X203957857Y-140454285D01*
X203672142Y-140525714D01*
X203457857Y-140668571D01*
X203315000Y-140882857D01*
X203243571Y-141168571D01*
X203315000Y-141454285D01*
X203457857Y-141668571D01*
X203672142Y-141811428D01*
X203957857Y-141882857D01*
X204243571Y-141811428D01*
X204457857Y-141668571D01*
X205886428Y-140668571D02*
X205886428Y-141882857D01*
X205815000Y-142025714D01*
X205743571Y-142097142D01*
X205600714Y-142168571D01*
X205386428Y-142168571D01*
X205243571Y-142097142D01*
X205886428Y-141597142D02*
X205743571Y-141668571D01*
X205457857Y-141668571D01*
X205315000Y-141597142D01*
X205243571Y-141525714D01*
X205172142Y-141382857D01*
X205172142Y-140954285D01*
X205243571Y-140811428D01*
X205315000Y-140740000D01*
X205457857Y-140668571D01*
X205743571Y-140668571D01*
X205886428Y-140740000D01*
X206600714Y-141668571D02*
X206600714Y-140668571D01*
X206600714Y-140811428D02*
X206672142Y-140740000D01*
X206815000Y-140668571D01*
X207029285Y-140668571D01*
X207172142Y-140740000D01*
X207243571Y-140882857D01*
X207243571Y-141668571D01*
X207243571Y-140882857D02*
X207315000Y-140740000D01*
X207457857Y-140668571D01*
X207672142Y-140668571D01*
X207815000Y-140740000D01*
X207886428Y-140882857D01*
X207886428Y-141668571D01*
X209243571Y-141668571D02*
X209243571Y-140882857D01*
X209172142Y-140740000D01*
X209029285Y-140668571D01*
X208743571Y-140668571D01*
X208600714Y-140740000D01*
X209243571Y-141597142D02*
X209100714Y-141668571D01*
X208743571Y-141668571D01*
X208600714Y-141597142D01*
X208529285Y-141454285D01*
X208529285Y-141311428D01*
X208600714Y-141168571D01*
X208743571Y-141097142D01*
X209100714Y-141097142D01*
X209243571Y-141025714D01*
X209957857Y-141668571D02*
X209957857Y-140668571D01*
X209957857Y-140168571D02*
X209886428Y-140240000D01*
X209957857Y-140311428D01*
X210029285Y-140240000D01*
X209957857Y-140168571D01*
X209957857Y-140311428D01*
X210886428Y-141668571D02*
X210743571Y-141597142D01*
X210672142Y-141454285D01*
X210672142Y-140168571D01*
X211457857Y-141525714D02*
X211529285Y-141597142D01*
X211457857Y-141668571D01*
X211386428Y-141597142D01*
X211457857Y-141525714D01*
X211457857Y-141668571D01*
X212815000Y-141597142D02*
X212672142Y-141668571D01*
X212386428Y-141668571D01*
X212243571Y-141597142D01*
X212172142Y-141525714D01*
X212100714Y-141382857D01*
X212100714Y-140954285D01*
X212172142Y-140811428D01*
X212243571Y-140740000D01*
X212386428Y-140668571D01*
X212672142Y-140668571D01*
X212815000Y-140740000D01*
X213672142Y-141668571D02*
X213529285Y-141597142D01*
X213457857Y-141525714D01*
X213386428Y-141382857D01*
X213386428Y-140954285D01*
X213457857Y-140811428D01*
X213529285Y-140740000D01*
X213672142Y-140668571D01*
X213886428Y-140668571D01*
X214029285Y-140740000D01*
X214100714Y-140811428D01*
X214172142Y-140954285D01*
X214172142Y-141382857D01*
X214100714Y-141525714D01*
X214029285Y-141597142D01*
X213886428Y-141668571D01*
X213672142Y-141668571D01*
X214815000Y-141668571D02*
X214815000Y-140668571D01*
X214815000Y-140811428D02*
X214886428Y-140740000D01*
X215029285Y-140668571D01*
X215243571Y-140668571D01*
X215386428Y-140740000D01*
X215457857Y-140882857D01*
X215457857Y-141668571D01*
X215457857Y-140882857D02*
X215529285Y-140740000D01*
X215672142Y-140668571D01*
X215886428Y-140668571D01*
X216029285Y-140740000D01*
X216100714Y-140882857D01*
X216100714Y-141668571D01*
D13*
X259411904Y-86015238D02*
X259450952Y-85898095D01*
X259450952Y-85702857D01*
X259411904Y-85624761D01*
X259372857Y-85585714D01*
X259294761Y-85546666D01*
X259216666Y-85546666D01*
X259138571Y-85585714D01*
X259099523Y-85624761D01*
X259060476Y-85702857D01*
X259021428Y-85859047D01*
X258982380Y-85937142D01*
X258943333Y-85976190D01*
X258865238Y-86015238D01*
X258787142Y-86015238D01*
X258709047Y-85976190D01*
X258670000Y-85937142D01*
X258630952Y-85859047D01*
X258630952Y-85663809D01*
X258670000Y-85546666D01*
X259411904Y-85234285D02*
X259450952Y-85117142D01*
X259450952Y-84921904D01*
X259411904Y-84843809D01*
X259372857Y-84804761D01*
X259294761Y-84765714D01*
X259216666Y-84765714D01*
X259138571Y-84804761D01*
X259099523Y-84843809D01*
X259060476Y-84921904D01*
X259021428Y-85078095D01*
X258982380Y-85156190D01*
X258943333Y-85195238D01*
X258865238Y-85234285D01*
X258787142Y-85234285D01*
X258709047Y-85195238D01*
X258670000Y-85156190D01*
X258630952Y-85078095D01*
X258630952Y-84882857D01*
X258670000Y-84765714D01*
X259450952Y-83984761D02*
X259450952Y-84453333D01*
X259450952Y-84219047D02*
X258630952Y-84219047D01*
X258748095Y-84297142D01*
X258826190Y-84375238D01*
X258865238Y-84453333D01*
X259411904Y-91515238D02*
X259450952Y-91398095D01*
X259450952Y-91202857D01*
X259411904Y-91124761D01*
X259372857Y-91085714D01*
X259294761Y-91046666D01*
X259216666Y-91046666D01*
X259138571Y-91085714D01*
X259099523Y-91124761D01*
X259060476Y-91202857D01*
X259021428Y-91359047D01*
X258982380Y-91437142D01*
X258943333Y-91476190D01*
X258865238Y-91515238D01*
X258787142Y-91515238D01*
X258709047Y-91476190D01*
X258670000Y-91437142D01*
X258630952Y-91359047D01*
X258630952Y-91163809D01*
X258670000Y-91046666D01*
X259411904Y-90734285D02*
X259450952Y-90617142D01*
X259450952Y-90421904D01*
X259411904Y-90343809D01*
X259372857Y-90304761D01*
X259294761Y-90265714D01*
X259216666Y-90265714D01*
X259138571Y-90304761D01*
X259099523Y-90343809D01*
X259060476Y-90421904D01*
X259021428Y-90578095D01*
X258982380Y-90656190D01*
X258943333Y-90695238D01*
X258865238Y-90734285D01*
X258787142Y-90734285D01*
X258709047Y-90695238D01*
X258670000Y-90656190D01*
X258630952Y-90578095D01*
X258630952Y-90382857D01*
X258670000Y-90265714D01*
X258709047Y-89953333D02*
X258670000Y-89914285D01*
X258630952Y-89836190D01*
X258630952Y-89640952D01*
X258670000Y-89562857D01*
X258709047Y-89523809D01*
X258787142Y-89484761D01*
X258865238Y-89484761D01*
X258982380Y-89523809D01*
X259450952Y-89992380D01*
X259450952Y-89484761D01*
X259021428Y-107978714D02*
X259060476Y-107861571D01*
X259099523Y-107822523D01*
X259177619Y-107783476D01*
X259294761Y-107783476D01*
X259372857Y-107822523D01*
X259411904Y-107861571D01*
X259450952Y-107939666D01*
X259450952Y-108252047D01*
X258630952Y-108252047D01*
X258630952Y-107978714D01*
X258670000Y-107900619D01*
X258709047Y-107861571D01*
X258787142Y-107822523D01*
X258865238Y-107822523D01*
X258943333Y-107861571D01*
X258982380Y-107900619D01*
X259021428Y-107978714D01*
X259021428Y-108252047D01*
X259450952Y-107080619D02*
X259021428Y-107080619D01*
X258943333Y-107119666D01*
X258904285Y-107197761D01*
X258904285Y-107353952D01*
X258943333Y-107432047D01*
X259411904Y-107080619D02*
X259450952Y-107158714D01*
X259450952Y-107353952D01*
X259411904Y-107432047D01*
X259333809Y-107471095D01*
X259255714Y-107471095D01*
X259177619Y-107432047D01*
X259138571Y-107353952D01*
X259138571Y-107158714D01*
X259099523Y-107080619D01*
X259411904Y-106338714D02*
X259450952Y-106416809D01*
X259450952Y-106573000D01*
X259411904Y-106651095D01*
X259372857Y-106690142D01*
X259294761Y-106729190D01*
X259060476Y-106729190D01*
X258982380Y-106690142D01*
X258943333Y-106651095D01*
X258904285Y-106573000D01*
X258904285Y-106416809D01*
X258943333Y-106338714D01*
X259450952Y-105987285D02*
X258630952Y-105987285D01*
X259138571Y-105909190D02*
X259450952Y-105674904D01*
X258904285Y-105674904D02*
X259216666Y-105987285D01*
X259450952Y-113322571D02*
X259450952Y-113713047D01*
X258630952Y-113713047D01*
X259450952Y-112932095D02*
X259411904Y-113010190D01*
X259372857Y-113049238D01*
X259294761Y-113088285D01*
X259060476Y-113088285D01*
X258982380Y-113049238D01*
X258943333Y-113010190D01*
X258904285Y-112932095D01*
X258904285Y-112814952D01*
X258943333Y-112736857D01*
X258982380Y-112697809D01*
X259060476Y-112658761D01*
X259294761Y-112658761D01*
X259372857Y-112697809D01*
X259411904Y-112736857D01*
X259450952Y-112814952D01*
X259450952Y-112932095D01*
X259411904Y-111955904D02*
X259450952Y-112034000D01*
X259450952Y-112190190D01*
X259411904Y-112268285D01*
X259372857Y-112307333D01*
X259294761Y-112346380D01*
X259060476Y-112346380D01*
X258982380Y-112307333D01*
X258943333Y-112268285D01*
X258904285Y-112190190D01*
X258904285Y-112034000D01*
X258943333Y-111955904D01*
X258670000Y-111174952D02*
X258630952Y-111253047D01*
X258630952Y-111370190D01*
X258670000Y-111487333D01*
X258748095Y-111565428D01*
X258826190Y-111604476D01*
X258982380Y-111643523D01*
X259099523Y-111643523D01*
X259255714Y-111604476D01*
X259333809Y-111565428D01*
X259411904Y-111487333D01*
X259450952Y-111370190D01*
X259450952Y-111292095D01*
X259411904Y-111174952D01*
X259372857Y-111135904D01*
X259099523Y-111135904D01*
X259099523Y-111292095D01*
X259411904Y-119135000D02*
X259450952Y-119017857D01*
X259450952Y-118822619D01*
X259411904Y-118744523D01*
X259372857Y-118705476D01*
X259294761Y-118666428D01*
X259216666Y-118666428D01*
X259138571Y-118705476D01*
X259099523Y-118744523D01*
X259060476Y-118822619D01*
X259021428Y-118978809D01*
X258982380Y-119056904D01*
X258943333Y-119095952D01*
X258865238Y-119135000D01*
X258787142Y-119135000D01*
X258709047Y-119095952D01*
X258670000Y-119056904D01*
X258630952Y-118978809D01*
X258630952Y-118783571D01*
X258670000Y-118666428D01*
X259450952Y-118197857D02*
X259411904Y-118275952D01*
X259372857Y-118315000D01*
X259294761Y-118354047D01*
X259060476Y-118354047D01*
X258982380Y-118315000D01*
X258943333Y-118275952D01*
X258904285Y-118197857D01*
X258904285Y-118080714D01*
X258943333Y-118002619D01*
X258982380Y-117963571D01*
X259060476Y-117924523D01*
X259294761Y-117924523D01*
X259372857Y-117963571D01*
X259411904Y-118002619D01*
X259450952Y-118080714D01*
X259450952Y-118197857D01*
X259450952Y-117455952D02*
X259411904Y-117534047D01*
X259333809Y-117573095D01*
X258630952Y-117573095D01*
X258670000Y-116714047D02*
X258630952Y-116792142D01*
X258630952Y-116909285D01*
X258670000Y-117026428D01*
X258748095Y-117104523D01*
X258826190Y-117143571D01*
X258982380Y-117182619D01*
X259099523Y-117182619D01*
X259255714Y-117143571D01*
X259333809Y-117104523D01*
X259411904Y-117026428D01*
X259450952Y-116909285D01*
X259450952Y-116831190D01*
X259411904Y-116714047D01*
X259372857Y-116675000D01*
X259099523Y-116675000D01*
X259099523Y-116831190D01*
X176266666Y-88370952D02*
X176266666Y-87550952D01*
X176461904Y-87550952D01*
X176579047Y-87590000D01*
X176657142Y-87668095D01*
X176696190Y-87746190D01*
X176735238Y-87902380D01*
X176735238Y-88019523D01*
X176696190Y-88175714D01*
X176657142Y-88253809D01*
X176579047Y-88331904D01*
X176461904Y-88370952D01*
X176266666Y-88370952D01*
X177086666Y-88370952D02*
X177086666Y-87550952D01*
X177281904Y-87550952D01*
X177399047Y-87590000D01*
X177477142Y-87668095D01*
X177516190Y-87746190D01*
X177555238Y-87902380D01*
X177555238Y-88019523D01*
X177516190Y-88175714D01*
X177477142Y-88253809D01*
X177399047Y-88331904D01*
X177281904Y-88370952D01*
X177086666Y-88370952D01*
X178336190Y-88370952D02*
X177867619Y-88370952D01*
X178101904Y-88370952D02*
X178101904Y-87550952D01*
X178023809Y-87668095D01*
X177945714Y-87746190D01*
X177867619Y-87785238D01*
X179351428Y-88370952D02*
X179312380Y-88370952D01*
X179234285Y-88331904D01*
X179117142Y-88214761D01*
X178921904Y-87980476D01*
X178843809Y-87863333D01*
X178804761Y-87746190D01*
X178804761Y-87668095D01*
X178843809Y-87590000D01*
X178921904Y-87550952D01*
X178960952Y-87550952D01*
X179039047Y-87590000D01*
X179078095Y-87668095D01*
X179078095Y-87707142D01*
X179039047Y-87785238D01*
X179000000Y-87824285D01*
X178765714Y-87980476D01*
X178726666Y-88019523D01*
X178687619Y-88097619D01*
X178687619Y-88214761D01*
X178726666Y-88292857D01*
X178765714Y-88331904D01*
X178843809Y-88370952D01*
X178960952Y-88370952D01*
X179039047Y-88331904D01*
X179078095Y-88292857D01*
X179195238Y-88136666D01*
X179234285Y-88019523D01*
X179234285Y-87941428D01*
X179702857Y-88370952D02*
X179702857Y-87550952D01*
X179898095Y-87550952D01*
X180015238Y-87590000D01*
X180093333Y-87668095D01*
X180132380Y-87746190D01*
X180171428Y-87902380D01*
X180171428Y-88019523D01*
X180132380Y-88175714D01*
X180093333Y-88253809D01*
X180015238Y-88331904D01*
X179898095Y-88370952D01*
X179702857Y-88370952D01*
X180522857Y-88370952D02*
X180522857Y-87550952D01*
X180718095Y-87550952D01*
X180835238Y-87590000D01*
X180913333Y-87668095D01*
X180952380Y-87746190D01*
X180991428Y-87902380D01*
X180991428Y-88019523D01*
X180952380Y-88175714D01*
X180913333Y-88253809D01*
X180835238Y-88331904D01*
X180718095Y-88370952D01*
X180522857Y-88370952D01*
X181303809Y-87629047D02*
X181342857Y-87590000D01*
X181420952Y-87550952D01*
X181616190Y-87550952D01*
X181694285Y-87590000D01*
X181733333Y-87629047D01*
X181772380Y-87707142D01*
X181772380Y-87785238D01*
X181733333Y-87902380D01*
X181264761Y-88370952D01*
X181772380Y-88370952D01*
X176266666Y-124270952D02*
X176266666Y-123450952D01*
X176461904Y-123450952D01*
X176579047Y-123490000D01*
X176657142Y-123568095D01*
X176696190Y-123646190D01*
X176735238Y-123802380D01*
X176735238Y-123919523D01*
X176696190Y-124075714D01*
X176657142Y-124153809D01*
X176579047Y-124231904D01*
X176461904Y-124270952D01*
X176266666Y-124270952D01*
X177086666Y-124270952D02*
X177086666Y-123450952D01*
X177281904Y-123450952D01*
X177399047Y-123490000D01*
X177477142Y-123568095D01*
X177516190Y-123646190D01*
X177555238Y-123802380D01*
X177555238Y-123919523D01*
X177516190Y-124075714D01*
X177477142Y-124153809D01*
X177399047Y-124231904D01*
X177281904Y-124270952D01*
X177086666Y-124270952D01*
X178336190Y-124270952D02*
X177867619Y-124270952D01*
X178101904Y-124270952D02*
X178101904Y-123450952D01*
X178023809Y-123568095D01*
X177945714Y-123646190D01*
X177867619Y-123685238D01*
X179351428Y-124270952D02*
X179312380Y-124270952D01*
X179234285Y-124231904D01*
X179117142Y-124114761D01*
X178921904Y-123880476D01*
X178843809Y-123763333D01*
X178804761Y-123646190D01*
X178804761Y-123568095D01*
X178843809Y-123490000D01*
X178921904Y-123450952D01*
X178960952Y-123450952D01*
X179039047Y-123490000D01*
X179078095Y-123568095D01*
X179078095Y-123607142D01*
X179039047Y-123685238D01*
X179000000Y-123724285D01*
X178765714Y-123880476D01*
X178726666Y-123919523D01*
X178687619Y-123997619D01*
X178687619Y-124114761D01*
X178726666Y-124192857D01*
X178765714Y-124231904D01*
X178843809Y-124270952D01*
X178960952Y-124270952D01*
X179039047Y-124231904D01*
X179078095Y-124192857D01*
X179195238Y-124036666D01*
X179234285Y-123919523D01*
X179234285Y-123841428D01*
X179702857Y-124270952D02*
X179702857Y-123450952D01*
X179898095Y-123450952D01*
X180015238Y-123490000D01*
X180093333Y-123568095D01*
X180132380Y-123646190D01*
X180171428Y-123802380D01*
X180171428Y-123919523D01*
X180132380Y-124075714D01*
X180093333Y-124153809D01*
X180015238Y-124231904D01*
X179898095Y-124270952D01*
X179702857Y-124270952D01*
X180522857Y-124270952D02*
X180522857Y-123450952D01*
X180718095Y-123450952D01*
X180835238Y-123490000D01*
X180913333Y-123568095D01*
X180952380Y-123646190D01*
X180991428Y-123802380D01*
X180991428Y-123919523D01*
X180952380Y-124075714D01*
X180913333Y-124153809D01*
X180835238Y-124231904D01*
X180718095Y-124270952D01*
X180522857Y-124270952D01*
X181303809Y-123529047D02*
X181342857Y-123490000D01*
X181420952Y-123450952D01*
X181616190Y-123450952D01*
X181694285Y-123490000D01*
X181733333Y-123529047D01*
X181772380Y-123607142D01*
X181772380Y-123685238D01*
X181733333Y-123802380D01*
X181264761Y-124270952D01*
X181772380Y-124270952D01*
X218285714Y-124331904D02*
X218402857Y-124370952D01*
X218598095Y-124370952D01*
X218676190Y-124331904D01*
X218715238Y-124292857D01*
X218754285Y-124214761D01*
X218754285Y-124136666D01*
X218715238Y-124058571D01*
X218676190Y-124019523D01*
X218598095Y-123980476D01*
X218441904Y-123941428D01*
X218363809Y-123902380D01*
X218324761Y-123863333D01*
X218285714Y-123785238D01*
X218285714Y-123707142D01*
X218324761Y-123629047D01*
X218363809Y-123590000D01*
X218441904Y-123550952D01*
X218637142Y-123550952D01*
X218754285Y-123590000D01*
X219066666Y-124331904D02*
X219183809Y-124370952D01*
X219379047Y-124370952D01*
X219457142Y-124331904D01*
X219496190Y-124292857D01*
X219535238Y-124214761D01*
X219535238Y-124136666D01*
X219496190Y-124058571D01*
X219457142Y-124019523D01*
X219379047Y-123980476D01*
X219222857Y-123941428D01*
X219144761Y-123902380D01*
X219105714Y-123863333D01*
X219066666Y-123785238D01*
X219066666Y-123707142D01*
X219105714Y-123629047D01*
X219144761Y-123590000D01*
X219222857Y-123550952D01*
X219418095Y-123550952D01*
X219535238Y-123590000D01*
X220316190Y-124370952D02*
X219847619Y-124370952D01*
X220081904Y-124370952D02*
X220081904Y-123550952D01*
X220003809Y-123668095D01*
X219925714Y-123746190D01*
X219847619Y-123785238D01*
X221331428Y-124370952D02*
X221292380Y-124370952D01*
X221214285Y-124331904D01*
X221097142Y-124214761D01*
X220901904Y-123980476D01*
X220823809Y-123863333D01*
X220784761Y-123746190D01*
X220784761Y-123668095D01*
X220823809Y-123590000D01*
X220901904Y-123550952D01*
X220940952Y-123550952D01*
X221019047Y-123590000D01*
X221058095Y-123668095D01*
X221058095Y-123707142D01*
X221019047Y-123785238D01*
X220980000Y-123824285D01*
X220745714Y-123980476D01*
X220706666Y-124019523D01*
X220667619Y-124097619D01*
X220667619Y-124214761D01*
X220706666Y-124292857D01*
X220745714Y-124331904D01*
X220823809Y-124370952D01*
X220940952Y-124370952D01*
X221019047Y-124331904D01*
X221058095Y-124292857D01*
X221175238Y-124136666D01*
X221214285Y-124019523D01*
X221214285Y-123941428D01*
X221643809Y-124331904D02*
X221760952Y-124370952D01*
X221956190Y-124370952D01*
X222034285Y-124331904D01*
X222073333Y-124292857D01*
X222112380Y-124214761D01*
X222112380Y-124136666D01*
X222073333Y-124058571D01*
X222034285Y-124019523D01*
X221956190Y-123980476D01*
X221800000Y-123941428D01*
X221721904Y-123902380D01*
X221682857Y-123863333D01*
X221643809Y-123785238D01*
X221643809Y-123707142D01*
X221682857Y-123629047D01*
X221721904Y-123590000D01*
X221800000Y-123550952D01*
X221995238Y-123550952D01*
X222112380Y-123590000D01*
X222424761Y-124331904D02*
X222541904Y-124370952D01*
X222737142Y-124370952D01*
X222815238Y-124331904D01*
X222854285Y-124292857D01*
X222893333Y-124214761D01*
X222893333Y-124136666D01*
X222854285Y-124058571D01*
X222815238Y-124019523D01*
X222737142Y-123980476D01*
X222580952Y-123941428D01*
X222502857Y-123902380D01*
X222463809Y-123863333D01*
X222424761Y-123785238D01*
X222424761Y-123707142D01*
X222463809Y-123629047D01*
X222502857Y-123590000D01*
X222580952Y-123550952D01*
X222776190Y-123550952D01*
X222893333Y-123590000D01*
X223205714Y-123629047D02*
X223244761Y-123590000D01*
X223322857Y-123550952D01*
X223518095Y-123550952D01*
X223596190Y-123590000D01*
X223635238Y-123629047D01*
X223674285Y-123707142D01*
X223674285Y-123785238D01*
X223635238Y-123902380D01*
X223166666Y-124370952D01*
X223674285Y-124370952D01*
X218205714Y-87831904D02*
X218322857Y-87870952D01*
X218518095Y-87870952D01*
X218596190Y-87831904D01*
X218635238Y-87792857D01*
X218674285Y-87714761D01*
X218674285Y-87636666D01*
X218635238Y-87558571D01*
X218596190Y-87519523D01*
X218518095Y-87480476D01*
X218361904Y-87441428D01*
X218283809Y-87402380D01*
X218244761Y-87363333D01*
X218205714Y-87285238D01*
X218205714Y-87207142D01*
X218244761Y-87129047D01*
X218283809Y-87090000D01*
X218361904Y-87050952D01*
X218557142Y-87050952D01*
X218674285Y-87090000D01*
X218986666Y-87831904D02*
X219103809Y-87870952D01*
X219299047Y-87870952D01*
X219377142Y-87831904D01*
X219416190Y-87792857D01*
X219455238Y-87714761D01*
X219455238Y-87636666D01*
X219416190Y-87558571D01*
X219377142Y-87519523D01*
X219299047Y-87480476D01*
X219142857Y-87441428D01*
X219064761Y-87402380D01*
X219025714Y-87363333D01*
X218986666Y-87285238D01*
X218986666Y-87207142D01*
X219025714Y-87129047D01*
X219064761Y-87090000D01*
X219142857Y-87050952D01*
X219338095Y-87050952D01*
X219455238Y-87090000D01*
X220236190Y-87870952D02*
X219767619Y-87870952D01*
X220001904Y-87870952D02*
X220001904Y-87050952D01*
X219923809Y-87168095D01*
X219845714Y-87246190D01*
X219767619Y-87285238D01*
X221251428Y-87870952D02*
X221212380Y-87870952D01*
X221134285Y-87831904D01*
X221017142Y-87714761D01*
X220821904Y-87480476D01*
X220743809Y-87363333D01*
X220704761Y-87246190D01*
X220704761Y-87168095D01*
X220743809Y-87090000D01*
X220821904Y-87050952D01*
X220860952Y-87050952D01*
X220939047Y-87090000D01*
X220978095Y-87168095D01*
X220978095Y-87207142D01*
X220939047Y-87285238D01*
X220900000Y-87324285D01*
X220665714Y-87480476D01*
X220626666Y-87519523D01*
X220587619Y-87597619D01*
X220587619Y-87714761D01*
X220626666Y-87792857D01*
X220665714Y-87831904D01*
X220743809Y-87870952D01*
X220860952Y-87870952D01*
X220939047Y-87831904D01*
X220978095Y-87792857D01*
X221095238Y-87636666D01*
X221134285Y-87519523D01*
X221134285Y-87441428D01*
X221563809Y-87831904D02*
X221680952Y-87870952D01*
X221876190Y-87870952D01*
X221954285Y-87831904D01*
X221993333Y-87792857D01*
X222032380Y-87714761D01*
X222032380Y-87636666D01*
X221993333Y-87558571D01*
X221954285Y-87519523D01*
X221876190Y-87480476D01*
X221720000Y-87441428D01*
X221641904Y-87402380D01*
X221602857Y-87363333D01*
X221563809Y-87285238D01*
X221563809Y-87207142D01*
X221602857Y-87129047D01*
X221641904Y-87090000D01*
X221720000Y-87050952D01*
X221915238Y-87050952D01*
X222032380Y-87090000D01*
X222344761Y-87831904D02*
X222461904Y-87870952D01*
X222657142Y-87870952D01*
X222735238Y-87831904D01*
X222774285Y-87792857D01*
X222813333Y-87714761D01*
X222813333Y-87636666D01*
X222774285Y-87558571D01*
X222735238Y-87519523D01*
X222657142Y-87480476D01*
X222500952Y-87441428D01*
X222422857Y-87402380D01*
X222383809Y-87363333D01*
X222344761Y-87285238D01*
X222344761Y-87207142D01*
X222383809Y-87129047D01*
X222422857Y-87090000D01*
X222500952Y-87050952D01*
X222696190Y-87050952D01*
X222813333Y-87090000D01*
X223125714Y-87129047D02*
X223164761Y-87090000D01*
X223242857Y-87050952D01*
X223438095Y-87050952D01*
X223516190Y-87090000D01*
X223555238Y-87129047D01*
X223594285Y-87207142D01*
X223594285Y-87285238D01*
X223555238Y-87402380D01*
X223086666Y-87870952D01*
X223594285Y-87870952D01*
X250894000Y-80983952D02*
X250894000Y-80163952D01*
X251440666Y-80163952D02*
X251596857Y-80163952D01*
X251674952Y-80203000D01*
X251753047Y-80281095D01*
X251792095Y-80437285D01*
X251792095Y-80710619D01*
X251753047Y-80866809D01*
X251674952Y-80944904D01*
X251596857Y-80983952D01*
X251440666Y-80983952D01*
X251362571Y-80944904D01*
X251284476Y-80866809D01*
X251245428Y-80710619D01*
X251245428Y-80437285D01*
X251284476Y-80281095D01*
X251362571Y-80203000D01*
X251440666Y-80163952D01*
X252494952Y-80437285D02*
X252494952Y-80983952D01*
X252299714Y-80124904D02*
X252104476Y-80710619D01*
X252612095Y-80710619D01*
X250894000Y-83575952D02*
X250894000Y-82755952D01*
X251440666Y-82755952D02*
X251596857Y-82755952D01*
X251674952Y-82795000D01*
X251753047Y-82873095D01*
X251792095Y-83029285D01*
X251792095Y-83302619D01*
X251753047Y-83458809D01*
X251674952Y-83536904D01*
X251596857Y-83575952D01*
X251440666Y-83575952D01*
X251362571Y-83536904D01*
X251284476Y-83458809D01*
X251245428Y-83302619D01*
X251245428Y-83029285D01*
X251284476Y-82873095D01*
X251362571Y-82795000D01*
X251440666Y-82755952D01*
X252065428Y-82755952D02*
X252573047Y-82755952D01*
X252299714Y-83068333D01*
X252416857Y-83068333D01*
X252494952Y-83107380D01*
X252534000Y-83146428D01*
X252573047Y-83224523D01*
X252573047Y-83419761D01*
X252534000Y-83497857D01*
X252494952Y-83536904D01*
X252416857Y-83575952D01*
X252182571Y-83575952D01*
X252104476Y-83536904D01*
X252065428Y-83497857D01*
X250894000Y-86175952D02*
X250894000Y-85355952D01*
X251440666Y-85355952D02*
X251596857Y-85355952D01*
X251674952Y-85395000D01*
X251753047Y-85473095D01*
X251792095Y-85629285D01*
X251792095Y-85902619D01*
X251753047Y-86058809D01*
X251674952Y-86136904D01*
X251596857Y-86175952D01*
X251440666Y-86175952D01*
X251362571Y-86136904D01*
X251284476Y-86058809D01*
X251245428Y-85902619D01*
X251245428Y-85629285D01*
X251284476Y-85473095D01*
X251362571Y-85395000D01*
X251440666Y-85355952D01*
X252104476Y-85434047D02*
X252143523Y-85395000D01*
X252221619Y-85355952D01*
X252416857Y-85355952D01*
X252494952Y-85395000D01*
X252534000Y-85434047D01*
X252573047Y-85512142D01*
X252573047Y-85590238D01*
X252534000Y-85707380D01*
X252065428Y-86175952D01*
X252573047Y-86175952D01*
X250894000Y-88675952D02*
X250894000Y-87855952D01*
X251440666Y-87855952D02*
X251596857Y-87855952D01*
X251674952Y-87895000D01*
X251753047Y-87973095D01*
X251792095Y-88129285D01*
X251792095Y-88402619D01*
X251753047Y-88558809D01*
X251674952Y-88636904D01*
X251596857Y-88675952D01*
X251440666Y-88675952D01*
X251362571Y-88636904D01*
X251284476Y-88558809D01*
X251245428Y-88402619D01*
X251245428Y-88129285D01*
X251284476Y-87973095D01*
X251362571Y-87895000D01*
X251440666Y-87855952D01*
X252573047Y-88675952D02*
X252104476Y-88675952D01*
X252338761Y-88675952D02*
X252338761Y-87855952D01*
X252260666Y-87973095D01*
X252182571Y-88051190D01*
X252104476Y-88090238D01*
X239522761Y-91175952D02*
X239522761Y-90355952D01*
X239718000Y-90355952D01*
X239835142Y-90395000D01*
X239913238Y-90473095D01*
X239952285Y-90551190D01*
X239991333Y-90707380D01*
X239991333Y-90824523D01*
X239952285Y-90980714D01*
X239913238Y-91058809D01*
X239835142Y-91136904D01*
X239718000Y-91175952D01*
X239522761Y-91175952D01*
X240342761Y-91175952D02*
X240342761Y-90355952D01*
X240538000Y-90355952D01*
X240655142Y-90395000D01*
X240733238Y-90473095D01*
X240772285Y-90551190D01*
X240811333Y-90707380D01*
X240811333Y-90824523D01*
X240772285Y-90980714D01*
X240733238Y-91058809D01*
X240655142Y-91136904D01*
X240538000Y-91175952D01*
X240342761Y-91175952D01*
X241592285Y-91175952D02*
X241123714Y-91175952D01*
X241358000Y-91175952D02*
X241358000Y-90355952D01*
X241279904Y-90473095D01*
X241201809Y-90551190D01*
X241123714Y-90590238D01*
X239522761Y-93715952D02*
X239522761Y-92895952D01*
X239718000Y-92895952D01*
X239835142Y-92935000D01*
X239913238Y-93013095D01*
X239952285Y-93091190D01*
X239991333Y-93247380D01*
X239991333Y-93364523D01*
X239952285Y-93520714D01*
X239913238Y-93598809D01*
X239835142Y-93676904D01*
X239718000Y-93715952D01*
X239522761Y-93715952D01*
X240342761Y-93715952D02*
X240342761Y-92895952D01*
X240538000Y-92895952D01*
X240655142Y-92935000D01*
X240733238Y-93013095D01*
X240772285Y-93091190D01*
X240811333Y-93247380D01*
X240811333Y-93364523D01*
X240772285Y-93520714D01*
X240733238Y-93598809D01*
X240655142Y-93676904D01*
X240538000Y-93715952D01*
X240342761Y-93715952D01*
X241123714Y-92974047D02*
X241162761Y-92935000D01*
X241240857Y-92895952D01*
X241436095Y-92895952D01*
X241514190Y-92935000D01*
X241553238Y-92974047D01*
X241592285Y-93052142D01*
X241592285Y-93130238D01*
X241553238Y-93247380D01*
X241084666Y-93715952D01*
X241592285Y-93715952D01*
X250952761Y-91236904D02*
X251069904Y-91275952D01*
X251265142Y-91275952D01*
X251343238Y-91236904D01*
X251382285Y-91197857D01*
X251421333Y-91119761D01*
X251421333Y-91041666D01*
X251382285Y-90963571D01*
X251343238Y-90924523D01*
X251265142Y-90885476D01*
X251108952Y-90846428D01*
X251030857Y-90807380D01*
X250991809Y-90768333D01*
X250952761Y-90690238D01*
X250952761Y-90612142D01*
X250991809Y-90534047D01*
X251030857Y-90495000D01*
X251108952Y-90455952D01*
X251304190Y-90455952D01*
X251421333Y-90495000D01*
X251733714Y-91236904D02*
X251850857Y-91275952D01*
X252046095Y-91275952D01*
X252124190Y-91236904D01*
X252163238Y-91197857D01*
X252202285Y-91119761D01*
X252202285Y-91041666D01*
X252163238Y-90963571D01*
X252124190Y-90924523D01*
X252046095Y-90885476D01*
X251889904Y-90846428D01*
X251811809Y-90807380D01*
X251772761Y-90768333D01*
X251733714Y-90690238D01*
X251733714Y-90612142D01*
X251772761Y-90534047D01*
X251811809Y-90495000D01*
X251889904Y-90455952D01*
X252085142Y-90455952D01*
X252202285Y-90495000D01*
X252983238Y-91275952D02*
X252514666Y-91275952D01*
X252748952Y-91275952D02*
X252748952Y-90455952D01*
X252670857Y-90573095D01*
X252592761Y-90651190D01*
X252514666Y-90690238D01*
X250952761Y-93771904D02*
X251069904Y-93810952D01*
X251265142Y-93810952D01*
X251343238Y-93771904D01*
X251382285Y-93732857D01*
X251421333Y-93654761D01*
X251421333Y-93576666D01*
X251382285Y-93498571D01*
X251343238Y-93459523D01*
X251265142Y-93420476D01*
X251108952Y-93381428D01*
X251030857Y-93342380D01*
X250991809Y-93303333D01*
X250952761Y-93225238D01*
X250952761Y-93147142D01*
X250991809Y-93069047D01*
X251030857Y-93030000D01*
X251108952Y-92990952D01*
X251304190Y-92990952D01*
X251421333Y-93030000D01*
X251733714Y-93771904D02*
X251850857Y-93810952D01*
X252046095Y-93810952D01*
X252124190Y-93771904D01*
X252163238Y-93732857D01*
X252202285Y-93654761D01*
X252202285Y-93576666D01*
X252163238Y-93498571D01*
X252124190Y-93459523D01*
X252046095Y-93420476D01*
X251889904Y-93381428D01*
X251811809Y-93342380D01*
X251772761Y-93303333D01*
X251733714Y-93225238D01*
X251733714Y-93147142D01*
X251772761Y-93069047D01*
X251811809Y-93030000D01*
X251889904Y-92990952D01*
X252085142Y-92990952D01*
X252202285Y-93030000D01*
X252514666Y-93069047D02*
X252553714Y-93030000D01*
X252631809Y-92990952D01*
X252827047Y-92990952D01*
X252905142Y-93030000D01*
X252944190Y-93069047D01*
X252983238Y-93147142D01*
X252983238Y-93225238D01*
X252944190Y-93342380D01*
X252475619Y-93810952D01*
X252983238Y-93810952D01*
X251343238Y-95570000D02*
X251265142Y-95530952D01*
X251148000Y-95530952D01*
X251030857Y-95570000D01*
X250952761Y-95648095D01*
X250913714Y-95726190D01*
X250874666Y-95882380D01*
X250874666Y-95999523D01*
X250913714Y-96155714D01*
X250952761Y-96233809D01*
X251030857Y-96311904D01*
X251148000Y-96350952D01*
X251226095Y-96350952D01*
X251343238Y-96311904D01*
X251382285Y-96272857D01*
X251382285Y-95999523D01*
X251226095Y-95999523D01*
X251733714Y-96350952D02*
X251733714Y-95530952D01*
X252202285Y-96350952D01*
X252202285Y-95530952D01*
X252592761Y-96350952D02*
X252592761Y-95530952D01*
X252788000Y-95530952D01*
X252905142Y-95570000D01*
X252983238Y-95648095D01*
X253022285Y-95726190D01*
X253061333Y-95882380D01*
X253061333Y-95999523D01*
X253022285Y-96155714D01*
X252983238Y-96233809D01*
X252905142Y-96311904D01*
X252788000Y-96350952D01*
X252592761Y-96350952D01*
D10*
X241200000Y-89405000D02*
X241900000Y-89405000D01*
X241200000Y-79505000D02*
X241200000Y-89405000D01*
X242000000Y-79505000D02*
X241200000Y-79505000D01*
D13*
X184322571Y-142352203D02*
X184439714Y-142391251D01*
X184478761Y-142430298D01*
X184517809Y-142508394D01*
X184517809Y-142625536D01*
X184478761Y-142703632D01*
X184439714Y-142742679D01*
X184361619Y-142781727D01*
X184049238Y-142781727D01*
X184049238Y-141961727D01*
X184322571Y-141961727D01*
X184400666Y-142000775D01*
X184439714Y-142039822D01*
X184478761Y-142117917D01*
X184478761Y-142196013D01*
X184439714Y-142274108D01*
X184400666Y-142313155D01*
X184322571Y-142352203D01*
X184049238Y-142352203D01*
X184752095Y-141961727D02*
X185220666Y-141961727D01*
X184986380Y-142781727D02*
X184986380Y-141961727D01*
X185962571Y-142781727D02*
X185689238Y-142391251D01*
X185494000Y-142781727D02*
X185494000Y-141961727D01*
X185806380Y-141961727D01*
X185884476Y-142000775D01*
X185923523Y-142039822D01*
X185962571Y-142117917D01*
X185962571Y-142235060D01*
X185923523Y-142313155D01*
X185884476Y-142352203D01*
X185806380Y-142391251D01*
X185494000Y-142391251D01*
X186235904Y-141961727D02*
X186782571Y-142781727D01*
X186782571Y-141961727D02*
X186235904Y-142781727D01*
X184322571Y-139818203D02*
X184439714Y-139857251D01*
X184478761Y-139896298D01*
X184517809Y-139974394D01*
X184517809Y-140091536D01*
X184478761Y-140169632D01*
X184439714Y-140208679D01*
X184361619Y-140247727D01*
X184049238Y-140247727D01*
X184049238Y-139427727D01*
X184322571Y-139427727D01*
X184400666Y-139466775D01*
X184439714Y-139505822D01*
X184478761Y-139583917D01*
X184478761Y-139662013D01*
X184439714Y-139740108D01*
X184400666Y-139779155D01*
X184322571Y-139818203D01*
X184049238Y-139818203D01*
X184752095Y-139427727D02*
X185220666Y-139427727D01*
X184986380Y-140247727D02*
X184986380Y-139427727D01*
X185376857Y-139427727D02*
X185845428Y-139427727D01*
X185611142Y-140247727D02*
X185611142Y-139427727D01*
X186040666Y-139427727D02*
X186587333Y-140247727D01*
X186587333Y-139427727D02*
X186040666Y-140247727D01*
X184478761Y-136840000D02*
X184400666Y-136800952D01*
X184283523Y-136800952D01*
X184166380Y-136840000D01*
X184088285Y-136918095D01*
X184049238Y-136996190D01*
X184010190Y-137152380D01*
X184010190Y-137269523D01*
X184049238Y-137425714D01*
X184088285Y-137503809D01*
X184166380Y-137581904D01*
X184283523Y-137620952D01*
X184361619Y-137620952D01*
X184478761Y-137581904D01*
X184517809Y-137542857D01*
X184517809Y-137269523D01*
X184361619Y-137269523D01*
X184869238Y-137620952D02*
X184869238Y-136800952D01*
X185337809Y-137620952D01*
X185337809Y-136800952D01*
X185728285Y-137620952D02*
X185728285Y-136800952D01*
X185923523Y-136800952D01*
X186040666Y-136840000D01*
X186118761Y-136918095D01*
X186157809Y-136996190D01*
X186196857Y-137152380D01*
X186196857Y-137269523D01*
X186157809Y-137425714D01*
X186118761Y-137503809D01*
X186040666Y-137581904D01*
X185923523Y-137620952D01*
X185728285Y-137620952D01*
X183932095Y-134300952D02*
X184205428Y-135120952D01*
X184478761Y-134300952D01*
X184752095Y-135120952D02*
X184752095Y-134300952D01*
X184947333Y-134300952D01*
X185064476Y-134340000D01*
X185142571Y-134418095D01*
X185181619Y-134496190D01*
X185220666Y-134652380D01*
X185220666Y-134769523D01*
X185181619Y-134925714D01*
X185142571Y-135003809D01*
X185064476Y-135081904D01*
X184947333Y-135120952D01*
X184752095Y-135120952D01*
X185572095Y-135120952D02*
X185572095Y-134300952D01*
X185767333Y-134300952D01*
X185884476Y-134340000D01*
X185962571Y-134418095D01*
X186001619Y-134496190D01*
X186040666Y-134652380D01*
X186040666Y-134769523D01*
X186001619Y-134925714D01*
X185962571Y-135003809D01*
X185884476Y-135081904D01*
X185767333Y-135120952D01*
X185572095Y-135120952D01*
X186392095Y-135120952D02*
X186392095Y-134300952D01*
X186587333Y-134300952D01*
X186704476Y-134340000D01*
X186782571Y-134418095D01*
X186821619Y-134496190D01*
X186860666Y-134652380D01*
X186860666Y-134769523D01*
X186821619Y-134925714D01*
X186782571Y-135003809D01*
X186704476Y-135081904D01*
X186587333Y-135120952D01*
X186392095Y-135120952D01*
X167788238Y-122632904D02*
X167905380Y-122671952D01*
X168100619Y-122671952D01*
X168178714Y-122632904D01*
X168217761Y-122593857D01*
X168256809Y-122515761D01*
X168256809Y-122437666D01*
X168217761Y-122359571D01*
X168178714Y-122320523D01*
X168100619Y-122281476D01*
X167944428Y-122242428D01*
X167866333Y-122203380D01*
X167827285Y-122164333D01*
X167788238Y-122086238D01*
X167788238Y-122008142D01*
X167827285Y-121930047D01*
X167866333Y-121891000D01*
X167944428Y-121851952D01*
X168139666Y-121851952D01*
X168256809Y-121891000D01*
X168530142Y-121851952D02*
X168725380Y-122671952D01*
X168881571Y-122086238D01*
X169037761Y-122671952D01*
X169233000Y-121851952D01*
X169545380Y-122671952D02*
X169545380Y-121851952D01*
X169740619Y-121851952D01*
X169857761Y-121891000D01*
X169935857Y-121969095D01*
X169974904Y-122047190D01*
X170013952Y-122203380D01*
X170013952Y-122320523D01*
X169974904Y-122476714D01*
X169935857Y-122554809D01*
X169857761Y-122632904D01*
X169740619Y-122671952D01*
X169545380Y-122671952D01*
X170833952Y-122593857D02*
X170794904Y-122632904D01*
X170677761Y-122671952D01*
X170599666Y-122671952D01*
X170482523Y-122632904D01*
X170404428Y-122554809D01*
X170365380Y-122476714D01*
X170326333Y-122320523D01*
X170326333Y-122203380D01*
X170365380Y-122047190D01*
X170404428Y-121969095D01*
X170482523Y-121891000D01*
X170599666Y-121851952D01*
X170677761Y-121851952D01*
X170794904Y-121891000D01*
X170833952Y-121930047D01*
X171575857Y-122671952D02*
X171185380Y-122671952D01*
X171185380Y-121851952D01*
X171849190Y-122671952D02*
X171849190Y-121851952D01*
X172317761Y-122671952D02*
X171966333Y-122203380D01*
X172317761Y-121851952D02*
X171849190Y-122320523D01*
X167807380Y-125231904D02*
X167924523Y-125270952D01*
X168119761Y-125270952D01*
X168197857Y-125231904D01*
X168236904Y-125192857D01*
X168275952Y-125114761D01*
X168275952Y-125036666D01*
X168236904Y-124958571D01*
X168197857Y-124919523D01*
X168119761Y-124880476D01*
X167963571Y-124841428D01*
X167885476Y-124802380D01*
X167846428Y-124763333D01*
X167807380Y-124685238D01*
X167807380Y-124607142D01*
X167846428Y-124529047D01*
X167885476Y-124490000D01*
X167963571Y-124450952D01*
X168158809Y-124450952D01*
X168275952Y-124490000D01*
X168549285Y-124450952D02*
X168744523Y-125270952D01*
X168900714Y-124685238D01*
X169056904Y-125270952D01*
X169252142Y-124450952D01*
X169564523Y-125270952D02*
X169564523Y-124450952D01*
X169759761Y-124450952D01*
X169876904Y-124490000D01*
X169955000Y-124568095D01*
X169994047Y-124646190D01*
X170033095Y-124802380D01*
X170033095Y-124919523D01*
X169994047Y-125075714D01*
X169955000Y-125153809D01*
X169876904Y-125231904D01*
X169759761Y-125270952D01*
X169564523Y-125270952D01*
X170384523Y-125270952D02*
X170384523Y-124450952D01*
X170931190Y-124450952D02*
X171087380Y-124450952D01*
X171165476Y-124490000D01*
X171243571Y-124568095D01*
X171282619Y-124724285D01*
X171282619Y-124997619D01*
X171243571Y-125153809D01*
X171165476Y-125231904D01*
X171087380Y-125270952D01*
X170931190Y-125270952D01*
X170853095Y-125231904D01*
X170775000Y-125153809D01*
X170735952Y-124997619D01*
X170735952Y-124724285D01*
X170775000Y-124568095D01*
X170853095Y-124490000D01*
X170931190Y-124450952D01*
X167855238Y-119450952D02*
X168401904Y-120270952D01*
X168401904Y-119450952D02*
X167855238Y-120270952D01*
X169182857Y-120270952D02*
X168909523Y-119880476D01*
X168714285Y-120270952D02*
X168714285Y-119450952D01*
X169026666Y-119450952D01*
X169104761Y-119490000D01*
X169143809Y-119529047D01*
X169182857Y-119607142D01*
X169182857Y-119724285D01*
X169143809Y-119802380D01*
X169104761Y-119841428D01*
X169026666Y-119880476D01*
X168714285Y-119880476D01*
X169534285Y-119841428D02*
X169807619Y-119841428D01*
X169924761Y-120270952D02*
X169534285Y-120270952D01*
X169534285Y-119450952D01*
X169924761Y-119450952D01*
X170237142Y-120231904D02*
X170354285Y-120270952D01*
X170549523Y-120270952D01*
X170627619Y-120231904D01*
X170666666Y-120192857D01*
X170705714Y-120114761D01*
X170705714Y-120036666D01*
X170666666Y-119958571D01*
X170627619Y-119919523D01*
X170549523Y-119880476D01*
X170393333Y-119841428D01*
X170315238Y-119802380D01*
X170276190Y-119763333D01*
X170237142Y-119685238D01*
X170237142Y-119607142D01*
X170276190Y-119529047D01*
X170315238Y-119490000D01*
X170393333Y-119450952D01*
X170588571Y-119450952D01*
X170705714Y-119490000D01*
X168375238Y-116890000D02*
X168297142Y-116850952D01*
X168180000Y-116850952D01*
X168062857Y-116890000D01*
X167984761Y-116968095D01*
X167945714Y-117046190D01*
X167906666Y-117202380D01*
X167906666Y-117319523D01*
X167945714Y-117475714D01*
X167984761Y-117553809D01*
X168062857Y-117631904D01*
X168180000Y-117670952D01*
X168258095Y-117670952D01*
X168375238Y-117631904D01*
X168414285Y-117592857D01*
X168414285Y-117319523D01*
X168258095Y-117319523D01*
X168765714Y-117670952D02*
X168765714Y-116850952D01*
X169234285Y-117670952D01*
X169234285Y-116850952D01*
X169624761Y-117670952D02*
X169624761Y-116850952D01*
X169820000Y-116850952D01*
X169937142Y-116890000D01*
X170015238Y-116968095D01*
X170054285Y-117046190D01*
X170093333Y-117202380D01*
X170093333Y-117319523D01*
X170054285Y-117475714D01*
X170015238Y-117553809D01*
X169937142Y-117631904D01*
X169820000Y-117670952D01*
X169624761Y-117670952D01*
X167996666Y-114350952D02*
X168270000Y-115170952D01*
X168543333Y-114350952D01*
X168816666Y-115170952D02*
X168816666Y-114350952D01*
X169011904Y-114350952D01*
X169129047Y-114390000D01*
X169207142Y-114468095D01*
X169246190Y-114546190D01*
X169285238Y-114702380D01*
X169285238Y-114819523D01*
X169246190Y-114975714D01*
X169207142Y-115053809D01*
X169129047Y-115131904D01*
X169011904Y-115170952D01*
X168816666Y-115170952D01*
X169636666Y-115170952D02*
X169636666Y-114350952D01*
X169831904Y-114350952D01*
X169949047Y-114390000D01*
X170027142Y-114468095D01*
X170066190Y-114546190D01*
X170105238Y-114702380D01*
X170105238Y-114819523D01*
X170066190Y-114975714D01*
X170027142Y-115053809D01*
X169949047Y-115131904D01*
X169831904Y-115170952D01*
X169636666Y-115170952D01*
X170456666Y-115170952D02*
X170456666Y-114350952D01*
X170651904Y-114350952D01*
X170769047Y-114390000D01*
X170847142Y-114468095D01*
X170886190Y-114546190D01*
X170925238Y-114702380D01*
X170925238Y-114819523D01*
X170886190Y-114975714D01*
X170847142Y-115053809D01*
X170769047Y-115131904D01*
X170651904Y-115170952D01*
X170456666Y-115170952D01*
X155196666Y-114250952D02*
X155470000Y-115070952D01*
X155743333Y-114250952D01*
X156016666Y-115070952D02*
X156016666Y-114250952D01*
X156211904Y-114250952D01*
X156329047Y-114290000D01*
X156407142Y-114368095D01*
X156446190Y-114446190D01*
X156485238Y-114602380D01*
X156485238Y-114719523D01*
X156446190Y-114875714D01*
X156407142Y-114953809D01*
X156329047Y-115031904D01*
X156211904Y-115070952D01*
X156016666Y-115070952D01*
X156836666Y-115070952D02*
X156836666Y-114250952D01*
X157031904Y-114250952D01*
X157149047Y-114290000D01*
X157227142Y-114368095D01*
X157266190Y-114446190D01*
X157305238Y-114602380D01*
X157305238Y-114719523D01*
X157266190Y-114875714D01*
X157227142Y-114953809D01*
X157149047Y-115031904D01*
X157031904Y-115070952D01*
X156836666Y-115070952D01*
X157656666Y-115070952D02*
X157656666Y-114250952D01*
X157851904Y-114250952D01*
X157969047Y-114290000D01*
X158047142Y-114368095D01*
X158086190Y-114446190D01*
X158125238Y-114602380D01*
X158125238Y-114719523D01*
X158086190Y-114875714D01*
X158047142Y-114953809D01*
X157969047Y-115031904D01*
X157851904Y-115070952D01*
X157656666Y-115070952D01*
X156375238Y-116890000D02*
X156297142Y-116850952D01*
X156180000Y-116850952D01*
X156062857Y-116890000D01*
X155984761Y-116968095D01*
X155945714Y-117046190D01*
X155906666Y-117202380D01*
X155906666Y-117319523D01*
X155945714Y-117475714D01*
X155984761Y-117553809D01*
X156062857Y-117631904D01*
X156180000Y-117670952D01*
X156258095Y-117670952D01*
X156375238Y-117631904D01*
X156414285Y-117592857D01*
X156414285Y-117319523D01*
X156258095Y-117319523D01*
X156765714Y-117670952D02*
X156765714Y-116850952D01*
X157234285Y-117670952D01*
X157234285Y-116850952D01*
X157624761Y-117670952D02*
X157624761Y-116850952D01*
X157820000Y-116850952D01*
X157937142Y-116890000D01*
X158015238Y-116968095D01*
X158054285Y-117046190D01*
X158093333Y-117202380D01*
X158093333Y-117319523D01*
X158054285Y-117475714D01*
X158015238Y-117553809D01*
X157937142Y-117631904D01*
X157820000Y-117670952D01*
X157624761Y-117670952D01*
X155155238Y-119450952D02*
X155701904Y-120270952D01*
X155701904Y-119450952D02*
X155155238Y-120270952D01*
X156482857Y-120270952D02*
X156209523Y-119880476D01*
X156014285Y-120270952D02*
X156014285Y-119450952D01*
X156326666Y-119450952D01*
X156404761Y-119490000D01*
X156443809Y-119529047D01*
X156482857Y-119607142D01*
X156482857Y-119724285D01*
X156443809Y-119802380D01*
X156404761Y-119841428D01*
X156326666Y-119880476D01*
X156014285Y-119880476D01*
X156834285Y-119841428D02*
X157107619Y-119841428D01*
X157224761Y-120270952D02*
X156834285Y-120270952D01*
X156834285Y-119450952D01*
X157224761Y-119450952D01*
X157537142Y-120231904D02*
X157654285Y-120270952D01*
X157849523Y-120270952D01*
X157927619Y-120231904D01*
X157966666Y-120192857D01*
X158005714Y-120114761D01*
X158005714Y-120036666D01*
X157966666Y-119958571D01*
X157927619Y-119919523D01*
X157849523Y-119880476D01*
X157693333Y-119841428D01*
X157615238Y-119802380D01*
X157576190Y-119763333D01*
X157537142Y-119685238D01*
X157537142Y-119607142D01*
X157576190Y-119529047D01*
X157615238Y-119490000D01*
X157693333Y-119450952D01*
X157888571Y-119450952D01*
X158005714Y-119490000D01*
X154472380Y-125131904D02*
X154589523Y-125170952D01*
X154784761Y-125170952D01*
X154862857Y-125131904D01*
X154901904Y-125092857D01*
X154940952Y-125014761D01*
X154940952Y-124936666D01*
X154901904Y-124858571D01*
X154862857Y-124819523D01*
X154784761Y-124780476D01*
X154628571Y-124741428D01*
X154550476Y-124702380D01*
X154511428Y-124663333D01*
X154472380Y-124585238D01*
X154472380Y-124507142D01*
X154511428Y-124429047D01*
X154550476Y-124390000D01*
X154628571Y-124350952D01*
X154823809Y-124350952D01*
X154940952Y-124390000D01*
X155214285Y-124350952D02*
X155409523Y-125170952D01*
X155565714Y-124585238D01*
X155721904Y-125170952D01*
X155917142Y-124350952D01*
X156229523Y-125170952D02*
X156229523Y-124350952D01*
X156424761Y-124350952D01*
X156541904Y-124390000D01*
X156620000Y-124468095D01*
X156659047Y-124546190D01*
X156698095Y-124702380D01*
X156698095Y-124819523D01*
X156659047Y-124975714D01*
X156620000Y-125053809D01*
X156541904Y-125131904D01*
X156424761Y-125170952D01*
X156229523Y-125170952D01*
X157049523Y-125170952D02*
X157049523Y-124350952D01*
X157596190Y-124350952D02*
X157752380Y-124350952D01*
X157830476Y-124390000D01*
X157908571Y-124468095D01*
X157947619Y-124624285D01*
X157947619Y-124897619D01*
X157908571Y-125053809D01*
X157830476Y-125131904D01*
X157752380Y-125170952D01*
X157596190Y-125170952D01*
X157518095Y-125131904D01*
X157440000Y-125053809D01*
X157400952Y-124897619D01*
X157400952Y-124624285D01*
X157440000Y-124468095D01*
X157518095Y-124390000D01*
X157596190Y-124350952D01*
X153437238Y-122631904D02*
X153554380Y-122670952D01*
X153749619Y-122670952D01*
X153827714Y-122631904D01*
X153866761Y-122592857D01*
X153905809Y-122514761D01*
X153905809Y-122436666D01*
X153866761Y-122358571D01*
X153827714Y-122319523D01*
X153749619Y-122280476D01*
X153593428Y-122241428D01*
X153515333Y-122202380D01*
X153476285Y-122163333D01*
X153437238Y-122085238D01*
X153437238Y-122007142D01*
X153476285Y-121929047D01*
X153515333Y-121890000D01*
X153593428Y-121850952D01*
X153788666Y-121850952D01*
X153905809Y-121890000D01*
X154179142Y-121850952D02*
X154374380Y-122670952D01*
X154530571Y-122085238D01*
X154686761Y-122670952D01*
X154882000Y-121850952D01*
X155194380Y-122670952D02*
X155194380Y-121850952D01*
X155389619Y-121850952D01*
X155506761Y-121890000D01*
X155584857Y-121968095D01*
X155623904Y-122046190D01*
X155662952Y-122202380D01*
X155662952Y-122319523D01*
X155623904Y-122475714D01*
X155584857Y-122553809D01*
X155506761Y-122631904D01*
X155389619Y-122670952D01*
X155194380Y-122670952D01*
X156482952Y-122592857D02*
X156443904Y-122631904D01*
X156326761Y-122670952D01*
X156248666Y-122670952D01*
X156131523Y-122631904D01*
X156053428Y-122553809D01*
X156014380Y-122475714D01*
X155975333Y-122319523D01*
X155975333Y-122202380D01*
X156014380Y-122046190D01*
X156053428Y-121968095D01*
X156131523Y-121890000D01*
X156248666Y-121850952D01*
X156326761Y-121850952D01*
X156443904Y-121890000D01*
X156482952Y-121929047D01*
X157224857Y-122670952D02*
X156834380Y-122670952D01*
X156834380Y-121850952D01*
X157498190Y-122670952D02*
X157498190Y-121850952D01*
X157966761Y-122670952D02*
X157615333Y-122202380D01*
X157966761Y-121850952D02*
X157498190Y-122319523D01*
D15*
G04 #@! TO.C,C5*
X230990000Y-124337221D02*
X230990000Y-124662779D01*
X232010000Y-124337221D02*
X232010000Y-124662779D01*
G04 #@! TO.C,C6*
X249010000Y-124337221D02*
X249010000Y-124662779D01*
X247990000Y-124337221D02*
X247990000Y-124662779D01*
G04 #@! TO.C,C8*
X232010000Y-143662779D02*
X232010000Y-143337221D01*
X230990000Y-143662779D02*
X230990000Y-143337221D01*
G04 #@! TO.C,C9*
X253087221Y-132990000D02*
X253412779Y-132990000D01*
X253087221Y-134010000D02*
X253412779Y-134010000D01*
G04 #@! TO.C,C10*
X256337221Y-134010000D02*
X256662779Y-134010000D01*
X256337221Y-132990000D02*
X256662779Y-132990000D01*
G04 #@! TO.C,C11*
X253087221Y-130510000D02*
X253412779Y-130510000D01*
X253087221Y-129490000D02*
X253412779Y-129490000D01*
G04 #@! TO.C,C12*
X256337221Y-129490000D02*
X256662779Y-129490000D01*
X256337221Y-130510000D02*
X256662779Y-130510000D01*
G04 #@! TO.C,C13*
X253087221Y-125990000D02*
X253412779Y-125990000D01*
X253087221Y-127010000D02*
X253412779Y-127010000D01*
G04 #@! TO.C,C14*
X256337221Y-127010000D02*
X256662779Y-127010000D01*
X256337221Y-125990000D02*
X256662779Y-125990000D01*
G04 #@! TO.C,C15*
X252240000Y-147337221D02*
X252240000Y-147662779D01*
X253260000Y-147337221D02*
X253260000Y-147662779D01*
G04 #@! TO.C,C16*
X209912779Y-80260000D02*
X209587221Y-80260000D01*
X209912779Y-79240000D02*
X209587221Y-79240000D01*
G04 #@! TO.C,C18*
X206412779Y-79240000D02*
X206087221Y-79240000D01*
X206412779Y-80260000D02*
X206087221Y-80260000D01*
G04 #@! TO.C,C19*
X206412779Y-126875000D02*
X206087221Y-126875000D01*
X206412779Y-125855000D02*
X206087221Y-125855000D01*
G04 #@! TO.C,C21*
X209912779Y-126875000D02*
X209587221Y-126875000D01*
X209912779Y-125855000D02*
X209587221Y-125855000D01*
G04 #@! TO.C,C22*
X250260000Y-147337221D02*
X250260000Y-147662779D01*
X249240000Y-147337221D02*
X249240000Y-147662779D01*
G04 #@! TO.C,C23*
X209912779Y-76240000D02*
X209587221Y-76240000D01*
X209912779Y-77260000D02*
X209587221Y-77260000D01*
G04 #@! TO.C,C25*
X206412779Y-77260000D02*
X206087221Y-77260000D01*
X206412779Y-76240000D02*
X206087221Y-76240000D01*
G04 #@! TO.C,C26*
X206412779Y-122680000D02*
X206087221Y-122680000D01*
X206412779Y-123700000D02*
X206087221Y-123700000D01*
G04 #@! TO.C,C28*
X209912779Y-122680000D02*
X209587221Y-122680000D01*
X209912779Y-123700000D02*
X209587221Y-123700000D01*
G04 #@! TO.C,C29*
X246240000Y-147337221D02*
X246240000Y-147662779D01*
X247260000Y-147337221D02*
X247260000Y-147662779D01*
G04 #@! TO.C,C30*
X209912779Y-74260000D02*
X209587221Y-74260000D01*
X209912779Y-73240000D02*
X209587221Y-73240000D01*
G04 #@! TO.C,C32*
X206412779Y-74260000D02*
X206087221Y-74260000D01*
X206412779Y-73240000D02*
X206087221Y-73240000D01*
G04 #@! TO.C,C33*
X206412779Y-120525000D02*
X206087221Y-120525000D01*
X206412779Y-119505000D02*
X206087221Y-119505000D01*
G04 #@! TO.C,C35*
X209912779Y-120525000D02*
X209587221Y-120525000D01*
X209912779Y-119505000D02*
X209587221Y-119505000D01*
G04 #@! TO.C,C36*
X244452000Y-122161779D02*
X244452000Y-121836221D01*
X245472000Y-122161779D02*
X245472000Y-121836221D01*
G04 #@! TO.C,C37*
X244452000Y-118661779D02*
X244452000Y-118336221D01*
X245472000Y-118661779D02*
X245472000Y-118336221D01*
G04 #@! TO.C,C38*
X241972000Y-122161779D02*
X241972000Y-121836221D01*
X240952000Y-122161779D02*
X240952000Y-121836221D01*
G04 #@! TO.C,C39*
X241972000Y-118661779D02*
X241972000Y-118336221D01*
X240952000Y-118661779D02*
X240952000Y-118336221D01*
G04 #@! TO.C,C40*
X237452000Y-122161779D02*
X237452000Y-121836221D01*
X238472000Y-122161779D02*
X238472000Y-121836221D01*
G04 #@! TO.C,C41*
X237452000Y-118661779D02*
X237452000Y-118336221D01*
X238472000Y-118661779D02*
X238472000Y-118336221D01*
G04 #@! TO.C,C42*
X190087221Y-126875000D02*
X190412779Y-126875000D01*
X190087221Y-125855000D02*
X190412779Y-125855000D01*
G04 #@! TO.C,C44*
X193587221Y-126875000D02*
X193912779Y-126875000D01*
X193587221Y-125855000D02*
X193912779Y-125855000D01*
G04 #@! TO.C,C45*
X190087221Y-122680000D02*
X190412779Y-122680000D01*
X190087221Y-123700000D02*
X190412779Y-123700000D01*
G04 #@! TO.C,C47*
X193587221Y-122680000D02*
X193912779Y-122680000D01*
X193587221Y-123700000D02*
X193912779Y-123700000D01*
G04 #@! TO.C,C48*
X193549721Y-80260000D02*
X193875279Y-80260000D01*
X193549721Y-79240000D02*
X193875279Y-79240000D01*
G04 #@! TO.C,C50*
X190087221Y-80260000D02*
X190412779Y-80260000D01*
X190087221Y-79240000D02*
X190412779Y-79240000D01*
G04 #@! TO.C,C51*
X190087221Y-120525000D02*
X190412779Y-120525000D01*
X190087221Y-119505000D02*
X190412779Y-119505000D01*
G04 #@! TO.C,C53*
X193587221Y-120510000D02*
X193912779Y-120510000D01*
X193587221Y-119490000D02*
X193912779Y-119490000D01*
G04 #@! TO.C,C54*
X193549721Y-77260000D02*
X193875279Y-77260000D01*
X193549721Y-76240000D02*
X193875279Y-76240000D01*
G04 #@! TO.C,C56*
X190087221Y-76240000D02*
X190412779Y-76240000D01*
X190087221Y-77260000D02*
X190412779Y-77260000D01*
G04 #@! TO.C,C57*
X193549721Y-73240000D02*
X193875279Y-73240000D01*
X193549721Y-74260000D02*
X193875279Y-74260000D01*
G04 #@! TO.C,C59*
X190087221Y-74260000D02*
X190412779Y-74260000D01*
X190087221Y-73240000D02*
X190412779Y-73240000D01*
G04 #@! TO.C,FB1*
X252162779Y-143735000D02*
X251837221Y-143735000D01*
X252162779Y-144755000D02*
X251837221Y-144755000D01*
G04 #@! TO.C,FB2*
X206412779Y-82240000D02*
X206087221Y-82240000D01*
X206412779Y-83260000D02*
X206087221Y-83260000D01*
G04 #@! TO.C,FB3*
X206412779Y-116330000D02*
X206087221Y-116330000D01*
X206412779Y-117350000D02*
X206087221Y-117350000D01*
G04 #@! TO.C,FB4*
X234490000Y-120412779D02*
X234490000Y-120087221D01*
X235510000Y-120412779D02*
X235510000Y-120087221D01*
G04 #@! TO.C,FB5*
X193587221Y-116240000D02*
X193912779Y-116240000D01*
X193587221Y-117260000D02*
X193912779Y-117260000D01*
G04 #@! TO.C,FB6*
X193587221Y-82240000D02*
X193912779Y-82240000D01*
X193587221Y-83260000D02*
X193912779Y-83260000D01*
G04 #@! TO.C,R1*
X175732221Y-99185000D02*
X176057779Y-99185000D01*
X175732221Y-100205000D02*
X176057779Y-100205000D01*
G04 #@! TO.C,R2*
X171922221Y-100205000D02*
X172247779Y-100205000D01*
X171922221Y-99185000D02*
X172247779Y-99185000D01*
G04 #@! TO.C,R3*
X253260000Y-139337221D02*
X253260000Y-139662779D01*
X252240000Y-139337221D02*
X252240000Y-139662779D01*
G04 #@! TO.C,R4*
X251837221Y-142755000D02*
X252162779Y-142755000D01*
X251837221Y-141735000D02*
X252162779Y-141735000D01*
G04 #@! TO.C,R5*
X228010000Y-131450279D02*
X228010000Y-131124721D01*
X226990000Y-131450279D02*
X226990000Y-131124721D01*
G04 #@! TO.C,R6*
X225010000Y-131450279D02*
X225010000Y-131124721D01*
X223990000Y-131450279D02*
X223990000Y-131124721D01*
G04 #@! TO.C,R7*
X222010000Y-131049721D02*
X222010000Y-131375279D01*
X220990000Y-131049721D02*
X220990000Y-131375279D01*
G04 #@! TO.C,CPU1*
X232890000Y-140410000D02*
X232890000Y-141110000D01*
X232890000Y-141110000D02*
X233590000Y-141110000D01*
X232890000Y-127590000D02*
X232890000Y-126890000D01*
X232890000Y-126890000D02*
X233590000Y-126890000D01*
X247110000Y-127590000D02*
X247110000Y-126890000D01*
X247110000Y-126890000D02*
X246410000Y-126890000D01*
X247110000Y-140410000D02*
X247110000Y-141110000D01*
X247110000Y-141110000D02*
X246410000Y-141110000D01*
X233590000Y-141110000D02*
X233590000Y-142400000D01*
D11*
G04 #@! TO.C,USB1*
X259925000Y-146695000D02*
X259925000Y-146945000D01*
X259925000Y-136845000D02*
X259925000Y-136595000D01*
X259925000Y-146145000D02*
X259925000Y-146395000D01*
X259925000Y-137395000D02*
X259925000Y-137145000D01*
X254725000Y-145745000D02*
X254725000Y-137745000D01*
X259875000Y-145745000D02*
X259475000Y-145745000D01*
X259875000Y-137745000D02*
X259475000Y-137745000D01*
X259925000Y-145745000D02*
X259925000Y-137745000D01*
G04 #@! TO.C,SOCKET1*
X186525000Y-88430000D02*
G75*
G03X186525000Y-88430000I-500000J0D01*
G01*
X184525000Y-115430000D02*
X189525000Y-115430000D01*
X184525000Y-115430000D02*
X184525000Y-110430000D01*
X215525000Y-115430000D02*
X210525000Y-115430000D01*
X215525000Y-115430000D02*
X215525000Y-110430000D01*
X215525000Y-84430000D02*
X210525000Y-84430000D01*
X215525000Y-84430000D02*
X215525000Y-89430000D01*
X184525000Y-84430000D02*
X184525000Y-89430000D01*
X184525000Y-84430000D02*
X190025000Y-84430000D01*
G04 #@! TO.C,MUX1*
X217375000Y-77875000D02*
X217375000Y-78300000D01*
X224625000Y-77875000D02*
X224625000Y-78400000D01*
X224625000Y-85125000D02*
X224625000Y-84600000D01*
X217375000Y-85125000D02*
X217375000Y-84600000D01*
X217375000Y-77875000D02*
X217900000Y-77875000D01*
X217375000Y-85125000D02*
X217900000Y-85125000D01*
X224625000Y-85125000D02*
X224100000Y-85125000D01*
X224625000Y-77875000D02*
X224100000Y-77875000D01*
X217375000Y-78300000D02*
X216000000Y-78300000D01*
G04 #@! TO.C,MUX2*
X175375000Y-85625000D02*
X175800000Y-85625000D01*
X175375000Y-78375000D02*
X175900000Y-78375000D01*
X182625000Y-78375000D02*
X182100000Y-78375000D01*
X182625000Y-85625000D02*
X182100000Y-85625000D01*
X175375000Y-85625000D02*
X175375000Y-85100000D01*
X182625000Y-85625000D02*
X182625000Y-85100000D01*
X182625000Y-78375000D02*
X182625000Y-78900000D01*
X175375000Y-78375000D02*
X175375000Y-78900000D01*
X175800000Y-85625000D02*
X175800000Y-87000000D01*
G04 #@! TO.C,MUX3*
X224625000Y-114375000D02*
X224200000Y-114375000D01*
X224625000Y-121625000D02*
X224100000Y-121625000D01*
X217375000Y-121625000D02*
X217900000Y-121625000D01*
X217375000Y-114375000D02*
X217900000Y-114375000D01*
X224625000Y-114375000D02*
X224625000Y-114900000D01*
X217375000Y-114375000D02*
X217375000Y-114900000D01*
X217375000Y-121625000D02*
X217375000Y-121100000D01*
X224625000Y-121625000D02*
X224625000Y-121100000D01*
X224200000Y-114375000D02*
X224200000Y-113000000D01*
G04 #@! TO.C,MUX4*
X182625000Y-121625000D02*
X182625000Y-121200000D01*
X175375000Y-121625000D02*
X175375000Y-121100000D01*
X175375000Y-114375000D02*
X175375000Y-114900000D01*
X182625000Y-114375000D02*
X182625000Y-114900000D01*
X182625000Y-121625000D02*
X182100000Y-121625000D01*
X182625000Y-114375000D02*
X182100000Y-114375000D01*
X175375000Y-114375000D02*
X175900000Y-114375000D01*
X175375000Y-121625000D02*
X175900000Y-121625000D01*
X182625000Y-121200000D02*
X184000000Y-121200000D01*
D15*
G04 #@! TO.C,PROG1*
X165600000Y-126160000D02*
X160400000Y-126160000D01*
X165600000Y-113340000D02*
X160400000Y-113340000D01*
X167040000Y-125590000D02*
X165600000Y-125590000D01*
X165600000Y-126160000D02*
X165600000Y-125590000D01*
X160400000Y-126160000D02*
X160400000Y-125590000D01*
X165600000Y-113910000D02*
X165600000Y-113340000D01*
X160400000Y-113910000D02*
X160400000Y-113340000D01*
X165600000Y-124070000D02*
X165600000Y-123050000D01*
X160400000Y-124070000D02*
X160400000Y-123050000D01*
X165600000Y-121530000D02*
X165600000Y-120510000D01*
X160400000Y-121530000D02*
X160400000Y-120510000D01*
X165600000Y-118990000D02*
X165600000Y-117970000D01*
X160400000Y-118990000D02*
X160400000Y-117970000D01*
X165600000Y-116450000D02*
X165600000Y-115430000D01*
X160400000Y-116450000D02*
X160400000Y-115430000D01*
G04 #@! TO.C,OUT1*
X248830000Y-104760000D02*
X243630000Y-104760000D01*
X248830000Y-79240000D02*
X243630000Y-79240000D01*
X250270000Y-104190000D02*
X248830000Y-104190000D01*
X248830000Y-104760000D02*
X248830000Y-104190000D01*
X243630000Y-104760000D02*
X243630000Y-104190000D01*
X248830000Y-79810000D02*
X248830000Y-79240000D01*
X243630000Y-79810000D02*
X243630000Y-79240000D01*
X248830000Y-102670000D02*
X248830000Y-101650000D01*
X243630000Y-102670000D02*
X243630000Y-101650000D01*
X248830000Y-100130000D02*
X248830000Y-99110000D01*
X243630000Y-100130000D02*
X243630000Y-99110000D01*
X248830000Y-97590000D02*
X248830000Y-96570000D01*
X243630000Y-97590000D02*
X243630000Y-96570000D01*
X248830000Y-95050000D02*
X248830000Y-94030000D01*
X243630000Y-95050000D02*
X243630000Y-94030000D01*
X248830000Y-92510000D02*
X248830000Y-91490000D01*
X243630000Y-92510000D02*
X243630000Y-91490000D01*
X248830000Y-89970000D02*
X248830000Y-88950000D01*
X243630000Y-89970000D02*
X243630000Y-88950000D01*
X248830000Y-87430000D02*
X248830000Y-86410000D01*
X243630000Y-87430000D02*
X243630000Y-86410000D01*
X248830000Y-84890000D02*
X248830000Y-83870000D01*
X243630000Y-84890000D02*
X243630000Y-83870000D01*
X248830000Y-82350000D02*
X248830000Y-81330000D01*
X243630000Y-82350000D02*
X243630000Y-81330000D01*
G04 #@! TO.C,B1*
X176303760Y-136530775D02*
X176303760Y-135510775D01*
X181503760Y-136530775D02*
X181503760Y-135510775D01*
X176303760Y-139070775D02*
X176303760Y-138050775D01*
X181503760Y-139070775D02*
X181503760Y-138050775D01*
X176303760Y-141610775D02*
X176303760Y-140590775D01*
X181503760Y-141610775D02*
X181503760Y-140590775D01*
X176303760Y-133990775D02*
X176303760Y-133420775D01*
X181503760Y-133990775D02*
X181503760Y-133420775D01*
X176303760Y-143700775D02*
X176303760Y-143130775D01*
X181503760Y-143700775D02*
X181503760Y-143130775D01*
X182943760Y-143130775D02*
X181503760Y-143130775D01*
X181503760Y-133420775D02*
X176303760Y-133420775D01*
X181503760Y-143700775D02*
X176303760Y-143700775D01*
G04 #@! TO.C,PROG2*
X160400000Y-132270000D02*
X165600000Y-132270000D01*
X160400000Y-145090000D02*
X165600000Y-145090000D01*
X158960000Y-132840000D02*
X160400000Y-132840000D01*
X160400000Y-132270000D02*
X160400000Y-132840000D01*
X165600000Y-132270000D02*
X165600000Y-132840000D01*
X160400000Y-144520000D02*
X160400000Y-145090000D01*
X165600000Y-144520000D02*
X165600000Y-145090000D01*
X160400000Y-134360000D02*
X160400000Y-135380000D01*
X165600000Y-134360000D02*
X165600000Y-135380000D01*
X160400000Y-136900000D02*
X160400000Y-137920000D01*
X165600000Y-136900000D02*
X165600000Y-137920000D01*
X160400000Y-139440000D02*
X160400000Y-140460000D01*
X165600000Y-139440000D02*
X165600000Y-140460000D01*
X160400000Y-141980000D02*
X160400000Y-143000000D01*
X165600000Y-141980000D02*
X165600000Y-143000000D01*
G04 #@! TO.C,AMP1*
X226110000Y-136400000D02*
X226110000Y-134600000D01*
X222890000Y-134600000D02*
X222890000Y-137050000D01*
G04 #@! TO.C,C60*
X228010000Y-135337221D02*
X228010000Y-135662779D01*
X226990000Y-135337221D02*
X226990000Y-135662779D01*
G04 #@! TO.C,CB1*
X228990000Y-127087221D02*
X228990000Y-127412779D01*
X230010000Y-127087221D02*
X230010000Y-127412779D01*
G04 #@! TO.C,CB2*
X232010000Y-120087221D02*
X232010000Y-120412779D01*
X230990000Y-120087221D02*
X230990000Y-120412779D01*
G04 #@! TO.C,RBT1*
X171222000Y-143342779D02*
X171222000Y-143017221D01*
X172242000Y-143342779D02*
X172242000Y-143017221D01*
G04 #@! TO.C,RBT2*
X171222000Y-139342779D02*
X171222000Y-139017221D01*
X172242000Y-139342779D02*
X172242000Y-139017221D01*
G04 #@! TO.C,RG1*
X236037221Y-143990000D02*
X236362779Y-143990000D01*
X236037221Y-145010000D02*
X236362779Y-145010000D01*
G04 #@! TO.C,C5*
D11*
X233287142Y-124666666D02*
X233334761Y-124714285D01*
X233382380Y-124857142D01*
X233382380Y-124952380D01*
X233334761Y-125095238D01*
X233239523Y-125190476D01*
X233144285Y-125238095D01*
X232953809Y-125285714D01*
X232810952Y-125285714D01*
X232620476Y-125238095D01*
X232525238Y-125190476D01*
X232430000Y-125095238D01*
X232382380Y-124952380D01*
X232382380Y-124857142D01*
X232430000Y-124714285D01*
X232477619Y-124666666D01*
X232382380Y-123761904D02*
X232382380Y-124238095D01*
X232858571Y-124285714D01*
X232810952Y-124238095D01*
X232763333Y-124142857D01*
X232763333Y-123904761D01*
X232810952Y-123809523D01*
X232858571Y-123761904D01*
X232953809Y-123714285D01*
X233191904Y-123714285D01*
X233287142Y-123761904D01*
X233334761Y-123809523D01*
X233382380Y-123904761D01*
X233382380Y-124142857D01*
X233334761Y-124238095D01*
X233287142Y-124285714D01*
G04 #@! TO.C,C6*
X250287142Y-124666666D02*
X250334761Y-124714285D01*
X250382380Y-124857142D01*
X250382380Y-124952380D01*
X250334761Y-125095238D01*
X250239523Y-125190476D01*
X250144285Y-125238095D01*
X249953809Y-125285714D01*
X249810952Y-125285714D01*
X249620476Y-125238095D01*
X249525238Y-125190476D01*
X249430000Y-125095238D01*
X249382380Y-124952380D01*
X249382380Y-124857142D01*
X249430000Y-124714285D01*
X249477619Y-124666666D01*
X249382380Y-123809523D02*
X249382380Y-124000000D01*
X249430000Y-124095238D01*
X249477619Y-124142857D01*
X249620476Y-124238095D01*
X249810952Y-124285714D01*
X250191904Y-124285714D01*
X250287142Y-124238095D01*
X250334761Y-124190476D01*
X250382380Y-124095238D01*
X250382380Y-123904761D01*
X250334761Y-123809523D01*
X250287142Y-123761904D01*
X250191904Y-123714285D01*
X249953809Y-123714285D01*
X249858571Y-123761904D01*
X249810952Y-123809523D01*
X249763333Y-123904761D01*
X249763333Y-124095238D01*
X249810952Y-124190476D01*
X249858571Y-124238095D01*
X249953809Y-124285714D01*
G04 #@! TO.C,C8*
X230427142Y-143666666D02*
X230474761Y-143714285D01*
X230522380Y-143857142D01*
X230522380Y-143952380D01*
X230474761Y-144095238D01*
X230379523Y-144190476D01*
X230284285Y-144238095D01*
X230093809Y-144285714D01*
X229950952Y-144285714D01*
X229760476Y-144238095D01*
X229665238Y-144190476D01*
X229570000Y-144095238D01*
X229522380Y-143952380D01*
X229522380Y-143857142D01*
X229570000Y-143714285D01*
X229617619Y-143666666D01*
X229950952Y-143095238D02*
X229903333Y-143190476D01*
X229855714Y-143238095D01*
X229760476Y-143285714D01*
X229712857Y-143285714D01*
X229617619Y-143238095D01*
X229570000Y-143190476D01*
X229522380Y-143095238D01*
X229522380Y-142904761D01*
X229570000Y-142809523D01*
X229617619Y-142761904D01*
X229712857Y-142714285D01*
X229760476Y-142714285D01*
X229855714Y-142761904D01*
X229903333Y-142809523D01*
X229950952Y-142904761D01*
X229950952Y-143095238D01*
X229998571Y-143190476D01*
X230046190Y-143238095D01*
X230141428Y-143285714D01*
X230331904Y-143285714D01*
X230427142Y-143238095D01*
X230474761Y-143190476D01*
X230522380Y-143095238D01*
X230522380Y-142904761D01*
X230474761Y-142809523D01*
X230427142Y-142761904D01*
X230331904Y-142714285D01*
X230141428Y-142714285D01*
X230046190Y-142761904D01*
X229998571Y-142809523D01*
X229950952Y-142904761D01*
G04 #@! TO.C,C9*
X253083333Y-132427142D02*
X253035714Y-132474761D01*
X252892857Y-132522380D01*
X252797619Y-132522380D01*
X252654761Y-132474761D01*
X252559523Y-132379523D01*
X252511904Y-132284285D01*
X252464285Y-132093809D01*
X252464285Y-131950952D01*
X252511904Y-131760476D01*
X252559523Y-131665238D01*
X252654761Y-131570000D01*
X252797619Y-131522380D01*
X252892857Y-131522380D01*
X253035714Y-131570000D01*
X253083333Y-131617619D01*
X253559523Y-132522380D02*
X253750000Y-132522380D01*
X253845238Y-132474761D01*
X253892857Y-132427142D01*
X253988095Y-132284285D01*
X254035714Y-132093809D01*
X254035714Y-131712857D01*
X253988095Y-131617619D01*
X253940476Y-131570000D01*
X253845238Y-131522380D01*
X253654761Y-131522380D01*
X253559523Y-131570000D01*
X253511904Y-131617619D01*
X253464285Y-131712857D01*
X253464285Y-131950952D01*
X253511904Y-132046190D01*
X253559523Y-132093809D01*
X253654761Y-132141428D01*
X253845238Y-132141428D01*
X253940476Y-132093809D01*
X253988095Y-132046190D01*
X254035714Y-131950952D01*
G04 #@! TO.C,C10*
X255857142Y-132427142D02*
X255809523Y-132474761D01*
X255666666Y-132522380D01*
X255571428Y-132522380D01*
X255428571Y-132474761D01*
X255333333Y-132379523D01*
X255285714Y-132284285D01*
X255238095Y-132093809D01*
X255238095Y-131950952D01*
X255285714Y-131760476D01*
X255333333Y-131665238D01*
X255428571Y-131570000D01*
X255571428Y-131522380D01*
X255666666Y-131522380D01*
X255809523Y-131570000D01*
X255857142Y-131617619D01*
X256809523Y-132522380D02*
X256238095Y-132522380D01*
X256523809Y-132522380D02*
X256523809Y-131522380D01*
X256428571Y-131665238D01*
X256333333Y-131760476D01*
X256238095Y-131808095D01*
X257428571Y-131522380D02*
X257523809Y-131522380D01*
X257619047Y-131570000D01*
X257666666Y-131617619D01*
X257714285Y-131712857D01*
X257761904Y-131903333D01*
X257761904Y-132141428D01*
X257714285Y-132331904D01*
X257666666Y-132427142D01*
X257619047Y-132474761D01*
X257523809Y-132522380D01*
X257428571Y-132522380D01*
X257333333Y-132474761D01*
X257285714Y-132427142D01*
X257238095Y-132331904D01*
X257190476Y-132141428D01*
X257190476Y-131903333D01*
X257238095Y-131712857D01*
X257285714Y-131617619D01*
X257333333Y-131570000D01*
X257428571Y-131522380D01*
G04 #@! TO.C,C11*
X252607142Y-128927142D02*
X252559523Y-128974761D01*
X252416666Y-129022380D01*
X252321428Y-129022380D01*
X252178571Y-128974761D01*
X252083333Y-128879523D01*
X252035714Y-128784285D01*
X251988095Y-128593809D01*
X251988095Y-128450952D01*
X252035714Y-128260476D01*
X252083333Y-128165238D01*
X252178571Y-128070000D01*
X252321428Y-128022380D01*
X252416666Y-128022380D01*
X252559523Y-128070000D01*
X252607142Y-128117619D01*
X253559523Y-129022380D02*
X252988095Y-129022380D01*
X253273809Y-129022380D02*
X253273809Y-128022380D01*
X253178571Y-128165238D01*
X253083333Y-128260476D01*
X252988095Y-128308095D01*
X254511904Y-129022380D02*
X253940476Y-129022380D01*
X254226190Y-129022380D02*
X254226190Y-128022380D01*
X254130952Y-128165238D01*
X254035714Y-128260476D01*
X253940476Y-128308095D01*
G04 #@! TO.C,C12*
X255857142Y-128927142D02*
X255809523Y-128974761D01*
X255666666Y-129022380D01*
X255571428Y-129022380D01*
X255428571Y-128974761D01*
X255333333Y-128879523D01*
X255285714Y-128784285D01*
X255238095Y-128593809D01*
X255238095Y-128450952D01*
X255285714Y-128260476D01*
X255333333Y-128165238D01*
X255428571Y-128070000D01*
X255571428Y-128022380D01*
X255666666Y-128022380D01*
X255809523Y-128070000D01*
X255857142Y-128117619D01*
X256809523Y-129022380D02*
X256238095Y-129022380D01*
X256523809Y-129022380D02*
X256523809Y-128022380D01*
X256428571Y-128165238D01*
X256333333Y-128260476D01*
X256238095Y-128308095D01*
X257190476Y-128117619D02*
X257238095Y-128070000D01*
X257333333Y-128022380D01*
X257571428Y-128022380D01*
X257666666Y-128070000D01*
X257714285Y-128117619D01*
X257761904Y-128212857D01*
X257761904Y-128308095D01*
X257714285Y-128450952D01*
X257142857Y-129022380D01*
X257761904Y-129022380D01*
G04 #@! TO.C,C13*
X252607142Y-125427142D02*
X252559523Y-125474761D01*
X252416666Y-125522380D01*
X252321428Y-125522380D01*
X252178571Y-125474761D01*
X252083333Y-125379523D01*
X252035714Y-125284285D01*
X251988095Y-125093809D01*
X251988095Y-124950952D01*
X252035714Y-124760476D01*
X252083333Y-124665238D01*
X252178571Y-124570000D01*
X252321428Y-124522380D01*
X252416666Y-124522380D01*
X252559523Y-124570000D01*
X252607142Y-124617619D01*
X253559523Y-125522380D02*
X252988095Y-125522380D01*
X253273809Y-125522380D02*
X253273809Y-124522380D01*
X253178571Y-124665238D01*
X253083333Y-124760476D01*
X252988095Y-124808095D01*
X253892857Y-124522380D02*
X254511904Y-124522380D01*
X254178571Y-124903333D01*
X254321428Y-124903333D01*
X254416666Y-124950952D01*
X254464285Y-124998571D01*
X254511904Y-125093809D01*
X254511904Y-125331904D01*
X254464285Y-125427142D01*
X254416666Y-125474761D01*
X254321428Y-125522380D01*
X254035714Y-125522380D01*
X253940476Y-125474761D01*
X253892857Y-125427142D01*
G04 #@! TO.C,C14*
X255857142Y-125427142D02*
X255809523Y-125474761D01*
X255666666Y-125522380D01*
X255571428Y-125522380D01*
X255428571Y-125474761D01*
X255333333Y-125379523D01*
X255285714Y-125284285D01*
X255238095Y-125093809D01*
X255238095Y-124950952D01*
X255285714Y-124760476D01*
X255333333Y-124665238D01*
X255428571Y-124570000D01*
X255571428Y-124522380D01*
X255666666Y-124522380D01*
X255809523Y-124570000D01*
X255857142Y-124617619D01*
X256809523Y-125522380D02*
X256238095Y-125522380D01*
X256523809Y-125522380D02*
X256523809Y-124522380D01*
X256428571Y-124665238D01*
X256333333Y-124760476D01*
X256238095Y-124808095D01*
X257666666Y-124855714D02*
X257666666Y-125522380D01*
X257428571Y-124474761D02*
X257190476Y-125189047D01*
X257809523Y-125189047D01*
G04 #@! TO.C,C15*
X251677142Y-148142857D02*
X251724761Y-148190476D01*
X251772380Y-148333333D01*
X251772380Y-148428571D01*
X251724761Y-148571428D01*
X251629523Y-148666666D01*
X251534285Y-148714285D01*
X251343809Y-148761904D01*
X251200952Y-148761904D01*
X251010476Y-148714285D01*
X250915238Y-148666666D01*
X250820000Y-148571428D01*
X250772380Y-148428571D01*
X250772380Y-148333333D01*
X250820000Y-148190476D01*
X250867619Y-148142857D01*
X251772380Y-147190476D02*
X251772380Y-147761904D01*
X251772380Y-147476190D02*
X250772380Y-147476190D01*
X250915238Y-147571428D01*
X251010476Y-147666666D01*
X251058095Y-147761904D01*
X250772380Y-146285714D02*
X250772380Y-146761904D01*
X251248571Y-146809523D01*
X251200952Y-146761904D01*
X251153333Y-146666666D01*
X251153333Y-146428571D01*
X251200952Y-146333333D01*
X251248571Y-146285714D01*
X251343809Y-146238095D01*
X251581904Y-146238095D01*
X251677142Y-146285714D01*
X251724761Y-146333333D01*
X251772380Y-146428571D01*
X251772380Y-146666666D01*
X251724761Y-146761904D01*
X251677142Y-146809523D01*
G04 #@! TO.C,C16*
X209107142Y-78677142D02*
X209059523Y-78724761D01*
X208916666Y-78772380D01*
X208821428Y-78772380D01*
X208678571Y-78724761D01*
X208583333Y-78629523D01*
X208535714Y-78534285D01*
X208488095Y-78343809D01*
X208488095Y-78200952D01*
X208535714Y-78010476D01*
X208583333Y-77915238D01*
X208678571Y-77820000D01*
X208821428Y-77772380D01*
X208916666Y-77772380D01*
X209059523Y-77820000D01*
X209107142Y-77867619D01*
X210059523Y-78772380D02*
X209488095Y-78772380D01*
X209773809Y-78772380D02*
X209773809Y-77772380D01*
X209678571Y-77915238D01*
X209583333Y-78010476D01*
X209488095Y-78058095D01*
X210916666Y-77772380D02*
X210726190Y-77772380D01*
X210630952Y-77820000D01*
X210583333Y-77867619D01*
X210488095Y-78010476D01*
X210440476Y-78200952D01*
X210440476Y-78581904D01*
X210488095Y-78677142D01*
X210535714Y-78724761D01*
X210630952Y-78772380D01*
X210821428Y-78772380D01*
X210916666Y-78724761D01*
X210964285Y-78677142D01*
X211011904Y-78581904D01*
X211011904Y-78343809D01*
X210964285Y-78248571D01*
X210916666Y-78200952D01*
X210821428Y-78153333D01*
X210630952Y-78153333D01*
X210535714Y-78200952D01*
X210488095Y-78248571D01*
X210440476Y-78343809D01*
G04 #@! TO.C,C18*
X205607142Y-78677142D02*
X205559523Y-78724761D01*
X205416666Y-78772380D01*
X205321428Y-78772380D01*
X205178571Y-78724761D01*
X205083333Y-78629523D01*
X205035714Y-78534285D01*
X204988095Y-78343809D01*
X204988095Y-78200952D01*
X205035714Y-78010476D01*
X205083333Y-77915238D01*
X205178571Y-77820000D01*
X205321428Y-77772380D01*
X205416666Y-77772380D01*
X205559523Y-77820000D01*
X205607142Y-77867619D01*
X206559523Y-78772380D02*
X205988095Y-78772380D01*
X206273809Y-78772380D02*
X206273809Y-77772380D01*
X206178571Y-77915238D01*
X206083333Y-78010476D01*
X205988095Y-78058095D01*
X207130952Y-78200952D02*
X207035714Y-78153333D01*
X206988095Y-78105714D01*
X206940476Y-78010476D01*
X206940476Y-77962857D01*
X206988095Y-77867619D01*
X207035714Y-77820000D01*
X207130952Y-77772380D01*
X207321428Y-77772380D01*
X207416666Y-77820000D01*
X207464285Y-77867619D01*
X207511904Y-77962857D01*
X207511904Y-78010476D01*
X207464285Y-78105714D01*
X207416666Y-78153333D01*
X207321428Y-78200952D01*
X207130952Y-78200952D01*
X207035714Y-78248571D01*
X206988095Y-78296190D01*
X206940476Y-78391428D01*
X206940476Y-78581904D01*
X206988095Y-78677142D01*
X207035714Y-78724761D01*
X207130952Y-78772380D01*
X207321428Y-78772380D01*
X207416666Y-78724761D01*
X207464285Y-78677142D01*
X207511904Y-78581904D01*
X207511904Y-78391428D01*
X207464285Y-78296190D01*
X207416666Y-78248571D01*
X207321428Y-78200952D01*
G04 #@! TO.C,C19*
X205607142Y-125292142D02*
X205559523Y-125339761D01*
X205416666Y-125387380D01*
X205321428Y-125387380D01*
X205178571Y-125339761D01*
X205083333Y-125244523D01*
X205035714Y-125149285D01*
X204988095Y-124958809D01*
X204988095Y-124815952D01*
X205035714Y-124625476D01*
X205083333Y-124530238D01*
X205178571Y-124435000D01*
X205321428Y-124387380D01*
X205416666Y-124387380D01*
X205559523Y-124435000D01*
X205607142Y-124482619D01*
X206559523Y-125387380D02*
X205988095Y-125387380D01*
X206273809Y-125387380D02*
X206273809Y-124387380D01*
X206178571Y-124530238D01*
X206083333Y-124625476D01*
X205988095Y-124673095D01*
X207035714Y-125387380D02*
X207226190Y-125387380D01*
X207321428Y-125339761D01*
X207369047Y-125292142D01*
X207464285Y-125149285D01*
X207511904Y-124958809D01*
X207511904Y-124577857D01*
X207464285Y-124482619D01*
X207416666Y-124435000D01*
X207321428Y-124387380D01*
X207130952Y-124387380D01*
X207035714Y-124435000D01*
X206988095Y-124482619D01*
X206940476Y-124577857D01*
X206940476Y-124815952D01*
X206988095Y-124911190D01*
X207035714Y-124958809D01*
X207130952Y-125006428D01*
X207321428Y-125006428D01*
X207416666Y-124958809D01*
X207464285Y-124911190D01*
X207511904Y-124815952D01*
G04 #@! TO.C,C21*
X209107142Y-125292142D02*
X209059523Y-125339761D01*
X208916666Y-125387380D01*
X208821428Y-125387380D01*
X208678571Y-125339761D01*
X208583333Y-125244523D01*
X208535714Y-125149285D01*
X208488095Y-124958809D01*
X208488095Y-124815952D01*
X208535714Y-124625476D01*
X208583333Y-124530238D01*
X208678571Y-124435000D01*
X208821428Y-124387380D01*
X208916666Y-124387380D01*
X209059523Y-124435000D01*
X209107142Y-124482619D01*
X209488095Y-124482619D02*
X209535714Y-124435000D01*
X209630952Y-124387380D01*
X209869047Y-124387380D01*
X209964285Y-124435000D01*
X210011904Y-124482619D01*
X210059523Y-124577857D01*
X210059523Y-124673095D01*
X210011904Y-124815952D01*
X209440476Y-125387380D01*
X210059523Y-125387380D01*
X211011904Y-125387380D02*
X210440476Y-125387380D01*
X210726190Y-125387380D02*
X210726190Y-124387380D01*
X210630952Y-124530238D01*
X210535714Y-124625476D01*
X210440476Y-124673095D01*
G04 #@! TO.C,C22*
X248677142Y-148142857D02*
X248724761Y-148190476D01*
X248772380Y-148333333D01*
X248772380Y-148428571D01*
X248724761Y-148571428D01*
X248629523Y-148666666D01*
X248534285Y-148714285D01*
X248343809Y-148761904D01*
X248200952Y-148761904D01*
X248010476Y-148714285D01*
X247915238Y-148666666D01*
X247820000Y-148571428D01*
X247772380Y-148428571D01*
X247772380Y-148333333D01*
X247820000Y-148190476D01*
X247867619Y-148142857D01*
X247867619Y-147761904D02*
X247820000Y-147714285D01*
X247772380Y-147619047D01*
X247772380Y-147380952D01*
X247820000Y-147285714D01*
X247867619Y-147238095D01*
X247962857Y-147190476D01*
X248058095Y-147190476D01*
X248200952Y-147238095D01*
X248772380Y-147809523D01*
X248772380Y-147190476D01*
X247867619Y-146809523D02*
X247820000Y-146761904D01*
X247772380Y-146666666D01*
X247772380Y-146428571D01*
X247820000Y-146333333D01*
X247867619Y-146285714D01*
X247962857Y-146238095D01*
X248058095Y-146238095D01*
X248200952Y-146285714D01*
X248772380Y-146857142D01*
X248772380Y-146238095D01*
G04 #@! TO.C,C23*
X209107142Y-75677142D02*
X209059523Y-75724761D01*
X208916666Y-75772380D01*
X208821428Y-75772380D01*
X208678571Y-75724761D01*
X208583333Y-75629523D01*
X208535714Y-75534285D01*
X208488095Y-75343809D01*
X208488095Y-75200952D01*
X208535714Y-75010476D01*
X208583333Y-74915238D01*
X208678571Y-74820000D01*
X208821428Y-74772380D01*
X208916666Y-74772380D01*
X209059523Y-74820000D01*
X209107142Y-74867619D01*
X209488095Y-74867619D02*
X209535714Y-74820000D01*
X209630952Y-74772380D01*
X209869047Y-74772380D01*
X209964285Y-74820000D01*
X210011904Y-74867619D01*
X210059523Y-74962857D01*
X210059523Y-75058095D01*
X210011904Y-75200952D01*
X209440476Y-75772380D01*
X210059523Y-75772380D01*
X210392857Y-74772380D02*
X211011904Y-74772380D01*
X210678571Y-75153333D01*
X210821428Y-75153333D01*
X210916666Y-75200952D01*
X210964285Y-75248571D01*
X211011904Y-75343809D01*
X211011904Y-75581904D01*
X210964285Y-75677142D01*
X210916666Y-75724761D01*
X210821428Y-75772380D01*
X210535714Y-75772380D01*
X210440476Y-75724761D01*
X210392857Y-75677142D01*
G04 #@! TO.C,C25*
X205607142Y-75677142D02*
X205559523Y-75724761D01*
X205416666Y-75772380D01*
X205321428Y-75772380D01*
X205178571Y-75724761D01*
X205083333Y-75629523D01*
X205035714Y-75534285D01*
X204988095Y-75343809D01*
X204988095Y-75200952D01*
X205035714Y-75010476D01*
X205083333Y-74915238D01*
X205178571Y-74820000D01*
X205321428Y-74772380D01*
X205416666Y-74772380D01*
X205559523Y-74820000D01*
X205607142Y-74867619D01*
X205988095Y-74867619D02*
X206035714Y-74820000D01*
X206130952Y-74772380D01*
X206369047Y-74772380D01*
X206464285Y-74820000D01*
X206511904Y-74867619D01*
X206559523Y-74962857D01*
X206559523Y-75058095D01*
X206511904Y-75200952D01*
X205940476Y-75772380D01*
X206559523Y-75772380D01*
X207464285Y-74772380D02*
X206988095Y-74772380D01*
X206940476Y-75248571D01*
X206988095Y-75200952D01*
X207083333Y-75153333D01*
X207321428Y-75153333D01*
X207416666Y-75200952D01*
X207464285Y-75248571D01*
X207511904Y-75343809D01*
X207511904Y-75581904D01*
X207464285Y-75677142D01*
X207416666Y-75724761D01*
X207321428Y-75772380D01*
X207083333Y-75772380D01*
X206988095Y-75724761D01*
X206940476Y-75677142D01*
G04 #@! TO.C,C26*
X205607142Y-122117142D02*
X205559523Y-122164761D01*
X205416666Y-122212380D01*
X205321428Y-122212380D01*
X205178571Y-122164761D01*
X205083333Y-122069523D01*
X205035714Y-121974285D01*
X204988095Y-121783809D01*
X204988095Y-121640952D01*
X205035714Y-121450476D01*
X205083333Y-121355238D01*
X205178571Y-121260000D01*
X205321428Y-121212380D01*
X205416666Y-121212380D01*
X205559523Y-121260000D01*
X205607142Y-121307619D01*
X205988095Y-121307619D02*
X206035714Y-121260000D01*
X206130952Y-121212380D01*
X206369047Y-121212380D01*
X206464285Y-121260000D01*
X206511904Y-121307619D01*
X206559523Y-121402857D01*
X206559523Y-121498095D01*
X206511904Y-121640952D01*
X205940476Y-122212380D01*
X206559523Y-122212380D01*
X207416666Y-121212380D02*
X207226190Y-121212380D01*
X207130952Y-121260000D01*
X207083333Y-121307619D01*
X206988095Y-121450476D01*
X206940476Y-121640952D01*
X206940476Y-122021904D01*
X206988095Y-122117142D01*
X207035714Y-122164761D01*
X207130952Y-122212380D01*
X207321428Y-122212380D01*
X207416666Y-122164761D01*
X207464285Y-122117142D01*
X207511904Y-122021904D01*
X207511904Y-121783809D01*
X207464285Y-121688571D01*
X207416666Y-121640952D01*
X207321428Y-121593333D01*
X207130952Y-121593333D01*
X207035714Y-121640952D01*
X206988095Y-121688571D01*
X206940476Y-121783809D01*
G04 #@! TO.C,C28*
X209107142Y-122117142D02*
X209059523Y-122164761D01*
X208916666Y-122212380D01*
X208821428Y-122212380D01*
X208678571Y-122164761D01*
X208583333Y-122069523D01*
X208535714Y-121974285D01*
X208488095Y-121783809D01*
X208488095Y-121640952D01*
X208535714Y-121450476D01*
X208583333Y-121355238D01*
X208678571Y-121260000D01*
X208821428Y-121212380D01*
X208916666Y-121212380D01*
X209059523Y-121260000D01*
X209107142Y-121307619D01*
X209488095Y-121307619D02*
X209535714Y-121260000D01*
X209630952Y-121212380D01*
X209869047Y-121212380D01*
X209964285Y-121260000D01*
X210011904Y-121307619D01*
X210059523Y-121402857D01*
X210059523Y-121498095D01*
X210011904Y-121640952D01*
X209440476Y-122212380D01*
X210059523Y-122212380D01*
X210630952Y-121640952D02*
X210535714Y-121593333D01*
X210488095Y-121545714D01*
X210440476Y-121450476D01*
X210440476Y-121402857D01*
X210488095Y-121307619D01*
X210535714Y-121260000D01*
X210630952Y-121212380D01*
X210821428Y-121212380D01*
X210916666Y-121260000D01*
X210964285Y-121307619D01*
X211011904Y-121402857D01*
X211011904Y-121450476D01*
X210964285Y-121545714D01*
X210916666Y-121593333D01*
X210821428Y-121640952D01*
X210630952Y-121640952D01*
X210535714Y-121688571D01*
X210488095Y-121736190D01*
X210440476Y-121831428D01*
X210440476Y-122021904D01*
X210488095Y-122117142D01*
X210535714Y-122164761D01*
X210630952Y-122212380D01*
X210821428Y-122212380D01*
X210916666Y-122164761D01*
X210964285Y-122117142D01*
X211011904Y-122021904D01*
X211011904Y-121831428D01*
X210964285Y-121736190D01*
X210916666Y-121688571D01*
X210821428Y-121640952D01*
G04 #@! TO.C,C29*
X245677142Y-148142857D02*
X245724761Y-148190476D01*
X245772380Y-148333333D01*
X245772380Y-148428571D01*
X245724761Y-148571428D01*
X245629523Y-148666666D01*
X245534285Y-148714285D01*
X245343809Y-148761904D01*
X245200952Y-148761904D01*
X245010476Y-148714285D01*
X244915238Y-148666666D01*
X244820000Y-148571428D01*
X244772380Y-148428571D01*
X244772380Y-148333333D01*
X244820000Y-148190476D01*
X244867619Y-148142857D01*
X244867619Y-147761904D02*
X244820000Y-147714285D01*
X244772380Y-147619047D01*
X244772380Y-147380952D01*
X244820000Y-147285714D01*
X244867619Y-147238095D01*
X244962857Y-147190476D01*
X245058095Y-147190476D01*
X245200952Y-147238095D01*
X245772380Y-147809523D01*
X245772380Y-147190476D01*
X245772380Y-146714285D02*
X245772380Y-146523809D01*
X245724761Y-146428571D01*
X245677142Y-146380952D01*
X245534285Y-146285714D01*
X245343809Y-146238095D01*
X244962857Y-146238095D01*
X244867619Y-146285714D01*
X244820000Y-146333333D01*
X244772380Y-146428571D01*
X244772380Y-146619047D01*
X244820000Y-146714285D01*
X244867619Y-146761904D01*
X244962857Y-146809523D01*
X245200952Y-146809523D01*
X245296190Y-146761904D01*
X245343809Y-146714285D01*
X245391428Y-146619047D01*
X245391428Y-146428571D01*
X245343809Y-146333333D01*
X245296190Y-146285714D01*
X245200952Y-146238095D01*
G04 #@! TO.C,C30*
X209107142Y-72677142D02*
X209059523Y-72724761D01*
X208916666Y-72772380D01*
X208821428Y-72772380D01*
X208678571Y-72724761D01*
X208583333Y-72629523D01*
X208535714Y-72534285D01*
X208488095Y-72343809D01*
X208488095Y-72200952D01*
X208535714Y-72010476D01*
X208583333Y-71915238D01*
X208678571Y-71820000D01*
X208821428Y-71772380D01*
X208916666Y-71772380D01*
X209059523Y-71820000D01*
X209107142Y-71867619D01*
X209440476Y-71772380D02*
X210059523Y-71772380D01*
X209726190Y-72153333D01*
X209869047Y-72153333D01*
X209964285Y-72200952D01*
X210011904Y-72248571D01*
X210059523Y-72343809D01*
X210059523Y-72581904D01*
X210011904Y-72677142D01*
X209964285Y-72724761D01*
X209869047Y-72772380D01*
X209583333Y-72772380D01*
X209488095Y-72724761D01*
X209440476Y-72677142D01*
X210678571Y-71772380D02*
X210773809Y-71772380D01*
X210869047Y-71820000D01*
X210916666Y-71867619D01*
X210964285Y-71962857D01*
X211011904Y-72153333D01*
X211011904Y-72391428D01*
X210964285Y-72581904D01*
X210916666Y-72677142D01*
X210869047Y-72724761D01*
X210773809Y-72772380D01*
X210678571Y-72772380D01*
X210583333Y-72724761D01*
X210535714Y-72677142D01*
X210488095Y-72581904D01*
X210440476Y-72391428D01*
X210440476Y-72153333D01*
X210488095Y-71962857D01*
X210535714Y-71867619D01*
X210583333Y-71820000D01*
X210678571Y-71772380D01*
G04 #@! TO.C,C32*
X205607142Y-72677142D02*
X205559523Y-72724761D01*
X205416666Y-72772380D01*
X205321428Y-72772380D01*
X205178571Y-72724761D01*
X205083333Y-72629523D01*
X205035714Y-72534285D01*
X204988095Y-72343809D01*
X204988095Y-72200952D01*
X205035714Y-72010476D01*
X205083333Y-71915238D01*
X205178571Y-71820000D01*
X205321428Y-71772380D01*
X205416666Y-71772380D01*
X205559523Y-71820000D01*
X205607142Y-71867619D01*
X205940476Y-71772380D02*
X206559523Y-71772380D01*
X206226190Y-72153333D01*
X206369047Y-72153333D01*
X206464285Y-72200952D01*
X206511904Y-72248571D01*
X206559523Y-72343809D01*
X206559523Y-72581904D01*
X206511904Y-72677142D01*
X206464285Y-72724761D01*
X206369047Y-72772380D01*
X206083333Y-72772380D01*
X205988095Y-72724761D01*
X205940476Y-72677142D01*
X206940476Y-71867619D02*
X206988095Y-71820000D01*
X207083333Y-71772380D01*
X207321428Y-71772380D01*
X207416666Y-71820000D01*
X207464285Y-71867619D01*
X207511904Y-71962857D01*
X207511904Y-72058095D01*
X207464285Y-72200952D01*
X206892857Y-72772380D01*
X207511904Y-72772380D01*
G04 #@! TO.C,C33*
X205607142Y-118942142D02*
X205559523Y-118989761D01*
X205416666Y-119037380D01*
X205321428Y-119037380D01*
X205178571Y-118989761D01*
X205083333Y-118894523D01*
X205035714Y-118799285D01*
X204988095Y-118608809D01*
X204988095Y-118465952D01*
X205035714Y-118275476D01*
X205083333Y-118180238D01*
X205178571Y-118085000D01*
X205321428Y-118037380D01*
X205416666Y-118037380D01*
X205559523Y-118085000D01*
X205607142Y-118132619D01*
X205940476Y-118037380D02*
X206559523Y-118037380D01*
X206226190Y-118418333D01*
X206369047Y-118418333D01*
X206464285Y-118465952D01*
X206511904Y-118513571D01*
X206559523Y-118608809D01*
X206559523Y-118846904D01*
X206511904Y-118942142D01*
X206464285Y-118989761D01*
X206369047Y-119037380D01*
X206083333Y-119037380D01*
X205988095Y-118989761D01*
X205940476Y-118942142D01*
X206892857Y-118037380D02*
X207511904Y-118037380D01*
X207178571Y-118418333D01*
X207321428Y-118418333D01*
X207416666Y-118465952D01*
X207464285Y-118513571D01*
X207511904Y-118608809D01*
X207511904Y-118846904D01*
X207464285Y-118942142D01*
X207416666Y-118989761D01*
X207321428Y-119037380D01*
X207035714Y-119037380D01*
X206940476Y-118989761D01*
X206892857Y-118942142D01*
G04 #@! TO.C,C35*
X209107142Y-118942142D02*
X209059523Y-118989761D01*
X208916666Y-119037380D01*
X208821428Y-119037380D01*
X208678571Y-118989761D01*
X208583333Y-118894523D01*
X208535714Y-118799285D01*
X208488095Y-118608809D01*
X208488095Y-118465952D01*
X208535714Y-118275476D01*
X208583333Y-118180238D01*
X208678571Y-118085000D01*
X208821428Y-118037380D01*
X208916666Y-118037380D01*
X209059523Y-118085000D01*
X209107142Y-118132619D01*
X209440476Y-118037380D02*
X210059523Y-118037380D01*
X209726190Y-118418333D01*
X209869047Y-118418333D01*
X209964285Y-118465952D01*
X210011904Y-118513571D01*
X210059523Y-118608809D01*
X210059523Y-118846904D01*
X210011904Y-118942142D01*
X209964285Y-118989761D01*
X209869047Y-119037380D01*
X209583333Y-119037380D01*
X209488095Y-118989761D01*
X209440476Y-118942142D01*
X210964285Y-118037380D02*
X210488095Y-118037380D01*
X210440476Y-118513571D01*
X210488095Y-118465952D01*
X210583333Y-118418333D01*
X210821428Y-118418333D01*
X210916666Y-118465952D01*
X210964285Y-118513571D01*
X211011904Y-118608809D01*
X211011904Y-118846904D01*
X210964285Y-118942142D01*
X210916666Y-118989761D01*
X210821428Y-119037380D01*
X210583333Y-119037380D01*
X210488095Y-118989761D01*
X210440476Y-118942142D01*
G04 #@! TO.C,C36*
X243889142Y-122641857D02*
X243936761Y-122689476D01*
X243984380Y-122832333D01*
X243984380Y-122927571D01*
X243936761Y-123070428D01*
X243841523Y-123165666D01*
X243746285Y-123213285D01*
X243555809Y-123260904D01*
X243412952Y-123260904D01*
X243222476Y-123213285D01*
X243127238Y-123165666D01*
X243032000Y-123070428D01*
X242984380Y-122927571D01*
X242984380Y-122832333D01*
X243032000Y-122689476D01*
X243079619Y-122641857D01*
X242984380Y-122308523D02*
X242984380Y-121689476D01*
X243365333Y-122022809D01*
X243365333Y-121879952D01*
X243412952Y-121784714D01*
X243460571Y-121737095D01*
X243555809Y-121689476D01*
X243793904Y-121689476D01*
X243889142Y-121737095D01*
X243936761Y-121784714D01*
X243984380Y-121879952D01*
X243984380Y-122165666D01*
X243936761Y-122260904D01*
X243889142Y-122308523D01*
X242984380Y-120832333D02*
X242984380Y-121022809D01*
X243032000Y-121118047D01*
X243079619Y-121165666D01*
X243222476Y-121260904D01*
X243412952Y-121308523D01*
X243793904Y-121308523D01*
X243889142Y-121260904D01*
X243936761Y-121213285D01*
X243984380Y-121118047D01*
X243984380Y-120927571D01*
X243936761Y-120832333D01*
X243889142Y-120784714D01*
X243793904Y-120737095D01*
X243555809Y-120737095D01*
X243460571Y-120784714D01*
X243412952Y-120832333D01*
X243365333Y-120927571D01*
X243365333Y-121118047D01*
X243412952Y-121213285D01*
X243460571Y-121260904D01*
X243555809Y-121308523D01*
G04 #@! TO.C,C37*
X243889142Y-119141857D02*
X243936761Y-119189476D01*
X243984380Y-119332333D01*
X243984380Y-119427571D01*
X243936761Y-119570428D01*
X243841523Y-119665666D01*
X243746285Y-119713285D01*
X243555809Y-119760904D01*
X243412952Y-119760904D01*
X243222476Y-119713285D01*
X243127238Y-119665666D01*
X243032000Y-119570428D01*
X242984380Y-119427571D01*
X242984380Y-119332333D01*
X243032000Y-119189476D01*
X243079619Y-119141857D01*
X242984380Y-118808523D02*
X242984380Y-118189476D01*
X243365333Y-118522809D01*
X243365333Y-118379952D01*
X243412952Y-118284714D01*
X243460571Y-118237095D01*
X243555809Y-118189476D01*
X243793904Y-118189476D01*
X243889142Y-118237095D01*
X243936761Y-118284714D01*
X243984380Y-118379952D01*
X243984380Y-118665666D01*
X243936761Y-118760904D01*
X243889142Y-118808523D01*
X242984380Y-117856142D02*
X242984380Y-117189476D01*
X243984380Y-117618047D01*
G04 #@! TO.C,C38*
X240389142Y-122641857D02*
X240436761Y-122689476D01*
X240484380Y-122832333D01*
X240484380Y-122927571D01*
X240436761Y-123070428D01*
X240341523Y-123165666D01*
X240246285Y-123213285D01*
X240055809Y-123260904D01*
X239912952Y-123260904D01*
X239722476Y-123213285D01*
X239627238Y-123165666D01*
X239532000Y-123070428D01*
X239484380Y-122927571D01*
X239484380Y-122832333D01*
X239532000Y-122689476D01*
X239579619Y-122641857D01*
X239484380Y-122308523D02*
X239484380Y-121689476D01*
X239865333Y-122022809D01*
X239865333Y-121879952D01*
X239912952Y-121784714D01*
X239960571Y-121737095D01*
X240055809Y-121689476D01*
X240293904Y-121689476D01*
X240389142Y-121737095D01*
X240436761Y-121784714D01*
X240484380Y-121879952D01*
X240484380Y-122165666D01*
X240436761Y-122260904D01*
X240389142Y-122308523D01*
X239912952Y-121118047D02*
X239865333Y-121213285D01*
X239817714Y-121260904D01*
X239722476Y-121308523D01*
X239674857Y-121308523D01*
X239579619Y-121260904D01*
X239532000Y-121213285D01*
X239484380Y-121118047D01*
X239484380Y-120927571D01*
X239532000Y-120832333D01*
X239579619Y-120784714D01*
X239674857Y-120737095D01*
X239722476Y-120737095D01*
X239817714Y-120784714D01*
X239865333Y-120832333D01*
X239912952Y-120927571D01*
X239912952Y-121118047D01*
X239960571Y-121213285D01*
X240008190Y-121260904D01*
X240103428Y-121308523D01*
X240293904Y-121308523D01*
X240389142Y-121260904D01*
X240436761Y-121213285D01*
X240484380Y-121118047D01*
X240484380Y-120927571D01*
X240436761Y-120832333D01*
X240389142Y-120784714D01*
X240293904Y-120737095D01*
X240103428Y-120737095D01*
X240008190Y-120784714D01*
X239960571Y-120832333D01*
X239912952Y-120927571D01*
G04 #@! TO.C,C39*
X240389142Y-119141857D02*
X240436761Y-119189476D01*
X240484380Y-119332333D01*
X240484380Y-119427571D01*
X240436761Y-119570428D01*
X240341523Y-119665666D01*
X240246285Y-119713285D01*
X240055809Y-119760904D01*
X239912952Y-119760904D01*
X239722476Y-119713285D01*
X239627238Y-119665666D01*
X239532000Y-119570428D01*
X239484380Y-119427571D01*
X239484380Y-119332333D01*
X239532000Y-119189476D01*
X239579619Y-119141857D01*
X239484380Y-118808523D02*
X239484380Y-118189476D01*
X239865333Y-118522809D01*
X239865333Y-118379952D01*
X239912952Y-118284714D01*
X239960571Y-118237095D01*
X240055809Y-118189476D01*
X240293904Y-118189476D01*
X240389142Y-118237095D01*
X240436761Y-118284714D01*
X240484380Y-118379952D01*
X240484380Y-118665666D01*
X240436761Y-118760904D01*
X240389142Y-118808523D01*
X240484380Y-117713285D02*
X240484380Y-117522809D01*
X240436761Y-117427571D01*
X240389142Y-117379952D01*
X240246285Y-117284714D01*
X240055809Y-117237095D01*
X239674857Y-117237095D01*
X239579619Y-117284714D01*
X239532000Y-117332333D01*
X239484380Y-117427571D01*
X239484380Y-117618047D01*
X239532000Y-117713285D01*
X239579619Y-117760904D01*
X239674857Y-117808523D01*
X239912952Y-117808523D01*
X240008190Y-117760904D01*
X240055809Y-117713285D01*
X240103428Y-117618047D01*
X240103428Y-117427571D01*
X240055809Y-117332333D01*
X240008190Y-117284714D01*
X239912952Y-117237095D01*
G04 #@! TO.C,C40*
X236889142Y-122641857D02*
X236936761Y-122689476D01*
X236984380Y-122832333D01*
X236984380Y-122927571D01*
X236936761Y-123070428D01*
X236841523Y-123165666D01*
X236746285Y-123213285D01*
X236555809Y-123260904D01*
X236412952Y-123260904D01*
X236222476Y-123213285D01*
X236127238Y-123165666D01*
X236032000Y-123070428D01*
X235984380Y-122927571D01*
X235984380Y-122832333D01*
X236032000Y-122689476D01*
X236079619Y-122641857D01*
X236317714Y-121784714D02*
X236984380Y-121784714D01*
X235936761Y-122022809D02*
X236651047Y-122260904D01*
X236651047Y-121641857D01*
X235984380Y-121070428D02*
X235984380Y-120975190D01*
X236032000Y-120879952D01*
X236079619Y-120832333D01*
X236174857Y-120784714D01*
X236365333Y-120737095D01*
X236603428Y-120737095D01*
X236793904Y-120784714D01*
X236889142Y-120832333D01*
X236936761Y-120879952D01*
X236984380Y-120975190D01*
X236984380Y-121070428D01*
X236936761Y-121165666D01*
X236889142Y-121213285D01*
X236793904Y-121260904D01*
X236603428Y-121308523D01*
X236365333Y-121308523D01*
X236174857Y-121260904D01*
X236079619Y-121213285D01*
X236032000Y-121165666D01*
X235984380Y-121070428D01*
G04 #@! TO.C,C41*
X236889142Y-119141857D02*
X236936761Y-119189476D01*
X236984380Y-119332333D01*
X236984380Y-119427571D01*
X236936761Y-119570428D01*
X236841523Y-119665666D01*
X236746285Y-119713285D01*
X236555809Y-119760904D01*
X236412952Y-119760904D01*
X236222476Y-119713285D01*
X236127238Y-119665666D01*
X236032000Y-119570428D01*
X235984380Y-119427571D01*
X235984380Y-119332333D01*
X236032000Y-119189476D01*
X236079619Y-119141857D01*
X236317714Y-118284714D02*
X236984380Y-118284714D01*
X235936761Y-118522809D02*
X236651047Y-118760904D01*
X236651047Y-118141857D01*
X236984380Y-117237095D02*
X236984380Y-117808523D01*
X236984380Y-117522809D02*
X235984380Y-117522809D01*
X236127238Y-117618047D01*
X236222476Y-117713285D01*
X236270095Y-117808523D01*
G04 #@! TO.C,C42*
X189607142Y-125292142D02*
X189559523Y-125339761D01*
X189416666Y-125387380D01*
X189321428Y-125387380D01*
X189178571Y-125339761D01*
X189083333Y-125244523D01*
X189035714Y-125149285D01*
X188988095Y-124958809D01*
X188988095Y-124815952D01*
X189035714Y-124625476D01*
X189083333Y-124530238D01*
X189178571Y-124435000D01*
X189321428Y-124387380D01*
X189416666Y-124387380D01*
X189559523Y-124435000D01*
X189607142Y-124482619D01*
X190464285Y-124720714D02*
X190464285Y-125387380D01*
X190226190Y-124339761D02*
X189988095Y-125054047D01*
X190607142Y-125054047D01*
X190940476Y-124482619D02*
X190988095Y-124435000D01*
X191083333Y-124387380D01*
X191321428Y-124387380D01*
X191416666Y-124435000D01*
X191464285Y-124482619D01*
X191511904Y-124577857D01*
X191511904Y-124673095D01*
X191464285Y-124815952D01*
X190892857Y-125387380D01*
X191511904Y-125387380D01*
G04 #@! TO.C,C44*
X193107142Y-125292142D02*
X193059523Y-125339761D01*
X192916666Y-125387380D01*
X192821428Y-125387380D01*
X192678571Y-125339761D01*
X192583333Y-125244523D01*
X192535714Y-125149285D01*
X192488095Y-124958809D01*
X192488095Y-124815952D01*
X192535714Y-124625476D01*
X192583333Y-124530238D01*
X192678571Y-124435000D01*
X192821428Y-124387380D01*
X192916666Y-124387380D01*
X193059523Y-124435000D01*
X193107142Y-124482619D01*
X193964285Y-124720714D02*
X193964285Y-125387380D01*
X193726190Y-124339761D02*
X193488095Y-125054047D01*
X194107142Y-125054047D01*
X194916666Y-124720714D02*
X194916666Y-125387380D01*
X194678571Y-124339761D02*
X194440476Y-125054047D01*
X195059523Y-125054047D01*
G04 #@! TO.C,C45*
X189607142Y-122117142D02*
X189559523Y-122164761D01*
X189416666Y-122212380D01*
X189321428Y-122212380D01*
X189178571Y-122164761D01*
X189083333Y-122069523D01*
X189035714Y-121974285D01*
X188988095Y-121783809D01*
X188988095Y-121640952D01*
X189035714Y-121450476D01*
X189083333Y-121355238D01*
X189178571Y-121260000D01*
X189321428Y-121212380D01*
X189416666Y-121212380D01*
X189559523Y-121260000D01*
X189607142Y-121307619D01*
X190464285Y-121545714D02*
X190464285Y-122212380D01*
X190226190Y-121164761D02*
X189988095Y-121879047D01*
X190607142Y-121879047D01*
X191464285Y-121212380D02*
X190988095Y-121212380D01*
X190940476Y-121688571D01*
X190988095Y-121640952D01*
X191083333Y-121593333D01*
X191321428Y-121593333D01*
X191416666Y-121640952D01*
X191464285Y-121688571D01*
X191511904Y-121783809D01*
X191511904Y-122021904D01*
X191464285Y-122117142D01*
X191416666Y-122164761D01*
X191321428Y-122212380D01*
X191083333Y-122212380D01*
X190988095Y-122164761D01*
X190940476Y-122117142D01*
G04 #@! TO.C,C47*
X193107142Y-122117142D02*
X193059523Y-122164761D01*
X192916666Y-122212380D01*
X192821428Y-122212380D01*
X192678571Y-122164761D01*
X192583333Y-122069523D01*
X192535714Y-121974285D01*
X192488095Y-121783809D01*
X192488095Y-121640952D01*
X192535714Y-121450476D01*
X192583333Y-121355238D01*
X192678571Y-121260000D01*
X192821428Y-121212380D01*
X192916666Y-121212380D01*
X193059523Y-121260000D01*
X193107142Y-121307619D01*
X193964285Y-121545714D02*
X193964285Y-122212380D01*
X193726190Y-121164761D02*
X193488095Y-121879047D01*
X194107142Y-121879047D01*
X194392857Y-121212380D02*
X195059523Y-121212380D01*
X194630952Y-122212380D01*
G04 #@! TO.C,C48*
X193069642Y-78677142D02*
X193022023Y-78724761D01*
X192879166Y-78772380D01*
X192783928Y-78772380D01*
X192641071Y-78724761D01*
X192545833Y-78629523D01*
X192498214Y-78534285D01*
X192450595Y-78343809D01*
X192450595Y-78200952D01*
X192498214Y-78010476D01*
X192545833Y-77915238D01*
X192641071Y-77820000D01*
X192783928Y-77772380D01*
X192879166Y-77772380D01*
X193022023Y-77820000D01*
X193069642Y-77867619D01*
X193926785Y-78105714D02*
X193926785Y-78772380D01*
X193688690Y-77724761D02*
X193450595Y-78439047D01*
X194069642Y-78439047D01*
X194593452Y-78200952D02*
X194498214Y-78153333D01*
X194450595Y-78105714D01*
X194402976Y-78010476D01*
X194402976Y-77962857D01*
X194450595Y-77867619D01*
X194498214Y-77820000D01*
X194593452Y-77772380D01*
X194783928Y-77772380D01*
X194879166Y-77820000D01*
X194926785Y-77867619D01*
X194974404Y-77962857D01*
X194974404Y-78010476D01*
X194926785Y-78105714D01*
X194879166Y-78153333D01*
X194783928Y-78200952D01*
X194593452Y-78200952D01*
X194498214Y-78248571D01*
X194450595Y-78296190D01*
X194402976Y-78391428D01*
X194402976Y-78581904D01*
X194450595Y-78677142D01*
X194498214Y-78724761D01*
X194593452Y-78772380D01*
X194783928Y-78772380D01*
X194879166Y-78724761D01*
X194926785Y-78677142D01*
X194974404Y-78581904D01*
X194974404Y-78391428D01*
X194926785Y-78296190D01*
X194879166Y-78248571D01*
X194783928Y-78200952D01*
G04 #@! TO.C,C50*
X189607142Y-78677142D02*
X189559523Y-78724761D01*
X189416666Y-78772380D01*
X189321428Y-78772380D01*
X189178571Y-78724761D01*
X189083333Y-78629523D01*
X189035714Y-78534285D01*
X188988095Y-78343809D01*
X188988095Y-78200952D01*
X189035714Y-78010476D01*
X189083333Y-77915238D01*
X189178571Y-77820000D01*
X189321428Y-77772380D01*
X189416666Y-77772380D01*
X189559523Y-77820000D01*
X189607142Y-77867619D01*
X190511904Y-77772380D02*
X190035714Y-77772380D01*
X189988095Y-78248571D01*
X190035714Y-78200952D01*
X190130952Y-78153333D01*
X190369047Y-78153333D01*
X190464285Y-78200952D01*
X190511904Y-78248571D01*
X190559523Y-78343809D01*
X190559523Y-78581904D01*
X190511904Y-78677142D01*
X190464285Y-78724761D01*
X190369047Y-78772380D01*
X190130952Y-78772380D01*
X190035714Y-78724761D01*
X189988095Y-78677142D01*
X191178571Y-77772380D02*
X191273809Y-77772380D01*
X191369047Y-77820000D01*
X191416666Y-77867619D01*
X191464285Y-77962857D01*
X191511904Y-78153333D01*
X191511904Y-78391428D01*
X191464285Y-78581904D01*
X191416666Y-78677142D01*
X191369047Y-78724761D01*
X191273809Y-78772380D01*
X191178571Y-78772380D01*
X191083333Y-78724761D01*
X191035714Y-78677142D01*
X190988095Y-78581904D01*
X190940476Y-78391428D01*
X190940476Y-78153333D01*
X190988095Y-77962857D01*
X191035714Y-77867619D01*
X191083333Y-77820000D01*
X191178571Y-77772380D01*
G04 #@! TO.C,C51*
X189607142Y-118942142D02*
X189559523Y-118989761D01*
X189416666Y-119037380D01*
X189321428Y-119037380D01*
X189178571Y-118989761D01*
X189083333Y-118894523D01*
X189035714Y-118799285D01*
X188988095Y-118608809D01*
X188988095Y-118465952D01*
X189035714Y-118275476D01*
X189083333Y-118180238D01*
X189178571Y-118085000D01*
X189321428Y-118037380D01*
X189416666Y-118037380D01*
X189559523Y-118085000D01*
X189607142Y-118132619D01*
X190511904Y-118037380D02*
X190035714Y-118037380D01*
X189988095Y-118513571D01*
X190035714Y-118465952D01*
X190130952Y-118418333D01*
X190369047Y-118418333D01*
X190464285Y-118465952D01*
X190511904Y-118513571D01*
X190559523Y-118608809D01*
X190559523Y-118846904D01*
X190511904Y-118942142D01*
X190464285Y-118989761D01*
X190369047Y-119037380D01*
X190130952Y-119037380D01*
X190035714Y-118989761D01*
X189988095Y-118942142D01*
X191511904Y-119037380D02*
X190940476Y-119037380D01*
X191226190Y-119037380D02*
X191226190Y-118037380D01*
X191130952Y-118180238D01*
X191035714Y-118275476D01*
X190940476Y-118323095D01*
G04 #@! TO.C,C53*
X193107142Y-118927142D02*
X193059523Y-118974761D01*
X192916666Y-119022380D01*
X192821428Y-119022380D01*
X192678571Y-118974761D01*
X192583333Y-118879523D01*
X192535714Y-118784285D01*
X192488095Y-118593809D01*
X192488095Y-118450952D01*
X192535714Y-118260476D01*
X192583333Y-118165238D01*
X192678571Y-118070000D01*
X192821428Y-118022380D01*
X192916666Y-118022380D01*
X193059523Y-118070000D01*
X193107142Y-118117619D01*
X194011904Y-118022380D02*
X193535714Y-118022380D01*
X193488095Y-118498571D01*
X193535714Y-118450952D01*
X193630952Y-118403333D01*
X193869047Y-118403333D01*
X193964285Y-118450952D01*
X194011904Y-118498571D01*
X194059523Y-118593809D01*
X194059523Y-118831904D01*
X194011904Y-118927142D01*
X193964285Y-118974761D01*
X193869047Y-119022380D01*
X193630952Y-119022380D01*
X193535714Y-118974761D01*
X193488095Y-118927142D01*
X194392857Y-118022380D02*
X195011904Y-118022380D01*
X194678571Y-118403333D01*
X194821428Y-118403333D01*
X194916666Y-118450952D01*
X194964285Y-118498571D01*
X195011904Y-118593809D01*
X195011904Y-118831904D01*
X194964285Y-118927142D01*
X194916666Y-118974761D01*
X194821428Y-119022380D01*
X194535714Y-119022380D01*
X194440476Y-118974761D01*
X194392857Y-118927142D01*
G04 #@! TO.C,C54*
X193069642Y-75677142D02*
X193022023Y-75724761D01*
X192879166Y-75772380D01*
X192783928Y-75772380D01*
X192641071Y-75724761D01*
X192545833Y-75629523D01*
X192498214Y-75534285D01*
X192450595Y-75343809D01*
X192450595Y-75200952D01*
X192498214Y-75010476D01*
X192545833Y-74915238D01*
X192641071Y-74820000D01*
X192783928Y-74772380D01*
X192879166Y-74772380D01*
X193022023Y-74820000D01*
X193069642Y-74867619D01*
X193974404Y-74772380D02*
X193498214Y-74772380D01*
X193450595Y-75248571D01*
X193498214Y-75200952D01*
X193593452Y-75153333D01*
X193831547Y-75153333D01*
X193926785Y-75200952D01*
X193974404Y-75248571D01*
X194022023Y-75343809D01*
X194022023Y-75581904D01*
X193974404Y-75677142D01*
X193926785Y-75724761D01*
X193831547Y-75772380D01*
X193593452Y-75772380D01*
X193498214Y-75724761D01*
X193450595Y-75677142D01*
X194879166Y-75105714D02*
X194879166Y-75772380D01*
X194641071Y-74724761D02*
X194402976Y-75439047D01*
X195022023Y-75439047D01*
G04 #@! TO.C,C56*
X189607142Y-75677142D02*
X189559523Y-75724761D01*
X189416666Y-75772380D01*
X189321428Y-75772380D01*
X189178571Y-75724761D01*
X189083333Y-75629523D01*
X189035714Y-75534285D01*
X188988095Y-75343809D01*
X188988095Y-75200952D01*
X189035714Y-75010476D01*
X189083333Y-74915238D01*
X189178571Y-74820000D01*
X189321428Y-74772380D01*
X189416666Y-74772380D01*
X189559523Y-74820000D01*
X189607142Y-74867619D01*
X190511904Y-74772380D02*
X190035714Y-74772380D01*
X189988095Y-75248571D01*
X190035714Y-75200952D01*
X190130952Y-75153333D01*
X190369047Y-75153333D01*
X190464285Y-75200952D01*
X190511904Y-75248571D01*
X190559523Y-75343809D01*
X190559523Y-75581904D01*
X190511904Y-75677142D01*
X190464285Y-75724761D01*
X190369047Y-75772380D01*
X190130952Y-75772380D01*
X190035714Y-75724761D01*
X189988095Y-75677142D01*
X191416666Y-74772380D02*
X191226190Y-74772380D01*
X191130952Y-74820000D01*
X191083333Y-74867619D01*
X190988095Y-75010476D01*
X190940476Y-75200952D01*
X190940476Y-75581904D01*
X190988095Y-75677142D01*
X191035714Y-75724761D01*
X191130952Y-75772380D01*
X191321428Y-75772380D01*
X191416666Y-75724761D01*
X191464285Y-75677142D01*
X191511904Y-75581904D01*
X191511904Y-75343809D01*
X191464285Y-75248571D01*
X191416666Y-75200952D01*
X191321428Y-75153333D01*
X191130952Y-75153333D01*
X191035714Y-75200952D01*
X190988095Y-75248571D01*
X190940476Y-75343809D01*
G04 #@! TO.C,C57*
X193069642Y-72677142D02*
X193022023Y-72724761D01*
X192879166Y-72772380D01*
X192783928Y-72772380D01*
X192641071Y-72724761D01*
X192545833Y-72629523D01*
X192498214Y-72534285D01*
X192450595Y-72343809D01*
X192450595Y-72200952D01*
X192498214Y-72010476D01*
X192545833Y-71915238D01*
X192641071Y-71820000D01*
X192783928Y-71772380D01*
X192879166Y-71772380D01*
X193022023Y-71820000D01*
X193069642Y-71867619D01*
X193974404Y-71772380D02*
X193498214Y-71772380D01*
X193450595Y-72248571D01*
X193498214Y-72200952D01*
X193593452Y-72153333D01*
X193831547Y-72153333D01*
X193926785Y-72200952D01*
X193974404Y-72248571D01*
X194022023Y-72343809D01*
X194022023Y-72581904D01*
X193974404Y-72677142D01*
X193926785Y-72724761D01*
X193831547Y-72772380D01*
X193593452Y-72772380D01*
X193498214Y-72724761D01*
X193450595Y-72677142D01*
X194355357Y-71772380D02*
X195022023Y-71772380D01*
X194593452Y-72772380D01*
G04 #@! TO.C,C59*
X189607142Y-72677142D02*
X189559523Y-72724761D01*
X189416666Y-72772380D01*
X189321428Y-72772380D01*
X189178571Y-72724761D01*
X189083333Y-72629523D01*
X189035714Y-72534285D01*
X188988095Y-72343809D01*
X188988095Y-72200952D01*
X189035714Y-72010476D01*
X189083333Y-71915238D01*
X189178571Y-71820000D01*
X189321428Y-71772380D01*
X189416666Y-71772380D01*
X189559523Y-71820000D01*
X189607142Y-71867619D01*
X190511904Y-71772380D02*
X190035714Y-71772380D01*
X189988095Y-72248571D01*
X190035714Y-72200952D01*
X190130952Y-72153333D01*
X190369047Y-72153333D01*
X190464285Y-72200952D01*
X190511904Y-72248571D01*
X190559523Y-72343809D01*
X190559523Y-72581904D01*
X190511904Y-72677142D01*
X190464285Y-72724761D01*
X190369047Y-72772380D01*
X190130952Y-72772380D01*
X190035714Y-72724761D01*
X189988095Y-72677142D01*
X191035714Y-72772380D02*
X191226190Y-72772380D01*
X191321428Y-72724761D01*
X191369047Y-72677142D01*
X191464285Y-72534285D01*
X191511904Y-72343809D01*
X191511904Y-71962857D01*
X191464285Y-71867619D01*
X191416666Y-71820000D01*
X191321428Y-71772380D01*
X191130952Y-71772380D01*
X191035714Y-71820000D01*
X190988095Y-71867619D01*
X190940476Y-71962857D01*
X190940476Y-72200952D01*
X190988095Y-72296190D01*
X191035714Y-72343809D01*
X191130952Y-72391428D01*
X191321428Y-72391428D01*
X191416666Y-72343809D01*
X191464285Y-72296190D01*
X191511904Y-72200952D01*
G04 #@! TO.C,FB1*
X248166666Y-144178571D02*
X247833333Y-144178571D01*
X247833333Y-144702380D02*
X247833333Y-143702380D01*
X248309523Y-143702380D01*
X249023809Y-144178571D02*
X249166666Y-144226190D01*
X249214285Y-144273809D01*
X249261904Y-144369047D01*
X249261904Y-144511904D01*
X249214285Y-144607142D01*
X249166666Y-144654761D01*
X249071428Y-144702380D01*
X248690476Y-144702380D01*
X248690476Y-143702380D01*
X249023809Y-143702380D01*
X249119047Y-143750000D01*
X249166666Y-143797619D01*
X249214285Y-143892857D01*
X249214285Y-143988095D01*
X249166666Y-144083333D01*
X249119047Y-144130952D01*
X249023809Y-144178571D01*
X248690476Y-144178571D01*
X250214285Y-144702380D02*
X249642857Y-144702380D01*
X249928571Y-144702380D02*
X249928571Y-143702380D01*
X249833333Y-143845238D01*
X249738095Y-143940476D01*
X249642857Y-143988095D01*
G04 #@! TO.C,FB2*
X205416666Y-81248571D02*
X205083333Y-81248571D01*
X205083333Y-81772380D02*
X205083333Y-80772380D01*
X205559523Y-80772380D01*
X206273809Y-81248571D02*
X206416666Y-81296190D01*
X206464285Y-81343809D01*
X206511904Y-81439047D01*
X206511904Y-81581904D01*
X206464285Y-81677142D01*
X206416666Y-81724761D01*
X206321428Y-81772380D01*
X205940476Y-81772380D01*
X205940476Y-80772380D01*
X206273809Y-80772380D01*
X206369047Y-80820000D01*
X206416666Y-80867619D01*
X206464285Y-80962857D01*
X206464285Y-81058095D01*
X206416666Y-81153333D01*
X206369047Y-81200952D01*
X206273809Y-81248571D01*
X205940476Y-81248571D01*
X206892857Y-80867619D02*
X206940476Y-80820000D01*
X207035714Y-80772380D01*
X207273809Y-80772380D01*
X207369047Y-80820000D01*
X207416666Y-80867619D01*
X207464285Y-80962857D01*
X207464285Y-81058095D01*
X207416666Y-81200952D01*
X206845238Y-81772380D01*
X207464285Y-81772380D01*
G04 #@! TO.C,FB3*
X208591666Y-116768571D02*
X208258333Y-116768571D01*
X208258333Y-117292380D02*
X208258333Y-116292380D01*
X208734523Y-116292380D01*
X209448809Y-116768571D02*
X209591666Y-116816190D01*
X209639285Y-116863809D01*
X209686904Y-116959047D01*
X209686904Y-117101904D01*
X209639285Y-117197142D01*
X209591666Y-117244761D01*
X209496428Y-117292380D01*
X209115476Y-117292380D01*
X209115476Y-116292380D01*
X209448809Y-116292380D01*
X209544047Y-116340000D01*
X209591666Y-116387619D01*
X209639285Y-116482857D01*
X209639285Y-116578095D01*
X209591666Y-116673333D01*
X209544047Y-116720952D01*
X209448809Y-116768571D01*
X209115476Y-116768571D01*
X210020238Y-116292380D02*
X210639285Y-116292380D01*
X210305952Y-116673333D01*
X210448809Y-116673333D01*
X210544047Y-116720952D01*
X210591666Y-116768571D01*
X210639285Y-116863809D01*
X210639285Y-117101904D01*
X210591666Y-117197142D01*
X210544047Y-117244761D01*
X210448809Y-117292380D01*
X210163095Y-117292380D01*
X210067857Y-117244761D01*
X210020238Y-117197142D01*
G04 #@! TO.C,FB4*
X234928571Y-118083333D02*
X234928571Y-118416666D01*
X235452380Y-118416666D02*
X234452380Y-118416666D01*
X234452380Y-117940476D01*
X234928571Y-117226190D02*
X234976190Y-117083333D01*
X235023809Y-117035714D01*
X235119047Y-116988095D01*
X235261904Y-116988095D01*
X235357142Y-117035714D01*
X235404761Y-117083333D01*
X235452380Y-117178571D01*
X235452380Y-117559523D01*
X234452380Y-117559523D01*
X234452380Y-117226190D01*
X234500000Y-117130952D01*
X234547619Y-117083333D01*
X234642857Y-117035714D01*
X234738095Y-117035714D01*
X234833333Y-117083333D01*
X234880952Y-117130952D01*
X234928571Y-117226190D01*
X234928571Y-117559523D01*
X234785714Y-116130952D02*
X235452380Y-116130952D01*
X234404761Y-116369047D02*
X235119047Y-116607142D01*
X235119047Y-115988095D01*
G04 #@! TO.C,FB5*
X189666666Y-116678571D02*
X189333333Y-116678571D01*
X189333333Y-117202380D02*
X189333333Y-116202380D01*
X189809523Y-116202380D01*
X190523809Y-116678571D02*
X190666666Y-116726190D01*
X190714285Y-116773809D01*
X190761904Y-116869047D01*
X190761904Y-117011904D01*
X190714285Y-117107142D01*
X190666666Y-117154761D01*
X190571428Y-117202380D01*
X190190476Y-117202380D01*
X190190476Y-116202380D01*
X190523809Y-116202380D01*
X190619047Y-116250000D01*
X190666666Y-116297619D01*
X190714285Y-116392857D01*
X190714285Y-116488095D01*
X190666666Y-116583333D01*
X190619047Y-116630952D01*
X190523809Y-116678571D01*
X190190476Y-116678571D01*
X191666666Y-116202380D02*
X191190476Y-116202380D01*
X191142857Y-116678571D01*
X191190476Y-116630952D01*
X191285714Y-116583333D01*
X191523809Y-116583333D01*
X191619047Y-116630952D01*
X191666666Y-116678571D01*
X191714285Y-116773809D01*
X191714285Y-117011904D01*
X191666666Y-117107142D01*
X191619047Y-117154761D01*
X191523809Y-117202380D01*
X191285714Y-117202380D01*
X191190476Y-117154761D01*
X191142857Y-117107142D01*
G04 #@! TO.C,FB6*
X192916666Y-81248571D02*
X192583333Y-81248571D01*
X192583333Y-81772380D02*
X192583333Y-80772380D01*
X193059523Y-80772380D01*
X193773809Y-81248571D02*
X193916666Y-81296190D01*
X193964285Y-81343809D01*
X194011904Y-81439047D01*
X194011904Y-81581904D01*
X193964285Y-81677142D01*
X193916666Y-81724761D01*
X193821428Y-81772380D01*
X193440476Y-81772380D01*
X193440476Y-80772380D01*
X193773809Y-80772380D01*
X193869047Y-80820000D01*
X193916666Y-80867619D01*
X193964285Y-80962857D01*
X193964285Y-81058095D01*
X193916666Y-81153333D01*
X193869047Y-81200952D01*
X193773809Y-81248571D01*
X193440476Y-81248571D01*
X194869047Y-80772380D02*
X194678571Y-80772380D01*
X194583333Y-80820000D01*
X194535714Y-80867619D01*
X194440476Y-81010476D01*
X194392857Y-81200952D01*
X194392857Y-81581904D01*
X194440476Y-81677142D01*
X194488095Y-81724761D01*
X194583333Y-81772380D01*
X194773809Y-81772380D01*
X194869047Y-81724761D01*
X194916666Y-81677142D01*
X194964285Y-81581904D01*
X194964285Y-81343809D01*
X194916666Y-81248571D01*
X194869047Y-81200952D01*
X194773809Y-81153333D01*
X194583333Y-81153333D01*
X194488095Y-81200952D01*
X194440476Y-81248571D01*
X194392857Y-81343809D01*
G04 #@! TO.C,R1*
X175728333Y-98717380D02*
X175395000Y-98241190D01*
X175156904Y-98717380D02*
X175156904Y-97717380D01*
X175537857Y-97717380D01*
X175633095Y-97765000D01*
X175680714Y-97812619D01*
X175728333Y-97907857D01*
X175728333Y-98050714D01*
X175680714Y-98145952D01*
X175633095Y-98193571D01*
X175537857Y-98241190D01*
X175156904Y-98241190D01*
X176680714Y-98717380D02*
X176109285Y-98717380D01*
X176395000Y-98717380D02*
X176395000Y-97717380D01*
X176299761Y-97860238D01*
X176204523Y-97955476D01*
X176109285Y-98003095D01*
G04 #@! TO.C,R2*
X171918333Y-98717380D02*
X171585000Y-98241190D01*
X171346904Y-98717380D02*
X171346904Y-97717380D01*
X171727857Y-97717380D01*
X171823095Y-97765000D01*
X171870714Y-97812619D01*
X171918333Y-97907857D01*
X171918333Y-98050714D01*
X171870714Y-98145952D01*
X171823095Y-98193571D01*
X171727857Y-98241190D01*
X171346904Y-98241190D01*
X172299285Y-97812619D02*
X172346904Y-97765000D01*
X172442142Y-97717380D01*
X172680238Y-97717380D01*
X172775476Y-97765000D01*
X172823095Y-97812619D01*
X172870714Y-97907857D01*
X172870714Y-98003095D01*
X172823095Y-98145952D01*
X172251666Y-98717380D01*
X172870714Y-98717380D01*
G04 #@! TO.C,R3*
X251702380Y-139666666D02*
X251226190Y-140000000D01*
X251702380Y-140238095D02*
X250702380Y-140238095D01*
X250702380Y-139857142D01*
X250750000Y-139761904D01*
X250797619Y-139714285D01*
X250892857Y-139666666D01*
X251035714Y-139666666D01*
X251130952Y-139714285D01*
X251178571Y-139761904D01*
X251226190Y-139857142D01*
X251226190Y-140238095D01*
X250702380Y-139333333D02*
X250702380Y-138714285D01*
X251083333Y-139047619D01*
X251083333Y-138904761D01*
X251130952Y-138809523D01*
X251178571Y-138761904D01*
X251273809Y-138714285D01*
X251511904Y-138714285D01*
X251607142Y-138761904D01*
X251654761Y-138809523D01*
X251702380Y-138904761D01*
X251702380Y-139190476D01*
X251654761Y-139285714D01*
X251607142Y-139333333D01*
G04 #@! TO.C,R4*
X249333333Y-142702380D02*
X249000000Y-142226190D01*
X248761904Y-142702380D02*
X248761904Y-141702380D01*
X249142857Y-141702380D01*
X249238095Y-141750000D01*
X249285714Y-141797619D01*
X249333333Y-141892857D01*
X249333333Y-142035714D01*
X249285714Y-142130952D01*
X249238095Y-142178571D01*
X249142857Y-142226190D01*
X248761904Y-142226190D01*
X250190476Y-142035714D02*
X250190476Y-142702380D01*
X249952380Y-141654761D02*
X249714285Y-142369047D01*
X250333333Y-142369047D01*
G04 #@! TO.C,R5*
X226522380Y-131454166D02*
X226046190Y-131787500D01*
X226522380Y-132025595D02*
X225522380Y-132025595D01*
X225522380Y-131644642D01*
X225570000Y-131549404D01*
X225617619Y-131501785D01*
X225712857Y-131454166D01*
X225855714Y-131454166D01*
X225950952Y-131501785D01*
X225998571Y-131549404D01*
X226046190Y-131644642D01*
X226046190Y-132025595D01*
X225522380Y-130549404D02*
X225522380Y-131025595D01*
X225998571Y-131073214D01*
X225950952Y-131025595D01*
X225903333Y-130930357D01*
X225903333Y-130692261D01*
X225950952Y-130597023D01*
X225998571Y-130549404D01*
X226093809Y-130501785D01*
X226331904Y-130501785D01*
X226427142Y-130549404D01*
X226474761Y-130597023D01*
X226522380Y-130692261D01*
X226522380Y-130930357D01*
X226474761Y-131025595D01*
X226427142Y-131073214D01*
G04 #@! TO.C,R6*
X223522380Y-131454166D02*
X223046190Y-131787500D01*
X223522380Y-132025595D02*
X222522380Y-132025595D01*
X222522380Y-131644642D01*
X222570000Y-131549404D01*
X222617619Y-131501785D01*
X222712857Y-131454166D01*
X222855714Y-131454166D01*
X222950952Y-131501785D01*
X222998571Y-131549404D01*
X223046190Y-131644642D01*
X223046190Y-132025595D01*
X222522380Y-130597023D02*
X222522380Y-130787500D01*
X222570000Y-130882738D01*
X222617619Y-130930357D01*
X222760476Y-131025595D01*
X222950952Y-131073214D01*
X223331904Y-131073214D01*
X223427142Y-131025595D01*
X223474761Y-130977976D01*
X223522380Y-130882738D01*
X223522380Y-130692261D01*
X223474761Y-130597023D01*
X223427142Y-130549404D01*
X223331904Y-130501785D01*
X223093809Y-130501785D01*
X222998571Y-130549404D01*
X222950952Y-130597023D01*
X222903333Y-130692261D01*
X222903333Y-130882738D01*
X222950952Y-130977976D01*
X222998571Y-131025595D01*
X223093809Y-131073214D01*
G04 #@! TO.C,R7*
X220522380Y-131379166D02*
X220046190Y-131712500D01*
X220522380Y-131950595D02*
X219522380Y-131950595D01*
X219522380Y-131569642D01*
X219570000Y-131474404D01*
X219617619Y-131426785D01*
X219712857Y-131379166D01*
X219855714Y-131379166D01*
X219950952Y-131426785D01*
X219998571Y-131474404D01*
X220046190Y-131569642D01*
X220046190Y-131950595D01*
X219522380Y-131045833D02*
X219522380Y-130379166D01*
X220522380Y-130807738D01*
G04 #@! TO.C,CPU1*
X238809523Y-124857142D02*
X238761904Y-124904761D01*
X238619047Y-124952380D01*
X238523809Y-124952380D01*
X238380952Y-124904761D01*
X238285714Y-124809523D01*
X238238095Y-124714285D01*
X238190476Y-124523809D01*
X238190476Y-124380952D01*
X238238095Y-124190476D01*
X238285714Y-124095238D01*
X238380952Y-124000000D01*
X238523809Y-123952380D01*
X238619047Y-123952380D01*
X238761904Y-124000000D01*
X238809523Y-124047619D01*
X239238095Y-124952380D02*
X239238095Y-123952380D01*
X239619047Y-123952380D01*
X239714285Y-124000000D01*
X239761904Y-124047619D01*
X239809523Y-124142857D01*
X239809523Y-124285714D01*
X239761904Y-124380952D01*
X239714285Y-124428571D01*
X239619047Y-124476190D01*
X239238095Y-124476190D01*
X240238095Y-123952380D02*
X240238095Y-124761904D01*
X240285714Y-124857142D01*
X240333333Y-124904761D01*
X240428571Y-124952380D01*
X240619047Y-124952380D01*
X240714285Y-124904761D01*
X240761904Y-124857142D01*
X240809523Y-124761904D01*
X240809523Y-123952380D01*
X241809523Y-124952380D02*
X241238095Y-124952380D01*
X241523809Y-124952380D02*
X241523809Y-123952380D01*
X241428571Y-124095238D01*
X241333333Y-124190476D01*
X241238095Y-124238095D01*
G04 #@! TO.C,USB1*
X254511904Y-147202380D02*
X254511904Y-148011904D01*
X254559523Y-148107142D01*
X254607142Y-148154761D01*
X254702380Y-148202380D01*
X254892857Y-148202380D01*
X254988095Y-148154761D01*
X255035714Y-148107142D01*
X255083333Y-148011904D01*
X255083333Y-147202380D01*
X255511904Y-148154761D02*
X255654761Y-148202380D01*
X255892857Y-148202380D01*
X255988095Y-148154761D01*
X256035714Y-148107142D01*
X256083333Y-148011904D01*
X256083333Y-147916666D01*
X256035714Y-147821428D01*
X255988095Y-147773809D01*
X255892857Y-147726190D01*
X255702380Y-147678571D01*
X255607142Y-147630952D01*
X255559523Y-147583333D01*
X255511904Y-147488095D01*
X255511904Y-147392857D01*
X255559523Y-147297619D01*
X255607142Y-147250000D01*
X255702380Y-147202380D01*
X255940476Y-147202380D01*
X256083333Y-147250000D01*
X256845238Y-147678571D02*
X256988095Y-147726190D01*
X257035714Y-147773809D01*
X257083333Y-147869047D01*
X257083333Y-148011904D01*
X257035714Y-148107142D01*
X256988095Y-148154761D01*
X256892857Y-148202380D01*
X256511904Y-148202380D01*
X256511904Y-147202380D01*
X256845238Y-147202380D01*
X256940476Y-147250000D01*
X256988095Y-147297619D01*
X257035714Y-147392857D01*
X257035714Y-147488095D01*
X256988095Y-147583333D01*
X256940476Y-147630952D01*
X256845238Y-147678571D01*
X256511904Y-147678571D01*
X258035714Y-148202380D02*
X257464285Y-148202380D01*
X257750000Y-148202380D02*
X257750000Y-147202380D01*
X257654761Y-147345238D01*
X257559523Y-147440476D01*
X257464285Y-147488095D01*
G04 #@! TO.C,SOCKET1*
X196905952Y-100334761D02*
X197048809Y-100382380D01*
X197286904Y-100382380D01*
X197382142Y-100334761D01*
X197429761Y-100287142D01*
X197477380Y-100191904D01*
X197477380Y-100096666D01*
X197429761Y-100001428D01*
X197382142Y-99953809D01*
X197286904Y-99906190D01*
X197096428Y-99858571D01*
X197001190Y-99810952D01*
X196953571Y-99763333D01*
X196905952Y-99668095D01*
X196905952Y-99572857D01*
X196953571Y-99477619D01*
X197001190Y-99430000D01*
X197096428Y-99382380D01*
X197334523Y-99382380D01*
X197477380Y-99430000D01*
X198096428Y-99382380D02*
X198286904Y-99382380D01*
X198382142Y-99430000D01*
X198477380Y-99525238D01*
X198525000Y-99715714D01*
X198525000Y-100049047D01*
X198477380Y-100239523D01*
X198382142Y-100334761D01*
X198286904Y-100382380D01*
X198096428Y-100382380D01*
X198001190Y-100334761D01*
X197905952Y-100239523D01*
X197858333Y-100049047D01*
X197858333Y-99715714D01*
X197905952Y-99525238D01*
X198001190Y-99430000D01*
X198096428Y-99382380D01*
X199525000Y-100287142D02*
X199477380Y-100334761D01*
X199334523Y-100382380D01*
X199239285Y-100382380D01*
X199096428Y-100334761D01*
X199001190Y-100239523D01*
X198953571Y-100144285D01*
X198905952Y-99953809D01*
X198905952Y-99810952D01*
X198953571Y-99620476D01*
X199001190Y-99525238D01*
X199096428Y-99430000D01*
X199239285Y-99382380D01*
X199334523Y-99382380D01*
X199477380Y-99430000D01*
X199525000Y-99477619D01*
X199953571Y-100382380D02*
X199953571Y-99382380D01*
X200525000Y-100382380D02*
X200096428Y-99810952D01*
X200525000Y-99382380D02*
X199953571Y-99953809D01*
X200953571Y-99858571D02*
X201286904Y-99858571D01*
X201429761Y-100382380D02*
X200953571Y-100382380D01*
X200953571Y-99382380D01*
X201429761Y-99382380D01*
X201715476Y-99382380D02*
X202286904Y-99382380D01*
X202001190Y-100382380D02*
X202001190Y-99382380D01*
X203144047Y-100382380D02*
X202572619Y-100382380D01*
X202858333Y-100382380D02*
X202858333Y-99382380D01*
X202763095Y-99525238D01*
X202667857Y-99620476D01*
X202572619Y-99668095D01*
G04 #@! TO.C,MUX1*
X219190476Y-75952380D02*
X219190476Y-74952380D01*
X219523809Y-75666666D01*
X219857142Y-74952380D01*
X219857142Y-75952380D01*
X220333333Y-74952380D02*
X220333333Y-75761904D01*
X220380952Y-75857142D01*
X220428571Y-75904761D01*
X220523809Y-75952380D01*
X220714285Y-75952380D01*
X220809523Y-75904761D01*
X220857142Y-75857142D01*
X220904761Y-75761904D01*
X220904761Y-74952380D01*
X221285714Y-74952380D02*
X221952380Y-75952380D01*
X221952380Y-74952380D02*
X221285714Y-75952380D01*
X222857142Y-75952380D02*
X222285714Y-75952380D01*
X222571428Y-75952380D02*
X222571428Y-74952380D01*
X222476190Y-75095238D01*
X222380952Y-75190476D01*
X222285714Y-75238095D01*
G04 #@! TO.C,MUX2*
X177190476Y-76452380D02*
X177190476Y-75452380D01*
X177523809Y-76166666D01*
X177857142Y-75452380D01*
X177857142Y-76452380D01*
X178333333Y-75452380D02*
X178333333Y-76261904D01*
X178380952Y-76357142D01*
X178428571Y-76404761D01*
X178523809Y-76452380D01*
X178714285Y-76452380D01*
X178809523Y-76404761D01*
X178857142Y-76357142D01*
X178904761Y-76261904D01*
X178904761Y-75452380D01*
X179285714Y-75452380D02*
X179952380Y-76452380D01*
X179952380Y-75452380D02*
X179285714Y-76452380D01*
X180285714Y-75547619D02*
X180333333Y-75500000D01*
X180428571Y-75452380D01*
X180666666Y-75452380D01*
X180761904Y-75500000D01*
X180809523Y-75547619D01*
X180857142Y-75642857D01*
X180857142Y-75738095D01*
X180809523Y-75880952D01*
X180238095Y-76452380D01*
X180857142Y-76452380D01*
G04 #@! TO.C,MUX3*
X219190476Y-112452380D02*
X219190476Y-111452380D01*
X219523809Y-112166666D01*
X219857142Y-111452380D01*
X219857142Y-112452380D01*
X220333333Y-111452380D02*
X220333333Y-112261904D01*
X220380952Y-112357142D01*
X220428571Y-112404761D01*
X220523809Y-112452380D01*
X220714285Y-112452380D01*
X220809523Y-112404761D01*
X220857142Y-112357142D01*
X220904761Y-112261904D01*
X220904761Y-111452380D01*
X221285714Y-111452380D02*
X221952380Y-112452380D01*
X221952380Y-111452380D02*
X221285714Y-112452380D01*
X222238095Y-111452380D02*
X222857142Y-111452380D01*
X222523809Y-111833333D01*
X222666666Y-111833333D01*
X222761904Y-111880952D01*
X222809523Y-111928571D01*
X222857142Y-112023809D01*
X222857142Y-112261904D01*
X222809523Y-112357142D01*
X222761904Y-112404761D01*
X222666666Y-112452380D01*
X222380952Y-112452380D01*
X222285714Y-112404761D01*
X222238095Y-112357142D01*
G04 #@! TO.C,MUX4*
X177190476Y-112452380D02*
X177190476Y-111452380D01*
X177523809Y-112166666D01*
X177857142Y-111452380D01*
X177857142Y-112452380D01*
X178333333Y-111452380D02*
X178333333Y-112261904D01*
X178380952Y-112357142D01*
X178428571Y-112404761D01*
X178523809Y-112452380D01*
X178714285Y-112452380D01*
X178809523Y-112404761D01*
X178857142Y-112357142D01*
X178904761Y-112261904D01*
X178904761Y-111452380D01*
X179285714Y-111452380D02*
X179952380Y-112452380D01*
X179952380Y-111452380D02*
X179285714Y-112452380D01*
X180761904Y-111785714D02*
X180761904Y-112452380D01*
X180523809Y-111404761D02*
X180285714Y-112119047D01*
X180904761Y-112119047D01*
G04 #@! TO.C,PROG1*
X163452380Y-122011904D02*
X162452380Y-122011904D01*
X162452380Y-121630952D01*
X162500000Y-121535714D01*
X162547619Y-121488095D01*
X162642857Y-121440476D01*
X162785714Y-121440476D01*
X162880952Y-121488095D01*
X162928571Y-121535714D01*
X162976190Y-121630952D01*
X162976190Y-122011904D01*
X163452380Y-120440476D02*
X162976190Y-120773809D01*
X163452380Y-121011904D02*
X162452380Y-121011904D01*
X162452380Y-120630952D01*
X162500000Y-120535714D01*
X162547619Y-120488095D01*
X162642857Y-120440476D01*
X162785714Y-120440476D01*
X162880952Y-120488095D01*
X162928571Y-120535714D01*
X162976190Y-120630952D01*
X162976190Y-121011904D01*
X162452380Y-119821428D02*
X162452380Y-119630952D01*
X162500000Y-119535714D01*
X162595238Y-119440476D01*
X162785714Y-119392857D01*
X163119047Y-119392857D01*
X163309523Y-119440476D01*
X163404761Y-119535714D01*
X163452380Y-119630952D01*
X163452380Y-119821428D01*
X163404761Y-119916666D01*
X163309523Y-120011904D01*
X163119047Y-120059523D01*
X162785714Y-120059523D01*
X162595238Y-120011904D01*
X162500000Y-119916666D01*
X162452380Y-119821428D01*
X162500000Y-118440476D02*
X162452380Y-118535714D01*
X162452380Y-118678571D01*
X162500000Y-118821428D01*
X162595238Y-118916666D01*
X162690476Y-118964285D01*
X162880952Y-119011904D01*
X163023809Y-119011904D01*
X163214285Y-118964285D01*
X163309523Y-118916666D01*
X163404761Y-118821428D01*
X163452380Y-118678571D01*
X163452380Y-118583333D01*
X163404761Y-118440476D01*
X163357142Y-118392857D01*
X163023809Y-118392857D01*
X163023809Y-118583333D01*
X163452380Y-117440476D02*
X163452380Y-118011904D01*
X163452380Y-117726190D02*
X162452380Y-117726190D01*
X162595238Y-117821428D01*
X162690476Y-117916666D01*
X162738095Y-118011904D01*
G04 #@! TO.C,OUT1*
X245682380Y-93476190D02*
X245682380Y-93285714D01*
X245730000Y-93190476D01*
X245825238Y-93095238D01*
X246015714Y-93047619D01*
X246349047Y-93047619D01*
X246539523Y-93095238D01*
X246634761Y-93190476D01*
X246682380Y-93285714D01*
X246682380Y-93476190D01*
X246634761Y-93571428D01*
X246539523Y-93666666D01*
X246349047Y-93714285D01*
X246015714Y-93714285D01*
X245825238Y-93666666D01*
X245730000Y-93571428D01*
X245682380Y-93476190D01*
X245682380Y-92619047D02*
X246491904Y-92619047D01*
X246587142Y-92571428D01*
X246634761Y-92523809D01*
X246682380Y-92428571D01*
X246682380Y-92238095D01*
X246634761Y-92142857D01*
X246587142Y-92095238D01*
X246491904Y-92047619D01*
X245682380Y-92047619D01*
X245682380Y-91714285D02*
X245682380Y-91142857D01*
X246682380Y-91428571D02*
X245682380Y-91428571D01*
X246682380Y-90285714D02*
X246682380Y-90857142D01*
X246682380Y-90571428D02*
X245682380Y-90571428D01*
X245825238Y-90666666D01*
X245920476Y-90761904D01*
X245968095Y-90857142D01*
G04 #@! TO.C,B1*
X178832331Y-138965536D02*
X178879950Y-138822679D01*
X178927569Y-138775060D01*
X179022807Y-138727441D01*
X179165664Y-138727441D01*
X179260902Y-138775060D01*
X179308521Y-138822679D01*
X179356140Y-138917917D01*
X179356140Y-139298870D01*
X178356140Y-139298870D01*
X178356140Y-138965536D01*
X178403760Y-138870298D01*
X178451379Y-138822679D01*
X178546617Y-138775060D01*
X178641855Y-138775060D01*
X178737093Y-138822679D01*
X178784712Y-138870298D01*
X178832331Y-138965536D01*
X178832331Y-139298870D01*
X179356140Y-137775060D02*
X179356140Y-138346489D01*
X179356140Y-138060775D02*
X178356140Y-138060775D01*
X178498998Y-138156013D01*
X178594236Y-138251251D01*
X178641855Y-138346489D01*
G04 #@! TO.C,PROG2*
X163452380Y-140941904D02*
X162452380Y-140941904D01*
X162452380Y-140560952D01*
X162500000Y-140465714D01*
X162547619Y-140418095D01*
X162642857Y-140370476D01*
X162785714Y-140370476D01*
X162880952Y-140418095D01*
X162928571Y-140465714D01*
X162976190Y-140560952D01*
X162976190Y-140941904D01*
X163452380Y-139370476D02*
X162976190Y-139703809D01*
X163452380Y-139941904D02*
X162452380Y-139941904D01*
X162452380Y-139560952D01*
X162500000Y-139465714D01*
X162547619Y-139418095D01*
X162642857Y-139370476D01*
X162785714Y-139370476D01*
X162880952Y-139418095D01*
X162928571Y-139465714D01*
X162976190Y-139560952D01*
X162976190Y-139941904D01*
X162452380Y-138751428D02*
X162452380Y-138560952D01*
X162500000Y-138465714D01*
X162595238Y-138370476D01*
X162785714Y-138322857D01*
X163119047Y-138322857D01*
X163309523Y-138370476D01*
X163404761Y-138465714D01*
X163452380Y-138560952D01*
X163452380Y-138751428D01*
X163404761Y-138846666D01*
X163309523Y-138941904D01*
X163119047Y-138989523D01*
X162785714Y-138989523D01*
X162595238Y-138941904D01*
X162500000Y-138846666D01*
X162452380Y-138751428D01*
X162500000Y-137370476D02*
X162452380Y-137465714D01*
X162452380Y-137608571D01*
X162500000Y-137751428D01*
X162595238Y-137846666D01*
X162690476Y-137894285D01*
X162880952Y-137941904D01*
X163023809Y-137941904D01*
X163214285Y-137894285D01*
X163309523Y-137846666D01*
X163404761Y-137751428D01*
X163452380Y-137608571D01*
X163452380Y-137513333D01*
X163404761Y-137370476D01*
X163357142Y-137322857D01*
X163023809Y-137322857D01*
X163023809Y-137513333D01*
X162547619Y-136941904D02*
X162500000Y-136894285D01*
X162452380Y-136799047D01*
X162452380Y-136560952D01*
X162500000Y-136465714D01*
X162547619Y-136418095D01*
X162642857Y-136370476D01*
X162738095Y-136370476D01*
X162880952Y-136418095D01*
X163452380Y-136989523D01*
X163452380Y-136370476D01*
G04 #@! TO.C,AMP1*
X222734285Y-138231666D02*
X223210476Y-138231666D01*
X222639047Y-138517380D02*
X222972380Y-137517380D01*
X223305714Y-138517380D01*
X223639047Y-138517380D02*
X223639047Y-137517380D01*
X223972380Y-138231666D01*
X224305714Y-137517380D01*
X224305714Y-138517380D01*
X224781904Y-138517380D02*
X224781904Y-137517380D01*
X225162857Y-137517380D01*
X225258095Y-137565000D01*
X225305714Y-137612619D01*
X225353333Y-137707857D01*
X225353333Y-137850714D01*
X225305714Y-137945952D01*
X225258095Y-137993571D01*
X225162857Y-138041190D01*
X224781904Y-138041190D01*
X226305714Y-138517380D02*
X225734285Y-138517380D01*
X226020000Y-138517380D02*
X226020000Y-137517380D01*
X225924761Y-137660238D01*
X225829523Y-137755476D01*
X225734285Y-137803095D01*
G04 #@! TO.C,C60*
X229287142Y-136142857D02*
X229334761Y-136190476D01*
X229382380Y-136333333D01*
X229382380Y-136428571D01*
X229334761Y-136571428D01*
X229239523Y-136666666D01*
X229144285Y-136714285D01*
X228953809Y-136761904D01*
X228810952Y-136761904D01*
X228620476Y-136714285D01*
X228525238Y-136666666D01*
X228430000Y-136571428D01*
X228382380Y-136428571D01*
X228382380Y-136333333D01*
X228430000Y-136190476D01*
X228477619Y-136142857D01*
X228382380Y-135285714D02*
X228382380Y-135476190D01*
X228430000Y-135571428D01*
X228477619Y-135619047D01*
X228620476Y-135714285D01*
X228810952Y-135761904D01*
X229191904Y-135761904D01*
X229287142Y-135714285D01*
X229334761Y-135666666D01*
X229382380Y-135571428D01*
X229382380Y-135380952D01*
X229334761Y-135285714D01*
X229287142Y-135238095D01*
X229191904Y-135190476D01*
X228953809Y-135190476D01*
X228858571Y-135238095D01*
X228810952Y-135285714D01*
X228763333Y-135380952D01*
X228763333Y-135571428D01*
X228810952Y-135666666D01*
X228858571Y-135714285D01*
X228953809Y-135761904D01*
X228382380Y-134571428D02*
X228382380Y-134476190D01*
X228430000Y-134380952D01*
X228477619Y-134333333D01*
X228572857Y-134285714D01*
X228763333Y-134238095D01*
X229001428Y-134238095D01*
X229191904Y-134285714D01*
X229287142Y-134333333D01*
X229334761Y-134380952D01*
X229382380Y-134476190D01*
X229382380Y-134571428D01*
X229334761Y-134666666D01*
X229287142Y-134714285D01*
X229191904Y-134761904D01*
X229001428Y-134809523D01*
X228763333Y-134809523D01*
X228572857Y-134761904D01*
X228477619Y-134714285D01*
X228430000Y-134666666D01*
X228382380Y-134571428D01*
G04 #@! TO.C,CB1*
X228357142Y-127916666D02*
X228404761Y-127964285D01*
X228452380Y-128107142D01*
X228452380Y-128202380D01*
X228404761Y-128345238D01*
X228309523Y-128440476D01*
X228214285Y-128488095D01*
X228023809Y-128535714D01*
X227880952Y-128535714D01*
X227690476Y-128488095D01*
X227595238Y-128440476D01*
X227500000Y-128345238D01*
X227452380Y-128202380D01*
X227452380Y-128107142D01*
X227500000Y-127964285D01*
X227547619Y-127916666D01*
X227928571Y-127154761D02*
X227976190Y-127011904D01*
X228023809Y-126964285D01*
X228119047Y-126916666D01*
X228261904Y-126916666D01*
X228357142Y-126964285D01*
X228404761Y-127011904D01*
X228452380Y-127107142D01*
X228452380Y-127488095D01*
X227452380Y-127488095D01*
X227452380Y-127154761D01*
X227500000Y-127059523D01*
X227547619Y-127011904D01*
X227642857Y-126964285D01*
X227738095Y-126964285D01*
X227833333Y-127011904D01*
X227880952Y-127059523D01*
X227928571Y-127154761D01*
X227928571Y-127488095D01*
X228452380Y-125964285D02*
X228452380Y-126535714D01*
X228452380Y-126250000D02*
X227452380Y-126250000D01*
X227595238Y-126345238D01*
X227690476Y-126440476D01*
X227738095Y-126535714D01*
G04 #@! TO.C,CB2*
X233287142Y-120916666D02*
X233334761Y-120964285D01*
X233382380Y-121107142D01*
X233382380Y-121202380D01*
X233334761Y-121345238D01*
X233239523Y-121440476D01*
X233144285Y-121488095D01*
X232953809Y-121535714D01*
X232810952Y-121535714D01*
X232620476Y-121488095D01*
X232525238Y-121440476D01*
X232430000Y-121345238D01*
X232382380Y-121202380D01*
X232382380Y-121107142D01*
X232430000Y-120964285D01*
X232477619Y-120916666D01*
X232858571Y-120154761D02*
X232906190Y-120011904D01*
X232953809Y-119964285D01*
X233049047Y-119916666D01*
X233191904Y-119916666D01*
X233287142Y-119964285D01*
X233334761Y-120011904D01*
X233382380Y-120107142D01*
X233382380Y-120488095D01*
X232382380Y-120488095D01*
X232382380Y-120154761D01*
X232430000Y-120059523D01*
X232477619Y-120011904D01*
X232572857Y-119964285D01*
X232668095Y-119964285D01*
X232763333Y-120011904D01*
X232810952Y-120059523D01*
X232858571Y-120154761D01*
X232858571Y-120488095D01*
X232477619Y-119535714D02*
X232430000Y-119488095D01*
X232382380Y-119392857D01*
X232382380Y-119154761D01*
X232430000Y-119059523D01*
X232477619Y-119011904D01*
X232572857Y-118964285D01*
X232668095Y-118964285D01*
X232810952Y-119011904D01*
X233382380Y-119583333D01*
X233382380Y-118964285D01*
G04 #@! TO.C,RBT1*
X173614380Y-144227619D02*
X173138190Y-144560952D01*
X173614380Y-144799047D02*
X172614380Y-144799047D01*
X172614380Y-144418095D01*
X172662000Y-144322857D01*
X172709619Y-144275238D01*
X172804857Y-144227619D01*
X172947714Y-144227619D01*
X173042952Y-144275238D01*
X173090571Y-144322857D01*
X173138190Y-144418095D01*
X173138190Y-144799047D01*
X173090571Y-143465714D02*
X173138190Y-143322857D01*
X173185809Y-143275238D01*
X173281047Y-143227619D01*
X173423904Y-143227619D01*
X173519142Y-143275238D01*
X173566761Y-143322857D01*
X173614380Y-143418095D01*
X173614380Y-143799047D01*
X172614380Y-143799047D01*
X172614380Y-143465714D01*
X172662000Y-143370476D01*
X172709619Y-143322857D01*
X172804857Y-143275238D01*
X172900095Y-143275238D01*
X172995333Y-143322857D01*
X173042952Y-143370476D01*
X173090571Y-143465714D01*
X173090571Y-143799047D01*
X172614380Y-142941904D02*
X172614380Y-142370476D01*
X173614380Y-142656190D02*
X172614380Y-142656190D01*
X173614380Y-141513333D02*
X173614380Y-142084761D01*
X173614380Y-141799047D02*
X172614380Y-141799047D01*
X172757238Y-141894285D01*
X172852476Y-141989523D01*
X172900095Y-142084761D01*
G04 #@! TO.C,RBT2*
X173614380Y-140227619D02*
X173138190Y-140560952D01*
X173614380Y-140799047D02*
X172614380Y-140799047D01*
X172614380Y-140418095D01*
X172662000Y-140322857D01*
X172709619Y-140275238D01*
X172804857Y-140227619D01*
X172947714Y-140227619D01*
X173042952Y-140275238D01*
X173090571Y-140322857D01*
X173138190Y-140418095D01*
X173138190Y-140799047D01*
X173090571Y-139465714D02*
X173138190Y-139322857D01*
X173185809Y-139275238D01*
X173281047Y-139227619D01*
X173423904Y-139227619D01*
X173519142Y-139275238D01*
X173566761Y-139322857D01*
X173614380Y-139418095D01*
X173614380Y-139799047D01*
X172614380Y-139799047D01*
X172614380Y-139465714D01*
X172662000Y-139370476D01*
X172709619Y-139322857D01*
X172804857Y-139275238D01*
X172900095Y-139275238D01*
X172995333Y-139322857D01*
X173042952Y-139370476D01*
X173090571Y-139465714D01*
X173090571Y-139799047D01*
X172614380Y-138941904D02*
X172614380Y-138370476D01*
X173614380Y-138656190D02*
X172614380Y-138656190D01*
X172709619Y-138084761D02*
X172662000Y-138037142D01*
X172614380Y-137941904D01*
X172614380Y-137703809D01*
X172662000Y-137608571D01*
X172709619Y-137560952D01*
X172804857Y-137513333D01*
X172900095Y-137513333D01*
X173042952Y-137560952D01*
X173614380Y-138132380D01*
X173614380Y-137513333D01*
G04 #@! TO.C,RG1*
X235533333Y-146382380D02*
X235200000Y-145906190D01*
X234961904Y-146382380D02*
X234961904Y-145382380D01*
X235342857Y-145382380D01*
X235438095Y-145430000D01*
X235485714Y-145477619D01*
X235533333Y-145572857D01*
X235533333Y-145715714D01*
X235485714Y-145810952D01*
X235438095Y-145858571D01*
X235342857Y-145906190D01*
X234961904Y-145906190D01*
X236485714Y-145430000D02*
X236390476Y-145382380D01*
X236247619Y-145382380D01*
X236104761Y-145430000D01*
X236009523Y-145525238D01*
X235961904Y-145620476D01*
X235914285Y-145810952D01*
X235914285Y-145953809D01*
X235961904Y-146144285D01*
X236009523Y-146239523D01*
X236104761Y-146334761D01*
X236247619Y-146382380D01*
X236342857Y-146382380D01*
X236485714Y-146334761D01*
X236533333Y-146287142D01*
X236533333Y-145953809D01*
X236342857Y-145953809D01*
X237485714Y-146382380D02*
X236914285Y-146382380D01*
X237200000Y-146382380D02*
X237200000Y-145382380D01*
X237104761Y-145525238D01*
X237009523Y-145620476D01*
X236914285Y-145668095D01*
G04 #@! TD*
M02*
