M48
;DRILL file {KiCad (5.0.0-3-g5ebb6b6)} date Monday, October 28, 2019 at 01:28:12 PM
;FORMAT={-:-/ absolute / inch / decimal}
FMAT,2
INCH,TZ
T1C0.0118
T2C0.2008
%
G90
G05
M72
T1
X6.1024Y-3.2874
X6.1024Y-3.3661
X6.1039Y-3.4465
X6.1039Y-3.5289
X6.1039Y-3.6289
X6.1039Y-3.7386
X6.1039Y-3.837
X6.1039Y-3.9354
X6.1039Y-4.0339
X6.1039Y-4.1323
X6.1039Y-4.2307
X6.1039Y-4.3291
X6.1039Y-4.4276
X6.1039Y-4.526
X6.1039Y-4.6244
X6.1039Y-4.7228
X6.1039Y-4.8213
X6.1039Y-4.9197
X6.1039Y-5.0181
X6.1039Y-5.1165
X6.1039Y-5.215
X6.1039Y-5.3134
X6.1039Y-5.4118
X6.1039Y-5.5102
X6.1039Y-5.6087
X6.175Y-4.4
X6.1811Y-3.2087
X6.1811Y-3.2874
X6.1811Y-3.3661
X6.1811Y-3.4449
X6.22Y-5.2
X6.22Y-5.31
X6.225Y-4.4
X6.25Y-5.825
X6.2598Y-3.1299
X6.2598Y-3.2087
X6.2598Y-3.2874
X6.2598Y-3.3661
X6.325Y-3.825
X6.325Y-4.125
X6.3386Y-3.1299
X6.3386Y-3.2087
X6.3386Y-3.2874
X6.3386Y-3.3661
X6.35Y-5.825
X6.39Y-4.76
X6.4173Y-3.1299
X6.4173Y-3.2087
X6.4173Y-3.2874
X6.4173Y-3.3661
X6.4181Y-5.298
X6.4181Y-5.398
X6.4181Y-5.498
X6.4181Y-5.748
X6.42Y-4.6146
X6.4201Y-5.125
X6.44Y-4.76
X6.45Y-5.825
X6.4961Y-3.1299
X6.4961Y-3.2087
X6.4961Y-3.2874
X6.4961Y-3.3661
X6.55Y-5.075
X6.55Y-5.825
X6.5748Y-3.1299
X6.5748Y-3.2087
X6.5748Y-3.2874
X6.5748Y-3.3661
X6.575Y-3.825
X6.575Y-4.125
X6.6Y-5.025
X6.6181Y-5.398
X6.6181Y-5.498
X6.625Y-3.775
X6.625Y-4.85
X6.6441Y-5.6598
X6.65Y-5.825
X6.675Y-3.825
X6.675Y-3.9
X6.675Y-3.975
X6.725Y-4.795
X6.75Y-3.65
X6.75Y-3.725
X6.75Y-5.825
X6.7717Y-3.1299
X6.7717Y-3.1693
X6.7717Y-3.2087
X6.7717Y-3.248
X6.7717Y-3.2874
X6.7717Y-3.3268
X6.7717Y-4.5472
X6.7717Y-4.5866
X6.7717Y-4.626
X6.7717Y-4.6654
X6.7717Y-4.7047
X6.7717Y-4.7441
X6.7808Y-5.3713
X6.7808Y-5.6942
X6.79Y-4.8
X6.7913Y-3.0119
X6.7913Y-3.0512
X6.7913Y-3.4452
X6.7913Y-4.9087
X6.7913Y-3.0906
X6.7913Y-3.3661
X6.7915Y-3.4054
X6.8Y-4.51
X6.825Y-3.725
X6.825Y-3.85
X6.825Y-4.435
X6.8307Y-3.4843
X6.8307Y-4.9016
X6.85Y-3.75
X6.85Y-4.05
X6.85Y-5.825
X6.865Y-4.465
X6.8701Y-3.4843
X6.8701Y-4.9016
X6.8702Y-2.9726
X6.875Y-5.1
X6.9002Y-4.4
X6.9094Y-2.9724
X6.9094Y-3.4843
X6.9094Y-4.9016
X6.939Y-3.119
X6.94Y-4.38
X6.9488Y-2.9528
X6.9488Y-3.5039
X6.9488Y-4.9213
X6.956Y-3.856
X6.956Y-3.994
X6.9783Y-4.3783
X6.9783Y-4.7539
X6.9882Y-2.9528
X6.9882Y-3.5039
X6.9882Y-4.9213
X7.0079Y-4.5669
X7.0132Y-4.3701
X7.025Y-3.925
X7.025Y-5.125
X7.0276Y-2.9528
X7.0276Y-3.5039
X7.0276Y-4.9213
X7.05Y-4.7
X7.0526Y-4.3701
X7.0669Y-2.9528
X7.0669Y-3.5039
X7.0669Y-4.9213
X7.075Y-5.175
X7.0919Y-4.3701
X7.095Y-5.625
X7.0965Y-4.55
X7.1063Y-2.9528
X7.1063Y-3.5039
X7.1063Y-4.9213
X7.1122Y-5.4274
X7.1313Y-4.4
X7.1358Y-4.5892
X7.1457Y-2.9528
X7.1457Y-3.5039
X7.1457Y-4.9213
X7.15Y-3.4691
X7.1526Y-3.2776
X7.175Y-2.975
X7.175Y-5.175
X7.185Y-4.9016
X7.2Y-3.
X7.2243Y-4.9014
X7.2276Y-4.86
X7.2422Y-3.025
X7.2647Y-3.05
X7.2717Y-4.4129
X7.2744Y-3.08
X7.2747Y-3.3389
X7.276Y-5.176
X7.285Y-4.525
X7.3Y-3.13
X7.3Y-3.165
X7.3Y-3.4791
X7.301Y-4.4335
X7.3031Y-4.7835
X7.3032Y-3.4448
X7.3032Y-4.8228
X7.3032Y-4.8622
X7.32Y-3.325
X7.3215Y-3.23
X7.3228Y-3.19
X7.3228Y-4.5472
X7.3228Y-4.5866
X7.3228Y-4.626
X7.3228Y-4.6654
X7.3228Y-4.7047
X7.3228Y-4.7441
X7.325Y-3.275
X7.376Y-5.176
X7.4606Y-5.0394
X7.475Y-2.925
X7.475Y-5.176
X7.5Y-3.622
X7.5Y-3.6614
X7.5Y-3.7008
X7.5Y-3.7402
X7.5Y-3.7795
X7.5Y-3.8189
X7.5Y-3.8583
X7.5Y-3.8976
X7.5Y-3.937
X7.5Y-3.9764
X7.5Y-4.0945
X7.5Y-4.1339
X7.5Y-4.1732
X7.5Y-4.2126
X7.5Y-4.252
X7.5001Y-4.0554
X7.5028Y-4.0185
X7.5591Y-3.563
X7.5591Y-4.311
X7.575Y-5.176
X7.5984Y-3.563
X7.5984Y-4.311
X7.5984Y-5.0394
X7.6Y-2.975
X7.6378Y-3.563
X7.6378Y-4.311
X7.6535Y-3.7165
X7.675Y-5.176
X7.6772Y-3.563
X7.6772Y-4.311
X7.7165Y-3.563
X7.7165Y-4.311
X7.7362Y-5.0197
X7.75Y-2.975
X7.7559Y-3.563
X7.7559Y-4.311
X7.775Y-5.176
X7.775Y-5.4
X7.7953Y-3.563
X7.7953Y-4.311
X7.8346Y-3.563
X7.8346Y-4.311
X7.874Y-3.563
X7.874Y-4.311
X7.874Y-5.176
X7.875Y-5.4
X7.9134Y-3.563
X7.9134Y-4.311
X7.9528Y-3.563
X7.9528Y-4.311
X7.975Y-5.176
X7.975Y-5.4
X7.9921Y-3.563
X7.9921Y-4.311
X8.025Y-5.025
X8.0315Y-3.563
X8.0315Y-4.311
X8.05Y-2.975
X8.0709Y-3.563
X8.0709Y-4.311
X8.075Y-5.176
X8.075Y-5.4
X8.1074Y-4.3082
X8.1102Y-3.563
X8.1496Y-3.563
X8.1496Y-4.311
X8.15Y-5.025
X8.175Y-2.965
X8.175Y-5.176
X8.189Y-3.563
X8.189Y-4.311
X8.248Y-3.622
X8.248Y-3.6614
X8.248Y-3.7
X8.248Y-3.7402
X8.248Y-3.7795
X8.248Y-3.8189
X8.248Y-3.8583
X8.248Y-3.8976
X8.248Y-3.937
X8.248Y-3.9764
X8.248Y-4.0157
X8.248Y-4.0551
X8.248Y-4.0945
X8.248Y-4.1339
X8.248Y-4.1732
X8.248Y-4.2126
X8.248Y-4.252
X8.274Y-5.176
X8.3Y-5.025
X8.376Y-4.4193
X8.3957Y-4.3996
X8.41Y-3.365
X8.41Y-4.65
X8.4102Y-4.5866
X8.4252Y-3.1102
X8.4252Y-3.1496
X8.4252Y-3.189
X8.4252Y-3.2283
X8.4252Y-3.2677
X8.4252Y-3.3071
X8.4252Y-4.5472
X8.43Y-4.46
X8.43Y-4.7
X8.435Y-4.74
X8.4448Y-2.9922
X8.4448Y-3.0315
X8.4449Y-3.0709
X8.445Y-4.7777
X8.4463Y-3.424
X8.451Y-3.35
X8.46Y-4.51
X8.46Y-4.81
X8.475Y-3.325
X8.484Y-2.9545
X8.484Y-4.3897
X8.4856Y-3.4566
X8.5Y-4.87
X8.5236Y-3.4646
X8.5237Y-2.9529
X8.525Y-5.1
X8.5335Y-4.4915
X8.55Y-4.84
X8.55Y-4.8966
X8.563Y-2.9528
X8.575Y-5.125
X8.5855Y-3.4645
X8.6Y-4.4069
X8.6024Y-2.9331
X8.6024Y-4.3701
X8.6024Y-4.9213
X8.6122Y-3.3122
X8.625Y-4.625
X8.6317Y-3.4843
X8.6417Y-2.9331
X8.6417Y-4.3701
X8.6417Y-4.9213
X8.6516Y-3.3016
X8.6711Y-3.4843
X8.675Y-4.625
X8.6811Y-2.9331
X8.6811Y-4.3701
X8.6811Y-4.9213
X8.7105Y-3.4843
X8.7205Y-2.9331
X8.7205Y-4.3701
X8.7205Y-4.9213
X8.7498Y-3.4843
X8.7598Y-2.9331
X8.7598Y-4.3701
X8.7598Y-4.9213
X8.78Y-3.47
X8.7992Y-2.9331
X8.7992Y-4.3701
X8.7992Y-4.9213
X8.7992Y-5.374
X8.8004Y-3.1004
X8.8091Y-4.7591
X8.815Y-3.465
X8.83Y-3.4332
X8.8386Y-2.9528
X8.8386Y-4.3898
X8.8386Y-4.9016
X8.875Y-3.44
X8.875Y-5.025
X8.8779Y-4.9014
X8.878Y-2.9527
X8.878Y-4.3897
X8.9173Y-4.3897
X8.9176Y-4.9016
X8.92Y-3.395
X8.9252Y-2.9759
X8.945Y-3.37
X8.95Y-3.925
X8.95Y-4.025
X8.9565Y-3.0316
X8.9565Y-4.4686
X8.9567Y-4.5079
X8.9567Y-4.7835
X8.9567Y-4.4289
X8.9567Y-4.8228
X8.9567Y-4.8622
X8.97Y-3.345
X8.9764Y-3.1102
X8.9764Y-3.1496
X8.9764Y-3.189
X8.9764Y-3.2283
X8.9764Y-3.2677
X8.9764Y-3.3071
X8.9764Y-4.5472
X8.9764Y-4.5866
X8.9764Y-4.626
X8.9764Y-4.6654
X8.9764Y-4.7047
X8.9764Y-4.7441
X8.9961Y-3.002
X9.0453Y-5.3937
X9.05Y-3.825
X9.05Y-3.925
X9.05Y-4.025
X9.05Y-4.125
X9.1Y-3.775
X9.1Y-4.175
X9.1142Y-4.9099
X9.1142Y-5.72
X9.15Y-3.825
X9.15Y-4.125
X9.1634Y-5.3543
X9.181Y-5.4052
X9.1843Y-5.487
X9.1929Y-5.2901
X9.2228Y-5.5546
X9.2633Y-4.9379
X9.2717Y-4.6737
X9.2783Y-5.5329
X9.3017Y-5.3142
X9.311Y-3.1102
X9.311Y-3.189
X9.3189Y-4.9447
X9.3307Y-4.8115
X9.3406Y-5.0787
X9.3504Y-5.689
X9.375Y-5.45
X9.3898Y-3.1102
X9.3898Y-3.189
X9.3898Y-5.0787
X9.3898Y-5.689
X9.4Y-3.825
X9.4Y-4.125
X9.4094Y-4.6737
X9.4094Y-4.7342
X9.4094Y-4.9409
X9.4291Y-5.689
X9.4882Y-5.8381
X9.5207Y-5.3543
X9.525Y-4.325
X9.5472Y-4.6737
X9.5472Y-4.813
X9.5472Y-5.0818
X9.5472Y-5.689
X9.55Y-3.625
X9.5526Y-4.4974
X9.5669Y-5.4528
X9.5672Y-5.4079
X9.5748Y-5.0829
X9.575Y-3.725
X9.575Y-4.75
X9.5829Y-4.55
X9.5866Y-3.5224
X9.5866Y-3.6224
X9.5947Y-3.8253
X9.5947Y-3.9253
X9.5947Y-4.0253
X9.6002Y-5.689
X9.6055Y-5.5546
X9.6063Y-5.8381
X9.625Y-3.525
X9.625Y-3.625
X9.625Y-4.15
X9.65Y-5.3951
X9.6555Y-5.315
X9.6748Y-4.9498
X9.6754Y-5.616
X9.7046Y-5.616
X9.7047Y-4.9099
X9.7244Y-5.8381
X9.745Y-4.325
X9.7683Y-5.4129
X9.7835Y-5.3312
X9.79Y-5.37
X9.7959Y-4.0224
X9.8Y-4.25
X9.8031Y-3.1224
X9.8031Y-3.2224
X9.8031Y-3.3224
X9.8031Y-3.4224
X9.8031Y-3.5224
X9.8031Y-3.6224
X9.8031Y-3.7224
X9.81Y-4.14
X9.8128Y-5.6789
X9.8327Y-3.1224
X9.8327Y-3.2224
X9.8327Y-3.3224
X9.8327Y-3.4224
X9.8327Y-3.5224
X9.8327Y-3.6224
X9.8327Y-3.7224
X9.8327Y-4.0224
X9.8327Y-4.2323
X9.8327Y-4.45
X9.85Y-5.635
X9.8583Y-4.3417
X9.875Y-3.725
X9.94Y-4.17
X9.9409Y-3.7795
X9.9409Y-4.2126
X9.9409Y-4.4291
X9.9409Y-4.6457
X9.9535Y-3.3465
X9.962Y-3.563
X9.9705Y-3.7795
X9.9705Y-3.9961
X9.9705Y-4.0295
X9.9705Y-4.2126
X9.9705Y-4.4291
X9.9705Y-4.6457
X9.9902Y-5.5904
X10.0015Y-5.0591
X10.0015Y-5.1969
X10.0015Y-5.3346
X10.0689Y-5.2362
X10.1294Y-5.0591
X10.1294Y-5.1969
X10.1294Y-5.3346
T2
X9.275Y-3.975
X6.45Y-4.275
X6.45Y-3.975
X6.45Y-3.675
X9.275Y-4.275
X9.275Y-3.675
T0
M30
