G04 #@! TF.GenerationSoftware,KiCad,Pcbnew,(5.0.0-3-g5ebb6b6)*
G04 #@! TF.CreationDate,2020-03-13T11:28:04-04:00*
G04 #@! TF.ProjectId,Project,50726F6A6563742E6B696361645F7063,rev?*
G04 #@! TF.SameCoordinates,Original*
G04 #@! TF.FileFunction,Legend,Bot*
G04 #@! TF.FilePolarity,Positive*
%FSLAX46Y46*%
G04 Gerber Fmt 4.6, Leading zero omitted, Abs format (unit mm)*
G04 Created by KiCad (PCBNEW (5.0.0-3-g5ebb6b6)) date Friday, March 13, 2020 at 11:28:04 AM*
%MOMM*%
%LPD*%
G01*
G04 APERTURE LIST*
%ADD10C,0.150000*%
%ADD11C,0.200000*%
G04 APERTURE END LIST*
D10*
G36*
X133000000Y-101000000D02*
X134000000Y-101000000D01*
X133500000Y-101500000D01*
X133000000Y-101000000D01*
G37*
X133000000Y-101000000D02*
X134000000Y-101000000D01*
X133500000Y-101500000D01*
X133000000Y-101000000D01*
G36*
X132000000Y-101000000D02*
X131500000Y-101500000D01*
X132500000Y-101500000D01*
X132000000Y-101000000D01*
G37*
X132000000Y-101000000D02*
X131500000Y-101500000D01*
X132500000Y-101500000D01*
X132000000Y-101000000D01*
G36*
X111500000Y-108500000D02*
X106500000Y-108500000D01*
X106500000Y-109500000D01*
X111500000Y-109500000D01*
X111500000Y-108500000D01*
G37*
X111500000Y-108500000D02*
X106500000Y-108500000D01*
X106500000Y-109500000D01*
X111500000Y-109500000D01*
X111500000Y-108500000D01*
G36*
X112500000Y-109000000D02*
X111500000Y-108000000D01*
X111500000Y-110000000D01*
X112500000Y-109000000D01*
G37*
X112500000Y-109000000D02*
X111500000Y-108000000D01*
X111500000Y-110000000D01*
X112500000Y-109000000D01*
G36*
X106500000Y-106500000D02*
X107500000Y-105500000D01*
X107500000Y-107500000D01*
X106500000Y-106500000D01*
G37*
X106500000Y-106500000D02*
X107500000Y-105500000D01*
X107500000Y-107500000D01*
X106500000Y-106500000D01*
G36*
X107500000Y-106000000D02*
X112500000Y-106000000D01*
X112500000Y-107000000D01*
X107500000Y-107000000D01*
X107500000Y-106000000D01*
G37*
X107500000Y-106000000D02*
X112500000Y-106000000D01*
X112500000Y-107000000D01*
X107500000Y-107000000D01*
X107500000Y-106000000D01*
X136964166Y-97285714D02*
X137002261Y-97323809D01*
X137116547Y-97361904D01*
X137192738Y-97361904D01*
X137307023Y-97323809D01*
X137383214Y-97247619D01*
X137421309Y-97171428D01*
X137459404Y-97019047D01*
X137459404Y-96904761D01*
X137421309Y-96752380D01*
X137383214Y-96676190D01*
X137307023Y-96600000D01*
X137192738Y-96561904D01*
X137116547Y-96561904D01*
X137002261Y-96600000D01*
X136964166Y-96638095D01*
X136621309Y-97361904D02*
X136621309Y-96561904D01*
X136354642Y-97133333D01*
X136087976Y-96561904D01*
X136087976Y-97361904D01*
X135707023Y-97361904D02*
X135707023Y-96561904D01*
X135516547Y-96561904D01*
X135402261Y-96600000D01*
X135326071Y-96676190D01*
X135287976Y-96752380D01*
X135249880Y-96904761D01*
X135249880Y-97019047D01*
X135287976Y-97171428D01*
X135326071Y-97247619D01*
X135402261Y-97323809D01*
X135516547Y-97361904D01*
X135707023Y-97361904D01*
X116750000Y-101750000D02*
X117250000Y-101750000D01*
X116500000Y-101500000D02*
X117500000Y-101500000D01*
X116750000Y-101250000D02*
X117250000Y-101250000D01*
X116500000Y-101000000D02*
X117500000Y-101000000D01*
X115250000Y-112500000D02*
X115500000Y-112500000D01*
X115000000Y-112750000D02*
X115750000Y-112750000D01*
X114750000Y-113000000D02*
X116000000Y-113000000D01*
X115250000Y-101500000D02*
X115500000Y-101500000D01*
X115000000Y-101250000D02*
X115750000Y-101250000D01*
X114750000Y-101000000D02*
X116000000Y-101000000D01*
X125250000Y-97750000D02*
X125250000Y-100500000D01*
X108750000Y-103750000D02*
X109250000Y-103750000D01*
X108500000Y-104250000D02*
X108750000Y-103750000D01*
X108250000Y-103250000D02*
X108500000Y-104250000D01*
X108000000Y-104250000D02*
X108250000Y-103250000D01*
X107750000Y-103250000D02*
X108000000Y-104250000D01*
X107500000Y-103750000D02*
X107750000Y-103250000D01*
X107250000Y-103750000D02*
X107500000Y-103750000D01*
X107250000Y-102500000D02*
X107250000Y-103750000D01*
X128000000Y-97750000D02*
X125250000Y-97750000D01*
X139000000Y-97250000D02*
X138000000Y-97250000D01*
X139000000Y-97750000D02*
X139000000Y-97250000D01*
X138750000Y-98000000D02*
X139000000Y-97750000D01*
X138250000Y-98000000D02*
X138750000Y-98000000D01*
X138000000Y-97750000D02*
X138250000Y-98000000D01*
X138000000Y-97250000D02*
X138000000Y-97750000D01*
X138750000Y-96000000D02*
X138250000Y-96000000D01*
X139000000Y-96250000D02*
X138750000Y-96000000D01*
X139000000Y-96750000D02*
X139000000Y-96250000D01*
X138000000Y-96750000D02*
X139000000Y-96750000D01*
X138000000Y-96250000D02*
X138000000Y-96750000D01*
X138250000Y-96000000D02*
X138000000Y-96250000D01*
X129250000Y-97750000D02*
X129000000Y-97750000D01*
X129500000Y-97500000D02*
X129250000Y-97250000D01*
X130000000Y-97500000D02*
X130250000Y-97250000D01*
X129750000Y-97250000D02*
X129750000Y-97000000D01*
X130250000Y-97750000D02*
X130500000Y-97750000D01*
X130000000Y-98000000D02*
X130250000Y-98250000D01*
X129500000Y-98000000D02*
X129250000Y-98250000D01*
X129750000Y-98250000D02*
X129750000Y-98500000D01*
X111500000Y-102500000D02*
X111500000Y-104250000D01*
X111500000Y-100750000D02*
X111500000Y-102500000D01*
X105500000Y-100000000D02*
X106750000Y-100000000D01*
X102000000Y-111500000D02*
X110000000Y-111500000D01*
X110500000Y-111500000D02*
X110500000Y-115000000D01*
X110000000Y-111500000D02*
X110500000Y-111500000D01*
X101500000Y-111500000D02*
X102000000Y-111500000D01*
X101500000Y-115000000D02*
X101500000Y-111500000D01*
X108250000Y-96000000D02*
X105500000Y-96000000D01*
X108250000Y-98000000D02*
X108250000Y-96000000D01*
X105500000Y-98000000D02*
X108250000Y-98000000D01*
X108250000Y-98000000D02*
X105500000Y-98000000D01*
X108250000Y-99500000D02*
X108250000Y-98000000D01*
X103500000Y-96250000D02*
X103250000Y-96500000D01*
X104000000Y-96250000D02*
X104250000Y-96500000D01*
X104000000Y-95750000D02*
X104250000Y-95500000D01*
X103500000Y-95750000D02*
X103250000Y-95500000D01*
X103250000Y-96000000D02*
X103000000Y-96000000D01*
X104250000Y-96000000D02*
X104500000Y-96000000D01*
X103750000Y-95500000D02*
X103750000Y-95250000D01*
X103750000Y-96500000D02*
X103750000Y-96750000D01*
X103500000Y-97750000D02*
X103250000Y-97500000D01*
X103250000Y-98000000D02*
X103000000Y-98000000D01*
X103500000Y-98250000D02*
X103250000Y-98500000D01*
X103750000Y-98500000D02*
X103750000Y-98750000D01*
X104000000Y-98250000D02*
X104250000Y-98500000D01*
X104000000Y-97750000D02*
X104250000Y-97500000D01*
X104250000Y-98000000D02*
X104500000Y-98000000D01*
X103750000Y-97500000D02*
X103750000Y-97250000D01*
X108821428Y-101285714D02*
X108859523Y-101323809D01*
X108973809Y-101361904D01*
X109050000Y-101361904D01*
X109164285Y-101323809D01*
X109240476Y-101247619D01*
X109278571Y-101171428D01*
X109316666Y-101019047D01*
X109316666Y-100904761D01*
X109278571Y-100752380D01*
X109240476Y-100676190D01*
X109164285Y-100600000D01*
X109050000Y-100561904D01*
X108973809Y-100561904D01*
X108859523Y-100600000D01*
X108821428Y-100638095D01*
X108478571Y-101361904D02*
X108478571Y-100561904D01*
X108478571Y-100942857D02*
X108021428Y-100942857D01*
X108021428Y-101361904D02*
X108021428Y-100561904D01*
X107221428Y-100600000D02*
X107297619Y-100561904D01*
X107411904Y-100561904D01*
X107526190Y-100600000D01*
X107602380Y-100676190D01*
X107640476Y-100752380D01*
X107678571Y-100904761D01*
X107678571Y-101019047D01*
X107640476Y-101171428D01*
X107602380Y-101247619D01*
X107526190Y-101323809D01*
X107411904Y-101361904D01*
X107335714Y-101361904D01*
X107221428Y-101323809D01*
X107183333Y-101285714D01*
X107183333Y-101019047D01*
X107335714Y-101019047D01*
X116887976Y-96561904D02*
X116392738Y-96561904D01*
X116659404Y-96866666D01*
X116545119Y-96866666D01*
X116468928Y-96904761D01*
X116430833Y-96942857D01*
X116392738Y-97019047D01*
X116392738Y-97209523D01*
X116430833Y-97285714D01*
X116468928Y-97323809D01*
X116545119Y-97361904D01*
X116773690Y-97361904D01*
X116849880Y-97323809D01*
X116887976Y-97285714D01*
X116049880Y-97285714D02*
X116011785Y-97323809D01*
X116049880Y-97361904D01*
X116087976Y-97323809D01*
X116049880Y-97285714D01*
X116049880Y-97361904D01*
X115745119Y-96561904D02*
X115249880Y-96561904D01*
X115516547Y-96866666D01*
X115402261Y-96866666D01*
X115326071Y-96904761D01*
X115287976Y-96942857D01*
X115249880Y-97019047D01*
X115249880Y-97209523D01*
X115287976Y-97285714D01*
X115326071Y-97323809D01*
X115402261Y-97361904D01*
X115630833Y-97361904D01*
X115707023Y-97323809D01*
X115745119Y-97285714D01*
X110750000Y-100000000D02*
X111500000Y-100750000D01*
X109750000Y-100000000D02*
X110750000Y-100000000D01*
X121000000Y-97500000D02*
X121000000Y-98500000D01*
X120500000Y-97500000D02*
X121500000Y-97500000D01*
X120500000Y-96500000D02*
X121500000Y-96500000D01*
X121000000Y-96500000D02*
X120500000Y-96500000D01*
X121000000Y-95500000D02*
X121000000Y-96500000D01*
X119000000Y-97500000D02*
X119000000Y-98500000D01*
X118500000Y-97500000D02*
X119500000Y-97500000D01*
X119000000Y-96500000D02*
X119000000Y-95500000D01*
X119500000Y-96500000D02*
X119000000Y-96500000D01*
X118500000Y-96500000D02*
X119500000Y-96500000D01*
X112500000Y-97500000D02*
X112500000Y-98500000D01*
X112500000Y-98000000D02*
X112500000Y-97500000D01*
X113500000Y-98000000D02*
X112500000Y-98000000D01*
X111500000Y-97500000D02*
X111500000Y-98500000D01*
X111500000Y-98000000D02*
X111500000Y-97500000D01*
X110500000Y-98000000D02*
X111500000Y-98000000D01*
X112500000Y-96000000D02*
X113500000Y-96000000D01*
X112500000Y-96500000D02*
X112500000Y-95500000D01*
X111500000Y-95500000D02*
X111500000Y-96500000D01*
X111500000Y-96000000D02*
X111500000Y-95500000D01*
X110500000Y-96000000D02*
X111500000Y-96000000D01*
X109750000Y-99500000D02*
X106750000Y-99500000D01*
X109750000Y-102500000D02*
X109750000Y-99500000D01*
X106750000Y-102500000D02*
X109750000Y-102500000D01*
X106750000Y-99500000D02*
X106750000Y-102500000D01*
X117500000Y-95500000D02*
X114500000Y-95500000D01*
X117500000Y-98500000D02*
X117500000Y-95500000D01*
X114500000Y-98500000D02*
X117500000Y-98500000D01*
X114500000Y-95500000D02*
X114500000Y-98500000D01*
X139500000Y-102000000D02*
X139500000Y-101000000D01*
X137000000Y-102000000D02*
X139500000Y-102000000D01*
X137000000Y-103000000D02*
X137000000Y-102000000D01*
X139500000Y-103000000D02*
X137000000Y-103000000D01*
X139500000Y-104500000D02*
X139500000Y-103000000D01*
X137000000Y-104500000D02*
X139500000Y-104500000D01*
X137000000Y-105500000D02*
X137000000Y-104500000D01*
X139500000Y-105500000D02*
X137000000Y-105500000D01*
X139500000Y-107000000D02*
X139500000Y-105500000D01*
X137000000Y-107000000D02*
X139500000Y-107000000D01*
X137000000Y-108000000D02*
X137000000Y-107000000D01*
X139500000Y-108000000D02*
X137000000Y-108000000D01*
X139500000Y-109500000D02*
X139500000Y-108000000D01*
X137000000Y-109500000D02*
X139500000Y-109500000D01*
X137000000Y-110500000D02*
X137000000Y-109500000D01*
X139500000Y-110500000D02*
X137000000Y-110500000D01*
X139500000Y-112000000D02*
X139500000Y-110500000D01*
X135500000Y-112000000D02*
X139500000Y-112000000D01*
X135500000Y-113500000D02*
X135500000Y-100500000D01*
X141000000Y-100500000D02*
X114000000Y-100500000D01*
X141000000Y-113500000D02*
X141000000Y-100500000D01*
X114000000Y-113500000D02*
X141000000Y-113500000D01*
X114000000Y-100500000D02*
X114000000Y-113500000D01*
X106895238Y-113442857D02*
X106780952Y-113480952D01*
X106742857Y-113519047D01*
X106704761Y-113595238D01*
X106704761Y-113709523D01*
X106742857Y-113785714D01*
X106780952Y-113823809D01*
X106857142Y-113861904D01*
X107161904Y-113861904D01*
X107161904Y-113061904D01*
X106895238Y-113061904D01*
X106819047Y-113100000D01*
X106780952Y-113138095D01*
X106742857Y-113214285D01*
X106742857Y-113290476D01*
X106780952Y-113366666D01*
X106819047Y-113404761D01*
X106895238Y-113442857D01*
X107161904Y-113442857D01*
X106400000Y-113633333D02*
X106019047Y-113633333D01*
X106476190Y-113861904D02*
X106209523Y-113061904D01*
X105942857Y-113861904D01*
X105790476Y-113061904D02*
X105333333Y-113061904D01*
X105561904Y-113861904D02*
X105561904Y-113061904D01*
X105180952Y-113061904D02*
X104723809Y-113061904D01*
X104952380Y-113861904D02*
X104952380Y-113061904D01*
D11*
X105547619Y-109226190D02*
X105547619Y-108607142D01*
X105166666Y-108940476D01*
X105166666Y-108797619D01*
X105119047Y-108702380D01*
X105071428Y-108654761D01*
X104976190Y-108607142D01*
X104738095Y-108607142D01*
X104642857Y-108654761D01*
X104595238Y-108702380D01*
X104547619Y-108797619D01*
X104547619Y-109083333D01*
X104595238Y-109178571D01*
X104642857Y-109226190D01*
X104642857Y-108178571D02*
X104595238Y-108130952D01*
X104547619Y-108178571D01*
X104595238Y-108226190D01*
X104642857Y-108178571D01*
X104547619Y-108178571D01*
X105547619Y-107797619D02*
X105547619Y-107178571D01*
X105166666Y-107511904D01*
X105166666Y-107369047D01*
X105119047Y-107273809D01*
X105071428Y-107226190D01*
X104976190Y-107178571D01*
X104738095Y-107178571D01*
X104642857Y-107226190D01*
X104595238Y-107273809D01*
X104547619Y-107369047D01*
X104547619Y-107654761D01*
X104595238Y-107750000D01*
X104642857Y-107797619D01*
X105547619Y-106892857D02*
X104547619Y-106559523D01*
X105547619Y-106226190D01*
D10*
X104000000Y-105250000D02*
X103000000Y-105250000D01*
X104000000Y-110250000D02*
X103000000Y-110250000D01*
X104000000Y-105250000D02*
X104000000Y-110250000D01*
D11*
X102999047Y-105952380D02*
X102427619Y-105952380D01*
X102713333Y-106952380D02*
X102713333Y-105952380D01*
X102189523Y-105952380D02*
X101522857Y-106952380D01*
X101522857Y-105952380D02*
X102189523Y-106952380D01*
X102522857Y-109452380D02*
X102856190Y-108976190D01*
X103094285Y-109452380D02*
X103094285Y-108452380D01*
X102713333Y-108452380D01*
X102618095Y-108500000D01*
X102570476Y-108547619D01*
X102522857Y-108642857D01*
X102522857Y-108785714D01*
X102570476Y-108880952D01*
X102618095Y-108928571D01*
X102713333Y-108976190D01*
X103094285Y-108976190D01*
X102189523Y-108452380D02*
X101522857Y-109452380D01*
X101522857Y-108452380D02*
X102189523Y-109452380D01*
D10*
X128880952Y-104802380D02*
X128880952Y-105516666D01*
X128928571Y-105659523D01*
X129023809Y-105754761D01*
X129166666Y-105802380D01*
X129261904Y-105802380D01*
X127976190Y-105802380D02*
X127976190Y-105278571D01*
X128023809Y-105183333D01*
X128119047Y-105135714D01*
X128309523Y-105135714D01*
X128404761Y-105183333D01*
X127976190Y-105754761D02*
X128071428Y-105802380D01*
X128309523Y-105802380D01*
X128404761Y-105754761D01*
X128452380Y-105659523D01*
X128452380Y-105564285D01*
X128404761Y-105469047D01*
X128309523Y-105421428D01*
X128071428Y-105421428D01*
X127976190Y-105373809D01*
X127595238Y-105135714D02*
X127357142Y-105802380D01*
X127119047Y-105135714D02*
X127357142Y-105802380D01*
X127452380Y-106040476D01*
X127500000Y-106088095D01*
X127595238Y-106135714D01*
X125976190Y-105802380D02*
X125976190Y-104802380D01*
X125738095Y-104802380D01*
X125595238Y-104850000D01*
X125500000Y-104945238D01*
X125452380Y-105040476D01*
X125404761Y-105230952D01*
X125404761Y-105373809D01*
X125452380Y-105564285D01*
X125500000Y-105659523D01*
X125595238Y-105754761D01*
X125738095Y-105802380D01*
X125976190Y-105802380D01*
X124833333Y-105802380D02*
X124928571Y-105754761D01*
X124976190Y-105707142D01*
X125023809Y-105611904D01*
X125023809Y-105326190D01*
X124976190Y-105230952D01*
X124928571Y-105183333D01*
X124833333Y-105135714D01*
X124690476Y-105135714D01*
X124595238Y-105183333D01*
X124547619Y-105230952D01*
X124500000Y-105326190D01*
X124500000Y-105611904D01*
X124547619Y-105707142D01*
X124595238Y-105754761D01*
X124690476Y-105802380D01*
X124833333Y-105802380D01*
X124071428Y-105802380D02*
X124071428Y-104802380D01*
X123642857Y-105802380D02*
X123642857Y-105278571D01*
X123690476Y-105183333D01*
X123785714Y-105135714D01*
X123928571Y-105135714D01*
X124023809Y-105183333D01*
X124071428Y-105230952D01*
X122785714Y-105754761D02*
X122880952Y-105802380D01*
X123071428Y-105802380D01*
X123166666Y-105754761D01*
X123214285Y-105659523D01*
X123214285Y-105278571D01*
X123166666Y-105183333D01*
X123071428Y-105135714D01*
X122880952Y-105135714D01*
X122785714Y-105183333D01*
X122738095Y-105278571D01*
X122738095Y-105373809D01*
X123214285Y-105469047D01*
X122309523Y-105802380D02*
X122309523Y-105135714D01*
X122309523Y-105326190D02*
X122261904Y-105230952D01*
X122214285Y-105183333D01*
X122119047Y-105135714D01*
X122023809Y-105135714D01*
X121833333Y-105135714D02*
X121452380Y-105135714D01*
X121690476Y-104802380D02*
X121690476Y-105659523D01*
X121642857Y-105754761D01*
X121547619Y-105802380D01*
X121452380Y-105802380D01*
X121214285Y-105135714D02*
X120976190Y-105802380D01*
X120738095Y-105135714D02*
X120976190Y-105802380D01*
X121071428Y-106040476D01*
X121119047Y-106088095D01*
X121214285Y-106135714D01*
X129119047Y-106928571D02*
X129452380Y-106928571D01*
X129452380Y-107452380D02*
X129452380Y-106452380D01*
X128976190Y-106452380D01*
X128595238Y-107452380D02*
X128595238Y-106785714D01*
X128595238Y-106976190D02*
X128547619Y-106880952D01*
X128500000Y-106833333D01*
X128404761Y-106785714D01*
X128309523Y-106785714D01*
X127547619Y-107452380D02*
X127547619Y-106928571D01*
X127595238Y-106833333D01*
X127690476Y-106785714D01*
X127880952Y-106785714D01*
X127976190Y-106833333D01*
X127547619Y-107404761D02*
X127642857Y-107452380D01*
X127880952Y-107452380D01*
X127976190Y-107404761D01*
X128023809Y-107309523D01*
X128023809Y-107214285D01*
X127976190Y-107119047D01*
X127880952Y-107071428D01*
X127642857Y-107071428D01*
X127547619Y-107023809D01*
X127071428Y-106785714D02*
X127071428Y-107452380D01*
X127071428Y-106880952D02*
X127023809Y-106833333D01*
X126928571Y-106785714D01*
X126785714Y-106785714D01*
X126690476Y-106833333D01*
X126642857Y-106928571D01*
X126642857Y-107452380D01*
X126166666Y-107452380D02*
X126166666Y-106452380D01*
X126071428Y-107071428D02*
X125785714Y-107452380D01*
X125785714Y-106785714D02*
X126166666Y-107166666D01*
X125214285Y-107452380D02*
X125309523Y-107404761D01*
X125357142Y-107309523D01*
X125357142Y-106452380D01*
X124833333Y-107452380D02*
X124833333Y-106785714D01*
X124833333Y-106452380D02*
X124880952Y-106500000D01*
X124833333Y-106547619D01*
X124785714Y-106500000D01*
X124833333Y-106452380D01*
X124833333Y-106547619D01*
X124357142Y-106785714D02*
X124357142Y-107452380D01*
X124357142Y-106880952D02*
X124309523Y-106833333D01*
X124214285Y-106785714D01*
X124071428Y-106785714D01*
X123976190Y-106833333D01*
X123928571Y-106928571D01*
X123928571Y-107452380D01*
X122214285Y-107452380D02*
X122690476Y-107452380D01*
X122690476Y-106452380D01*
X121452380Y-107452380D02*
X121452380Y-106928571D01*
X121500000Y-106833333D01*
X121595238Y-106785714D01*
X121785714Y-106785714D01*
X121880952Y-106833333D01*
X121452380Y-107404761D02*
X121547619Y-107452380D01*
X121785714Y-107452380D01*
X121880952Y-107404761D01*
X121928571Y-107309523D01*
X121928571Y-107214285D01*
X121880952Y-107119047D01*
X121785714Y-107071428D01*
X121547619Y-107071428D01*
X121452380Y-107023809D01*
X120976190Y-107452380D02*
X120976190Y-106452380D01*
X120976190Y-106833333D02*
X120880952Y-106785714D01*
X120690476Y-106785714D01*
X120595238Y-106833333D01*
X120547619Y-106880952D01*
X120500000Y-106976190D01*
X120500000Y-107261904D01*
X120547619Y-107357142D01*
X120595238Y-107404761D01*
X120690476Y-107452380D01*
X120880952Y-107452380D01*
X120976190Y-107404761D01*
X128452380Y-109102380D02*
X128928571Y-109102380D01*
X128928571Y-108102380D01*
X127690476Y-109102380D02*
X127690476Y-108578571D01*
X127738095Y-108483333D01*
X127833333Y-108435714D01*
X128023809Y-108435714D01*
X128119047Y-108483333D01*
X127690476Y-109054761D02*
X127785714Y-109102380D01*
X128023809Y-109102380D01*
X128119047Y-109054761D01*
X128166666Y-108959523D01*
X128166666Y-108864285D01*
X128119047Y-108769047D01*
X128023809Y-108721428D01*
X127785714Y-108721428D01*
X127690476Y-108673809D01*
X127309523Y-108435714D02*
X127071428Y-109102380D01*
X126833333Y-108435714D02*
X127071428Y-109102380D01*
X127166666Y-109340476D01*
X127214285Y-109388095D01*
X127309523Y-109435714D01*
X126309523Y-109102380D02*
X126404761Y-109054761D01*
X126452380Y-109007142D01*
X126500000Y-108911904D01*
X126500000Y-108626190D01*
X126452380Y-108530952D01*
X126404761Y-108483333D01*
X126309523Y-108435714D01*
X126166666Y-108435714D01*
X126071428Y-108483333D01*
X126023809Y-108530952D01*
X125976190Y-108626190D01*
X125976190Y-108911904D01*
X126023809Y-109007142D01*
X126071428Y-109054761D01*
X126166666Y-109102380D01*
X126309523Y-109102380D01*
X125119047Y-108435714D02*
X125119047Y-109102380D01*
X125547619Y-108435714D02*
X125547619Y-108959523D01*
X125500000Y-109054761D01*
X125404761Y-109102380D01*
X125261904Y-109102380D01*
X125166666Y-109054761D01*
X125119047Y-109007142D01*
X124785714Y-108435714D02*
X124404761Y-108435714D01*
X124642857Y-108102380D02*
X124642857Y-108959523D01*
X124595238Y-109054761D01*
X124500000Y-109102380D01*
X124404761Y-109102380D01*
X122976190Y-108578571D02*
X122833333Y-108626190D01*
X122785714Y-108673809D01*
X122738095Y-108769047D01*
X122738095Y-108911904D01*
X122785714Y-109007142D01*
X122833333Y-109054761D01*
X122928571Y-109102380D01*
X123309523Y-109102380D01*
X123309523Y-108102380D01*
X122976190Y-108102380D01*
X122880952Y-108150000D01*
X122833333Y-108197619D01*
X122785714Y-108292857D01*
X122785714Y-108388095D01*
X122833333Y-108483333D01*
X122880952Y-108530952D01*
X122976190Y-108578571D01*
X123309523Y-108578571D01*
X122452380Y-108102380D02*
X121880952Y-108102380D01*
X122166666Y-109102380D02*
X122166666Y-108102380D01*
X121023809Y-109102380D02*
X121595238Y-109102380D01*
X121309523Y-109102380D02*
X121309523Y-108102380D01*
X121404761Y-108245238D01*
X121500000Y-108340476D01*
X121595238Y-108388095D01*
D11*
X103665714Y-103250000D02*
X103760952Y-103202380D01*
X103903809Y-103202380D01*
X104046666Y-103250000D01*
X104141904Y-103345238D01*
X104189523Y-103440476D01*
X104237142Y-103630952D01*
X104237142Y-103773809D01*
X104189523Y-103964285D01*
X104141904Y-104059523D01*
X104046666Y-104154761D01*
X103903809Y-104202380D01*
X103808571Y-104202380D01*
X103665714Y-104154761D01*
X103618095Y-104107142D01*
X103618095Y-103773809D01*
X103808571Y-103773809D01*
X103189523Y-104202380D02*
X103189523Y-103202380D01*
X102618095Y-104202380D01*
X102618095Y-103202380D01*
X102141904Y-104202380D02*
X102141904Y-103202380D01*
X101903809Y-103202380D01*
X101760952Y-103250000D01*
X101665714Y-103345238D01*
X101618095Y-103440476D01*
X101570476Y-103630952D01*
X101570476Y-103773809D01*
X101618095Y-103964285D01*
X101665714Y-104059523D01*
X101760952Y-104154761D01*
X101903809Y-104202380D01*
X102141904Y-104202380D01*
X104141904Y-100702380D02*
X103808571Y-101702380D01*
X103475238Y-100702380D01*
X103141904Y-101702380D02*
X103141904Y-100702380D01*
X102903809Y-100702380D01*
X102760952Y-100750000D01*
X102665714Y-100845238D01*
X102618095Y-100940476D01*
X102570476Y-101130952D01*
X102570476Y-101273809D01*
X102618095Y-101464285D01*
X102665714Y-101559523D01*
X102760952Y-101654761D01*
X102903809Y-101702380D01*
X103141904Y-101702380D01*
X102141904Y-101702380D02*
X102141904Y-100702380D01*
X101903809Y-100702380D01*
X101760952Y-100750000D01*
X101665714Y-100845238D01*
X101618095Y-100940476D01*
X101570476Y-101130952D01*
X101570476Y-101273809D01*
X101618095Y-101464285D01*
X101665714Y-101559523D01*
X101760952Y-101654761D01*
X101903809Y-101702380D01*
X102141904Y-101702380D01*
M02*
