M48
;DRILL file {KiCad (5.0.0-3-g5ebb6b6)} date Friday, March 13, 2020 at 11:27:17 AM
;FORMAT={-:-/ absolute / inch / decimal}
FMAT,2
INCH,TZ
T1C0.0118
T2C0.0394
%
G90
G05
M72
T1
X4.1339Y-3.937
X4.1339Y-4.1339
X4.3209Y-4.0846
X4.3307Y-3.7795
X4.3307Y-3.8583
X4.3504Y-3.9764
X4.4094Y-3.9075
X4.4783Y-3.8189
X4.6102Y-3.8189
X4.6102Y-3.8976
X4.8425Y-3.8484
X5.1378Y-3.8976
X5.1378Y-4.0551
X5.1957Y-4.2862
X5.2547Y-4.1862
X5.2559Y-3.8484
X5.5217Y-3.9961
X5.5217Y-4.0846
X5.5217Y-4.1831
X5.5217Y-4.2815
X5.5217Y-4.3799
T2
X3.937Y-3.9862
X3.937Y-4.0862
X3.937Y-4.1862
X3.937Y-4.2862
T0
M30
