G04 #@! TF.GenerationSoftware,KiCad,Pcbnew,(5.0.0-3-g5ebb6b6)*
G04 #@! TF.CreationDate,2020-03-13T11:28:04-04:00*
G04 #@! TF.ProjectId,Project,50726F6A6563742E6B696361645F7063,rev?*
G04 #@! TF.SameCoordinates,Original*
G04 #@! TF.FileFunction,Legend,Top*
G04 #@! TF.FilePolarity,Positive*
%FSLAX46Y46*%
G04 Gerber Fmt 4.6, Leading zero omitted, Abs format (unit mm)*
G04 Created by KiCad (PCBNEW (5.0.0-3-g5ebb6b6)) date Friday, March 13, 2020 at 11:28:04 AM*
%MOMM*%
%LPD*%
G01*
G04 APERTURE LIST*
%ADD10C,0.150000*%
%ADD11C,0.120000*%
%ADD12C,0.100000*%
G04 APERTURE END LIST*
D10*
G36*
X131500000Y-98500000D02*
X132500000Y-98500000D01*
X132000000Y-99000000D01*
X131500000Y-98500000D01*
G37*
X131500000Y-98500000D02*
X132500000Y-98500000D01*
X132000000Y-99000000D01*
X131500000Y-98500000D01*
G36*
X134000000Y-99000000D02*
X133500000Y-98500000D01*
X133000000Y-99000000D01*
X134000000Y-99000000D01*
G37*
X134000000Y-99000000D02*
X133500000Y-98500000D01*
X133000000Y-99000000D01*
X134000000Y-99000000D01*
X112500000Y-100500000D02*
X113500000Y-99500000D01*
X112500000Y-113500000D02*
X113500000Y-114500000D01*
X112500000Y-100500000D02*
X112500000Y-113500000D01*
X105500000Y-102750000D02*
X104500000Y-102750000D01*
X105000000Y-102250000D02*
X105500000Y-102750000D01*
X104500000Y-102750000D02*
X105000000Y-102250000D01*
X98604761Y-111942857D02*
X98719047Y-111980952D01*
X98757142Y-112019047D01*
X98795238Y-112095238D01*
X98795238Y-112209523D01*
X98757142Y-112285714D01*
X98719047Y-112323809D01*
X98642857Y-112361904D01*
X98338095Y-112361904D01*
X98338095Y-111561904D01*
X98604761Y-111561904D01*
X98680952Y-111600000D01*
X98719047Y-111638095D01*
X98757142Y-111714285D01*
X98757142Y-111790476D01*
X98719047Y-111866666D01*
X98680952Y-111904761D01*
X98604761Y-111942857D01*
X98338095Y-111942857D01*
X99100000Y-112133333D02*
X99480952Y-112133333D01*
X99023809Y-112361904D02*
X99290476Y-111561904D01*
X99557142Y-112361904D01*
X99709523Y-111561904D02*
X100166666Y-111561904D01*
X99938095Y-112361904D02*
X99938095Y-111561904D01*
X100319047Y-111561904D02*
X100776190Y-111561904D01*
X100547619Y-112361904D02*
X100547619Y-111561904D01*
X98876309Y-98285714D02*
X98838214Y-98323809D01*
X98723928Y-98361904D01*
X98647738Y-98361904D01*
X98533452Y-98323809D01*
X98457261Y-98247619D01*
X98419166Y-98171428D01*
X98381071Y-98019047D01*
X98381071Y-97904761D01*
X98419166Y-97752380D01*
X98457261Y-97676190D01*
X98533452Y-97600000D01*
X98647738Y-97561904D01*
X98723928Y-97561904D01*
X98838214Y-97600000D01*
X98876309Y-97638095D01*
X99219166Y-98361904D02*
X99219166Y-97561904D01*
X99219166Y-97942857D02*
X99676309Y-97942857D01*
X99676309Y-98361904D02*
X99676309Y-97561904D01*
X100019166Y-98133333D02*
X100400119Y-98133333D01*
X99942976Y-98361904D02*
X100209642Y-97561904D01*
X100476309Y-98361904D01*
X101200119Y-98361904D02*
X100933452Y-97980952D01*
X100742976Y-98361904D02*
X100742976Y-97561904D01*
X101047738Y-97561904D01*
X101123928Y-97600000D01*
X101162023Y-97638095D01*
X101200119Y-97714285D01*
X101200119Y-97828571D01*
X101162023Y-97904761D01*
X101123928Y-97942857D01*
X101047738Y-97980952D01*
X100742976Y-97980952D01*
X101962023Y-97600000D02*
X101885833Y-97561904D01*
X101771547Y-97561904D01*
X101657261Y-97600000D01*
X101581071Y-97676190D01*
X101542976Y-97752380D01*
X101504880Y-97904761D01*
X101504880Y-98019047D01*
X101542976Y-98171428D01*
X101581071Y-98247619D01*
X101657261Y-98323809D01*
X101771547Y-98361904D01*
X101847738Y-98361904D01*
X101962023Y-98323809D01*
X102000119Y-98285714D01*
X102000119Y-98019047D01*
X101847738Y-98019047D01*
X99866785Y-96361904D02*
X99866785Y-95561904D01*
X100057261Y-95561904D01*
X100171547Y-95600000D01*
X100247738Y-95676190D01*
X100285833Y-95752380D01*
X100323928Y-95904761D01*
X100323928Y-96019047D01*
X100285833Y-96171428D01*
X100247738Y-96247619D01*
X100171547Y-96323809D01*
X100057261Y-96361904D01*
X99866785Y-96361904D01*
X100819166Y-95561904D02*
X100971547Y-95561904D01*
X101047738Y-95600000D01*
X101123928Y-95676190D01*
X101162023Y-95828571D01*
X101162023Y-96095238D01*
X101123928Y-96247619D01*
X101047738Y-96323809D01*
X100971547Y-96361904D01*
X100819166Y-96361904D01*
X100742976Y-96323809D01*
X100666785Y-96247619D01*
X100628690Y-96095238D01*
X100628690Y-95828571D01*
X100666785Y-95676190D01*
X100742976Y-95600000D01*
X100819166Y-95561904D01*
X101504880Y-96361904D02*
X101504880Y-95561904D01*
X101962023Y-96361904D01*
X101962023Y-95561904D01*
G04 #@! TO.C,BTU1*
X114000000Y-113500000D02*
X114500000Y-113500000D01*
X114000000Y-113000000D02*
X114000000Y-113500000D01*
X114000000Y-100500000D02*
X114000000Y-101000000D01*
X114500000Y-100500000D02*
X114000000Y-100500000D01*
X130500000Y-104500000D02*
X130500000Y-105000000D01*
X122500000Y-104500000D02*
X130500000Y-104500000D01*
X122500000Y-112000000D02*
X122500000Y-104500000D01*
X123000000Y-112000000D02*
X122500000Y-112000000D01*
X115500000Y-104500000D02*
X115500000Y-105000000D01*
X121000000Y-104500000D02*
X115500000Y-104500000D01*
X121000000Y-112000000D02*
X121000000Y-104500000D01*
X120500000Y-112000000D02*
X121000000Y-112000000D01*
X115500000Y-112000000D02*
X115500000Y-105000000D01*
X120500000Y-112000000D02*
X115500000Y-112000000D01*
X130500000Y-110500000D02*
X130500000Y-105000000D01*
X130500000Y-112000000D02*
X123000000Y-112000000D01*
X130500000Y-112000000D02*
X130500000Y-110500000D01*
X135500000Y-113500000D02*
X134500000Y-113500000D01*
X141000000Y-100500000D02*
X134500000Y-100500000D01*
X141000000Y-113500000D02*
X135500000Y-113500000D01*
X139500000Y-102000000D02*
X139500000Y-101000000D01*
X137000000Y-102000000D02*
X139500000Y-102000000D01*
X137000000Y-103000000D02*
X137000000Y-102000000D01*
X139500000Y-103000000D02*
X137000000Y-103000000D01*
X139500000Y-104500000D02*
X139500000Y-103000000D01*
X137000000Y-104500000D02*
X139500000Y-104500000D01*
X137000000Y-105500000D02*
X137000000Y-104500000D01*
X139500000Y-105500000D02*
X137000000Y-105500000D01*
X139500000Y-107000000D02*
X139500000Y-105500000D01*
X137000000Y-107000000D02*
X139500000Y-107000000D01*
X137000000Y-108000000D02*
X137000000Y-107000000D01*
X139500000Y-108000000D02*
X137000000Y-108000000D01*
X139500000Y-109500000D02*
X139500000Y-108000000D01*
X137000000Y-109500000D02*
X139500000Y-109500000D01*
X137000000Y-110500000D02*
X137000000Y-109500000D01*
X139500000Y-110500000D02*
X137000000Y-110500000D01*
X139500000Y-112000000D02*
X139500000Y-110500000D01*
X135500000Y-112000000D02*
X139500000Y-112000000D01*
X135500000Y-113500000D02*
X135500000Y-100500000D01*
X141000000Y-100500000D02*
X141000000Y-113500000D01*
G04 #@! TO.C,JSTPH1*
X108250000Y-110000000D02*
X110000000Y-110000000D01*
X108250000Y-109000000D02*
X108250000Y-110000000D01*
X103750000Y-110000000D02*
X102000000Y-110000000D01*
X103750000Y-109000000D02*
X103750000Y-110000000D01*
X103000000Y-107000000D02*
X102000000Y-107000000D01*
X110000000Y-107000000D02*
X109000000Y-107000000D01*
X101500000Y-115000000D02*
X102000000Y-115000000D01*
X101500000Y-111500000D02*
X101500000Y-115000000D01*
X102000000Y-111500000D02*
X101500000Y-111500000D01*
X110500000Y-115000000D02*
X110000000Y-115000000D01*
X110500000Y-111500000D02*
X110500000Y-115000000D01*
X110000000Y-111500000D02*
X110500000Y-111500000D01*
X103000000Y-107000000D02*
X103000000Y-109000000D01*
X102000000Y-107000000D02*
X102000000Y-109000000D01*
X109000000Y-107000000D02*
X109000000Y-109000000D01*
X110000000Y-109000000D02*
X110000000Y-107000000D01*
X104000000Y-111000000D02*
X108000000Y-111000000D01*
X102000000Y-109000000D02*
X102000000Y-111500000D01*
X110000000Y-109000000D02*
X110000000Y-111500000D01*
X108000000Y-111000000D02*
X108000000Y-115000000D01*
X104000000Y-115000000D02*
X104000000Y-111000000D01*
X107500000Y-113000000D02*
X107500000Y-115000000D01*
X106500000Y-113000000D02*
X107500000Y-113000000D01*
X106500000Y-115000000D02*
X106500000Y-113000000D01*
X105500000Y-113000000D02*
X105500000Y-115000000D01*
X104500000Y-113000000D02*
X105500000Y-113000000D01*
X104500000Y-115000000D02*
X104500000Y-113000000D01*
X108000000Y-106750000D02*
X108500000Y-106750000D01*
X103750000Y-106500000D02*
X103750000Y-107000000D01*
X103500000Y-106750000D02*
X104000000Y-106750000D01*
X102000000Y-109000000D02*
X110000000Y-109000000D01*
X106000000Y-115000000D02*
X110000000Y-115000000D01*
X106000000Y-115000000D02*
X102000000Y-115000000D01*
D11*
G04 #@! TO.C,C1*
X102490000Y-100950279D02*
X102490000Y-100624721D01*
X103510000Y-100950279D02*
X103510000Y-100624721D01*
G04 #@! TO.C,C2*
X103510000Y-104412779D02*
X103510000Y-104087221D01*
X102490000Y-104412779D02*
X102490000Y-104087221D01*
G04 #@! TO.C,CGU1*
X109150000Y-99390000D02*
X107350000Y-99390000D01*
X107350000Y-102610000D02*
X109800000Y-102610000D01*
G04 #@! TO.C,D2*
X105235000Y-97265000D02*
X102950000Y-97265000D01*
X105235000Y-98735000D02*
X105235000Y-97265000D01*
X102950000Y-98735000D02*
X105235000Y-98735000D01*
G04 #@! TO.C,J1*
X98670000Y-110200000D02*
X101330000Y-110200000D01*
X98670000Y-102520000D02*
X98670000Y-110200000D01*
X101330000Y-102520000D02*
X101330000Y-110200000D01*
X98670000Y-102520000D02*
X101330000Y-102520000D01*
X98670000Y-101250000D02*
X98670000Y-99920000D01*
X98670000Y-99920000D02*
X100000000Y-99920000D01*
G04 #@! TO.C,R2*
X107662779Y-98510000D02*
X107337221Y-98510000D01*
X107662779Y-97490000D02*
X107337221Y-97490000D01*
G04 #@! TO.C,R3*
X107662779Y-95490000D02*
X107337221Y-95490000D01*
X107662779Y-96510000D02*
X107337221Y-96510000D01*
G04 #@! TO.C,RREF1*
X108162779Y-104260000D02*
X107837221Y-104260000D01*
X108162779Y-103240000D02*
X107837221Y-103240000D01*
G04 #@! TO.C,D3*
X104550000Y-95265000D02*
X102265000Y-95265000D01*
X102265000Y-95265000D02*
X102265000Y-96735000D01*
X102265000Y-96735000D02*
X104550000Y-96735000D01*
G04 #@! TO.C,D1*
X106000000Y-100300000D02*
X104000000Y-100300000D01*
X104000000Y-100300000D02*
X104000000Y-104150000D01*
X106000000Y-100300000D02*
X106000000Y-104150000D01*
G04 #@! TO.C,C3*
X112162779Y-95490000D02*
X111837221Y-95490000D01*
X112162779Y-96510000D02*
X111837221Y-96510000D01*
G04 #@! TO.C,C4*
X112162779Y-98510000D02*
X111837221Y-98510000D01*
X112162779Y-97490000D02*
X111837221Y-97490000D01*
G04 #@! TO.C,C5*
X121510000Y-96837221D02*
X121510000Y-97162779D01*
X120490000Y-96837221D02*
X120490000Y-97162779D01*
G04 #@! TO.C,C6*
X118490000Y-96837221D02*
X118490000Y-97162779D01*
X119510000Y-96837221D02*
X119510000Y-97162779D01*
G04 #@! TO.C,REG1*
X115100000Y-98610000D02*
X116900000Y-98610000D01*
X116900000Y-95390000D02*
X114450000Y-95390000D01*
G04 #@! TO.C,D4*
X130550000Y-97015000D02*
X128265000Y-97015000D01*
X128265000Y-97015000D02*
X128265000Y-98485000D01*
X128265000Y-98485000D02*
X130550000Y-98485000D01*
G04 #@! TO.C,JP1*
X137500000Y-96300000D02*
G75*
G02X138200000Y-95600000I700000J0D01*
G01*
X138800000Y-95600000D02*
G75*
G02X139500000Y-96300000I0J-700000D01*
G01*
X139500000Y-97700000D02*
G75*
G02X138800000Y-98400000I-700000J0D01*
G01*
X138200000Y-98400000D02*
G75*
G02X137500000Y-97700000I0J700000D01*
G01*
X138800000Y-98400000D02*
X138200000Y-98400000D01*
X139500000Y-96300000D02*
X139500000Y-97700000D01*
X138200000Y-95600000D02*
X138800000Y-95600000D01*
X137500000Y-97700000D02*
X137500000Y-96300000D01*
G04 #@! TO.C,R4*
X125837221Y-97240000D02*
X126162779Y-97240000D01*
X125837221Y-98260000D02*
X126162779Y-98260000D01*
G04 #@! TO.C,R6*
X135662779Y-98260000D02*
X135337221Y-98260000D01*
X135662779Y-97240000D02*
X135337221Y-97240000D01*
G04 #@! TO.C,BTU1*
D12*
X133214285Y-110390476D02*
X133176190Y-110352380D01*
X133138095Y-110238095D01*
X133138095Y-110161904D01*
X133176190Y-110047619D01*
X133252380Y-109971428D01*
X133328571Y-109933333D01*
X133480952Y-109895238D01*
X133595238Y-109895238D01*
X133747619Y-109933333D01*
X133823809Y-109971428D01*
X133900000Y-110047619D01*
X133938095Y-110161904D01*
X133938095Y-110238095D01*
X133900000Y-110352380D01*
X133861904Y-110390476D01*
X133138095Y-110733333D02*
X133938095Y-110733333D01*
X133366666Y-111000000D01*
X133938095Y-111266666D01*
X133138095Y-111266666D01*
X133138095Y-111647619D02*
X133938095Y-111647619D01*
X133938095Y-111838095D01*
X133900000Y-111952380D01*
X133823809Y-112028571D01*
X133747619Y-112066666D01*
X133595238Y-112104761D01*
X133480952Y-112104761D01*
X133328571Y-112066666D01*
X133252380Y-112028571D01*
X133176190Y-111952380D01*
X133138095Y-111838095D01*
X133138095Y-111647619D01*
X115900000Y-102390476D02*
X115938095Y-102314285D01*
X115938095Y-102200000D01*
X115900000Y-102085714D01*
X115823809Y-102009523D01*
X115747619Y-101971428D01*
X115595238Y-101933333D01*
X115480952Y-101933333D01*
X115328571Y-101971428D01*
X115252380Y-102009523D01*
X115176190Y-102085714D01*
X115138095Y-102200000D01*
X115138095Y-102276190D01*
X115176190Y-102390476D01*
X115214285Y-102428571D01*
X115480952Y-102428571D01*
X115480952Y-102276190D01*
X115138095Y-102771428D02*
X115938095Y-102771428D01*
X115138095Y-103228571D01*
X115938095Y-103228571D01*
X115138095Y-103609523D02*
X115938095Y-103609523D01*
X115938095Y-103800000D01*
X115900000Y-103914285D01*
X115823809Y-103990476D01*
X115747619Y-104028571D01*
X115595238Y-104066666D01*
X115480952Y-104066666D01*
X115328571Y-104028571D01*
X115252380Y-103990476D01*
X115176190Y-103914285D01*
X115138095Y-103800000D01*
X115138095Y-103609523D01*
X117438095Y-101933333D02*
X116638095Y-102200000D01*
X117438095Y-102466666D01*
X116638095Y-102733333D02*
X117438095Y-102733333D01*
X117438095Y-102923809D01*
X117400000Y-103038095D01*
X117323809Y-103114285D01*
X117247619Y-103152380D01*
X117095238Y-103190476D01*
X116980952Y-103190476D01*
X116828571Y-103152380D01*
X116752380Y-103114285D01*
X116676190Y-103038095D01*
X116638095Y-102923809D01*
X116638095Y-102733333D01*
X116638095Y-103533333D02*
X117438095Y-103533333D01*
X117438095Y-103723809D01*
X117400000Y-103838095D01*
X117323809Y-103914285D01*
X117247619Y-103952380D01*
X117095238Y-103990476D01*
X116980952Y-103990476D01*
X116828571Y-103952380D01*
X116752380Y-103914285D01*
X116676190Y-103838095D01*
X116638095Y-103723809D01*
X116638095Y-103533333D01*
X133938095Y-101890476D02*
X133938095Y-102347619D01*
X133138095Y-102119047D02*
X133938095Y-102119047D01*
X133938095Y-102538095D02*
X133138095Y-103071428D01*
X133938095Y-103071428D02*
X133138095Y-102538095D01*
X131638095Y-102366666D02*
X132019047Y-102100000D01*
X131638095Y-101909523D02*
X132438095Y-101909523D01*
X132438095Y-102214285D01*
X132400000Y-102290476D01*
X132361904Y-102328571D01*
X132285714Y-102366666D01*
X132171428Y-102366666D01*
X132095238Y-102328571D01*
X132057142Y-102290476D01*
X132019047Y-102214285D01*
X132019047Y-101909523D01*
X132438095Y-102633333D02*
X131638095Y-103166666D01*
X132438095Y-103166666D02*
X131638095Y-102633333D01*
G04 #@! TD*
M02*
