M48
;DRILL file {KiCad 4.0.5} date Thursday, May 11, 2017 'PMt' 05:16:33 PM
;FORMAT={-:-/ absolute / inch / decimal}
FMAT,2
INCH,TZ
T1C0.012
%
G90
G05
M72
T1
X2.6575Y-1.378
X2.6575Y-1.5748
X2.6575Y-1.7717
X2.6575Y-1.9685
X2.6575Y-2.1654
X2.6575Y-2.3622
X2.6575Y-2.5591
X2.6575Y-2.7559
X2.6575Y-2.9528
X2.6575Y-3.1496
X2.6575Y-3.3465
X2.6575Y-3.5433
X2.6575Y-3.7402
X2.6575Y-3.937
X2.6575Y-4.1339
X2.6575Y-4.3307
X2.6575Y-4.5276
X2.6575Y-4.7244
X2.6575Y-4.9213
X2.6575Y-5.1181
X2.6575Y-5.315
X2.6575Y-5.5118
X2.6575Y-5.7087
X2.6575Y-5.9055
X2.6575Y-6.1024
X2.6575Y-6.2992
X2.6575Y-6.4961
X2.6575Y-6.6929
X2.6575Y-6.8898
X2.6575Y-7.0866
X2.6575Y-7.2835
X2.6575Y-7.4803
X2.6575Y-7.6772
X2.6575Y-7.874
X2.6575Y-8.0709
X2.6575Y-8.2677
X3.1489Y-1.37
X3.1489Y-1.47
X3.1489Y-1.57
X3.1489Y-1.67
X3.1489Y-1.77
X3.1489Y-1.87
X3.1489Y-1.97
X3.1489Y-2.07
X3.1489Y-2.17
X3.1489Y-2.27
X3.1489Y-2.37
X3.1489Y-2.47
X3.1489Y-2.57
X3.1489Y-2.67
X3.1489Y-2.77
X3.1489Y-2.87
X3.1489Y-2.97
X3.1489Y-3.07
X3.1489Y-3.17
X3.1489Y-3.27
X3.1489Y-3.37
X3.1489Y-3.47
X3.1489Y-3.57
X3.1489Y-3.67
X3.1489Y-3.77
X3.1489Y-3.87
X3.1489Y-3.97
X3.1489Y-4.07
X3.1489Y-4.17
X3.1489Y-4.27
X3.1489Y-4.37
X3.1489Y-4.47
X3.1489Y-4.57
X3.1489Y-4.67
X3.1489Y-4.77
X3.1489Y-4.87
X3.1489Y-4.97
X3.1489Y-5.07
X3.1489Y-5.17
X3.1489Y-5.27
X3.1489Y-5.37
X3.1489Y-5.47
X3.1489Y-5.57
X3.1489Y-5.67
X3.1489Y-5.77
X3.1489Y-5.87
X3.1489Y-5.97
X3.1489Y-6.07
X3.1489Y-6.17
X3.1489Y-6.27
X3.1489Y-6.37
X3.1489Y-6.47
X3.1489Y-6.57
X3.1489Y-6.67
X3.1489Y-6.77
X3.1489Y-6.87
X3.1489Y-6.97
X3.1489Y-7.07
X3.1489Y-7.17
X3.1489Y-7.27
X3.1489Y-7.37
X3.1489Y-7.47
X3.1489Y-7.57
X3.1489Y-7.67
X3.1489Y-7.77
X3.1489Y-7.87
X3.1489Y-7.97
X3.1489Y-8.07
X3.1496Y-8.2677
X3.1789Y-1.37
X3.1789Y-1.47
X3.1789Y-1.57
X3.1789Y-1.67
X3.1789Y-1.77
X3.1789Y-1.87
X3.1789Y-1.97
X3.1789Y-2.07
X3.1789Y-2.17
X3.1789Y-2.27
X3.1789Y-2.37
X3.1789Y-2.47
X3.1789Y-2.57
X3.1789Y-2.67
X3.1789Y-2.77
X3.1789Y-2.87
X3.1789Y-2.97
X3.1789Y-3.07
X3.1789Y-3.17
X3.1789Y-3.27
X3.1789Y-3.37
X3.1789Y-3.47
X3.1789Y-3.57
X3.1789Y-3.67
X3.1789Y-3.77
X3.1789Y-3.87
X3.1789Y-3.97
X3.1789Y-4.07
X3.1789Y-4.17
X3.1789Y-4.27
X3.1789Y-4.37
X3.1789Y-4.47
X3.1789Y-4.57
X3.1789Y-4.67
X3.1789Y-4.77
X3.1789Y-4.87
X3.1789Y-4.97
X3.1789Y-5.07
X3.1789Y-5.17
X3.1789Y-5.27
X3.1789Y-5.37
X3.1789Y-5.47
X3.1789Y-5.57
X3.1789Y-5.67
X3.1789Y-5.77
X3.1789Y-5.87
X3.1789Y-5.97
X3.1789Y-6.07
X3.1789Y-6.17
X3.1789Y-6.27
X3.1789Y-6.37
X3.1789Y-6.47
X3.1789Y-6.57
X3.1789Y-6.67
X3.1789Y-6.77
X3.1789Y-6.87
X3.1789Y-6.97
X3.1789Y-7.07
X3.1789Y-7.17
X3.1789Y-7.27
X3.1789Y-7.37
X3.1789Y-7.47
X3.1789Y-7.57
X3.1789Y-7.67
X3.1789Y-7.77
X3.1789Y-7.87
X3.1789Y-7.97
X3.1789Y-8.07
X3.5389Y-1.37
X3.5389Y-1.47
X3.5389Y-1.57
X3.5389Y-1.67
X3.5389Y-1.77
X3.5389Y-1.87
X3.5389Y-1.97
X3.5389Y-2.07
X3.5389Y-2.17
X3.5389Y-2.27
X3.5389Y-2.37
X3.5389Y-2.47
X3.5389Y-2.57
X3.5389Y-2.67
X3.5389Y-2.77
X3.5389Y-2.87
X3.5389Y-2.97
X3.5389Y-3.07
X3.5389Y-3.17
X3.5389Y-3.27
X3.5389Y-3.37
X3.5389Y-3.47
X3.5389Y-3.57
X3.5389Y-3.67
X3.5389Y-3.77
X3.5389Y-3.87
X3.5389Y-3.97
X3.5389Y-4.07
X3.5389Y-4.17
X3.5389Y-4.27
X3.5389Y-4.37
X3.5389Y-4.47
X3.5389Y-4.57
X3.5389Y-4.67
X3.5389Y-4.77
X3.5389Y-4.87
X3.5389Y-4.97
X3.5389Y-5.07
X3.5389Y-5.17
X3.5389Y-5.27
X3.5389Y-5.37
X3.5389Y-5.47
X3.5389Y-5.57
X3.5389Y-5.67
X3.5389Y-5.77
X3.5389Y-5.87
X3.5389Y-5.97
X3.5389Y-6.07
X3.5389Y-6.17
X3.5389Y-6.27
X3.5389Y-6.37
X3.5389Y-6.47
X3.5389Y-6.57
X3.5389Y-6.67
X3.5389Y-6.77
X3.5389Y-6.87
X3.5389Y-6.97
X3.5389Y-7.07
X3.5389Y-7.17
X3.5389Y-7.27
X3.5389Y-7.37
X3.5389Y-7.47
X3.5389Y-7.57
X3.5389Y-7.67
X3.5389Y-7.77
X3.5389Y-7.87
X3.5389Y-7.97
X3.5389Y-8.07
X3.5689Y-1.37
X3.5689Y-1.47
X3.5689Y-1.57
X3.5689Y-1.67
X3.5689Y-1.77
X3.5689Y-1.87
X3.5689Y-1.97
X3.5689Y-2.07
X3.5689Y-2.17
X3.5689Y-2.27
X3.5689Y-2.37
X3.5689Y-2.47
X3.5689Y-2.57
X3.5689Y-2.67
X3.5689Y-2.77
X3.5689Y-2.87
X3.5689Y-2.97
X3.5689Y-3.07
X3.5689Y-3.17
X3.5689Y-3.27
X3.5689Y-3.37
X3.5689Y-3.47
X3.5689Y-3.57
X3.5689Y-3.67
X3.5689Y-3.77
X3.5689Y-3.87
X3.5689Y-3.97
X3.5689Y-4.07
X3.5689Y-4.17
X3.5689Y-4.27
X3.5689Y-4.37
X3.5689Y-4.47
X3.5689Y-4.57
X3.5689Y-4.67
X3.5689Y-4.77
X3.5689Y-4.87
X3.5689Y-4.97
X3.5689Y-5.07
X3.5689Y-5.17
X3.5689Y-5.27
X3.5689Y-5.37
X3.5689Y-5.47
X3.5689Y-5.57
X3.5689Y-5.67
X3.5689Y-5.77
X3.5689Y-5.87
X3.5689Y-5.97
X3.5689Y-6.07
X3.5689Y-6.17
X3.5689Y-6.27
X3.5689Y-6.37
X3.5689Y-6.47
X3.5689Y-6.57
X3.5689Y-6.67
X3.5689Y-6.77
X3.5689Y-6.87
X3.5689Y-6.97
X3.5689Y-7.07
X3.5689Y-7.17
X3.5689Y-7.27
X3.5689Y-7.37
X3.5689Y-7.47
X3.5689Y-7.57
X3.5689Y-7.67
X3.5689Y-7.77
X3.5689Y-7.87
X3.5689Y-7.97
X3.5689Y-8.07
X3.7394Y-1.37
X3.7394Y-1.47
X3.7394Y-1.57
X3.7394Y-1.67
X3.7394Y-1.77
X3.7394Y-1.87
X3.7394Y-1.97
X3.7394Y-2.07
X3.7394Y-2.17
X3.7394Y-2.27
X3.7394Y-2.37
X3.7394Y-2.47
X3.7394Y-2.57
X3.7394Y-2.67
X3.7394Y-2.77
X3.7394Y-2.87
X3.7394Y-2.97
X3.7394Y-3.07
X3.7394Y-3.17
X3.7394Y-3.27
X3.7394Y-3.37
X3.7394Y-3.47
X3.7394Y-3.57
X3.7394Y-3.67
X3.7394Y-3.77
X3.7394Y-3.87
X3.7394Y-3.97
X3.7394Y-4.07
X3.7394Y-4.17
X3.7394Y-4.27
X3.7394Y-4.37
X3.7394Y-4.47
X3.7394Y-4.57
X3.7394Y-4.67
X3.7394Y-4.77
X3.7394Y-4.87
X3.7394Y-4.97
X3.7394Y-5.07
X3.7394Y-5.17
X3.7394Y-5.27
X3.7394Y-5.37
X3.7394Y-5.47
X3.7394Y-5.57
X3.7394Y-5.67
X3.7394Y-5.77
X3.7394Y-5.87
X3.7394Y-5.97
X3.7394Y-6.07
X3.7394Y-6.17
X3.7394Y-6.27
X3.7394Y-6.37
X3.7394Y-6.47
X3.7394Y-6.57
X3.7394Y-6.67
X3.7394Y-6.77
X3.7394Y-6.87
X3.7394Y-6.97
X3.7394Y-7.07
X3.7394Y-7.17
X3.7394Y-7.27
X3.7394Y-7.37
X3.7394Y-7.47
X3.7394Y-7.57
X3.7394Y-7.67
X3.7394Y-7.77
X3.7394Y-7.87
X3.7394Y-7.97
X3.7394Y-8.07
X3.7402Y-8.2677
X3.7694Y-1.37
X3.7694Y-1.47
X3.7694Y-1.57
X3.7694Y-1.67
X3.7694Y-1.77
X3.7694Y-1.87
X3.7694Y-1.97
X3.7694Y-2.07
X3.7694Y-2.17
X3.7694Y-2.27
X3.7694Y-2.37
X3.7694Y-2.47
X3.7694Y-2.57
X3.7694Y-2.67
X3.7694Y-2.77
X3.7694Y-2.87
X3.7694Y-2.97
X3.7694Y-3.07
X3.7694Y-3.17
X3.7694Y-3.27
X3.7694Y-3.37
X3.7694Y-3.47
X3.7694Y-3.57
X3.7694Y-3.67
X3.7694Y-3.77
X3.7694Y-3.87
X3.7694Y-3.97
X3.7694Y-4.07
X3.7694Y-4.17
X3.7694Y-4.27
X3.7694Y-4.37
X3.7694Y-4.47
X3.7694Y-4.57
X3.7694Y-4.67
X3.7694Y-4.77
X3.7694Y-4.87
X3.7694Y-4.97
X3.7694Y-5.07
X3.7694Y-5.17
X3.7694Y-5.27
X3.7694Y-5.37
X3.7694Y-5.47
X3.7694Y-5.57
X3.7694Y-5.67
X3.7694Y-5.77
X3.7694Y-5.87
X3.7694Y-5.97
X3.7694Y-6.07
X3.7694Y-6.17
X3.7694Y-6.27
X3.7694Y-6.37
X3.7694Y-6.47
X3.7694Y-6.57
X3.7694Y-6.67
X3.7694Y-6.77
X3.7694Y-6.87
X3.7694Y-6.97
X3.7694Y-7.07
X3.7694Y-7.17
X3.7694Y-7.27
X3.7694Y-7.37
X3.7694Y-7.47
X3.7694Y-7.57
X3.7694Y-7.67
X3.7694Y-7.77
X3.7694Y-7.87
X3.7694Y-7.97
X3.7694Y-8.07
X4.1294Y-1.37
X4.1294Y-1.47
X4.1294Y-1.57
X4.1294Y-1.67
X4.1294Y-1.77
X4.1294Y-1.87
X4.1294Y-1.97
X4.1294Y-2.07
X4.1294Y-2.17
X4.1294Y-2.27
X4.1294Y-2.37
X4.1294Y-2.47
X4.1294Y-2.57
X4.1294Y-2.67
X4.1294Y-2.77
X4.1294Y-2.87
X4.1294Y-2.97
X4.1294Y-3.07
X4.1294Y-3.17
X4.1294Y-3.27
X4.1294Y-3.37
X4.1294Y-3.47
X4.1294Y-3.57
X4.1294Y-3.67
X4.1294Y-3.77
X4.1294Y-3.87
X4.1294Y-3.97
X4.1294Y-4.07
X4.1294Y-4.17
X4.1294Y-4.27
X4.1294Y-4.37
X4.1294Y-4.47
X4.1294Y-4.57
X4.1294Y-4.67
X4.1294Y-4.77
X4.1294Y-4.87
X4.1294Y-4.97
X4.1294Y-5.07
X4.1294Y-5.17
X4.1294Y-5.27
X4.1294Y-5.37
X4.1294Y-5.47
X4.1294Y-5.57
X4.1294Y-5.67
X4.1294Y-5.77
X4.1294Y-5.87
X4.1294Y-5.97
X4.1294Y-6.07
X4.1294Y-6.17
X4.1294Y-6.27
X4.1294Y-6.37
X4.1294Y-6.47
X4.1294Y-6.57
X4.1294Y-6.67
X4.1294Y-6.77
X4.1294Y-6.87
X4.1294Y-6.97
X4.1294Y-7.07
X4.1294Y-7.17
X4.1294Y-7.27
X4.1294Y-7.37
X4.1294Y-7.47
X4.1294Y-7.57
X4.1294Y-7.67
X4.1294Y-7.77
X4.1294Y-7.87
X4.1294Y-7.97
X4.1294Y-8.07
X4.1594Y-1.37
X4.1594Y-1.47
X4.1594Y-1.57
X4.1594Y-1.67
X4.1594Y-1.77
X4.1594Y-1.87
X4.1594Y-1.97
X4.1594Y-2.07
X4.1594Y-2.17
X4.1594Y-2.27
X4.1594Y-2.37
X4.1594Y-2.47
X4.1594Y-2.57
X4.1594Y-2.67
X4.1594Y-2.77
X4.1594Y-2.87
X4.1594Y-2.97
X4.1594Y-3.07
X4.1594Y-3.17
X4.1594Y-3.27
X4.1594Y-3.37
X4.1594Y-3.47
X4.1594Y-3.57
X4.1594Y-3.67
X4.1594Y-3.77
X4.1594Y-3.87
X4.1594Y-3.97
X4.1594Y-4.07
X4.1594Y-4.17
X4.1594Y-4.27
X4.1594Y-4.37
X4.1594Y-4.47
X4.1594Y-4.57
X4.1594Y-4.67
X4.1594Y-4.77
X4.1594Y-4.87
X4.1594Y-4.97
X4.1594Y-5.07
X4.1594Y-5.17
X4.1594Y-5.27
X4.1594Y-5.37
X4.1594Y-5.47
X4.1594Y-5.57
X4.1594Y-5.67
X4.1594Y-5.77
X4.1594Y-5.87
X4.1594Y-5.97
X4.1594Y-6.07
X4.1594Y-6.17
X4.1594Y-6.27
X4.1594Y-6.37
X4.1594Y-6.47
X4.1594Y-6.57
X4.1594Y-6.67
X4.1594Y-6.77
X4.1594Y-6.87
X4.1594Y-6.97
X4.1594Y-7.07
X4.1594Y-7.17
X4.1594Y-7.27
X4.1594Y-7.37
X4.1594Y-7.47
X4.1594Y-7.57
X4.1594Y-7.67
X4.1594Y-7.77
X4.1594Y-7.87
X4.1594Y-7.97
X4.1594Y-8.07
X4.33Y-1.37
X4.33Y-1.47
X4.33Y-1.57
X4.33Y-1.67
X4.33Y-1.77
X4.33Y-1.87
X4.33Y-1.97
X4.33Y-2.07
X4.33Y-2.17
X4.33Y-2.27
X4.33Y-2.37
X4.33Y-2.47
X4.33Y-2.57
X4.33Y-2.67
X4.33Y-2.77
X4.33Y-2.87
X4.33Y-2.97
X4.33Y-3.07
X4.33Y-3.17
X4.33Y-3.27
X4.33Y-3.37
X4.33Y-3.47
X4.33Y-3.57
X4.33Y-3.67
X4.33Y-3.77
X4.33Y-3.87
X4.33Y-3.97
X4.33Y-4.07
X4.33Y-4.17
X4.33Y-4.27
X4.33Y-4.37
X4.33Y-4.47
X4.33Y-4.57
X4.33Y-4.67
X4.33Y-4.77
X4.33Y-4.87
X4.33Y-4.97
X4.33Y-5.07
X4.33Y-5.17
X4.33Y-5.27
X4.33Y-5.37
X4.33Y-5.47
X4.33Y-5.57
X4.33Y-5.67
X4.33Y-5.77
X4.33Y-5.87
X4.33Y-5.97
X4.33Y-6.07
X4.33Y-6.17
X4.33Y-6.27
X4.33Y-6.37
X4.33Y-6.47
X4.33Y-6.57
X4.33Y-6.67
X4.33Y-6.77
X4.33Y-6.87
X4.33Y-6.97
X4.33Y-7.07
X4.33Y-7.17
X4.33Y-7.27
X4.33Y-7.37
X4.33Y-7.47
X4.33Y-7.57
X4.33Y-7.67
X4.33Y-7.77
X4.33Y-7.87
X4.33Y-7.97
X4.33Y-8.07
X4.3307Y-8.2677
X4.36Y-1.37
X4.36Y-1.47
X4.36Y-1.57
X4.36Y-1.67
X4.36Y-1.77
X4.36Y-1.87
X4.36Y-1.97
X4.36Y-2.07
X4.36Y-2.17
X4.36Y-2.27
X4.36Y-2.37
X4.36Y-2.47
X4.36Y-2.57
X4.36Y-2.67
X4.36Y-2.77
X4.36Y-2.87
X4.36Y-2.97
X4.36Y-3.07
X4.36Y-3.17
X4.36Y-3.27
X4.36Y-3.37
X4.36Y-3.47
X4.36Y-3.57
X4.36Y-3.67
X4.36Y-3.77
X4.36Y-3.87
X4.36Y-3.97
X4.36Y-4.07
X4.36Y-4.17
X4.36Y-4.27
X4.36Y-4.37
X4.36Y-4.47
X4.36Y-4.57
X4.36Y-4.67
X4.36Y-4.77
X4.36Y-4.87
X4.36Y-4.97
X4.36Y-5.07
X4.36Y-5.17
X4.36Y-5.27
X4.36Y-5.37
X4.36Y-5.47
X4.36Y-5.57
X4.36Y-5.67
X4.36Y-5.77
X4.36Y-5.87
X4.36Y-5.97
X4.36Y-6.07
X4.36Y-6.17
X4.36Y-6.27
X4.36Y-6.37
X4.36Y-6.47
X4.36Y-6.57
X4.36Y-6.67
X4.36Y-6.77
X4.36Y-6.87
X4.36Y-6.97
X4.36Y-7.07
X4.36Y-7.17
X4.36Y-7.27
X4.36Y-7.37
X4.36Y-7.47
X4.36Y-7.57
X4.36Y-7.67
X4.36Y-7.77
X4.36Y-7.87
X4.36Y-7.97
X4.36Y-8.07
X4.72Y-1.37
X4.72Y-1.47
X4.72Y-1.57
X4.72Y-1.67
X4.72Y-1.77
X4.72Y-1.87
X4.72Y-1.97
X4.72Y-2.07
X4.72Y-2.17
X4.72Y-2.27
X4.72Y-2.37
X4.72Y-2.47
X4.72Y-2.57
X4.72Y-2.67
X4.72Y-2.77
X4.72Y-2.87
X4.72Y-2.97
X4.72Y-3.07
X4.72Y-3.17
X4.72Y-3.27
X4.72Y-3.37
X4.72Y-3.47
X4.72Y-3.57
X4.72Y-3.67
X4.72Y-3.77
X4.72Y-3.87
X4.72Y-3.97
X4.72Y-4.07
X4.72Y-4.17
X4.72Y-4.27
X4.72Y-4.37
X4.72Y-4.47
X4.72Y-4.57
X4.72Y-4.67
X4.72Y-4.77
X4.72Y-4.87
X4.72Y-4.97
X4.72Y-5.07
X4.72Y-5.17
X4.72Y-5.27
X4.72Y-5.37
X4.72Y-5.47
X4.72Y-5.57
X4.72Y-5.67
X4.72Y-5.77
X4.72Y-5.87
X4.72Y-5.97
X4.72Y-6.07
X4.72Y-6.17
X4.72Y-6.27
X4.72Y-6.37
X4.72Y-6.47
X4.72Y-6.57
X4.72Y-6.67
X4.72Y-6.77
X4.72Y-6.87
X4.72Y-6.97
X4.72Y-7.07
X4.72Y-7.17
X4.72Y-7.27
X4.72Y-7.37
X4.72Y-7.47
X4.72Y-7.57
X4.72Y-7.67
X4.72Y-7.77
X4.72Y-7.87
X4.72Y-7.97
X4.72Y-8.07
X4.75Y-1.37
X4.75Y-1.47
X4.75Y-1.57
X4.75Y-1.67
X4.75Y-1.77
X4.75Y-1.87
X4.75Y-1.97
X4.75Y-2.07
X4.75Y-2.17
X4.75Y-2.27
X4.75Y-2.37
X4.75Y-2.47
X4.75Y-2.57
X4.75Y-2.67
X4.75Y-2.77
X4.75Y-2.87
X4.75Y-2.97
X4.75Y-3.07
X4.75Y-3.17
X4.75Y-3.27
X4.75Y-3.37
X4.75Y-3.47
X4.75Y-3.57
X4.75Y-3.67
X4.75Y-3.77
X4.75Y-3.87
X4.75Y-3.97
X4.75Y-4.07
X4.75Y-4.17
X4.75Y-4.27
X4.75Y-4.37
X4.75Y-4.47
X4.75Y-4.57
X4.75Y-4.67
X4.75Y-4.77
X4.75Y-4.87
X4.75Y-4.97
X4.75Y-5.07
X4.75Y-5.17
X4.75Y-5.27
X4.75Y-5.37
X4.75Y-5.47
X4.75Y-5.57
X4.75Y-5.67
X4.75Y-5.77
X4.75Y-5.87
X4.75Y-5.97
X4.75Y-6.07
X4.75Y-6.17
X4.75Y-6.27
X4.75Y-6.37
X4.75Y-6.47
X4.75Y-6.57
X4.75Y-6.67
X4.75Y-6.77
X4.75Y-6.87
X4.75Y-6.97
X4.75Y-7.07
X4.75Y-7.17
X4.75Y-7.27
X4.75Y-7.37
X4.75Y-7.47
X4.75Y-7.57
X4.75Y-7.67
X4.75Y-7.77
X4.75Y-7.87
X4.75Y-7.97
X4.75Y-8.07
X4.92Y-1.37
X4.92Y-1.47
X4.92Y-1.57
X4.92Y-1.67
X4.92Y-1.77
X4.92Y-1.87
X4.92Y-1.97
X4.92Y-2.07
X4.92Y-2.17
X4.92Y-2.27
X4.92Y-2.37
X4.92Y-2.47
X4.92Y-2.57
X4.92Y-2.67
X4.92Y-2.77
X4.92Y-2.87
X4.92Y-2.97
X4.92Y-3.07
X4.92Y-3.17
X4.92Y-3.27
X4.92Y-3.37
X4.92Y-3.47
X4.92Y-3.57
X4.92Y-3.6744
X4.92Y-3.77
X4.92Y-3.87
X4.92Y-3.97
X4.92Y-4.07
X4.92Y-4.17
X4.92Y-4.27
X4.92Y-4.37
X4.92Y-4.47
X4.92Y-4.57
X4.92Y-4.67
X4.92Y-4.77
X4.92Y-4.87
X4.92Y-4.97
X4.92Y-5.07
X4.92Y-5.17
X4.92Y-5.2744
X4.92Y-5.37
X4.92Y-5.47
X4.92Y-5.57
X4.92Y-5.67
X4.9213Y-8.2677
X4.93Y-5.78
X4.93Y-5.88
X4.93Y-5.98
X4.93Y-6.08
X4.93Y-6.18
X4.93Y-6.27
X4.93Y-6.37
X4.93Y-6.48
X4.93Y-6.58
X4.93Y-6.68
X4.93Y-6.78
X4.93Y-6.88
X4.93Y-6.98
X4.93Y-7.07
X4.93Y-7.17
X4.94Y-8.07
X4.95Y-1.37
X4.95Y-1.47
X4.95Y-1.57
X4.95Y-1.67
X4.95Y-1.77
X4.95Y-1.87
X4.95Y-1.97
X4.95Y-2.07
X4.95Y-2.17
X4.95Y-2.27
X4.95Y-2.37
X4.95Y-2.47
X4.95Y-2.57
X4.95Y-2.67
X4.95Y-2.77
X4.95Y-2.87
X4.95Y-2.97
X4.95Y-3.07
X4.95Y-3.17
X4.95Y-3.27
X4.95Y-3.37
X4.95Y-3.47
X4.95Y-3.575
X4.95Y-3.77
X4.95Y-3.87
X4.95Y-3.97
X4.95Y-4.07
X4.95Y-4.17
X4.95Y-4.27
X4.95Y-4.37
X4.95Y-4.47
X4.95Y-4.57
X4.95Y-4.67
X4.95Y-4.77
X4.95Y-4.87
X4.95Y-4.97
X4.95Y-5.07
X4.95Y-5.17
X4.95Y-5.2744
X4.95Y-5.37
X4.95Y-5.47
X4.95Y-5.57
X4.95Y-5.67
X4.95Y-5.76
X4.95Y-5.86
X4.95Y-5.96
X4.95Y-6.06
X4.95Y-6.16
X4.95Y-6.25
X4.95Y-6.35
X4.95Y-6.46
X4.95Y-6.56
X4.95Y-6.66
X4.95Y-6.76
X4.95Y-6.86
X4.95Y-6.96
X4.95Y-7.05
X4.95Y-7.15
X4.95Y-7.26
X4.95Y-7.37
X4.95Y-7.47
X4.95Y-7.57
X4.95Y-7.67
X4.95Y-7.77
X4.95Y-7.87
X4.95Y-7.97
X4.96Y-3.6744
X4.97Y-7.24
X4.97Y-7.35
X4.97Y-7.45
X4.97Y-7.55
X4.97Y-7.65
X4.97Y-7.75
X4.975Y-7.85
X4.975Y-7.95
X4.975Y-8.05
X5.1181Y-1.378
X5.1181Y-8.0709
X5.1181Y-8.2677
X5.315Y-1.378
X5.315Y-1.5748
X5.315Y-7.874
X5.315Y-8.0709
X5.315Y-8.2677
X5.5118Y-1.378
X5.5118Y-1.5748
X5.5118Y-1.7717
X5.5118Y-7.6772
X5.5118Y-7.874
X5.7087Y-7.4803
X5.7087Y-7.6772
X5.7087Y-7.874
X5.7087Y-8.2677
X5.9055Y-3.7402
X5.9055Y-3.937
X5.9055Y-7.2835
X5.9055Y-7.4803
X5.9055Y-7.6772
X5.9055Y-7.874
X5.9055Y-8.0709
X5.9055Y-8.2677
X6.1024Y-3.5433
X6.1024Y-3.7402
X6.1024Y-3.937
X6.1024Y-4.1339
X6.1024Y-4.3307
X6.1024Y-4.5276
X6.1024Y-7.0866
X6.1024Y-7.2835
X6.1024Y-7.4803
X6.1024Y-7.6772
X6.1024Y-7.874
X6.2992Y-3.5433
X6.2992Y-3.7402
X6.2992Y-3.937
X6.2992Y-4.1339
X6.2992Y-4.3307
X6.2992Y-4.5276
X6.2992Y-6.8898
X6.2992Y-7.0866
X6.2992Y-7.2835
X6.2992Y-7.4803
X6.2992Y-7.6772
X6.2992Y-7.874
X6.2992Y-8.2677
X6.4961Y-3.5433
X6.4961Y-3.7402
X6.4961Y-3.937
X6.4961Y-4.1339
X6.4961Y-4.3307
X6.4961Y-4.5276
X6.4961Y-6.6929
X6.4961Y-6.8898
X6.4961Y-7.0866
X6.4961Y-7.2835
X6.4961Y-7.4803
X6.4961Y-7.6772
X6.4961Y-7.874
X6.4961Y-8.0709
X6.4961Y-8.2677
X6.6929Y-3.5433
X6.6929Y-3.7402
X6.6929Y-3.937
X6.6929Y-4.1339
X6.6929Y-4.3307
X6.6929Y-4.5276
X6.6929Y-6.4961
X6.6929Y-6.6929
X6.6929Y-6.8898
X6.6929Y-7.0866
X6.6929Y-7.2835
X6.6929Y-7.4803
X6.6929Y-7.6772
X6.6929Y-7.874
X6.8898Y-6.2992
X6.8898Y-6.4961
X6.8898Y-6.6929
X6.8898Y-6.8898
X6.8898Y-7.0866
X6.8898Y-7.2835
X6.8898Y-7.4803
X6.8898Y-7.6772
X6.8898Y-7.874
X6.8898Y-8.2677
X7.0866Y-6.2992
X7.0866Y-6.4961
X7.2835Y-6.2992
X7.325Y-3.975
X7.338Y-4.0987
X7.34Y-3.74
X7.34Y-3.54
X7.34Y-3.59
X7.34Y-3.64
X7.34Y-3.79
X7.34Y-3.84
X7.34Y-3.89
X7.34Y-3.94
X7.34Y-4.14
X7.34Y-4.19
X7.34Y-4.24
X7.34Y-4.29
X7.34Y-4.34
X7.34Y-4.39
X7.34Y-3.69
X7.3451Y-4.0679
X7.3648Y-3.9922
X7.37Y-3.54
X7.37Y-3.59
X7.37Y-3.64
X7.37Y-3.69
X7.37Y-3.737
X7.37Y-3.79
X7.37Y-3.84
X7.37Y-3.89
X7.37Y-3.94
X7.37Y-4.037
X7.37Y-4.137
X7.37Y-4.187
X7.37Y-4.237
X7.37Y-4.287
X7.37Y-4.337
X7.37Y-4.3969
X7.3702Y-4.0872
X7.41Y-3.48
X7.44Y-3.48
X7.4803Y-3.7402
X7.4803Y-3.937
X7.4803Y-4.1339
X7.4803Y-6.2992
X7.52Y-3.43
X7.52Y-3.53
X7.52Y-4.34
X7.52Y-4.45
X7.55Y-3.4
X7.55Y-4.47
X7.57Y-3.42
X7.57Y-4.45
X7.6Y-4.47
X7.6Y-3.4
X7.62Y-3.42
X7.62Y-4.45
X7.65Y-3.4
X7.65Y-4.47
X7.67Y-3.42
X7.67Y-4.45
X7.6772Y-2.9528
X7.6772Y-3.5433
X7.6772Y-3.7402
X7.6772Y-3.937
X7.6772Y-4.1339
X7.6772Y-4.3307
X7.6772Y-5.9055
X7.6772Y-6.2992
X7.7Y-3.4
X7.7Y-4.47
X7.72Y-3.42
X7.72Y-4.45
X7.75Y-3.4
X7.75Y-4.47
X7.77Y-3.42
X7.77Y-4.45
X7.8Y-3.4
X7.8Y-4.47
X7.82Y-3.42
X7.82Y-4.45
X7.85Y-3.4
X7.85Y-4.47
X7.87Y-3.42
X7.87Y-4.45
X7.874Y-2.9528
X7.874Y-3.1496
X7.874Y-3.5433
X7.874Y-3.7402
X7.874Y-3.937
X7.874Y-4.1339
X7.874Y-4.3307
X7.874Y-5.7087
X7.874Y-5.9055
X7.874Y-6.2992
X7.9Y-3.4
X7.9Y-4.47
X7.92Y-3.42
X7.92Y-4.45
X7.95Y-3.4
X7.95Y-4.47
X7.97Y-3.42
X7.97Y-4.45
X8.Y-3.4
X8.Y-4.47
X8.02Y-3.42
X8.02Y-4.45
X8.05Y-4.47
X8.07Y-4.45
X8.0709Y-2.9528
X8.0709Y-3.1496
X8.0709Y-3.3465
X8.0709Y-3.5433
X8.0709Y-3.7402
X8.0709Y-3.937
X8.0709Y-4.1339
X8.0709Y-4.3307
X8.0709Y-5.5118
X8.0709Y-5.7087
X8.0709Y-5.9055
X8.0709Y-6.2992
X8.08Y-3.42
X8.1Y-3.4
X8.1Y-4.47
X8.12Y-4.45
X8.13Y-3.42
X8.15Y-3.4
X8.15Y-4.47
X8.17Y-4.45
X8.18Y-3.42
X8.2Y-3.4
X8.2Y-4.47
X8.22Y-4.45
X8.23Y-3.42
X8.25Y-3.4
X8.25Y-4.47
X8.2677Y-2.9528
X8.2677Y-3.1496
X8.2677Y-3.5433
X8.2677Y-3.7402
X8.2677Y-3.937
X8.2677Y-4.1339
X8.2677Y-4.3307
X8.2677Y-5.315
X8.2677Y-5.5118
X8.2677Y-5.7087
X8.2677Y-5.9055
X8.2677Y-6.2992
X8.27Y-4.45
X8.32Y-3.48
X8.325Y-4.375
X8.325Y-4.4
X8.35Y-3.48
X8.41Y-3.54
X8.41Y-3.59
X8.41Y-3.64
X8.41Y-3.69
X8.41Y-3.74
X8.41Y-3.79
X8.41Y-3.84
X8.41Y-3.89
X8.41Y-3.94
X8.41Y-3.99
X8.41Y-4.04
X8.41Y-4.09
X8.41Y-4.14
X8.41Y-4.19
X8.41Y-4.24
X8.41Y-4.29
X8.41Y-4.32
X8.43Y-3.56
X8.43Y-3.61
X8.43Y-3.66
X8.43Y-3.71
X8.43Y-3.76
X8.43Y-3.81
X8.43Y-3.86
X8.43Y-3.91
X8.43Y-3.96
X8.43Y-4.01
X8.43Y-4.06
X8.43Y-4.11
X8.43Y-4.16
X8.43Y-4.21
X8.43Y-4.26
X8.4646Y-2.9528
X8.4646Y-3.1496
X8.4646Y-5.1181
X8.4646Y-5.315
X8.4646Y-5.5118
X8.4646Y-5.7087
X8.4646Y-5.9055
X8.4646Y-6.2992
X8.6614Y-2.9528
X8.6614Y-3.1496
X8.6614Y-3.5433
X8.6614Y-4.9213
X8.6614Y-5.1181
X8.6614Y-5.315
X8.6614Y-5.5118
X8.6614Y-5.7087
X8.6614Y-6.2992
X8.8583Y-2.9528
X8.8583Y-3.1496
X8.8583Y-3.5433
X8.8583Y-3.7402
X8.8583Y-4.7244
X8.8583Y-4.9213
X8.8583Y-5.1181
X8.8583Y-5.315
X8.8583Y-5.5118
X8.8583Y-6.1024
X8.8583Y-6.2992
X9.0551Y-2.9528
X9.0551Y-3.1496
X9.0551Y-3.5433
X9.0551Y-3.7402
X9.0551Y-3.937
X9.0551Y-4.1339
X9.0551Y-4.3307
X9.0551Y-4.5276
X9.0551Y-4.7244
X9.0551Y-4.9213
X9.0551Y-5.1181
X9.0551Y-5.315
X9.0551Y-5.9055
X9.0551Y-6.1024
X9.0551Y-6.2992
X9.252Y-2.9528
X9.252Y-3.1496
X9.252Y-3.5433
X9.252Y-3.7402
X9.252Y-3.937
X9.252Y-4.1339
X9.252Y-4.3307
X9.252Y-4.5276
X9.252Y-4.7244
X9.252Y-4.9213
X9.252Y-5.1181
X9.252Y-5.7087
X9.252Y-5.9055
X9.252Y-6.1024
X9.252Y-6.2992
X9.4488Y-2.9528
X9.4488Y-3.1496
X9.4488Y-3.5433
X9.4488Y-3.7402
X9.4488Y-3.937
X9.4488Y-4.1339
X9.4488Y-4.3307
X9.4488Y-4.5276
X9.4488Y-4.7244
X9.4488Y-4.9213
X9.4488Y-5.5118
X9.4488Y-5.7087
X9.4488Y-5.9055
X9.4488Y-6.1024
X9.4488Y-6.2992
X9.6457Y-2.9528
X9.6457Y-3.1496
X9.6457Y-3.3465
X9.6457Y-3.7402
X9.6457Y-3.937
X9.6457Y-4.1339
X9.6457Y-4.3307
X9.6457Y-4.5276
X9.6457Y-4.7244
X9.6457Y-5.315
X9.6457Y-5.5118
X9.6457Y-5.7087
X9.6457Y-5.9055
X9.6457Y-6.1024
X9.6457Y-6.2992
X9.8425Y-2.9528
X9.8425Y-3.1496
X9.8425Y-3.3465
X9.8425Y-3.5433
X9.8425Y-5.1181
X9.8425Y-5.315
X9.8425Y-5.5118
X9.8425Y-5.7087
X9.8425Y-5.9055
X9.8425Y-6.1024
X9.8425Y-6.2992
X10.0394Y-2.9528
X10.0394Y-3.1496
X10.0394Y-3.3465
X10.0394Y-3.5433
X10.0394Y-3.7402
X10.0394Y-3.937
X10.0394Y-4.1339
X10.0394Y-4.3307
X10.0394Y-4.5276
X10.0394Y-4.7244
X10.0394Y-4.9213
X10.0394Y-5.1181
X10.0394Y-5.315
X10.0394Y-5.5118
X10.0394Y-5.7087
X10.0394Y-5.9055
X10.0394Y-6.1024
X10.0394Y-6.2992
X10.2362Y-3.1496
X10.2362Y-3.3465
X10.2362Y-3.5433
X10.2362Y-3.7402
X10.2362Y-3.937
X10.2362Y-4.1339
X10.2362Y-4.3307
X10.2362Y-4.5276
X10.2362Y-4.7244
X10.2362Y-4.9213
X10.2362Y-5.1181
X10.2362Y-5.315
X10.2362Y-5.5118
X10.2362Y-5.7087
X10.2362Y-5.9055
X10.2362Y-6.1024
X10.2362Y-6.2992
T0
M30
