G04 #@! TF.FileFunction,Paste,Top*
%FSLAX46Y46*%
G04 Gerber Fmt 4.6, Leading zero omitted, Abs format (unit mm)*
G04 Created by KiCad (PCBNEW 4.0.5) date Thursday, May 11, 2017 'PMt' 05:16:29 PM*
%MOMM*%
%LPD*%
G01*
G04 APERTURE LIST*
%ADD10C,0.100000*%
%ADD11R,0.800000X2.100000*%
%ADD12R,0.750000X0.800000*%
%ADD13R,2.980000X1.070000*%
%ADD14R,1.510000X0.300000*%
%ADD15R,0.300000X1.510000*%
G04 APERTURE END LIST*
D10*
D11*
X115315000Y-211250000D03*
X118685000Y-211250000D03*
D12*
X117000000Y-209520000D03*
D11*
X100315000Y-211250000D03*
X103685000Y-211250000D03*
D12*
X102000000Y-209520000D03*
D11*
X85315000Y-211250000D03*
X88685000Y-211250000D03*
D12*
X87000000Y-209520000D03*
D11*
X70315000Y-211250000D03*
X73685000Y-211250000D03*
D12*
X72000000Y-209520000D03*
D11*
X137315000Y-211250000D03*
X140685000Y-211250000D03*
D12*
X139000000Y-209520000D03*
D13*
X139270000Y-205270000D03*
X139270000Y-202730000D03*
X144730000Y-205270000D03*
X144730000Y-202730000D03*
D11*
X167315000Y-211250000D03*
X170685000Y-211250000D03*
D12*
X169000000Y-209520000D03*
D13*
X169270000Y-205270000D03*
X169270000Y-202730000D03*
X174730000Y-205270000D03*
X174730000Y-202730000D03*
D11*
X152315000Y-211250000D03*
X155685000Y-211250000D03*
D12*
X154000000Y-209520000D03*
D13*
X154270000Y-205270000D03*
X154270000Y-202730000D03*
X159730000Y-205270000D03*
X159730000Y-202730000D03*
X117270000Y-205090000D03*
X117270000Y-202550000D03*
X117270000Y-200010000D03*
X117270000Y-197470000D03*
X117270000Y-194930000D03*
X117270000Y-192390000D03*
X117270000Y-189850000D03*
X117270000Y-187310000D03*
X117270000Y-184770000D03*
X117270000Y-182230000D03*
X117270000Y-179690000D03*
X117270000Y-177150000D03*
X117270000Y-174610000D03*
X117270000Y-172070000D03*
X117270000Y-169530000D03*
X117270000Y-166990000D03*
X117270000Y-164450000D03*
X117270000Y-161910000D03*
X117270000Y-159370000D03*
X117270000Y-156830000D03*
X117270000Y-154290000D03*
X117270000Y-151750000D03*
X117270000Y-149210000D03*
X117270000Y-146670000D03*
X117270000Y-144130000D03*
X117270000Y-141590000D03*
X117270000Y-139050000D03*
X117270000Y-136510000D03*
X117270000Y-133970000D03*
X117270000Y-131430000D03*
X117270000Y-128890000D03*
X117270000Y-126350000D03*
X117270000Y-123810000D03*
X117270000Y-121270000D03*
X117270000Y-118730000D03*
X117270000Y-116190000D03*
X117270000Y-113650000D03*
X117270000Y-111110000D03*
X117270000Y-108570000D03*
X117270000Y-106030000D03*
X117270000Y-103490000D03*
X117270000Y-100950000D03*
X117270000Y-98410000D03*
X117270000Y-95870000D03*
X117270000Y-93330000D03*
X117270000Y-90790000D03*
X117270000Y-88250000D03*
X117270000Y-85710000D03*
X117270000Y-83170000D03*
X117270000Y-80630000D03*
X117270000Y-78090000D03*
X117270000Y-75550000D03*
X117270000Y-73010000D03*
X117270000Y-70470000D03*
X117270000Y-67930000D03*
X117270000Y-65390000D03*
X117270000Y-62850000D03*
X117270000Y-60310000D03*
X117270000Y-57770000D03*
X117270000Y-55230000D03*
X117270000Y-52690000D03*
X117270000Y-50150000D03*
X117270000Y-47610000D03*
X117270000Y-45070000D03*
X117270000Y-42530000D03*
X117270000Y-39990000D03*
X117270000Y-37450000D03*
X117270000Y-34910000D03*
X122730000Y-205090000D03*
X122730000Y-202550000D03*
X122730000Y-200010000D03*
X122730000Y-197470000D03*
X122730000Y-194930000D03*
X122730000Y-192390000D03*
X122730000Y-189850000D03*
X122730000Y-187310000D03*
X122730000Y-184770000D03*
X122730000Y-182230000D03*
X122730000Y-179690000D03*
X122730000Y-177150000D03*
X122730000Y-174610000D03*
X122730000Y-172070000D03*
X122730000Y-169530000D03*
X122730000Y-166990000D03*
X122730000Y-164450000D03*
X122730000Y-161910000D03*
X122730000Y-159370000D03*
X122730000Y-156830000D03*
X122730000Y-154290000D03*
X122730000Y-151750000D03*
X122730000Y-149210000D03*
X122730000Y-146670000D03*
X122730000Y-144130000D03*
X122730000Y-141590000D03*
X122730000Y-139050000D03*
X122730000Y-136510000D03*
X122730000Y-133970000D03*
X122730000Y-131430000D03*
X122730000Y-128890000D03*
X122730000Y-126350000D03*
X122730000Y-123810000D03*
X122730000Y-121270000D03*
X122730000Y-118730000D03*
X122730000Y-116190000D03*
X122730000Y-113650000D03*
X122730000Y-111110000D03*
X122730000Y-108570000D03*
X122730000Y-106030000D03*
X122730000Y-103490000D03*
X122730000Y-100950000D03*
X122730000Y-98410000D03*
X122730000Y-95870000D03*
X122730000Y-93330000D03*
X122730000Y-90790000D03*
X122730000Y-88250000D03*
X122730000Y-85710000D03*
X122730000Y-83170000D03*
X122730000Y-80630000D03*
X122730000Y-78090000D03*
X122730000Y-75550000D03*
X122730000Y-73010000D03*
X122730000Y-70470000D03*
X122730000Y-67930000D03*
X122730000Y-65390000D03*
X122730000Y-62850000D03*
X122730000Y-60310000D03*
X122730000Y-57770000D03*
X122730000Y-55230000D03*
X122730000Y-52690000D03*
X122730000Y-50150000D03*
X122730000Y-47610000D03*
X122730000Y-45070000D03*
X122730000Y-42530000D03*
X122730000Y-39990000D03*
X122730000Y-37450000D03*
X122730000Y-34910000D03*
X102270000Y-205090000D03*
X102270000Y-202550000D03*
X102270000Y-200010000D03*
X102270000Y-197470000D03*
X102270000Y-194930000D03*
X102270000Y-192390000D03*
X102270000Y-189850000D03*
X102270000Y-187310000D03*
X102270000Y-184770000D03*
X102270000Y-182230000D03*
X102270000Y-179690000D03*
X102270000Y-177150000D03*
X102270000Y-174610000D03*
X102270000Y-172070000D03*
X102270000Y-169530000D03*
X102270000Y-166990000D03*
X102270000Y-164450000D03*
X102270000Y-161910000D03*
X102270000Y-159370000D03*
X102270000Y-156830000D03*
X102270000Y-154290000D03*
X102270000Y-151750000D03*
X102270000Y-149210000D03*
X102270000Y-146670000D03*
X102270000Y-144130000D03*
X102270000Y-141590000D03*
X102270000Y-139050000D03*
X102270000Y-136510000D03*
X102270000Y-133970000D03*
X102270000Y-131430000D03*
X102270000Y-128890000D03*
X102270000Y-126350000D03*
X102270000Y-123810000D03*
X102270000Y-121270000D03*
X102270000Y-118730000D03*
X102270000Y-116190000D03*
X102270000Y-113650000D03*
X102270000Y-111110000D03*
X102270000Y-108570000D03*
X102270000Y-106030000D03*
X102270000Y-103490000D03*
X102270000Y-100950000D03*
X102270000Y-98410000D03*
X102270000Y-95870000D03*
X102270000Y-93330000D03*
X102270000Y-90790000D03*
X102270000Y-88250000D03*
X102270000Y-85710000D03*
X102270000Y-83170000D03*
X102270000Y-80630000D03*
X102270000Y-78090000D03*
X102270000Y-75550000D03*
X102270000Y-73010000D03*
X102270000Y-70470000D03*
X102270000Y-67930000D03*
X102270000Y-65390000D03*
X102270000Y-62850000D03*
X102270000Y-60310000D03*
X102270000Y-57770000D03*
X102270000Y-55230000D03*
X102270000Y-52690000D03*
X102270000Y-50150000D03*
X102270000Y-47610000D03*
X102270000Y-45070000D03*
X102270000Y-42530000D03*
X102270000Y-39990000D03*
X102270000Y-37450000D03*
X102270000Y-34910000D03*
X107730000Y-205090000D03*
X107730000Y-202550000D03*
X107730000Y-200010000D03*
X107730000Y-197470000D03*
X107730000Y-194930000D03*
X107730000Y-192390000D03*
X107730000Y-189850000D03*
X107730000Y-187310000D03*
X107730000Y-184770000D03*
X107730000Y-182230000D03*
X107730000Y-179690000D03*
X107730000Y-177150000D03*
X107730000Y-174610000D03*
X107730000Y-172070000D03*
X107730000Y-169530000D03*
X107730000Y-166990000D03*
X107730000Y-164450000D03*
X107730000Y-161910000D03*
X107730000Y-159370000D03*
X107730000Y-156830000D03*
X107730000Y-154290000D03*
X107730000Y-151750000D03*
X107730000Y-149210000D03*
X107730000Y-146670000D03*
X107730000Y-144130000D03*
X107730000Y-141590000D03*
X107730000Y-139050000D03*
X107730000Y-136510000D03*
X107730000Y-133970000D03*
X107730000Y-131430000D03*
X107730000Y-128890000D03*
X107730000Y-126350000D03*
X107730000Y-123810000D03*
X107730000Y-121270000D03*
X107730000Y-118730000D03*
X107730000Y-116190000D03*
X107730000Y-113650000D03*
X107730000Y-111110000D03*
X107730000Y-108570000D03*
X107730000Y-106030000D03*
X107730000Y-103490000D03*
X107730000Y-100950000D03*
X107730000Y-98410000D03*
X107730000Y-95870000D03*
X107730000Y-93330000D03*
X107730000Y-90790000D03*
X107730000Y-88250000D03*
X107730000Y-85710000D03*
X107730000Y-83170000D03*
X107730000Y-80630000D03*
X107730000Y-78090000D03*
X107730000Y-75550000D03*
X107730000Y-73010000D03*
X107730000Y-70470000D03*
X107730000Y-67930000D03*
X107730000Y-65390000D03*
X107730000Y-62850000D03*
X107730000Y-60310000D03*
X107730000Y-57770000D03*
X107730000Y-55230000D03*
X107730000Y-52690000D03*
X107730000Y-50150000D03*
X107730000Y-47610000D03*
X107730000Y-45070000D03*
X107730000Y-42530000D03*
X107730000Y-39990000D03*
X107730000Y-37450000D03*
X107730000Y-34910000D03*
X87270000Y-205090000D03*
X87270000Y-202550000D03*
X87270000Y-200010000D03*
X87270000Y-197470000D03*
X87270000Y-194930000D03*
X87270000Y-192390000D03*
X87270000Y-189850000D03*
X87270000Y-187310000D03*
X87270000Y-184770000D03*
X87270000Y-182230000D03*
X87270000Y-179690000D03*
X87270000Y-177150000D03*
X87270000Y-174610000D03*
X87270000Y-172070000D03*
X87270000Y-169530000D03*
X87270000Y-166990000D03*
X87270000Y-164450000D03*
X87270000Y-161910000D03*
X87270000Y-159370000D03*
X87270000Y-156830000D03*
X87270000Y-154290000D03*
X87270000Y-151750000D03*
X87270000Y-149210000D03*
X87270000Y-146670000D03*
X87270000Y-144130000D03*
X87270000Y-141590000D03*
X87270000Y-139050000D03*
X87270000Y-136510000D03*
X87270000Y-133970000D03*
X87270000Y-131430000D03*
X87270000Y-128890000D03*
X87270000Y-126350000D03*
X87270000Y-123810000D03*
X87270000Y-121270000D03*
X87270000Y-118730000D03*
X87270000Y-116190000D03*
X87270000Y-113650000D03*
X87270000Y-111110000D03*
X87270000Y-108570000D03*
X87270000Y-106030000D03*
X87270000Y-103490000D03*
X87270000Y-100950000D03*
X87270000Y-98410000D03*
X87270000Y-95870000D03*
X87270000Y-93330000D03*
X87270000Y-90790000D03*
X87270000Y-88250000D03*
X87270000Y-85710000D03*
X87270000Y-83170000D03*
X87270000Y-80630000D03*
X87270000Y-78090000D03*
X87270000Y-75550000D03*
X87270000Y-73010000D03*
X87270000Y-70470000D03*
X87270000Y-67930000D03*
X87270000Y-65390000D03*
X87270000Y-62850000D03*
X87270000Y-60310000D03*
X87270000Y-57770000D03*
X87270000Y-55230000D03*
X87270000Y-52690000D03*
X87270000Y-50150000D03*
X87270000Y-47610000D03*
X87270000Y-45070000D03*
X87270000Y-42530000D03*
X87270000Y-39990000D03*
X87270000Y-37450000D03*
X87270000Y-34910000D03*
X92730000Y-205090000D03*
X92730000Y-202550000D03*
X92730000Y-200010000D03*
X92730000Y-197470000D03*
X92730000Y-194930000D03*
X92730000Y-192390000D03*
X92730000Y-189850000D03*
X92730000Y-187310000D03*
X92730000Y-184770000D03*
X92730000Y-182230000D03*
X92730000Y-179690000D03*
X92730000Y-177150000D03*
X92730000Y-174610000D03*
X92730000Y-172070000D03*
X92730000Y-169530000D03*
X92730000Y-166990000D03*
X92730000Y-164450000D03*
X92730000Y-161910000D03*
X92730000Y-159370000D03*
X92730000Y-156830000D03*
X92730000Y-154290000D03*
X92730000Y-151750000D03*
X92730000Y-149210000D03*
X92730000Y-146670000D03*
X92730000Y-144130000D03*
X92730000Y-141590000D03*
X92730000Y-139050000D03*
X92730000Y-136510000D03*
X92730000Y-133970000D03*
X92730000Y-131430000D03*
X92730000Y-128890000D03*
X92730000Y-126350000D03*
X92730000Y-123810000D03*
X92730000Y-121270000D03*
X92730000Y-118730000D03*
X92730000Y-116190000D03*
X92730000Y-113650000D03*
X92730000Y-111110000D03*
X92730000Y-108570000D03*
X92730000Y-106030000D03*
X92730000Y-103490000D03*
X92730000Y-100950000D03*
X92730000Y-98410000D03*
X92730000Y-95870000D03*
X92730000Y-93330000D03*
X92730000Y-90790000D03*
X92730000Y-88250000D03*
X92730000Y-85710000D03*
X92730000Y-83170000D03*
X92730000Y-80630000D03*
X92730000Y-78090000D03*
X92730000Y-75550000D03*
X92730000Y-73010000D03*
X92730000Y-70470000D03*
X92730000Y-67930000D03*
X92730000Y-65390000D03*
X92730000Y-62850000D03*
X92730000Y-60310000D03*
X92730000Y-57770000D03*
X92730000Y-55230000D03*
X92730000Y-52690000D03*
X92730000Y-50150000D03*
X92730000Y-47610000D03*
X92730000Y-45070000D03*
X92730000Y-42530000D03*
X92730000Y-39990000D03*
X92730000Y-37450000D03*
X92730000Y-34910000D03*
X72270000Y-205090000D03*
X72270000Y-202550000D03*
X72270000Y-200010000D03*
X72270000Y-197470000D03*
X72270000Y-194930000D03*
X72270000Y-192390000D03*
X72270000Y-189850000D03*
X72270000Y-187310000D03*
X72270000Y-184770000D03*
X72270000Y-182230000D03*
X72270000Y-179690000D03*
X72270000Y-177150000D03*
X72270000Y-174610000D03*
X72270000Y-172070000D03*
X72270000Y-169530000D03*
X72270000Y-166990000D03*
X72270000Y-164450000D03*
X72270000Y-161910000D03*
X72270000Y-159370000D03*
X72270000Y-156830000D03*
X72270000Y-154290000D03*
X72270000Y-151750000D03*
X72270000Y-149210000D03*
X72270000Y-146670000D03*
X72270000Y-144130000D03*
X72270000Y-141590000D03*
X72270000Y-139050000D03*
X72270000Y-136510000D03*
X72270000Y-133970000D03*
X72270000Y-131430000D03*
X72270000Y-128890000D03*
X72270000Y-126350000D03*
X72270000Y-123810000D03*
X72270000Y-121270000D03*
X72270000Y-118730000D03*
X72270000Y-116190000D03*
X72270000Y-113650000D03*
X72270000Y-111110000D03*
X72270000Y-108570000D03*
X72270000Y-106030000D03*
X72270000Y-103490000D03*
X72270000Y-100950000D03*
X72270000Y-98410000D03*
X72270000Y-95870000D03*
X72270000Y-93330000D03*
X72270000Y-90790000D03*
X72270000Y-88250000D03*
X72270000Y-85710000D03*
X72270000Y-83170000D03*
X72270000Y-80630000D03*
X72270000Y-78090000D03*
X72270000Y-75550000D03*
X72270000Y-73010000D03*
X72270000Y-70470000D03*
X72270000Y-67930000D03*
X72270000Y-65390000D03*
X72270000Y-62850000D03*
X72270000Y-60310000D03*
X72270000Y-57770000D03*
X72270000Y-55230000D03*
X72270000Y-52690000D03*
X72270000Y-50150000D03*
X72270000Y-47610000D03*
X72270000Y-45070000D03*
X72270000Y-42530000D03*
X72270000Y-39990000D03*
X72270000Y-37450000D03*
X72270000Y-34910000D03*
X77730000Y-205090000D03*
X77730000Y-202550000D03*
X77730000Y-200010000D03*
X77730000Y-197470000D03*
X77730000Y-194930000D03*
X77730000Y-192390000D03*
X77730000Y-189850000D03*
X77730000Y-187310000D03*
X77730000Y-184770000D03*
X77730000Y-182230000D03*
X77730000Y-179690000D03*
X77730000Y-177150000D03*
X77730000Y-174610000D03*
X77730000Y-172070000D03*
X77730000Y-169530000D03*
X77730000Y-166990000D03*
X77730000Y-164450000D03*
X77730000Y-161910000D03*
X77730000Y-159370000D03*
X77730000Y-156830000D03*
X77730000Y-154290000D03*
X77730000Y-151750000D03*
X77730000Y-149210000D03*
X77730000Y-146670000D03*
X77730000Y-144130000D03*
X77730000Y-141590000D03*
X77730000Y-139050000D03*
X77730000Y-136510000D03*
X77730000Y-133970000D03*
X77730000Y-131430000D03*
X77730000Y-128890000D03*
X77730000Y-126350000D03*
X77730000Y-123810000D03*
X77730000Y-121270000D03*
X77730000Y-118730000D03*
X77730000Y-116190000D03*
X77730000Y-113650000D03*
X77730000Y-111110000D03*
X77730000Y-108570000D03*
X77730000Y-106030000D03*
X77730000Y-103490000D03*
X77730000Y-100950000D03*
X77730000Y-98410000D03*
X77730000Y-95870000D03*
X77730000Y-93330000D03*
X77730000Y-90790000D03*
X77730000Y-88250000D03*
X77730000Y-85710000D03*
X77730000Y-83170000D03*
X77730000Y-80630000D03*
X77730000Y-78090000D03*
X77730000Y-75550000D03*
X77730000Y-73010000D03*
X77730000Y-70470000D03*
X77730000Y-67930000D03*
X77730000Y-65390000D03*
X77730000Y-62850000D03*
X77730000Y-60310000D03*
X77730000Y-57770000D03*
X77730000Y-55230000D03*
X77730000Y-52690000D03*
X77730000Y-50150000D03*
X77730000Y-47610000D03*
X77730000Y-45070000D03*
X77730000Y-42530000D03*
X77730000Y-39990000D03*
X77730000Y-37450000D03*
X77730000Y-34910000D03*
D14*
X188320000Y-89840000D03*
X188320000Y-91110000D03*
X188320000Y-92380000D03*
X188320000Y-93650000D03*
X188320000Y-94920000D03*
X188320000Y-96190000D03*
X188320000Y-97460000D03*
X188320000Y-98730000D03*
X188320000Y-100000000D03*
X188320000Y-101270000D03*
X188320000Y-102540000D03*
X188320000Y-103810000D03*
X188320000Y-105080000D03*
X188320000Y-106350000D03*
X188320000Y-107620000D03*
X188320000Y-108890000D03*
X188320000Y-110160000D03*
D15*
X189840000Y-111680000D03*
D14*
X211680000Y-91110000D03*
X211680000Y-92380000D03*
X211680000Y-93650000D03*
X211680000Y-94920000D03*
X211680000Y-96190000D03*
X211680000Y-97460000D03*
X211680000Y-98730000D03*
X211680000Y-100000000D03*
X211680000Y-101270000D03*
X211680000Y-102540000D03*
X211680000Y-103810000D03*
X211680000Y-105080000D03*
X211680000Y-106350000D03*
X211680000Y-107620000D03*
X211680000Y-108890000D03*
X211680000Y-110160000D03*
D15*
X189840000Y-88320000D03*
X191110000Y-88320000D03*
X192380000Y-88320000D03*
X193650000Y-88320000D03*
X194920000Y-88320000D03*
X196190000Y-88320000D03*
X197460000Y-88320000D03*
X198730000Y-88320000D03*
X200000000Y-88320000D03*
X201270000Y-88320000D03*
X202540000Y-88320000D03*
X203810000Y-88320000D03*
X205080000Y-88320000D03*
X206350000Y-88320000D03*
X207620000Y-88320000D03*
X208890000Y-88320000D03*
X210160000Y-88320000D03*
X191110000Y-111680000D03*
X192380000Y-111680000D03*
X193650000Y-111680000D03*
X194920000Y-111680000D03*
X196190000Y-111680000D03*
X197460000Y-111680000D03*
X198730000Y-111680000D03*
X200000000Y-111680000D03*
X201270000Y-111680000D03*
X202540000Y-111680000D03*
X203810000Y-111680000D03*
X205080000Y-111680000D03*
X206350000Y-111680000D03*
X207620000Y-111680000D03*
X208890000Y-111680000D03*
X210160000Y-111680000D03*
D14*
X211680000Y-89840000D03*
M02*
