M48
;DRILL file {KiCad 4.0.5} date Saturday, August 26, 2017 'PMt' 01:36:09 PM
;FORMAT={-:-/ absolute / inch / decimal}
FMAT,2
INCH,TZ
T1C0.012
%
G90
G05
M72
T1
X6.0039Y-3.1496
X6.0039Y-3.248
X6.0039Y-3.3465
X6.0039Y-3.4449
X6.0039Y-3.5433
X6.0039Y-3.6417
X6.0039Y-3.7402
X6.0039Y-3.8386
X6.0039Y-3.937
X6.0039Y-4.0354
X6.0039Y-4.1339
X6.0039Y-4.2323
X6.0039Y-4.3307
X6.0039Y-4.4291
X6.0039Y-4.5276
X6.0039Y-4.626
X6.0039Y-4.7244
X6.0039Y-4.8228
X6.0039Y-4.9213
X6.0039Y-5.0197
X6.0039Y-5.1181
X6.0039Y-5.2165
X6.0039Y-5.315
X6.0039Y-5.4134
X6.0039Y-5.5118
X6.0039Y-5.6102
X6.0039Y-5.7087
X6.0039Y-5.8071
X6.0039Y-5.9055
X6.0039Y-6.0039
X6.0039Y-6.1024
X6.063Y-3.8189
X6.063Y-3.9764
X6.063Y-4.1535
X6.1024Y-3.0512
X6.1024Y-3.1496
X6.1024Y-3.248
X6.1024Y-3.3465
X6.1024Y-3.4449
X6.1024Y-3.5433
X6.1024Y-3.6417
X6.1024Y-3.7402
X6.1024Y-4.2323
X6.1024Y-4.3307
X6.1024Y-4.4291
X6.1024Y-4.5276
X6.1024Y-4.626
X6.1024Y-4.7244
X6.1024Y-4.8228
X6.1024Y-4.9213
X6.1024Y-5.0197
X6.1024Y-5.1181
X6.1024Y-5.2165
X6.1024Y-5.315
X6.1024Y-5.4134
X6.1024Y-5.5118
X6.1024Y-5.6102
X6.1024Y-5.7087
X6.1024Y-5.8071
X6.1024Y-5.9055
X6.1024Y-6.0039
X6.1024Y-6.1024
X6.1024Y-6.2008
X6.1761Y-4.6503
X6.2008Y-3.0512
X6.2008Y-3.8189
X6.2008Y-3.9764
X6.2008Y-4.1535
X6.2008Y-5.7087
X6.2008Y-5.8071
X6.2008Y-5.9055
X6.2008Y-6.0039
X6.2008Y-6.1024
X6.2008Y-6.2008
X6.2821Y-3.615
X6.2992Y-5.8071
X6.2992Y-5.9055
X6.2992Y-6.0039
X6.2992Y-6.1024
X6.2992Y-6.2008
X6.312Y-3.1382
X6.3142Y-3.2382
X6.37Y-5.0093
X6.3715Y-4.7646
X6.3976Y-3.6417
X6.3976Y-3.7402
X6.3976Y-3.8386
X6.3976Y-3.937
X6.3976Y-4.0354
X6.3976Y-4.1339
X6.3976Y-4.2323
X6.3976Y-4.3307
X6.3976Y-5.9055
X6.3976Y-6.0039
X6.3976Y-6.1024
X6.3976Y-6.2008
X6.4173Y-4.6421
X6.4184Y-4.9107
X6.4272Y-3.1617
X6.4961Y-3.4646
X6.4961Y-3.6417
X6.4961Y-3.7402
X6.4961Y-3.8386
X6.4961Y-3.937
X6.4961Y-4.0354
X6.4961Y-4.1339
X6.4961Y-4.2323
X6.4961Y-4.3307
X6.4961Y-6.0039
X6.4961Y-6.1024
X6.4961Y-6.2008
X6.5147Y-5.2149
X6.5945Y-3.6417
X6.5945Y-3.7402
X6.5945Y-3.8386
X6.5945Y-3.937
X6.5945Y-4.0354
X6.5945Y-4.1339
X6.5945Y-4.2323
X6.5945Y-4.3307
X6.5945Y-6.1024
X6.5945Y-6.2008
X6.6367Y-3.3149
X6.6929Y-3.6417
X6.6929Y-3.7402
X6.7428Y-5.3004
X6.752Y-3.9685
X6.752Y-4.8228
X6.7618Y-6.2303
X6.7717Y-3.1299
X6.7717Y-3.1693
X6.7717Y-3.2087
X6.7717Y-3.248
X6.7717Y-3.2874
X6.7717Y-3.3268
X6.7717Y-4.5472
X6.7717Y-4.5866
X6.7717Y-4.626
X6.7717Y-4.6654
X6.7717Y-4.7047
X6.7717Y-4.7441
X6.7913Y-3.0119
X6.7913Y-3.0512
X6.7913Y-3.4452
X6.7913Y-4.4292
X6.7913Y-4.8625
X6.7913Y-3.0906
X6.7913Y-3.3661
X6.7915Y-3.4054
X6.7915Y-4.8228
X6.811Y-5.8661
X6.8134Y-6.0331
X6.8209Y-5.7677
X6.8291Y-5.8583
X6.8304Y-2.9724
X6.8304Y-4.3897
X6.8307Y-5.9646
X6.8307Y-3.4843
X6.8307Y-4.9016
X6.8504Y-5.8268
X6.8602Y-5.9646
X6.8701Y-3.4843
X6.8701Y-3.937
X6.8701Y-4.9016
X6.8702Y-2.9726
X6.8702Y-4.3899
X6.8799Y-5.8268
X6.8907Y-6.0361
X6.9074Y-3.8321
X6.9094Y-2.9724
X6.9094Y-3.4843
X6.9094Y-4.3898
X6.9094Y-4.9016
X6.9164Y-4.0562
X6.919Y-5.9327
X6.9237Y-5.7854
X6.9291Y-5.4134
X6.938Y-5.9327
X6.9436Y-3.8435
X6.9436Y-4.02
X6.9488Y-2.9528
X6.9488Y-3.5039
X6.9488Y-4.3701
X6.9488Y-4.9213
X6.9587Y-5.4134
X6.9685Y-4.7441
X6.9783Y-5.1673
X6.9783Y-5.315
X6.9882Y-2.9528
X6.9882Y-3.5039
X6.9882Y-4.3701
X6.9882Y-4.9213
X6.9882Y-5.5709
X7.0079Y-4.5669
X7.0276Y-2.9528
X7.0276Y-3.5039
X7.0276Y-4.3701
X7.0276Y-4.685
X7.0276Y-4.9213
X7.0472Y-5.9449
X7.0472Y-5.9744
X7.0472Y-6.0039
X7.0571Y-5.4232
X7.0571Y-5.5709
X7.0669Y-2.9528
X7.0669Y-3.5039
X7.0669Y-4.3701
X7.0669Y-4.9213
X7.0939Y-5.9793
X7.1063Y-2.9528
X7.1063Y-3.5039
X7.1063Y-4.3701
X7.1063Y-4.9213
X7.1161Y-5.1673
X7.1161Y-5.2277
X7.1161Y-5.315
X7.126Y-6.0103
X7.1457Y-2.9528
X7.1457Y-3.5039
X7.1457Y-4.3701
X7.1457Y-4.9213
X7.1752Y-5.4232
X7.1761Y-5.173
X7.1769Y-5.4001
X7.185Y-4.3898
X7.185Y-4.9016
X7.2243Y-4.9014
X7.2244Y-4.3897
X7.2425Y-5.9508
X7.2441Y-6.0039
X7.2498Y-5.9152
X7.2501Y-5.111
X7.2539Y-5.1673
X7.2539Y-5.315
X7.2613Y-4.3688
X7.2621Y-5.7823
X7.2641Y-3.4791
X7.2641Y-4.8965
X7.2717Y-2.9956
X7.2717Y-4.4129
X7.2933Y-4.5079
X7.301Y-4.4335
X7.303Y-3.0513
X7.3031Y-3.0906
X7.3031Y-3.3661
X7.3031Y-4.7835
X7.3032Y-3.0115
X7.3032Y-3.4055
X7.3032Y-3.4448
X7.3032Y-4.8228
X7.3032Y-4.8622
X7.3147Y-4.405
X7.3228Y-3.1299
X7.3228Y-3.1693
X7.3228Y-3.2087
X7.3228Y-3.248
X7.3228Y-3.2874
X7.3228Y-3.3268
X7.3228Y-4.5472
X7.3228Y-4.5866
X7.3228Y-4.626
X7.3228Y-4.6654
X7.3228Y-4.7047
X7.3228Y-4.7441
X7.3228Y-6.0925
X7.3327Y-5.4823
X7.3524Y-6.0925
X7.3622Y-5.4823
X7.3722Y-5.3004
X7.3807Y-3.4091
X7.3819Y-5.2165
X7.3864Y-3.378
X7.3917Y-6.2303
X7.4029Y-5.9511
X7.4114Y-5.5906
X7.4114Y-5.6299
X7.4114Y-5.6693
X7.4114Y-5.7087
X7.4114Y-5.9843
X7.4213Y-5.8858
X7.4311Y-5.8071
X7.4311Y-5.9252
X7.4409Y-5.5906
X7.4409Y-5.6299
X7.4409Y-5.6693
X7.4409Y-5.7087
X7.4409Y-5.9843
X7.4508Y-5.8858
X7.4508Y-5.9449
X7.4606Y-5.0394
X7.4803Y-5.2165
X7.4803Y-5.315
X7.4882Y-2.9134
X7.5Y-3.622
X7.5Y-3.6614
X7.5Y-3.7008
X7.5Y-3.7402
X7.5Y-3.7795
X7.5Y-3.8189
X7.5Y-3.8583
X7.5Y-3.8976
X7.5Y-3.937
X7.5Y-3.9764
X7.5Y-4.0945
X7.5Y-4.1339
X7.5Y-4.1732
X7.5Y-4.2126
X7.5Y-4.252
X7.5001Y-4.0554
X7.5028Y-4.0185
X7.5055Y-5.8736
X7.5433Y-2.8307
X7.5591Y-3.563
X7.5591Y-4.311
X7.5787Y-5.2165
X7.5787Y-5.315
X7.5984Y-3.563
X7.5984Y-4.311
X7.5984Y-5.0394
X7.628Y-5.6693
X7.628Y-5.7382
X7.628Y-5.8563
X7.6378Y-3.563
X7.6378Y-4.311
X7.6535Y-3.7165
X7.6772Y-3.563
X7.6772Y-4.311
X7.6772Y-5.315
X7.7165Y-3.563
X7.7165Y-4.311
X7.7264Y-2.9035
X7.7264Y-5.8169
X7.7362Y-5.0197
X7.7559Y-3.0118
X7.7559Y-3.563
X7.7559Y-4.311
X7.7756Y-5.2165
X7.7854Y-5.6693
X7.7854Y-5.7283
X7.7854Y-5.8563
X7.7953Y-3.563
X7.7953Y-4.311
X7.8261Y-2.9303
X7.8346Y-3.563
X7.8346Y-4.311
X7.8642Y-4.9016
X7.874Y-3.563
X7.874Y-4.311
X7.874Y-5.2165
X7.874Y-5.315
X7.9098Y-2.895
X7.9134Y-3.563
X7.9134Y-4.311
X7.9528Y-3.563
X7.9528Y-4.311
X7.9724Y-5.1181
X7.9724Y-5.315
X7.9921Y-3.563
X7.9921Y-4.311
X8.0315Y-3.563
X8.0315Y-4.311
X8.0709Y-3.563
X8.0709Y-4.311
X8.0709Y-4.9016
X8.0709Y-5.1181
X8.0709Y-5.2165
X8.0906Y-2.8839
X8.1004Y-4.9016
X8.1074Y-4.3082
X8.1102Y-3.002
X8.1102Y-3.563
X8.1299Y-2.874
X8.1496Y-3.563
X8.1496Y-4.311
X8.1693Y-5.1181
X8.1693Y-5.2165
X8.1693Y-5.315
X8.189Y-3.563
X8.189Y-4.311
X8.248Y-3.622
X8.248Y-3.6614
X8.248Y-3.6957
X8.248Y-3.7402
X8.248Y-3.7795
X8.248Y-3.8189
X8.248Y-3.8583
X8.248Y-3.8976
X8.248Y-3.937
X8.248Y-3.9764
X8.248Y-4.0157
X8.248Y-4.0551
X8.248Y-4.0945
X8.248Y-4.1339
X8.248Y-4.1732
X8.248Y-4.2126
X8.248Y-4.252
X8.2677Y-5.1181
X8.2677Y-5.2165
X8.2677Y-5.315
X8.2874Y-5.8858
X8.3169Y-5.8858
X8.3661Y-5.1181
X8.3661Y-5.2165
X8.3661Y-5.3346
X8.376Y-4.4193
X8.3957Y-4.3996
X8.3957Y-6.25
X8.4252Y-3.1102
X8.4252Y-3.1496
X8.4252Y-3.189
X8.4252Y-3.2283
X8.4252Y-3.2677
X8.4252Y-3.3071
X8.4252Y-3.3563
X8.4252Y-4.5472
X8.4252Y-4.5866
X8.4252Y-4.626
X8.4252Y-4.6654
X8.4252Y-4.7047
X8.4252Y-4.7441
X8.435Y-5.8465
X8.4371Y-6.1686
X8.4448Y-2.9922
X8.4448Y-3.0315
X8.4448Y-4.4292
X8.4448Y-4.4685
X8.4448Y-4.8625
X8.4449Y-3.0709
X8.4449Y-4.5079
X8.4449Y-4.7835
X8.445Y-4.8228
X8.4451Y-6.0433
X8.4463Y-3.424
X8.456Y-5.9791
X8.4594Y-6.1909
X8.4646Y-5.7823
X8.4646Y-5.8465
X8.4808Y-6.2204
X8.484Y-2.9545
X8.484Y-4.3897
X8.4843Y-5.9791
X8.4843Y-4.9016
X8.4856Y-3.4566
X8.4945Y-6.0467
X8.5236Y-3.4646
X8.5237Y-2.9529
X8.563Y-2.9528
X8.563Y-3.4646
X8.5734Y-5.8063
X8.6024Y-2.9331
X8.6024Y-3.4843
X8.6024Y-4.3701
X8.6024Y-4.9213
X8.603Y-6.263
X8.6122Y-5.187
X8.6122Y-5.5709
X8.622Y-5.3445
X8.622Y-6.0433
X8.6258Y-5.4368
X8.6319Y-5.4134
X8.6417Y-2.9331
X8.6417Y-3.4843
X8.6417Y-4.3701
X8.6417Y-4.9213
X8.6417Y-5.8957
X8.6423Y-6.263
X8.6516Y-6.0433
X8.6614Y-5.5709
X8.6696Y-5.8973
X8.6811Y-2.9331
X8.6811Y-3.4843
X8.6811Y-4.3701
X8.6811Y-4.9213
X8.6811Y-6.0433
X8.6811Y-6.2598
X8.7106Y-5.5709
X8.7106Y-6.0433
X8.7205Y-2.9331
X8.7205Y-3.4843
X8.7205Y-4.3701
X8.7205Y-4.9213
X8.7205Y-6.2598
X8.75Y-5.187
X8.7553Y-5.8165
X8.7598Y-2.9331
X8.7598Y-3.4843
X8.7598Y-4.3701
X8.7598Y-4.9213
X8.7598Y-5.246
X8.7598Y-5.3445
X8.7894Y-3.1004
X8.7992Y-2.9331
X8.7992Y-3.4843
X8.7992Y-4.3701
X8.7992Y-4.9213
X8.8001Y-6.1979
X8.8189Y-5.4134
X8.8189Y-5.4429
X8.8386Y-2.9528
X8.8386Y-3.4646
X8.8386Y-4.3898
X8.8386Y-4.9016
X8.8627Y-5.8763
X8.8772Y-6.0467
X8.8779Y-3.4644
X8.8779Y-4.9014
X8.878Y-2.9527
X8.878Y-4.3897
X8.8878Y-5.187
X8.8878Y-5.3445
X8.9169Y-6.0386
X8.9173Y-4.3897
X8.9176Y-3.4594
X8.9176Y-4.9016
X8.9252Y-2.9759
X8.9272Y-5.8071
X8.9457Y-6.1088
X8.9565Y-3.0316
X8.9565Y-4.4686
X8.9567Y-4.5079
X8.9567Y-4.7835
X8.9567Y-3.4252
X8.9567Y-4.4289
X8.9567Y-4.8228
X8.9567Y-4.8622
X8.9665Y-5.502
X8.9762Y-6.1081
X8.9764Y-3.1102
X8.9764Y-3.1496
X8.9764Y-3.189
X8.9764Y-3.2283
X8.9764Y-3.2677
X8.9764Y-3.3071
X8.9764Y-4.5472
X8.9764Y-4.5866
X8.9764Y-4.626
X8.9764Y-4.6654
X8.9764Y-4.7047
X8.9764Y-4.7441
X8.9961Y-3.002
X8.9961Y-5.502
X9.0256Y-5.3543
X9.0256Y-6.25
X9.0354Y-5.689
X9.0354Y-5.7283
X9.0354Y-5.9055
X9.0354Y-5.9449
X9.0453Y-5.6102
X9.0453Y-5.6496
X9.0453Y-6.002
X9.0552Y-5.8233
X9.065Y-5.689
X9.065Y-5.7283
X9.065Y-5.9055
X9.065Y-5.9449
X9.0748Y-5.6102
X9.0748Y-5.6496
X9.0748Y-6.002
X9.1142Y-3.5236
X9.1535Y-3.6417
X9.1535Y-3.7402
X9.1535Y-3.8386
X9.1535Y-3.937
X9.1535Y-4.0354
X9.1535Y-4.1339
X9.1535Y-4.2323
X9.1535Y-4.3307
X9.1535Y-4.9606
X9.1535Y-6.1811
X9.1634Y-4.6161
X9.252Y-3.5236
X9.252Y-3.6417
X9.252Y-3.7402
X9.252Y-3.8386
X9.252Y-3.937
X9.252Y-4.0354
X9.252Y-4.1339
X9.252Y-4.2323
X9.252Y-4.3307
X9.252Y-5.6693
X9.252Y-5.7972
X9.252Y-5.935
X9.2913Y-4.6161
X9.2913Y-4.9606
X9.3209Y-5.8465
X9.3504Y-3.6417
X9.3504Y-3.7402
X9.3504Y-3.8386
X9.3504Y-3.937
X9.3504Y-4.0354
X9.3504Y-4.1339
X9.3504Y-4.2323
X9.3504Y-4.3307
X9.3799Y-5.6594
X9.3799Y-5.7972
X9.3799Y-5.935
X9.4094Y-3.5236
X9.4291Y-4.6161
X9.4291Y-4.9606
X9.4488Y-3.6417
X9.4488Y-3.7402
X9.4488Y-3.8386
X9.4488Y-3.937
X9.4488Y-4.0354
X9.4488Y-4.1339
X9.4488Y-4.2323
X9.4488Y-4.3307
X9.5079Y-5.5709
X9.5276Y-5.3642
X9.5276Y-5.6693
X9.5276Y-5.7776
X9.5276Y-6.0728
X9.5374Y-5.876
X9.5374Y-5.9744
X9.5669Y-5.4724
X9.5669Y-6.1716
X9.5866Y-3.3724
X9.5866Y-3.4724
X9.6161Y-3.3724
X9.6161Y-3.4724
X9.7933Y-4.0551
X9.7933Y-4.0846
X9.8031Y-2.9724
X9.8031Y-3.0724
X9.8031Y-3.1724
X9.8031Y-3.2724
X9.8031Y-3.3724
X9.8031Y-3.4724
X9.8031Y-3.5724
X9.8031Y-3.6724
X9.8031Y-3.7724
X9.8031Y-3.8724
X9.813Y-5.4823
X9.813Y-5.6201
X9.813Y-5.7579
X9.813Y-5.9055
X9.813Y-6.0433
X9.8141Y-6.1862
X9.8289Y-5.9925
X9.8327Y-2.9724
X9.8327Y-3.0724
X9.8327Y-3.1724
X9.8327Y-3.2724
X9.8327Y-3.3724
X9.8327Y-3.4724
X9.8327Y-3.5724
X9.8327Y-3.6724
X9.8327Y-3.7724
X9.8327Y-3.8724
X9.8327Y-4.065
X9.8327Y-4.0945
X9.8327Y-4.2126
X9.8327Y-4.2421
X9.8327Y-4.4291
X9.8327Y-4.4587
X9.8566Y-5.6155
X9.8851Y-5.6988
X9.9409Y-2.9134
X9.9409Y-3.1299
X9.9409Y-3.3465
X9.9409Y-3.563
X9.9409Y-3.7795
X9.9409Y-3.9961
X9.9409Y-4.2126
X9.9409Y-4.4291
X9.9409Y-4.6457
X9.9409Y-4.8622
X9.9409Y-5.0787
X9.9409Y-5.2953
X9.9705Y-2.9134
X9.9705Y-3.1299
X9.9705Y-3.3465
X9.9705Y-3.563
X9.9705Y-3.7795
X9.9705Y-3.9961
X9.9705Y-4.2126
X9.9705Y-4.4291
X9.9705Y-4.6457
X9.9705Y-4.8622
X9.9705Y-5.0787
X9.9705Y-5.2953
X9.9902Y-5.5709
X9.9902Y-5.9941
X10.0098Y-5.3543
T0
M30
