G04 #@! TF.FileFunction,Paste,Top*
%FSLAX46Y46*%
G04 Gerber Fmt 4.6, Leading zero omitted, Abs format (unit mm)*
G04 Created by KiCad (PCBNEW 4.0.5) date Saturday, August 26, 2017 'PMt' 01:35:58 PM*
%MOMM*%
%LPD*%
G01*
G04 APERTURE LIST*
%ADD10C,0.100000*%
%ADD11R,1.510000X0.300000*%
%ADD12R,0.300000X1.510000*%
%ADD13R,0.750000X0.800000*%
%ADD14R,0.800000X0.750000*%
%ADD15R,0.500000X0.900000*%
%ADD16R,0.900000X0.500000*%
%ADD17R,0.884000X0.170000*%
%ADD18R,0.170000X0.884000*%
%ADD19R,0.204000X1.020000*%
%ADD20R,1.020000X0.204000*%
%ADD21R,2.980000X1.070000*%
%ADD22R,1.900000X1.900000*%
%ADD23R,1.900000X1.800000*%
%ADD24R,1.600000X2.100000*%
%ADD25R,1.350000X0.400000*%
%ADD26R,2.100000X0.800000*%
G04 APERTURE END LIST*
D10*
D11*
X188345000Y-89770000D03*
X188345000Y-91040000D03*
X188345000Y-92310000D03*
X188345000Y-93580000D03*
X188345000Y-94850000D03*
X188345000Y-96120000D03*
X188345000Y-97390000D03*
X188345000Y-98660000D03*
X188345000Y-99930000D03*
X188345000Y-101200000D03*
X188345000Y-102470000D03*
X188345000Y-103740000D03*
X188345000Y-105010000D03*
X188345000Y-106280000D03*
X188345000Y-107550000D03*
X188345000Y-108820000D03*
X188345000Y-110090000D03*
D12*
X189865000Y-111610000D03*
D11*
X211705000Y-91040000D03*
X211705000Y-92310000D03*
X211705000Y-93580000D03*
X211705000Y-94850000D03*
X211705000Y-96120000D03*
X211705000Y-97390000D03*
X211705000Y-98660000D03*
X211705000Y-99930000D03*
X211705000Y-101200000D03*
X211705000Y-102470000D03*
X211705000Y-103740000D03*
X211705000Y-105010000D03*
X211705000Y-106280000D03*
X211705000Y-107550000D03*
X211705000Y-108820000D03*
X211705000Y-110090000D03*
D12*
X189865000Y-88250000D03*
X191135000Y-88250000D03*
X192405000Y-88250000D03*
X193675000Y-88250000D03*
X194945000Y-88250000D03*
X196215000Y-88250000D03*
X197485000Y-88250000D03*
X198755000Y-88250000D03*
X200025000Y-88250000D03*
X201295000Y-88250000D03*
X202565000Y-88250000D03*
X203835000Y-88250000D03*
X205105000Y-88250000D03*
X206375000Y-88250000D03*
X207645000Y-88250000D03*
X208915000Y-88250000D03*
X210185000Y-88250000D03*
X191135000Y-111610000D03*
X192405000Y-111610000D03*
X193675000Y-111610000D03*
X194945000Y-111610000D03*
X196215000Y-111610000D03*
X197485000Y-111610000D03*
X198755000Y-111610000D03*
X200025000Y-111610000D03*
X201295000Y-111610000D03*
X202565000Y-111610000D03*
X203835000Y-111610000D03*
X205105000Y-111610000D03*
X206375000Y-111610000D03*
X207645000Y-111610000D03*
X208915000Y-111610000D03*
X210185000Y-111610000D03*
D11*
X211705000Y-89770000D03*
D13*
X171000000Y-135750000D03*
X171000000Y-137250000D03*
X187000000Y-135750000D03*
X187000000Y-137250000D03*
X187000000Y-158250000D03*
X187000000Y-156750000D03*
X171000000Y-158250000D03*
X171000000Y-156750000D03*
X212500000Y-136250000D03*
X212500000Y-137750000D03*
X228500000Y-136250000D03*
X228500000Y-137750000D03*
X228500000Y-158750000D03*
X228500000Y-157250000D03*
X212500000Y-158750000D03*
X212500000Y-157250000D03*
D14*
X233500000Y-150000000D03*
X235000000Y-150000000D03*
X236750000Y-150000000D03*
X238250000Y-150000000D03*
X233500000Y-146500000D03*
X235000000Y-146500000D03*
X236750000Y-146500000D03*
X238250000Y-146500000D03*
X233500000Y-143000000D03*
X235000000Y-143000000D03*
X236750000Y-143000000D03*
X238250000Y-143000000D03*
X247750000Y-151000000D03*
X249250000Y-151000000D03*
X237250000Y-81500000D03*
X238750000Y-81500000D03*
X233250000Y-81500000D03*
X234750000Y-81500000D03*
X229750000Y-81500000D03*
X231250000Y-81500000D03*
X230750000Y-118000000D03*
X232250000Y-118000000D03*
X234250000Y-118000000D03*
X235750000Y-118000000D03*
X237750000Y-118000000D03*
X239250000Y-118000000D03*
X247750000Y-154500000D03*
X249250000Y-154500000D03*
X237250000Y-85000000D03*
X238750000Y-85000000D03*
X233250000Y-85000000D03*
X234750000Y-85000000D03*
X229750000Y-85000000D03*
X231250000Y-85000000D03*
X230750000Y-121500000D03*
X232250000Y-121500000D03*
X234250000Y-121500000D03*
X235750000Y-121500000D03*
X237750000Y-121500000D03*
X239250000Y-121500000D03*
X247750000Y-158000000D03*
X249250000Y-158000000D03*
X237250000Y-88500000D03*
X238750000Y-88500000D03*
X233250000Y-88500000D03*
X234750000Y-88500000D03*
X229750000Y-88500000D03*
X231250000Y-88500000D03*
X230750000Y-125000000D03*
X232250000Y-125000000D03*
X234250000Y-125000000D03*
X235750000Y-125000000D03*
X237750000Y-125000000D03*
X239250000Y-125000000D03*
D13*
X224962000Y-137249000D03*
X224962000Y-135749000D03*
X224962000Y-133249000D03*
X224962000Y-131749000D03*
X221462000Y-137249000D03*
X221462000Y-135749000D03*
X221462000Y-133249000D03*
X221462000Y-131749000D03*
X217962000Y-137249000D03*
X217962000Y-135749000D03*
X217962000Y-133249000D03*
X217962000Y-131749000D03*
D14*
X187750000Y-126500000D03*
X189250000Y-126500000D03*
X194750000Y-126500000D03*
X196250000Y-126500000D03*
X191250000Y-119500000D03*
X192750000Y-119500000D03*
X187750000Y-123000000D03*
X189250000Y-123000000D03*
X194750000Y-123000000D03*
X196250000Y-123000000D03*
X191250000Y-123000000D03*
X192750000Y-123000000D03*
X191750000Y-84500000D03*
X193250000Y-84500000D03*
X195250000Y-84500000D03*
X196750000Y-84500000D03*
X188250000Y-84500000D03*
X189750000Y-84500000D03*
X187750000Y-119500000D03*
X189250000Y-119500000D03*
X194750000Y-119500000D03*
X196250000Y-119500000D03*
X191250000Y-126500000D03*
X192750000Y-126500000D03*
X191750000Y-81000000D03*
X193250000Y-81000000D03*
X195250000Y-81000000D03*
X196750000Y-81000000D03*
X188250000Y-81000000D03*
X189750000Y-81000000D03*
X191750000Y-77500000D03*
X193250000Y-77500000D03*
X195250000Y-77500000D03*
X196750000Y-77500000D03*
X188250000Y-77500000D03*
X189750000Y-77500000D03*
X192250000Y-150000000D03*
X193750000Y-150000000D03*
X196250000Y-150000000D03*
X197750000Y-150000000D03*
X192250000Y-146500000D03*
X193750000Y-146500000D03*
X196250000Y-146500000D03*
X197750000Y-146500000D03*
X192250000Y-143000000D03*
X193750000Y-143000000D03*
X196250000Y-143000000D03*
X197750000Y-143000000D03*
X247750000Y-140250000D03*
X249250000Y-140250000D03*
X247750000Y-143750000D03*
X249250000Y-143750000D03*
X247750000Y-147250000D03*
X249250000Y-147250000D03*
D13*
X183239000Y-136533000D03*
X183239000Y-135033000D03*
X183239000Y-132783000D03*
X183239000Y-131283000D03*
X179739000Y-136533000D03*
X179739000Y-135033000D03*
X179739000Y-132783000D03*
X179739000Y-131283000D03*
X176239000Y-136533000D03*
X176239000Y-135033000D03*
X176239000Y-132783000D03*
X176239000Y-131283000D03*
D15*
X252750000Y-156500000D03*
X251250000Y-156500000D03*
X233250000Y-78000000D03*
X234750000Y-78000000D03*
X234250000Y-114500000D03*
X235750000Y-114500000D03*
D16*
X214462000Y-133250000D03*
X214462000Y-131750000D03*
D15*
X191250000Y-116000000D03*
X192750000Y-116000000D03*
X191750000Y-74000000D03*
X193250000Y-74000000D03*
X252750000Y-145750000D03*
X251250000Y-145750000D03*
D16*
X172739000Y-132750000D03*
X172739000Y-131250000D03*
D15*
X173000000Y-98250000D03*
X174500000Y-98250000D03*
X173000000Y-102000000D03*
X174500000Y-102000000D03*
X251250000Y-152500000D03*
X252750000Y-152500000D03*
X251250000Y-154500000D03*
X252750000Y-154500000D03*
D16*
X209000000Y-148250000D03*
X209000000Y-149750000D03*
X209000000Y-145250000D03*
X209000000Y-146750000D03*
X209000000Y-142250000D03*
X209000000Y-143750000D03*
X209000000Y-139250000D03*
X209000000Y-140750000D03*
D15*
X251250000Y-141750000D03*
X252750000Y-141750000D03*
X251250000Y-143750000D03*
X252750000Y-143750000D03*
D16*
X167500000Y-147750000D03*
X167500000Y-149250000D03*
X167500000Y-144750000D03*
X167500000Y-146250000D03*
X167500000Y-141750000D03*
X167500000Y-143250000D03*
X167500000Y-138750000D03*
X167500000Y-140250000D03*
D17*
X216650000Y-78750000D03*
X216650000Y-79250000D03*
X216650000Y-79750000D03*
X216650000Y-80250000D03*
X216650000Y-80750000D03*
X216650000Y-81250000D03*
X216650000Y-81750000D03*
X216650000Y-82250000D03*
X216650000Y-82750000D03*
X216650000Y-83250000D03*
X216650000Y-83750000D03*
X216650000Y-84250000D03*
D18*
X218250000Y-85850000D03*
X218750000Y-85850000D03*
X219250000Y-85850000D03*
X219750000Y-85850000D03*
X220250000Y-85850000D03*
X220750000Y-85850000D03*
X221250000Y-85850000D03*
X221750000Y-85850000D03*
X222250000Y-85850000D03*
X222750000Y-85850000D03*
X223250000Y-85850000D03*
X223750000Y-85850000D03*
D17*
X225350000Y-84250000D03*
X225350000Y-83750000D03*
X225350000Y-83250000D03*
X225350000Y-82750000D03*
X225350000Y-82250000D03*
X225350000Y-81750000D03*
X225350000Y-81250000D03*
X225350000Y-80750000D03*
X225350000Y-80250000D03*
X225350000Y-79750000D03*
X225350000Y-79250000D03*
X225350000Y-78750000D03*
D18*
X223750000Y-77150000D03*
X223250000Y-77150000D03*
X222750000Y-77150000D03*
X222250000Y-77150000D03*
X221750000Y-77150000D03*
X221250000Y-77150000D03*
X220750000Y-77150000D03*
X220250000Y-77150000D03*
X219750000Y-77150000D03*
X219250000Y-77150000D03*
X218750000Y-77150000D03*
X218250000Y-77150000D03*
X223750000Y-113650000D03*
X223250000Y-113650000D03*
X222750000Y-113650000D03*
X222250000Y-113650000D03*
X221750000Y-113650000D03*
X221250000Y-113650000D03*
X220750000Y-113650000D03*
X220250000Y-113650000D03*
X219750000Y-113650000D03*
X219250000Y-113650000D03*
X218750000Y-113650000D03*
X218250000Y-113650000D03*
D17*
X216650000Y-115250000D03*
X216650000Y-115750000D03*
X216650000Y-116250000D03*
X216650000Y-116750000D03*
X216650000Y-117250000D03*
X216650000Y-117750000D03*
X216650000Y-118250000D03*
X216650000Y-118750000D03*
X216650000Y-119250000D03*
X216650000Y-119750000D03*
X216650000Y-120250000D03*
X216650000Y-120750000D03*
D18*
X218250000Y-122350000D03*
X218750000Y-122350000D03*
X219250000Y-122350000D03*
X219750000Y-122350000D03*
X220250000Y-122350000D03*
X220750000Y-122350000D03*
X221250000Y-122350000D03*
X221750000Y-122350000D03*
X222250000Y-122350000D03*
X222750000Y-122350000D03*
X223250000Y-122350000D03*
X223750000Y-122350000D03*
D17*
X225350000Y-120750000D03*
X225350000Y-120250000D03*
X225350000Y-119750000D03*
X225350000Y-119250000D03*
X225350000Y-118750000D03*
X225350000Y-118250000D03*
X225350000Y-117750000D03*
X225350000Y-117250000D03*
X225350000Y-116750000D03*
X225350000Y-116250000D03*
X225350000Y-115750000D03*
X225350000Y-115250000D03*
D19*
X214500000Y-155200000D03*
X215000000Y-155200000D03*
X215500000Y-155200000D03*
X216000000Y-155200000D03*
X216500000Y-155200000D03*
X217000000Y-155200000D03*
X217500000Y-155200000D03*
X218000000Y-155200000D03*
X218500000Y-155200000D03*
X219000000Y-155200000D03*
X219500000Y-155200000D03*
X220000000Y-155200000D03*
X220500000Y-155200000D03*
X221000000Y-155200000D03*
X221500000Y-155200000D03*
X222000000Y-155200000D03*
X222500000Y-155200000D03*
X223000000Y-155200000D03*
X223500000Y-155200000D03*
X224000000Y-155200000D03*
X224500000Y-155200000D03*
X225000000Y-155200000D03*
X225500000Y-155200000D03*
X226000000Y-155200000D03*
X226500000Y-155200000D03*
D20*
X228200000Y-153500000D03*
X228200000Y-153000000D03*
X228200000Y-152500000D03*
X228200000Y-152000000D03*
X228200000Y-151500000D03*
X228200000Y-151000000D03*
X228200000Y-150500000D03*
X228200000Y-150000000D03*
X228200000Y-149500000D03*
X228200000Y-149000000D03*
X228200000Y-148500000D03*
X228200000Y-148000000D03*
X228200000Y-147500000D03*
X228200000Y-147000000D03*
X228200000Y-146500000D03*
X228200000Y-146000000D03*
X228200000Y-145500000D03*
X228200000Y-145000000D03*
X228200000Y-144500000D03*
X228200000Y-144000000D03*
X228200000Y-143500000D03*
X228200000Y-143000000D03*
X228200000Y-142500000D03*
X228200000Y-142000000D03*
X228200000Y-141500000D03*
D19*
X226500000Y-139800000D03*
X226000000Y-139800000D03*
X225500000Y-139800000D03*
X225000000Y-139800000D03*
X224500000Y-139800000D03*
X224000000Y-139800000D03*
X223500000Y-139800000D03*
X223000000Y-139800000D03*
X222500000Y-139800000D03*
X222000000Y-139800000D03*
X221500000Y-139800000D03*
X221000000Y-139800000D03*
X220500000Y-139800000D03*
X220000000Y-139800000D03*
X219500000Y-139800000D03*
X219000000Y-139800000D03*
X218500000Y-139800000D03*
X218000000Y-139800000D03*
X217500000Y-139800000D03*
X217000000Y-139800000D03*
X216500000Y-139800000D03*
X216000000Y-139800000D03*
X215500000Y-139800000D03*
X215000000Y-139800000D03*
X214500000Y-139800000D03*
D20*
X212800000Y-141500000D03*
X212800000Y-142000000D03*
X212800000Y-142500000D03*
X212800000Y-143000000D03*
X212800000Y-143500000D03*
X212800000Y-144000000D03*
X212800000Y-144500000D03*
X212800000Y-145000000D03*
X212800000Y-145500000D03*
X212800000Y-146000000D03*
X212800000Y-146500000D03*
X212800000Y-147000000D03*
X212800000Y-147500000D03*
X212800000Y-148000000D03*
X212800000Y-148500000D03*
X212800000Y-149000000D03*
X212800000Y-149500000D03*
X212800000Y-150000000D03*
X212800000Y-150500000D03*
X212800000Y-151000000D03*
X212800000Y-151500000D03*
X212800000Y-152000000D03*
X212800000Y-152500000D03*
X212800000Y-153000000D03*
X212800000Y-153500000D03*
D17*
X183350000Y-120750000D03*
X183350000Y-120250000D03*
X183350000Y-119750000D03*
X183350000Y-119250000D03*
X183350000Y-118750000D03*
X183350000Y-118250000D03*
X183350000Y-117750000D03*
X183350000Y-117250000D03*
X183350000Y-116750000D03*
X183350000Y-116250000D03*
X183350000Y-115750000D03*
X183350000Y-115250000D03*
D18*
X181750000Y-113650000D03*
X181250000Y-113650000D03*
X180750000Y-113650000D03*
X180250000Y-113650000D03*
X179750000Y-113650000D03*
X179250000Y-113650000D03*
X178750000Y-113650000D03*
X178250000Y-113650000D03*
X177750000Y-113650000D03*
X177250000Y-113650000D03*
X176750000Y-113650000D03*
X176250000Y-113650000D03*
D17*
X174650000Y-115250000D03*
X174650000Y-115750000D03*
X174650000Y-116250000D03*
X174650000Y-116750000D03*
X174650000Y-117250000D03*
X174650000Y-117750000D03*
X174650000Y-118250000D03*
X174650000Y-118750000D03*
X174650000Y-119250000D03*
X174650000Y-119750000D03*
X174650000Y-120250000D03*
X174650000Y-120750000D03*
D18*
X176250000Y-122350000D03*
X176750000Y-122350000D03*
X177250000Y-122350000D03*
X177750000Y-122350000D03*
X178250000Y-122350000D03*
X178750000Y-122350000D03*
X179250000Y-122350000D03*
X179750000Y-122350000D03*
X180250000Y-122350000D03*
X180750000Y-122350000D03*
X181250000Y-122350000D03*
X181750000Y-122350000D03*
X176250000Y-86350000D03*
X176750000Y-86350000D03*
X177250000Y-86350000D03*
X177750000Y-86350000D03*
X178250000Y-86350000D03*
X178750000Y-86350000D03*
X179250000Y-86350000D03*
X179750000Y-86350000D03*
X180250000Y-86350000D03*
X180750000Y-86350000D03*
X181250000Y-86350000D03*
X181750000Y-86350000D03*
D17*
X183350000Y-84750000D03*
X183350000Y-84250000D03*
X183350000Y-83750000D03*
X183350000Y-83250000D03*
X183350000Y-82750000D03*
X183350000Y-82250000D03*
X183350000Y-81750000D03*
X183350000Y-81250000D03*
X183350000Y-80750000D03*
X183350000Y-80250000D03*
X183350000Y-79750000D03*
X183350000Y-79250000D03*
D18*
X181750000Y-77650000D03*
X181250000Y-77650000D03*
X180750000Y-77650000D03*
X180250000Y-77650000D03*
X179750000Y-77650000D03*
X179250000Y-77650000D03*
X178750000Y-77650000D03*
X178250000Y-77650000D03*
X177750000Y-77650000D03*
X177250000Y-77650000D03*
X176750000Y-77650000D03*
X176250000Y-77650000D03*
D17*
X174650000Y-79250000D03*
X174650000Y-79750000D03*
X174650000Y-80250000D03*
X174650000Y-80750000D03*
X174650000Y-81250000D03*
X174650000Y-81750000D03*
X174650000Y-82250000D03*
X174650000Y-82750000D03*
X174650000Y-83250000D03*
X174650000Y-83750000D03*
X174650000Y-84250000D03*
X174650000Y-84750000D03*
D19*
X173000000Y-154700000D03*
X173500000Y-154700000D03*
X174000000Y-154700000D03*
X174500000Y-154700000D03*
X175000000Y-154700000D03*
X175500000Y-154700000D03*
X176000000Y-154700000D03*
X176500000Y-154700000D03*
X177000000Y-154700000D03*
X177500000Y-154700000D03*
X178000000Y-154700000D03*
X178500000Y-154700000D03*
X179000000Y-154700000D03*
X179500000Y-154700000D03*
X180000000Y-154700000D03*
X180500000Y-154700000D03*
X181000000Y-154700000D03*
X181500000Y-154700000D03*
X182000000Y-154700000D03*
X182500000Y-154700000D03*
X183000000Y-154700000D03*
X183500000Y-154700000D03*
X184000000Y-154700000D03*
X184500000Y-154700000D03*
X185000000Y-154700000D03*
D20*
X186700000Y-153000000D03*
X186700000Y-152500000D03*
X186700000Y-152000000D03*
X186700000Y-151500000D03*
X186700000Y-151000000D03*
X186700000Y-150500000D03*
X186700000Y-150000000D03*
X186700000Y-149500000D03*
X186700000Y-149000000D03*
X186700000Y-148500000D03*
X186700000Y-148000000D03*
X186700000Y-147500000D03*
X186700000Y-147000000D03*
X186700000Y-146500000D03*
X186700000Y-146000000D03*
X186700000Y-145500000D03*
X186700000Y-145000000D03*
X186700000Y-144500000D03*
X186700000Y-144000000D03*
X186700000Y-143500000D03*
X186700000Y-143000000D03*
X186700000Y-142500000D03*
X186700000Y-142000000D03*
X186700000Y-141500000D03*
X186700000Y-141000000D03*
D19*
X185000000Y-139300000D03*
X184500000Y-139300000D03*
X184000000Y-139300000D03*
X183500000Y-139300000D03*
X183000000Y-139300000D03*
X182500000Y-139300000D03*
X182000000Y-139300000D03*
X181500000Y-139300000D03*
X181000000Y-139300000D03*
X180500000Y-139300000D03*
X180000000Y-139300000D03*
X179500000Y-139300000D03*
X179000000Y-139300000D03*
X178500000Y-139300000D03*
X178000000Y-139300000D03*
X177500000Y-139300000D03*
X177000000Y-139300000D03*
X176500000Y-139300000D03*
X176000000Y-139300000D03*
X175500000Y-139300000D03*
X175000000Y-139300000D03*
X174500000Y-139300000D03*
X174000000Y-139300000D03*
X173500000Y-139300000D03*
X173000000Y-139300000D03*
D20*
X171300000Y-141000000D03*
X171300000Y-141500000D03*
X171300000Y-142000000D03*
X171300000Y-142500000D03*
X171300000Y-143000000D03*
X171300000Y-143500000D03*
X171300000Y-144000000D03*
X171300000Y-144500000D03*
X171300000Y-145000000D03*
X171300000Y-145500000D03*
X171300000Y-146000000D03*
X171300000Y-146500000D03*
X171300000Y-147000000D03*
X171300000Y-147500000D03*
X171300000Y-148000000D03*
X171300000Y-148500000D03*
X171300000Y-149000000D03*
X171300000Y-149500000D03*
X171300000Y-150000000D03*
X171300000Y-150500000D03*
X171300000Y-151000000D03*
X171300000Y-151500000D03*
X171300000Y-152000000D03*
X171300000Y-152500000D03*
X171300000Y-153000000D03*
D21*
X243500000Y-99620000D03*
X243500000Y-97080000D03*
X243500000Y-94540000D03*
X243500000Y-92000000D03*
X243500000Y-89460000D03*
X243500000Y-86920000D03*
X243500000Y-84380000D03*
X243500000Y-81840000D03*
X243500000Y-79300000D03*
X243500000Y-76760000D03*
X248960000Y-99620000D03*
X248960000Y-97080000D03*
X248960000Y-94540000D03*
X248960000Y-92000000D03*
X248960000Y-89460000D03*
X248960000Y-86920000D03*
X248960000Y-84380000D03*
X248960000Y-81840000D03*
X248960000Y-79300000D03*
X248960000Y-76760000D03*
X160270000Y-124830000D03*
X160270000Y-122290000D03*
X160270000Y-119750000D03*
X160270000Y-117210000D03*
X160270000Y-114670000D03*
X165730000Y-124830000D03*
X165730000Y-122290000D03*
X165730000Y-119750000D03*
X165730000Y-117210000D03*
X165730000Y-114670000D03*
X208730000Y-71920000D03*
X208730000Y-74460000D03*
X208730000Y-77000000D03*
X208730000Y-79540000D03*
X208730000Y-82080000D03*
X203270000Y-71920000D03*
X203270000Y-74460000D03*
X203270000Y-77000000D03*
X203270000Y-79540000D03*
X203270000Y-82080000D03*
X208230000Y-116880000D03*
X208230000Y-119420000D03*
X208230000Y-121960000D03*
X208230000Y-124500000D03*
X208230000Y-127040000D03*
X202770000Y-116880000D03*
X202770000Y-119420000D03*
X202770000Y-121960000D03*
X202770000Y-124500000D03*
X202770000Y-127040000D03*
X160520000Y-86060000D03*
X160520000Y-83520000D03*
X160520000Y-80980000D03*
X160520000Y-78440000D03*
X165980000Y-86060000D03*
X165980000Y-83520000D03*
X165980000Y-80980000D03*
X165980000Y-78440000D03*
D22*
X258475000Y-152800000D03*
X258475000Y-155200000D03*
D23*
X258475000Y-150200000D03*
X258475000Y-157800000D03*
D24*
X255725000Y-150900000D03*
X255725000Y-157100000D03*
D25*
X255600000Y-152700000D03*
X255600000Y-154000000D03*
X255600000Y-155300000D03*
X255600000Y-153350000D03*
X255600000Y-154650000D03*
D22*
X258475000Y-141800000D03*
X258475000Y-144200000D03*
D23*
X258475000Y-139200000D03*
X258475000Y-146800000D03*
D24*
X255725000Y-139900000D03*
X255725000Y-146100000D03*
D25*
X255600000Y-141700000D03*
X255600000Y-143000000D03*
X255600000Y-144300000D03*
X255600000Y-142350000D03*
X255600000Y-143650000D03*
D21*
X242500000Y-135300000D03*
X242500000Y-137840000D03*
X242500000Y-140380000D03*
X242500000Y-142920000D03*
X242500000Y-145460000D03*
X242500000Y-148000000D03*
X242500000Y-150540000D03*
X242500000Y-153080000D03*
X242500000Y-155620000D03*
X242500000Y-158160000D03*
D26*
X256500000Y-81185000D03*
X256500000Y-77815000D03*
D14*
X254770000Y-79500000D03*
D26*
X256500000Y-86685000D03*
X256500000Y-83315000D03*
D14*
X254770000Y-85000000D03*
D26*
X256500000Y-92185000D03*
X256500000Y-88815000D03*
D14*
X254770000Y-90500000D03*
D26*
X256500000Y-97685000D03*
X256500000Y-94315000D03*
D14*
X254770000Y-96000000D03*
D26*
X256500000Y-103185000D03*
X256500000Y-99815000D03*
D14*
X254770000Y-101500000D03*
D26*
X256500000Y-108685000D03*
X256500000Y-105315000D03*
D14*
X254770000Y-107000000D03*
D26*
X256500000Y-114185000D03*
X256500000Y-110815000D03*
D14*
X254770000Y-112500000D03*
D26*
X256500000Y-119685000D03*
X256500000Y-116315000D03*
D14*
X254770000Y-118000000D03*
D26*
X256500000Y-125185000D03*
X256500000Y-121815000D03*
D14*
X254770000Y-123500000D03*
D26*
X256500000Y-130685000D03*
X256500000Y-127315000D03*
D14*
X254770000Y-129000000D03*
D26*
X256500000Y-136185000D03*
X256500000Y-132815000D03*
D14*
X254770000Y-134500000D03*
D26*
X256500000Y-75685000D03*
X256500000Y-72315000D03*
D14*
X254770000Y-74000000D03*
D16*
X157500000Y-103750000D03*
X157500000Y-102250000D03*
X157500000Y-99750000D03*
X157500000Y-98250000D03*
X154000000Y-103750000D03*
X154000000Y-102250000D03*
X154000000Y-99750000D03*
X154000000Y-98250000D03*
M02*
