G04 #@! TF.GenerationSoftware,KiCad,Pcbnew,(5.0.0-3-g5ebb6b6)*
G04 #@! TF.CreationDate,2020-07-14T15:02:59-04:00*
G04 #@! TF.ProjectId,Project,50726F6A6563742E6B696361645F7063,rev?*
G04 #@! TF.SameCoordinates,Original*
G04 #@! TF.FileFunction,Copper,L1,Top,Signal*
G04 #@! TF.FilePolarity,Positive*
%FSLAX46Y46*%
G04 Gerber Fmt 4.6, Leading zero omitted, Abs format (unit mm)*
G04 Created by KiCad (PCBNEW (5.0.0-3-g5ebb6b6)) date Tuesday, July 14, 2020 at 03:02:59 PM*
%MOMM*%
%LPD*%
G01*
G04 APERTURE LIST*
G04 #@! TA.AperFunction,ComponentPad*
%ADD10R,1.700000X1.700000*%
G04 #@! TD*
G04 #@! TA.AperFunction,ComponentPad*
%ADD11O,1.700000X1.700000*%
G04 #@! TD*
G04 #@! TA.AperFunction,ComponentPad*
%ADD12C,2.250000*%
G04 #@! TD*
G04 #@! TA.AperFunction,ComponentPad*
%ADD13R,2.250000X2.250000*%
G04 #@! TD*
G04 #@! TA.AperFunction,Conductor*
%ADD14C,0.400000*%
G04 #@! TD*
G04 #@! TA.AperFunction,Conductor*
%ADD15C,0.254000*%
G04 #@! TD*
G04 APERTURE END LIST*
D10*
G04 #@! TO.P,J1,1*
G04 #@! TO.N,DD1*
X100000000Y-100000000D03*
D11*
G04 #@! TO.P,J1,2*
G04 #@! TO.N,SS1*
X102540000Y-100000000D03*
G04 #@! TO.P,J1,3*
G04 #@! TO.N,DD2*
X100000000Y-102540000D03*
G04 #@! TO.P,J1,4*
G04 #@! TO.N,SS2*
X102540000Y-102540000D03*
G04 #@! TO.P,J1,5*
G04 #@! TO.N,GND*
X100000000Y-105080000D03*
G04 #@! TO.P,J1,6*
G04 #@! TO.N,Net-(J1-Pad6)*
X102540000Y-105080000D03*
G04 #@! TO.P,J1,7*
G04 #@! TO.N,BackGate*
X100000000Y-107620000D03*
G04 #@! TO.P,J1,8*
G04 #@! TO.N,Gate*
X102540000Y-107620000D03*
G04 #@! TO.P,J1,9*
G04 #@! TO.N,LocalGate*
X100000000Y-110160000D03*
G04 #@! TO.P,J1,10*
G04 #@! TO.N,Gate*
X102540000Y-110160000D03*
G04 #@! TO.P,J1,11*
G04 #@! TO.N,SolutionGate*
X100000000Y-112700000D03*
G04 #@! TO.P,J1,12*
G04 #@! TO.N,Gate*
X102540000Y-112700000D03*
G04 #@! TD*
D12*
G04 #@! TO.P,SIG1,1*
G04 #@! TO.N,DD1*
X92500000Y-85000000D03*
D13*
G04 #@! TO.P,SIG1,2*
G04 #@! TO.N,GND*
X95040000Y-82460000D03*
X89960000Y-82460000D03*
X89960000Y-87540000D03*
X95040000Y-87540000D03*
G04 #@! TD*
D12*
G04 #@! TO.P,SIG2,1*
G04 #@! TO.N,Gate*
X92500000Y-115000000D03*
D13*
G04 #@! TO.P,SIG2,2*
G04 #@! TO.N,GND*
X95040000Y-112460000D03*
X89960000Y-112460000D03*
X89960000Y-117540000D03*
X95040000Y-117540000D03*
G04 #@! TD*
G04 #@! TO.P,SIG3,2*
G04 #@! TO.N,GND*
X95040000Y-102540000D03*
X89960000Y-102540000D03*
X89960000Y-97460000D03*
X95040000Y-97460000D03*
D12*
G04 #@! TO.P,SIG3,1*
G04 #@! TO.N,SS1*
X92500000Y-100000000D03*
G04 #@! TD*
D14*
G04 #@! TO.N,DD1*
X92500000Y-85000000D02*
X97500000Y-85000000D01*
X100000000Y-87500000D02*
X100000000Y-100000000D01*
X97500000Y-85000000D02*
X100000000Y-87500000D01*
G04 #@! TO.N,Gate*
X100240000Y-115000000D02*
X92500000Y-115000000D01*
X102540000Y-112700000D02*
X102540000Y-110160000D01*
X102540000Y-107620000D02*
X102540000Y-110160000D01*
X100240000Y-115000000D02*
X100500000Y-115000000D01*
X102540000Y-112700000D02*
X102540000Y-112960000D01*
X102540000Y-112960000D02*
X100500000Y-115000000D01*
G04 #@! TD*
D15*
G04 #@! TO.N,GND*
G36*
X88475302Y-80796673D02*
X88296673Y-80975301D01*
X88200000Y-81208690D01*
X88200000Y-82174250D01*
X88358750Y-82333000D01*
X89833000Y-82333000D01*
X89833000Y-82313000D01*
X90087000Y-82313000D01*
X90087000Y-82333000D01*
X91561250Y-82333000D01*
X91720000Y-82174250D01*
X91720000Y-81208690D01*
X91623327Y-80975301D01*
X91444698Y-80796673D01*
X91235451Y-80710000D01*
X93764549Y-80710000D01*
X93555302Y-80796673D01*
X93376673Y-80975301D01*
X93280000Y-81208690D01*
X93280000Y-82174250D01*
X93438750Y-82333000D01*
X94913000Y-82333000D01*
X94913000Y-82313000D01*
X95167000Y-82313000D01*
X95167000Y-82333000D01*
X96641250Y-82333000D01*
X96800000Y-82174250D01*
X96800000Y-81208690D01*
X96703327Y-80975301D01*
X96524698Y-80796673D01*
X96315451Y-80710000D01*
X99705910Y-80710000D01*
X104290001Y-85294093D01*
X104290000Y-97569925D01*
X104290001Y-97569930D01*
X104290000Y-114705908D01*
X99705910Y-119290000D01*
X96315451Y-119290000D01*
X96524698Y-119203327D01*
X96703327Y-119024699D01*
X96800000Y-118791310D01*
X96800000Y-117825750D01*
X96641250Y-117667000D01*
X95167000Y-117667000D01*
X95167000Y-117687000D01*
X94913000Y-117687000D01*
X94913000Y-117667000D01*
X93438750Y-117667000D01*
X93280000Y-117825750D01*
X93280000Y-118791310D01*
X93376673Y-119024699D01*
X93555302Y-119203327D01*
X93764549Y-119290000D01*
X91235451Y-119290000D01*
X91444698Y-119203327D01*
X91623327Y-119024699D01*
X91720000Y-118791310D01*
X91720000Y-117825750D01*
X91561250Y-117667000D01*
X90087000Y-117667000D01*
X90087000Y-117687000D01*
X89833000Y-117687000D01*
X89833000Y-117667000D01*
X88358750Y-117667000D01*
X88200000Y-117825750D01*
X88200000Y-118791310D01*
X88296673Y-119024699D01*
X88475302Y-119203327D01*
X88684549Y-119290000D01*
X85294092Y-119290000D01*
X82292781Y-116288690D01*
X88200000Y-116288690D01*
X88200000Y-117254250D01*
X88358750Y-117413000D01*
X89833000Y-117413000D01*
X89833000Y-115938750D01*
X89674250Y-115780000D01*
X88708691Y-115780000D01*
X88475302Y-115876673D01*
X88296673Y-116055301D01*
X88200000Y-116288690D01*
X82292781Y-116288690D01*
X80710000Y-114705910D01*
X80710000Y-112745750D01*
X88200000Y-112745750D01*
X88200000Y-113711310D01*
X88296673Y-113944699D01*
X88475302Y-114123327D01*
X88708691Y-114220000D01*
X89674250Y-114220000D01*
X89833000Y-114061250D01*
X89833000Y-112587000D01*
X88358750Y-112587000D01*
X88200000Y-112745750D01*
X80710000Y-112745750D01*
X80710000Y-111208690D01*
X88200000Y-111208690D01*
X88200000Y-112174250D01*
X88358750Y-112333000D01*
X89833000Y-112333000D01*
X89833000Y-110858750D01*
X90087000Y-110858750D01*
X90087000Y-112333000D01*
X91561250Y-112333000D01*
X91720000Y-112174250D01*
X91720000Y-111208690D01*
X93280000Y-111208690D01*
X93280000Y-112174250D01*
X93438750Y-112333000D01*
X94913000Y-112333000D01*
X94913000Y-110858750D01*
X95167000Y-110858750D01*
X95167000Y-112333000D01*
X96641250Y-112333000D01*
X96800000Y-112174250D01*
X96800000Y-111208690D01*
X96703327Y-110975301D01*
X96524698Y-110796673D01*
X96291309Y-110700000D01*
X95325750Y-110700000D01*
X95167000Y-110858750D01*
X94913000Y-110858750D01*
X94754250Y-110700000D01*
X93788691Y-110700000D01*
X93555302Y-110796673D01*
X93376673Y-110975301D01*
X93280000Y-111208690D01*
X91720000Y-111208690D01*
X91623327Y-110975301D01*
X91444698Y-110796673D01*
X91211309Y-110700000D01*
X90245750Y-110700000D01*
X90087000Y-110858750D01*
X89833000Y-110858750D01*
X89674250Y-110700000D01*
X88708691Y-110700000D01*
X88475302Y-110796673D01*
X88296673Y-110975301D01*
X88200000Y-111208690D01*
X80710000Y-111208690D01*
X80710000Y-102825750D01*
X88200000Y-102825750D01*
X88200000Y-103791310D01*
X88296673Y-104024699D01*
X88475302Y-104203327D01*
X88708691Y-104300000D01*
X89674250Y-104300000D01*
X89833000Y-104141250D01*
X89833000Y-102667000D01*
X90087000Y-102667000D01*
X90087000Y-104141250D01*
X90245750Y-104300000D01*
X91211309Y-104300000D01*
X91444698Y-104203327D01*
X91623327Y-104024699D01*
X91720000Y-103791310D01*
X91720000Y-102825750D01*
X93280000Y-102825750D01*
X93280000Y-103791310D01*
X93376673Y-104024699D01*
X93555302Y-104203327D01*
X93788691Y-104300000D01*
X94754250Y-104300000D01*
X94913000Y-104141250D01*
X94913000Y-102667000D01*
X95167000Y-102667000D01*
X95167000Y-104141250D01*
X95325750Y-104300000D01*
X96291309Y-104300000D01*
X96524698Y-104203327D01*
X96703327Y-104024699D01*
X96800000Y-103791310D01*
X96800000Y-102825750D01*
X96641250Y-102667000D01*
X95167000Y-102667000D01*
X94913000Y-102667000D01*
X93438750Y-102667000D01*
X93280000Y-102825750D01*
X91720000Y-102825750D01*
X91561250Y-102667000D01*
X90087000Y-102667000D01*
X89833000Y-102667000D01*
X88358750Y-102667000D01*
X88200000Y-102825750D01*
X80710000Y-102825750D01*
X80710000Y-101288690D01*
X88200000Y-101288690D01*
X88200000Y-102254250D01*
X88358750Y-102413000D01*
X89833000Y-102413000D01*
X89833000Y-100938750D01*
X89674250Y-100780000D01*
X88708691Y-100780000D01*
X88475302Y-100876673D01*
X88296673Y-101055301D01*
X88200000Y-101288690D01*
X80710000Y-101288690D01*
X80710000Y-97745750D01*
X88200000Y-97745750D01*
X88200000Y-98711310D01*
X88296673Y-98944699D01*
X88475302Y-99123327D01*
X88708691Y-99220000D01*
X89674250Y-99220000D01*
X89833000Y-99061250D01*
X89833000Y-97587000D01*
X90087000Y-97587000D01*
X90087000Y-99061250D01*
X90245750Y-99220000D01*
X90918076Y-99220000D01*
X90740000Y-99649914D01*
X90740000Y-100350086D01*
X90918076Y-100780000D01*
X90245750Y-100780000D01*
X90087000Y-100938750D01*
X90087000Y-102413000D01*
X91561250Y-102413000D01*
X91720000Y-102254250D01*
X91720000Y-101581924D01*
X92149914Y-101760000D01*
X92850086Y-101760000D01*
X93280000Y-101581924D01*
X93280000Y-102254250D01*
X93438750Y-102413000D01*
X94913000Y-102413000D01*
X94913000Y-100938750D01*
X95167000Y-100938750D01*
X95167000Y-102413000D01*
X96641250Y-102413000D01*
X96800000Y-102254250D01*
X96800000Y-101288690D01*
X96703327Y-101055301D01*
X96524698Y-100876673D01*
X96291309Y-100780000D01*
X95325750Y-100780000D01*
X95167000Y-100938750D01*
X94913000Y-100938750D01*
X94754250Y-100780000D01*
X94081924Y-100780000D01*
X94260000Y-100350086D01*
X94260000Y-99649914D01*
X94081924Y-99220000D01*
X94754250Y-99220000D01*
X94913000Y-99061250D01*
X94913000Y-97587000D01*
X95167000Y-97587000D01*
X95167000Y-99061250D01*
X95325750Y-99220000D01*
X96291309Y-99220000D01*
X96524698Y-99123327D01*
X96703327Y-98944699D01*
X96800000Y-98711310D01*
X96800000Y-97745750D01*
X96641250Y-97587000D01*
X95167000Y-97587000D01*
X94913000Y-97587000D01*
X93438750Y-97587000D01*
X93280000Y-97745750D01*
X93280000Y-98418076D01*
X92850086Y-98240000D01*
X92149914Y-98240000D01*
X91720000Y-98418076D01*
X91720000Y-97745750D01*
X91561250Y-97587000D01*
X90087000Y-97587000D01*
X89833000Y-97587000D01*
X88358750Y-97587000D01*
X88200000Y-97745750D01*
X80710000Y-97745750D01*
X80710000Y-96208690D01*
X88200000Y-96208690D01*
X88200000Y-97174250D01*
X88358750Y-97333000D01*
X89833000Y-97333000D01*
X89833000Y-95858750D01*
X90087000Y-95858750D01*
X90087000Y-97333000D01*
X91561250Y-97333000D01*
X91720000Y-97174250D01*
X91720000Y-96208690D01*
X93280000Y-96208690D01*
X93280000Y-97174250D01*
X93438750Y-97333000D01*
X94913000Y-97333000D01*
X94913000Y-95858750D01*
X95167000Y-95858750D01*
X95167000Y-97333000D01*
X96641250Y-97333000D01*
X96800000Y-97174250D01*
X96800000Y-96208690D01*
X96703327Y-95975301D01*
X96524698Y-95796673D01*
X96291309Y-95700000D01*
X95325750Y-95700000D01*
X95167000Y-95858750D01*
X94913000Y-95858750D01*
X94754250Y-95700000D01*
X93788691Y-95700000D01*
X93555302Y-95796673D01*
X93376673Y-95975301D01*
X93280000Y-96208690D01*
X91720000Y-96208690D01*
X91623327Y-95975301D01*
X91444698Y-95796673D01*
X91211309Y-95700000D01*
X90245750Y-95700000D01*
X90087000Y-95858750D01*
X89833000Y-95858750D01*
X89674250Y-95700000D01*
X88708691Y-95700000D01*
X88475302Y-95796673D01*
X88296673Y-95975301D01*
X88200000Y-96208690D01*
X80710000Y-96208690D01*
X80710000Y-87825750D01*
X88200000Y-87825750D01*
X88200000Y-88791310D01*
X88296673Y-89024699D01*
X88475302Y-89203327D01*
X88708691Y-89300000D01*
X89674250Y-89300000D01*
X89833000Y-89141250D01*
X89833000Y-87667000D01*
X90087000Y-87667000D01*
X90087000Y-89141250D01*
X90245750Y-89300000D01*
X91211309Y-89300000D01*
X91444698Y-89203327D01*
X91623327Y-89024699D01*
X91720000Y-88791310D01*
X91720000Y-87825750D01*
X93280000Y-87825750D01*
X93280000Y-88791310D01*
X93376673Y-89024699D01*
X93555302Y-89203327D01*
X93788691Y-89300000D01*
X94754250Y-89300000D01*
X94913000Y-89141250D01*
X94913000Y-87667000D01*
X95167000Y-87667000D01*
X95167000Y-89141250D01*
X95325750Y-89300000D01*
X96291309Y-89300000D01*
X96524698Y-89203327D01*
X96703327Y-89024699D01*
X96800000Y-88791310D01*
X96800000Y-87825750D01*
X96641250Y-87667000D01*
X95167000Y-87667000D01*
X94913000Y-87667000D01*
X93438750Y-87667000D01*
X93280000Y-87825750D01*
X91720000Y-87825750D01*
X91561250Y-87667000D01*
X90087000Y-87667000D01*
X89833000Y-87667000D01*
X88358750Y-87667000D01*
X88200000Y-87825750D01*
X80710000Y-87825750D01*
X80710000Y-86288690D01*
X88200000Y-86288690D01*
X88200000Y-87254250D01*
X88358750Y-87413000D01*
X89833000Y-87413000D01*
X89833000Y-85938750D01*
X89674250Y-85780000D01*
X88708691Y-85780000D01*
X88475302Y-85876673D01*
X88296673Y-86055301D01*
X88200000Y-86288690D01*
X80710000Y-86288690D01*
X80710000Y-85294090D01*
X83258341Y-82745750D01*
X88200000Y-82745750D01*
X88200000Y-83711310D01*
X88296673Y-83944699D01*
X88475302Y-84123327D01*
X88708691Y-84220000D01*
X89674250Y-84220000D01*
X89833000Y-84061250D01*
X89833000Y-82587000D01*
X90087000Y-82587000D01*
X90087000Y-84061250D01*
X90245750Y-84220000D01*
X90918076Y-84220000D01*
X90740000Y-84649914D01*
X90740000Y-85350086D01*
X90918076Y-85780000D01*
X90245750Y-85780000D01*
X90087000Y-85938750D01*
X90087000Y-87413000D01*
X91561250Y-87413000D01*
X91720000Y-87254250D01*
X91720000Y-86581924D01*
X92149914Y-86760000D01*
X92850086Y-86760000D01*
X93280000Y-86581924D01*
X93280000Y-87254250D01*
X93438750Y-87413000D01*
X94913000Y-87413000D01*
X94913000Y-87393000D01*
X95167000Y-87393000D01*
X95167000Y-87413000D01*
X96641250Y-87413000D01*
X96800000Y-87254250D01*
X96800000Y-86288690D01*
X96703327Y-86055301D01*
X96524698Y-85876673D01*
X96424091Y-85835000D01*
X97154133Y-85835000D01*
X99165000Y-87845868D01*
X99165001Y-98502560D01*
X99150000Y-98502560D01*
X98902235Y-98551843D01*
X98692191Y-98692191D01*
X98551843Y-98902235D01*
X98502560Y-99150000D01*
X98502560Y-100850000D01*
X98551843Y-101097765D01*
X98692191Y-101307809D01*
X98902235Y-101448157D01*
X98947619Y-101457184D01*
X98929375Y-101469375D01*
X98601161Y-101960582D01*
X98485908Y-102540000D01*
X98601161Y-103119418D01*
X98929375Y-103610625D01*
X99248478Y-103823843D01*
X99118642Y-103884817D01*
X98728355Y-104313076D01*
X98558524Y-104723110D01*
X98679845Y-104953000D01*
X99873000Y-104953000D01*
X99873000Y-104933000D01*
X100127000Y-104933000D01*
X100127000Y-104953000D01*
X100147000Y-104953000D01*
X100147000Y-105207000D01*
X100127000Y-105207000D01*
X100127000Y-105227000D01*
X99873000Y-105227000D01*
X99873000Y-105207000D01*
X98679845Y-105207000D01*
X98558524Y-105436890D01*
X98728355Y-105846924D01*
X99118642Y-106275183D01*
X99248478Y-106336157D01*
X98929375Y-106549375D01*
X98601161Y-107040582D01*
X98485908Y-107620000D01*
X98601161Y-108199418D01*
X98929375Y-108690625D01*
X99227761Y-108890000D01*
X98929375Y-109089375D01*
X98601161Y-109580582D01*
X98485908Y-110160000D01*
X98601161Y-110739418D01*
X98929375Y-111230625D01*
X99227761Y-111430000D01*
X98929375Y-111629375D01*
X98601161Y-112120582D01*
X98485908Y-112700000D01*
X98601161Y-113279418D01*
X98929375Y-113770625D01*
X99420582Y-114098839D01*
X99753197Y-114165000D01*
X96424091Y-114165000D01*
X96524698Y-114123327D01*
X96703327Y-113944699D01*
X96800000Y-113711310D01*
X96800000Y-112745750D01*
X96641250Y-112587000D01*
X95167000Y-112587000D01*
X95167000Y-112607000D01*
X94913000Y-112607000D01*
X94913000Y-112587000D01*
X93438750Y-112587000D01*
X93280000Y-112745750D01*
X93280000Y-113418076D01*
X92850086Y-113240000D01*
X92149914Y-113240000D01*
X91720000Y-113418076D01*
X91720000Y-112745750D01*
X91561250Y-112587000D01*
X90087000Y-112587000D01*
X90087000Y-114061250D01*
X90245750Y-114220000D01*
X90918076Y-114220000D01*
X90740000Y-114649914D01*
X90740000Y-115350086D01*
X90918076Y-115780000D01*
X90245750Y-115780000D01*
X90087000Y-115938750D01*
X90087000Y-117413000D01*
X91561250Y-117413000D01*
X91720000Y-117254250D01*
X91720000Y-116581924D01*
X92149914Y-116760000D01*
X92850086Y-116760000D01*
X93280000Y-116581924D01*
X93280000Y-117254250D01*
X93438750Y-117413000D01*
X94913000Y-117413000D01*
X94913000Y-117393000D01*
X95167000Y-117393000D01*
X95167000Y-117413000D01*
X96641250Y-117413000D01*
X96800000Y-117254250D01*
X96800000Y-116288690D01*
X96703327Y-116055301D01*
X96524698Y-115876673D01*
X96424091Y-115835000D01*
X100417767Y-115835000D01*
X100500000Y-115851357D01*
X100582233Y-115835000D01*
X100582237Y-115835000D01*
X100825801Y-115786552D01*
X101102001Y-115602001D01*
X101148587Y-115532280D01*
X102495868Y-114185000D01*
X102686256Y-114185000D01*
X103119418Y-114098839D01*
X103610625Y-113770625D01*
X103938839Y-113279418D01*
X104054092Y-112700000D01*
X103938839Y-112120582D01*
X103610625Y-111629375D01*
X103375000Y-111471935D01*
X103375000Y-111388065D01*
X103610625Y-111230625D01*
X103938839Y-110739418D01*
X104054092Y-110160000D01*
X103938839Y-109580582D01*
X103610625Y-109089375D01*
X103375000Y-108931935D01*
X103375000Y-108848065D01*
X103610625Y-108690625D01*
X103938839Y-108199418D01*
X104054092Y-107620000D01*
X103938839Y-107040582D01*
X103610625Y-106549375D01*
X103312239Y-106350000D01*
X103610625Y-106150625D01*
X103938839Y-105659418D01*
X104054092Y-105080000D01*
X103938839Y-104500582D01*
X103610625Y-104009375D01*
X103312239Y-103810000D01*
X103610625Y-103610625D01*
X103938839Y-103119418D01*
X104054092Y-102540000D01*
X103938839Y-101960582D01*
X103610625Y-101469375D01*
X103312239Y-101270000D01*
X103610625Y-101070625D01*
X103938839Y-100579418D01*
X104054092Y-100000000D01*
X103938839Y-99420582D01*
X103610625Y-98929375D01*
X103119418Y-98601161D01*
X102686256Y-98515000D01*
X102393744Y-98515000D01*
X101960582Y-98601161D01*
X101469375Y-98929375D01*
X101457184Y-98947619D01*
X101448157Y-98902235D01*
X101307809Y-98692191D01*
X101097765Y-98551843D01*
X100850000Y-98502560D01*
X100835000Y-98502560D01*
X100835000Y-87582237D01*
X100851358Y-87500000D01*
X100786552Y-87174199D01*
X100648584Y-86967716D01*
X100602001Y-86897999D01*
X100532283Y-86851415D01*
X98148587Y-84467720D01*
X98102001Y-84397999D01*
X97825801Y-84213448D01*
X97582237Y-84165000D01*
X97582233Y-84165000D01*
X97500000Y-84148643D01*
X97417767Y-84165000D01*
X96424091Y-84165000D01*
X96524698Y-84123327D01*
X96703327Y-83944699D01*
X96800000Y-83711310D01*
X96800000Y-82745750D01*
X96641250Y-82587000D01*
X95167000Y-82587000D01*
X95167000Y-82607000D01*
X94913000Y-82607000D01*
X94913000Y-82587000D01*
X93438750Y-82587000D01*
X93280000Y-82745750D01*
X93280000Y-83418076D01*
X92850086Y-83240000D01*
X92149914Y-83240000D01*
X91720000Y-83418076D01*
X91720000Y-82745750D01*
X91561250Y-82587000D01*
X90087000Y-82587000D01*
X89833000Y-82587000D01*
X88358750Y-82587000D01*
X88200000Y-82745750D01*
X83258341Y-82745750D01*
X85294092Y-80710000D01*
X88684549Y-80710000D01*
X88475302Y-80796673D01*
X88475302Y-80796673D01*
G37*
X88475302Y-80796673D02*
X88296673Y-80975301D01*
X88200000Y-81208690D01*
X88200000Y-82174250D01*
X88358750Y-82333000D01*
X89833000Y-82333000D01*
X89833000Y-82313000D01*
X90087000Y-82313000D01*
X90087000Y-82333000D01*
X91561250Y-82333000D01*
X91720000Y-82174250D01*
X91720000Y-81208690D01*
X91623327Y-80975301D01*
X91444698Y-80796673D01*
X91235451Y-80710000D01*
X93764549Y-80710000D01*
X93555302Y-80796673D01*
X93376673Y-80975301D01*
X93280000Y-81208690D01*
X93280000Y-82174250D01*
X93438750Y-82333000D01*
X94913000Y-82333000D01*
X94913000Y-82313000D01*
X95167000Y-82313000D01*
X95167000Y-82333000D01*
X96641250Y-82333000D01*
X96800000Y-82174250D01*
X96800000Y-81208690D01*
X96703327Y-80975301D01*
X96524698Y-80796673D01*
X96315451Y-80710000D01*
X99705910Y-80710000D01*
X104290001Y-85294093D01*
X104290000Y-97569925D01*
X104290001Y-97569930D01*
X104290000Y-114705908D01*
X99705910Y-119290000D01*
X96315451Y-119290000D01*
X96524698Y-119203327D01*
X96703327Y-119024699D01*
X96800000Y-118791310D01*
X96800000Y-117825750D01*
X96641250Y-117667000D01*
X95167000Y-117667000D01*
X95167000Y-117687000D01*
X94913000Y-117687000D01*
X94913000Y-117667000D01*
X93438750Y-117667000D01*
X93280000Y-117825750D01*
X93280000Y-118791310D01*
X93376673Y-119024699D01*
X93555302Y-119203327D01*
X93764549Y-119290000D01*
X91235451Y-119290000D01*
X91444698Y-119203327D01*
X91623327Y-119024699D01*
X91720000Y-118791310D01*
X91720000Y-117825750D01*
X91561250Y-117667000D01*
X90087000Y-117667000D01*
X90087000Y-117687000D01*
X89833000Y-117687000D01*
X89833000Y-117667000D01*
X88358750Y-117667000D01*
X88200000Y-117825750D01*
X88200000Y-118791310D01*
X88296673Y-119024699D01*
X88475302Y-119203327D01*
X88684549Y-119290000D01*
X85294092Y-119290000D01*
X82292781Y-116288690D01*
X88200000Y-116288690D01*
X88200000Y-117254250D01*
X88358750Y-117413000D01*
X89833000Y-117413000D01*
X89833000Y-115938750D01*
X89674250Y-115780000D01*
X88708691Y-115780000D01*
X88475302Y-115876673D01*
X88296673Y-116055301D01*
X88200000Y-116288690D01*
X82292781Y-116288690D01*
X80710000Y-114705910D01*
X80710000Y-112745750D01*
X88200000Y-112745750D01*
X88200000Y-113711310D01*
X88296673Y-113944699D01*
X88475302Y-114123327D01*
X88708691Y-114220000D01*
X89674250Y-114220000D01*
X89833000Y-114061250D01*
X89833000Y-112587000D01*
X88358750Y-112587000D01*
X88200000Y-112745750D01*
X80710000Y-112745750D01*
X80710000Y-111208690D01*
X88200000Y-111208690D01*
X88200000Y-112174250D01*
X88358750Y-112333000D01*
X89833000Y-112333000D01*
X89833000Y-110858750D01*
X90087000Y-110858750D01*
X90087000Y-112333000D01*
X91561250Y-112333000D01*
X91720000Y-112174250D01*
X91720000Y-111208690D01*
X93280000Y-111208690D01*
X93280000Y-112174250D01*
X93438750Y-112333000D01*
X94913000Y-112333000D01*
X94913000Y-110858750D01*
X95167000Y-110858750D01*
X95167000Y-112333000D01*
X96641250Y-112333000D01*
X96800000Y-112174250D01*
X96800000Y-111208690D01*
X96703327Y-110975301D01*
X96524698Y-110796673D01*
X96291309Y-110700000D01*
X95325750Y-110700000D01*
X95167000Y-110858750D01*
X94913000Y-110858750D01*
X94754250Y-110700000D01*
X93788691Y-110700000D01*
X93555302Y-110796673D01*
X93376673Y-110975301D01*
X93280000Y-111208690D01*
X91720000Y-111208690D01*
X91623327Y-110975301D01*
X91444698Y-110796673D01*
X91211309Y-110700000D01*
X90245750Y-110700000D01*
X90087000Y-110858750D01*
X89833000Y-110858750D01*
X89674250Y-110700000D01*
X88708691Y-110700000D01*
X88475302Y-110796673D01*
X88296673Y-110975301D01*
X88200000Y-111208690D01*
X80710000Y-111208690D01*
X80710000Y-102825750D01*
X88200000Y-102825750D01*
X88200000Y-103791310D01*
X88296673Y-104024699D01*
X88475302Y-104203327D01*
X88708691Y-104300000D01*
X89674250Y-104300000D01*
X89833000Y-104141250D01*
X89833000Y-102667000D01*
X90087000Y-102667000D01*
X90087000Y-104141250D01*
X90245750Y-104300000D01*
X91211309Y-104300000D01*
X91444698Y-104203327D01*
X91623327Y-104024699D01*
X91720000Y-103791310D01*
X91720000Y-102825750D01*
X93280000Y-102825750D01*
X93280000Y-103791310D01*
X93376673Y-104024699D01*
X93555302Y-104203327D01*
X93788691Y-104300000D01*
X94754250Y-104300000D01*
X94913000Y-104141250D01*
X94913000Y-102667000D01*
X95167000Y-102667000D01*
X95167000Y-104141250D01*
X95325750Y-104300000D01*
X96291309Y-104300000D01*
X96524698Y-104203327D01*
X96703327Y-104024699D01*
X96800000Y-103791310D01*
X96800000Y-102825750D01*
X96641250Y-102667000D01*
X95167000Y-102667000D01*
X94913000Y-102667000D01*
X93438750Y-102667000D01*
X93280000Y-102825750D01*
X91720000Y-102825750D01*
X91561250Y-102667000D01*
X90087000Y-102667000D01*
X89833000Y-102667000D01*
X88358750Y-102667000D01*
X88200000Y-102825750D01*
X80710000Y-102825750D01*
X80710000Y-101288690D01*
X88200000Y-101288690D01*
X88200000Y-102254250D01*
X88358750Y-102413000D01*
X89833000Y-102413000D01*
X89833000Y-100938750D01*
X89674250Y-100780000D01*
X88708691Y-100780000D01*
X88475302Y-100876673D01*
X88296673Y-101055301D01*
X88200000Y-101288690D01*
X80710000Y-101288690D01*
X80710000Y-97745750D01*
X88200000Y-97745750D01*
X88200000Y-98711310D01*
X88296673Y-98944699D01*
X88475302Y-99123327D01*
X88708691Y-99220000D01*
X89674250Y-99220000D01*
X89833000Y-99061250D01*
X89833000Y-97587000D01*
X90087000Y-97587000D01*
X90087000Y-99061250D01*
X90245750Y-99220000D01*
X90918076Y-99220000D01*
X90740000Y-99649914D01*
X90740000Y-100350086D01*
X90918076Y-100780000D01*
X90245750Y-100780000D01*
X90087000Y-100938750D01*
X90087000Y-102413000D01*
X91561250Y-102413000D01*
X91720000Y-102254250D01*
X91720000Y-101581924D01*
X92149914Y-101760000D01*
X92850086Y-101760000D01*
X93280000Y-101581924D01*
X93280000Y-102254250D01*
X93438750Y-102413000D01*
X94913000Y-102413000D01*
X94913000Y-100938750D01*
X95167000Y-100938750D01*
X95167000Y-102413000D01*
X96641250Y-102413000D01*
X96800000Y-102254250D01*
X96800000Y-101288690D01*
X96703327Y-101055301D01*
X96524698Y-100876673D01*
X96291309Y-100780000D01*
X95325750Y-100780000D01*
X95167000Y-100938750D01*
X94913000Y-100938750D01*
X94754250Y-100780000D01*
X94081924Y-100780000D01*
X94260000Y-100350086D01*
X94260000Y-99649914D01*
X94081924Y-99220000D01*
X94754250Y-99220000D01*
X94913000Y-99061250D01*
X94913000Y-97587000D01*
X95167000Y-97587000D01*
X95167000Y-99061250D01*
X95325750Y-99220000D01*
X96291309Y-99220000D01*
X96524698Y-99123327D01*
X96703327Y-98944699D01*
X96800000Y-98711310D01*
X96800000Y-97745750D01*
X96641250Y-97587000D01*
X95167000Y-97587000D01*
X94913000Y-97587000D01*
X93438750Y-97587000D01*
X93280000Y-97745750D01*
X93280000Y-98418076D01*
X92850086Y-98240000D01*
X92149914Y-98240000D01*
X91720000Y-98418076D01*
X91720000Y-97745750D01*
X91561250Y-97587000D01*
X90087000Y-97587000D01*
X89833000Y-97587000D01*
X88358750Y-97587000D01*
X88200000Y-97745750D01*
X80710000Y-97745750D01*
X80710000Y-96208690D01*
X88200000Y-96208690D01*
X88200000Y-97174250D01*
X88358750Y-97333000D01*
X89833000Y-97333000D01*
X89833000Y-95858750D01*
X90087000Y-95858750D01*
X90087000Y-97333000D01*
X91561250Y-97333000D01*
X91720000Y-97174250D01*
X91720000Y-96208690D01*
X93280000Y-96208690D01*
X93280000Y-97174250D01*
X93438750Y-97333000D01*
X94913000Y-97333000D01*
X94913000Y-95858750D01*
X95167000Y-95858750D01*
X95167000Y-97333000D01*
X96641250Y-97333000D01*
X96800000Y-97174250D01*
X96800000Y-96208690D01*
X96703327Y-95975301D01*
X96524698Y-95796673D01*
X96291309Y-95700000D01*
X95325750Y-95700000D01*
X95167000Y-95858750D01*
X94913000Y-95858750D01*
X94754250Y-95700000D01*
X93788691Y-95700000D01*
X93555302Y-95796673D01*
X93376673Y-95975301D01*
X93280000Y-96208690D01*
X91720000Y-96208690D01*
X91623327Y-95975301D01*
X91444698Y-95796673D01*
X91211309Y-95700000D01*
X90245750Y-95700000D01*
X90087000Y-95858750D01*
X89833000Y-95858750D01*
X89674250Y-95700000D01*
X88708691Y-95700000D01*
X88475302Y-95796673D01*
X88296673Y-95975301D01*
X88200000Y-96208690D01*
X80710000Y-96208690D01*
X80710000Y-87825750D01*
X88200000Y-87825750D01*
X88200000Y-88791310D01*
X88296673Y-89024699D01*
X88475302Y-89203327D01*
X88708691Y-89300000D01*
X89674250Y-89300000D01*
X89833000Y-89141250D01*
X89833000Y-87667000D01*
X90087000Y-87667000D01*
X90087000Y-89141250D01*
X90245750Y-89300000D01*
X91211309Y-89300000D01*
X91444698Y-89203327D01*
X91623327Y-89024699D01*
X91720000Y-88791310D01*
X91720000Y-87825750D01*
X93280000Y-87825750D01*
X93280000Y-88791310D01*
X93376673Y-89024699D01*
X93555302Y-89203327D01*
X93788691Y-89300000D01*
X94754250Y-89300000D01*
X94913000Y-89141250D01*
X94913000Y-87667000D01*
X95167000Y-87667000D01*
X95167000Y-89141250D01*
X95325750Y-89300000D01*
X96291309Y-89300000D01*
X96524698Y-89203327D01*
X96703327Y-89024699D01*
X96800000Y-88791310D01*
X96800000Y-87825750D01*
X96641250Y-87667000D01*
X95167000Y-87667000D01*
X94913000Y-87667000D01*
X93438750Y-87667000D01*
X93280000Y-87825750D01*
X91720000Y-87825750D01*
X91561250Y-87667000D01*
X90087000Y-87667000D01*
X89833000Y-87667000D01*
X88358750Y-87667000D01*
X88200000Y-87825750D01*
X80710000Y-87825750D01*
X80710000Y-86288690D01*
X88200000Y-86288690D01*
X88200000Y-87254250D01*
X88358750Y-87413000D01*
X89833000Y-87413000D01*
X89833000Y-85938750D01*
X89674250Y-85780000D01*
X88708691Y-85780000D01*
X88475302Y-85876673D01*
X88296673Y-86055301D01*
X88200000Y-86288690D01*
X80710000Y-86288690D01*
X80710000Y-85294090D01*
X83258341Y-82745750D01*
X88200000Y-82745750D01*
X88200000Y-83711310D01*
X88296673Y-83944699D01*
X88475302Y-84123327D01*
X88708691Y-84220000D01*
X89674250Y-84220000D01*
X89833000Y-84061250D01*
X89833000Y-82587000D01*
X90087000Y-82587000D01*
X90087000Y-84061250D01*
X90245750Y-84220000D01*
X90918076Y-84220000D01*
X90740000Y-84649914D01*
X90740000Y-85350086D01*
X90918076Y-85780000D01*
X90245750Y-85780000D01*
X90087000Y-85938750D01*
X90087000Y-87413000D01*
X91561250Y-87413000D01*
X91720000Y-87254250D01*
X91720000Y-86581924D01*
X92149914Y-86760000D01*
X92850086Y-86760000D01*
X93280000Y-86581924D01*
X93280000Y-87254250D01*
X93438750Y-87413000D01*
X94913000Y-87413000D01*
X94913000Y-87393000D01*
X95167000Y-87393000D01*
X95167000Y-87413000D01*
X96641250Y-87413000D01*
X96800000Y-87254250D01*
X96800000Y-86288690D01*
X96703327Y-86055301D01*
X96524698Y-85876673D01*
X96424091Y-85835000D01*
X97154133Y-85835000D01*
X99165000Y-87845868D01*
X99165001Y-98502560D01*
X99150000Y-98502560D01*
X98902235Y-98551843D01*
X98692191Y-98692191D01*
X98551843Y-98902235D01*
X98502560Y-99150000D01*
X98502560Y-100850000D01*
X98551843Y-101097765D01*
X98692191Y-101307809D01*
X98902235Y-101448157D01*
X98947619Y-101457184D01*
X98929375Y-101469375D01*
X98601161Y-101960582D01*
X98485908Y-102540000D01*
X98601161Y-103119418D01*
X98929375Y-103610625D01*
X99248478Y-103823843D01*
X99118642Y-103884817D01*
X98728355Y-104313076D01*
X98558524Y-104723110D01*
X98679845Y-104953000D01*
X99873000Y-104953000D01*
X99873000Y-104933000D01*
X100127000Y-104933000D01*
X100127000Y-104953000D01*
X100147000Y-104953000D01*
X100147000Y-105207000D01*
X100127000Y-105207000D01*
X100127000Y-105227000D01*
X99873000Y-105227000D01*
X99873000Y-105207000D01*
X98679845Y-105207000D01*
X98558524Y-105436890D01*
X98728355Y-105846924D01*
X99118642Y-106275183D01*
X99248478Y-106336157D01*
X98929375Y-106549375D01*
X98601161Y-107040582D01*
X98485908Y-107620000D01*
X98601161Y-108199418D01*
X98929375Y-108690625D01*
X99227761Y-108890000D01*
X98929375Y-109089375D01*
X98601161Y-109580582D01*
X98485908Y-110160000D01*
X98601161Y-110739418D01*
X98929375Y-111230625D01*
X99227761Y-111430000D01*
X98929375Y-111629375D01*
X98601161Y-112120582D01*
X98485908Y-112700000D01*
X98601161Y-113279418D01*
X98929375Y-113770625D01*
X99420582Y-114098839D01*
X99753197Y-114165000D01*
X96424091Y-114165000D01*
X96524698Y-114123327D01*
X96703327Y-113944699D01*
X96800000Y-113711310D01*
X96800000Y-112745750D01*
X96641250Y-112587000D01*
X95167000Y-112587000D01*
X95167000Y-112607000D01*
X94913000Y-112607000D01*
X94913000Y-112587000D01*
X93438750Y-112587000D01*
X93280000Y-112745750D01*
X93280000Y-113418076D01*
X92850086Y-113240000D01*
X92149914Y-113240000D01*
X91720000Y-113418076D01*
X91720000Y-112745750D01*
X91561250Y-112587000D01*
X90087000Y-112587000D01*
X90087000Y-114061250D01*
X90245750Y-114220000D01*
X90918076Y-114220000D01*
X90740000Y-114649914D01*
X90740000Y-115350086D01*
X90918076Y-115780000D01*
X90245750Y-115780000D01*
X90087000Y-115938750D01*
X90087000Y-117413000D01*
X91561250Y-117413000D01*
X91720000Y-117254250D01*
X91720000Y-116581924D01*
X92149914Y-116760000D01*
X92850086Y-116760000D01*
X93280000Y-116581924D01*
X93280000Y-117254250D01*
X93438750Y-117413000D01*
X94913000Y-117413000D01*
X94913000Y-117393000D01*
X95167000Y-117393000D01*
X95167000Y-117413000D01*
X96641250Y-117413000D01*
X96800000Y-117254250D01*
X96800000Y-116288690D01*
X96703327Y-116055301D01*
X96524698Y-115876673D01*
X96424091Y-115835000D01*
X100417767Y-115835000D01*
X100500000Y-115851357D01*
X100582233Y-115835000D01*
X100582237Y-115835000D01*
X100825801Y-115786552D01*
X101102001Y-115602001D01*
X101148587Y-115532280D01*
X102495868Y-114185000D01*
X102686256Y-114185000D01*
X103119418Y-114098839D01*
X103610625Y-113770625D01*
X103938839Y-113279418D01*
X104054092Y-112700000D01*
X103938839Y-112120582D01*
X103610625Y-111629375D01*
X103375000Y-111471935D01*
X103375000Y-111388065D01*
X103610625Y-111230625D01*
X103938839Y-110739418D01*
X104054092Y-110160000D01*
X103938839Y-109580582D01*
X103610625Y-109089375D01*
X103375000Y-108931935D01*
X103375000Y-108848065D01*
X103610625Y-108690625D01*
X103938839Y-108199418D01*
X104054092Y-107620000D01*
X103938839Y-107040582D01*
X103610625Y-106549375D01*
X103312239Y-106350000D01*
X103610625Y-106150625D01*
X103938839Y-105659418D01*
X104054092Y-105080000D01*
X103938839Y-104500582D01*
X103610625Y-104009375D01*
X103312239Y-103810000D01*
X103610625Y-103610625D01*
X103938839Y-103119418D01*
X104054092Y-102540000D01*
X103938839Y-101960582D01*
X103610625Y-101469375D01*
X103312239Y-101270000D01*
X103610625Y-101070625D01*
X103938839Y-100579418D01*
X104054092Y-100000000D01*
X103938839Y-99420582D01*
X103610625Y-98929375D01*
X103119418Y-98601161D01*
X102686256Y-98515000D01*
X102393744Y-98515000D01*
X101960582Y-98601161D01*
X101469375Y-98929375D01*
X101457184Y-98947619D01*
X101448157Y-98902235D01*
X101307809Y-98692191D01*
X101097765Y-98551843D01*
X100850000Y-98502560D01*
X100835000Y-98502560D01*
X100835000Y-87582237D01*
X100851358Y-87500000D01*
X100786552Y-87174199D01*
X100648584Y-86967716D01*
X100602001Y-86897999D01*
X100532283Y-86851415D01*
X98148587Y-84467720D01*
X98102001Y-84397999D01*
X97825801Y-84213448D01*
X97582237Y-84165000D01*
X97582233Y-84165000D01*
X97500000Y-84148643D01*
X97417767Y-84165000D01*
X96424091Y-84165000D01*
X96524698Y-84123327D01*
X96703327Y-83944699D01*
X96800000Y-83711310D01*
X96800000Y-82745750D01*
X96641250Y-82587000D01*
X95167000Y-82587000D01*
X95167000Y-82607000D01*
X94913000Y-82607000D01*
X94913000Y-82587000D01*
X93438750Y-82587000D01*
X93280000Y-82745750D01*
X93280000Y-83418076D01*
X92850086Y-83240000D01*
X92149914Y-83240000D01*
X91720000Y-83418076D01*
X91720000Y-82745750D01*
X91561250Y-82587000D01*
X90087000Y-82587000D01*
X89833000Y-82587000D01*
X88358750Y-82587000D01*
X88200000Y-82745750D01*
X83258341Y-82745750D01*
X85294092Y-80710000D01*
X88684549Y-80710000D01*
X88475302Y-80796673D01*
G04 #@! TD*
M02*
