M48
;DRILL file {KiCad (5.0.0-3-g5ebb6b6)} date Tuesday, July 14, 2020 at 03:02:35 PM
;FORMAT={-:-/ absolute / inch / decimal}
FMAT,2
INCH,TZ
T1C0.0394
T2C0.0492
T3C0.0591
%
G90
G05
M72
T1
X3.937Y-3.937
X3.937Y-4.037
X3.937Y-4.137
X3.937Y-4.237
X3.937Y-4.337
X3.937Y-4.437
X4.037Y-3.937
X4.037Y-4.037
X4.037Y-4.137
X4.037Y-4.237
X4.037Y-4.337
X4.037Y-4.437
T2
X3.6417Y-3.3465
X3.6417Y-4.5276
X3.6417Y-3.937
T3
X3.5417Y-3.2465
X3.5417Y-3.4465
X3.7417Y-3.2465
X3.7417Y-3.4465
X3.5417Y-4.4276
X3.5417Y-4.6276
X3.7417Y-4.4276
X3.7417Y-4.6276
X3.5417Y-3.837
X3.5417Y-4.037
X3.7417Y-3.837
X3.7417Y-4.037
T0
M30
