G04 #@! TF.GenerationSoftware,KiCad,Pcbnew,(5.0.0-3-g5ebb6b6)*
G04 #@! TF.CreationDate,2020-07-14T15:02:59-04:00*
G04 #@! TF.ProjectId,Project,50726F6A6563742E6B696361645F7063,rev?*
G04 #@! TF.SameCoordinates,Original*
G04 #@! TF.FileFunction,Legend,Bot*
G04 #@! TF.FilePolarity,Positive*
%FSLAX46Y46*%
G04 Gerber Fmt 4.6, Leading zero omitted, Abs format (unit mm)*
G04 Created by KiCad (PCBNEW (5.0.0-3-g5ebb6b6)) date Tuesday, July 14, 2020 at 03:02:59 PM*
%MOMM*%
%LPD*%
G01*
G04 APERTURE LIST*
%ADD10C,0.150000*%
%ADD11C,0.200000*%
G04 APERTURE END LIST*
D10*
X98264023Y-113180761D02*
X98121166Y-113228380D01*
X97883071Y-113228380D01*
X97787833Y-113180761D01*
X97740214Y-113133142D01*
X97692595Y-113037904D01*
X97692595Y-112942666D01*
X97740214Y-112847428D01*
X97787833Y-112799809D01*
X97883071Y-112752190D01*
X98073547Y-112704571D01*
X98168785Y-112656952D01*
X98216404Y-112609333D01*
X98264023Y-112514095D01*
X98264023Y-112418857D01*
X98216404Y-112323619D01*
X98168785Y-112276000D01*
X98073547Y-112228380D01*
X97835452Y-112228380D01*
X97692595Y-112276000D01*
X96740214Y-112276000D02*
X96835452Y-112228380D01*
X96978309Y-112228380D01*
X97121166Y-112276000D01*
X97216404Y-112371238D01*
X97264023Y-112466476D01*
X97311642Y-112656952D01*
X97311642Y-112799809D01*
X97264023Y-112990285D01*
X97216404Y-113085523D01*
X97121166Y-113180761D01*
X96978309Y-113228380D01*
X96883071Y-113228380D01*
X96740214Y-113180761D01*
X96692595Y-113133142D01*
X96692595Y-112799809D01*
X96883071Y-112799809D01*
D11*
X99000000Y-95000000D02*
X99500000Y-95000000D01*
X101500000Y-96500000D02*
X100500000Y-95500000D01*
X94000000Y-95000000D02*
X99000000Y-95000000D01*
D10*
X103404761Y-114562000D02*
X103500000Y-114514380D01*
X103642857Y-114514380D01*
X103785714Y-114562000D01*
X103880952Y-114657238D01*
X103928571Y-114752476D01*
X103976190Y-114942952D01*
X103976190Y-115085809D01*
X103928571Y-115276285D01*
X103880952Y-115371523D01*
X103785714Y-115466761D01*
X103642857Y-115514380D01*
X103547619Y-115514380D01*
X103404761Y-115466761D01*
X103357142Y-115419142D01*
X103357142Y-115085809D01*
X103547619Y-115085809D01*
X102500000Y-115514380D02*
X102500000Y-114990571D01*
X102547619Y-114895333D01*
X102642857Y-114847714D01*
X102833333Y-114847714D01*
X102928571Y-114895333D01*
X102500000Y-115466761D02*
X102595238Y-115514380D01*
X102833333Y-115514380D01*
X102928571Y-115466761D01*
X102976190Y-115371523D01*
X102976190Y-115276285D01*
X102928571Y-115181047D01*
X102833333Y-115133428D01*
X102595238Y-115133428D01*
X102500000Y-115085809D01*
X102166666Y-114847714D02*
X101785714Y-114847714D01*
X102023809Y-114514380D02*
X102023809Y-115371523D01*
X101976190Y-115466761D01*
X101880952Y-115514380D01*
X101785714Y-115514380D01*
X101071428Y-115466761D02*
X101166666Y-115514380D01*
X101357142Y-115514380D01*
X101452380Y-115466761D01*
X101500000Y-115371523D01*
X101500000Y-114990571D01*
X101452380Y-114895333D01*
X101357142Y-114847714D01*
X101166666Y-114847714D01*
X101071428Y-114895333D01*
X101023809Y-114990571D01*
X101023809Y-115085809D01*
X101500000Y-115181047D01*
X103738095Y-97904761D02*
X103595238Y-97952380D01*
X103357142Y-97952380D01*
X103261904Y-97904761D01*
X103214285Y-97857142D01*
X103166666Y-97761904D01*
X103166666Y-97666666D01*
X103214285Y-97571428D01*
X103261904Y-97523809D01*
X103357142Y-97476190D01*
X103547619Y-97428571D01*
X103642857Y-97380952D01*
X103690476Y-97333333D01*
X103738095Y-97238095D01*
X103738095Y-97142857D01*
X103690476Y-97047619D01*
X103642857Y-97000000D01*
X103547619Y-96952380D01*
X103309523Y-96952380D01*
X103166666Y-97000000D01*
X102785714Y-97904761D02*
X102642857Y-97952380D01*
X102404761Y-97952380D01*
X102309523Y-97904761D01*
X102261904Y-97857142D01*
X102214285Y-97761904D01*
X102214285Y-97666666D01*
X102261904Y-97571428D01*
X102309523Y-97523809D01*
X102404761Y-97476190D01*
X102595238Y-97428571D01*
X102690476Y-97380952D01*
X102738095Y-97333333D01*
X102785714Y-97238095D01*
X102785714Y-97142857D01*
X102738095Y-97047619D01*
X102690476Y-97000000D01*
X102595238Y-96952380D01*
X102357142Y-96952380D01*
X102214285Y-97000000D01*
X101261904Y-97952380D02*
X101833333Y-97952380D01*
X101547619Y-97952380D02*
X101547619Y-96952380D01*
X101642857Y-97095238D01*
X101738095Y-97190476D01*
X101833333Y-97238095D01*
X98216404Y-100528380D02*
X98216404Y-99528380D01*
X97978309Y-99528380D01*
X97835452Y-99576000D01*
X97740214Y-99671238D01*
X97692595Y-99766476D01*
X97644976Y-99956952D01*
X97644976Y-100099809D01*
X97692595Y-100290285D01*
X97740214Y-100385523D01*
X97835452Y-100480761D01*
X97978309Y-100528380D01*
X98216404Y-100528380D01*
X97216404Y-100528380D02*
X97216404Y-99528380D01*
X96978309Y-99528380D01*
X96835452Y-99576000D01*
X96740214Y-99671238D01*
X96692595Y-99766476D01*
X96644976Y-99956952D01*
X96644976Y-100099809D01*
X96692595Y-100290285D01*
X96740214Y-100385523D01*
X96835452Y-100480761D01*
X96978309Y-100528380D01*
X97216404Y-100528380D01*
X95692595Y-100528380D02*
X96264023Y-100528380D01*
X95978309Y-100528380D02*
X95978309Y-99528380D01*
X96073547Y-99671238D01*
X96168785Y-99766476D01*
X96264023Y-99814095D01*
X97740214Y-110434380D02*
X98216404Y-110434380D01*
X98216404Y-109434380D01*
X96883071Y-109482000D02*
X96978309Y-109434380D01*
X97121166Y-109434380D01*
X97264023Y-109482000D01*
X97359261Y-109577238D01*
X97406880Y-109672476D01*
X97454500Y-109862952D01*
X97454500Y-110005809D01*
X97406880Y-110196285D01*
X97359261Y-110291523D01*
X97264023Y-110386761D01*
X97121166Y-110434380D01*
X97025928Y-110434380D01*
X96883071Y-110386761D01*
X96835452Y-110339142D01*
X96835452Y-110005809D01*
X97025928Y-110005809D01*
X97883071Y-107624571D02*
X97740214Y-107672190D01*
X97692595Y-107719809D01*
X97644976Y-107815047D01*
X97644976Y-107957904D01*
X97692595Y-108053142D01*
X97740214Y-108100761D01*
X97835452Y-108148380D01*
X98216404Y-108148380D01*
X98216404Y-107148380D01*
X97883071Y-107148380D01*
X97787833Y-107196000D01*
X97740214Y-107243619D01*
X97692595Y-107338857D01*
X97692595Y-107434095D01*
X97740214Y-107529333D01*
X97787833Y-107576952D01*
X97883071Y-107624571D01*
X98216404Y-107624571D01*
X96692595Y-107196000D02*
X96787833Y-107148380D01*
X96930690Y-107148380D01*
X97073547Y-107196000D01*
X97168785Y-107291238D01*
X97216404Y-107386476D01*
X97264023Y-107576952D01*
X97264023Y-107719809D01*
X97216404Y-107910285D01*
X97168785Y-108005523D01*
X97073547Y-108100761D01*
X96930690Y-108148380D01*
X96835452Y-108148380D01*
X96692595Y-108100761D01*
X96644976Y-108053142D01*
X96644976Y-107719809D01*
X96835452Y-107719809D01*
X97692595Y-104656000D02*
X97787833Y-104608380D01*
X97930690Y-104608380D01*
X98073547Y-104656000D01*
X98168785Y-104751238D01*
X98216404Y-104846476D01*
X98264023Y-105036952D01*
X98264023Y-105179809D01*
X98216404Y-105370285D01*
X98168785Y-105465523D01*
X98073547Y-105560761D01*
X97930690Y-105608380D01*
X97835452Y-105608380D01*
X97692595Y-105560761D01*
X97644976Y-105513142D01*
X97644976Y-105179809D01*
X97835452Y-105179809D01*
X97216404Y-105608380D02*
X97216404Y-104608380D01*
X96644976Y-105608380D01*
X96644976Y-104608380D01*
X96168785Y-105608380D02*
X96168785Y-104608380D01*
X95930690Y-104608380D01*
X95787833Y-104656000D01*
X95692595Y-104751238D01*
X95644976Y-104846476D01*
X95597357Y-105036952D01*
X95597357Y-105179809D01*
X95644976Y-105370285D01*
X95692595Y-105465523D01*
X95787833Y-105560761D01*
X95930690Y-105608380D01*
X96168785Y-105608380D01*
D11*
X100500000Y-115000000D02*
X101500000Y-114000000D01*
X100000000Y-115000000D02*
X100500000Y-115000000D01*
X94500000Y-115000000D02*
X100000000Y-115000000D01*
X95000000Y-85000000D02*
X94500000Y-85000000D01*
X92500000Y-96500000D02*
X92500000Y-98000000D01*
X94000000Y-95000000D02*
X92500000Y-96500000D01*
X97500000Y-85000000D02*
X95000000Y-85000000D01*
X100000000Y-87500000D02*
X97500000Y-85000000D01*
X100000000Y-98000000D02*
X100000000Y-87500000D01*
M02*
