G04 #@! TF.GenerationSoftware,KiCad,Pcbnew,(5.0.0-3-g5ebb6b6)*
G04 #@! TF.CreationDate,2020-02-18T17:20:26-05:00*
G04 #@! TF.ProjectId,Project,50726F6A6563742E6B696361645F7063,rev?*
G04 #@! TF.SameCoordinates,Original*
G04 #@! TF.FileFunction,Legend,Top*
G04 #@! TF.FilePolarity,Positive*
%FSLAX46Y46*%
G04 Gerber Fmt 4.6, Leading zero omitted, Abs format (unit mm)*
G04 Created by KiCad (PCBNEW (5.0.0-3-g5ebb6b6)) date Tuesday, February 18, 2020 at 05:20:26 PM*
%MOMM*%
%LPD*%
G01*
G04 APERTURE LIST*
%ADD10C,0.150000*%
%ADD11C,0.120000*%
G04 APERTURE END LIST*
D10*
X105000000Y-100500000D02*
X104750000Y-100750000D01*
X105250000Y-100750000D02*
X105000000Y-100500000D01*
X104750000Y-100750000D02*
X105250000Y-100750000D01*
X111802380Y-108880952D02*
X112516666Y-108880952D01*
X112659523Y-108928571D01*
X112754761Y-109023809D01*
X112802380Y-109166666D01*
X112802380Y-109261904D01*
X112802380Y-107976190D02*
X112278571Y-107976190D01*
X112183333Y-108023809D01*
X112135714Y-108119047D01*
X112135714Y-108309523D01*
X112183333Y-108404761D01*
X112754761Y-107976190D02*
X112802380Y-108071428D01*
X112802380Y-108309523D01*
X112754761Y-108404761D01*
X112659523Y-108452380D01*
X112564285Y-108452380D01*
X112469047Y-108404761D01*
X112421428Y-108309523D01*
X112421428Y-108071428D01*
X112373809Y-107976190D01*
X112135714Y-107595238D02*
X112802380Y-107357142D01*
X112135714Y-107119047D02*
X112802380Y-107357142D01*
X113040476Y-107452380D01*
X113088095Y-107500000D01*
X113135714Y-107595238D01*
X112802380Y-105976190D02*
X111802380Y-105976190D01*
X111802380Y-105738095D01*
X111850000Y-105595238D01*
X111945238Y-105500000D01*
X112040476Y-105452380D01*
X112230952Y-105404761D01*
X112373809Y-105404761D01*
X112564285Y-105452380D01*
X112659523Y-105500000D01*
X112754761Y-105595238D01*
X112802380Y-105738095D01*
X112802380Y-105976190D01*
X112802380Y-104833333D02*
X112754761Y-104928571D01*
X112707142Y-104976190D01*
X112611904Y-105023809D01*
X112326190Y-105023809D01*
X112230952Y-104976190D01*
X112183333Y-104928571D01*
X112135714Y-104833333D01*
X112135714Y-104690476D01*
X112183333Y-104595238D01*
X112230952Y-104547619D01*
X112326190Y-104500000D01*
X112611904Y-104500000D01*
X112707142Y-104547619D01*
X112754761Y-104595238D01*
X112802380Y-104690476D01*
X112802380Y-104833333D01*
X112802380Y-104071428D02*
X111802380Y-104071428D01*
X112802380Y-103642857D02*
X112278571Y-103642857D01*
X112183333Y-103690476D01*
X112135714Y-103785714D01*
X112135714Y-103928571D01*
X112183333Y-104023809D01*
X112230952Y-104071428D01*
X112754761Y-102785714D02*
X112802380Y-102880952D01*
X112802380Y-103071428D01*
X112754761Y-103166666D01*
X112659523Y-103214285D01*
X112278571Y-103214285D01*
X112183333Y-103166666D01*
X112135714Y-103071428D01*
X112135714Y-102880952D01*
X112183333Y-102785714D01*
X112278571Y-102738095D01*
X112373809Y-102738095D01*
X112469047Y-103214285D01*
X112802380Y-102309523D02*
X112135714Y-102309523D01*
X112326190Y-102309523D02*
X112230952Y-102261904D01*
X112183333Y-102214285D01*
X112135714Y-102119047D01*
X112135714Y-102023809D01*
X112135714Y-101833333D02*
X112135714Y-101452380D01*
X111802380Y-101690476D02*
X112659523Y-101690476D01*
X112754761Y-101642857D01*
X112802380Y-101547619D01*
X112802380Y-101452380D01*
X112135714Y-101214285D02*
X112802380Y-100976190D01*
X112135714Y-100738095D02*
X112802380Y-100976190D01*
X113040476Y-101071428D01*
X113088095Y-101119047D01*
X113135714Y-101214285D01*
X113928571Y-109119047D02*
X113928571Y-109452380D01*
X114452380Y-109452380D02*
X113452380Y-109452380D01*
X113452380Y-108976190D01*
X114452380Y-108595238D02*
X113785714Y-108595238D01*
X113976190Y-108595238D02*
X113880952Y-108547619D01*
X113833333Y-108500000D01*
X113785714Y-108404761D01*
X113785714Y-108309523D01*
X114452380Y-107547619D02*
X113928571Y-107547619D01*
X113833333Y-107595238D01*
X113785714Y-107690476D01*
X113785714Y-107880952D01*
X113833333Y-107976190D01*
X114404761Y-107547619D02*
X114452380Y-107642857D01*
X114452380Y-107880952D01*
X114404761Y-107976190D01*
X114309523Y-108023809D01*
X114214285Y-108023809D01*
X114119047Y-107976190D01*
X114071428Y-107880952D01*
X114071428Y-107642857D01*
X114023809Y-107547619D01*
X113785714Y-107071428D02*
X114452380Y-107071428D01*
X113880952Y-107071428D02*
X113833333Y-107023809D01*
X113785714Y-106928571D01*
X113785714Y-106785714D01*
X113833333Y-106690476D01*
X113928571Y-106642857D01*
X114452380Y-106642857D01*
X114452380Y-106166666D02*
X113452380Y-106166666D01*
X114071428Y-106071428D02*
X114452380Y-105785714D01*
X113785714Y-105785714D02*
X114166666Y-106166666D01*
X114452380Y-105214285D02*
X114404761Y-105309523D01*
X114309523Y-105357142D01*
X113452380Y-105357142D01*
X114452380Y-104833333D02*
X113785714Y-104833333D01*
X113452380Y-104833333D02*
X113500000Y-104880952D01*
X113547619Y-104833333D01*
X113500000Y-104785714D01*
X113452380Y-104833333D01*
X113547619Y-104833333D01*
X113785714Y-104357142D02*
X114452380Y-104357142D01*
X113880952Y-104357142D02*
X113833333Y-104309523D01*
X113785714Y-104214285D01*
X113785714Y-104071428D01*
X113833333Y-103976190D01*
X113928571Y-103928571D01*
X114452380Y-103928571D01*
X114452380Y-102214285D02*
X114452380Y-102690476D01*
X113452380Y-102690476D01*
X114452380Y-101452380D02*
X113928571Y-101452380D01*
X113833333Y-101500000D01*
X113785714Y-101595238D01*
X113785714Y-101785714D01*
X113833333Y-101880952D01*
X114404761Y-101452380D02*
X114452380Y-101547619D01*
X114452380Y-101785714D01*
X114404761Y-101880952D01*
X114309523Y-101928571D01*
X114214285Y-101928571D01*
X114119047Y-101880952D01*
X114071428Y-101785714D01*
X114071428Y-101547619D01*
X114023809Y-101452380D01*
X114452380Y-100976190D02*
X113452380Y-100976190D01*
X113833333Y-100976190D02*
X113785714Y-100880952D01*
X113785714Y-100690476D01*
X113833333Y-100595238D01*
X113880952Y-100547619D01*
X113976190Y-100500000D01*
X114261904Y-100500000D01*
X114357142Y-100547619D01*
X114404761Y-100595238D01*
X114452380Y-100690476D01*
X114452380Y-100880952D01*
X114404761Y-100976190D01*
X116102380Y-108571428D02*
X116102380Y-109047619D01*
X115102380Y-109047619D01*
X116102380Y-107809523D02*
X115578571Y-107809523D01*
X115483333Y-107857142D01*
X115435714Y-107952380D01*
X115435714Y-108142857D01*
X115483333Y-108238095D01*
X116054761Y-107809523D02*
X116102380Y-107904761D01*
X116102380Y-108142857D01*
X116054761Y-108238095D01*
X115959523Y-108285714D01*
X115864285Y-108285714D01*
X115769047Y-108238095D01*
X115721428Y-108142857D01*
X115721428Y-107904761D01*
X115673809Y-107809523D01*
X115435714Y-107428571D02*
X116102380Y-107190476D01*
X115435714Y-106952380D02*
X116102380Y-107190476D01*
X116340476Y-107285714D01*
X116388095Y-107333333D01*
X116435714Y-107428571D01*
X116102380Y-106428571D02*
X116054761Y-106523809D01*
X116007142Y-106571428D01*
X115911904Y-106619047D01*
X115626190Y-106619047D01*
X115530952Y-106571428D01*
X115483333Y-106523809D01*
X115435714Y-106428571D01*
X115435714Y-106285714D01*
X115483333Y-106190476D01*
X115530952Y-106142857D01*
X115626190Y-106095238D01*
X115911904Y-106095238D01*
X116007142Y-106142857D01*
X116054761Y-106190476D01*
X116102380Y-106285714D01*
X116102380Y-106428571D01*
X115435714Y-105238095D02*
X116102380Y-105238095D01*
X115435714Y-105666666D02*
X115959523Y-105666666D01*
X116054761Y-105619047D01*
X116102380Y-105523809D01*
X116102380Y-105380952D01*
X116054761Y-105285714D01*
X116007142Y-105238095D01*
X115435714Y-104904761D02*
X115435714Y-104523809D01*
X115102380Y-104761904D02*
X115959523Y-104761904D01*
X116054761Y-104714285D01*
X116102380Y-104619047D01*
X116102380Y-104523809D01*
X116007142Y-102857142D02*
X116054761Y-102904761D01*
X116102380Y-103047619D01*
X116102380Y-103142857D01*
X116054761Y-103285714D01*
X115959523Y-103380952D01*
X115864285Y-103428571D01*
X115673809Y-103476190D01*
X115530952Y-103476190D01*
X115340476Y-103428571D01*
X115245238Y-103380952D01*
X115150000Y-103285714D01*
X115102380Y-103142857D01*
X115102380Y-103047619D01*
X115150000Y-102904761D01*
X115197619Y-102857142D01*
X115150000Y-101904761D02*
X115102380Y-102000000D01*
X115102380Y-102142857D01*
X115150000Y-102285714D01*
X115245238Y-102380952D01*
X115340476Y-102428571D01*
X115530952Y-102476190D01*
X115673809Y-102476190D01*
X115864285Y-102428571D01*
X115959523Y-102380952D01*
X116054761Y-102285714D01*
X116102380Y-102142857D01*
X116102380Y-102047619D01*
X116054761Y-101904761D01*
X116007142Y-101857142D01*
X115673809Y-101857142D01*
X115673809Y-102047619D01*
X116102380Y-100904761D02*
X116102380Y-101476190D01*
X116102380Y-101190476D02*
X115102380Y-101190476D01*
X115245238Y-101285714D01*
X115340476Y-101380952D01*
X115388095Y-101476190D01*
X99409523Y-111942857D02*
X99523809Y-111980952D01*
X99561904Y-112019047D01*
X99600000Y-112095238D01*
X99600000Y-112209523D01*
X99561904Y-112285714D01*
X99523809Y-112323809D01*
X99447619Y-112361904D01*
X99142857Y-112361904D01*
X99142857Y-111561904D01*
X99409523Y-111561904D01*
X99485714Y-111600000D01*
X99523809Y-111638095D01*
X99561904Y-111714285D01*
X99561904Y-111790476D01*
X99523809Y-111866666D01*
X99485714Y-111904761D01*
X99409523Y-111942857D01*
X99142857Y-111942857D01*
X99904761Y-112133333D02*
X100285714Y-112133333D01*
X99828571Y-112361904D02*
X100095238Y-111561904D01*
X100361904Y-112361904D01*
X100514285Y-111561904D02*
X100971428Y-111561904D01*
X100742857Y-112361904D02*
X100742857Y-111561904D01*
X98876309Y-98285714D02*
X98838214Y-98323809D01*
X98723928Y-98361904D01*
X98647738Y-98361904D01*
X98533452Y-98323809D01*
X98457261Y-98247619D01*
X98419166Y-98171428D01*
X98381071Y-98019047D01*
X98381071Y-97904761D01*
X98419166Y-97752380D01*
X98457261Y-97676190D01*
X98533452Y-97600000D01*
X98647738Y-97561904D01*
X98723928Y-97561904D01*
X98838214Y-97600000D01*
X98876309Y-97638095D01*
X99219166Y-98361904D02*
X99219166Y-97561904D01*
X99219166Y-97942857D02*
X99676309Y-97942857D01*
X99676309Y-98361904D02*
X99676309Y-97561904D01*
X100019166Y-98133333D02*
X100400119Y-98133333D01*
X99942976Y-98361904D02*
X100209642Y-97561904D01*
X100476309Y-98361904D01*
X101200119Y-98361904D02*
X100933452Y-97980952D01*
X100742976Y-98361904D02*
X100742976Y-97561904D01*
X101047738Y-97561904D01*
X101123928Y-97600000D01*
X101162023Y-97638095D01*
X101200119Y-97714285D01*
X101200119Y-97828571D01*
X101162023Y-97904761D01*
X101123928Y-97942857D01*
X101047738Y-97980952D01*
X100742976Y-97980952D01*
X101962023Y-97600000D02*
X101885833Y-97561904D01*
X101771547Y-97561904D01*
X101657261Y-97600000D01*
X101581071Y-97676190D01*
X101542976Y-97752380D01*
X101504880Y-97904761D01*
X101504880Y-98019047D01*
X101542976Y-98171428D01*
X101581071Y-98247619D01*
X101657261Y-98323809D01*
X101771547Y-98361904D01*
X101847738Y-98361904D01*
X101962023Y-98323809D01*
X102000119Y-98285714D01*
X102000119Y-98019047D01*
X101847738Y-98019047D01*
X99866785Y-96361904D02*
X99866785Y-95561904D01*
X100057261Y-95561904D01*
X100171547Y-95600000D01*
X100247738Y-95676190D01*
X100285833Y-95752380D01*
X100323928Y-95904761D01*
X100323928Y-96019047D01*
X100285833Y-96171428D01*
X100247738Y-96247619D01*
X100171547Y-96323809D01*
X100057261Y-96361904D01*
X99866785Y-96361904D01*
X100819166Y-95561904D02*
X100971547Y-95561904D01*
X101047738Y-95600000D01*
X101123928Y-95676190D01*
X101162023Y-95828571D01*
X101162023Y-96095238D01*
X101123928Y-96247619D01*
X101047738Y-96323809D01*
X100971547Y-96361904D01*
X100819166Y-96361904D01*
X100742976Y-96323809D01*
X100666785Y-96247619D01*
X100628690Y-96095238D01*
X100628690Y-95828571D01*
X100666785Y-95676190D01*
X100742976Y-95600000D01*
X100819166Y-95561904D01*
X101504880Y-96361904D02*
X101504880Y-95561904D01*
X101962023Y-96361904D01*
X101962023Y-95561904D01*
G04 #@! TO.C,JSTPH1*
X108250000Y-110000000D02*
X110000000Y-110000000D01*
X108250000Y-109000000D02*
X108250000Y-110000000D01*
X103750000Y-110000000D02*
X102000000Y-110000000D01*
X103750000Y-109000000D02*
X103750000Y-110000000D01*
X103000000Y-107000000D02*
X102000000Y-107000000D01*
X110000000Y-107000000D02*
X109000000Y-107000000D01*
X101500000Y-115000000D02*
X102000000Y-115000000D01*
X101500000Y-111500000D02*
X101500000Y-115000000D01*
X102000000Y-111500000D02*
X101500000Y-111500000D01*
X110500000Y-115000000D02*
X110000000Y-115000000D01*
X110500000Y-111500000D02*
X110500000Y-115000000D01*
X110000000Y-111500000D02*
X110500000Y-111500000D01*
X103000000Y-107000000D02*
X103000000Y-109000000D01*
X102000000Y-107000000D02*
X102000000Y-109000000D01*
X109000000Y-107000000D02*
X109000000Y-109000000D01*
X110000000Y-109000000D02*
X110000000Y-107000000D01*
X104000000Y-111000000D02*
X108000000Y-111000000D01*
X102000000Y-109000000D02*
X102000000Y-111500000D01*
X110000000Y-109000000D02*
X110000000Y-111500000D01*
X108000000Y-111000000D02*
X108000000Y-115000000D01*
X104000000Y-115000000D02*
X104000000Y-111000000D01*
X107500000Y-113000000D02*
X107500000Y-115000000D01*
X106500000Y-113000000D02*
X107500000Y-113000000D01*
X106500000Y-115000000D02*
X106500000Y-113000000D01*
X105500000Y-113000000D02*
X105500000Y-115000000D01*
X104500000Y-113000000D02*
X105500000Y-113000000D01*
X104500000Y-115000000D02*
X104500000Y-113000000D01*
X108000000Y-106750000D02*
X108500000Y-106750000D01*
X103750000Y-106500000D02*
X103750000Y-107000000D01*
X103500000Y-106750000D02*
X104000000Y-106750000D01*
X102000000Y-109000000D02*
X110000000Y-109000000D01*
X106000000Y-115000000D02*
X110000000Y-115000000D01*
X106000000Y-115000000D02*
X102000000Y-115000000D01*
D11*
G04 #@! TO.C,C1*
X102490000Y-100950279D02*
X102490000Y-100624721D01*
X103510000Y-100950279D02*
X103510000Y-100624721D01*
G04 #@! TO.C,C2*
X103510000Y-104412779D02*
X103510000Y-104087221D01*
X102490000Y-104412779D02*
X102490000Y-104087221D01*
G04 #@! TO.C,CGU1*
X108900000Y-99390000D02*
X107100000Y-99390000D01*
X107100000Y-102610000D02*
X109550000Y-102610000D01*
G04 #@! TO.C,D2*
X105235000Y-97265000D02*
X102950000Y-97265000D01*
X105235000Y-98735000D02*
X105235000Y-97265000D01*
X102950000Y-98735000D02*
X105235000Y-98735000D01*
G04 #@! TO.C,J1*
X98670000Y-110200000D02*
X101330000Y-110200000D01*
X98670000Y-102520000D02*
X98670000Y-110200000D01*
X101330000Y-102520000D02*
X101330000Y-110200000D01*
X98670000Y-102520000D02*
X101330000Y-102520000D01*
X98670000Y-101250000D02*
X98670000Y-99920000D01*
X98670000Y-99920000D02*
X100000000Y-99920000D01*
G04 #@! TO.C,R2*
X107412779Y-98510000D02*
X107087221Y-98510000D01*
X107412779Y-97490000D02*
X107087221Y-97490000D01*
G04 #@! TO.C,R3*
X107412779Y-95490000D02*
X107087221Y-95490000D01*
X107412779Y-96510000D02*
X107087221Y-96510000D01*
G04 #@! TO.C,RREF1*
X108162779Y-104260000D02*
X107837221Y-104260000D01*
X108162779Y-103240000D02*
X107837221Y-103240000D01*
G04 #@! TO.C,D1*
X104265000Y-101015000D02*
X104265000Y-103300000D01*
X105735000Y-101015000D02*
X104265000Y-101015000D01*
X105735000Y-103300000D02*
X105735000Y-101015000D01*
G04 #@! TO.C,D3*
X104550000Y-95265000D02*
X102265000Y-95265000D01*
X102265000Y-95265000D02*
X102265000Y-96735000D01*
X102265000Y-96735000D02*
X104550000Y-96735000D01*
G04 #@! TD*
M02*
