G04 #@! TF.GenerationSoftware,KiCad,Pcbnew,(5.0.0-3-g5ebb6b6)*
G04 #@! TF.CreationDate,2020-02-18T17:20:26-05:00*
G04 #@! TF.ProjectId,Project,50726F6A6563742E6B696361645F7063,rev?*
G04 #@! TF.SameCoordinates,Original*
G04 #@! TF.FileFunction,Soldermask,Top*
G04 #@! TF.FilePolarity,Negative*
%FSLAX46Y46*%
G04 Gerber Fmt 4.6, Leading zero omitted, Abs format (unit mm)*
G04 Created by KiCad (PCBNEW (5.0.0-3-g5ebb6b6)) date Tuesday, February 18, 2020 at 05:20:26 PM*
%MOMM*%
%LPD*%
G01*
G04 APERTURE LIST*
%ADD10R,1.900000X3.400000*%
%ADD11R,1.400000X3.200000*%
%ADD12C,0.100000*%
%ADD13C,1.275000*%
%ADD14R,1.460000X1.050000*%
%ADD15R,2.100000X2.100000*%
%ADD16O,2.100000X2.100000*%
%ADD17C,3.600000*%
G04 APERTURE END LIST*
D10*
G04 #@! TO.C,JSTPH1*
X109250000Y-113250000D03*
X102750000Y-113250000D03*
D11*
X107000000Y-107500000D03*
X105000000Y-107500000D03*
G04 #@! TD*
D12*
G04 #@! TO.C,C1*
G36*
X103387493Y-100939035D02*
X103418435Y-100943625D01*
X103448778Y-100951225D01*
X103478230Y-100961763D01*
X103506508Y-100975138D01*
X103533338Y-100991219D01*
X103558463Y-101009853D01*
X103581640Y-101030860D01*
X103602647Y-101054037D01*
X103621281Y-101079162D01*
X103637362Y-101105992D01*
X103650737Y-101134270D01*
X103661275Y-101163722D01*
X103668875Y-101194065D01*
X103673465Y-101225007D01*
X103675000Y-101256250D01*
X103675000Y-101893750D01*
X103673465Y-101924993D01*
X103668875Y-101955935D01*
X103661275Y-101986278D01*
X103650737Y-102015730D01*
X103637362Y-102044008D01*
X103621281Y-102070838D01*
X103602647Y-102095963D01*
X103581640Y-102119140D01*
X103558463Y-102140147D01*
X103533338Y-102158781D01*
X103506508Y-102174862D01*
X103478230Y-102188237D01*
X103448778Y-102198775D01*
X103418435Y-102206375D01*
X103387493Y-102210965D01*
X103356250Y-102212500D01*
X102643750Y-102212500D01*
X102612507Y-102210965D01*
X102581565Y-102206375D01*
X102551222Y-102198775D01*
X102521770Y-102188237D01*
X102493492Y-102174862D01*
X102466662Y-102158781D01*
X102441537Y-102140147D01*
X102418360Y-102119140D01*
X102397353Y-102095963D01*
X102378719Y-102070838D01*
X102362638Y-102044008D01*
X102349263Y-102015730D01*
X102338725Y-101986278D01*
X102331125Y-101955935D01*
X102326535Y-101924993D01*
X102325000Y-101893750D01*
X102325000Y-101256250D01*
X102326535Y-101225007D01*
X102331125Y-101194065D01*
X102338725Y-101163722D01*
X102349263Y-101134270D01*
X102362638Y-101105992D01*
X102378719Y-101079162D01*
X102397353Y-101054037D01*
X102418360Y-101030860D01*
X102441537Y-101009853D01*
X102466662Y-100991219D01*
X102493492Y-100975138D01*
X102521770Y-100961763D01*
X102551222Y-100951225D01*
X102581565Y-100943625D01*
X102612507Y-100939035D01*
X102643750Y-100937500D01*
X103356250Y-100937500D01*
X103387493Y-100939035D01*
X103387493Y-100939035D01*
G37*
D13*
X103000000Y-101575000D03*
D12*
G36*
X103387493Y-99364035D02*
X103418435Y-99368625D01*
X103448778Y-99376225D01*
X103478230Y-99386763D01*
X103506508Y-99400138D01*
X103533338Y-99416219D01*
X103558463Y-99434853D01*
X103581640Y-99455860D01*
X103602647Y-99479037D01*
X103621281Y-99504162D01*
X103637362Y-99530992D01*
X103650737Y-99559270D01*
X103661275Y-99588722D01*
X103668875Y-99619065D01*
X103673465Y-99650007D01*
X103675000Y-99681250D01*
X103675000Y-100318750D01*
X103673465Y-100349993D01*
X103668875Y-100380935D01*
X103661275Y-100411278D01*
X103650737Y-100440730D01*
X103637362Y-100469008D01*
X103621281Y-100495838D01*
X103602647Y-100520963D01*
X103581640Y-100544140D01*
X103558463Y-100565147D01*
X103533338Y-100583781D01*
X103506508Y-100599862D01*
X103478230Y-100613237D01*
X103448778Y-100623775D01*
X103418435Y-100631375D01*
X103387493Y-100635965D01*
X103356250Y-100637500D01*
X102643750Y-100637500D01*
X102612507Y-100635965D01*
X102581565Y-100631375D01*
X102551222Y-100623775D01*
X102521770Y-100613237D01*
X102493492Y-100599862D01*
X102466662Y-100583781D01*
X102441537Y-100565147D01*
X102418360Y-100544140D01*
X102397353Y-100520963D01*
X102378719Y-100495838D01*
X102362638Y-100469008D01*
X102349263Y-100440730D01*
X102338725Y-100411278D01*
X102331125Y-100380935D01*
X102326535Y-100349993D01*
X102325000Y-100318750D01*
X102325000Y-99681250D01*
X102326535Y-99650007D01*
X102331125Y-99619065D01*
X102338725Y-99588722D01*
X102349263Y-99559270D01*
X102362638Y-99530992D01*
X102378719Y-99504162D01*
X102397353Y-99479037D01*
X102418360Y-99455860D01*
X102441537Y-99434853D01*
X102466662Y-99416219D01*
X102493492Y-99400138D01*
X102521770Y-99386763D01*
X102551222Y-99376225D01*
X102581565Y-99368625D01*
X102612507Y-99364035D01*
X102643750Y-99362500D01*
X103356250Y-99362500D01*
X103387493Y-99364035D01*
X103387493Y-99364035D01*
G37*
D13*
X103000000Y-100000000D03*
G04 #@! TD*
D12*
G04 #@! TO.C,C2*
G36*
X103387493Y-102826535D02*
X103418435Y-102831125D01*
X103448778Y-102838725D01*
X103478230Y-102849263D01*
X103506508Y-102862638D01*
X103533338Y-102878719D01*
X103558463Y-102897353D01*
X103581640Y-102918360D01*
X103602647Y-102941537D01*
X103621281Y-102966662D01*
X103637362Y-102993492D01*
X103650737Y-103021770D01*
X103661275Y-103051222D01*
X103668875Y-103081565D01*
X103673465Y-103112507D01*
X103675000Y-103143750D01*
X103675000Y-103781250D01*
X103673465Y-103812493D01*
X103668875Y-103843435D01*
X103661275Y-103873778D01*
X103650737Y-103903230D01*
X103637362Y-103931508D01*
X103621281Y-103958338D01*
X103602647Y-103983463D01*
X103581640Y-104006640D01*
X103558463Y-104027647D01*
X103533338Y-104046281D01*
X103506508Y-104062362D01*
X103478230Y-104075737D01*
X103448778Y-104086275D01*
X103418435Y-104093875D01*
X103387493Y-104098465D01*
X103356250Y-104100000D01*
X102643750Y-104100000D01*
X102612507Y-104098465D01*
X102581565Y-104093875D01*
X102551222Y-104086275D01*
X102521770Y-104075737D01*
X102493492Y-104062362D01*
X102466662Y-104046281D01*
X102441537Y-104027647D01*
X102418360Y-104006640D01*
X102397353Y-103983463D01*
X102378719Y-103958338D01*
X102362638Y-103931508D01*
X102349263Y-103903230D01*
X102338725Y-103873778D01*
X102331125Y-103843435D01*
X102326535Y-103812493D01*
X102325000Y-103781250D01*
X102325000Y-103143750D01*
X102326535Y-103112507D01*
X102331125Y-103081565D01*
X102338725Y-103051222D01*
X102349263Y-103021770D01*
X102362638Y-102993492D01*
X102378719Y-102966662D01*
X102397353Y-102941537D01*
X102418360Y-102918360D01*
X102441537Y-102897353D01*
X102466662Y-102878719D01*
X102493492Y-102862638D01*
X102521770Y-102849263D01*
X102551222Y-102838725D01*
X102581565Y-102831125D01*
X102612507Y-102826535D01*
X102643750Y-102825000D01*
X103356250Y-102825000D01*
X103387493Y-102826535D01*
X103387493Y-102826535D01*
G37*
D13*
X103000000Y-103462500D03*
D12*
G36*
X103387493Y-104401535D02*
X103418435Y-104406125D01*
X103448778Y-104413725D01*
X103478230Y-104424263D01*
X103506508Y-104437638D01*
X103533338Y-104453719D01*
X103558463Y-104472353D01*
X103581640Y-104493360D01*
X103602647Y-104516537D01*
X103621281Y-104541662D01*
X103637362Y-104568492D01*
X103650737Y-104596770D01*
X103661275Y-104626222D01*
X103668875Y-104656565D01*
X103673465Y-104687507D01*
X103675000Y-104718750D01*
X103675000Y-105356250D01*
X103673465Y-105387493D01*
X103668875Y-105418435D01*
X103661275Y-105448778D01*
X103650737Y-105478230D01*
X103637362Y-105506508D01*
X103621281Y-105533338D01*
X103602647Y-105558463D01*
X103581640Y-105581640D01*
X103558463Y-105602647D01*
X103533338Y-105621281D01*
X103506508Y-105637362D01*
X103478230Y-105650737D01*
X103448778Y-105661275D01*
X103418435Y-105668875D01*
X103387493Y-105673465D01*
X103356250Y-105675000D01*
X102643750Y-105675000D01*
X102612507Y-105673465D01*
X102581565Y-105668875D01*
X102551222Y-105661275D01*
X102521770Y-105650737D01*
X102493492Y-105637362D01*
X102466662Y-105621281D01*
X102441537Y-105602647D01*
X102418360Y-105581640D01*
X102397353Y-105558463D01*
X102378719Y-105533338D01*
X102362638Y-105506508D01*
X102349263Y-105478230D01*
X102338725Y-105448778D01*
X102331125Y-105418435D01*
X102326535Y-105387493D01*
X102325000Y-105356250D01*
X102325000Y-104718750D01*
X102326535Y-104687507D01*
X102331125Y-104656565D01*
X102338725Y-104626222D01*
X102349263Y-104596770D01*
X102362638Y-104568492D01*
X102378719Y-104541662D01*
X102397353Y-104516537D01*
X102418360Y-104493360D01*
X102441537Y-104472353D01*
X102466662Y-104453719D01*
X102493492Y-104437638D01*
X102521770Y-104424263D01*
X102551222Y-104413725D01*
X102581565Y-104406125D01*
X102612507Y-104401535D01*
X102643750Y-104400000D01*
X103356250Y-104400000D01*
X103387493Y-104401535D01*
X103387493Y-104401535D01*
G37*
D13*
X103000000Y-105037500D03*
G04 #@! TD*
D14*
G04 #@! TO.C,CGU1*
X109100000Y-101950000D03*
X109100000Y-101000000D03*
X109100000Y-100050000D03*
X106900000Y-100050000D03*
X106900000Y-101950000D03*
G04 #@! TD*
D12*
G04 #@! TO.C,D2*
G36*
X103312493Y-97326535D02*
X103343435Y-97331125D01*
X103373778Y-97338725D01*
X103403230Y-97349263D01*
X103431508Y-97362638D01*
X103458338Y-97378719D01*
X103483463Y-97397353D01*
X103506640Y-97418360D01*
X103527647Y-97441537D01*
X103546281Y-97466662D01*
X103562362Y-97493492D01*
X103575737Y-97521770D01*
X103586275Y-97551222D01*
X103593875Y-97581565D01*
X103598465Y-97612507D01*
X103600000Y-97643750D01*
X103600000Y-98356250D01*
X103598465Y-98387493D01*
X103593875Y-98418435D01*
X103586275Y-98448778D01*
X103575737Y-98478230D01*
X103562362Y-98506508D01*
X103546281Y-98533338D01*
X103527647Y-98558463D01*
X103506640Y-98581640D01*
X103483463Y-98602647D01*
X103458338Y-98621281D01*
X103431508Y-98637362D01*
X103403230Y-98650737D01*
X103373778Y-98661275D01*
X103343435Y-98668875D01*
X103312493Y-98673465D01*
X103281250Y-98675000D01*
X102643750Y-98675000D01*
X102612507Y-98673465D01*
X102581565Y-98668875D01*
X102551222Y-98661275D01*
X102521770Y-98650737D01*
X102493492Y-98637362D01*
X102466662Y-98621281D01*
X102441537Y-98602647D01*
X102418360Y-98581640D01*
X102397353Y-98558463D01*
X102378719Y-98533338D01*
X102362638Y-98506508D01*
X102349263Y-98478230D01*
X102338725Y-98448778D01*
X102331125Y-98418435D01*
X102326535Y-98387493D01*
X102325000Y-98356250D01*
X102325000Y-97643750D01*
X102326535Y-97612507D01*
X102331125Y-97581565D01*
X102338725Y-97551222D01*
X102349263Y-97521770D01*
X102362638Y-97493492D01*
X102378719Y-97466662D01*
X102397353Y-97441537D01*
X102418360Y-97418360D01*
X102441537Y-97397353D01*
X102466662Y-97378719D01*
X102493492Y-97362638D01*
X102521770Y-97349263D01*
X102551222Y-97338725D01*
X102581565Y-97331125D01*
X102612507Y-97326535D01*
X102643750Y-97325000D01*
X103281250Y-97325000D01*
X103312493Y-97326535D01*
X103312493Y-97326535D01*
G37*
D13*
X102962500Y-98000000D03*
D12*
G36*
X104887493Y-97326535D02*
X104918435Y-97331125D01*
X104948778Y-97338725D01*
X104978230Y-97349263D01*
X105006508Y-97362638D01*
X105033338Y-97378719D01*
X105058463Y-97397353D01*
X105081640Y-97418360D01*
X105102647Y-97441537D01*
X105121281Y-97466662D01*
X105137362Y-97493492D01*
X105150737Y-97521770D01*
X105161275Y-97551222D01*
X105168875Y-97581565D01*
X105173465Y-97612507D01*
X105175000Y-97643750D01*
X105175000Y-98356250D01*
X105173465Y-98387493D01*
X105168875Y-98418435D01*
X105161275Y-98448778D01*
X105150737Y-98478230D01*
X105137362Y-98506508D01*
X105121281Y-98533338D01*
X105102647Y-98558463D01*
X105081640Y-98581640D01*
X105058463Y-98602647D01*
X105033338Y-98621281D01*
X105006508Y-98637362D01*
X104978230Y-98650737D01*
X104948778Y-98661275D01*
X104918435Y-98668875D01*
X104887493Y-98673465D01*
X104856250Y-98675000D01*
X104218750Y-98675000D01*
X104187507Y-98673465D01*
X104156565Y-98668875D01*
X104126222Y-98661275D01*
X104096770Y-98650737D01*
X104068492Y-98637362D01*
X104041662Y-98621281D01*
X104016537Y-98602647D01*
X103993360Y-98581640D01*
X103972353Y-98558463D01*
X103953719Y-98533338D01*
X103937638Y-98506508D01*
X103924263Y-98478230D01*
X103913725Y-98448778D01*
X103906125Y-98418435D01*
X103901535Y-98387493D01*
X103900000Y-98356250D01*
X103900000Y-97643750D01*
X103901535Y-97612507D01*
X103906125Y-97581565D01*
X103913725Y-97551222D01*
X103924263Y-97521770D01*
X103937638Y-97493492D01*
X103953719Y-97466662D01*
X103972353Y-97441537D01*
X103993360Y-97418360D01*
X104016537Y-97397353D01*
X104041662Y-97378719D01*
X104068492Y-97362638D01*
X104096770Y-97349263D01*
X104126222Y-97338725D01*
X104156565Y-97331125D01*
X104187507Y-97326535D01*
X104218750Y-97325000D01*
X104856250Y-97325000D01*
X104887493Y-97326535D01*
X104887493Y-97326535D01*
G37*
D13*
X104537500Y-98000000D03*
G04 #@! TD*
D15*
G04 #@! TO.C,J1*
X100000000Y-101250000D03*
D16*
X100000000Y-103790000D03*
X100000000Y-106330000D03*
X100000000Y-108870000D03*
G04 #@! TD*
D12*
G04 #@! TO.C,R2*
G36*
X108387493Y-97326535D02*
X108418435Y-97331125D01*
X108448778Y-97338725D01*
X108478230Y-97349263D01*
X108506508Y-97362638D01*
X108533338Y-97378719D01*
X108558463Y-97397353D01*
X108581640Y-97418360D01*
X108602647Y-97441537D01*
X108621281Y-97466662D01*
X108637362Y-97493492D01*
X108650737Y-97521770D01*
X108661275Y-97551222D01*
X108668875Y-97581565D01*
X108673465Y-97612507D01*
X108675000Y-97643750D01*
X108675000Y-98356250D01*
X108673465Y-98387493D01*
X108668875Y-98418435D01*
X108661275Y-98448778D01*
X108650737Y-98478230D01*
X108637362Y-98506508D01*
X108621281Y-98533338D01*
X108602647Y-98558463D01*
X108581640Y-98581640D01*
X108558463Y-98602647D01*
X108533338Y-98621281D01*
X108506508Y-98637362D01*
X108478230Y-98650737D01*
X108448778Y-98661275D01*
X108418435Y-98668875D01*
X108387493Y-98673465D01*
X108356250Y-98675000D01*
X107718750Y-98675000D01*
X107687507Y-98673465D01*
X107656565Y-98668875D01*
X107626222Y-98661275D01*
X107596770Y-98650737D01*
X107568492Y-98637362D01*
X107541662Y-98621281D01*
X107516537Y-98602647D01*
X107493360Y-98581640D01*
X107472353Y-98558463D01*
X107453719Y-98533338D01*
X107437638Y-98506508D01*
X107424263Y-98478230D01*
X107413725Y-98448778D01*
X107406125Y-98418435D01*
X107401535Y-98387493D01*
X107400000Y-98356250D01*
X107400000Y-97643750D01*
X107401535Y-97612507D01*
X107406125Y-97581565D01*
X107413725Y-97551222D01*
X107424263Y-97521770D01*
X107437638Y-97493492D01*
X107453719Y-97466662D01*
X107472353Y-97441537D01*
X107493360Y-97418360D01*
X107516537Y-97397353D01*
X107541662Y-97378719D01*
X107568492Y-97362638D01*
X107596770Y-97349263D01*
X107626222Y-97338725D01*
X107656565Y-97331125D01*
X107687507Y-97326535D01*
X107718750Y-97325000D01*
X108356250Y-97325000D01*
X108387493Y-97326535D01*
X108387493Y-97326535D01*
G37*
D13*
X108037500Y-98000000D03*
D12*
G36*
X106812493Y-97326535D02*
X106843435Y-97331125D01*
X106873778Y-97338725D01*
X106903230Y-97349263D01*
X106931508Y-97362638D01*
X106958338Y-97378719D01*
X106983463Y-97397353D01*
X107006640Y-97418360D01*
X107027647Y-97441537D01*
X107046281Y-97466662D01*
X107062362Y-97493492D01*
X107075737Y-97521770D01*
X107086275Y-97551222D01*
X107093875Y-97581565D01*
X107098465Y-97612507D01*
X107100000Y-97643750D01*
X107100000Y-98356250D01*
X107098465Y-98387493D01*
X107093875Y-98418435D01*
X107086275Y-98448778D01*
X107075737Y-98478230D01*
X107062362Y-98506508D01*
X107046281Y-98533338D01*
X107027647Y-98558463D01*
X107006640Y-98581640D01*
X106983463Y-98602647D01*
X106958338Y-98621281D01*
X106931508Y-98637362D01*
X106903230Y-98650737D01*
X106873778Y-98661275D01*
X106843435Y-98668875D01*
X106812493Y-98673465D01*
X106781250Y-98675000D01*
X106143750Y-98675000D01*
X106112507Y-98673465D01*
X106081565Y-98668875D01*
X106051222Y-98661275D01*
X106021770Y-98650737D01*
X105993492Y-98637362D01*
X105966662Y-98621281D01*
X105941537Y-98602647D01*
X105918360Y-98581640D01*
X105897353Y-98558463D01*
X105878719Y-98533338D01*
X105862638Y-98506508D01*
X105849263Y-98478230D01*
X105838725Y-98448778D01*
X105831125Y-98418435D01*
X105826535Y-98387493D01*
X105825000Y-98356250D01*
X105825000Y-97643750D01*
X105826535Y-97612507D01*
X105831125Y-97581565D01*
X105838725Y-97551222D01*
X105849263Y-97521770D01*
X105862638Y-97493492D01*
X105878719Y-97466662D01*
X105897353Y-97441537D01*
X105918360Y-97418360D01*
X105941537Y-97397353D01*
X105966662Y-97378719D01*
X105993492Y-97362638D01*
X106021770Y-97349263D01*
X106051222Y-97338725D01*
X106081565Y-97331125D01*
X106112507Y-97326535D01*
X106143750Y-97325000D01*
X106781250Y-97325000D01*
X106812493Y-97326535D01*
X106812493Y-97326535D01*
G37*
D13*
X106462500Y-98000000D03*
G04 #@! TD*
D12*
G04 #@! TO.C,R3*
G36*
X106812493Y-95326535D02*
X106843435Y-95331125D01*
X106873778Y-95338725D01*
X106903230Y-95349263D01*
X106931508Y-95362638D01*
X106958338Y-95378719D01*
X106983463Y-95397353D01*
X107006640Y-95418360D01*
X107027647Y-95441537D01*
X107046281Y-95466662D01*
X107062362Y-95493492D01*
X107075737Y-95521770D01*
X107086275Y-95551222D01*
X107093875Y-95581565D01*
X107098465Y-95612507D01*
X107100000Y-95643750D01*
X107100000Y-96356250D01*
X107098465Y-96387493D01*
X107093875Y-96418435D01*
X107086275Y-96448778D01*
X107075737Y-96478230D01*
X107062362Y-96506508D01*
X107046281Y-96533338D01*
X107027647Y-96558463D01*
X107006640Y-96581640D01*
X106983463Y-96602647D01*
X106958338Y-96621281D01*
X106931508Y-96637362D01*
X106903230Y-96650737D01*
X106873778Y-96661275D01*
X106843435Y-96668875D01*
X106812493Y-96673465D01*
X106781250Y-96675000D01*
X106143750Y-96675000D01*
X106112507Y-96673465D01*
X106081565Y-96668875D01*
X106051222Y-96661275D01*
X106021770Y-96650737D01*
X105993492Y-96637362D01*
X105966662Y-96621281D01*
X105941537Y-96602647D01*
X105918360Y-96581640D01*
X105897353Y-96558463D01*
X105878719Y-96533338D01*
X105862638Y-96506508D01*
X105849263Y-96478230D01*
X105838725Y-96448778D01*
X105831125Y-96418435D01*
X105826535Y-96387493D01*
X105825000Y-96356250D01*
X105825000Y-95643750D01*
X105826535Y-95612507D01*
X105831125Y-95581565D01*
X105838725Y-95551222D01*
X105849263Y-95521770D01*
X105862638Y-95493492D01*
X105878719Y-95466662D01*
X105897353Y-95441537D01*
X105918360Y-95418360D01*
X105941537Y-95397353D01*
X105966662Y-95378719D01*
X105993492Y-95362638D01*
X106021770Y-95349263D01*
X106051222Y-95338725D01*
X106081565Y-95331125D01*
X106112507Y-95326535D01*
X106143750Y-95325000D01*
X106781250Y-95325000D01*
X106812493Y-95326535D01*
X106812493Y-95326535D01*
G37*
D13*
X106462500Y-96000000D03*
D12*
G36*
X108387493Y-95326535D02*
X108418435Y-95331125D01*
X108448778Y-95338725D01*
X108478230Y-95349263D01*
X108506508Y-95362638D01*
X108533338Y-95378719D01*
X108558463Y-95397353D01*
X108581640Y-95418360D01*
X108602647Y-95441537D01*
X108621281Y-95466662D01*
X108637362Y-95493492D01*
X108650737Y-95521770D01*
X108661275Y-95551222D01*
X108668875Y-95581565D01*
X108673465Y-95612507D01*
X108675000Y-95643750D01*
X108675000Y-96356250D01*
X108673465Y-96387493D01*
X108668875Y-96418435D01*
X108661275Y-96448778D01*
X108650737Y-96478230D01*
X108637362Y-96506508D01*
X108621281Y-96533338D01*
X108602647Y-96558463D01*
X108581640Y-96581640D01*
X108558463Y-96602647D01*
X108533338Y-96621281D01*
X108506508Y-96637362D01*
X108478230Y-96650737D01*
X108448778Y-96661275D01*
X108418435Y-96668875D01*
X108387493Y-96673465D01*
X108356250Y-96675000D01*
X107718750Y-96675000D01*
X107687507Y-96673465D01*
X107656565Y-96668875D01*
X107626222Y-96661275D01*
X107596770Y-96650737D01*
X107568492Y-96637362D01*
X107541662Y-96621281D01*
X107516537Y-96602647D01*
X107493360Y-96581640D01*
X107472353Y-96558463D01*
X107453719Y-96533338D01*
X107437638Y-96506508D01*
X107424263Y-96478230D01*
X107413725Y-96448778D01*
X107406125Y-96418435D01*
X107401535Y-96387493D01*
X107400000Y-96356250D01*
X107400000Y-95643750D01*
X107401535Y-95612507D01*
X107406125Y-95581565D01*
X107413725Y-95551222D01*
X107424263Y-95521770D01*
X107437638Y-95493492D01*
X107453719Y-95466662D01*
X107472353Y-95441537D01*
X107493360Y-95418360D01*
X107516537Y-95397353D01*
X107541662Y-95378719D01*
X107568492Y-95362638D01*
X107596770Y-95349263D01*
X107626222Y-95338725D01*
X107656565Y-95331125D01*
X107687507Y-95326535D01*
X107718750Y-95325000D01*
X108356250Y-95325000D01*
X108387493Y-95326535D01*
X108387493Y-95326535D01*
G37*
D13*
X108037500Y-96000000D03*
G04 #@! TD*
D12*
G04 #@! TO.C,RREF1*
G36*
X109137493Y-103076535D02*
X109168435Y-103081125D01*
X109198778Y-103088725D01*
X109228230Y-103099263D01*
X109256508Y-103112638D01*
X109283338Y-103128719D01*
X109308463Y-103147353D01*
X109331640Y-103168360D01*
X109352647Y-103191537D01*
X109371281Y-103216662D01*
X109387362Y-103243492D01*
X109400737Y-103271770D01*
X109411275Y-103301222D01*
X109418875Y-103331565D01*
X109423465Y-103362507D01*
X109425000Y-103393750D01*
X109425000Y-104106250D01*
X109423465Y-104137493D01*
X109418875Y-104168435D01*
X109411275Y-104198778D01*
X109400737Y-104228230D01*
X109387362Y-104256508D01*
X109371281Y-104283338D01*
X109352647Y-104308463D01*
X109331640Y-104331640D01*
X109308463Y-104352647D01*
X109283338Y-104371281D01*
X109256508Y-104387362D01*
X109228230Y-104400737D01*
X109198778Y-104411275D01*
X109168435Y-104418875D01*
X109137493Y-104423465D01*
X109106250Y-104425000D01*
X108468750Y-104425000D01*
X108437507Y-104423465D01*
X108406565Y-104418875D01*
X108376222Y-104411275D01*
X108346770Y-104400737D01*
X108318492Y-104387362D01*
X108291662Y-104371281D01*
X108266537Y-104352647D01*
X108243360Y-104331640D01*
X108222353Y-104308463D01*
X108203719Y-104283338D01*
X108187638Y-104256508D01*
X108174263Y-104228230D01*
X108163725Y-104198778D01*
X108156125Y-104168435D01*
X108151535Y-104137493D01*
X108150000Y-104106250D01*
X108150000Y-103393750D01*
X108151535Y-103362507D01*
X108156125Y-103331565D01*
X108163725Y-103301222D01*
X108174263Y-103271770D01*
X108187638Y-103243492D01*
X108203719Y-103216662D01*
X108222353Y-103191537D01*
X108243360Y-103168360D01*
X108266537Y-103147353D01*
X108291662Y-103128719D01*
X108318492Y-103112638D01*
X108346770Y-103099263D01*
X108376222Y-103088725D01*
X108406565Y-103081125D01*
X108437507Y-103076535D01*
X108468750Y-103075000D01*
X109106250Y-103075000D01*
X109137493Y-103076535D01*
X109137493Y-103076535D01*
G37*
D13*
X108787500Y-103750000D03*
D12*
G36*
X107562493Y-103076535D02*
X107593435Y-103081125D01*
X107623778Y-103088725D01*
X107653230Y-103099263D01*
X107681508Y-103112638D01*
X107708338Y-103128719D01*
X107733463Y-103147353D01*
X107756640Y-103168360D01*
X107777647Y-103191537D01*
X107796281Y-103216662D01*
X107812362Y-103243492D01*
X107825737Y-103271770D01*
X107836275Y-103301222D01*
X107843875Y-103331565D01*
X107848465Y-103362507D01*
X107850000Y-103393750D01*
X107850000Y-104106250D01*
X107848465Y-104137493D01*
X107843875Y-104168435D01*
X107836275Y-104198778D01*
X107825737Y-104228230D01*
X107812362Y-104256508D01*
X107796281Y-104283338D01*
X107777647Y-104308463D01*
X107756640Y-104331640D01*
X107733463Y-104352647D01*
X107708338Y-104371281D01*
X107681508Y-104387362D01*
X107653230Y-104400737D01*
X107623778Y-104411275D01*
X107593435Y-104418875D01*
X107562493Y-104423465D01*
X107531250Y-104425000D01*
X106893750Y-104425000D01*
X106862507Y-104423465D01*
X106831565Y-104418875D01*
X106801222Y-104411275D01*
X106771770Y-104400737D01*
X106743492Y-104387362D01*
X106716662Y-104371281D01*
X106691537Y-104352647D01*
X106668360Y-104331640D01*
X106647353Y-104308463D01*
X106628719Y-104283338D01*
X106612638Y-104256508D01*
X106599263Y-104228230D01*
X106588725Y-104198778D01*
X106581125Y-104168435D01*
X106576535Y-104137493D01*
X106575000Y-104106250D01*
X106575000Y-103393750D01*
X106576535Y-103362507D01*
X106581125Y-103331565D01*
X106588725Y-103301222D01*
X106599263Y-103271770D01*
X106612638Y-103243492D01*
X106628719Y-103216662D01*
X106647353Y-103191537D01*
X106668360Y-103168360D01*
X106691537Y-103147353D01*
X106716662Y-103128719D01*
X106743492Y-103112638D01*
X106771770Y-103099263D01*
X106801222Y-103088725D01*
X106831565Y-103081125D01*
X106862507Y-103076535D01*
X106893750Y-103075000D01*
X107531250Y-103075000D01*
X107562493Y-103076535D01*
X107562493Y-103076535D01*
G37*
D13*
X107212500Y-103750000D03*
G04 #@! TD*
D12*
G04 #@! TO.C,D1*
G36*
X105387493Y-102651535D02*
X105418435Y-102656125D01*
X105448778Y-102663725D01*
X105478230Y-102674263D01*
X105506508Y-102687638D01*
X105533338Y-102703719D01*
X105558463Y-102722353D01*
X105581640Y-102743360D01*
X105602647Y-102766537D01*
X105621281Y-102791662D01*
X105637362Y-102818492D01*
X105650737Y-102846770D01*
X105661275Y-102876222D01*
X105668875Y-102906565D01*
X105673465Y-102937507D01*
X105675000Y-102968750D01*
X105675000Y-103606250D01*
X105673465Y-103637493D01*
X105668875Y-103668435D01*
X105661275Y-103698778D01*
X105650737Y-103728230D01*
X105637362Y-103756508D01*
X105621281Y-103783338D01*
X105602647Y-103808463D01*
X105581640Y-103831640D01*
X105558463Y-103852647D01*
X105533338Y-103871281D01*
X105506508Y-103887362D01*
X105478230Y-103900737D01*
X105448778Y-103911275D01*
X105418435Y-103918875D01*
X105387493Y-103923465D01*
X105356250Y-103925000D01*
X104643750Y-103925000D01*
X104612507Y-103923465D01*
X104581565Y-103918875D01*
X104551222Y-103911275D01*
X104521770Y-103900737D01*
X104493492Y-103887362D01*
X104466662Y-103871281D01*
X104441537Y-103852647D01*
X104418360Y-103831640D01*
X104397353Y-103808463D01*
X104378719Y-103783338D01*
X104362638Y-103756508D01*
X104349263Y-103728230D01*
X104338725Y-103698778D01*
X104331125Y-103668435D01*
X104326535Y-103637493D01*
X104325000Y-103606250D01*
X104325000Y-102968750D01*
X104326535Y-102937507D01*
X104331125Y-102906565D01*
X104338725Y-102876222D01*
X104349263Y-102846770D01*
X104362638Y-102818492D01*
X104378719Y-102791662D01*
X104397353Y-102766537D01*
X104418360Y-102743360D01*
X104441537Y-102722353D01*
X104466662Y-102703719D01*
X104493492Y-102687638D01*
X104521770Y-102674263D01*
X104551222Y-102663725D01*
X104581565Y-102656125D01*
X104612507Y-102651535D01*
X104643750Y-102650000D01*
X105356250Y-102650000D01*
X105387493Y-102651535D01*
X105387493Y-102651535D01*
G37*
D13*
X105000000Y-103287500D03*
D12*
G36*
X105387493Y-101076535D02*
X105418435Y-101081125D01*
X105448778Y-101088725D01*
X105478230Y-101099263D01*
X105506508Y-101112638D01*
X105533338Y-101128719D01*
X105558463Y-101147353D01*
X105581640Y-101168360D01*
X105602647Y-101191537D01*
X105621281Y-101216662D01*
X105637362Y-101243492D01*
X105650737Y-101271770D01*
X105661275Y-101301222D01*
X105668875Y-101331565D01*
X105673465Y-101362507D01*
X105675000Y-101393750D01*
X105675000Y-102031250D01*
X105673465Y-102062493D01*
X105668875Y-102093435D01*
X105661275Y-102123778D01*
X105650737Y-102153230D01*
X105637362Y-102181508D01*
X105621281Y-102208338D01*
X105602647Y-102233463D01*
X105581640Y-102256640D01*
X105558463Y-102277647D01*
X105533338Y-102296281D01*
X105506508Y-102312362D01*
X105478230Y-102325737D01*
X105448778Y-102336275D01*
X105418435Y-102343875D01*
X105387493Y-102348465D01*
X105356250Y-102350000D01*
X104643750Y-102350000D01*
X104612507Y-102348465D01*
X104581565Y-102343875D01*
X104551222Y-102336275D01*
X104521770Y-102325737D01*
X104493492Y-102312362D01*
X104466662Y-102296281D01*
X104441537Y-102277647D01*
X104418360Y-102256640D01*
X104397353Y-102233463D01*
X104378719Y-102208338D01*
X104362638Y-102181508D01*
X104349263Y-102153230D01*
X104338725Y-102123778D01*
X104331125Y-102093435D01*
X104326535Y-102062493D01*
X104325000Y-102031250D01*
X104325000Y-101393750D01*
X104326535Y-101362507D01*
X104331125Y-101331565D01*
X104338725Y-101301222D01*
X104349263Y-101271770D01*
X104362638Y-101243492D01*
X104378719Y-101216662D01*
X104397353Y-101191537D01*
X104418360Y-101168360D01*
X104441537Y-101147353D01*
X104466662Y-101128719D01*
X104493492Y-101112638D01*
X104521770Y-101099263D01*
X104551222Y-101088725D01*
X104581565Y-101081125D01*
X104612507Y-101076535D01*
X104643750Y-101075000D01*
X105356250Y-101075000D01*
X105387493Y-101076535D01*
X105387493Y-101076535D01*
G37*
D13*
X105000000Y-101712500D03*
G04 #@! TD*
D12*
G04 #@! TO.C,D3*
G36*
X103312493Y-95326535D02*
X103343435Y-95331125D01*
X103373778Y-95338725D01*
X103403230Y-95349263D01*
X103431508Y-95362638D01*
X103458338Y-95378719D01*
X103483463Y-95397353D01*
X103506640Y-95418360D01*
X103527647Y-95441537D01*
X103546281Y-95466662D01*
X103562362Y-95493492D01*
X103575737Y-95521770D01*
X103586275Y-95551222D01*
X103593875Y-95581565D01*
X103598465Y-95612507D01*
X103600000Y-95643750D01*
X103600000Y-96356250D01*
X103598465Y-96387493D01*
X103593875Y-96418435D01*
X103586275Y-96448778D01*
X103575737Y-96478230D01*
X103562362Y-96506508D01*
X103546281Y-96533338D01*
X103527647Y-96558463D01*
X103506640Y-96581640D01*
X103483463Y-96602647D01*
X103458338Y-96621281D01*
X103431508Y-96637362D01*
X103403230Y-96650737D01*
X103373778Y-96661275D01*
X103343435Y-96668875D01*
X103312493Y-96673465D01*
X103281250Y-96675000D01*
X102643750Y-96675000D01*
X102612507Y-96673465D01*
X102581565Y-96668875D01*
X102551222Y-96661275D01*
X102521770Y-96650737D01*
X102493492Y-96637362D01*
X102466662Y-96621281D01*
X102441537Y-96602647D01*
X102418360Y-96581640D01*
X102397353Y-96558463D01*
X102378719Y-96533338D01*
X102362638Y-96506508D01*
X102349263Y-96478230D01*
X102338725Y-96448778D01*
X102331125Y-96418435D01*
X102326535Y-96387493D01*
X102325000Y-96356250D01*
X102325000Y-95643750D01*
X102326535Y-95612507D01*
X102331125Y-95581565D01*
X102338725Y-95551222D01*
X102349263Y-95521770D01*
X102362638Y-95493492D01*
X102378719Y-95466662D01*
X102397353Y-95441537D01*
X102418360Y-95418360D01*
X102441537Y-95397353D01*
X102466662Y-95378719D01*
X102493492Y-95362638D01*
X102521770Y-95349263D01*
X102551222Y-95338725D01*
X102581565Y-95331125D01*
X102612507Y-95326535D01*
X102643750Y-95325000D01*
X103281250Y-95325000D01*
X103312493Y-95326535D01*
X103312493Y-95326535D01*
G37*
D13*
X102962500Y-96000000D03*
D12*
G36*
X104887493Y-95326535D02*
X104918435Y-95331125D01*
X104948778Y-95338725D01*
X104978230Y-95349263D01*
X105006508Y-95362638D01*
X105033338Y-95378719D01*
X105058463Y-95397353D01*
X105081640Y-95418360D01*
X105102647Y-95441537D01*
X105121281Y-95466662D01*
X105137362Y-95493492D01*
X105150737Y-95521770D01*
X105161275Y-95551222D01*
X105168875Y-95581565D01*
X105173465Y-95612507D01*
X105175000Y-95643750D01*
X105175000Y-96356250D01*
X105173465Y-96387493D01*
X105168875Y-96418435D01*
X105161275Y-96448778D01*
X105150737Y-96478230D01*
X105137362Y-96506508D01*
X105121281Y-96533338D01*
X105102647Y-96558463D01*
X105081640Y-96581640D01*
X105058463Y-96602647D01*
X105033338Y-96621281D01*
X105006508Y-96637362D01*
X104978230Y-96650737D01*
X104948778Y-96661275D01*
X104918435Y-96668875D01*
X104887493Y-96673465D01*
X104856250Y-96675000D01*
X104218750Y-96675000D01*
X104187507Y-96673465D01*
X104156565Y-96668875D01*
X104126222Y-96661275D01*
X104096770Y-96650737D01*
X104068492Y-96637362D01*
X104041662Y-96621281D01*
X104016537Y-96602647D01*
X103993360Y-96581640D01*
X103972353Y-96558463D01*
X103953719Y-96533338D01*
X103937638Y-96506508D01*
X103924263Y-96478230D01*
X103913725Y-96448778D01*
X103906125Y-96418435D01*
X103901535Y-96387493D01*
X103900000Y-96356250D01*
X103900000Y-95643750D01*
X103901535Y-95612507D01*
X103906125Y-95581565D01*
X103913725Y-95551222D01*
X103924263Y-95521770D01*
X103937638Y-95493492D01*
X103953719Y-95466662D01*
X103972353Y-95441537D01*
X103993360Y-95418360D01*
X104016537Y-95397353D01*
X104041662Y-95378719D01*
X104068492Y-95362638D01*
X104096770Y-95349263D01*
X104126222Y-95338725D01*
X104156565Y-95331125D01*
X104187507Y-95326535D01*
X104218750Y-95325000D01*
X104856250Y-95325000D01*
X104887493Y-95326535D01*
X104887493Y-95326535D01*
G37*
D13*
X104537500Y-96000000D03*
G04 #@! TD*
D17*
G04 #@! TO.C,MH1*
X114000000Y-98000000D03*
G04 #@! TD*
G04 #@! TO.C,MH2*
X114000000Y-112000000D03*
G04 #@! TD*
M02*
