G04 #@! TF.GenerationSoftware,KiCad,Pcbnew,(5.0.0-3-g5ebb6b6)*
G04 #@! TF.CreationDate,2020-02-18T17:20:26-05:00*
G04 #@! TF.ProjectId,Project,50726F6A6563742E6B696361645F7063,rev?*
G04 #@! TF.SameCoordinates,Original*
G04 #@! TF.FileFunction,Copper,L1,Top,Signal*
G04 #@! TF.FilePolarity,Positive*
%FSLAX46Y46*%
G04 Gerber Fmt 4.6, Leading zero omitted, Abs format (unit mm)*
G04 Created by KiCad (PCBNEW (5.0.0-3-g5ebb6b6)) date Tuesday, February 18, 2020 at 05:20:26 PM*
%MOMM*%
%LPD*%
G01*
G04 APERTURE LIST*
G04 #@! TA.AperFunction,ConnectorPad*
%ADD10R,1.500000X3.000000*%
G04 #@! TD*
G04 #@! TA.AperFunction,SMDPad,CuDef*
%ADD11R,1.000000X2.800000*%
G04 #@! TD*
G04 #@! TA.AperFunction,Conductor*
%ADD12C,0.100000*%
G04 #@! TD*
G04 #@! TA.AperFunction,SMDPad,CuDef*
%ADD13C,0.875000*%
G04 #@! TD*
G04 #@! TA.AperFunction,SMDPad,CuDef*
%ADD14R,1.060000X0.650000*%
G04 #@! TD*
G04 #@! TA.AperFunction,ComponentPad*
%ADD15R,1.700000X1.700000*%
G04 #@! TD*
G04 #@! TA.AperFunction,ComponentPad*
%ADD16O,1.700000X1.700000*%
G04 #@! TD*
G04 #@! TA.AperFunction,ComponentPad*
%ADD17C,3.200000*%
G04 #@! TD*
G04 #@! TA.AperFunction,ViaPad*
%ADD18C,0.600000*%
G04 #@! TD*
G04 #@! TA.AperFunction,Conductor*
%ADD19C,0.400000*%
G04 #@! TD*
G04 #@! TA.AperFunction,Conductor*
%ADD20C,0.254000*%
G04 #@! TD*
G04 APERTURE END LIST*
D10*
G04 #@! TO.P,JSTPH1,*
G04 #@! TO.N,*
X109250000Y-113250000D03*
X102750000Y-113250000D03*
D11*
G04 #@! TO.P,JSTPH1,2*
G04 #@! TO.N,GND*
X107000000Y-107500000D03*
G04 #@! TO.P,JSTPH1,1*
G04 #@! TO.N,VBAT*
X105000000Y-107500000D03*
G04 #@! TD*
D12*
G04 #@! TO.N,GND*
G04 #@! TO.C,C1*
G36*
X103277691Y-101138553D02*
X103298926Y-101141703D01*
X103319750Y-101146919D01*
X103339962Y-101154151D01*
X103359368Y-101163330D01*
X103377781Y-101174366D01*
X103395024Y-101187154D01*
X103410930Y-101201570D01*
X103425346Y-101217476D01*
X103438134Y-101234719D01*
X103449170Y-101253132D01*
X103458349Y-101272538D01*
X103465581Y-101292750D01*
X103470797Y-101313574D01*
X103473947Y-101334809D01*
X103475000Y-101356250D01*
X103475000Y-101793750D01*
X103473947Y-101815191D01*
X103470797Y-101836426D01*
X103465581Y-101857250D01*
X103458349Y-101877462D01*
X103449170Y-101896868D01*
X103438134Y-101915281D01*
X103425346Y-101932524D01*
X103410930Y-101948430D01*
X103395024Y-101962846D01*
X103377781Y-101975634D01*
X103359368Y-101986670D01*
X103339962Y-101995849D01*
X103319750Y-102003081D01*
X103298926Y-102008297D01*
X103277691Y-102011447D01*
X103256250Y-102012500D01*
X102743750Y-102012500D01*
X102722309Y-102011447D01*
X102701074Y-102008297D01*
X102680250Y-102003081D01*
X102660038Y-101995849D01*
X102640632Y-101986670D01*
X102622219Y-101975634D01*
X102604976Y-101962846D01*
X102589070Y-101948430D01*
X102574654Y-101932524D01*
X102561866Y-101915281D01*
X102550830Y-101896868D01*
X102541651Y-101877462D01*
X102534419Y-101857250D01*
X102529203Y-101836426D01*
X102526053Y-101815191D01*
X102525000Y-101793750D01*
X102525000Y-101356250D01*
X102526053Y-101334809D01*
X102529203Y-101313574D01*
X102534419Y-101292750D01*
X102541651Y-101272538D01*
X102550830Y-101253132D01*
X102561866Y-101234719D01*
X102574654Y-101217476D01*
X102589070Y-101201570D01*
X102604976Y-101187154D01*
X102622219Y-101174366D01*
X102640632Y-101163330D01*
X102660038Y-101154151D01*
X102680250Y-101146919D01*
X102701074Y-101141703D01*
X102722309Y-101138553D01*
X102743750Y-101137500D01*
X103256250Y-101137500D01*
X103277691Y-101138553D01*
X103277691Y-101138553D01*
G37*
D13*
G04 #@! TD*
G04 #@! TO.P,C1,1*
G04 #@! TO.N,GND*
X103000000Y-101575000D03*
D12*
G04 #@! TO.N,VDD*
G04 #@! TO.C,C1*
G36*
X103277691Y-99563553D02*
X103298926Y-99566703D01*
X103319750Y-99571919D01*
X103339962Y-99579151D01*
X103359368Y-99588330D01*
X103377781Y-99599366D01*
X103395024Y-99612154D01*
X103410930Y-99626570D01*
X103425346Y-99642476D01*
X103438134Y-99659719D01*
X103449170Y-99678132D01*
X103458349Y-99697538D01*
X103465581Y-99717750D01*
X103470797Y-99738574D01*
X103473947Y-99759809D01*
X103475000Y-99781250D01*
X103475000Y-100218750D01*
X103473947Y-100240191D01*
X103470797Y-100261426D01*
X103465581Y-100282250D01*
X103458349Y-100302462D01*
X103449170Y-100321868D01*
X103438134Y-100340281D01*
X103425346Y-100357524D01*
X103410930Y-100373430D01*
X103395024Y-100387846D01*
X103377781Y-100400634D01*
X103359368Y-100411670D01*
X103339962Y-100420849D01*
X103319750Y-100428081D01*
X103298926Y-100433297D01*
X103277691Y-100436447D01*
X103256250Y-100437500D01*
X102743750Y-100437500D01*
X102722309Y-100436447D01*
X102701074Y-100433297D01*
X102680250Y-100428081D01*
X102660038Y-100420849D01*
X102640632Y-100411670D01*
X102622219Y-100400634D01*
X102604976Y-100387846D01*
X102589070Y-100373430D01*
X102574654Y-100357524D01*
X102561866Y-100340281D01*
X102550830Y-100321868D01*
X102541651Y-100302462D01*
X102534419Y-100282250D01*
X102529203Y-100261426D01*
X102526053Y-100240191D01*
X102525000Y-100218750D01*
X102525000Y-99781250D01*
X102526053Y-99759809D01*
X102529203Y-99738574D01*
X102534419Y-99717750D01*
X102541651Y-99697538D01*
X102550830Y-99678132D01*
X102561866Y-99659719D01*
X102574654Y-99642476D01*
X102589070Y-99626570D01*
X102604976Y-99612154D01*
X102622219Y-99599366D01*
X102640632Y-99588330D01*
X102660038Y-99579151D01*
X102680250Y-99571919D01*
X102701074Y-99566703D01*
X102722309Y-99563553D01*
X102743750Y-99562500D01*
X103256250Y-99562500D01*
X103277691Y-99563553D01*
X103277691Y-99563553D01*
G37*
D13*
G04 #@! TD*
G04 #@! TO.P,C1,2*
G04 #@! TO.N,VDD*
X103000000Y-100000000D03*
D12*
G04 #@! TO.N,GND*
G04 #@! TO.C,C2*
G36*
X103277691Y-103026053D02*
X103298926Y-103029203D01*
X103319750Y-103034419D01*
X103339962Y-103041651D01*
X103359368Y-103050830D01*
X103377781Y-103061866D01*
X103395024Y-103074654D01*
X103410930Y-103089070D01*
X103425346Y-103104976D01*
X103438134Y-103122219D01*
X103449170Y-103140632D01*
X103458349Y-103160038D01*
X103465581Y-103180250D01*
X103470797Y-103201074D01*
X103473947Y-103222309D01*
X103475000Y-103243750D01*
X103475000Y-103681250D01*
X103473947Y-103702691D01*
X103470797Y-103723926D01*
X103465581Y-103744750D01*
X103458349Y-103764962D01*
X103449170Y-103784368D01*
X103438134Y-103802781D01*
X103425346Y-103820024D01*
X103410930Y-103835930D01*
X103395024Y-103850346D01*
X103377781Y-103863134D01*
X103359368Y-103874170D01*
X103339962Y-103883349D01*
X103319750Y-103890581D01*
X103298926Y-103895797D01*
X103277691Y-103898947D01*
X103256250Y-103900000D01*
X102743750Y-103900000D01*
X102722309Y-103898947D01*
X102701074Y-103895797D01*
X102680250Y-103890581D01*
X102660038Y-103883349D01*
X102640632Y-103874170D01*
X102622219Y-103863134D01*
X102604976Y-103850346D01*
X102589070Y-103835930D01*
X102574654Y-103820024D01*
X102561866Y-103802781D01*
X102550830Y-103784368D01*
X102541651Y-103764962D01*
X102534419Y-103744750D01*
X102529203Y-103723926D01*
X102526053Y-103702691D01*
X102525000Y-103681250D01*
X102525000Y-103243750D01*
X102526053Y-103222309D01*
X102529203Y-103201074D01*
X102534419Y-103180250D01*
X102541651Y-103160038D01*
X102550830Y-103140632D01*
X102561866Y-103122219D01*
X102574654Y-103104976D01*
X102589070Y-103089070D01*
X102604976Y-103074654D01*
X102622219Y-103061866D01*
X102640632Y-103050830D01*
X102660038Y-103041651D01*
X102680250Y-103034419D01*
X102701074Y-103029203D01*
X102722309Y-103026053D01*
X102743750Y-103025000D01*
X103256250Y-103025000D01*
X103277691Y-103026053D01*
X103277691Y-103026053D01*
G37*
D13*
G04 #@! TD*
G04 #@! TO.P,C2,2*
G04 #@! TO.N,GND*
X103000000Y-103462500D03*
D12*
G04 #@! TO.N,VBAT*
G04 #@! TO.C,C2*
G36*
X103277691Y-104601053D02*
X103298926Y-104604203D01*
X103319750Y-104609419D01*
X103339962Y-104616651D01*
X103359368Y-104625830D01*
X103377781Y-104636866D01*
X103395024Y-104649654D01*
X103410930Y-104664070D01*
X103425346Y-104679976D01*
X103438134Y-104697219D01*
X103449170Y-104715632D01*
X103458349Y-104735038D01*
X103465581Y-104755250D01*
X103470797Y-104776074D01*
X103473947Y-104797309D01*
X103475000Y-104818750D01*
X103475000Y-105256250D01*
X103473947Y-105277691D01*
X103470797Y-105298926D01*
X103465581Y-105319750D01*
X103458349Y-105339962D01*
X103449170Y-105359368D01*
X103438134Y-105377781D01*
X103425346Y-105395024D01*
X103410930Y-105410930D01*
X103395024Y-105425346D01*
X103377781Y-105438134D01*
X103359368Y-105449170D01*
X103339962Y-105458349D01*
X103319750Y-105465581D01*
X103298926Y-105470797D01*
X103277691Y-105473947D01*
X103256250Y-105475000D01*
X102743750Y-105475000D01*
X102722309Y-105473947D01*
X102701074Y-105470797D01*
X102680250Y-105465581D01*
X102660038Y-105458349D01*
X102640632Y-105449170D01*
X102622219Y-105438134D01*
X102604976Y-105425346D01*
X102589070Y-105410930D01*
X102574654Y-105395024D01*
X102561866Y-105377781D01*
X102550830Y-105359368D01*
X102541651Y-105339962D01*
X102534419Y-105319750D01*
X102529203Y-105298926D01*
X102526053Y-105277691D01*
X102525000Y-105256250D01*
X102525000Y-104818750D01*
X102526053Y-104797309D01*
X102529203Y-104776074D01*
X102534419Y-104755250D01*
X102541651Y-104735038D01*
X102550830Y-104715632D01*
X102561866Y-104697219D01*
X102574654Y-104679976D01*
X102589070Y-104664070D01*
X102604976Y-104649654D01*
X102622219Y-104636866D01*
X102640632Y-104625830D01*
X102660038Y-104616651D01*
X102680250Y-104609419D01*
X102701074Y-104604203D01*
X102722309Y-104601053D01*
X102743750Y-104600000D01*
X103256250Y-104600000D01*
X103277691Y-104601053D01*
X103277691Y-104601053D01*
G37*
D13*
G04 #@! TD*
G04 #@! TO.P,C2,1*
G04 #@! TO.N,VBAT*
X103000000Y-105037500D03*
D14*
G04 #@! TO.P,CGU1,1*
G04 #@! TO.N,STAT*
X109100000Y-101950000D03*
G04 #@! TO.P,CGU1,2*
G04 #@! TO.N,GND*
X109100000Y-101000000D03*
G04 #@! TO.P,CGU1,3*
G04 #@! TO.N,VBAT*
X109100000Y-100050000D03*
G04 #@! TO.P,CGU1,4*
G04 #@! TO.N,VDD*
X106900000Y-100050000D03*
G04 #@! TO.P,CGU1,5*
G04 #@! TO.N,PROG*
X106900000Y-101950000D03*
G04 #@! TD*
D12*
G04 #@! TO.N,VDD*
G04 #@! TO.C,D2*
G36*
X103202691Y-97526053D02*
X103223926Y-97529203D01*
X103244750Y-97534419D01*
X103264962Y-97541651D01*
X103284368Y-97550830D01*
X103302781Y-97561866D01*
X103320024Y-97574654D01*
X103335930Y-97589070D01*
X103350346Y-97604976D01*
X103363134Y-97622219D01*
X103374170Y-97640632D01*
X103383349Y-97660038D01*
X103390581Y-97680250D01*
X103395797Y-97701074D01*
X103398947Y-97722309D01*
X103400000Y-97743750D01*
X103400000Y-98256250D01*
X103398947Y-98277691D01*
X103395797Y-98298926D01*
X103390581Y-98319750D01*
X103383349Y-98339962D01*
X103374170Y-98359368D01*
X103363134Y-98377781D01*
X103350346Y-98395024D01*
X103335930Y-98410930D01*
X103320024Y-98425346D01*
X103302781Y-98438134D01*
X103284368Y-98449170D01*
X103264962Y-98458349D01*
X103244750Y-98465581D01*
X103223926Y-98470797D01*
X103202691Y-98473947D01*
X103181250Y-98475000D01*
X102743750Y-98475000D01*
X102722309Y-98473947D01*
X102701074Y-98470797D01*
X102680250Y-98465581D01*
X102660038Y-98458349D01*
X102640632Y-98449170D01*
X102622219Y-98438134D01*
X102604976Y-98425346D01*
X102589070Y-98410930D01*
X102574654Y-98395024D01*
X102561866Y-98377781D01*
X102550830Y-98359368D01*
X102541651Y-98339962D01*
X102534419Y-98319750D01*
X102529203Y-98298926D01*
X102526053Y-98277691D01*
X102525000Y-98256250D01*
X102525000Y-97743750D01*
X102526053Y-97722309D01*
X102529203Y-97701074D01*
X102534419Y-97680250D01*
X102541651Y-97660038D01*
X102550830Y-97640632D01*
X102561866Y-97622219D01*
X102574654Y-97604976D01*
X102589070Y-97589070D01*
X102604976Y-97574654D01*
X102622219Y-97561866D01*
X102640632Y-97550830D01*
X102660038Y-97541651D01*
X102680250Y-97534419D01*
X102701074Y-97529203D01*
X102722309Y-97526053D01*
X102743750Y-97525000D01*
X103181250Y-97525000D01*
X103202691Y-97526053D01*
X103202691Y-97526053D01*
G37*
D13*
G04 #@! TD*
G04 #@! TO.P,D2,2*
G04 #@! TO.N,VDD*
X102962500Y-98000000D03*
D12*
G04 #@! TO.N,Net-(D2-Pad1)*
G04 #@! TO.C,D2*
G36*
X104777691Y-97526053D02*
X104798926Y-97529203D01*
X104819750Y-97534419D01*
X104839962Y-97541651D01*
X104859368Y-97550830D01*
X104877781Y-97561866D01*
X104895024Y-97574654D01*
X104910930Y-97589070D01*
X104925346Y-97604976D01*
X104938134Y-97622219D01*
X104949170Y-97640632D01*
X104958349Y-97660038D01*
X104965581Y-97680250D01*
X104970797Y-97701074D01*
X104973947Y-97722309D01*
X104975000Y-97743750D01*
X104975000Y-98256250D01*
X104973947Y-98277691D01*
X104970797Y-98298926D01*
X104965581Y-98319750D01*
X104958349Y-98339962D01*
X104949170Y-98359368D01*
X104938134Y-98377781D01*
X104925346Y-98395024D01*
X104910930Y-98410930D01*
X104895024Y-98425346D01*
X104877781Y-98438134D01*
X104859368Y-98449170D01*
X104839962Y-98458349D01*
X104819750Y-98465581D01*
X104798926Y-98470797D01*
X104777691Y-98473947D01*
X104756250Y-98475000D01*
X104318750Y-98475000D01*
X104297309Y-98473947D01*
X104276074Y-98470797D01*
X104255250Y-98465581D01*
X104235038Y-98458349D01*
X104215632Y-98449170D01*
X104197219Y-98438134D01*
X104179976Y-98425346D01*
X104164070Y-98410930D01*
X104149654Y-98395024D01*
X104136866Y-98377781D01*
X104125830Y-98359368D01*
X104116651Y-98339962D01*
X104109419Y-98319750D01*
X104104203Y-98298926D01*
X104101053Y-98277691D01*
X104100000Y-98256250D01*
X104100000Y-97743750D01*
X104101053Y-97722309D01*
X104104203Y-97701074D01*
X104109419Y-97680250D01*
X104116651Y-97660038D01*
X104125830Y-97640632D01*
X104136866Y-97622219D01*
X104149654Y-97604976D01*
X104164070Y-97589070D01*
X104179976Y-97574654D01*
X104197219Y-97561866D01*
X104215632Y-97550830D01*
X104235038Y-97541651D01*
X104255250Y-97534419D01*
X104276074Y-97529203D01*
X104297309Y-97526053D01*
X104318750Y-97525000D01*
X104756250Y-97525000D01*
X104777691Y-97526053D01*
X104777691Y-97526053D01*
G37*
D13*
G04 #@! TD*
G04 #@! TO.P,D2,1*
G04 #@! TO.N,Net-(D2-Pad1)*
X104537500Y-98000000D03*
D15*
G04 #@! TO.P,J1,1*
G04 #@! TO.N,VDD*
X100000000Y-101250000D03*
D16*
G04 #@! TO.P,J1,2*
G04 #@! TO.N,GND*
X100000000Y-103790000D03*
G04 #@! TO.P,J1,3*
G04 #@! TO.N,RX*
X100000000Y-106330000D03*
G04 #@! TO.P,J1,4*
G04 #@! TO.N,TX*
X100000000Y-108870000D03*
G04 #@! TD*
D12*
G04 #@! TO.N,STAT*
G04 #@! TO.C,R2*
G36*
X108277691Y-97526053D02*
X108298926Y-97529203D01*
X108319750Y-97534419D01*
X108339962Y-97541651D01*
X108359368Y-97550830D01*
X108377781Y-97561866D01*
X108395024Y-97574654D01*
X108410930Y-97589070D01*
X108425346Y-97604976D01*
X108438134Y-97622219D01*
X108449170Y-97640632D01*
X108458349Y-97660038D01*
X108465581Y-97680250D01*
X108470797Y-97701074D01*
X108473947Y-97722309D01*
X108475000Y-97743750D01*
X108475000Y-98256250D01*
X108473947Y-98277691D01*
X108470797Y-98298926D01*
X108465581Y-98319750D01*
X108458349Y-98339962D01*
X108449170Y-98359368D01*
X108438134Y-98377781D01*
X108425346Y-98395024D01*
X108410930Y-98410930D01*
X108395024Y-98425346D01*
X108377781Y-98438134D01*
X108359368Y-98449170D01*
X108339962Y-98458349D01*
X108319750Y-98465581D01*
X108298926Y-98470797D01*
X108277691Y-98473947D01*
X108256250Y-98475000D01*
X107818750Y-98475000D01*
X107797309Y-98473947D01*
X107776074Y-98470797D01*
X107755250Y-98465581D01*
X107735038Y-98458349D01*
X107715632Y-98449170D01*
X107697219Y-98438134D01*
X107679976Y-98425346D01*
X107664070Y-98410930D01*
X107649654Y-98395024D01*
X107636866Y-98377781D01*
X107625830Y-98359368D01*
X107616651Y-98339962D01*
X107609419Y-98319750D01*
X107604203Y-98298926D01*
X107601053Y-98277691D01*
X107600000Y-98256250D01*
X107600000Y-97743750D01*
X107601053Y-97722309D01*
X107604203Y-97701074D01*
X107609419Y-97680250D01*
X107616651Y-97660038D01*
X107625830Y-97640632D01*
X107636866Y-97622219D01*
X107649654Y-97604976D01*
X107664070Y-97589070D01*
X107679976Y-97574654D01*
X107697219Y-97561866D01*
X107715632Y-97550830D01*
X107735038Y-97541651D01*
X107755250Y-97534419D01*
X107776074Y-97529203D01*
X107797309Y-97526053D01*
X107818750Y-97525000D01*
X108256250Y-97525000D01*
X108277691Y-97526053D01*
X108277691Y-97526053D01*
G37*
D13*
G04 #@! TD*
G04 #@! TO.P,R2,1*
G04 #@! TO.N,STAT*
X108037500Y-98000000D03*
D12*
G04 #@! TO.N,Net-(D2-Pad1)*
G04 #@! TO.C,R2*
G36*
X106702691Y-97526053D02*
X106723926Y-97529203D01*
X106744750Y-97534419D01*
X106764962Y-97541651D01*
X106784368Y-97550830D01*
X106802781Y-97561866D01*
X106820024Y-97574654D01*
X106835930Y-97589070D01*
X106850346Y-97604976D01*
X106863134Y-97622219D01*
X106874170Y-97640632D01*
X106883349Y-97660038D01*
X106890581Y-97680250D01*
X106895797Y-97701074D01*
X106898947Y-97722309D01*
X106900000Y-97743750D01*
X106900000Y-98256250D01*
X106898947Y-98277691D01*
X106895797Y-98298926D01*
X106890581Y-98319750D01*
X106883349Y-98339962D01*
X106874170Y-98359368D01*
X106863134Y-98377781D01*
X106850346Y-98395024D01*
X106835930Y-98410930D01*
X106820024Y-98425346D01*
X106802781Y-98438134D01*
X106784368Y-98449170D01*
X106764962Y-98458349D01*
X106744750Y-98465581D01*
X106723926Y-98470797D01*
X106702691Y-98473947D01*
X106681250Y-98475000D01*
X106243750Y-98475000D01*
X106222309Y-98473947D01*
X106201074Y-98470797D01*
X106180250Y-98465581D01*
X106160038Y-98458349D01*
X106140632Y-98449170D01*
X106122219Y-98438134D01*
X106104976Y-98425346D01*
X106089070Y-98410930D01*
X106074654Y-98395024D01*
X106061866Y-98377781D01*
X106050830Y-98359368D01*
X106041651Y-98339962D01*
X106034419Y-98319750D01*
X106029203Y-98298926D01*
X106026053Y-98277691D01*
X106025000Y-98256250D01*
X106025000Y-97743750D01*
X106026053Y-97722309D01*
X106029203Y-97701074D01*
X106034419Y-97680250D01*
X106041651Y-97660038D01*
X106050830Y-97640632D01*
X106061866Y-97622219D01*
X106074654Y-97604976D01*
X106089070Y-97589070D01*
X106104976Y-97574654D01*
X106122219Y-97561866D01*
X106140632Y-97550830D01*
X106160038Y-97541651D01*
X106180250Y-97534419D01*
X106201074Y-97529203D01*
X106222309Y-97526053D01*
X106243750Y-97525000D01*
X106681250Y-97525000D01*
X106702691Y-97526053D01*
X106702691Y-97526053D01*
G37*
D13*
G04 #@! TD*
G04 #@! TO.P,R2,2*
G04 #@! TO.N,Net-(D2-Pad1)*
X106462500Y-98000000D03*
D12*
G04 #@! TO.N,Net-(D3-Pad2)*
G04 #@! TO.C,R3*
G36*
X106702691Y-95526053D02*
X106723926Y-95529203D01*
X106744750Y-95534419D01*
X106764962Y-95541651D01*
X106784368Y-95550830D01*
X106802781Y-95561866D01*
X106820024Y-95574654D01*
X106835930Y-95589070D01*
X106850346Y-95604976D01*
X106863134Y-95622219D01*
X106874170Y-95640632D01*
X106883349Y-95660038D01*
X106890581Y-95680250D01*
X106895797Y-95701074D01*
X106898947Y-95722309D01*
X106900000Y-95743750D01*
X106900000Y-96256250D01*
X106898947Y-96277691D01*
X106895797Y-96298926D01*
X106890581Y-96319750D01*
X106883349Y-96339962D01*
X106874170Y-96359368D01*
X106863134Y-96377781D01*
X106850346Y-96395024D01*
X106835930Y-96410930D01*
X106820024Y-96425346D01*
X106802781Y-96438134D01*
X106784368Y-96449170D01*
X106764962Y-96458349D01*
X106744750Y-96465581D01*
X106723926Y-96470797D01*
X106702691Y-96473947D01*
X106681250Y-96475000D01*
X106243750Y-96475000D01*
X106222309Y-96473947D01*
X106201074Y-96470797D01*
X106180250Y-96465581D01*
X106160038Y-96458349D01*
X106140632Y-96449170D01*
X106122219Y-96438134D01*
X106104976Y-96425346D01*
X106089070Y-96410930D01*
X106074654Y-96395024D01*
X106061866Y-96377781D01*
X106050830Y-96359368D01*
X106041651Y-96339962D01*
X106034419Y-96319750D01*
X106029203Y-96298926D01*
X106026053Y-96277691D01*
X106025000Y-96256250D01*
X106025000Y-95743750D01*
X106026053Y-95722309D01*
X106029203Y-95701074D01*
X106034419Y-95680250D01*
X106041651Y-95660038D01*
X106050830Y-95640632D01*
X106061866Y-95622219D01*
X106074654Y-95604976D01*
X106089070Y-95589070D01*
X106104976Y-95574654D01*
X106122219Y-95561866D01*
X106140632Y-95550830D01*
X106160038Y-95541651D01*
X106180250Y-95534419D01*
X106201074Y-95529203D01*
X106222309Y-95526053D01*
X106243750Y-95525000D01*
X106681250Y-95525000D01*
X106702691Y-95526053D01*
X106702691Y-95526053D01*
G37*
D13*
G04 #@! TD*
G04 #@! TO.P,R3,2*
G04 #@! TO.N,Net-(D3-Pad2)*
X106462500Y-96000000D03*
D12*
G04 #@! TO.N,STAT*
G04 #@! TO.C,R3*
G36*
X108277691Y-95526053D02*
X108298926Y-95529203D01*
X108319750Y-95534419D01*
X108339962Y-95541651D01*
X108359368Y-95550830D01*
X108377781Y-95561866D01*
X108395024Y-95574654D01*
X108410930Y-95589070D01*
X108425346Y-95604976D01*
X108438134Y-95622219D01*
X108449170Y-95640632D01*
X108458349Y-95660038D01*
X108465581Y-95680250D01*
X108470797Y-95701074D01*
X108473947Y-95722309D01*
X108475000Y-95743750D01*
X108475000Y-96256250D01*
X108473947Y-96277691D01*
X108470797Y-96298926D01*
X108465581Y-96319750D01*
X108458349Y-96339962D01*
X108449170Y-96359368D01*
X108438134Y-96377781D01*
X108425346Y-96395024D01*
X108410930Y-96410930D01*
X108395024Y-96425346D01*
X108377781Y-96438134D01*
X108359368Y-96449170D01*
X108339962Y-96458349D01*
X108319750Y-96465581D01*
X108298926Y-96470797D01*
X108277691Y-96473947D01*
X108256250Y-96475000D01*
X107818750Y-96475000D01*
X107797309Y-96473947D01*
X107776074Y-96470797D01*
X107755250Y-96465581D01*
X107735038Y-96458349D01*
X107715632Y-96449170D01*
X107697219Y-96438134D01*
X107679976Y-96425346D01*
X107664070Y-96410930D01*
X107649654Y-96395024D01*
X107636866Y-96377781D01*
X107625830Y-96359368D01*
X107616651Y-96339962D01*
X107609419Y-96319750D01*
X107604203Y-96298926D01*
X107601053Y-96277691D01*
X107600000Y-96256250D01*
X107600000Y-95743750D01*
X107601053Y-95722309D01*
X107604203Y-95701074D01*
X107609419Y-95680250D01*
X107616651Y-95660038D01*
X107625830Y-95640632D01*
X107636866Y-95622219D01*
X107649654Y-95604976D01*
X107664070Y-95589070D01*
X107679976Y-95574654D01*
X107697219Y-95561866D01*
X107715632Y-95550830D01*
X107735038Y-95541651D01*
X107755250Y-95534419D01*
X107776074Y-95529203D01*
X107797309Y-95526053D01*
X107818750Y-95525000D01*
X108256250Y-95525000D01*
X108277691Y-95526053D01*
X108277691Y-95526053D01*
G37*
D13*
G04 #@! TD*
G04 #@! TO.P,R3,1*
G04 #@! TO.N,STAT*
X108037500Y-96000000D03*
D12*
G04 #@! TO.N,GND*
G04 #@! TO.C,RREF1*
G36*
X109027691Y-103276053D02*
X109048926Y-103279203D01*
X109069750Y-103284419D01*
X109089962Y-103291651D01*
X109109368Y-103300830D01*
X109127781Y-103311866D01*
X109145024Y-103324654D01*
X109160930Y-103339070D01*
X109175346Y-103354976D01*
X109188134Y-103372219D01*
X109199170Y-103390632D01*
X109208349Y-103410038D01*
X109215581Y-103430250D01*
X109220797Y-103451074D01*
X109223947Y-103472309D01*
X109225000Y-103493750D01*
X109225000Y-104006250D01*
X109223947Y-104027691D01*
X109220797Y-104048926D01*
X109215581Y-104069750D01*
X109208349Y-104089962D01*
X109199170Y-104109368D01*
X109188134Y-104127781D01*
X109175346Y-104145024D01*
X109160930Y-104160930D01*
X109145024Y-104175346D01*
X109127781Y-104188134D01*
X109109368Y-104199170D01*
X109089962Y-104208349D01*
X109069750Y-104215581D01*
X109048926Y-104220797D01*
X109027691Y-104223947D01*
X109006250Y-104225000D01*
X108568750Y-104225000D01*
X108547309Y-104223947D01*
X108526074Y-104220797D01*
X108505250Y-104215581D01*
X108485038Y-104208349D01*
X108465632Y-104199170D01*
X108447219Y-104188134D01*
X108429976Y-104175346D01*
X108414070Y-104160930D01*
X108399654Y-104145024D01*
X108386866Y-104127781D01*
X108375830Y-104109368D01*
X108366651Y-104089962D01*
X108359419Y-104069750D01*
X108354203Y-104048926D01*
X108351053Y-104027691D01*
X108350000Y-104006250D01*
X108350000Y-103493750D01*
X108351053Y-103472309D01*
X108354203Y-103451074D01*
X108359419Y-103430250D01*
X108366651Y-103410038D01*
X108375830Y-103390632D01*
X108386866Y-103372219D01*
X108399654Y-103354976D01*
X108414070Y-103339070D01*
X108429976Y-103324654D01*
X108447219Y-103311866D01*
X108465632Y-103300830D01*
X108485038Y-103291651D01*
X108505250Y-103284419D01*
X108526074Y-103279203D01*
X108547309Y-103276053D01*
X108568750Y-103275000D01*
X109006250Y-103275000D01*
X109027691Y-103276053D01*
X109027691Y-103276053D01*
G37*
D13*
G04 #@! TD*
G04 #@! TO.P,RREF1,1*
G04 #@! TO.N,GND*
X108787500Y-103750000D03*
D12*
G04 #@! TO.N,PROG*
G04 #@! TO.C,RREF1*
G36*
X107452691Y-103276053D02*
X107473926Y-103279203D01*
X107494750Y-103284419D01*
X107514962Y-103291651D01*
X107534368Y-103300830D01*
X107552781Y-103311866D01*
X107570024Y-103324654D01*
X107585930Y-103339070D01*
X107600346Y-103354976D01*
X107613134Y-103372219D01*
X107624170Y-103390632D01*
X107633349Y-103410038D01*
X107640581Y-103430250D01*
X107645797Y-103451074D01*
X107648947Y-103472309D01*
X107650000Y-103493750D01*
X107650000Y-104006250D01*
X107648947Y-104027691D01*
X107645797Y-104048926D01*
X107640581Y-104069750D01*
X107633349Y-104089962D01*
X107624170Y-104109368D01*
X107613134Y-104127781D01*
X107600346Y-104145024D01*
X107585930Y-104160930D01*
X107570024Y-104175346D01*
X107552781Y-104188134D01*
X107534368Y-104199170D01*
X107514962Y-104208349D01*
X107494750Y-104215581D01*
X107473926Y-104220797D01*
X107452691Y-104223947D01*
X107431250Y-104225000D01*
X106993750Y-104225000D01*
X106972309Y-104223947D01*
X106951074Y-104220797D01*
X106930250Y-104215581D01*
X106910038Y-104208349D01*
X106890632Y-104199170D01*
X106872219Y-104188134D01*
X106854976Y-104175346D01*
X106839070Y-104160930D01*
X106824654Y-104145024D01*
X106811866Y-104127781D01*
X106800830Y-104109368D01*
X106791651Y-104089962D01*
X106784419Y-104069750D01*
X106779203Y-104048926D01*
X106776053Y-104027691D01*
X106775000Y-104006250D01*
X106775000Y-103493750D01*
X106776053Y-103472309D01*
X106779203Y-103451074D01*
X106784419Y-103430250D01*
X106791651Y-103410038D01*
X106800830Y-103390632D01*
X106811866Y-103372219D01*
X106824654Y-103354976D01*
X106839070Y-103339070D01*
X106854976Y-103324654D01*
X106872219Y-103311866D01*
X106890632Y-103300830D01*
X106910038Y-103291651D01*
X106930250Y-103284419D01*
X106951074Y-103279203D01*
X106972309Y-103276053D01*
X106993750Y-103275000D01*
X107431250Y-103275000D01*
X107452691Y-103276053D01*
X107452691Y-103276053D01*
G37*
D13*
G04 #@! TD*
G04 #@! TO.P,RREF1,2*
G04 #@! TO.N,PROG*
X107212500Y-103750000D03*
D12*
G04 #@! TO.N,VBAT*
G04 #@! TO.C,D1*
G36*
X105277691Y-102851053D02*
X105298926Y-102854203D01*
X105319750Y-102859419D01*
X105339962Y-102866651D01*
X105359368Y-102875830D01*
X105377781Y-102886866D01*
X105395024Y-102899654D01*
X105410930Y-102914070D01*
X105425346Y-102929976D01*
X105438134Y-102947219D01*
X105449170Y-102965632D01*
X105458349Y-102985038D01*
X105465581Y-103005250D01*
X105470797Y-103026074D01*
X105473947Y-103047309D01*
X105475000Y-103068750D01*
X105475000Y-103506250D01*
X105473947Y-103527691D01*
X105470797Y-103548926D01*
X105465581Y-103569750D01*
X105458349Y-103589962D01*
X105449170Y-103609368D01*
X105438134Y-103627781D01*
X105425346Y-103645024D01*
X105410930Y-103660930D01*
X105395024Y-103675346D01*
X105377781Y-103688134D01*
X105359368Y-103699170D01*
X105339962Y-103708349D01*
X105319750Y-103715581D01*
X105298926Y-103720797D01*
X105277691Y-103723947D01*
X105256250Y-103725000D01*
X104743750Y-103725000D01*
X104722309Y-103723947D01*
X104701074Y-103720797D01*
X104680250Y-103715581D01*
X104660038Y-103708349D01*
X104640632Y-103699170D01*
X104622219Y-103688134D01*
X104604976Y-103675346D01*
X104589070Y-103660930D01*
X104574654Y-103645024D01*
X104561866Y-103627781D01*
X104550830Y-103609368D01*
X104541651Y-103589962D01*
X104534419Y-103569750D01*
X104529203Y-103548926D01*
X104526053Y-103527691D01*
X104525000Y-103506250D01*
X104525000Y-103068750D01*
X104526053Y-103047309D01*
X104529203Y-103026074D01*
X104534419Y-103005250D01*
X104541651Y-102985038D01*
X104550830Y-102965632D01*
X104561866Y-102947219D01*
X104574654Y-102929976D01*
X104589070Y-102914070D01*
X104604976Y-102899654D01*
X104622219Y-102886866D01*
X104640632Y-102875830D01*
X104660038Y-102866651D01*
X104680250Y-102859419D01*
X104701074Y-102854203D01*
X104722309Y-102851053D01*
X104743750Y-102850000D01*
X105256250Y-102850000D01*
X105277691Y-102851053D01*
X105277691Y-102851053D01*
G37*
D13*
G04 #@! TD*
G04 #@! TO.P,D1,2*
G04 #@! TO.N,VBAT*
X105000000Y-103287500D03*
D12*
G04 #@! TO.N,VDD*
G04 #@! TO.C,D1*
G36*
X105277691Y-101276053D02*
X105298926Y-101279203D01*
X105319750Y-101284419D01*
X105339962Y-101291651D01*
X105359368Y-101300830D01*
X105377781Y-101311866D01*
X105395024Y-101324654D01*
X105410930Y-101339070D01*
X105425346Y-101354976D01*
X105438134Y-101372219D01*
X105449170Y-101390632D01*
X105458349Y-101410038D01*
X105465581Y-101430250D01*
X105470797Y-101451074D01*
X105473947Y-101472309D01*
X105475000Y-101493750D01*
X105475000Y-101931250D01*
X105473947Y-101952691D01*
X105470797Y-101973926D01*
X105465581Y-101994750D01*
X105458349Y-102014962D01*
X105449170Y-102034368D01*
X105438134Y-102052781D01*
X105425346Y-102070024D01*
X105410930Y-102085930D01*
X105395024Y-102100346D01*
X105377781Y-102113134D01*
X105359368Y-102124170D01*
X105339962Y-102133349D01*
X105319750Y-102140581D01*
X105298926Y-102145797D01*
X105277691Y-102148947D01*
X105256250Y-102150000D01*
X104743750Y-102150000D01*
X104722309Y-102148947D01*
X104701074Y-102145797D01*
X104680250Y-102140581D01*
X104660038Y-102133349D01*
X104640632Y-102124170D01*
X104622219Y-102113134D01*
X104604976Y-102100346D01*
X104589070Y-102085930D01*
X104574654Y-102070024D01*
X104561866Y-102052781D01*
X104550830Y-102034368D01*
X104541651Y-102014962D01*
X104534419Y-101994750D01*
X104529203Y-101973926D01*
X104526053Y-101952691D01*
X104525000Y-101931250D01*
X104525000Y-101493750D01*
X104526053Y-101472309D01*
X104529203Y-101451074D01*
X104534419Y-101430250D01*
X104541651Y-101410038D01*
X104550830Y-101390632D01*
X104561866Y-101372219D01*
X104574654Y-101354976D01*
X104589070Y-101339070D01*
X104604976Y-101324654D01*
X104622219Y-101311866D01*
X104640632Y-101300830D01*
X104660038Y-101291651D01*
X104680250Y-101284419D01*
X104701074Y-101279203D01*
X104722309Y-101276053D01*
X104743750Y-101275000D01*
X105256250Y-101275000D01*
X105277691Y-101276053D01*
X105277691Y-101276053D01*
G37*
D13*
G04 #@! TD*
G04 #@! TO.P,D1,1*
G04 #@! TO.N,VDD*
X105000000Y-101712500D03*
D12*
G04 #@! TO.N,GND*
G04 #@! TO.C,D3*
G36*
X103202691Y-95526053D02*
X103223926Y-95529203D01*
X103244750Y-95534419D01*
X103264962Y-95541651D01*
X103284368Y-95550830D01*
X103302781Y-95561866D01*
X103320024Y-95574654D01*
X103335930Y-95589070D01*
X103350346Y-95604976D01*
X103363134Y-95622219D01*
X103374170Y-95640632D01*
X103383349Y-95660038D01*
X103390581Y-95680250D01*
X103395797Y-95701074D01*
X103398947Y-95722309D01*
X103400000Y-95743750D01*
X103400000Y-96256250D01*
X103398947Y-96277691D01*
X103395797Y-96298926D01*
X103390581Y-96319750D01*
X103383349Y-96339962D01*
X103374170Y-96359368D01*
X103363134Y-96377781D01*
X103350346Y-96395024D01*
X103335930Y-96410930D01*
X103320024Y-96425346D01*
X103302781Y-96438134D01*
X103284368Y-96449170D01*
X103264962Y-96458349D01*
X103244750Y-96465581D01*
X103223926Y-96470797D01*
X103202691Y-96473947D01*
X103181250Y-96475000D01*
X102743750Y-96475000D01*
X102722309Y-96473947D01*
X102701074Y-96470797D01*
X102680250Y-96465581D01*
X102660038Y-96458349D01*
X102640632Y-96449170D01*
X102622219Y-96438134D01*
X102604976Y-96425346D01*
X102589070Y-96410930D01*
X102574654Y-96395024D01*
X102561866Y-96377781D01*
X102550830Y-96359368D01*
X102541651Y-96339962D01*
X102534419Y-96319750D01*
X102529203Y-96298926D01*
X102526053Y-96277691D01*
X102525000Y-96256250D01*
X102525000Y-95743750D01*
X102526053Y-95722309D01*
X102529203Y-95701074D01*
X102534419Y-95680250D01*
X102541651Y-95660038D01*
X102550830Y-95640632D01*
X102561866Y-95622219D01*
X102574654Y-95604976D01*
X102589070Y-95589070D01*
X102604976Y-95574654D01*
X102622219Y-95561866D01*
X102640632Y-95550830D01*
X102660038Y-95541651D01*
X102680250Y-95534419D01*
X102701074Y-95529203D01*
X102722309Y-95526053D01*
X102743750Y-95525000D01*
X103181250Y-95525000D01*
X103202691Y-95526053D01*
X103202691Y-95526053D01*
G37*
D13*
G04 #@! TD*
G04 #@! TO.P,D3,1*
G04 #@! TO.N,GND*
X102962500Y-96000000D03*
D12*
G04 #@! TO.N,Net-(D3-Pad2)*
G04 #@! TO.C,D3*
G36*
X104777691Y-95526053D02*
X104798926Y-95529203D01*
X104819750Y-95534419D01*
X104839962Y-95541651D01*
X104859368Y-95550830D01*
X104877781Y-95561866D01*
X104895024Y-95574654D01*
X104910930Y-95589070D01*
X104925346Y-95604976D01*
X104938134Y-95622219D01*
X104949170Y-95640632D01*
X104958349Y-95660038D01*
X104965581Y-95680250D01*
X104970797Y-95701074D01*
X104973947Y-95722309D01*
X104975000Y-95743750D01*
X104975000Y-96256250D01*
X104973947Y-96277691D01*
X104970797Y-96298926D01*
X104965581Y-96319750D01*
X104958349Y-96339962D01*
X104949170Y-96359368D01*
X104938134Y-96377781D01*
X104925346Y-96395024D01*
X104910930Y-96410930D01*
X104895024Y-96425346D01*
X104877781Y-96438134D01*
X104859368Y-96449170D01*
X104839962Y-96458349D01*
X104819750Y-96465581D01*
X104798926Y-96470797D01*
X104777691Y-96473947D01*
X104756250Y-96475000D01*
X104318750Y-96475000D01*
X104297309Y-96473947D01*
X104276074Y-96470797D01*
X104255250Y-96465581D01*
X104235038Y-96458349D01*
X104215632Y-96449170D01*
X104197219Y-96438134D01*
X104179976Y-96425346D01*
X104164070Y-96410930D01*
X104149654Y-96395024D01*
X104136866Y-96377781D01*
X104125830Y-96359368D01*
X104116651Y-96339962D01*
X104109419Y-96319750D01*
X104104203Y-96298926D01*
X104101053Y-96277691D01*
X104100000Y-96256250D01*
X104100000Y-95743750D01*
X104101053Y-95722309D01*
X104104203Y-95701074D01*
X104109419Y-95680250D01*
X104116651Y-95660038D01*
X104125830Y-95640632D01*
X104136866Y-95622219D01*
X104149654Y-95604976D01*
X104164070Y-95589070D01*
X104179976Y-95574654D01*
X104197219Y-95561866D01*
X104215632Y-95550830D01*
X104235038Y-95541651D01*
X104255250Y-95534419D01*
X104276074Y-95529203D01*
X104297309Y-95526053D01*
X104318750Y-95525000D01*
X104756250Y-95525000D01*
X104777691Y-95526053D01*
X104777691Y-95526053D01*
G37*
D13*
G04 #@! TD*
G04 #@! TO.P,D3,2*
G04 #@! TO.N,Net-(D3-Pad2)*
X104537500Y-96000000D03*
D17*
G04 #@! TO.P,MH1,*
G04 #@! TO.N,*
X114000000Y-98000000D03*
G04 #@! TD*
G04 #@! TO.P,MH2,*
G04 #@! TO.N,*
X114000000Y-112000000D03*
G04 #@! TD*
D18*
G04 #@! TO.N,GND*
X110250000Y-101000000D03*
X109750000Y-103750000D03*
G04 #@! TO.N,VDD*
X105000000Y-100000000D03*
G04 #@! TO.N,VBAT*
X105000000Y-105000000D03*
G04 #@! TD*
D19*
G04 #@! TO.N,GND*
X109150000Y-101000000D02*
X109100000Y-101050000D01*
D20*
X109100000Y-101000000D02*
X110250000Y-101000000D01*
X109924264Y-101000000D02*
X110250000Y-101000000D01*
X110250000Y-101000000D02*
X109924264Y-101000000D01*
X108787500Y-103750000D02*
X109750000Y-103750000D01*
X109750000Y-103750000D02*
X109750000Y-103750000D01*
G04 #@! TO.N,VDD*
X102900000Y-98012500D02*
X102912500Y-98000000D01*
D19*
X102962500Y-99962500D02*
X103000000Y-100000000D01*
X102962500Y-98000000D02*
X102962500Y-99962500D01*
X106850000Y-100000000D02*
X106900000Y-100050000D01*
X103000000Y-100000000D02*
X105000000Y-100000000D01*
X105000000Y-100000000D02*
X106850000Y-100000000D01*
X105000000Y-100000000D02*
X105000000Y-100000000D01*
X101250000Y-100000000D02*
X100000000Y-101250000D01*
X103000000Y-100000000D02*
X101250000Y-100000000D01*
X105000000Y-101712500D02*
X105000000Y-100000000D01*
X105000000Y-100000000D02*
X105000000Y-100000000D01*
G04 #@! TO.N,VBAT*
X109100000Y-100050000D02*
X110550000Y-100050000D01*
X110500000Y-105000000D02*
X109250000Y-105000000D01*
X111250000Y-100750000D02*
X111250000Y-104250000D01*
X111250000Y-104250000D02*
X110500000Y-105000000D01*
X110550000Y-100050000D02*
X111250000Y-100750000D01*
X109250000Y-105000000D02*
X105000000Y-105000000D01*
X105000000Y-105000000D02*
X105000000Y-105000000D01*
X103037500Y-105000000D02*
X103000000Y-105037500D01*
X105000000Y-105000000D02*
X103037500Y-105000000D01*
X105000000Y-105000000D02*
X105000000Y-107500000D01*
X105000000Y-103287500D02*
X105000000Y-105000000D01*
D20*
G04 #@! TO.N,STAT*
X108037500Y-98000000D02*
X108037500Y-96000000D01*
X108000000Y-98037500D02*
X108037500Y-98000000D01*
X108200000Y-101950000D02*
X108000000Y-101750000D01*
X109100000Y-101950000D02*
X108200000Y-101950000D01*
X108000000Y-101750000D02*
X108000000Y-98037500D01*
D19*
G04 #@! TO.N,PROG*
X106900000Y-103437500D02*
X107212500Y-103750000D01*
X106900000Y-101950000D02*
X106900000Y-103437500D01*
D20*
G04 #@! TO.N,Net-(D2-Pad1)*
X106462500Y-98000000D02*
X104537500Y-98000000D01*
G04 #@! TO.N,Net-(D3-Pad2)*
X104537500Y-96000000D02*
X106462500Y-96000000D01*
G04 #@! TD*
G04 #@! TO.N,GND*
G36*
X101890000Y-95714250D02*
X102048750Y-95873000D01*
X102835500Y-95873000D01*
X102835500Y-95853000D01*
X103089500Y-95853000D01*
X103089500Y-95873000D01*
X103109500Y-95873000D01*
X103109500Y-96127000D01*
X103089500Y-96127000D01*
X103089500Y-96147000D01*
X102835500Y-96147000D01*
X102835500Y-96127000D01*
X102048750Y-96127000D01*
X101890000Y-96285750D01*
X101890000Y-96601310D01*
X101986673Y-96834699D01*
X102165302Y-97013327D01*
X102253245Y-97049754D01*
X102131261Y-97131261D01*
X101943495Y-97412273D01*
X101877560Y-97743750D01*
X101877560Y-98256250D01*
X101943495Y-98587727D01*
X102127500Y-98863111D01*
X102127501Y-99165000D01*
X101332237Y-99165000D01*
X101250000Y-99148642D01*
X101167763Y-99165000D01*
X100924199Y-99213448D01*
X100647999Y-99397999D01*
X100601415Y-99467717D01*
X100316572Y-99752560D01*
X99150000Y-99752560D01*
X98902235Y-99801843D01*
X98692191Y-99942191D01*
X98551843Y-100152235D01*
X98502560Y-100400000D01*
X98502560Y-102100000D01*
X98551843Y-102347765D01*
X98692191Y-102557809D01*
X98902235Y-102698157D01*
X99005708Y-102718739D01*
X98728355Y-103023076D01*
X98558524Y-103433110D01*
X98679845Y-103663000D01*
X99873000Y-103663000D01*
X99873000Y-103643000D01*
X100127000Y-103643000D01*
X100127000Y-103663000D01*
X101320155Y-103663000D01*
X101441476Y-103433110D01*
X101271645Y-103023076D01*
X100994292Y-102718739D01*
X101097765Y-102698157D01*
X101307809Y-102557809D01*
X101448157Y-102347765D01*
X101497440Y-102100000D01*
X101497440Y-101860750D01*
X101890000Y-101860750D01*
X101890000Y-102138809D01*
X101986673Y-102372198D01*
X102133224Y-102518750D01*
X101986673Y-102665302D01*
X101890000Y-102898691D01*
X101890000Y-103176750D01*
X102048750Y-103335500D01*
X102873000Y-103335500D01*
X102873000Y-102548750D01*
X102843000Y-102518750D01*
X102873000Y-102488750D01*
X102873000Y-101702000D01*
X102048750Y-101702000D01*
X101890000Y-101860750D01*
X101497440Y-101860750D01*
X101497440Y-100933428D01*
X101595868Y-100835000D01*
X101962981Y-100835000D01*
X101890000Y-101011191D01*
X101890000Y-101289250D01*
X102048750Y-101448000D01*
X102873000Y-101448000D01*
X102873000Y-101428000D01*
X103127000Y-101428000D01*
X103127000Y-101448000D01*
X103147000Y-101448000D01*
X103147000Y-101702000D01*
X103127000Y-101702000D01*
X103127000Y-102488750D01*
X103157000Y-102518750D01*
X103127000Y-102548750D01*
X103127000Y-103335500D01*
X103147000Y-103335500D01*
X103147000Y-103589500D01*
X103127000Y-103589500D01*
X103127000Y-103609500D01*
X102873000Y-103609500D01*
X102873000Y-103589500D01*
X102048750Y-103589500D01*
X101890000Y-103748250D01*
X101890000Y-104026309D01*
X101986673Y-104259698D01*
X102051943Y-104324969D01*
X101943495Y-104487273D01*
X101877560Y-104818750D01*
X101877560Y-105256250D01*
X101943495Y-105587727D01*
X102131261Y-105868739D01*
X102412273Y-106056505D01*
X102743750Y-106122440D01*
X103256250Y-106122440D01*
X103587727Y-106056505D01*
X103868739Y-105868739D01*
X103891283Y-105835000D01*
X103913359Y-105835000D01*
X103901843Y-105852235D01*
X103852560Y-106100000D01*
X103852560Y-108900000D01*
X103901843Y-109147765D01*
X104042191Y-109357809D01*
X104252235Y-109498157D01*
X104500000Y-109547440D01*
X105500000Y-109547440D01*
X105747765Y-109498157D01*
X105957809Y-109357809D01*
X105998654Y-109296680D01*
X106140302Y-109438327D01*
X106373691Y-109535000D01*
X106714250Y-109535000D01*
X106873000Y-109376250D01*
X106873000Y-107627000D01*
X107127000Y-107627000D01*
X107127000Y-109376250D01*
X107285750Y-109535000D01*
X107626309Y-109535000D01*
X107859698Y-109438327D01*
X108038327Y-109259699D01*
X108135000Y-109026310D01*
X108135000Y-107785750D01*
X107976250Y-107627000D01*
X107127000Y-107627000D01*
X106873000Y-107627000D01*
X106853000Y-107627000D01*
X106853000Y-107373000D01*
X106873000Y-107373000D01*
X106873000Y-107353000D01*
X107127000Y-107353000D01*
X107127000Y-107373000D01*
X107976250Y-107373000D01*
X108135000Y-107214250D01*
X108135000Y-105973690D01*
X108077553Y-105835000D01*
X110417767Y-105835000D01*
X110500000Y-105851357D01*
X110582233Y-105835000D01*
X110582237Y-105835000D01*
X110825801Y-105786552D01*
X111102001Y-105602001D01*
X111148587Y-105532280D01*
X111782282Y-104898586D01*
X111852001Y-104852001D01*
X112036552Y-104575801D01*
X112085000Y-104332237D01*
X112085000Y-104332234D01*
X112101357Y-104250001D01*
X112085000Y-104167768D01*
X112085000Y-100832232D01*
X112101357Y-100749999D01*
X112085000Y-100667764D01*
X112085000Y-100667763D01*
X112036552Y-100424199D01*
X112020383Y-100400000D01*
X111898584Y-100217715D01*
X111898583Y-100217714D01*
X111852001Y-100147999D01*
X111782285Y-100101417D01*
X111198587Y-99517719D01*
X111152001Y-99447999D01*
X110875801Y-99263448D01*
X110632237Y-99215000D01*
X110632233Y-99215000D01*
X110550000Y-99198643D01*
X110467767Y-99215000D01*
X110009700Y-99215000D01*
X109877765Y-99126843D01*
X109630000Y-99077560D01*
X108762000Y-99077560D01*
X108762000Y-98940060D01*
X108868739Y-98868739D01*
X109056505Y-98587727D01*
X109122440Y-98256250D01*
X109122440Y-97743750D01*
X109056505Y-97412273D01*
X108868739Y-97131261D01*
X108799500Y-97084997D01*
X108799500Y-96915003D01*
X108868739Y-96868739D01*
X109056505Y-96587727D01*
X109122440Y-96256250D01*
X109122440Y-95743750D01*
X109115727Y-95710000D01*
X114705910Y-95710000D01*
X114984597Y-95988687D01*
X114444569Y-95765000D01*
X113555431Y-95765000D01*
X112733974Y-96105259D01*
X112105259Y-96733974D01*
X111765000Y-97555431D01*
X111765000Y-98444569D01*
X112105259Y-99266026D01*
X112733974Y-99894741D01*
X113555431Y-100235000D01*
X114444569Y-100235000D01*
X115266026Y-99894741D01*
X115894741Y-99266026D01*
X116235000Y-98444569D01*
X116235000Y-97555431D01*
X116011314Y-97015405D01*
X116790000Y-97794092D01*
X116790001Y-112205907D01*
X116011314Y-112984595D01*
X116235000Y-112444569D01*
X116235000Y-111555431D01*
X115894741Y-110733974D01*
X115266026Y-110105259D01*
X114444569Y-109765000D01*
X113555431Y-109765000D01*
X112733974Y-110105259D01*
X112105259Y-110733974D01*
X111765000Y-111555431D01*
X111765000Y-112444569D01*
X112105259Y-113266026D01*
X112733974Y-113894741D01*
X113555431Y-114235000D01*
X114444569Y-114235000D01*
X114984597Y-114011313D01*
X114705910Y-114290000D01*
X110647440Y-114290000D01*
X110647440Y-111750000D01*
X110598157Y-111502235D01*
X110457809Y-111292191D01*
X110247765Y-111151843D01*
X110000000Y-111102560D01*
X108500000Y-111102560D01*
X108252235Y-111151843D01*
X108042191Y-111292191D01*
X107901843Y-111502235D01*
X107852560Y-111750000D01*
X107852560Y-114290000D01*
X104147440Y-114290000D01*
X104147440Y-111750000D01*
X104098157Y-111502235D01*
X103957809Y-111292191D01*
X103747765Y-111151843D01*
X103500000Y-111102560D01*
X102000000Y-111102560D01*
X101752235Y-111151843D01*
X101542191Y-111292191D01*
X101401843Y-111502235D01*
X101352560Y-111750000D01*
X101352560Y-114290000D01*
X100294092Y-114290000D01*
X98210000Y-112205910D01*
X98210000Y-106330000D01*
X98485908Y-106330000D01*
X98601161Y-106909418D01*
X98929375Y-107400625D01*
X99227761Y-107600000D01*
X98929375Y-107799375D01*
X98601161Y-108290582D01*
X98485908Y-108870000D01*
X98601161Y-109449418D01*
X98929375Y-109940625D01*
X99420582Y-110268839D01*
X99853744Y-110355000D01*
X100146256Y-110355000D01*
X100579418Y-110268839D01*
X101070625Y-109940625D01*
X101398839Y-109449418D01*
X101514092Y-108870000D01*
X101398839Y-108290582D01*
X101070625Y-107799375D01*
X100772239Y-107600000D01*
X101070625Y-107400625D01*
X101398839Y-106909418D01*
X101514092Y-106330000D01*
X101398839Y-105750582D01*
X101070625Y-105259375D01*
X100751522Y-105046157D01*
X100881358Y-104985183D01*
X101271645Y-104556924D01*
X101441476Y-104146890D01*
X101320155Y-103917000D01*
X100127000Y-103917000D01*
X100127000Y-103937000D01*
X99873000Y-103937000D01*
X99873000Y-103917000D01*
X98679845Y-103917000D01*
X98558524Y-104146890D01*
X98728355Y-104556924D01*
X99118642Y-104985183D01*
X99248478Y-105046157D01*
X98929375Y-105259375D01*
X98601161Y-105750582D01*
X98485908Y-106330000D01*
X98210000Y-106330000D01*
X98210000Y-97794090D01*
X100294092Y-95710000D01*
X101890000Y-95710000D01*
X101890000Y-95714250D01*
X101890000Y-95714250D01*
G37*
X101890000Y-95714250D02*
X102048750Y-95873000D01*
X102835500Y-95873000D01*
X102835500Y-95853000D01*
X103089500Y-95853000D01*
X103089500Y-95873000D01*
X103109500Y-95873000D01*
X103109500Y-96127000D01*
X103089500Y-96127000D01*
X103089500Y-96147000D01*
X102835500Y-96147000D01*
X102835500Y-96127000D01*
X102048750Y-96127000D01*
X101890000Y-96285750D01*
X101890000Y-96601310D01*
X101986673Y-96834699D01*
X102165302Y-97013327D01*
X102253245Y-97049754D01*
X102131261Y-97131261D01*
X101943495Y-97412273D01*
X101877560Y-97743750D01*
X101877560Y-98256250D01*
X101943495Y-98587727D01*
X102127500Y-98863111D01*
X102127501Y-99165000D01*
X101332237Y-99165000D01*
X101250000Y-99148642D01*
X101167763Y-99165000D01*
X100924199Y-99213448D01*
X100647999Y-99397999D01*
X100601415Y-99467717D01*
X100316572Y-99752560D01*
X99150000Y-99752560D01*
X98902235Y-99801843D01*
X98692191Y-99942191D01*
X98551843Y-100152235D01*
X98502560Y-100400000D01*
X98502560Y-102100000D01*
X98551843Y-102347765D01*
X98692191Y-102557809D01*
X98902235Y-102698157D01*
X99005708Y-102718739D01*
X98728355Y-103023076D01*
X98558524Y-103433110D01*
X98679845Y-103663000D01*
X99873000Y-103663000D01*
X99873000Y-103643000D01*
X100127000Y-103643000D01*
X100127000Y-103663000D01*
X101320155Y-103663000D01*
X101441476Y-103433110D01*
X101271645Y-103023076D01*
X100994292Y-102718739D01*
X101097765Y-102698157D01*
X101307809Y-102557809D01*
X101448157Y-102347765D01*
X101497440Y-102100000D01*
X101497440Y-101860750D01*
X101890000Y-101860750D01*
X101890000Y-102138809D01*
X101986673Y-102372198D01*
X102133224Y-102518750D01*
X101986673Y-102665302D01*
X101890000Y-102898691D01*
X101890000Y-103176750D01*
X102048750Y-103335500D01*
X102873000Y-103335500D01*
X102873000Y-102548750D01*
X102843000Y-102518750D01*
X102873000Y-102488750D01*
X102873000Y-101702000D01*
X102048750Y-101702000D01*
X101890000Y-101860750D01*
X101497440Y-101860750D01*
X101497440Y-100933428D01*
X101595868Y-100835000D01*
X101962981Y-100835000D01*
X101890000Y-101011191D01*
X101890000Y-101289250D01*
X102048750Y-101448000D01*
X102873000Y-101448000D01*
X102873000Y-101428000D01*
X103127000Y-101428000D01*
X103127000Y-101448000D01*
X103147000Y-101448000D01*
X103147000Y-101702000D01*
X103127000Y-101702000D01*
X103127000Y-102488750D01*
X103157000Y-102518750D01*
X103127000Y-102548750D01*
X103127000Y-103335500D01*
X103147000Y-103335500D01*
X103147000Y-103589500D01*
X103127000Y-103589500D01*
X103127000Y-103609500D01*
X102873000Y-103609500D01*
X102873000Y-103589500D01*
X102048750Y-103589500D01*
X101890000Y-103748250D01*
X101890000Y-104026309D01*
X101986673Y-104259698D01*
X102051943Y-104324969D01*
X101943495Y-104487273D01*
X101877560Y-104818750D01*
X101877560Y-105256250D01*
X101943495Y-105587727D01*
X102131261Y-105868739D01*
X102412273Y-106056505D01*
X102743750Y-106122440D01*
X103256250Y-106122440D01*
X103587727Y-106056505D01*
X103868739Y-105868739D01*
X103891283Y-105835000D01*
X103913359Y-105835000D01*
X103901843Y-105852235D01*
X103852560Y-106100000D01*
X103852560Y-108900000D01*
X103901843Y-109147765D01*
X104042191Y-109357809D01*
X104252235Y-109498157D01*
X104500000Y-109547440D01*
X105500000Y-109547440D01*
X105747765Y-109498157D01*
X105957809Y-109357809D01*
X105998654Y-109296680D01*
X106140302Y-109438327D01*
X106373691Y-109535000D01*
X106714250Y-109535000D01*
X106873000Y-109376250D01*
X106873000Y-107627000D01*
X107127000Y-107627000D01*
X107127000Y-109376250D01*
X107285750Y-109535000D01*
X107626309Y-109535000D01*
X107859698Y-109438327D01*
X108038327Y-109259699D01*
X108135000Y-109026310D01*
X108135000Y-107785750D01*
X107976250Y-107627000D01*
X107127000Y-107627000D01*
X106873000Y-107627000D01*
X106853000Y-107627000D01*
X106853000Y-107373000D01*
X106873000Y-107373000D01*
X106873000Y-107353000D01*
X107127000Y-107353000D01*
X107127000Y-107373000D01*
X107976250Y-107373000D01*
X108135000Y-107214250D01*
X108135000Y-105973690D01*
X108077553Y-105835000D01*
X110417767Y-105835000D01*
X110500000Y-105851357D01*
X110582233Y-105835000D01*
X110582237Y-105835000D01*
X110825801Y-105786552D01*
X111102001Y-105602001D01*
X111148587Y-105532280D01*
X111782282Y-104898586D01*
X111852001Y-104852001D01*
X112036552Y-104575801D01*
X112085000Y-104332237D01*
X112085000Y-104332234D01*
X112101357Y-104250001D01*
X112085000Y-104167768D01*
X112085000Y-100832232D01*
X112101357Y-100749999D01*
X112085000Y-100667764D01*
X112085000Y-100667763D01*
X112036552Y-100424199D01*
X112020383Y-100400000D01*
X111898584Y-100217715D01*
X111898583Y-100217714D01*
X111852001Y-100147999D01*
X111782285Y-100101417D01*
X111198587Y-99517719D01*
X111152001Y-99447999D01*
X110875801Y-99263448D01*
X110632237Y-99215000D01*
X110632233Y-99215000D01*
X110550000Y-99198643D01*
X110467767Y-99215000D01*
X110009700Y-99215000D01*
X109877765Y-99126843D01*
X109630000Y-99077560D01*
X108762000Y-99077560D01*
X108762000Y-98940060D01*
X108868739Y-98868739D01*
X109056505Y-98587727D01*
X109122440Y-98256250D01*
X109122440Y-97743750D01*
X109056505Y-97412273D01*
X108868739Y-97131261D01*
X108799500Y-97084997D01*
X108799500Y-96915003D01*
X108868739Y-96868739D01*
X109056505Y-96587727D01*
X109122440Y-96256250D01*
X109122440Y-95743750D01*
X109115727Y-95710000D01*
X114705910Y-95710000D01*
X114984597Y-95988687D01*
X114444569Y-95765000D01*
X113555431Y-95765000D01*
X112733974Y-96105259D01*
X112105259Y-96733974D01*
X111765000Y-97555431D01*
X111765000Y-98444569D01*
X112105259Y-99266026D01*
X112733974Y-99894741D01*
X113555431Y-100235000D01*
X114444569Y-100235000D01*
X115266026Y-99894741D01*
X115894741Y-99266026D01*
X116235000Y-98444569D01*
X116235000Y-97555431D01*
X116011314Y-97015405D01*
X116790000Y-97794092D01*
X116790001Y-112205907D01*
X116011314Y-112984595D01*
X116235000Y-112444569D01*
X116235000Y-111555431D01*
X115894741Y-110733974D01*
X115266026Y-110105259D01*
X114444569Y-109765000D01*
X113555431Y-109765000D01*
X112733974Y-110105259D01*
X112105259Y-110733974D01*
X111765000Y-111555431D01*
X111765000Y-112444569D01*
X112105259Y-113266026D01*
X112733974Y-113894741D01*
X113555431Y-114235000D01*
X114444569Y-114235000D01*
X114984597Y-114011313D01*
X114705910Y-114290000D01*
X110647440Y-114290000D01*
X110647440Y-111750000D01*
X110598157Y-111502235D01*
X110457809Y-111292191D01*
X110247765Y-111151843D01*
X110000000Y-111102560D01*
X108500000Y-111102560D01*
X108252235Y-111151843D01*
X108042191Y-111292191D01*
X107901843Y-111502235D01*
X107852560Y-111750000D01*
X107852560Y-114290000D01*
X104147440Y-114290000D01*
X104147440Y-111750000D01*
X104098157Y-111502235D01*
X103957809Y-111292191D01*
X103747765Y-111151843D01*
X103500000Y-111102560D01*
X102000000Y-111102560D01*
X101752235Y-111151843D01*
X101542191Y-111292191D01*
X101401843Y-111502235D01*
X101352560Y-111750000D01*
X101352560Y-114290000D01*
X100294092Y-114290000D01*
X98210000Y-112205910D01*
X98210000Y-106330000D01*
X98485908Y-106330000D01*
X98601161Y-106909418D01*
X98929375Y-107400625D01*
X99227761Y-107600000D01*
X98929375Y-107799375D01*
X98601161Y-108290582D01*
X98485908Y-108870000D01*
X98601161Y-109449418D01*
X98929375Y-109940625D01*
X99420582Y-110268839D01*
X99853744Y-110355000D01*
X100146256Y-110355000D01*
X100579418Y-110268839D01*
X101070625Y-109940625D01*
X101398839Y-109449418D01*
X101514092Y-108870000D01*
X101398839Y-108290582D01*
X101070625Y-107799375D01*
X100772239Y-107600000D01*
X101070625Y-107400625D01*
X101398839Y-106909418D01*
X101514092Y-106330000D01*
X101398839Y-105750582D01*
X101070625Y-105259375D01*
X100751522Y-105046157D01*
X100881358Y-104985183D01*
X101271645Y-104556924D01*
X101441476Y-104146890D01*
X101320155Y-103917000D01*
X100127000Y-103917000D01*
X100127000Y-103937000D01*
X99873000Y-103937000D01*
X99873000Y-103917000D01*
X98679845Y-103917000D01*
X98558524Y-104146890D01*
X98728355Y-104556924D01*
X99118642Y-104985183D01*
X99248478Y-105046157D01*
X98929375Y-105259375D01*
X98601161Y-105750582D01*
X98485908Y-106330000D01*
X98210000Y-106330000D01*
X98210000Y-97794090D01*
X100294092Y-95710000D01*
X101890000Y-95710000D01*
X101890000Y-95714250D01*
G36*
X110415000Y-101095868D02*
X110415001Y-103904131D01*
X110154133Y-104165000D01*
X109860000Y-104165000D01*
X109860000Y-104035750D01*
X109701250Y-103877000D01*
X108914500Y-103877000D01*
X108914500Y-103897000D01*
X108660500Y-103897000D01*
X108660500Y-103877000D01*
X108640500Y-103877000D01*
X108640500Y-103623000D01*
X108660500Y-103623000D01*
X108660500Y-103603000D01*
X108914500Y-103603000D01*
X108914500Y-103623000D01*
X109701250Y-103623000D01*
X109860000Y-103464250D01*
X109860000Y-103148690D01*
X109763327Y-102915301D01*
X109747161Y-102899135D01*
X109877765Y-102873157D01*
X110087809Y-102732809D01*
X110228157Y-102522765D01*
X110277440Y-102275000D01*
X110277440Y-101625000D01*
X110250064Y-101487369D01*
X110265000Y-101451310D01*
X110265000Y-101285750D01*
X110106250Y-101127000D01*
X110027659Y-101127000D01*
X109877765Y-101026843D01*
X109742815Y-101000000D01*
X109877765Y-100973157D01*
X110009700Y-100885000D01*
X110204132Y-100885000D01*
X110415000Y-101095868D01*
X110415000Y-101095868D01*
G37*
X110415000Y-101095868D02*
X110415001Y-103904131D01*
X110154133Y-104165000D01*
X109860000Y-104165000D01*
X109860000Y-104035750D01*
X109701250Y-103877000D01*
X108914500Y-103877000D01*
X108914500Y-103897000D01*
X108660500Y-103897000D01*
X108660500Y-103877000D01*
X108640500Y-103877000D01*
X108640500Y-103623000D01*
X108660500Y-103623000D01*
X108660500Y-103603000D01*
X108914500Y-103603000D01*
X108914500Y-103623000D01*
X109701250Y-103623000D01*
X109860000Y-103464250D01*
X109860000Y-103148690D01*
X109763327Y-102915301D01*
X109747161Y-102899135D01*
X109877765Y-102873157D01*
X110087809Y-102732809D01*
X110228157Y-102522765D01*
X110277440Y-102275000D01*
X110277440Y-101625000D01*
X110250064Y-101487369D01*
X110265000Y-101451310D01*
X110265000Y-101285750D01*
X110106250Y-101127000D01*
X110027659Y-101127000D01*
X109877765Y-101026843D01*
X109742815Y-101000000D01*
X109877765Y-100973157D01*
X110009700Y-100885000D01*
X110204132Y-100885000D01*
X110415000Y-101095868D01*
G04 #@! TD*
M02*
