G04 #@! TF.GenerationSoftware,KiCad,Pcbnew,(5.0.0-3-g5ebb6b6)*
G04 #@! TF.CreationDate,2020-02-18T17:20:26-05:00*
G04 #@! TF.ProjectId,Project,50726F6A6563742E6B696361645F7063,rev?*
G04 #@! TF.SameCoordinates,Original*
G04 #@! TF.FileFunction,Legend,Bot*
G04 #@! TF.FilePolarity,Positive*
%FSLAX46Y46*%
G04 Gerber Fmt 4.6, Leading zero omitted, Abs format (unit mm)*
G04 Created by KiCad (PCBNEW (5.0.0-3-g5ebb6b6)) date Tuesday, February 18, 2020 at 05:20:26 PM*
%MOMM*%
%LPD*%
G01*
G04 APERTURE LIST*
%ADD10C,0.200000*%
G04 APERTURE END LIST*
D10*
X103665714Y-103250000D02*
X103760952Y-103202380D01*
X103903809Y-103202380D01*
X104046666Y-103250000D01*
X104141904Y-103345238D01*
X104189523Y-103440476D01*
X104237142Y-103630952D01*
X104237142Y-103773809D01*
X104189523Y-103964285D01*
X104141904Y-104059523D01*
X104046666Y-104154761D01*
X103903809Y-104202380D01*
X103808571Y-104202380D01*
X103665714Y-104154761D01*
X103618095Y-104107142D01*
X103618095Y-103773809D01*
X103808571Y-103773809D01*
X103189523Y-104202380D02*
X103189523Y-103202380D01*
X102618095Y-104202380D01*
X102618095Y-103202380D01*
X102141904Y-104202380D02*
X102141904Y-103202380D01*
X101903809Y-103202380D01*
X101760952Y-103250000D01*
X101665714Y-103345238D01*
X101618095Y-103440476D01*
X101570476Y-103630952D01*
X101570476Y-103773809D01*
X101618095Y-103964285D01*
X101665714Y-104059523D01*
X101760952Y-104154761D01*
X101903809Y-104202380D01*
X102141904Y-104202380D01*
X104141904Y-100702380D02*
X103808571Y-101702380D01*
X103475238Y-100702380D01*
X103141904Y-101702380D02*
X103141904Y-100702380D01*
X102903809Y-100702380D01*
X102760952Y-100750000D01*
X102665714Y-100845238D01*
X102618095Y-100940476D01*
X102570476Y-101130952D01*
X102570476Y-101273809D01*
X102618095Y-101464285D01*
X102665714Y-101559523D01*
X102760952Y-101654761D01*
X102903809Y-101702380D01*
X103141904Y-101702380D01*
X102141904Y-101702380D02*
X102141904Y-100702380D01*
X101903809Y-100702380D01*
X101760952Y-100750000D01*
X101665714Y-100845238D01*
X101618095Y-100940476D01*
X101570476Y-101130952D01*
X101570476Y-101273809D01*
X101618095Y-101464285D01*
X101665714Y-101559523D01*
X101760952Y-101654761D01*
X101903809Y-101702380D01*
X102141904Y-101702380D01*
M02*
