G04 #@! TF.GenerationSoftware,KiCad,Pcbnew,(5.0.0-3-g5ebb6b6)*
G04 #@! TF.CreationDate,2020-02-18T17:20:26-05:00*
G04 #@! TF.ProjectId,Project,50726F6A6563742E6B696361645F7063,rev?*
G04 #@! TF.SameCoordinates,Original*
G04 #@! TF.FileFunction,Copper,L2,Bot,Signal*
G04 #@! TF.FilePolarity,Positive*
%FSLAX46Y46*%
G04 Gerber Fmt 4.6, Leading zero omitted, Abs format (unit mm)*
G04 Created by KiCad (PCBNEW (5.0.0-3-g5ebb6b6)) date Tuesday, February 18, 2020 at 05:20:26 PM*
%MOMM*%
%LPD*%
G01*
G04 APERTURE LIST*
G04 #@! TA.AperFunction,ComponentPad*
%ADD10R,1.700000X1.700000*%
G04 #@! TD*
G04 #@! TA.AperFunction,ComponentPad*
%ADD11O,1.700000X1.700000*%
G04 #@! TD*
G04 #@! TA.AperFunction,ComponentPad*
%ADD12C,3.200000*%
G04 #@! TD*
G04 #@! TA.AperFunction,ViaPad*
%ADD13C,0.600000*%
G04 #@! TD*
G04 #@! TA.AperFunction,Conductor*
%ADD14C,0.254000*%
G04 #@! TD*
G04 APERTURE END LIST*
D10*
G04 #@! TO.P,J1,1*
G04 #@! TO.N,VDD*
X100000000Y-101250000D03*
D11*
G04 #@! TO.P,J1,2*
G04 #@! TO.N,GND*
X100000000Y-103790000D03*
G04 #@! TO.P,J1,3*
G04 #@! TO.N,RX*
X100000000Y-106330000D03*
G04 #@! TO.P,J1,4*
G04 #@! TO.N,TX*
X100000000Y-108870000D03*
G04 #@! TD*
D12*
G04 #@! TO.P,MH1,*
G04 #@! TO.N,*
X114000000Y-98000000D03*
G04 #@! TD*
G04 #@! TO.P,MH2,*
G04 #@! TO.N,*
X114000000Y-112000000D03*
G04 #@! TD*
D13*
G04 #@! TO.N,GND*
X110250000Y-101000000D03*
X109750000Y-103750000D03*
G04 #@! TO.N,VDD*
X105000000Y-100000000D03*
G04 #@! TO.N,VBAT*
X105000000Y-105000000D03*
G04 #@! TD*
D14*
G04 #@! TO.N,GND*
G36*
X114984597Y-95988687D02*
X114444569Y-95765000D01*
X113555431Y-95765000D01*
X112733974Y-96105259D01*
X112105259Y-96733974D01*
X111765000Y-97555431D01*
X111765000Y-98444569D01*
X112105259Y-99266026D01*
X112733974Y-99894741D01*
X113555431Y-100235000D01*
X114444569Y-100235000D01*
X115266026Y-99894741D01*
X115894741Y-99266026D01*
X116235000Y-98444569D01*
X116235000Y-97555431D01*
X116011314Y-97015405D01*
X116790000Y-97794092D01*
X116790001Y-112205907D01*
X116011314Y-112984595D01*
X116235000Y-112444569D01*
X116235000Y-111555431D01*
X115894741Y-110733974D01*
X115266026Y-110105259D01*
X114444569Y-109765000D01*
X113555431Y-109765000D01*
X112733974Y-110105259D01*
X112105259Y-110733974D01*
X111765000Y-111555431D01*
X111765000Y-112444569D01*
X112105259Y-113266026D01*
X112733974Y-113894741D01*
X113555431Y-114235000D01*
X114444569Y-114235000D01*
X114984597Y-114011313D01*
X114705910Y-114290000D01*
X100294092Y-114290000D01*
X98210000Y-112205910D01*
X98210000Y-106330000D01*
X98485908Y-106330000D01*
X98601161Y-106909418D01*
X98929375Y-107400625D01*
X99227761Y-107600000D01*
X98929375Y-107799375D01*
X98601161Y-108290582D01*
X98485908Y-108870000D01*
X98601161Y-109449418D01*
X98929375Y-109940625D01*
X99420582Y-110268839D01*
X99853744Y-110355000D01*
X100146256Y-110355000D01*
X100579418Y-110268839D01*
X101070625Y-109940625D01*
X101398839Y-109449418D01*
X101514092Y-108870000D01*
X101398839Y-108290582D01*
X101070625Y-107799375D01*
X100772239Y-107600000D01*
X101070625Y-107400625D01*
X101398839Y-106909418D01*
X101514092Y-106330000D01*
X101398839Y-105750582D01*
X101070625Y-105259375D01*
X100751522Y-105046157D01*
X100881358Y-104985183D01*
X101037347Y-104814017D01*
X104065000Y-104814017D01*
X104065000Y-105185983D01*
X104207345Y-105529635D01*
X104470365Y-105792655D01*
X104814017Y-105935000D01*
X105185983Y-105935000D01*
X105529635Y-105792655D01*
X105792655Y-105529635D01*
X105935000Y-105185983D01*
X105935000Y-104814017D01*
X105792655Y-104470365D01*
X105529635Y-104207345D01*
X105185983Y-104065000D01*
X104814017Y-104065000D01*
X104470365Y-104207345D01*
X104207345Y-104470365D01*
X104065000Y-104814017D01*
X101037347Y-104814017D01*
X101271645Y-104556924D01*
X101441476Y-104146890D01*
X101320155Y-103917000D01*
X100127000Y-103917000D01*
X100127000Y-103937000D01*
X99873000Y-103937000D01*
X99873000Y-103917000D01*
X98679845Y-103917000D01*
X98558524Y-104146890D01*
X98728355Y-104556924D01*
X99118642Y-104985183D01*
X99248478Y-105046157D01*
X98929375Y-105259375D01*
X98601161Y-105750582D01*
X98485908Y-106330000D01*
X98210000Y-106330000D01*
X98210000Y-100400000D01*
X98502560Y-100400000D01*
X98502560Y-102100000D01*
X98551843Y-102347765D01*
X98692191Y-102557809D01*
X98902235Y-102698157D01*
X99005708Y-102718739D01*
X98728355Y-103023076D01*
X98558524Y-103433110D01*
X98679845Y-103663000D01*
X99873000Y-103663000D01*
X99873000Y-103643000D01*
X100127000Y-103643000D01*
X100127000Y-103663000D01*
X101320155Y-103663000D01*
X101441476Y-103433110D01*
X101271645Y-103023076D01*
X100994292Y-102718739D01*
X101097765Y-102698157D01*
X101307809Y-102557809D01*
X101448157Y-102347765D01*
X101497440Y-102100000D01*
X101497440Y-100400000D01*
X101448157Y-100152235D01*
X101307809Y-99942191D01*
X101115985Y-99814017D01*
X104065000Y-99814017D01*
X104065000Y-100185983D01*
X104207345Y-100529635D01*
X104470365Y-100792655D01*
X104814017Y-100935000D01*
X105185983Y-100935000D01*
X105529635Y-100792655D01*
X105792655Y-100529635D01*
X105935000Y-100185983D01*
X105935000Y-99814017D01*
X105792655Y-99470365D01*
X105529635Y-99207345D01*
X105185983Y-99065000D01*
X104814017Y-99065000D01*
X104470365Y-99207345D01*
X104207345Y-99470365D01*
X104065000Y-99814017D01*
X101115985Y-99814017D01*
X101097765Y-99801843D01*
X100850000Y-99752560D01*
X99150000Y-99752560D01*
X98902235Y-99801843D01*
X98692191Y-99942191D01*
X98551843Y-100152235D01*
X98502560Y-100400000D01*
X98210000Y-100400000D01*
X98210000Y-97794090D01*
X100294092Y-95710000D01*
X114705910Y-95710000D01*
X114984597Y-95988687D01*
X114984597Y-95988687D01*
G37*
X114984597Y-95988687D02*
X114444569Y-95765000D01*
X113555431Y-95765000D01*
X112733974Y-96105259D01*
X112105259Y-96733974D01*
X111765000Y-97555431D01*
X111765000Y-98444569D01*
X112105259Y-99266026D01*
X112733974Y-99894741D01*
X113555431Y-100235000D01*
X114444569Y-100235000D01*
X115266026Y-99894741D01*
X115894741Y-99266026D01*
X116235000Y-98444569D01*
X116235000Y-97555431D01*
X116011314Y-97015405D01*
X116790000Y-97794092D01*
X116790001Y-112205907D01*
X116011314Y-112984595D01*
X116235000Y-112444569D01*
X116235000Y-111555431D01*
X115894741Y-110733974D01*
X115266026Y-110105259D01*
X114444569Y-109765000D01*
X113555431Y-109765000D01*
X112733974Y-110105259D01*
X112105259Y-110733974D01*
X111765000Y-111555431D01*
X111765000Y-112444569D01*
X112105259Y-113266026D01*
X112733974Y-113894741D01*
X113555431Y-114235000D01*
X114444569Y-114235000D01*
X114984597Y-114011313D01*
X114705910Y-114290000D01*
X100294092Y-114290000D01*
X98210000Y-112205910D01*
X98210000Y-106330000D01*
X98485908Y-106330000D01*
X98601161Y-106909418D01*
X98929375Y-107400625D01*
X99227761Y-107600000D01*
X98929375Y-107799375D01*
X98601161Y-108290582D01*
X98485908Y-108870000D01*
X98601161Y-109449418D01*
X98929375Y-109940625D01*
X99420582Y-110268839D01*
X99853744Y-110355000D01*
X100146256Y-110355000D01*
X100579418Y-110268839D01*
X101070625Y-109940625D01*
X101398839Y-109449418D01*
X101514092Y-108870000D01*
X101398839Y-108290582D01*
X101070625Y-107799375D01*
X100772239Y-107600000D01*
X101070625Y-107400625D01*
X101398839Y-106909418D01*
X101514092Y-106330000D01*
X101398839Y-105750582D01*
X101070625Y-105259375D01*
X100751522Y-105046157D01*
X100881358Y-104985183D01*
X101037347Y-104814017D01*
X104065000Y-104814017D01*
X104065000Y-105185983D01*
X104207345Y-105529635D01*
X104470365Y-105792655D01*
X104814017Y-105935000D01*
X105185983Y-105935000D01*
X105529635Y-105792655D01*
X105792655Y-105529635D01*
X105935000Y-105185983D01*
X105935000Y-104814017D01*
X105792655Y-104470365D01*
X105529635Y-104207345D01*
X105185983Y-104065000D01*
X104814017Y-104065000D01*
X104470365Y-104207345D01*
X104207345Y-104470365D01*
X104065000Y-104814017D01*
X101037347Y-104814017D01*
X101271645Y-104556924D01*
X101441476Y-104146890D01*
X101320155Y-103917000D01*
X100127000Y-103917000D01*
X100127000Y-103937000D01*
X99873000Y-103937000D01*
X99873000Y-103917000D01*
X98679845Y-103917000D01*
X98558524Y-104146890D01*
X98728355Y-104556924D01*
X99118642Y-104985183D01*
X99248478Y-105046157D01*
X98929375Y-105259375D01*
X98601161Y-105750582D01*
X98485908Y-106330000D01*
X98210000Y-106330000D01*
X98210000Y-100400000D01*
X98502560Y-100400000D01*
X98502560Y-102100000D01*
X98551843Y-102347765D01*
X98692191Y-102557809D01*
X98902235Y-102698157D01*
X99005708Y-102718739D01*
X98728355Y-103023076D01*
X98558524Y-103433110D01*
X98679845Y-103663000D01*
X99873000Y-103663000D01*
X99873000Y-103643000D01*
X100127000Y-103643000D01*
X100127000Y-103663000D01*
X101320155Y-103663000D01*
X101441476Y-103433110D01*
X101271645Y-103023076D01*
X100994292Y-102718739D01*
X101097765Y-102698157D01*
X101307809Y-102557809D01*
X101448157Y-102347765D01*
X101497440Y-102100000D01*
X101497440Y-100400000D01*
X101448157Y-100152235D01*
X101307809Y-99942191D01*
X101115985Y-99814017D01*
X104065000Y-99814017D01*
X104065000Y-100185983D01*
X104207345Y-100529635D01*
X104470365Y-100792655D01*
X104814017Y-100935000D01*
X105185983Y-100935000D01*
X105529635Y-100792655D01*
X105792655Y-100529635D01*
X105935000Y-100185983D01*
X105935000Y-99814017D01*
X105792655Y-99470365D01*
X105529635Y-99207345D01*
X105185983Y-99065000D01*
X104814017Y-99065000D01*
X104470365Y-99207345D01*
X104207345Y-99470365D01*
X104065000Y-99814017D01*
X101115985Y-99814017D01*
X101097765Y-99801843D01*
X100850000Y-99752560D01*
X99150000Y-99752560D01*
X98902235Y-99801843D01*
X98692191Y-99942191D01*
X98551843Y-100152235D01*
X98502560Y-100400000D01*
X98210000Y-100400000D01*
X98210000Y-97794090D01*
X100294092Y-95710000D01*
X114705910Y-95710000D01*
X114984597Y-95988687D01*
G04 #@! TD*
M02*
